<?xml version="1.0" encoding="ISO-8859-1"?>
<!DOCTYPE svg PUBLIC "-//W3C//DTD SVG 1.0//EN" "http://www.w3.org/TR/2001/REC-SVG-20010904/DTD/svg10.dtd">
<!-- generated by Grace-5.1.25 -->
<svg xml:space="preserve" width="11.0000in" height="8.5000in" viewBox="0.0000 0.0000 792.0000 612.0000">
 <g transform="translate(0,612.0000) scale(1,-1)">
  <g style="fill:#FFFFFF; fill-rule:nonzero">
   <path  d="M0.0000,0.0000L0.0000,612.0000L792.0000,612.0000L792.0000,0.0000z"/>
  </g>
  <g style="fill:none; stroke:#FFFF00; stroke-width:  0.9180; stroke-linecap:butt; stroke-linejoin:miter; stroke-dasharray:none">
   <path d="M193.8000,91.8000L194.2080,91.8000L194.6160,91.8000L195.0240,91.8000L195.4320,91.8000L195.8400,91.8000L196.2480,91.8000L196.6560,91.8000L197.0640,91.8000L197.4720,91.8000
            L197.8800,91.8000L198.2880,91.8000L198.6960,91.8000L199.1040,91.8000L199.5120,91.8000L199.9200,91.8000L200.3280,91.8000L200.7360,91.8000L201.1440,91.8000L201.5520,91.8000
            L201.9600,91.8000L202.3680,91.8000L202.7760,91.8000L203.1840,91.8000L203.5920,91.8000L204.0000,91.8000L204.4080,91.8000L204.8160,91.8000L205.2240,91.8000L205.6320,91.8000
            L206.0400,91.8000L206.4480,91.8000L206.8560,91.8000L207.2640,91.8000L207.6720,91.8000L208.0800,91.8000L208.4880,91.8000L208.8960,91.8000L209.3040,91.8000L209.7120,91.8000
            L210.1200,91.8000L210.5280,91.8000L210.9360,91.8000L211.3440,91.8000L211.7520,91.8000L212.1600,91.8000L212.5680,91.8000L212.9760,91.8000L213.3840,91.8000L213.7920,91.8000
            L214.2000,91.8000L214.6080,91.8000L215.0160,91.8000L215.4240,91.8000L215.8320,91.8000L216.2400,91.8000L216.6480,91.8000L217.0560,91.8000L217.4640,91.8000L217.8720,91.8000
            L218.2800,91.8000L218.6880,91.8000L219.0960,91.8000L219.5040,91.8000L219.9120,91.8000L220.3200,91.8000L220.7280,91.8000L221.1360,91.8000L221.5440,91.8000L221.9520,91.8000
            L222.3600,91.8000L222.7680,91.8000L223.1760,91.8000L223.5840,91.8000L223.9920,91.8000L224.4000,91.8000L224.8080,91.8000L225.2160,91.8000L225.6240,91.8000L226.0320,91.8000
            L226.4400,91.8000L226.8480,91.8000L227.2560,91.8000L227.6640,91.8000L228.0720,91.8000L228.4800,91.8000L228.8880,91.8000L229.2960,91.8000L229.7040,91.8000L230.1120,91.8000
            L230.5200,91.8000L230.9280,91.8000L231.3360,91.8000L231.7440,91.8000L232.1520,91.8000L232.5600,91.8000L232.9680,91.8000L233.3760,91.8000L233.7840,91.8000L234.1920,91.8000
            L234.6000,91.8000L235.0080,91.8000L235.4160,91.8000L235.8240,91.8000L236.2320,91.8000L236.6400,91.8000L237.0480,91.8000L237.4560,91.8000L237.8640,91.8000L238.2720,92.0677
            L238.6800,91.8000L239.0880,92.0677L239.4960,91.8000L239.9040,91.8000L240.3120,92.0677L240.7200,91.8000L241.1280,91.8000L241.5360,91.8000L241.9440,91.8000L242.3520,91.8000
            L242.7600,91.8000L243.1680,91.8000L243.5760,92.0677L243.9840,91.8000L244.3920,91.8000L244.8000,91.8000L245.2080,91.8000L245.6160,91.8000L246.0240,91.8000L246.4320,91.8000
            L246.8400,91.8000L247.2480,91.8000L247.6560,91.8000L248.0640,91.8000L248.4720,91.8000L248.8800,92.0677L249.2880,91.8000L249.6960,91.8000L250.1040,91.8000L250.5120,91.8000
            L250.9200,91.8000L251.3280,92.0677L251.7360,91.8000L252.1440,91.8000L252.5520,91.8000L252.9600,91.8000L253.3680,91.8000L253.7760,91.8000L254.1840,91.8000L254.5920,92.0677
            L255.0000,91.8000L255.4080,91.8000L255.8160,91.8000L256.2240,91.8000L256.6320,91.8000L257.0400,92.0677L257.4480,91.8000L257.8560,91.8000L258.2640,91.8000L258.6720,91.8000
            L259.0800,92.0677L259.4880,91.8000L259.8960,92.0677L260.3040,91.8000L260.7120,91.8000L261.1200,91.8000L261.5280,92.0677L261.9360,91.8000L262.3440,91.8000L262.7520,91.8000
            L263.1600,92.0677L263.5680,91.8000L263.9760,92.0677L264.3840,92.3355L264.7920,91.8000L265.2000,92.0677L265.6080,92.6032L266.0160,92.6032L266.4240,92.0677L266.8320,92.0677
            L267.2400,92.3355L267.6480,91.8000L268.0560,91.8000L268.4640,91.8000L268.8720,92.0677L269.2800,92.0677L269.6880,93.1387L270.0960,92.6032L270.5040,92.0677L270.9120,92.3355
            L271.3200,92.0677L271.7280,92.0677L272.1360,93.1387L272.5440,91.8000L272.9520,92.0677L273.3600,91.8000L273.7680,92.8710L274.1760,92.3355L274.5840,92.3355L274.9920,92.6032
            L275.4000,92.0677L275.8080,92.0677L276.2160,92.0677L276.6240,92.0677L277.0320,92.3355L277.4400,92.6032L277.8480,91.8000L278.2560,93.1387L278.6640,93.1387L279.0720,93.4065
            L279.4800,93.1387L279.8880,93.1387L280.2960,92.8710L280.7040,92.8710L281.1120,92.3355L281.5200,92.6032L281.9280,92.6032L282.3360,94.2097L282.7440,93.4065L283.1520,92.8710
            L283.5600,93.1387L283.9680,93.4065L284.3760,93.4065L284.7840,93.6742L285.1920,93.1387L285.6000,93.4065L286.0080,93.1387L286.4160,93.4065L286.8240,93.4065L287.2320,95.0130
            L287.6400,93.9420L288.0480,94.2097L288.4560,94.2097L288.8640,92.3355L289.2720,94.4775L289.6800,93.6742L290.0880,95.2807L290.4960,93.4065L290.9040,94.2097L291.3120,93.4065
            L291.7200,94.4775L292.1280,97.1550L292.5360,94.2097L292.9440,94.2097L293.3520,93.9420L293.7600,96.0840L294.1680,94.4775L294.5760,96.0840L294.9840,95.2807L295.3920,94.7452
            L295.8000,95.5485L296.2080,94.4775L296.6160,96.0840L297.0240,95.2807L297.4320,95.5485L297.8400,95.0130L298.2480,95.5485L298.6560,99.5647L299.0640,95.8162L299.4720,97.1550
            L299.8800,95.0130L300.2880,95.0130L300.6960,96.0840L301.1040,96.0840L301.5120,96.0840L301.9200,100.6357L302.3280,97.4227L302.7360,98.4937L303.1440,98.7615L303.5520,96.6195
            L303.9600,99.2970L304.3680,101.1712L304.7760,99.8325L305.1840,99.0292L305.5920,103.0454L306.0000,101.9744L306.4080,100.6357L306.8160,100.1002L307.2240,102.2422L307.6320,103.0454
            L308.0400,99.2970L308.4480,103.3132L308.8560,104.1164L309.2640,105.9907L309.6720,104.9197L310.0800,103.5809L310.4880,101.4390L310.8960,103.0454L311.3040,106.7939L311.7120,106.2584
            L312.1200,105.9907L312.5280,105.1874L312.9360,106.2584L313.3440,109.2037L313.7520,106.5262L314.1600,108.6682L314.5680,108.6682L314.9760,112.6844L315.3840,110.8102L315.7920,109.4714
            L316.2000,105.4552L316.6080,110.0069L317.0160,109.4714L317.4240,109.4714L317.8320,113.4876L318.2400,110.5424L318.6480,115.0941L319.0560,115.3619L319.4640,114.0231L319.8720,118.0394
            L320.2800,118.3071L320.6880,111.3457L321.0960,116.4329L321.5040,116.1651L321.9120,116.9684L322.3200,120.9846L322.7280,123.6621L323.1360,116.7006L323.5440,120.1814L323.9520,117.5039
            L324.3600,118.3071L324.7680,122.0556L325.1760,119.6459L325.5840,128.4816L325.9920,125.8041L326.4000,124.1976L326.8080,123.6621L327.2160,123.6621L327.6240,129.5526L328.0320,127.1428
            L328.4400,131.6946L328.8480,133.8365L329.2560,134.9075L329.6640,134.9075L330.0720,126.3396L330.4800,130.6236L330.8880,134.1043L331.2960,133.0333L331.7040,134.1043L332.1120,138.9238
            L332.5200,130.6236L332.9280,137.3173L333.3360,141.0658L333.7440,139.7270L334.1520,146.4207L334.5600,144.0110L334.9680,143.7432L335.3760,142.4045L335.7840,144.8142L336.1920,150.1692
            L336.6000,146.6885L337.0080,145.6175L337.4160,150.7047L337.8240,146.6885L338.2320,148.2950L338.6400,152.0434L339.0480,156.5952L339.4560,152.8467L339.8640,160.6114L340.2720,150.9725
            L340.6800,160.3437L341.0880,154.9887L341.4960,161.1469L341.9040,162.7534L342.3120,163.8244L342.7200,173.7311L343.1280,168.3761L343.5360,168.6439L343.9440,168.1084L344.3520,169.9826
            L344.7600,177.2118L345.1680,178.5506L345.5760,173.1956L345.9840,172.6601L346.3920,179.6216L346.8000,171.0536L347.2080,181.4958L347.6160,178.0151L348.0240,188.4573L348.4320,186.8508
            L348.8400,183.1023L349.2480,188.4573L349.6560,174.8021L350.0640,199.7027L350.4720,182.5668L350.8800,197.8285L351.2880,194.8832L351.6960,206.3964L352.1040,202.9157L352.5120,211.7514
            L352.9200,204.5222L353.3280,206.1287L353.7360,194.0800L354.1440,215.7676L354.5520,199.7027L354.9600,201.0415L355.3680,214.9644L355.7760,210.4127L356.1840,217.9096L356.5920,220.8549
            L357.0000,216.5709L357.4080,219.5161L357.8160,212.8224L358.2240,221.6581L358.6320,223.8001L359.0400,222.4613L359.4480,217.1064L359.8560,230.7616L360.2640,223.2646L360.6720,234.5100
            L361.0800,249.2362L361.4880,239.8650L361.8960,246.5587L362.3040,242.0070L362.7120,243.0780L363.1200,250.0395L363.5280,246.2910L363.9360,239.5973L364.3440,245.7555L364.7520,256.7332
            L365.1600,265.8366L365.5680,254.0557L365.9760,267.4431L366.3840,266.9076L366.7920,258.0719L367.2000,269.5851L367.6080,263.4269L368.0160,270.9239L368.4240,268.5141L368.8320,261.5527
            L369.2400,251.1105L369.6480,286.4533L370.0560,273.3336L370.4640,268.7819L370.8720,277.8853L371.2800,268.2464L371.6880,281.0983L372.0960,278.6886L372.5040,287.7920L372.9120,288.8630
            L373.3200,278.1531L373.7280,282.1693L374.1360,279.7596L374.5440,275.7433L374.9520,296.0922L375.3600,301.1795L375.7680,281.3661L376.1760,308.6764L376.5840,294.4857L376.9920,302.7859
            L377.4000,288.3275L377.8080,295.8245L378.2160,311.0862L378.6240,304.1247L379.0320,301.1795L379.4400,310.8184L379.8480,314.5669L380.2560,296.0922L380.6640,318.5831L381.0720,300.9117
            L381.4800,303.3214L381.8880,335.4513L382.2960,315.3701L382.7040,321.5284L383.1120,311.0862L383.5200,320.9929L383.9280,308.6764L384.3360,313.4959L384.7440,327.1511L385.1520,324.7413
            L385.5600,330.3641L385.9680,329.2931L386.3760,327.9543L386.7840,324.4736L387.1920,325.0091L387.6000,335.4513L388.0080,321.5284L388.4160,325.8123L388.8240,331.7028L389.2320,335.9868
            L389.6400,335.4513L390.0480,325.5446L390.4560,327.9543L390.8640,326.3478L391.2720,328.7576L391.6800,331.4351L392.0880,346.6967L392.4960,342.1450L392.9040,338.1288L393.3120,337.3255
            L393.7200,331.1673L394.1280,323.1348L394.5360,334.9158L394.9440,349.3742L395.3520,336.7900L395.7600,329.0253L396.1680,324.7413L396.5760,330.3641L396.9840,347.2322L397.3920,341.3418
            L397.8000,331.9705L398.2080,341.0740L398.6160,334.6480L399.0240,334.6480L399.4320,325.2768L399.8400,336.2545L400.2480,328.7576L400.6560,329.2931L401.0640,329.0253L401.4720,339.4675
            L401.8800,334.6480L402.2880,323.6703L402.6960,336.2545L403.1040,330.0963L403.5120,326.8833L403.9200,327.1511L404.3280,337.8610L404.7360,338.3965L405.1440,328.4898L405.5520,311.6217
            L405.9600,330.8996L406.3680,330.8996L406.7760,319.1186L407.1840,323.4026L407.5920,345.6257L408.0000,314.8346L408.4080,333.0415L408.8160,329.2931L409.2240,318.8509L409.6320,320.7251
            L410.0400,327.6866L410.4480,333.3093L410.8560,304.6602L411.2640,323.9381L411.6720,317.2444L412.0800,310.5507L412.4880,331.1673L412.8960,308.6764L413.3040,321.2606L413.7120,302.7859
            L414.1200,306.8022L414.5280,314.2991L414.9360,319.6541L415.3440,308.1409L415.7520,307.8732L416.1600,300.3762L416.5680,302.5182L416.9760,303.5892L417.3840,304.6602L417.7920,299.0375
            L418.2000,299.3052L418.6080,302.2504L419.0160,293.1470L419.4240,288.5953L419.8320,292.6115L420.2400,291.5405L420.6480,293.1470L421.0560,284.3113L421.4640,293.6825L421.8720,286.7210
            L422.2800,287.7920L422.6880,289.9340L423.0960,296.8955L423.5040,282.7048L423.9120,290.4695L424.3200,275.7433L424.7280,282.4370L425.1360,269.0496L425.5440,263.9624L425.9520,271.1916
            L426.3600,282.7048L426.7680,260.2139L427.1760,244.4167L427.5840,259.9462L427.9920,267.7109L428.4000,262.6236L428.8080,253.7879L429.2160,251.9137L429.6240,243.6135L430.0320,250.5750
            L430.4400,247.0942L430.8480,243.3457L431.2560,247.0942L431.6640,248.4330L432.0720,251.6460L432.4800,244.6845L432.8880,231.5648L433.2960,244.6845L433.7040,239.0618L434.1120,243.0780
            L434.5200,232.6358L434.9280,230.7616L435.3360,232.6358L435.7440,231.2971L436.1520,224.6033L436.5600,224.6033L436.9680,227.0131L437.3760,216.5709L437.7840,213.8934L438.1920,222.7291
            L438.6000,213.0901L439.0080,217.1064L439.4160,213.0901L439.8240,205.0577L440.2320,218.9806L440.6400,222.1936L441.0480,222.1936L441.4560,212.2869L441.8640,212.0191L442.2720,213.0901
            L442.6800,213.6256L443.0880,208.2707L443.4960,201.8447L443.9040,190.8670L444.3120,195.1510L444.7200,193.5445L445.1280,185.2443L445.5360,192.7412L445.9440,180.6926L446.3520,201.8447
            L446.7600,190.8670L447.1680,174.2666L447.5760,199.1672L447.9840,188.7250L448.3920,178.8183L448.8000,179.8893L449.2080,180.6926L449.6160,170.7859L450.0240,172.1246L450.4320,178.0151
            L450.8400,178.0151L451.2480,168.1084L451.6560,165.1631L452.0640,168.9116L452.4720,165.4309L452.8800,168.1084L453.2880,172.1246L453.6960,156.8629L454.1040,163.8244L454.5120,154.1854
            L454.9200,162.7534L455.3280,159.8082L455.7360,150.4370L456.1440,158.4694L456.5520,151.5080L456.9600,150.9725L457.3680,157.3984L457.7760,151.2402L458.1840,152.0434L458.5920,149.0982
            L459.0000,139.4593L459.4080,149.9015L459.8160,139.7270L460.2240,138.9238L460.6320,143.2077L461.0400,141.8690L461.4480,152.5789L461.8560,139.9948L462.2640,141.8690L462.6720,137.3173
            L463.0800,130.8913L463.4880,130.6236L463.8960,142.1367L464.3040,135.9785L464.7120,132.7655L465.1200,133.0333L465.5280,135.4430L465.9360,129.2848L466.3440,129.8203L466.7520,126.8751
            L467.1600,129.0171L467.5680,125.2686L467.9760,129.2848L468.3840,126.0718L468.7920,131.6946L469.2000,124.4653L469.6080,123.3943L470.0160,127.1428L470.4240,126.6073L470.8320,123.9298
            L471.2400,123.3943L471.6480,123.3943L472.0560,120.7169L472.4640,116.1651L472.8720,122.0556L473.2800,114.8264L473.6880,114.5586L474.0960,122.3233L474.5040,116.9684L474.9120,112.6844
            L475.3200,112.9521L475.7280,110.5424L476.1360,113.4876L476.5440,114.8264L476.9520,113.4876L477.3600,114.5586L477.7680,112.9521L478.1760,111.0779L478.5840,112.4166L478.9920,109.2037
            L479.4000,111.3457L479.8080,113.7554L480.2160,107.3294L480.6240,111.3457L481.0320,107.5972L481.4400,102.7777L481.8480,109.2037L482.2560,106.2584L482.6640,104.1164L483.0720,105.7229
            L483.4800,104.6519L483.8880,106.7939L484.2960,102.5099L484.7040,104.6519L485.1120,105.7229L485.5200,104.9197L485.9280,102.2422L486.3360,104.3842L486.7440,104.3842L487.1520,105.4552
            L487.5600,102.5099L487.9680,103.8487L488.3760,99.2970L488.7840,100.9035L489.1920,103.0454L489.6000,101.4390L490.0080,100.1002L490.4160,101.7067L490.8240,98.4937L491.2320,100.3680
            L491.6400,98.7615L492.0480,100.6357L492.4560,99.2970L492.8640,97.4227L493.2720,97.9582L493.6800,99.0292L494.0880,97.6905L494.4960,97.6905L494.9040,96.8872L495.3120,98.7615
            L495.7200,96.3517L496.1280,97.6905L496.5360,99.0292L496.9440,98.4937L497.3520,99.0292L497.7600,96.6195L498.1680,95.2807L498.5760,97.1550L498.9840,95.0130L499.3920,95.2807
            L499.8000,94.4775L500.2080,98.4937L500.6160,97.6905L501.0240,95.5485L501.4320,96.0840L501.8400,95.8162L502.2480,95.2807L502.6560,94.4775L503.0640,94.7452L503.4720,94.2097
            L503.8800,95.0130L504.2880,94.4775L504.6960,94.7452L505.1040,92.8710L505.5120,95.8162L505.9200,94.4775L506.3280,95.8162L506.7360,93.9420L507.1440,92.3355L507.5520,92.6032
            L507.9600,92.8710L508.3680,93.1387L508.7760,93.6742L509.1840,93.9420L509.5920,93.9420L510.0000,93.4065L510.4080,94.4775L510.8160,92.6032L511.2240,93.1387L511.6320,93.1387
            L512.0400,92.6032L512.4480,93.1387L512.8560,92.6032L513.2640,92.6032L513.6720,93.6742L514.0800,92.3355L514.4880,92.0677L514.8960,92.6032L515.3040,93.1387L515.7120,92.8710
            L516.1200,93.4065L516.5280,93.1387L516.9360,93.4065L517.3440,93.9420L517.7520,92.8710L518.1600,92.3355L518.5680,92.6032L518.9760,92.8710L519.3840,93.1387L519.7920,92.3355
            L520.2000,91.8000L520.6080,92.3355L521.0160,92.0677L521.4240,92.3355L521.8320,92.3355L522.2400,92.6032L522.6480,92.6032L523.0560,92.0677L523.4640,92.3355L523.8720,92.3355
            L524.2800,91.8000L524.6880,91.8000L525.0960,92.0677L525.5040,92.3355L525.9120,92.3355L526.3200,92.6032L526.7280,92.0677L527.1360,91.8000L527.5440,92.0677L527.9520,92.3355
            L528.3600,91.8000L528.7680,92.3355L529.1760,92.0677L529.5840,92.0677L529.9920,92.6032L530.4000,92.0677L530.8080,92.0677L531.2160,91.8000L531.6240,92.0677L532.0320,91.8000
            L532.4400,91.8000L532.8480,92.0677L533.2560,92.0677L533.6640,92.0677L534.0720,91.8000L534.4800,91.8000L534.8880,92.0677L535.2960,91.8000L535.7040,92.0677L536.1120,92.0677
            L536.5200,91.8000L536.9280,91.8000L537.3360,92.0677L537.7440,91.8000L538.1520,91.8000L538.5600,91.8000L538.9680,92.3355L539.3760,91.8000L539.7840,92.3355L540.1920,91.8000
            L540.6000,91.8000L541.0080,92.0677L541.4160,91.8000L541.8240,92.0677L542.2320,91.8000L542.6400,92.0677L543.0480,91.8000L543.4560,92.0677L543.8640,91.8000L544.2720,91.8000
            L544.6800,91.8000L545.0880,91.8000L545.4960,91.8000L545.9040,91.8000L546.3120,91.8000L546.7200,92.0677L547.1280,91.8000L547.5360,91.8000L547.9440,91.8000L548.3520,91.8000
            L548.7600,91.8000L549.1680,91.8000L549.5760,91.8000L549.9840,91.8000L550.3920,91.8000L550.8000,91.8000L551.2080,92.0677L551.6160,91.8000L552.0240,91.8000L552.4320,91.8000
            L552.8400,91.8000L553.2480,92.0677L553.6560,91.8000L554.0640,91.8000L554.4720,91.8000L554.8800,91.8000L555.2880,91.8000L555.6960,91.8000L556.1040,91.8000L556.5120,91.8000
            L556.9200,91.8000L557.3280,91.8000L557.7360,91.8000L558.1440,91.8000L558.5520,91.8000L558.9600,91.8000L559.3680,91.8000L559.7760,91.8000L560.1840,91.8000L560.5920,91.8000
            L561.0000,91.8000L561.4080,91.8000L561.8160,91.8000L562.2240,91.8000L562.6320,91.8000L563.0400,91.8000L563.4480,91.8000L563.8560,91.8000L564.2640,91.8000L564.6720,91.8000
            L565.0800,91.8000L565.4880,91.8000L565.8960,91.8000L566.3040,91.8000L566.7120,91.8000L567.1200,91.8000L567.5280,91.8000L567.9360,91.8000L568.3440,91.8000L568.7520,91.8000
            L569.1600,91.8000L569.5680,91.8000L569.9760,91.8000L570.3840,91.8000L570.7920,91.8000L571.2000,91.8000L571.6080,91.8000L572.0160,91.8000L572.4240,91.8000L572.8320,91.8000
            L573.2400,91.8000L573.6480,91.8000L574.0560,91.8000L574.4640,91.8000L574.8720,91.8000L575.2800,91.8000L575.6880,91.8000L576.0960,91.8000L576.5040,91.8000L576.9120,91.8000
            L577.3200,91.8000L577.7280,91.8000L578.1360,91.8000L578.5440,91.8000L578.9520,91.8000L579.3600,91.8000L579.7680,91.8000L580.1760,91.8000L580.5840,91.8000L580.9920,91.8000
            L581.4000,91.8000L581.8080,91.8000L582.2160,91.8000L582.6240,91.8000L583.0320,91.8000L583.4400,91.8000L583.8480,91.8000L584.2560,91.8000L584.6640,91.8000L585.0720,91.8000
            L585.4800,91.8000L585.8880,91.8000L586.2960,91.8000L586.7040,91.8000L587.1120,91.8000L587.5200,91.8000L587.9280,91.8000L588.3360,91.8000L588.7440,91.8000L589.1520,91.8000
            L589.5600,91.8000L589.9680,91.8000L590.3760,91.8000L590.7840,91.8000L591.1920,91.8000L591.6000,91.8000L592.0080,91.8000L592.4160,91.8000L592.8240,91.8000L593.2320,91.8000
            L593.6400,91.8000L594.0480,91.8000L594.4560,91.8000L594.8640,91.8000L595.2720,91.8000L595.6800,91.8000L596.0880,91.8000L596.4960,91.8000L596.9040,91.8000L597.3120,91.8000
            L597.7200,91.8000L598.1280,91.8000L598.5360,91.8000L598.9440,91.8000L599.3520,91.8000L599.7600,91.8000L600.1680,91.8000L600.5760,91.8000L600.9840,91.8000L601.3920,91.8000
            L601.8000,91.8000"/>
   <path d="M193.8000,91.8000L193.8000,91.8000"/>
   <path d="M194.2080,91.8000L194.2080,91.8000"/>
   <path d="M194.6160,91.8000L194.6160,91.8000"/>
   <path d="M195.0240,91.8000L195.0240,91.8000"/>
   <path d="M195.4320,91.8000L195.4320,91.8000"/>
   <path d="M195.8400,91.8000L195.8400,91.8000"/>
   <path d="M196.2480,91.8000L196.2480,91.8000"/>
   <path d="M196.6560,91.8000L196.6560,91.8000"/>
   <path d="M197.0640,91.8000L197.0640,91.8000"/>
   <path d="M197.4720,91.8000L197.4720,91.8000"/>
   <path d="M197.8800,91.8000L197.8800,91.8000"/>
   <path d="M198.2880,91.8000L198.2880,91.8000"/>
   <path d="M198.6960,91.8000L198.6960,91.8000"/>
   <path d="M199.1040,91.8000L199.1040,91.8000"/>
   <path d="M199.5120,91.8000L199.5120,91.8000"/>
   <path d="M199.9200,91.8000L199.9200,91.8000"/>
   <path d="M200.3280,91.8000L200.3280,91.8000"/>
   <path d="M200.7360,91.8000L200.7360,91.8000"/>
   <path d="M201.1440,91.8000L201.1440,91.8000"/>
   <path d="M201.5520,91.8000L201.5520,91.8000"/>
   <path d="M201.9600,91.8000L201.9600,91.8000"/>
   <path d="M202.3680,91.8000L202.3680,91.8000"/>
   <path d="M202.7760,91.8000L202.7760,91.8000"/>
   <path d="M203.1840,91.8000L203.1840,91.8000"/>
   <path d="M203.5920,91.8000L203.5920,91.8000"/>
   <path d="M204.0000,91.8000L204.0000,91.8000"/>
   <path d="M204.4080,91.8000L204.4080,91.8000"/>
   <path d="M204.8160,91.8000L204.8160,91.8000"/>
   <path d="M205.2240,91.8000L205.2240,91.8000"/>
   <path d="M205.6320,91.8000L205.6320,91.8000"/>
   <path d="M206.0400,91.8000L206.0400,91.8000"/>
   <path d="M206.4480,91.8000L206.4480,91.8000"/>
   <path d="M206.8560,91.8000L206.8560,91.8000"/>
   <path d="M207.2640,91.8000L207.2640,91.8000"/>
   <path d="M207.6720,91.8000L207.6720,91.8000"/>
   <path d="M208.0800,91.8000L208.0800,91.8000"/>
   <path d="M208.4880,91.8000L208.4880,91.8000"/>
   <path d="M208.8960,91.8000L208.8960,91.8000"/>
   <path d="M209.3040,91.8000L209.3040,91.8000"/>
   <path d="M209.7120,91.8000L209.7120,91.8000"/>
   <path d="M210.1200,91.8000L210.1200,91.8000"/>
   <path d="M210.5280,91.8000L210.5280,91.8000"/>
   <path d="M210.9360,91.8000L210.9360,91.8000"/>
   <path d="M211.3440,91.8000L211.3440,91.8000"/>
   <path d="M211.7520,91.8000L211.7520,91.8000"/>
   <path d="M212.1600,91.8000L212.1600,91.8000"/>
   <path d="M212.5680,91.8000L212.5680,91.8000"/>
   <path d="M212.9760,91.8000L212.9760,91.8000"/>
   <path d="M213.3840,91.8000L213.3840,91.8000"/>
   <path d="M213.7920,91.8000L213.7920,91.8000"/>
   <path d="M214.2000,91.8000L214.2000,91.8000"/>
   <path d="M214.6080,91.8000L214.6080,91.8000"/>
   <path d="M215.0160,91.8000L215.0160,91.8000"/>
   <path d="M215.4240,91.8000L215.4240,91.8000"/>
   <path d="M215.8320,91.8000L215.8320,91.8000"/>
   <path d="M216.2400,91.8000L216.2400,91.8000"/>
   <path d="M216.6480,91.8000L216.6480,91.8000"/>
   <path d="M217.0560,91.8000L217.0560,91.8000"/>
   <path d="M217.4640,91.8000L217.4640,91.8000"/>
   <path d="M217.8720,91.8000L217.8720,91.8000"/>
   <path d="M218.2800,91.8000L218.2800,91.8000"/>
   <path d="M218.6880,91.8000L218.6880,91.8000"/>
   <path d="M219.0960,91.8000L219.0960,91.8000"/>
   <path d="M219.5040,91.8000L219.5040,91.8000"/>
   <path d="M219.9120,91.8000L219.9120,91.8000"/>
   <path d="M220.3200,91.8000L220.3200,91.8000"/>
   <path d="M220.7280,91.8000L220.7280,91.8000"/>
   <path d="M221.1360,91.8000L221.1360,91.8000"/>
   <path d="M221.5440,91.8000L221.5440,91.8000"/>
   <path d="M221.9520,91.8000L221.9520,91.8000"/>
   <path d="M222.3600,91.8000L222.3600,91.8000"/>
   <path d="M222.7680,91.8000L222.7680,91.8000"/>
   <path d="M223.1760,91.8000L223.1760,91.8000"/>
   <path d="M223.5840,91.8000L223.5840,91.8000"/>
   <path d="M223.9920,91.8000L223.9920,91.8000"/>
   <path d="M224.4000,91.8000L224.4000,91.8000"/>
   <path d="M224.8080,91.8000L224.8080,91.8000"/>
   <path d="M225.2160,91.8000L225.2160,91.8000"/>
   <path d="M225.6240,91.8000L225.6240,91.8000"/>
   <path d="M226.0320,91.8000L226.0320,91.8000"/>
   <path d="M226.4400,91.8000L226.4400,91.8000"/>
   <path d="M226.8480,91.8000L226.8480,91.8000"/>
   <path d="M227.2560,91.8000L227.2560,91.8000"/>
   <path d="M227.6640,91.8000L227.6640,91.8000"/>
   <path d="M228.0720,91.8000L228.0720,91.8000"/>
   <path d="M228.4800,91.8000L228.4800,91.8000"/>
   <path d="M228.8880,91.8000L228.8880,91.8000"/>
   <path d="M229.2960,91.8000L229.2960,91.8000"/>
   <path d="M229.7040,91.8000L229.7040,91.8000"/>
   <path d="M230.1120,91.8000L230.1120,91.8000"/>
   <path d="M230.5200,91.8000L230.5200,91.8000"/>
   <path d="M230.9280,91.8000L230.9280,91.8000"/>
   <path d="M231.3360,91.8000L231.3360,91.8000"/>
   <path d="M231.7440,91.8000L231.7440,91.8000"/>
   <path d="M232.1520,91.8000L232.1520,91.8000"/>
   <path d="M232.5600,91.8000L232.5600,91.8000"/>
   <path d="M232.9680,91.8000L232.9680,91.8000"/>
   <path d="M233.3760,91.8000L233.3760,91.8000"/>
   <path d="M233.7840,91.8000L233.7840,91.8000"/>
   <path d="M234.1920,91.8000L234.1920,91.8000"/>
   <path d="M234.6000,91.8000L234.6000,91.8000"/>
   <path d="M235.0080,91.8000L235.0080,91.8000"/>
   <path d="M235.4160,91.8000L235.4160,91.8000"/>
   <path d="M235.8240,91.8000L235.8240,91.8000"/>
   <path d="M236.2320,91.8000L236.2320,91.8000"/>
   <path d="M236.6400,91.8000L236.6400,91.8000"/>
   <path d="M237.0480,91.8000L237.0480,91.8000"/>
   <path d="M237.4560,91.8000L237.4560,91.8000"/>
   <path d="M237.8640,91.8000L237.8640,91.8000"/>
   <path d="M238.2720,91.8000L238.2720,92.0677"/>
   <path d="M238.6800,91.8000L238.6800,91.8000"/>
   <path d="M239.0880,91.8000L239.0880,92.0677"/>
   <path d="M239.4960,91.8000L239.4960,91.8000"/>
   <path d="M239.9040,91.8000L239.9040,91.8000"/>
   <path d="M240.3120,91.8000L240.3120,92.0677"/>
   <path d="M240.7200,91.8000L240.7200,91.8000"/>
   <path d="M241.1280,91.8000L241.1280,91.8000"/>
   <path d="M241.5360,91.8000L241.5360,91.8000"/>
   <path d="M241.9440,91.8000L241.9440,91.8000"/>
   <path d="M242.3520,91.8000L242.3520,91.8000"/>
   <path d="M242.7600,91.8000L242.7600,91.8000"/>
   <path d="M243.1680,91.8000L243.1680,91.8000"/>
   <path d="M243.5760,91.8000L243.5760,92.0677"/>
   <path d="M243.9840,91.8000L243.9840,91.8000"/>
   <path d="M244.3920,91.8000L244.3920,91.8000"/>
   <path d="M244.8000,91.8000L244.8000,91.8000"/>
   <path d="M245.2080,91.8000L245.2080,91.8000"/>
   <path d="M245.6160,91.8000L245.6160,91.8000"/>
   <path d="M246.0240,91.8000L246.0240,91.8000"/>
   <path d="M246.4320,91.8000L246.4320,91.8000"/>
   <path d="M246.8400,91.8000L246.8400,91.8000"/>
   <path d="M247.2480,91.8000L247.2480,91.8000"/>
   <path d="M247.6560,91.8000L247.6560,91.8000"/>
   <path d="M248.0640,91.8000L248.0640,91.8000"/>
   <path d="M248.4720,91.8000L248.4720,91.8000"/>
   <path d="M248.8800,91.8000L248.8800,92.0677"/>
   <path d="M249.2880,91.8000L249.2880,91.8000"/>
   <path d="M249.6960,91.8000L249.6960,91.8000"/>
   <path d="M250.1040,91.8000L250.1040,91.8000"/>
   <path d="M250.5120,91.8000L250.5120,91.8000"/>
   <path d="M250.9200,91.8000L250.9200,91.8000"/>
   <path d="M251.3280,91.8000L251.3280,92.0677"/>
   <path d="M251.7360,91.8000L251.7360,91.8000"/>
   <path d="M252.1440,91.8000L252.1440,91.8000"/>
   <path d="M252.5520,91.8000L252.5520,91.8000"/>
   <path d="M252.9600,91.8000L252.9600,91.8000"/>
   <path d="M253.3680,91.8000L253.3680,91.8000"/>
   <path d="M253.7760,91.8000L253.7760,91.8000"/>
   <path d="M254.1840,91.8000L254.1840,91.8000"/>
   <path d="M254.5920,91.8000L254.5920,92.0677"/>
   <path d="M255.0000,91.8000L255.0000,91.8000"/>
   <path d="M255.4080,91.8000L255.4080,91.8000"/>
   <path d="M255.8160,91.8000L255.8160,91.8000"/>
   <path d="M256.2240,91.8000L256.2240,91.8000"/>
   <path d="M256.6320,91.8000L256.6320,91.8000"/>
   <path d="M257.0400,91.8000L257.0400,92.0677"/>
   <path d="M257.4480,91.8000L257.4480,91.8000"/>
   <path d="M257.8560,91.8000L257.8560,91.8000"/>
   <path d="M258.2640,91.8000L258.2640,91.8000"/>
   <path d="M258.6720,91.8000L258.6720,91.8000"/>
   <path d="M259.0800,91.8000L259.0800,92.0677"/>
   <path d="M259.4880,91.8000L259.4880,91.8000"/>
   <path d="M259.8960,91.8000L259.8960,92.0677"/>
   <path d="M260.3040,91.8000L260.3040,91.8000"/>
   <path d="M260.7120,91.8000L260.7120,91.8000"/>
   <path d="M261.1200,91.8000L261.1200,91.8000"/>
   <path d="M261.5280,91.8000L261.5280,92.0677"/>
   <path d="M261.9360,91.8000L261.9360,91.8000"/>
   <path d="M262.3440,91.8000L262.3440,91.8000"/>
   <path d="M262.7520,91.8000L262.7520,91.8000"/>
   <path d="M263.1600,91.8000L263.1600,92.0677"/>
   <path d="M263.5680,91.8000L263.5680,91.8000"/>
   <path d="M263.9760,91.8000L263.9760,92.0677"/>
   <path d="M264.3840,91.8000L264.3840,92.3355"/>
   <path d="M264.7920,91.8000L264.7920,91.8000"/>
   <path d="M265.2000,91.8000L265.2000,92.0677"/>
   <path d="M265.6080,91.8000L265.6080,92.6032"/>
   <path d="M266.0160,91.8000L266.0160,92.6032"/>
   <path d="M266.4240,91.8000L266.4240,92.0677"/>
   <path d="M266.8320,91.8000L266.8320,92.0677"/>
   <path d="M267.2400,91.8000L267.2400,92.3355"/>
   <path d="M267.6480,91.8000L267.6480,91.8000"/>
   <path d="M268.0560,91.8000L268.0560,91.8000"/>
   <path d="M268.4640,91.8000L268.4640,91.8000"/>
   <path d="M268.8720,91.8000L268.8720,92.0677"/>
   <path d="M269.2800,91.8000L269.2800,92.0677"/>
   <path d="M269.6880,91.8000L269.6880,93.1387"/>
   <path d="M270.0960,91.8000L270.0960,92.6032"/>
   <path d="M270.5040,91.8000L270.5040,92.0677"/>
   <path d="M270.9120,91.8000L270.9120,92.3355"/>
   <path d="M271.3200,91.8000L271.3200,92.0677"/>
   <path d="M271.7280,91.8000L271.7280,92.0677"/>
   <path d="M272.1360,91.8000L272.1360,93.1387"/>
   <path d="M272.5440,91.8000L272.5440,91.8000"/>
   <path d="M272.9520,91.8000L272.9520,92.0677"/>
   <path d="M273.3600,91.8000L273.3600,91.8000"/>
   <path d="M273.7680,91.8000L273.7680,92.8710"/>
   <path d="M274.1760,91.8000L274.1760,92.3355"/>
   <path d="M274.5840,91.8000L274.5840,92.3355"/>
   <path d="M274.9920,91.8000L274.9920,92.6032"/>
   <path d="M275.4000,91.8000L275.4000,92.0677"/>
   <path d="M275.8080,91.8000L275.8080,92.0677"/>
   <path d="M276.2160,91.8000L276.2160,92.0677"/>
   <path d="M276.6240,91.8000L276.6240,92.0677"/>
   <path d="M277.0320,91.8000L277.0320,92.3355"/>
   <path d="M277.4400,91.8000L277.4400,92.6032"/>
   <path d="M277.8480,91.8000L277.8480,91.8000"/>
   <path d="M278.2560,91.8000L278.2560,93.1387"/>
   <path d="M278.6640,91.8000L278.6640,93.1387"/>
   <path d="M279.0720,91.8000L279.0720,93.4065"/>
   <path d="M279.4800,91.8000L279.4800,93.1387"/>
   <path d="M279.8880,91.8000L279.8880,93.1387"/>
   <path d="M280.2960,91.8000L280.2960,92.8710"/>
   <path d="M280.7040,91.8000L280.7040,92.8710"/>
   <path d="M281.1120,91.8000L281.1120,92.3355"/>
   <path d="M281.5200,91.8000L281.5200,92.6032"/>
   <path d="M281.9280,91.8000L281.9280,92.6032"/>
   <path d="M282.3360,91.8000L282.3360,94.2097"/>
   <path d="M282.7440,91.8000L282.7440,93.4065"/>
   <path d="M283.1520,91.8000L283.1520,92.8710"/>
   <path d="M283.5600,91.8000L283.5600,93.1387"/>
   <path d="M283.9680,91.8000L283.9680,93.4065"/>
   <path d="M284.3760,91.8000L284.3760,93.4065"/>
   <path d="M284.7840,91.8000L284.7840,93.6742"/>
   <path d="M285.1920,91.8000L285.1920,93.1387"/>
   <path d="M285.6000,91.8000L285.6000,93.4065"/>
   <path d="M286.0080,91.8000L286.0080,93.1387"/>
   <path d="M286.4160,91.8000L286.4160,93.4065"/>
   <path d="M286.8240,91.8000L286.8240,93.4065"/>
   <path d="M287.2320,91.8000L287.2320,95.0130"/>
   <path d="M287.6400,91.8000L287.6400,93.9420"/>
   <path d="M288.0480,91.8000L288.0480,94.2097"/>
   <path d="M288.4560,91.8000L288.4560,94.2097"/>
   <path d="M288.8640,91.8000L288.8640,92.3355"/>
   <path d="M289.2720,91.8000L289.2720,94.4775"/>
   <path d="M289.6800,91.8000L289.6800,93.6742"/>
   <path d="M290.0880,91.8000L290.0880,95.2807"/>
   <path d="M290.4960,91.8000L290.4960,93.4065"/>
   <path d="M290.9040,91.8000L290.9040,94.2097"/>
   <path d="M291.3120,91.8000L291.3120,93.4065"/>
   <path d="M291.7200,91.8000L291.7200,94.4775"/>
   <path d="M292.1280,91.8000L292.1280,97.1550"/>
   <path d="M292.5360,91.8000L292.5360,94.2097"/>
   <path d="M292.9440,91.8000L292.9440,94.2097"/>
   <path d="M293.3520,91.8000L293.3520,93.9420"/>
   <path d="M293.7600,91.8000L293.7600,96.0840"/>
   <path d="M294.1680,91.8000L294.1680,94.4775"/>
   <path d="M294.5760,91.8000L294.5760,96.0840"/>
   <path d="M294.9840,91.8000L294.9840,95.2807"/>
   <path d="M295.3920,91.8000L295.3920,94.7452"/>
   <path d="M295.8000,91.8000L295.8000,95.5485"/>
   <path d="M296.2080,91.8000L296.2080,94.4775"/>
   <path d="M296.6160,91.8000L296.6160,96.0840"/>
   <path d="M297.0240,91.8000L297.0240,95.2807"/>
   <path d="M297.4320,91.8000L297.4320,95.5485"/>
   <path d="M297.8400,91.8000L297.8400,95.0130"/>
   <path d="M298.2480,91.8000L298.2480,95.5485"/>
   <path d="M298.6560,91.8000L298.6560,99.5647"/>
   <path d="M299.0640,91.8000L299.0640,95.8162"/>
   <path d="M299.4720,91.8000L299.4720,97.1550"/>
   <path d="M299.8800,91.8000L299.8800,95.0130"/>
   <path d="M300.2880,91.8000L300.2880,95.0130"/>
   <path d="M300.6960,91.8000L300.6960,96.0840"/>
   <path d="M301.1040,91.8000L301.1040,96.0840"/>
   <path d="M301.5120,91.8000L301.5120,96.0840"/>
   <path d="M301.9200,91.8000L301.9200,100.6357"/>
   <path d="M302.3280,91.8000L302.3280,97.4227"/>
   <path d="M302.7360,91.8000L302.7360,98.4937"/>
   <path d="M303.1440,91.8000L303.1440,98.7615"/>
   <path d="M303.5520,91.8000L303.5520,96.6195"/>
   <path d="M303.9600,91.8000L303.9600,99.2970"/>
   <path d="M304.3680,91.8000L304.3680,101.1712"/>
   <path d="M304.7760,91.8000L304.7760,99.8325"/>
   <path d="M305.1840,91.8000L305.1840,99.0292"/>
   <path d="M305.5920,91.8000L305.5920,103.0454"/>
   <path d="M306.0000,91.8000L306.0000,101.9744"/>
   <path d="M306.4080,91.8000L306.4080,100.6357"/>
   <path d="M306.8160,91.8000L306.8160,100.1002"/>
   <path d="M307.2240,91.8000L307.2240,102.2422"/>
   <path d="M307.6320,91.8000L307.6320,103.0454"/>
   <path d="M308.0400,91.8000L308.0400,99.2970"/>
   <path d="M308.4480,91.8000L308.4480,103.3132"/>
   <path d="M308.8560,91.8000L308.8560,104.1164"/>
   <path d="M309.2640,91.8000L309.2640,105.9907"/>
   <path d="M309.6720,91.8000L309.6720,104.9197"/>
   <path d="M310.0800,91.8000L310.0800,103.5809"/>
   <path d="M310.4880,91.8000L310.4880,101.4390"/>
   <path d="M310.8960,91.8000L310.8960,103.0454"/>
   <path d="M311.3040,91.8000L311.3040,106.7939"/>
   <path d="M311.7120,91.8000L311.7120,106.2584"/>
   <path d="M312.1200,91.8000L312.1200,105.9907"/>
   <path d="M312.5280,91.8000L312.5280,105.1874"/>
   <path d="M312.9360,91.8000L312.9360,106.2584"/>
   <path d="M313.3440,91.8000L313.3440,109.2037"/>
   <path d="M313.7520,91.8000L313.7520,106.5262"/>
   <path d="M314.1600,91.8000L314.1600,108.6682"/>
   <path d="M314.5680,91.8000L314.5680,108.6682"/>
   <path d="M314.9760,91.8000L314.9760,112.6844"/>
   <path d="M315.3840,91.8000L315.3840,110.8102"/>
   <path d="M315.7920,91.8000L315.7920,109.4714"/>
   <path d="M316.2000,91.8000L316.2000,105.4552"/>
   <path d="M316.6080,91.8000L316.6080,110.0069"/>
   <path d="M317.0160,91.8000L317.0160,109.4714"/>
   <path d="M317.4240,91.8000L317.4240,109.4714"/>
   <path d="M317.8320,91.8000L317.8320,113.4876"/>
   <path d="M318.2400,91.8000L318.2400,110.5424"/>
   <path d="M318.6480,91.8000L318.6480,115.0941"/>
   <path d="M319.0560,91.8000L319.0560,115.3619"/>
   <path d="M319.4640,91.8000L319.4640,114.0231"/>
   <path d="M319.8720,91.8000L319.8720,118.0394"/>
   <path d="M320.2800,91.8000L320.2800,118.3071"/>
   <path d="M320.6880,91.8000L320.6880,111.3457"/>
   <path d="M321.0960,91.8000L321.0960,116.4329"/>
   <path d="M321.5040,91.8000L321.5040,116.1651"/>
   <path d="M321.9120,91.8000L321.9120,116.9684"/>
   <path d="M322.3200,91.8000L322.3200,120.9846"/>
   <path d="M322.7280,91.8000L322.7280,123.6621"/>
   <path d="M323.1360,91.8000L323.1360,116.7006"/>
   <path d="M323.5440,91.8000L323.5440,120.1814"/>
   <path d="M323.9520,91.8000L323.9520,117.5039"/>
   <path d="M324.3600,91.8000L324.3600,118.3071"/>
   <path d="M324.7680,91.8000L324.7680,122.0556"/>
   <path d="M325.1760,91.8000L325.1760,119.6459"/>
   <path d="M325.5840,91.8000L325.5840,128.4816"/>
   <path d="M325.9920,91.8000L325.9920,125.8041"/>
   <path d="M326.4000,91.8000L326.4000,124.1976"/>
   <path d="M326.8080,91.8000L326.8080,123.6621"/>
   <path d="M327.2160,91.8000L327.2160,123.6621"/>
   <path d="M327.6240,91.8000L327.6240,129.5526"/>
   <path d="M328.0320,91.8000L328.0320,127.1428"/>
   <path d="M328.4400,91.8000L328.4400,131.6946"/>
   <path d="M328.8480,91.8000L328.8480,133.8365"/>
   <path d="M329.2560,91.8000L329.2560,134.9075"/>
   <path d="M329.6640,91.8000L329.6640,134.9075"/>
   <path d="M330.0720,91.8000L330.0720,126.3396"/>
   <path d="M330.4800,91.8000L330.4800,130.6236"/>
   <path d="M330.8880,91.8000L330.8880,134.1043"/>
   <path d="M331.2960,91.8000L331.2960,133.0333"/>
   <path d="M331.7040,91.8000L331.7040,134.1043"/>
   <path d="M332.1120,91.8000L332.1120,138.9238"/>
   <path d="M332.5200,91.8000L332.5200,130.6236"/>
   <path d="M332.9280,91.8000L332.9280,137.3173"/>
   <path d="M333.3360,91.8000L333.3360,141.0658"/>
   <path d="M333.7440,91.8000L333.7440,139.7270"/>
   <path d="M334.1520,91.8000L334.1520,146.4207"/>
   <path d="M334.5600,91.8000L334.5600,144.0110"/>
   <path d="M334.9680,91.8000L334.9680,143.7432"/>
   <path d="M335.3760,91.8000L335.3760,142.4045"/>
   <path d="M335.7840,91.8000L335.7840,144.8142"/>
   <path d="M336.1920,91.8000L336.1920,150.1692"/>
   <path d="M336.6000,91.8000L336.6000,146.6885"/>
   <path d="M337.0080,91.8000L337.0080,145.6175"/>
   <path d="M337.4160,91.8000L337.4160,150.7047"/>
   <path d="M337.8240,91.8000L337.8240,146.6885"/>
   <path d="M338.2320,91.8000L338.2320,148.2950"/>
   <path d="M338.6400,91.8000L338.6400,152.0434"/>
   <path d="M339.0480,91.8000L339.0480,156.5952"/>
   <path d="M339.4560,91.8000L339.4560,152.8467"/>
   <path d="M339.8640,91.8000L339.8640,160.6114"/>
   <path d="M340.2720,91.8000L340.2720,150.9725"/>
   <path d="M340.6800,91.8000L340.6800,160.3437"/>
   <path d="M341.0880,91.8000L341.0880,154.9887"/>
   <path d="M341.4960,91.8000L341.4960,161.1469"/>
   <path d="M341.9040,91.8000L341.9040,162.7534"/>
   <path d="M342.3120,91.8000L342.3120,163.8244"/>
   <path d="M342.7200,91.8000L342.7200,173.7311"/>
   <path d="M343.1280,91.8000L343.1280,168.3761"/>
   <path d="M343.5360,91.8000L343.5360,168.6439"/>
   <path d="M343.9440,91.8000L343.9440,168.1084"/>
   <path d="M344.3520,91.8000L344.3520,169.9826"/>
   <path d="M344.7600,91.8000L344.7600,177.2118"/>
   <path d="M345.1680,91.8000L345.1680,178.5506"/>
   <path d="M345.5760,91.8000L345.5760,173.1956"/>
   <path d="M345.9840,91.8000L345.9840,172.6601"/>
   <path d="M346.3920,91.8000L346.3920,179.6216"/>
   <path d="M346.8000,91.8000L346.8000,171.0536"/>
   <path d="M347.2080,91.8000L347.2080,181.4958"/>
   <path d="M347.6160,91.8000L347.6160,178.0151"/>
   <path d="M348.0240,91.8000L348.0240,188.4573"/>
   <path d="M348.4320,91.8000L348.4320,186.8508"/>
   <path d="M348.8400,91.8000L348.8400,183.1023"/>
   <path d="M349.2480,91.8000L349.2480,188.4573"/>
   <path d="M349.6560,91.8000L349.6560,174.8021"/>
   <path d="M350.0640,91.8000L350.0640,199.7027"/>
   <path d="M350.4720,91.8000L350.4720,182.5668"/>
   <path d="M350.8800,91.8000L350.8800,197.8285"/>
   <path d="M351.2880,91.8000L351.2880,194.8832"/>
   <path d="M351.6960,91.8000L351.6960,206.3964"/>
   <path d="M352.1040,91.8000L352.1040,202.9157"/>
   <path d="M352.5120,91.8000L352.5120,211.7514"/>
   <path d="M352.9200,91.8000L352.9200,204.5222"/>
   <path d="M353.3280,91.8000L353.3280,206.1287"/>
   <path d="M353.7360,91.8000L353.7360,194.0800"/>
   <path d="M354.1440,91.8000L354.1440,215.7676"/>
   <path d="M354.5520,91.8000L354.5520,199.7027"/>
   <path d="M354.9600,91.8000L354.9600,201.0415"/>
   <path d="M355.3680,91.8000L355.3680,214.9644"/>
   <path d="M355.7760,91.8000L355.7760,210.4127"/>
   <path d="M356.1840,91.8000L356.1840,217.9096"/>
   <path d="M356.5920,91.8000L356.5920,220.8549"/>
   <path d="M357.0000,91.8000L357.0000,216.5709"/>
   <path d="M357.4080,91.8000L357.4080,219.5161"/>
   <path d="M357.8160,91.8000L357.8160,212.8224"/>
   <path d="M358.2240,91.8000L358.2240,221.6581"/>
   <path d="M358.6320,91.8000L358.6320,223.8001"/>
   <path d="M359.0400,91.8000L359.0400,222.4613"/>
   <path d="M359.4480,91.8000L359.4480,217.1064"/>
   <path d="M359.8560,91.8000L359.8560,230.7616"/>
   <path d="M360.2640,91.8000L360.2640,223.2646"/>
   <path d="M360.6720,91.8000L360.6720,234.5100"/>
   <path d="M361.0800,91.8000L361.0800,249.2362"/>
   <path d="M361.4880,91.8000L361.4880,239.8650"/>
   <path d="M361.8960,91.8000L361.8960,246.5587"/>
   <path d="M362.3040,91.8000L362.3040,242.0070"/>
   <path d="M362.7120,91.8000L362.7120,243.0780"/>
   <path d="M363.1200,91.8000L363.1200,250.0395"/>
   <path d="M363.5280,91.8000L363.5280,246.2910"/>
   <path d="M363.9360,91.8000L363.9360,239.5973"/>
   <path d="M364.3440,91.8000L364.3440,245.7555"/>
   <path d="M364.7520,91.8000L364.7520,256.7332"/>
   <path d="M365.1600,91.8000L365.1600,265.8366"/>
   <path d="M365.5680,91.8000L365.5680,254.0557"/>
   <path d="M365.9760,91.8000L365.9760,267.4431"/>
   <path d="M366.3840,91.8000L366.3840,266.9076"/>
   <path d="M366.7920,91.8000L366.7920,258.0719"/>
   <path d="M367.2000,91.8000L367.2000,269.5851"/>
   <path d="M367.6080,91.8000L367.6080,263.4269"/>
   <path d="M368.0160,91.8000L368.0160,270.9239"/>
   <path d="M368.4240,91.8000L368.4240,268.5141"/>
   <path d="M368.8320,91.8000L368.8320,261.5527"/>
   <path d="M369.2400,91.8000L369.2400,251.1105"/>
   <path d="M369.6480,91.8000L369.6480,286.4533"/>
   <path d="M370.0560,91.8000L370.0560,273.3336"/>
   <path d="M370.4640,91.8000L370.4640,268.7819"/>
   <path d="M370.8720,91.8000L370.8720,277.8853"/>
   <path d="M371.2800,91.8000L371.2800,268.2464"/>
   <path d="M371.6880,91.8000L371.6880,281.0983"/>
   <path d="M372.0960,91.8000L372.0960,278.6886"/>
   <path d="M372.5040,91.8000L372.5040,287.7920"/>
   <path d="M372.9120,91.8000L372.9120,288.8630"/>
   <path d="M373.3200,91.8000L373.3200,278.1531"/>
   <path d="M373.7280,91.8000L373.7280,282.1693"/>
   <path d="M374.1360,91.8000L374.1360,279.7596"/>
   <path d="M374.5440,91.8000L374.5440,275.7433"/>
   <path d="M374.9520,91.8000L374.9520,296.0922"/>
   <path d="M375.3600,91.8000L375.3600,301.1795"/>
   <path d="M375.7680,91.8000L375.7680,281.3661"/>
   <path d="M376.1760,91.8000L376.1760,308.6764"/>
   <path d="M376.5840,91.8000L376.5840,294.4857"/>
   <path d="M376.9920,91.8000L376.9920,302.7859"/>
   <path d="M377.4000,91.8000L377.4000,288.3275"/>
   <path d="M377.8080,91.8000L377.8080,295.8245"/>
   <path d="M378.2160,91.8000L378.2160,311.0862"/>
   <path d="M378.6240,91.8000L378.6240,304.1247"/>
   <path d="M379.0320,91.8000L379.0320,301.1795"/>
   <path d="M379.4400,91.8000L379.4400,310.8184"/>
   <path d="M379.8480,91.8000L379.8480,314.5669"/>
   <path d="M380.2560,91.8000L380.2560,296.0922"/>
   <path d="M380.6640,91.8000L380.6640,318.5831"/>
   <path d="M381.0720,91.8000L381.0720,300.9117"/>
   <path d="M381.4800,91.8000L381.4800,303.3214"/>
   <path d="M381.8880,91.8000L381.8880,335.4513"/>
   <path d="M382.2960,91.8000L382.2960,315.3701"/>
   <path d="M382.7040,91.8000L382.7040,321.5284"/>
   <path d="M383.1120,91.8000L383.1120,311.0862"/>
   <path d="M383.5200,91.8000L383.5200,320.9929"/>
   <path d="M383.9280,91.8000L383.9280,308.6764"/>
   <path d="M384.3360,91.8000L384.3360,313.4959"/>
   <path d="M384.7440,91.8000L384.7440,327.1511"/>
   <path d="M385.1520,91.8000L385.1520,324.7413"/>
   <path d="M385.5600,91.8000L385.5600,330.3641"/>
   <path d="M385.9680,91.8000L385.9680,329.2931"/>
   <path d="M386.3760,91.8000L386.3760,327.9543"/>
   <path d="M386.7840,91.8000L386.7840,324.4736"/>
   <path d="M387.1920,91.8000L387.1920,325.0091"/>
   <path d="M387.6000,91.8000L387.6000,335.4513"/>
   <path d="M388.0080,91.8000L388.0080,321.5284"/>
   <path d="M388.4160,91.8000L388.4160,325.8123"/>
   <path d="M388.8240,91.8000L388.8240,331.7028"/>
   <path d="M389.2320,91.8000L389.2320,335.9868"/>
   <path d="M389.6400,91.8000L389.6400,335.4513"/>
   <path d="M390.0480,91.8000L390.0480,325.5446"/>
   <path d="M390.4560,91.8000L390.4560,327.9543"/>
   <path d="M390.8640,91.8000L390.8640,326.3478"/>
   <path d="M391.2720,91.8000L391.2720,328.7576"/>
   <path d="M391.6800,91.8000L391.6800,331.4351"/>
   <path d="M392.0880,91.8000L392.0880,346.6967"/>
   <path d="M392.4960,91.8000L392.4960,342.1450"/>
   <path d="M392.9040,91.8000L392.9040,338.1288"/>
   <path d="M393.3120,91.8000L393.3120,337.3255"/>
   <path d="M393.7200,91.8000L393.7200,331.1673"/>
   <path d="M394.1280,91.8000L394.1280,323.1348"/>
   <path d="M394.5360,91.8000L394.5360,334.9158"/>
   <path d="M394.9440,91.8000L394.9440,349.3742"/>
   <path d="M395.3520,91.8000L395.3520,336.7900"/>
   <path d="M395.7600,91.8000L395.7600,329.0253"/>
   <path d="M396.1680,91.8000L396.1680,324.7413"/>
   <path d="M396.5760,91.8000L396.5760,330.3641"/>
   <path d="M396.9840,91.8000L396.9840,347.2322"/>
   <path d="M397.3920,91.8000L397.3920,341.3418"/>
   <path d="M397.8000,91.8000L397.8000,331.9705"/>
   <path d="M398.2080,91.8000L398.2080,341.0740"/>
   <path d="M398.6160,91.8000L398.6160,334.6480"/>
   <path d="M399.0240,91.8000L399.0240,334.6480"/>
   <path d="M399.4320,91.8000L399.4320,325.2768"/>
   <path d="M399.8400,91.8000L399.8400,336.2545"/>
   <path d="M400.2480,91.8000L400.2480,328.7576"/>
   <path d="M400.6560,91.8000L400.6560,329.2931"/>
   <path d="M401.0640,91.8000L401.0640,329.0253"/>
   <path d="M401.4720,91.8000L401.4720,339.4675"/>
   <path d="M401.8800,91.8000L401.8800,334.6480"/>
   <path d="M402.2880,91.8000L402.2880,323.6703"/>
   <path d="M402.6960,91.8000L402.6960,336.2545"/>
   <path d="M403.1040,91.8000L403.1040,330.0963"/>
   <path d="M403.5120,91.8000L403.5120,326.8833"/>
   <path d="M403.9200,91.8000L403.9200,327.1511"/>
   <path d="M404.3280,91.8000L404.3280,337.8610"/>
   <path d="M404.7360,91.8000L404.7360,338.3965"/>
   <path d="M405.1440,91.8000L405.1440,328.4898"/>
   <path d="M405.5520,91.8000L405.5520,311.6217"/>
   <path d="M405.9600,91.8000L405.9600,330.8996"/>
   <path d="M406.3680,91.8000L406.3680,330.8996"/>
   <path d="M406.7760,91.8000L406.7760,319.1186"/>
   <path d="M407.1840,91.8000L407.1840,323.4026"/>
   <path d="M407.5920,91.8000L407.5920,345.6257"/>
   <path d="M408.0000,91.8000L408.0000,314.8346"/>
   <path d="M408.4080,91.8000L408.4080,333.0415"/>
   <path d="M408.8160,91.8000L408.8160,329.2931"/>
   <path d="M409.2240,91.8000L409.2240,318.8509"/>
   <path d="M409.6320,91.8000L409.6320,320.7251"/>
   <path d="M410.0400,91.8000L410.0400,327.6866"/>
   <path d="M410.4480,91.8000L410.4480,333.3093"/>
   <path d="M410.8560,91.8000L410.8560,304.6602"/>
   <path d="M411.2640,91.8000L411.2640,323.9381"/>
   <path d="M411.6720,91.8000L411.6720,317.2444"/>
   <path d="M412.0800,91.8000L412.0800,310.5507"/>
   <path d="M412.4880,91.8000L412.4880,331.1673"/>
   <path d="M412.8960,91.8000L412.8960,308.6764"/>
   <path d="M413.3040,91.8000L413.3040,321.2606"/>
   <path d="M413.7120,91.8000L413.7120,302.7859"/>
   <path d="M414.1200,91.8000L414.1200,306.8022"/>
   <path d="M414.5280,91.8000L414.5280,314.2991"/>
   <path d="M414.9360,91.8000L414.9360,319.6541"/>
   <path d="M415.3440,91.8000L415.3440,308.1409"/>
   <path d="M415.7520,91.8000L415.7520,307.8732"/>
   <path d="M416.1600,91.8000L416.1600,300.3762"/>
   <path d="M416.5680,91.8000L416.5680,302.5182"/>
   <path d="M416.9760,91.8000L416.9760,303.5892"/>
   <path d="M417.3840,91.8000L417.3840,304.6602"/>
   <path d="M417.7920,91.8000L417.7920,299.0375"/>
   <path d="M418.2000,91.8000L418.2000,299.3052"/>
   <path d="M418.6080,91.8000L418.6080,302.2504"/>
   <path d="M419.0160,91.8000L419.0160,293.1470"/>
   <path d="M419.4240,91.8000L419.4240,288.5953"/>
   <path d="M419.8320,91.8000L419.8320,292.6115"/>
   <path d="M420.2400,91.8000L420.2400,291.5405"/>
   <path d="M420.6480,91.8000L420.6480,293.1470"/>
   <path d="M421.0560,91.8000L421.0560,284.3113"/>
   <path d="M421.4640,91.8000L421.4640,293.6825"/>
   <path d="M421.8720,91.8000L421.8720,286.7210"/>
   <path d="M422.2800,91.8000L422.2800,287.7920"/>
   <path d="M422.6880,91.8000L422.6880,289.9340"/>
   <path d="M423.0960,91.8000L423.0960,296.8955"/>
   <path d="M423.5040,91.8000L423.5040,282.7048"/>
   <path d="M423.9120,91.8000L423.9120,290.4695"/>
   <path d="M424.3200,91.8000L424.3200,275.7433"/>
   <path d="M424.7280,91.8000L424.7280,282.4370"/>
   <path d="M425.1360,91.8000L425.1360,269.0496"/>
   <path d="M425.5440,91.8000L425.5440,263.9624"/>
   <path d="M425.9520,91.8000L425.9520,271.1916"/>
   <path d="M426.3600,91.8000L426.3600,282.7048"/>
   <path d="M426.7680,91.8000L426.7680,260.2139"/>
   <path d="M427.1760,91.8000L427.1760,244.4167"/>
   <path d="M427.5840,91.8000L427.5840,259.9462"/>
   <path d="M427.9920,91.8000L427.9920,267.7109"/>
   <path d="M428.4000,91.8000L428.4000,262.6236"/>
   <path d="M428.8080,91.8000L428.8080,253.7879"/>
   <path d="M429.2160,91.8000L429.2160,251.9137"/>
   <path d="M429.6240,91.8000L429.6240,243.6135"/>
   <path d="M430.0320,91.8000L430.0320,250.5750"/>
   <path d="M430.4400,91.8000L430.4400,247.0942"/>
   <path d="M430.8480,91.8000L430.8480,243.3457"/>
   <path d="M431.2560,91.8000L431.2560,247.0942"/>
   <path d="M431.6640,91.8000L431.6640,248.4330"/>
   <path d="M432.0720,91.8000L432.0720,251.6460"/>
   <path d="M432.4800,91.8000L432.4800,244.6845"/>
   <path d="M432.8880,91.8000L432.8880,231.5648"/>
   <path d="M433.2960,91.8000L433.2960,244.6845"/>
   <path d="M433.7040,91.8000L433.7040,239.0618"/>
   <path d="M434.1120,91.8000L434.1120,243.0780"/>
   <path d="M434.5200,91.8000L434.5200,232.6358"/>
   <path d="M434.9280,91.8000L434.9280,230.7616"/>
   <path d="M435.3360,91.8000L435.3360,232.6358"/>
   <path d="M435.7440,91.8000L435.7440,231.2971"/>
   <path d="M436.1520,91.8000L436.1520,224.6033"/>
   <path d="M436.5600,91.8000L436.5600,224.6033"/>
   <path d="M436.9680,91.8000L436.9680,227.0131"/>
   <path d="M437.3760,91.8000L437.3760,216.5709"/>
   <path d="M437.7840,91.8000L437.7840,213.8934"/>
   <path d="M438.1920,91.8000L438.1920,222.7291"/>
   <path d="M438.6000,91.8000L438.6000,213.0901"/>
   <path d="M439.0080,91.8000L439.0080,217.1064"/>
   <path d="M439.4160,91.8000L439.4160,213.0901"/>
   <path d="M439.8240,91.8000L439.8240,205.0577"/>
   <path d="M440.2320,91.8000L440.2320,218.9806"/>
   <path d="M440.6400,91.8000L440.6400,222.1936"/>
   <path d="M441.0480,91.8000L441.0480,222.1936"/>
   <path d="M441.4560,91.8000L441.4560,212.2869"/>
   <path d="M441.8640,91.8000L441.8640,212.0191"/>
   <path d="M442.2720,91.8000L442.2720,213.0901"/>
   <path d="M442.6800,91.8000L442.6800,213.6256"/>
   <path d="M443.0880,91.8000L443.0880,208.2707"/>
   <path d="M443.4960,91.8000L443.4960,201.8447"/>
   <path d="M443.9040,91.8000L443.9040,190.8670"/>
   <path d="M444.3120,91.8000L444.3120,195.1510"/>
   <path d="M444.7200,91.8000L444.7200,193.5445"/>
   <path d="M445.1280,91.8000L445.1280,185.2443"/>
   <path d="M445.5360,91.8000L445.5360,192.7412"/>
   <path d="M445.9440,91.8000L445.9440,180.6926"/>
   <path d="M446.3520,91.8000L446.3520,201.8447"/>
   <path d="M446.7600,91.8000L446.7600,190.8670"/>
   <path d="M447.1680,91.8000L447.1680,174.2666"/>
   <path d="M447.5760,91.8000L447.5760,199.1672"/>
   <path d="M447.9840,91.8000L447.9840,188.7250"/>
   <path d="M448.3920,91.8000L448.3920,178.8183"/>
   <path d="M448.8000,91.8000L448.8000,179.8893"/>
   <path d="M449.2080,91.8000L449.2080,180.6926"/>
   <path d="M449.6160,91.8000L449.6160,170.7859"/>
   <path d="M450.0240,91.8000L450.0240,172.1246"/>
   <path d="M450.4320,91.8000L450.4320,178.0151"/>
   <path d="M450.8400,91.8000L450.8400,178.0151"/>
   <path d="M451.2480,91.8000L451.2480,168.1084"/>
   <path d="M451.6560,91.8000L451.6560,165.1631"/>
   <path d="M452.0640,91.8000L452.0640,168.9116"/>
   <path d="M452.4720,91.8000L452.4720,165.4309"/>
   <path d="M452.8800,91.8000L452.8800,168.1084"/>
   <path d="M453.2880,91.8000L453.2880,172.1246"/>
   <path d="M453.6960,91.8000L453.6960,156.8629"/>
   <path d="M454.1040,91.8000L454.1040,163.8244"/>
   <path d="M454.5120,91.8000L454.5120,154.1854"/>
   <path d="M454.9200,91.8000L454.9200,162.7534"/>
   <path d="M455.3280,91.8000L455.3280,159.8082"/>
   <path d="M455.7360,91.8000L455.7360,150.4370"/>
   <path d="M456.1440,91.8000L456.1440,158.4694"/>
   <path d="M456.5520,91.8000L456.5520,151.5080"/>
   <path d="M456.9600,91.8000L456.9600,150.9725"/>
   <path d="M457.3680,91.8000L457.3680,157.3984"/>
   <path d="M457.7760,91.8000L457.7760,151.2402"/>
   <path d="M458.1840,91.8000L458.1840,152.0434"/>
   <path d="M458.5920,91.8000L458.5920,149.0982"/>
   <path d="M459.0000,91.8000L459.0000,139.4593"/>
   <path d="M459.4080,91.8000L459.4080,149.9015"/>
   <path d="M459.8160,91.8000L459.8160,139.7270"/>
   <path d="M460.2240,91.8000L460.2240,138.9238"/>
   <path d="M460.6320,91.8000L460.6320,143.2077"/>
   <path d="M461.0400,91.8000L461.0400,141.8690"/>
   <path d="M461.4480,91.8000L461.4480,152.5789"/>
   <path d="M461.8560,91.8000L461.8560,139.9948"/>
   <path d="M462.2640,91.8000L462.2640,141.8690"/>
   <path d="M462.6720,91.8000L462.6720,137.3173"/>
   <path d="M463.0800,91.8000L463.0800,130.8913"/>
   <path d="M463.4880,91.8000L463.4880,130.6236"/>
   <path d="M463.8960,91.8000L463.8960,142.1367"/>
   <path d="M464.3040,91.8000L464.3040,135.9785"/>
   <path d="M464.7120,91.8000L464.7120,132.7655"/>
   <path d="M465.1200,91.8000L465.1200,133.0333"/>
   <path d="M465.5280,91.8000L465.5280,135.4430"/>
   <path d="M465.9360,91.8000L465.9360,129.2848"/>
   <path d="M466.3440,91.8000L466.3440,129.8203"/>
   <path d="M466.7520,91.8000L466.7520,126.8751"/>
   <path d="M467.1600,91.8000L467.1600,129.0171"/>
   <path d="M467.5680,91.8000L467.5680,125.2686"/>
   <path d="M467.9760,91.8000L467.9760,129.2848"/>
   <path d="M468.3840,91.8000L468.3840,126.0718"/>
   <path d="M468.7920,91.8000L468.7920,131.6946"/>
   <path d="M469.2000,91.8000L469.2000,124.4653"/>
   <path d="M469.6080,91.8000L469.6080,123.3943"/>
   <path d="M470.0160,91.8000L470.0160,127.1428"/>
   <path d="M470.4240,91.8000L470.4240,126.6073"/>
   <path d="M470.8320,91.8000L470.8320,123.9298"/>
   <path d="M471.2400,91.8000L471.2400,123.3943"/>
   <path d="M471.6480,91.8000L471.6480,123.3943"/>
   <path d="M472.0560,91.8000L472.0560,120.7169"/>
   <path d="M472.4640,91.8000L472.4640,116.1651"/>
   <path d="M472.8720,91.8000L472.8720,122.0556"/>
   <path d="M473.2800,91.8000L473.2800,114.8264"/>
   <path d="M473.6880,91.8000L473.6880,114.5586"/>
   <path d="M474.0960,91.8000L474.0960,122.3233"/>
   <path d="M474.5040,91.8000L474.5040,116.9684"/>
   <path d="M474.9120,91.8000L474.9120,112.6844"/>
   <path d="M475.3200,91.8000L475.3200,112.9521"/>
   <path d="M475.7280,91.8000L475.7280,110.5424"/>
   <path d="M476.1360,91.8000L476.1360,113.4876"/>
   <path d="M476.5440,91.8000L476.5440,114.8264"/>
   <path d="M476.9520,91.8000L476.9520,113.4876"/>
   <path d="M477.3600,91.8000L477.3600,114.5586"/>
   <path d="M477.7680,91.8000L477.7680,112.9521"/>
   <path d="M478.1760,91.8000L478.1760,111.0779"/>
   <path d="M478.5840,91.8000L478.5840,112.4166"/>
   <path d="M478.9920,91.8000L478.9920,109.2037"/>
   <path d="M479.4000,91.8000L479.4000,111.3457"/>
   <path d="M479.8080,91.8000L479.8080,113.7554"/>
   <path d="M480.2160,91.8000L480.2160,107.3294"/>
   <path d="M480.6240,91.8000L480.6240,111.3457"/>
   <path d="M481.0320,91.8000L481.0320,107.5972"/>
   <path d="M481.4400,91.8000L481.4400,102.7777"/>
   <path d="M481.8480,91.8000L481.8480,109.2037"/>
   <path d="M482.2560,91.8000L482.2560,106.2584"/>
   <path d="M482.6640,91.8000L482.6640,104.1164"/>
   <path d="M483.0720,91.8000L483.0720,105.7229"/>
   <path d="M483.4800,91.8000L483.4800,104.6519"/>
   <path d="M483.8880,91.8000L483.8880,106.7939"/>
   <path d="M484.2960,91.8000L484.2960,102.5099"/>
   <path d="M484.7040,91.8000L484.7040,104.6519"/>
   <path d="M485.1120,91.8000L485.1120,105.7229"/>
   <path d="M485.5200,91.8000L485.5200,104.9197"/>
   <path d="M485.9280,91.8000L485.9280,102.2422"/>
   <path d="M486.3360,91.8000L486.3360,104.3842"/>
   <path d="M486.7440,91.8000L486.7440,104.3842"/>
   <path d="M487.1520,91.8000L487.1520,105.4552"/>
   <path d="M487.5600,91.8000L487.5600,102.5099"/>
   <path d="M487.9680,91.8000L487.9680,103.8487"/>
   <path d="M488.3760,91.8000L488.3760,99.2970"/>
   <path d="M488.7840,91.8000L488.7840,100.9035"/>
   <path d="M489.1920,91.8000L489.1920,103.0454"/>
   <path d="M489.6000,91.8000L489.6000,101.4390"/>
   <path d="M490.0080,91.8000L490.0080,100.1002"/>
   <path d="M490.4160,91.8000L490.4160,101.7067"/>
   <path d="M490.8240,91.8000L490.8240,98.4937"/>
   <path d="M491.2320,91.8000L491.2320,100.3680"/>
   <path d="M491.6400,91.8000L491.6400,98.7615"/>
   <path d="M492.0480,91.8000L492.0480,100.6357"/>
   <path d="M492.4560,91.8000L492.4560,99.2970"/>
   <path d="M492.8640,91.8000L492.8640,97.4227"/>
   <path d="M493.2720,91.8000L493.2720,97.9582"/>
   <path d="M493.6800,91.8000L493.6800,99.0292"/>
   <path d="M494.0880,91.8000L494.0880,97.6905"/>
   <path d="M494.4960,91.8000L494.4960,97.6905"/>
   <path d="M494.9040,91.8000L494.9040,96.8872"/>
   <path d="M495.3120,91.8000L495.3120,98.7615"/>
   <path d="M495.7200,91.8000L495.7200,96.3517"/>
   <path d="M496.1280,91.8000L496.1280,97.6905"/>
   <path d="M496.5360,91.8000L496.5360,99.0292"/>
   <path d="M496.9440,91.8000L496.9440,98.4937"/>
   <path d="M497.3520,91.8000L497.3520,99.0292"/>
   <path d="M497.7600,91.8000L497.7600,96.6195"/>
   <path d="M498.1680,91.8000L498.1680,95.2807"/>
   <path d="M498.5760,91.8000L498.5760,97.1550"/>
   <path d="M498.9840,91.8000L498.9840,95.0130"/>
   <path d="M499.3920,91.8000L499.3920,95.2807"/>
   <path d="M499.8000,91.8000L499.8000,94.4775"/>
   <path d="M500.2080,91.8000L500.2080,98.4937"/>
   <path d="M500.6160,91.8000L500.6160,97.6905"/>
   <path d="M501.0240,91.8000L501.0240,95.5485"/>
   <path d="M501.4320,91.8000L501.4320,96.0840"/>
   <path d="M501.8400,91.8000L501.8400,95.8162"/>
   <path d="M502.2480,91.8000L502.2480,95.2807"/>
   <path d="M502.6560,91.8000L502.6560,94.4775"/>
   <path d="M503.0640,91.8000L503.0640,94.7452"/>
   <path d="M503.4720,91.8000L503.4720,94.2097"/>
   <path d="M503.8800,91.8000L503.8800,95.0130"/>
   <path d="M504.2880,91.8000L504.2880,94.4775"/>
   <path d="M504.6960,91.8000L504.6960,94.7452"/>
   <path d="M505.1040,91.8000L505.1040,92.8710"/>
   <path d="M505.5120,91.8000L505.5120,95.8162"/>
   <path d="M505.9200,91.8000L505.9200,94.4775"/>
   <path d="M506.3280,91.8000L506.3280,95.8162"/>
   <path d="M506.7360,91.8000L506.7360,93.9420"/>
   <path d="M507.1440,91.8000L507.1440,92.3355"/>
   <path d="M507.5520,91.8000L507.5520,92.6032"/>
   <path d="M507.9600,91.8000L507.9600,92.8710"/>
   <path d="M508.3680,91.8000L508.3680,93.1387"/>
   <path d="M508.7760,91.8000L508.7760,93.6742"/>
   <path d="M509.1840,91.8000L509.1840,93.9420"/>
   <path d="M509.5920,91.8000L509.5920,93.9420"/>
   <path d="M510.0000,91.8000L510.0000,93.4065"/>
   <path d="M510.4080,91.8000L510.4080,94.4775"/>
   <path d="M510.8160,91.8000L510.8160,92.6032"/>
   <path d="M511.2240,91.8000L511.2240,93.1387"/>
   <path d="M511.6320,91.8000L511.6320,93.1387"/>
   <path d="M512.0400,91.8000L512.0400,92.6032"/>
   <path d="M512.4480,91.8000L512.4480,93.1387"/>
   <path d="M512.8560,91.8000L512.8560,92.6032"/>
   <path d="M513.2640,91.8000L513.2640,92.6032"/>
   <path d="M513.6720,91.8000L513.6720,93.6742"/>
   <path d="M514.0800,91.8000L514.0800,92.3355"/>
   <path d="M514.4880,91.8000L514.4880,92.0677"/>
   <path d="M514.8960,91.8000L514.8960,92.6032"/>
   <path d="M515.3040,91.8000L515.3040,93.1387"/>
   <path d="M515.7120,91.8000L515.7120,92.8710"/>
   <path d="M516.1200,91.8000L516.1200,93.4065"/>
   <path d="M516.5280,91.8000L516.5280,93.1387"/>
   <path d="M516.9360,91.8000L516.9360,93.4065"/>
   <path d="M517.3440,91.8000L517.3440,93.9420"/>
   <path d="M517.7520,91.8000L517.7520,92.8710"/>
   <path d="M518.1600,91.8000L518.1600,92.3355"/>
   <path d="M518.5680,91.8000L518.5680,92.6032"/>
   <path d="M518.9760,91.8000L518.9760,92.8710"/>
   <path d="M519.3840,91.8000L519.3840,93.1387"/>
   <path d="M519.7920,91.8000L519.7920,92.3355"/>
   <path d="M520.2000,91.8000L520.2000,91.8000"/>
   <path d="M520.6080,91.8000L520.6080,92.3355"/>
   <path d="M521.0160,91.8000L521.0160,92.0677"/>
   <path d="M521.4240,91.8000L521.4240,92.3355"/>
   <path d="M521.8320,91.8000L521.8320,92.3355"/>
   <path d="M522.2400,91.8000L522.2400,92.6032"/>
   <path d="M522.6480,91.8000L522.6480,92.6032"/>
   <path d="M523.0560,91.8000L523.0560,92.0677"/>
   <path d="M523.4640,91.8000L523.4640,92.3355"/>
   <path d="M523.8720,91.8000L523.8720,92.3355"/>
   <path d="M524.2800,91.8000L524.2800,91.8000"/>
   <path d="M524.6880,91.8000L524.6880,91.8000"/>
   <path d="M525.0960,91.8000L525.0960,92.0677"/>
   <path d="M525.5040,91.8000L525.5040,92.3355"/>
   <path d="M525.9120,91.8000L525.9120,92.3355"/>
   <path d="M526.3200,91.8000L526.3200,92.6032"/>
   <path d="M526.7280,91.8000L526.7280,92.0677"/>
   <path d="M527.1360,91.8000L527.1360,91.8000"/>
   <path d="M527.5440,91.8000L527.5440,92.0677"/>
   <path d="M527.9520,91.8000L527.9520,92.3355"/>
   <path d="M528.3600,91.8000L528.3600,91.8000"/>
   <path d="M528.7680,91.8000L528.7680,92.3355"/>
   <path d="M529.1760,91.8000L529.1760,92.0677"/>
   <path d="M529.5840,91.8000L529.5840,92.0677"/>
   <path d="M529.9920,91.8000L529.9920,92.6032"/>
   <path d="M530.4000,91.8000L530.4000,92.0677"/>
   <path d="M530.8080,91.8000L530.8080,92.0677"/>
   <path d="M531.2160,91.8000L531.2160,91.8000"/>
   <path d="M531.6240,91.8000L531.6240,92.0677"/>
   <path d="M532.0320,91.8000L532.0320,91.8000"/>
   <path d="M532.4400,91.8000L532.4400,91.8000"/>
   <path d="M532.8480,91.8000L532.8480,92.0677"/>
   <path d="M533.2560,91.8000L533.2560,92.0677"/>
   <path d="M533.6640,91.8000L533.6640,92.0677"/>
   <path d="M534.0720,91.8000L534.0720,91.8000"/>
   <path d="M534.4800,91.8000L534.4800,91.8000"/>
   <path d="M534.8880,91.8000L534.8880,92.0677"/>
   <path d="M535.2960,91.8000L535.2960,91.8000"/>
   <path d="M535.7040,91.8000L535.7040,92.0677"/>
   <path d="M536.1120,91.8000L536.1120,92.0677"/>
   <path d="M536.5200,91.8000L536.5200,91.8000"/>
   <path d="M536.9280,91.8000L536.9280,91.8000"/>
   <path d="M537.3360,91.8000L537.3360,92.0677"/>
   <path d="M537.7440,91.8000L537.7440,91.8000"/>
   <path d="M538.1520,91.8000L538.1520,91.8000"/>
   <path d="M538.5600,91.8000L538.5600,91.8000"/>
   <path d="M538.9680,91.8000L538.9680,92.3355"/>
   <path d="M539.3760,91.8000L539.3760,91.8000"/>
   <path d="M539.7840,91.8000L539.7840,92.3355"/>
   <path d="M540.1920,91.8000L540.1920,91.8000"/>
   <path d="M540.6000,91.8000L540.6000,91.8000"/>
   <path d="M541.0080,91.8000L541.0080,92.0677"/>
   <path d="M541.4160,91.8000L541.4160,91.8000"/>
   <path d="M541.8240,91.8000L541.8240,92.0677"/>
   <path d="M542.2320,91.8000L542.2320,91.8000"/>
   <path d="M542.6400,91.8000L542.6400,92.0677"/>
   <path d="M543.0480,91.8000L543.0480,91.8000"/>
   <path d="M543.4560,91.8000L543.4560,92.0677"/>
   <path d="M543.8640,91.8000L543.8640,91.8000"/>
   <path d="M544.2720,91.8000L544.2720,91.8000"/>
   <path d="M544.6800,91.8000L544.6800,91.8000"/>
   <path d="M545.0880,91.8000L545.0880,91.8000"/>
   <path d="M545.4960,91.8000L545.4960,91.8000"/>
   <path d="M545.9040,91.8000L545.9040,91.8000"/>
   <path d="M546.3120,91.8000L546.3120,91.8000"/>
   <path d="M546.7200,91.8000L546.7200,92.0677"/>
   <path d="M547.1280,91.8000L547.1280,91.8000"/>
   <path d="M547.5360,91.8000L547.5360,91.8000"/>
   <path d="M547.9440,91.8000L547.9440,91.8000"/>
   <path d="M548.3520,91.8000L548.3520,91.8000"/>
   <path d="M548.7600,91.8000L548.7600,91.8000"/>
   <path d="M549.1680,91.8000L549.1680,91.8000"/>
   <path d="M549.5760,91.8000L549.5760,91.8000"/>
   <path d="M549.9840,91.8000L549.9840,91.8000"/>
   <path d="M550.3920,91.8000L550.3920,91.8000"/>
   <path d="M550.8000,91.8000L550.8000,91.8000"/>
   <path d="M551.2080,91.8000L551.2080,92.0677"/>
   <path d="M551.6160,91.8000L551.6160,91.8000"/>
   <path d="M552.0240,91.8000L552.0240,91.8000"/>
   <path d="M552.4320,91.8000L552.4320,91.8000"/>
   <path d="M552.8400,91.8000L552.8400,91.8000"/>
   <path d="M553.2480,91.8000L553.2480,92.0677"/>
   <path d="M553.6560,91.8000L553.6560,91.8000"/>
   <path d="M554.0640,91.8000L554.0640,91.8000"/>
   <path d="M554.4720,91.8000L554.4720,91.8000"/>
   <path d="M554.8800,91.8000L554.8800,91.8000"/>
   <path d="M555.2880,91.8000L555.2880,91.8000"/>
   <path d="M555.6960,91.8000L555.6960,91.8000"/>
   <path d="M556.1040,91.8000L556.1040,91.8000"/>
   <path d="M556.5120,91.8000L556.5120,91.8000"/>
   <path d="M556.9200,91.8000L556.9200,91.8000"/>
   <path d="M557.3280,91.8000L557.3280,91.8000"/>
   <path d="M557.7360,91.8000L557.7360,91.8000"/>
   <path d="M558.1440,91.8000L558.1440,91.8000"/>
   <path d="M558.5520,91.8000L558.5520,91.8000"/>
   <path d="M558.9600,91.8000L558.9600,91.8000"/>
   <path d="M559.3680,91.8000L559.3680,91.8000"/>
   <path d="M559.7760,91.8000L559.7760,91.8000"/>
   <path d="M560.1840,91.8000L560.1840,91.8000"/>
   <path d="M560.5920,91.8000L560.5920,91.8000"/>
   <path d="M561.0000,91.8000L561.0000,91.8000"/>
   <path d="M561.4080,91.8000L561.4080,91.8000"/>
   <path d="M561.8160,91.8000L561.8160,91.8000"/>
   <path d="M562.2240,91.8000L562.2240,91.8000"/>
   <path d="M562.6320,91.8000L562.6320,91.8000"/>
   <path d="M563.0400,91.8000L563.0400,91.8000"/>
   <path d="M563.4480,91.8000L563.4480,91.8000"/>
   <path d="M563.8560,91.8000L563.8560,91.8000"/>
   <path d="M564.2640,91.8000L564.2640,91.8000"/>
   <path d="M564.6720,91.8000L564.6720,91.8000"/>
   <path d="M565.0800,91.8000L565.0800,91.8000"/>
   <path d="M565.4880,91.8000L565.4880,91.8000"/>
   <path d="M565.8960,91.8000L565.8960,91.8000"/>
   <path d="M566.3040,91.8000L566.3040,91.8000"/>
   <path d="M566.7120,91.8000L566.7120,91.8000"/>
   <path d="M567.1200,91.8000L567.1200,91.8000"/>
   <path d="M567.5280,91.8000L567.5280,91.8000"/>
   <path d="M567.9360,91.8000L567.9360,91.8000"/>
   <path d="M568.3440,91.8000L568.3440,91.8000"/>
   <path d="M568.7520,91.8000L568.7520,91.8000"/>
   <path d="M569.1600,91.8000L569.1600,91.8000"/>
   <path d="M569.5680,91.8000L569.5680,91.8000"/>
   <path d="M569.9760,91.8000L569.9760,91.8000"/>
   <path d="M570.3840,91.8000L570.3840,91.8000"/>
   <path d="M570.7920,91.8000L570.7920,91.8000"/>
   <path d="M571.2000,91.8000L571.2000,91.8000"/>
   <path d="M571.6080,91.8000L571.6080,91.8000"/>
   <path d="M572.0160,91.8000L572.0160,91.8000"/>
   <path d="M572.4240,91.8000L572.4240,91.8000"/>
   <path d="M572.8320,91.8000L572.8320,91.8000"/>
   <path d="M573.2400,91.8000L573.2400,91.8000"/>
   <path d="M573.6480,91.8000L573.6480,91.8000"/>
   <path d="M574.0560,91.8000L574.0560,91.8000"/>
   <path d="M574.4640,91.8000L574.4640,91.8000"/>
   <path d="M574.8720,91.8000L574.8720,91.8000"/>
   <path d="M575.2800,91.8000L575.2800,91.8000"/>
   <path d="M575.6880,91.8000L575.6880,91.8000"/>
   <path d="M576.0960,91.8000L576.0960,91.8000"/>
   <path d="M576.5040,91.8000L576.5040,91.8000"/>
   <path d="M576.9120,91.8000L576.9120,91.8000"/>
   <path d="M577.3200,91.8000L577.3200,91.8000"/>
   <path d="M577.7280,91.8000L577.7280,91.8000"/>
   <path d="M578.1360,91.8000L578.1360,91.8000"/>
   <path d="M578.5440,91.8000L578.5440,91.8000"/>
   <path d="M578.9520,91.8000L578.9520,91.8000"/>
   <path d="M579.3600,91.8000L579.3600,91.8000"/>
   <path d="M579.7680,91.8000L579.7680,91.8000"/>
   <path d="M580.1760,91.8000L580.1760,91.8000"/>
   <path d="M580.5840,91.8000L580.5840,91.8000"/>
   <path d="M580.9920,91.8000L580.9920,91.8000"/>
   <path d="M581.4000,91.8000L581.4000,91.8000"/>
   <path d="M581.8080,91.8000L581.8080,91.8000"/>
   <path d="M582.2160,91.8000L582.2160,91.8000"/>
   <path d="M582.6240,91.8000L582.6240,91.8000"/>
   <path d="M583.0320,91.8000L583.0320,91.8000"/>
   <path d="M583.4400,91.8000L583.4400,91.8000"/>
   <path d="M583.8480,91.8000L583.8480,91.8000"/>
   <path d="M584.2560,91.8000L584.2560,91.8000"/>
   <path d="M584.6640,91.8000L584.6640,91.8000"/>
   <path d="M585.0720,91.8000L585.0720,91.8000"/>
   <path d="M585.4800,91.8000L585.4800,91.8000"/>
   <path d="M585.8880,91.8000L585.8880,91.8000"/>
   <path d="M586.2960,91.8000L586.2960,91.8000"/>
   <path d="M586.7040,91.8000L586.7040,91.8000"/>
   <path d="M587.1120,91.8000L587.1120,91.8000"/>
   <path d="M587.5200,91.8000L587.5200,91.8000"/>
   <path d="M587.9280,91.8000L587.9280,91.8000"/>
   <path d="M588.3360,91.8000L588.3360,91.8000"/>
   <path d="M588.7440,91.8000L588.7440,91.8000"/>
   <path d="M589.1520,91.8000L589.1520,91.8000"/>
   <path d="M589.5600,91.8000L589.5600,91.8000"/>
   <path d="M589.9680,91.8000L589.9680,91.8000"/>
   <path d="M590.3760,91.8000L590.3760,91.8000"/>
   <path d="M590.7840,91.8000L590.7840,91.8000"/>
   <path d="M591.1920,91.8000L591.1920,91.8000"/>
   <path d="M591.6000,91.8000L591.6000,91.8000"/>
   <path d="M592.0080,91.8000L592.0080,91.8000"/>
   <path d="M592.4160,91.8000L592.4160,91.8000"/>
   <path d="M592.8240,91.8000L592.8240,91.8000"/>
   <path d="M593.2320,91.8000L593.2320,91.8000"/>
   <path d="M593.6400,91.8000L593.6400,91.8000"/>
   <path d="M594.0480,91.8000L594.0480,91.8000"/>
   <path d="M594.4560,91.8000L594.4560,91.8000"/>
   <path d="M594.8640,91.8000L594.8640,91.8000"/>
   <path d="M595.2720,91.8000L595.2720,91.8000"/>
   <path d="M595.6800,91.8000L595.6800,91.8000"/>
   <path d="M596.0880,91.8000L596.0880,91.8000"/>
   <path d="M596.4960,91.8000L596.4960,91.8000"/>
   <path d="M596.9040,91.8000L596.9040,91.8000"/>
   <path d="M597.3120,91.8000L597.3120,91.8000"/>
   <path d="M597.7200,91.8000L597.7200,91.8000"/>
   <path d="M598.1280,91.8000L598.1280,91.8000"/>
   <path d="M598.5360,91.8000L598.5360,91.8000"/>
   <path d="M598.9440,91.8000L598.9440,91.8000"/>
   <path d="M599.3520,91.8000L599.3520,91.8000"/>
   <path d="M599.7600,91.8000L599.7600,91.8000"/>
   <path d="M600.1680,91.8000L600.1680,91.8000"/>
   <path d="M600.5760,91.8000L600.5760,91.8000"/>
   <path d="M600.9840,91.8000L600.9840,91.8000"/>
   <path d="M601.3920,91.8000L601.3920,91.8000"/>
   <path d="M601.8000,91.8000L601.8000,91.8000"/>
  </g>
  <g style="fill:none; stroke:#FF0000; stroke-width:  1.8360; stroke-linecap:butt; stroke-linejoin:miter; stroke-dasharray:none">
   <path d="M193.8000,91.8000L194.2080,91.8000L194.6160,91.8000L195.0240,91.8000L195.4320,91.8000L195.8400,91.8000L196.2480,91.8000L196.6560,91.8000L197.0640,91.8000L197.4720,91.8000
            L197.8800,91.8000L198.2880,91.8000L198.6960,91.8000L199.1040,91.8000L199.5120,91.8000L199.9200,91.8001L200.3280,91.8001L200.7360,91.8001L201.1440,91.8001L201.5520,91.8001
            L201.9600,91.8001L202.3680,91.8001L202.7760,91.8001L203.1840,91.8001L203.5920,91.8001L204.0000,91.8001L204.4080,91.8001L204.8160,91.8001L205.2240,91.8001L205.6320,91.8001
            L206.0400,91.8001L206.4480,91.8001L206.8560,91.8001L207.2640,91.8002L207.6720,91.8002L208.0800,91.8002L208.4880,91.8002L208.8960,91.8002L209.3040,91.8002L209.7120,91.8002
            L210.1200,91.8002L210.5280,91.8003L210.9360,91.8003L211.3440,91.8003L211.7520,91.8003L212.1600,91.8003L212.5680,91.8003L212.9760,91.8004L213.3840,91.8004L213.7920,91.8004
            L214.2000,91.8004L214.6080,91.8005L215.0160,91.8005L215.4240,91.8005L215.8320,91.8006L216.2400,91.8006L216.6480,91.8006L217.0560,91.8007L217.4640,91.8007L217.8720,91.8007
            L218.2800,91.8008L218.6880,91.8008L219.0960,91.8009L219.5040,91.8009L219.9120,91.8010L220.3200,91.8010L220.7280,91.8011L221.1360,91.8012L221.5440,91.8012L221.9520,91.8013
            L222.3600,91.8014L222.7680,91.8015L223.1760,91.8015L223.5840,91.8016L223.9920,91.8017L224.4000,91.8018L224.8080,91.8019L225.2160,91.8020L225.6240,91.8022L226.0320,91.8023
            L226.4400,91.8024L226.8480,91.8025L227.2560,91.8027L227.6640,91.8028L228.0720,91.8030L228.4800,91.8032L228.8880,91.8033L229.2960,91.8035L229.7040,91.8037L230.1120,91.8039
            L230.5200,91.8041L230.9280,91.8044L231.3360,91.8046L231.7440,91.8049L232.1520,91.8051L232.5600,91.8054L232.9680,91.8057L233.3760,91.8060L233.7840,91.8063L234.1920,91.8067
            L234.6000,91.8070L235.0080,91.8074L235.4160,91.8078L235.8240,91.8082L236.2320,91.8086L236.6400,91.8091L237.0480,91.8096L237.4560,91.8101L237.8640,91.8106L238.2720,91.8112
            L238.6800,91.8118L239.0880,91.8124L239.4960,91.8130L239.9040,91.8137L240.3120,91.8144L240.7200,91.8152L241.1280,91.8159L241.5360,91.8168L241.9440,91.8176L242.3520,91.8185
            L242.7600,91.8195L243.1680,91.8205L243.5760,91.8215L243.9840,91.8226L244.3920,91.8237L244.8000,91.8249L245.2080,91.8262L245.6160,91.8275L246.0240,91.8288L246.4320,91.8303
            L246.8400,91.8318L247.2480,91.8334L247.6560,91.8350L248.0640,91.8367L248.4720,91.8385L248.8800,91.8404L249.2880,91.8424L249.6960,91.8445L250.1040,91.8466L250.5120,91.8489
            L250.9200,91.8512L251.3280,91.8537L251.7360,91.8563L252.1440,91.8590L252.5520,91.8618L252.9600,91.8647L253.3680,91.8678L253.7760,91.8710L254.1840,91.8743L254.5920,91.8778
            L255.0000,91.8815L255.4080,91.8853L255.8160,91.8893L256.2240,91.8934L256.6320,91.8977L257.0400,91.9023L257.4480,91.9070L257.8560,91.9119L258.2640,91.9170L258.6720,91.9223
            L259.0800,91.9279L259.4880,91.9337L259.8960,91.9398L260.3040,91.9461L260.7120,91.9526L261.1200,91.9595L261.5280,91.9666L261.9360,91.9740L262.3440,91.9818L262.7520,91.9898
            L263.1600,91.9982L263.5680,92.0069L263.9760,92.0160L264.3840,92.0254L264.7920,92.0353L265.2000,92.0455L265.6080,92.0561L266.0160,92.0672L266.4240,92.0787L266.8320,92.0907
            L267.2400,92.1031L267.6480,92.1160L268.0560,92.1295L268.4640,92.1434L268.8720,92.1579L269.2800,92.1730L269.6880,92.1887L270.0960,92.2049L270.5040,92.2218L270.9120,92.2393
            L271.3200,92.2575L271.7280,92.2764L272.1360,92.2960L272.5440,92.3164L272.9520,92.3375L273.3600,92.3594L273.7680,92.3821L274.1760,92.4057L274.5840,92.4301L274.9920,92.4554
            L275.4000,92.4817L275.8080,92.5089L276.2160,92.5371L276.6240,92.5664L277.0320,92.5966L277.4400,92.6280L277.8480,92.6605L278.2560,92.6942L278.6640,92.7290L279.0720,92.7651
            L279.4800,92.8025L279.8880,92.8411L280.2960,92.8811L280.7040,92.9225L281.1120,92.9654L281.5200,93.0097L281.9280,93.0555L282.3360,93.1029L282.7440,93.1520L283.1520,93.2026
            L283.5600,93.2550L283.9680,93.3092L284.3760,93.3651L284.7840,93.4229L285.1920,93.4827L285.6000,93.5444L286.0080,93.6081L286.4160,93.6739L286.8240,93.7419L287.2320,93.8120
            L287.6400,93.8844L288.0480,93.9592L288.4560,94.0363L288.8640,94.1159L289.2720,94.1980L289.6800,94.2827L290.0880,94.3700L290.4960,94.4601L290.9040,94.5529L291.3120,94.6487
            L291.7200,94.7474L292.1280,94.8490L292.5360,94.9538L292.9440,95.0618L293.3520,95.1730L293.7600,95.2876L294.1680,95.4056L294.5760,95.5270L294.9840,95.6521L295.3920,95.7808
            L295.8000,95.9134L296.2080,96.0497L296.6160,96.1900L297.0240,96.3344L297.4320,96.4829L297.8400,96.6356L298.2480,96.7926L298.6560,96.9541L299.0640,97.1201L299.4720,97.2907
            L299.8800,97.4661L300.2880,97.6463L300.6960,97.8314L301.1040,98.0216L301.5120,98.2169L301.9200,98.4175L302.3280,98.6235L302.7360,98.8350L303.1440,99.0521L303.5520,99.2749
            L303.9600,99.5036L304.3680,99.7382L304.7760,99.9788L305.1840,100.2257L305.5920,100.4789L306.0000,100.7385L306.4080,101.0047L306.8160,101.2776L307.2240,101.5573L307.6320,101.8439
            L308.0400,102.1376L308.4480,102.4385L308.8560,102.7468L309.2640,103.0625L309.6720,103.3857L310.0800,103.7167L310.4880,104.0556L310.8960,104.4024L311.3040,104.7574L311.7120,105.1206
            L312.1200,105.4922L312.5280,105.8723L312.9360,106.2611L313.3440,106.6587L313.7520,107.0653L314.1600,107.4809L314.5680,107.9057L314.9760,108.3398L315.3840,108.7835L315.7920,109.2367
            L316.2000,109.6998L316.6080,110.1727L317.0160,110.6556L317.4240,111.1487L317.8320,111.6521L318.2400,112.1659L318.6480,112.6903L319.0560,113.2254L319.4640,113.7714L319.8720,114.3283
            L320.2800,114.8963L320.6880,115.4755L321.0960,116.0661L321.5040,116.6682L321.9120,117.2818L322.3200,117.9072L322.7280,118.5445L323.1360,119.1937L323.5440,119.8550L323.9520,120.5285
            L324.3600,121.2144L324.7680,121.9126L325.1760,122.6235L325.5840,123.3469L325.9920,124.0832L326.4000,124.8323L326.8080,125.5943L327.2160,126.3695L327.6240,127.1578L328.0320,127.9593
            L328.4400,128.7741L328.8480,129.6024L329.2560,130.4442L329.6640,131.2996L330.0720,132.1686L330.4800,133.0514L330.8880,133.9479L331.2960,134.8583L331.7040,135.7826L332.1120,136.7209
            L332.5200,137.6732L332.9280,138.6395L333.3360,139.6200L333.7440,140.6146L334.1520,141.6234L334.5600,142.6463L334.9680,143.6835L335.3760,144.7350L335.7840,145.8006L336.1920,146.8806
            L336.6000,147.9747L337.0080,149.0832L337.4160,150.2058L337.8240,151.3427L338.2320,152.4938L338.6400,153.6590L339.0480,154.8383L339.4560,156.0318L339.8640,157.2393L340.2720,158.4607
            L340.6800,159.6961L341.0880,160.9454L341.4960,162.2084L341.9040,163.4851L342.3120,164.7754L342.7200,166.0793L343.1280,167.3965L343.5360,168.7271L343.9440,170.0708L344.3520,171.4276
            L344.7600,172.7974L345.1680,174.1799L345.5760,175.5750L345.9840,176.9827L346.3920,178.4027L346.8000,179.8348L347.2080,181.2789L347.6160,182.7348L348.0240,184.2024L348.4320,185.6813
            L348.8400,187.1714L349.2480,188.6726L349.6560,190.1844L350.0640,191.7069L350.4720,193.2396L350.8800,194.7823L351.2880,196.3349L351.6960,197.8970L352.1040,199.4683L352.5120,201.0487
            L352.9200,202.6377L353.3280,204.2352L353.7360,205.8408L354.1440,207.4541L354.5520,209.0750L354.9600,210.7030L355.3680,212.3379L355.7760,213.9793L356.1840,215.6268L356.5920,217.2802
            L357.0000,218.9390L357.4080,220.6028L357.8160,222.2714L358.2240,223.9444L358.6320,225.6213L359.0400,227.3017L359.4480,228.9853L359.8560,230.6717L360.2640,232.3604L360.6720,234.0511
            L361.0800,235.7433L361.4880,237.4365L361.8960,239.1305L362.3040,240.8246L362.7120,242.5185L363.1200,244.2117L363.5280,245.9038L363.9360,247.5944L364.3440,249.2828L364.7520,250.9688
            L365.1600,252.6518L365.5680,254.3313L365.9760,256.0069L366.3840,257.6781L366.7920,259.3444L367.2000,261.0052L367.6080,262.6603L368.0160,264.3089L368.4240,265.9507L368.8320,267.5851
            L369.2400,269.2117L369.6480,270.8299L370.0560,272.4392L370.4640,274.0392L370.8720,275.6293L371.2800,277.2091L371.6880,278.7779L372.0960,280.3354L372.5040,281.8810L372.9120,283.4143
            L373.3200,284.9346L373.7280,286.4416L374.1360,287.9347L374.5440,289.4134L374.9520,290.8772L375.3600,292.3256L375.7680,293.7581L376.1760,295.1744L376.5840,296.5737L376.9920,297.9557
            L377.4000,299.3200L377.8080,300.6659L378.2160,301.9931L378.6240,303.3011L379.0320,304.5893L379.4400,305.8575L379.8480,307.1050L380.2560,308.3315L380.6640,309.5365L381.0720,310.7196
            L381.4800,311.8804L381.8880,313.0184L382.2960,314.1332L382.7040,315.2244L383.1120,316.2916L383.5200,317.3344L383.9280,318.3524L384.3360,319.3453L384.7440,320.3126L385.1520,321.2541
            L385.5600,322.1693L385.9680,323.0579L386.3760,323.9196L386.7840,324.7541L387.1920,325.5610L387.6000,326.3400L388.0080,327.0908L388.4160,327.8132L388.8240,328.5069L389.2320,329.1715
            L389.6400,329.8069L390.0480,330.4128L390.4560,330.9890L390.8640,331.5352L391.2720,332.0512L391.6800,332.5369L392.0880,332.9921L392.4960,333.4164L392.9040,333.8099L393.3120,334.1724
            L393.7200,334.5036L394.1280,334.8036L394.5360,335.0721L394.9440,335.3090L395.3520,335.5143L395.7600,335.6879L396.1680,335.8297L396.5760,335.9397L396.9840,336.0178L397.3920,336.0640
            L397.8000,336.0782L398.2080,336.0605L398.6160,336.0109L399.0240,335.9294L399.4320,335.8160L399.8400,335.6707L400.2480,335.4937L400.6560,335.2849L401.0640,335.0446L401.4720,334.7727
            L401.8800,334.4694L402.2880,334.1347L402.6960,333.7689L403.1040,333.3721L403.5120,332.9444L403.9200,332.4859L404.3280,331.9970L404.7360,331.4777L405.1440,330.9282L405.5520,330.3488
            L405.9600,329.7397L406.3680,329.1011L406.7760,328.4333L407.1840,327.7366L407.5920,327.0111L408.0000,326.2572L408.4080,325.4751L408.8160,324.6653L409.2240,323.8279L409.6320,322.9632
            L410.0400,322.0717L410.4480,321.1537L410.8560,320.2094L411.2640,319.2393L411.6720,318.2437L412.0800,317.2229L412.4880,316.1775L412.8960,315.1077L413.3040,314.0139L413.7120,312.8966
            L414.1200,311.7561L414.5280,310.5929L414.9360,309.4074L415.3440,308.2001L415.7520,306.9713L416.1600,305.7215L416.5680,304.4512L416.9760,303.1607L417.3840,301.8507L417.7920,300.5214
            L418.2000,299.1735L418.6080,297.8073L419.0160,296.4234L419.4240,295.0222L419.8320,293.6042L420.2400,292.1699L420.6480,290.7198L421.0560,289.2544L421.4640,287.7741L421.8720,286.2795
            L422.2800,284.7711L422.6880,283.2493L423.0960,281.7147L423.5040,280.1678L423.9120,278.6090L424.3200,277.0389L424.7280,275.4581L425.1360,273.8668L425.5440,272.2658L425.9520,270.6555
            L426.3600,269.0364L426.7680,267.4089L427.1760,265.7737L427.5840,264.1312L427.9920,262.4818L428.4000,260.8261L428.8080,259.1646L429.2160,257.4978L429.6240,255.8261L430.0320,254.1501
            L430.4400,252.4702L430.8480,250.7869L431.2560,249.1006L431.6640,247.4119L432.0720,245.7212L432.4800,244.0289L432.8880,242.3356L433.2960,240.6416L433.7040,238.9475L434.1120,237.2536
            L434.5200,235.5605L434.9280,233.8684L435.3360,232.1779L435.7440,230.4895L436.1520,228.8034L436.5600,227.1201L436.9680,225.4400L437.3760,223.7635L437.7840,222.0910L438.1920,220.4229
            L438.6000,218.7595L439.0080,217.1013L439.4160,215.4486L439.8240,213.8017L440.2320,212.1610L440.6400,210.5269L441.0480,208.8996L441.4560,207.2795L441.8640,205.6670L442.2720,204.0623
            L442.6800,202.4657L443.0880,200.8776L443.4960,199.2982L443.9040,197.7278L444.3120,196.1668L444.7200,194.6152L445.1280,193.0736L445.5360,191.5419L445.9440,190.0206L446.3520,188.5099
            L446.7600,187.0100L447.1680,185.5210L447.5760,184.0433L447.9840,182.5770L448.3920,181.1224L448.8000,179.6795L449.2080,178.2487L449.6160,176.8301L450.0240,175.4237L450.4320,174.0299
            L450.8400,172.6488L451.2480,171.2805L451.6560,169.9251L452.0640,168.5827L452.4720,167.2536L452.8800,165.9378L453.2880,164.6354L453.6960,163.3466L454.1040,162.0713L454.5120,160.8098
            L454.9200,159.5620L455.3280,158.3281L455.7360,157.1082L456.1440,155.9022L456.5520,154.7103L456.9600,153.5325L457.3680,152.3688L457.7760,151.2192L458.1840,150.0839L458.5920,148.9628
            L459.0000,147.8559L459.4080,146.7632L459.8160,145.6848L460.2240,144.6207L460.6320,143.5708L461.0400,142.5352L461.4480,141.5137L461.8560,140.5065L462.2640,139.5134L462.6720,138.5345
            L463.0800,137.5696L463.4880,136.6189L463.8960,135.6821L464.3040,134.7593L464.7120,133.8504L465.1200,132.9554L465.5280,132.0741L465.9360,131.2065L466.3440,130.3526L466.7520,129.5123
            L467.1600,128.6855L467.5680,127.8721L467.9760,127.0720L468.3840,126.2851L468.7920,125.5114L469.2000,124.7508L469.6080,124.0030L470.0160,123.2682L470.4240,122.5461L470.8320,121.8366
            L471.2400,121.1397L471.6480,120.4552L472.0560,119.7830L472.4640,119.1230L472.8720,118.4751L473.2800,117.8391L473.6880,117.2150L474.0960,116.6026L474.5040,116.0018L474.9120,115.4124
            L475.3200,114.8344L475.7280,114.2676L476.1360,113.7119L476.5440,113.1671L476.9520,112.6332L477.3600,112.1099L477.7680,111.5972L478.1760,111.0949L478.5840,110.6030L478.9920,110.1211
            L479.4000,109.6493L479.8080,109.1873L480.2160,108.7351L480.6240,108.2925L481.0320,107.8593L481.4400,107.4355L481.8480,107.0209L482.2560,106.6154L482.6640,106.2187L483.0720,105.8309
            L483.4800,105.4517L483.8880,105.0810L484.2960,104.7187L484.7040,104.3646L485.1120,104.0186L485.5200,103.6806L485.9280,103.3505L486.3360,103.0280L486.7440,102.7131L487.1520,102.4057
            L487.5600,102.1056L487.9680,101.8126L488.3760,101.5268L488.7840,101.2478L489.1920,100.9757L489.6000,100.7102L490.0080,100.4513L490.4160,100.1987L490.8240,99.9526L491.2320,99.7125
            L491.6400,99.4786L492.0480,99.2506L492.4560,99.0284L492.8640,98.8119L493.2720,98.6010L493.6800,98.3956L494.0880,98.1956L494.4960,98.0008L494.9040,97.8112L495.3120,97.6266
            L495.7200,97.4469L496.1280,97.2721L496.5360,97.1020L496.9440,96.9365L497.3520,96.7755L497.7600,96.6189L498.1680,96.4666L498.5760,96.3186L498.9840,96.1747L499.3920,96.0348
            L499.8000,95.8989L500.2080,95.7668L500.6160,95.6384L501.0240,95.5137L501.4320,95.3926L501.8400,95.2750L502.2480,95.1608L502.6560,95.0500L503.0640,94.9424L503.4720,94.8379
            L503.8800,94.7365L504.2880,94.6382L504.6960,94.5428L505.1040,94.4502L505.5120,94.3605L505.9200,94.2734L506.3280,94.1890L506.7360,94.1072L507.1440,94.0279L507.5520,93.9510
            L507.9600,93.8765L508.3680,93.8043L508.7760,93.7344L509.1840,93.6667L509.5920,93.6011L510.0000,93.5376L510.4080,93.4761L510.8160,93.4166L511.2240,93.3590L511.6320,93.3032
            L512.0400,93.2493L512.4480,93.1971L512.8560,93.1466L513.2640,93.0977L513.6720,93.0505L514.0800,93.0048L514.4880,92.9607L514.8960,92.9180L515.3040,92.8768L515.7120,92.8369
            L516.1200,92.7984L516.5280,92.7611L516.9360,92.7252L517.3440,92.6905L517.7520,92.6569L518.1600,92.6246L518.5680,92.5933L518.9760,92.5631L519.3840,92.5340L519.7920,92.5059
            L520.2000,92.4788L520.6080,92.4527L521.0160,92.4274L521.4240,92.4031L521.8320,92.3796L522.2400,92.3570L522.6480,92.3352L523.0560,92.3142L523.4640,92.2939L523.8720,92.2744
            L524.2800,92.2555L524.6880,92.2374L525.0960,92.2200L525.5040,92.2031L525.9120,92.1870L526.3200,92.1714L526.7280,92.1563L527.1360,92.1419L527.5440,92.1280L527.9520,92.1146
            L528.3600,92.1017L528.7680,92.0894L529.1760,92.0774L529.5840,92.0660L529.9920,92.0550L530.4000,92.0444L530.8080,92.0342L531.2160,92.0244L531.6240,92.0150L532.0320,92.0060
            L532.4400,91.9973L532.8480,91.9889L533.2560,91.9809L533.6640,91.9732L534.0720,91.9658L534.4800,91.9587L534.8880,91.9519L535.2960,91.9454L535.7040,91.9391L536.1120,91.9331
            L536.5200,91.9273L536.9280,91.9218L537.3360,91.9164L537.7440,91.9113L538.1520,91.9064L538.5600,91.9018L538.9680,91.8973L539.3760,91.8930L539.7840,91.8888L540.1920,91.8849
            L540.6000,91.8811L541.0080,91.8774L541.4160,91.8740L541.8240,91.8706L542.2320,91.8674L542.6400,91.8644L543.0480,91.8615L543.4560,91.8587L543.8640,91.8560L544.2720,91.8534
            L544.6800,91.8510L545.0880,91.8486L545.4960,91.8464L545.9040,91.8442L546.3120,91.8422L546.7200,91.8402L547.1280,91.8383L547.5360,91.8365L547.9440,91.8348L548.3520,91.8332
            L548.7600,91.8316L549.1680,91.8301L549.5760,91.8287L549.9840,91.8273L550.3920,91.8260L550.8000,91.8248L551.2080,91.8236L551.6160,91.8225L552.0240,91.8214L552.4320,91.8204
            L552.8400,91.8194L553.2480,91.8184L553.6560,91.8175L554.0640,91.8167L554.4720,91.8159L554.8800,91.8151L555.2880,91.8143L555.6960,91.8136L556.1040,91.8130L556.5120,91.8123
            L556.9200,91.8117L557.3280,91.8111L557.7360,91.8106L558.1440,91.8100L558.5520,91.8095L558.9600,91.8091L559.3680,91.8086L559.7760,91.8082L560.1840,91.8078L560.5920,91.8074
            L561.0000,91.8070L561.4080,91.8066L561.8160,91.8063L562.2240,91.8060L562.6320,91.8057L563.0400,91.8054L563.4480,91.8051L563.8560,91.8048L564.2640,91.8046L564.6720,91.8043
            L565.0800,91.8041L565.4880,91.8039L565.8960,91.8037L566.3040,91.8035L566.7120,91.8033L567.1200,91.8031L567.5280,91.8030L567.9360,91.8028L568.3440,91.8027L568.7520,91.8025
            L569.1600,91.8024L569.5680,91.8023L569.9760,91.8021L570.3840,91.8020L570.7920,91.8019L571.2000,91.8018L571.6080,91.8017L572.0160,91.8016L572.4240,91.8015L572.8320,91.8015
            L573.2400,91.8014L573.6480,91.8013L574.0560,91.8012L574.4640,91.8012L574.8720,91.8011L575.2800,91.8010L575.6880,91.8010L576.0960,91.8009L576.5040,91.8009L576.9120,91.8008
            L577.3200,91.8008L577.7280,91.8007L578.1360,91.8007L578.5440,91.8007L578.9520,91.8006L579.3600,91.8006L579.7680,91.8005L580.1760,91.8005L580.5840,91.8005L580.9920,91.8005
            L581.4000,91.8004L581.8080,91.8004L582.2160,91.8004L582.6240,91.8004L583.0320,91.8003L583.4400,91.8003L583.8480,91.8003L584.2560,91.8003L584.6640,91.8003L585.0720,91.8003
            L585.4800,91.8002L585.8880,91.8002L586.2960,91.8002L586.7040,91.8002L587.1120,91.8002L587.5200,91.8002L587.9280,91.8002L588.3360,91.8002L588.7440,91.8001L589.1520,91.8001
            L589.5600,91.8001L589.9680,91.8001L590.3760,91.8001L590.7840,91.8001L591.1920,91.8001L591.6000,91.8001L592.0080,91.8001L592.4160,91.8001L592.8240,91.8001L593.2320,91.8001
            L593.6400,91.8001L594.0480,91.8001L594.4560,91.8001L594.8640,91.8001L595.2720,91.8001L595.6800,91.8001L596.0880,91.8000L596.4960,91.8000L596.9040,91.8000L597.3120,91.8000
            L597.7200,91.8000L598.1280,91.8000L598.5360,91.8000L598.9440,91.8000L599.3520,91.8000L599.7600,91.8000L600.1680,91.8000L600.5760,91.8000L600.9840,91.8000L601.3920,91.8000
            L601.8000,91.8000"/>
  </g>
  <g style="fill:none; stroke:#000000; stroke-width:  0.9180; stroke-linecap:butt; stroke-linejoin:miter; stroke-dasharray:none">
   <path d="M91.8000,91.8000L703.8000,91.8000"/>
   <path d="M91.8000,520.2000L703.8000,520.2000"/>
   <path d="M142.8000,91.8000L142.8000,97.9200"/>
   <path d="M142.8000,520.2000L142.8000,514.0800"/>
   <path d="M244.8000,91.8000L244.8000,97.9200"/>
   <path d="M244.8000,520.2000L244.8000,514.0800"/>
   <path d="M346.8000,91.8000L346.8000,97.9200"/>
   <path d="M346.8000,520.2000L346.8000,514.0800"/>
   <path d="M448.8000,91.8000L448.8000,97.9200"/>
   <path d="M448.8000,520.2000L448.8000,514.0800"/>
   <path d="M550.8000,91.8000L550.8000,97.9200"/>
   <path d="M550.8000,520.2000L550.8000,514.0800"/>
   <path d="M652.8000,91.8000L652.8000,97.9200"/>
   <path d="M652.8000,520.2000L652.8000,514.0800"/>
   <path d="M91.8000,91.8000L91.8000,104.0400"/>
   <path d="M91.8000,520.2000L91.8000,507.9600"/>
   <path d="M193.8000,91.8000L193.8000,104.0400"/>
   <path d="M193.8000,520.2000L193.8000,507.9600"/>
   <path d="M295.8000,91.8000L295.8000,104.0400"/>
   <path d="M295.8000,520.2000L295.8000,507.9600"/>
   <path d="M397.8000,91.8000L397.8000,104.0400"/>
   <path d="M397.8000,520.2000L397.8000,507.9600"/>
   <path d="M499.8000,91.8000L499.8000,104.0400"/>
   <path d="M499.8000,520.2000L499.8000,507.9600"/>
   <path d="M601.8000,91.8000L601.8000,104.0400"/>
   <path d="M601.8000,520.2000L601.8000,507.9600"/>
   <path d="M703.8000,91.8000L703.8000,104.0400"/>
   <path d="M703.8000,520.2000L703.8000,507.9600"/>
  </g>
  <g style="fill:#000000; fill-rule:nonzero">
   <text   style="font-family:'Times','Nimbus Roman'; font-style:normal; font-weight:normal; font-size:612.0000" transform="matrix(0.0280,0.0000,-0.0000,-0.0280,79.3000,74.6800)">270</text>
   <text   style="font-family:'Times','Nimbus Roman'; font-style:normal; font-weight:normal; font-size:612.0000" transform="matrix(0.0280,0.0000,-0.0000,-0.0280,181.3000,74.6800)">280</text>
   <text   style="font-family:'Times','Nimbus Roman'; font-style:normal; font-weight:normal; font-size:612.0000" transform="matrix(0.0280,0.0000,-0.0000,-0.0280,283.3000,74.6800)">290</text>
   <text   style="font-family:'Times','Nimbus Roman'; font-style:normal; font-weight:normal; font-size:612.0000" transform="matrix(0.0280,0.0000,-0.0000,-0.0280,385.3000,74.6800)">300</text>
   <text   style="font-family:'Times','Nimbus Roman'; font-style:normal; font-weight:normal; font-size:612.0000" transform="matrix(0.0280,0.0000,-0.0000,-0.0280,487.3000,73.6800)">310</text>
   <text   style="font-family:'Times','Nimbus Roman'; font-style:normal; font-weight:normal; font-size:612.0000" transform="matrix(0.0280,0.0000,-0.0000,-0.0280,589.3000,74.6800)">320</text>
   <text   style="font-family:'Times','Nimbus Roman'; font-style:normal; font-weight:normal; font-size:612.0000" transform="matrix(0.0280,0.0000,-0.0000,-0.0280,691.3000,74.6800)">330</text>
   <text   style="font-family:'Times','Nimbus Roman'; font-style:normal; font-weight:normal; font-size:612.0000" transform="matrix(0.0280,0.0000,-0.0000,-0.0280,340.3000,55.5600)">Temperature (K)</text>
  </g>
  <g style="fill:none; stroke:#000000; stroke-width:  0.9180; stroke-linecap:butt; stroke-linejoin:miter; stroke-dasharray:none">
   <path d="M91.8000,91.8000L91.8000,520.2000"/>
   <path d="M703.8000,91.8000L703.8000,520.2000"/>
   <path d="M91.8000,145.3500L97.9200,145.3500"/>
   <path d="M703.8000,145.3500L697.6800,145.3500"/>
   <path d="M91.8000,252.4500L97.9200,252.4500"/>
   <path d="M703.8000,252.4500L697.6800,252.4500"/>
   <path d="M91.8000,359.5500L97.9200,359.5500"/>
   <path d="M703.8000,359.5500L697.6800,359.5500"/>
   <path d="M91.8000,466.6500L97.9200,466.6500"/>
   <path d="M703.8000,466.6500L697.6800,466.6500"/>
   <path d="M91.8000,91.8000L104.0400,91.8000"/>
   <path d="M703.8000,91.8000L691.5600,91.8000"/>
   <path d="M91.8000,198.9000L104.0400,198.9000"/>
   <path d="M703.8000,198.9000L691.5600,198.9000"/>
   <path d="M91.8000,306.0000L104.0400,306.0000"/>
   <path d="M703.8000,306.0000L691.5600,306.0000"/>
   <path d="M91.8000,413.1000L104.0400,413.1000"/>
   <path d="M703.8000,413.1000L691.5600,413.1000"/>
   <path d="M91.8000,520.2000L104.0400,520.2000"/>
   <path d="M703.8000,520.2000L691.5600,520.2000"/>
  </g>
  <g style="fill:#000000; fill-rule:nonzero">
   <text   style="font-family:'Times','Nimbus Roman'; font-style:normal; font-weight:normal; font-size:612.0000" transform="matrix(0.0280,0.0000,-0.0000,-0.0280,77.6800,86.3000)">0</text>
   <text   style="font-family:'Times','Nimbus Roman'; font-style:normal; font-weight:normal; font-size:612.0000" transform="matrix(0.0280,0.0000,-0.0000,-0.0280,56.6800,192.9000)">0.05</text>
   <text   style="font-family:'Times','Nimbus Roman'; font-style:normal; font-weight:normal; font-size:612.0000" transform="matrix(0.0280,0.0000,-0.0000,-0.0280,65.6800,300.0000)">0.1</text>
   <text   style="font-family:'Times','Nimbus Roman'; font-style:normal; font-weight:normal; font-size:612.0000" transform="matrix(0.0280,0.0000,-0.0000,-0.0280,56.6800,407.1000)">0.15</text>
   <text   style="font-family:'Times','Nimbus Roman'; font-style:normal; font-weight:normal; font-size:612.0000" transform="matrix(0.0280,0.0000,-0.0000,-0.0280,64.6800,514.7000)">0.2</text>
   <text   style="font-family:'Times','Nimbus Roman'; font-style:normal; font-weight:normal; font-size:612.0000" transform="matrix(0.0000,0.0280,0.0280,-0.0000,46.5600,239.5000)">Relative Frequency</text>
  </g>
  <g style="fill:none; stroke:#000000; stroke-width:  0.9180; stroke-linecap:butt; stroke-linejoin:miter; stroke-dasharray:none">
   <path d="M91.8000,91.8000L91.8000,520.2000L703.8000,520.2000L703.8000,91.8000z"/>
  </g>
  <g style="fill:#000000; fill-rule:nonzero">
   <text   style="font-family:'Times','Nimbus Roman'; font-style:normal; font-weight:normal; font-size:612.0000" transform="matrix(0.0420,0.0000,-0.0000,-0.0420,113.8000,562.9200)">Constant Force SMD Unfolding of 1D16 DNA Hairpin</text>
   <text   style="font-family:'Times','Nimbus Roman'; font-style:normal; font-weight:normal; font-size:612.0000" transform="matrix(0.0280,0.0000,-0.0000,-0.0280,62.3000,536.4400)">T Fluctuations (GBIS, 30pN, 300K, T Rescale Freq 2fs) (Gaussian fit mean: 300K, std.dev: 3.5K)</text>
  </g>
 </g>
</svg>
