<?xml version="1.0" encoding="utf-8" standalone="no"?>
<!DOCTYPE svg PUBLIC "-//W3C//DTD SVG 1.1//EN"
  "http://www.w3.org/Graphics/SVG/1.1/DTD/svg11.dtd">
<svg xmlns:xlink="http://www.w3.org/1999/xlink" width="913.92pt" height="483.84pt" viewBox="0 0 913.92 483.84" xmlns="http://www.w3.org/2000/svg" version="1.1">
 <metadata>
  <rdf:RDF xmlns:dc="http://purl.org/dc/elements/1.1/" xmlns:cc="http://creativecommons.org/ns#" xmlns:rdf="http://www.w3.org/1999/02/22-rdf-syntax-ns#">
   <cc:Work>
    <dc:type rdf:resource="http://purl.org/dc/dcmitype/StillImage"/>
    <dc:date>2024-09-17T12:58:32.479238</dc:date>
    <dc:format>image/svg+xml</dc:format>
    <dc:creator>
     <cc:Agent>
      <dc:title>Matplotlib v3.9.0, https://matplotlib.org/</dc:title>
     </cc:Agent>
    </dc:creator>
   </cc:Work>
  </rdf:RDF>
 </metadata>
 <defs>
  <style type="text/css">*{stroke-linejoin: round; stroke-linecap: butt}</style>
 </defs>
 <g id="figure_1">
  <g id="patch_1">
   <path d="M 0 483.84 
L 913.92 483.84 
L 913.92 0 
L 0 0 
z
" style="fill: #ffffff"/>
  </g>
  <g id="axes_1">
   <g id="patch_2">
    <path d="M 72.84 416.76 
L 424.04 416.76 
L 424.04 53.96 
L 72.84 53.96 
z
" style="fill: #ffffff"/>
   </g>
   <g id="PathCollection_1">
    <defs>
     <path id="m77ce478518" d="M 0 3 
C 0.795609 3 1.55874 2.683901 2.12132 2.12132 
C 2.683901 1.55874 3 0.795609 3 0 
C 3 -0.795609 2.683901 -1.55874 2.12132 -2.12132 
C 1.55874 -2.683901 0.795609 -3 0 -3 
C -0.795609 -3 -1.55874 -2.683901 -2.12132 -2.12132 
C -2.683901 -1.55874 -3 -0.795609 -3 0 
C -3 0.795609 -2.683901 1.55874 -2.12132 2.12132 
C -1.55874 2.683901 -0.795609 3 0 3 
z
" style="stroke: #000000"/>
    </defs>
    <g clip-path="url(#p1e9ecbd353)">
     <use xlink:href="#m77ce478518" x="88.803636" y="70.450909" style="stroke: #000000"/>
     <use xlink:href="#m77ce478518" x="117.82843" y="71.425753" style="stroke: #000000"/>
     <use xlink:href="#m77ce478518" x="146.853223" y="71.911344" style="stroke: #000000"/>
     <use xlink:href="#m77ce478518" x="175.878017" y="75.038795" style="stroke: #000000"/>
     <use xlink:href="#m77ce478518" x="204.90281" y="95.821546" style="stroke: #000000"/>
     <use xlink:href="#m77ce478518" x="233.927603" y="175.992727" style="stroke: #000000"/>
     <use xlink:href="#m77ce478518" x="262.952397" y="282.125266" style="stroke: #000000"/>
     <use xlink:href="#m77ce478518" x="291.97719" y="356.558248" style="stroke: #000000"/>
     <use xlink:href="#m77ce478518" x="321.001983" y="383.135679" style="stroke: #000000"/>
     <use xlink:href="#m77ce478518" x="350.026777" y="384.843296" style="stroke: #000000"/>
     <use xlink:href="#m77ce478518" x="379.05157" y="387.853676" style="stroke: #000000"/>
     <use xlink:href="#m77ce478518" x="408.076364" y="394.108694" style="stroke: #000000"/>
    </g>
   </g>
   <g id="matplotlib.axis_1">
    <g id="xtick_1">
     <g id="line2d_1">
      <defs>
       <path id="ma04ec7d529" d="M 0 0 
L 0 3.5 
" style="stroke: #000000; stroke-width: 0.8"/>
      </defs>
      <g>
       <use xlink:href="#ma04ec7d529" x="76.904362" y="416.76" style="stroke: #000000; stroke-width: 0.8"/>
      </g>
     </g>
     <g id="text_1">
      <!-- 14 -->
      <g transform="translate(70.541862 431.358437) scale(0.1 -0.1)">
       <defs>
        <path id="DejaVuSans-31" d="M 794 531 
L 1825 531 
L 1825 4091 
L 703 3866 
L 703 4441 
L 1819 4666 
L 2450 4666 
L 2450 531 
L 3481 531 
L 3481 0 
L 794 0 
L 794 531 
z
" transform="scale(0.015625)"/>
        <path id="DejaVuSans-34" d="M 2419 4116 
L 825 1625 
L 2419 1625 
L 2419 4116 
z
M 2253 4666 
L 3047 4666 
L 3047 1625 
L 3713 1625 
L 3713 1100 
L 3047 1100 
L 3047 0 
L 2419 0 
L 2419 1100 
L 313 1100 
L 313 1709 
L 2253 4666 
z
" transform="scale(0.015625)"/>
       </defs>
       <use xlink:href="#DejaVuSans-31"/>
       <use xlink:href="#DejaVuSans-34" x="63.623047"/>
      </g>
     </g>
    </g>
    <g id="xtick_2">
     <g id="line2d_2">
      <g>
       <use xlink:href="#ma04ec7d529" x="135.704346" y="416.76" style="stroke: #000000; stroke-width: 0.8"/>
      </g>
     </g>
     <g id="text_2">
      <!-- 16 -->
      <g transform="translate(129.341846 431.358437) scale(0.1 -0.1)">
       <defs>
        <path id="DejaVuSans-36" d="M 2113 2584 
Q 1688 2584 1439 2293 
Q 1191 2003 1191 1497 
Q 1191 994 1439 701 
Q 1688 409 2113 409 
Q 2538 409 2786 701 
Q 3034 994 3034 1497 
Q 3034 2003 2786 2293 
Q 2538 2584 2113 2584 
z
M 3366 4563 
L 3366 3988 
Q 3128 4100 2886 4159 
Q 2644 4219 2406 4219 
Q 1781 4219 1451 3797 
Q 1122 3375 1075 2522 
Q 1259 2794 1537 2939 
Q 1816 3084 2150 3084 
Q 2853 3084 3261 2657 
Q 3669 2231 3669 1497 
Q 3669 778 3244 343 
Q 2819 -91 2113 -91 
Q 1303 -91 875 529 
Q 447 1150 447 2328 
Q 447 3434 972 4092 
Q 1497 4750 2381 4750 
Q 2619 4750 2861 4703 
Q 3103 4656 3366 4563 
z
" transform="scale(0.015625)"/>
       </defs>
       <use xlink:href="#DejaVuSans-31"/>
       <use xlink:href="#DejaVuSans-36" x="63.623047"/>
      </g>
     </g>
    </g>
    <g id="xtick_3">
     <g id="line2d_3">
      <g>
       <use xlink:href="#ma04ec7d529" x="194.50433" y="416.76" style="stroke: #000000; stroke-width: 0.8"/>
      </g>
     </g>
     <g id="text_3">
      <!-- 18 -->
      <g transform="translate(188.14183 431.358437) scale(0.1 -0.1)">
       <defs>
        <path id="DejaVuSans-38" d="M 2034 2216 
Q 1584 2216 1326 1975 
Q 1069 1734 1069 1313 
Q 1069 891 1326 650 
Q 1584 409 2034 409 
Q 2484 409 2743 651 
Q 3003 894 3003 1313 
Q 3003 1734 2745 1975 
Q 2488 2216 2034 2216 
z
M 1403 2484 
Q 997 2584 770 2862 
Q 544 3141 544 3541 
Q 544 4100 942 4425 
Q 1341 4750 2034 4750 
Q 2731 4750 3128 4425 
Q 3525 4100 3525 3541 
Q 3525 3141 3298 2862 
Q 3072 2584 2669 2484 
Q 3125 2378 3379 2068 
Q 3634 1759 3634 1313 
Q 3634 634 3220 271 
Q 2806 -91 2034 -91 
Q 1263 -91 848 271 
Q 434 634 434 1313 
Q 434 1759 690 2068 
Q 947 2378 1403 2484 
z
M 1172 3481 
Q 1172 3119 1398 2916 
Q 1625 2713 2034 2713 
Q 2441 2713 2670 2916 
Q 2900 3119 2900 3481 
Q 2900 3844 2670 4047 
Q 2441 4250 2034 4250 
Q 1625 4250 1398 4047 
Q 1172 3844 1172 3481 
z
" transform="scale(0.015625)"/>
       </defs>
       <use xlink:href="#DejaVuSans-31"/>
       <use xlink:href="#DejaVuSans-38" x="63.623047"/>
      </g>
     </g>
    </g>
    <g id="xtick_4">
     <g id="line2d_4">
      <g>
       <use xlink:href="#ma04ec7d529" x="253.304315" y="416.76" style="stroke: #000000; stroke-width: 0.8"/>
      </g>
     </g>
     <g id="text_4">
      <!-- 20 -->
      <g transform="translate(246.941815 431.358437) scale(0.1 -0.1)">
       <defs>
        <path id="DejaVuSans-32" d="M 1228 531 
L 3431 531 
L 3431 0 
L 469 0 
L 469 531 
Q 828 903 1448 1529 
Q 2069 2156 2228 2338 
Q 2531 2678 2651 2914 
Q 2772 3150 2772 3378 
Q 2772 3750 2511 3984 
Q 2250 4219 1831 4219 
Q 1534 4219 1204 4116 
Q 875 4013 500 3803 
L 500 4441 
Q 881 4594 1212 4672 
Q 1544 4750 1819 4750 
Q 2544 4750 2975 4387 
Q 3406 4025 3406 3419 
Q 3406 3131 3298 2873 
Q 3191 2616 2906 2266 
Q 2828 2175 2409 1742 
Q 1991 1309 1228 531 
z
" transform="scale(0.015625)"/>
        <path id="DejaVuSans-30" d="M 2034 4250 
Q 1547 4250 1301 3770 
Q 1056 3291 1056 2328 
Q 1056 1369 1301 889 
Q 1547 409 2034 409 
Q 2525 409 2770 889 
Q 3016 1369 3016 2328 
Q 3016 3291 2770 3770 
Q 2525 4250 2034 4250 
z
M 2034 4750 
Q 2819 4750 3233 4129 
Q 3647 3509 3647 2328 
Q 3647 1150 3233 529 
Q 2819 -91 2034 -91 
Q 1250 -91 836 529 
Q 422 1150 422 2328 
Q 422 3509 836 4129 
Q 1250 4750 2034 4750 
z
" transform="scale(0.015625)"/>
       </defs>
       <use xlink:href="#DejaVuSans-32"/>
       <use xlink:href="#DejaVuSans-30" x="63.623047"/>
      </g>
     </g>
    </g>
    <g id="xtick_5">
     <g id="line2d_5">
      <g>
       <use xlink:href="#ma04ec7d529" x="312.104299" y="416.76" style="stroke: #000000; stroke-width: 0.8"/>
      </g>
     </g>
     <g id="text_5">
      <!-- 22 -->
      <g transform="translate(305.741799 431.358437) scale(0.1 -0.1)">
       <use xlink:href="#DejaVuSans-32"/>
       <use xlink:href="#DejaVuSans-32" x="63.623047"/>
      </g>
     </g>
    </g>
    <g id="xtick_6">
     <g id="line2d_6">
      <g>
       <use xlink:href="#ma04ec7d529" x="370.904283" y="416.76" style="stroke: #000000; stroke-width: 0.8"/>
      </g>
     </g>
     <g id="text_6">
      <!-- 24 -->
      <g transform="translate(364.541783 431.358437) scale(0.1 -0.1)">
       <use xlink:href="#DejaVuSans-32"/>
       <use xlink:href="#DejaVuSans-34" x="63.623047"/>
      </g>
     </g>
    </g>
    <g id="text_7">
     <!-- x (A) -->
     <g transform="translate(236.569688 445.036563) scale(0.1 -0.1)">
      <defs>
       <path id="DejaVuSans-78" d="M 3513 3500 
L 2247 1797 
L 3578 0 
L 2900 0 
L 1881 1375 
L 863 0 
L 184 0 
L 1544 1831 
L 300 3500 
L 978 3500 
L 1906 2253 
L 2834 3500 
L 3513 3500 
z
" transform="scale(0.015625)"/>
       <path id="DejaVuSans-20" transform="scale(0.015625)"/>
       <path id="DejaVuSans-28" d="M 1984 4856 
Q 1566 4138 1362 3434 
Q 1159 2731 1159 2009 
Q 1159 1288 1364 580 
Q 1569 -128 1984 -844 
L 1484 -844 
Q 1016 -109 783 600 
Q 550 1309 550 2009 
Q 550 2706 781 3412 
Q 1013 4119 1484 4856 
L 1984 4856 
z
" transform="scale(0.015625)"/>
       <path id="DejaVuSans-41" d="M 2188 4044 
L 1331 1722 
L 3047 1722 
L 2188 4044 
z
M 1831 4666 
L 2547 4666 
L 4325 0 
L 3669 0 
L 3244 1197 
L 1141 1197 
L 716 0 
L 50 0 
L 1831 4666 
z
" transform="scale(0.015625)"/>
       <path id="DejaVuSans-29" d="M 513 4856 
L 1013 4856 
Q 1481 4119 1714 3412 
Q 1947 2706 1947 2009 
Q 1947 1309 1714 600 
Q 1481 -109 1013 -844 
L 513 -844 
Q 928 -128 1133 580 
Q 1338 1288 1338 2009 
Q 1338 2731 1133 3434 
Q 928 4138 513 4856 
z
" transform="scale(0.015625)"/>
      </defs>
      <use xlink:href="#DejaVuSans-78"/>
      <use xlink:href="#DejaVuSans-20" x="59.179688"/>
      <use xlink:href="#DejaVuSans-28" x="90.966797"/>
      <use xlink:href="#DejaVuSans-41" x="129.980469"/>
      <use xlink:href="#DejaVuSans-29" x="198.388672"/>
     </g>
    </g>
   </g>
   <g id="matplotlib.axis_2">
    <g id="ytick_1">
     <g id="line2d_7">
      <defs>
       <path id="m649e70db76" d="M 0 0 
L -3.5 0 
" style="stroke: #000000; stroke-width: 0.8"/>
      </defs>
      <g>
       <use xlink:href="#m649e70db76" x="72.84" y="400.269091" style="stroke: #000000; stroke-width: 0.8"/>
      </g>
     </g>
     <g id="text_8">
      <!-- 0.0 -->
      <g transform="translate(49.936875 404.06831) scale(0.1 -0.1)">
       <defs>
        <path id="DejaVuSans-2e" d="M 684 794 
L 1344 794 
L 1344 0 
L 684 0 
L 684 794 
z
" transform="scale(0.015625)"/>
       </defs>
       <use xlink:href="#DejaVuSans-30"/>
       <use xlink:href="#DejaVuSans-2e" x="63.623047"/>
       <use xlink:href="#DejaVuSans-30" x="95.410156"/>
      </g>
     </g>
    </g>
    <g id="ytick_2">
     <g id="line2d_8">
      <g>
       <use xlink:href="#m649e70db76" x="72.84" y="334.305455" style="stroke: #000000; stroke-width: 0.8"/>
      </g>
     </g>
     <g id="text_9">
      <!-- 0.2 -->
      <g transform="translate(49.936875 338.104673) scale(0.1 -0.1)">
       <use xlink:href="#DejaVuSans-30"/>
       <use xlink:href="#DejaVuSans-2e" x="63.623047"/>
       <use xlink:href="#DejaVuSans-32" x="95.410156"/>
      </g>
     </g>
    </g>
    <g id="ytick_3">
     <g id="line2d_9">
      <g>
       <use xlink:href="#m649e70db76" x="72.84" y="268.341818" style="stroke: #000000; stroke-width: 0.8"/>
      </g>
     </g>
     <g id="text_10">
      <!-- 0.4 -->
      <g transform="translate(49.936875 272.141037) scale(0.1 -0.1)">
       <use xlink:href="#DejaVuSans-30"/>
       <use xlink:href="#DejaVuSans-2e" x="63.623047"/>
       <use xlink:href="#DejaVuSans-34" x="95.410156"/>
      </g>
     </g>
    </g>
    <g id="ytick_4">
     <g id="line2d_10">
      <g>
       <use xlink:href="#m649e70db76" x="72.84" y="202.378182" style="stroke: #000000; stroke-width: 0.8"/>
      </g>
     </g>
     <g id="text_11">
      <!-- 0.6 -->
      <g transform="translate(49.936875 206.177401) scale(0.1 -0.1)">
       <use xlink:href="#DejaVuSans-30"/>
       <use xlink:href="#DejaVuSans-2e" x="63.623047"/>
       <use xlink:href="#DejaVuSans-36" x="95.410156"/>
      </g>
     </g>
    </g>
    <g id="ytick_5">
     <g id="line2d_11">
      <g>
       <use xlink:href="#m649e70db76" x="72.84" y="136.414545" style="stroke: #000000; stroke-width: 0.8"/>
      </g>
     </g>
     <g id="text_12">
      <!-- 0.8 -->
      <g transform="translate(49.936875 140.213764) scale(0.1 -0.1)">
       <use xlink:href="#DejaVuSans-30"/>
       <use xlink:href="#DejaVuSans-2e" x="63.623047"/>
       <use xlink:href="#DejaVuSans-38" x="95.410156"/>
      </g>
     </g>
    </g>
    <g id="ytick_6">
     <g id="line2d_12">
      <g>
       <use xlink:href="#m649e70db76" x="72.84" y="70.450909" style="stroke: #000000; stroke-width: 0.8"/>
      </g>
     </g>
     <g id="text_13">
      <!-- 1.0 -->
      <g transform="translate(49.936875 74.250128) scale(0.1 -0.1)">
       <use xlink:href="#DejaVuSans-31"/>
       <use xlink:href="#DejaVuSans-2e" x="63.623047"/>
       <use xlink:href="#DejaVuSans-30" x="95.410156"/>
      </g>
     </g>
    </g>
    <g id="text_14">
     <!-- Sp -->
     <g transform="translate(43.857188 241.708437) rotate(-90) scale(0.1 -0.1)">
      <defs>
       <path id="DejaVuSans-53" d="M 3425 4513 
L 3425 3897 
Q 3066 4069 2747 4153 
Q 2428 4238 2131 4238 
Q 1616 4238 1336 4038 
Q 1056 3838 1056 3469 
Q 1056 3159 1242 3001 
Q 1428 2844 1947 2747 
L 2328 2669 
Q 3034 2534 3370 2195 
Q 3706 1856 3706 1288 
Q 3706 609 3251 259 
Q 2797 -91 1919 -91 
Q 1588 -91 1214 -16 
Q 841 59 441 206 
L 441 856 
Q 825 641 1194 531 
Q 1563 422 1919 422 
Q 2459 422 2753 634 
Q 3047 847 3047 1241 
Q 3047 1584 2836 1778 
Q 2625 1972 2144 2069 
L 1759 2144 
Q 1053 2284 737 2584 
Q 422 2884 422 3419 
Q 422 4038 858 4394 
Q 1294 4750 2059 4750 
Q 2388 4750 2728 4690 
Q 3069 4631 3425 4513 
z
" transform="scale(0.015625)"/>
       <path id="DejaVuSans-70" d="M 1159 525 
L 1159 -1331 
L 581 -1331 
L 581 3500 
L 1159 3500 
L 1159 2969 
Q 1341 3281 1617 3432 
Q 1894 3584 2278 3584 
Q 2916 3584 3314 3078 
Q 3713 2572 3713 1747 
Q 3713 922 3314 415 
Q 2916 -91 2278 -91 
Q 1894 -91 1617 61 
Q 1341 213 1159 525 
z
M 3116 1747 
Q 3116 2381 2855 2742 
Q 2594 3103 2138 3103 
Q 1681 3103 1420 2742 
Q 1159 2381 1159 1747 
Q 1159 1113 1420 752 
Q 1681 391 2138 391 
Q 2594 391 2855 752 
Q 3116 1113 3116 1747 
z
" transform="scale(0.015625)"/>
      </defs>
      <use xlink:href="#DejaVuSans-53"/>
      <use xlink:href="#DejaVuSans-70" x="63.476562"/>
     </g>
    </g>
   </g>
   <g id="line2d_13">
    <path d="M 99.85996 70.450909 
L 114.834741 72.412854 
L 123.154063 73.724732 
L 129.809522 74.98857 
L 134.801115 76.109703 
L 139.792709 77.420064 
L 144.784303 78.961751 
L 149.775896 80.78204 
L 154.76749 82.933217 
L 158.095219 84.579035 
L 161.422948 86.414817 
L 164.750677 88.458849 
L 168.078406 90.729749 
L 171.406135 93.246222 
L 174.733864 96.026774 
L 178.061594 99.089396 
L 181.389323 102.45122 
L 184.717052 106.128146 
L 188.044781 110.134462 
L 191.37251 114.482446 
L 194.700239 119.181983 
L 198.027968 124.240183 
L 201.355697 129.661033 
L 204.683426 135.44508 
L 208.011156 141.589164 
L 211.338885 148.086208 
L 216.330478 158.468084 
L 221.322072 169.563113 
L 226.313666 181.295802 
L 231.305259 193.571406 
L 237.960717 210.588199 
L 247.943905 236.880362 
L 257.927092 263.099142 
L 264.58255 279.990982 
L 269.574144 292.139486 
L 274.565738 303.722671 
L 279.557331 314.652379 
L 284.548925 324.860272 
L 287.876654 331.240162 
L 291.204383 337.268704 
L 294.532112 342.940938 
L 297.859841 348.255733 
L 301.18757 353.215547 
L 304.515299 357.826135 
L 307.843029 362.096223 
L 311.170758 366.037147 
L 314.498487 369.662475 
L 317.826216 372.987628 
L 321.153945 376.029495 
L 324.481674 378.806075 
L 327.809403 381.336126 
L 331.137132 383.638858 
L 334.464861 385.733649 
L 337.792591 387.639803 
L 342.784184 390.18688 
L 347.775778 392.414635 
L 352.767371 394.382657 
L 359.42283 396.700193 
L 367.742152 399.283333 
L 371.069882 400.269091 
L 371.069882 400.269091 
" clip-path="url(#p1e9ecbd353)" style="fill: none; stroke: #1f77b4; stroke-width: 1.5; stroke-linecap: square"/>
   </g>
   <g id="line2d_14">
    <path d="M 103.187689 70.450909 
L 119.826334 71.700292 
L 128.145657 72.510255 
L 134.801115 73.332484 
L 141.456573 74.382341 
L 146.448167 75.370833 
L 151.439761 76.581124 
L 156.431354 78.066078 
L 159.759084 79.238371 
L 163.086813 80.579607 
L 166.414542 82.111218 
L 169.742271 83.85594 
L 173.07 85.837597 
L 176.397729 88.080823 
L 179.725458 90.61071 
L 183.053187 93.452392 
L 186.380916 96.630562 
L 189.708645 100.168933 
L 193.036375 104.089645 
L 196.364104 108.412646 
L 199.691833 113.155048 
L 203.019562 118.330482 
L 206.347291 123.948476 
L 209.67502 130.013878 
L 213.002749 136.526342 
L 216.330478 143.479901 
L 219.658207 150.862659 
L 222.985936 158.656595 
L 227.97753 171.063903 
L 232.969124 184.233667 
L 237.960717 198.030882 
L 244.616176 217.125498 
L 262.918686 270.366367 
L 267.910279 284.196872 
L 272.901873 297.411657 
L 277.893467 309.876164 
L 281.221196 317.715225 
L 284.548925 325.148849 
L 287.876654 332.15913 
L 291.204383 338.734263 
L 294.532112 344.868356 
L 297.859841 350.561111 
L 301.18757 355.817401 
L 304.515299 360.64676 
L 307.843029 365.062806 
L 311.170758 369.082625 
L 314.498487 372.726136 
L 317.826216 376.015455 
L 321.153945 378.974284 
L 324.481674 381.62733 
L 327.809403 383.999785 
L 331.137132 386.116851 
L 334.464861 388.003344 
L 337.792591 389.683363 
L 341.12032 391.180028 
L 346.111913 393.128924 
L 351.103507 394.783019 
L 356.095101 396.204228 
L 362.750559 397.832143 
L 371.069882 399.60099 
L 374.397611 400.269091 
L 374.397611 400.269091 
" clip-path="url(#p1e9ecbd353)" style="fill: none; stroke: #ff7f0e; stroke-width: 1.5; stroke-linecap: square"/>
   </g>
   <g id="line2d_15">
    <path d="M 104.851553 70.450909 
L 123.154063 71.302449 
L 133.137251 71.971701 
L 141.456573 72.770499 
L 148.112032 73.660651 
L 153.103625 74.535163 
L 158.095219 75.642584 
L 163.086813 77.043882 
L 166.414542 78.17629 
L 169.742271 79.494809 
L 173.07 81.025315 
L 176.397729 82.795507 
L 179.725458 84.83463 
L 183.053187 87.173102 
L 186.380916 89.842029 
L 189.708645 92.872623 
L 193.036375 96.295518 
L 196.364104 100.139999 
L 199.691833 104.433155 
L 203.019562 109.198982 
L 206.347291 114.457471 
L 209.67502 120.223687 
L 213.002749 126.506908 
L 216.330478 133.309834 
L 219.658207 140.627917 
L 222.985936 148.448848 
L 226.313666 156.75222 
L 229.641395 165.509418 
L 234.632988 179.413688 
L 239.624582 194.098685 
L 246.28004 214.560861 
L 266.246415 276.872474 
L 271.238008 291.449556 
L 276.229602 305.223457 
L 279.557331 313.885294 
L 282.88506 322.089581 
L 286.212789 329.810351 
L 289.540519 337.029799 
L 292.868248 343.73809 
L 296.195977 349.932966 
L 299.523706 355.619172 
L 302.851435 360.807751 
L 306.179164 365.515224 
L 309.506893 369.762719 
L 312.834622 373.575055 
L 316.162351 376.979844 
L 319.49008 380.006614 
L 322.81781 382.686004 
L 326.145539 385.049029 
L 329.473268 387.126442 
L 332.800997 388.948197 
L 336.128726 390.54302 
L 339.456455 391.938079 
L 342.784184 393.158756 
L 347.775778 394.713601 
L 352.767371 395.999336 
L 357.758965 397.077263 
L 364.414423 398.281173 
L 374.397611 399.795992 
L 377.72534 400.269091 
L 377.72534 400.269091 
" clip-path="url(#p1e9ecbd353)" style="fill: none; stroke: #2ca02c; stroke-width: 1.5; stroke-linecap: square"/>
   </g>
   <g id="line2d_16">
    <path d="M 106.515418 70.450909 
L 128.145657 71.136604 
L 138.128844 71.662088 
L 146.448167 72.333631 
L 153.103625 73.120293 
L 158.095219 73.920619 
L 163.086813 74.962437 
L 166.414542 75.824433 
L 169.742271 76.847503 
L 173.07 78.057893 
L 176.397729 79.484471 
L 179.725458 81.158571 
L 183.053187 83.11371 
L 186.380916 85.385186 
L 189.708645 88.009523 
L 193.036375 91.023773 
L 196.364104 94.46468 
L 199.691833 98.367706 
L 203.019562 102.765954 
L 206.347291 107.689002 
L 209.67502 113.161696 
L 213.002749 119.20294 
L 216.330478 125.824538 
L 219.658207 133.03014 
L 222.985936 140.81435 
L 226.313666 149.16204 
L 229.641395 158.047933 
L 232.969124 167.436476 
L 237.960717 182.359332 
L 242.952311 198.114993 
L 249.607769 220.009075 
L 264.58255 269.821139 
L 269.574144 285.610856 
L 274.565738 300.581263 
L 277.893467 310.009249 
L 281.221196 318.940926 
L 284.548925 327.340833 
L 287.876654 335.183736 
L 291.204383 342.454491 
L 294.532112 349.147617 
L 297.859841 355.266613 
L 301.18757 360.823057 
L 304.515299 365.835563 
L 307.843029 370.328628 
L 311.170758 374.331431 
L 314.498487 377.876644 
L 317.826216 380.999278 
L 321.153945 383.735623 
L 324.481674 386.122295 
L 327.809403 388.195408 
L 331.137132 389.989903 
L 334.464861 391.539004 
L 337.792591 392.873831 
L 341.12032 394.023134 
L 346.111913 395.45593 
L 351.103507 396.607596 
L 356.095101 397.543685 
L 362.750559 398.549242 
L 371.069882 399.558778 
L 377.72534 400.269091 
L 377.72534 400.269091 
" clip-path="url(#p1e9ecbd353)" style="fill: none; stroke: #d62728; stroke-width: 1.5; stroke-linecap: square"/>
   </g>
   <g id="patch_3">
    <path d="M 72.84 416.76 
L 72.84 53.96 
" style="fill: none; stroke: #000000; stroke-width: 0.8; stroke-linejoin: miter; stroke-linecap: square"/>
   </g>
   <g id="patch_4">
    <path d="M 424.04 416.76 
L 424.04 53.96 
" style="fill: none; stroke: #000000; stroke-width: 0.8; stroke-linejoin: miter; stroke-linecap: square"/>
   </g>
   <g id="patch_5">
    <path d="M 72.84 416.76 
L 424.04 416.76 
" style="fill: none; stroke: #000000; stroke-width: 0.8; stroke-linejoin: miter; stroke-linecap: square"/>
   </g>
   <g id="patch_6">
    <path d="M 72.84 53.96 
L 424.04 53.96 
" style="fill: none; stroke: #000000; stroke-width: 0.8; stroke-linejoin: miter; stroke-linecap: square"/>
   </g>
   <g id="text_15">
    <!-- Splitting Probability -->
    <g transform="translate(189.88375 47.96) scale(0.12 -0.12)">
     <defs>
      <path id="DejaVuSans-6c" d="M 603 4863 
L 1178 4863 
L 1178 0 
L 603 0 
L 603 4863 
z
" transform="scale(0.015625)"/>
      <path id="DejaVuSans-69" d="M 603 3500 
L 1178 3500 
L 1178 0 
L 603 0 
L 603 3500 
z
M 603 4863 
L 1178 4863 
L 1178 4134 
L 603 4134 
L 603 4863 
z
" transform="scale(0.015625)"/>
      <path id="DejaVuSans-74" d="M 1172 4494 
L 1172 3500 
L 2356 3500 
L 2356 3053 
L 1172 3053 
L 1172 1153 
Q 1172 725 1289 603 
Q 1406 481 1766 481 
L 2356 481 
L 2356 0 
L 1766 0 
Q 1100 0 847 248 
Q 594 497 594 1153 
L 594 3053 
L 172 3053 
L 172 3500 
L 594 3500 
L 594 4494 
L 1172 4494 
z
" transform="scale(0.015625)"/>
      <path id="DejaVuSans-6e" d="M 3513 2113 
L 3513 0 
L 2938 0 
L 2938 2094 
Q 2938 2591 2744 2837 
Q 2550 3084 2163 3084 
Q 1697 3084 1428 2787 
Q 1159 2491 1159 1978 
L 1159 0 
L 581 0 
L 581 3500 
L 1159 3500 
L 1159 2956 
Q 1366 3272 1645 3428 
Q 1925 3584 2291 3584 
Q 2894 3584 3203 3211 
Q 3513 2838 3513 2113 
z
" transform="scale(0.015625)"/>
      <path id="DejaVuSans-67" d="M 2906 1791 
Q 2906 2416 2648 2759 
Q 2391 3103 1925 3103 
Q 1463 3103 1205 2759 
Q 947 2416 947 1791 
Q 947 1169 1205 825 
Q 1463 481 1925 481 
Q 2391 481 2648 825 
Q 2906 1169 2906 1791 
z
M 3481 434 
Q 3481 -459 3084 -895 
Q 2688 -1331 1869 -1331 
Q 1566 -1331 1297 -1286 
Q 1028 -1241 775 -1147 
L 775 -588 
Q 1028 -725 1275 -790 
Q 1522 -856 1778 -856 
Q 2344 -856 2625 -561 
Q 2906 -266 2906 331 
L 2906 616 
Q 2728 306 2450 153 
Q 2172 0 1784 0 
Q 1141 0 747 490 
Q 353 981 353 1791 
Q 353 2603 747 3093 
Q 1141 3584 1784 3584 
Q 2172 3584 2450 3431 
Q 2728 3278 2906 2969 
L 2906 3500 
L 3481 3500 
L 3481 434 
z
" transform="scale(0.015625)"/>
      <path id="DejaVuSans-50" d="M 1259 4147 
L 1259 2394 
L 2053 2394 
Q 2494 2394 2734 2622 
Q 2975 2850 2975 3272 
Q 2975 3691 2734 3919 
Q 2494 4147 2053 4147 
L 1259 4147 
z
M 628 4666 
L 2053 4666 
Q 2838 4666 3239 4311 
Q 3641 3956 3641 3272 
Q 3641 2581 3239 2228 
Q 2838 1875 2053 1875 
L 1259 1875 
L 1259 0 
L 628 0 
L 628 4666 
z
" transform="scale(0.015625)"/>
      <path id="DejaVuSans-72" d="M 2631 2963 
Q 2534 3019 2420 3045 
Q 2306 3072 2169 3072 
Q 1681 3072 1420 2755 
Q 1159 2438 1159 1844 
L 1159 0 
L 581 0 
L 581 3500 
L 1159 3500 
L 1159 2956 
Q 1341 3275 1631 3429 
Q 1922 3584 2338 3584 
Q 2397 3584 2469 3576 
Q 2541 3569 2628 3553 
L 2631 2963 
z
" transform="scale(0.015625)"/>
      <path id="DejaVuSans-6f" d="M 1959 3097 
Q 1497 3097 1228 2736 
Q 959 2375 959 1747 
Q 959 1119 1226 758 
Q 1494 397 1959 397 
Q 2419 397 2687 759 
Q 2956 1122 2956 1747 
Q 2956 2369 2687 2733 
Q 2419 3097 1959 3097 
z
M 1959 3584 
Q 2709 3584 3137 3096 
Q 3566 2609 3566 1747 
Q 3566 888 3137 398 
Q 2709 -91 1959 -91 
Q 1206 -91 779 398 
Q 353 888 353 1747 
Q 353 2609 779 3096 
Q 1206 3584 1959 3584 
z
" transform="scale(0.015625)"/>
      <path id="DejaVuSans-62" d="M 3116 1747 
Q 3116 2381 2855 2742 
Q 2594 3103 2138 3103 
Q 1681 3103 1420 2742 
Q 1159 2381 1159 1747 
Q 1159 1113 1420 752 
Q 1681 391 2138 391 
Q 2594 391 2855 752 
Q 3116 1113 3116 1747 
z
M 1159 2969 
Q 1341 3281 1617 3432 
Q 1894 3584 2278 3584 
Q 2916 3584 3314 3078 
Q 3713 2572 3713 1747 
Q 3713 922 3314 415 
Q 2916 -91 2278 -91 
Q 1894 -91 1617 61 
Q 1341 213 1159 525 
L 1159 0 
L 581 0 
L 581 4863 
L 1159 4863 
L 1159 2969 
z
" transform="scale(0.015625)"/>
      <path id="DejaVuSans-61" d="M 2194 1759 
Q 1497 1759 1228 1600 
Q 959 1441 959 1056 
Q 959 750 1161 570 
Q 1363 391 1709 391 
Q 2188 391 2477 730 
Q 2766 1069 2766 1631 
L 2766 1759 
L 2194 1759 
z
M 3341 1997 
L 3341 0 
L 2766 0 
L 2766 531 
Q 2569 213 2275 61 
Q 1981 -91 1556 -91 
Q 1019 -91 701 211 
Q 384 513 384 1019 
Q 384 1609 779 1909 
Q 1175 2209 1959 2209 
L 2766 2209 
L 2766 2266 
Q 2766 2663 2505 2880 
Q 2244 3097 1772 3097 
Q 1472 3097 1187 3025 
Q 903 2953 641 2809 
L 641 3341 
Q 956 3463 1253 3523 
Q 1550 3584 1831 3584 
Q 2591 3584 2966 3190 
Q 3341 2797 3341 1997 
z
" transform="scale(0.015625)"/>
      <path id="DejaVuSans-79" d="M 2059 -325 
Q 1816 -950 1584 -1140 
Q 1353 -1331 966 -1331 
L 506 -1331 
L 506 -850 
L 844 -850 
Q 1081 -850 1212 -737 
Q 1344 -625 1503 -206 
L 1606 56 
L 191 3500 
L 800 3500 
L 1894 763 
L 2988 3500 
L 3597 3500 
L 2059 -325 
z
" transform="scale(0.015625)"/>
     </defs>
     <use xlink:href="#DejaVuSans-53"/>
     <use xlink:href="#DejaVuSans-70" x="63.476562"/>
     <use xlink:href="#DejaVuSans-6c" x="126.953125"/>
     <use xlink:href="#DejaVuSans-69" x="154.736328"/>
     <use xlink:href="#DejaVuSans-74" x="182.519531"/>
     <use xlink:href="#DejaVuSans-74" x="221.728516"/>
     <use xlink:href="#DejaVuSans-69" x="260.9375"/>
     <use xlink:href="#DejaVuSans-6e" x="288.720703"/>
     <use xlink:href="#DejaVuSans-67" x="352.099609"/>
     <use xlink:href="#DejaVuSans-20" x="415.576172"/>
     <use xlink:href="#DejaVuSans-50" x="447.363281"/>
     <use xlink:href="#DejaVuSans-72" x="505.916016"/>
     <use xlink:href="#DejaVuSans-6f" x="544.779297"/>
     <use xlink:href="#DejaVuSans-62" x="605.960938"/>
     <use xlink:href="#DejaVuSans-61" x="669.4375"/>
     <use xlink:href="#DejaVuSans-62" x="730.716797"/>
     <use xlink:href="#DejaVuSans-69" x="794.193359"/>
     <use xlink:href="#DejaVuSans-6c" x="821.976562"/>
     <use xlink:href="#DejaVuSans-69" x="849.759766"/>
     <use xlink:href="#DejaVuSans-74" x="877.542969"/>
     <use xlink:href="#DejaVuSans-79" x="916.751953"/>
    </g>
   </g>
   <g id="legend_1">
    <g id="patch_7">
     <path d="M 311.429063 135.350625 
L 417.04 135.350625 
Q 419.04 135.350625 419.04 133.350625 
L 419.04 60.96 
Q 419.04 58.96 417.04 58.96 
L 311.429063 58.96 
Q 309.429063 58.96 309.429063 60.96 
L 309.429063 133.350625 
Q 309.429063 135.350625 311.429063 135.350625 
z
" style="fill: #ffffff; opacity: 0.8; stroke: #cccccc; stroke-linejoin: miter"/>
    </g>
    <g id="line2d_17">
     <path d="M 313.429063 67.058437 
L 323.429063 67.058437 
L 333.429063 67.058437 
" style="fill: none; stroke: #1f77b4; stroke-width: 1.5; stroke-linecap: square"/>
    </g>
    <g id="text_16">
     <!-- ks = 4 -->
     <g transform="translate(341.429063 70.558437) scale(0.1 -0.1)">
      <defs>
       <path id="DejaVuSans-6b" d="M 581 4863 
L 1159 4863 
L 1159 1991 
L 2875 3500 
L 3609 3500 
L 1753 1863 
L 3688 0 
L 2938 0 
L 1159 1709 
L 1159 0 
L 581 0 
L 581 4863 
z
" transform="scale(0.015625)"/>
       <path id="DejaVuSans-73" d="M 2834 3397 
L 2834 2853 
Q 2591 2978 2328 3040 
Q 2066 3103 1784 3103 
Q 1356 3103 1142 2972 
Q 928 2841 928 2578 
Q 928 2378 1081 2264 
Q 1234 2150 1697 2047 
L 1894 2003 
Q 2506 1872 2764 1633 
Q 3022 1394 3022 966 
Q 3022 478 2636 193 
Q 2250 -91 1575 -91 
Q 1294 -91 989 -36 
Q 684 19 347 128 
L 347 722 
Q 666 556 975 473 
Q 1284 391 1588 391 
Q 1994 391 2212 530 
Q 2431 669 2431 922 
Q 2431 1156 2273 1281 
Q 2116 1406 1581 1522 
L 1381 1569 
Q 847 1681 609 1914 
Q 372 2147 372 2553 
Q 372 3047 722 3315 
Q 1072 3584 1716 3584 
Q 2034 3584 2315 3537 
Q 2597 3491 2834 3397 
z
" transform="scale(0.015625)"/>
       <path id="DejaVuSans-3d" d="M 678 2906 
L 4684 2906 
L 4684 2381 
L 678 2381 
L 678 2906 
z
M 678 1631 
L 4684 1631 
L 4684 1100 
L 678 1100 
L 678 1631 
z
" transform="scale(0.015625)"/>
      </defs>
      <use xlink:href="#DejaVuSans-6b"/>
      <use xlink:href="#DejaVuSans-73" x="57.910156"/>
      <use xlink:href="#DejaVuSans-20" x="110.009766"/>
      <use xlink:href="#DejaVuSans-3d" x="141.796875"/>
      <use xlink:href="#DejaVuSans-20" x="225.585938"/>
      <use xlink:href="#DejaVuSans-34" x="257.373047"/>
     </g>
    </g>
    <g id="line2d_18">
     <path d="M 313.429063 81.736562 
L 323.429063 81.736562 
L 333.429063 81.736562 
" style="fill: none; stroke: #ff7f0e; stroke-width: 1.5; stroke-linecap: square"/>
    </g>
    <g id="text_17">
     <!-- ks = 6 -->
     <g transform="translate(341.429063 85.236562) scale(0.1 -0.1)">
      <use xlink:href="#DejaVuSans-6b"/>
      <use xlink:href="#DejaVuSans-73" x="57.910156"/>
      <use xlink:href="#DejaVuSans-20" x="110.009766"/>
      <use xlink:href="#DejaVuSans-3d" x="141.796875"/>
      <use xlink:href="#DejaVuSans-20" x="225.585938"/>
      <use xlink:href="#DejaVuSans-36" x="257.373047"/>
     </g>
    </g>
    <g id="line2d_19">
     <path d="M 313.429063 96.414687 
L 323.429063 96.414687 
L 333.429063 96.414687 
" style="fill: none; stroke: #2ca02c; stroke-width: 1.5; stroke-linecap: square"/>
    </g>
    <g id="text_18">
     <!-- ks = 8 -->
     <g transform="translate(341.429063 99.914687) scale(0.1 -0.1)">
      <use xlink:href="#DejaVuSans-6b"/>
      <use xlink:href="#DejaVuSans-73" x="57.910156"/>
      <use xlink:href="#DejaVuSans-20" x="110.009766"/>
      <use xlink:href="#DejaVuSans-3d" x="141.796875"/>
      <use xlink:href="#DejaVuSans-20" x="225.585938"/>
      <use xlink:href="#DejaVuSans-38" x="257.373047"/>
     </g>
    </g>
    <g id="line2d_20">
     <path d="M 313.429063 111.092812 
L 323.429063 111.092812 
L 333.429063 111.092812 
" style="fill: none; stroke: #d62728; stroke-width: 1.5; stroke-linecap: square"/>
    </g>
    <g id="text_19">
     <!-- ks = 10 -->
     <g transform="translate(341.429063 114.592812) scale(0.1 -0.1)">
      <use xlink:href="#DejaVuSans-6b"/>
      <use xlink:href="#DejaVuSans-73" x="57.910156"/>
      <use xlink:href="#DejaVuSans-20" x="110.009766"/>
      <use xlink:href="#DejaVuSans-3d" x="141.796875"/>
      <use xlink:href="#DejaVuSans-20" x="225.585938"/>
      <use xlink:href="#DejaVuSans-31" x="257.373047"/>
      <use xlink:href="#DejaVuSans-30" x="320.996094"/>
     </g>
    </g>
    <g id="PathCollection_2">
     <g>
      <use xlink:href="#m77ce478518" x="323.429063" y="126.645938" style="stroke: #000000"/>
     </g>
    </g>
    <g id="text_20">
     <!-- Simulation-Traj -->
     <g transform="translate(341.429063 129.270938) scale(0.1 -0.1)">
      <defs>
       <path id="DejaVuSans-6d" d="M 3328 2828 
Q 3544 3216 3844 3400 
Q 4144 3584 4550 3584 
Q 5097 3584 5394 3201 
Q 5691 2819 5691 2113 
L 5691 0 
L 5113 0 
L 5113 2094 
Q 5113 2597 4934 2840 
Q 4756 3084 4391 3084 
Q 3944 3084 3684 2787 
Q 3425 2491 3425 1978 
L 3425 0 
L 2847 0 
L 2847 2094 
Q 2847 2600 2669 2842 
Q 2491 3084 2119 3084 
Q 1678 3084 1418 2786 
Q 1159 2488 1159 1978 
L 1159 0 
L 581 0 
L 581 3500 
L 1159 3500 
L 1159 2956 
Q 1356 3278 1631 3431 
Q 1906 3584 2284 3584 
Q 2666 3584 2933 3390 
Q 3200 3197 3328 2828 
z
" transform="scale(0.015625)"/>
       <path id="DejaVuSans-75" d="M 544 1381 
L 544 3500 
L 1119 3500 
L 1119 1403 
Q 1119 906 1312 657 
Q 1506 409 1894 409 
Q 2359 409 2629 706 
Q 2900 1003 2900 1516 
L 2900 3500 
L 3475 3500 
L 3475 0 
L 2900 0 
L 2900 538 
Q 2691 219 2414 64 
Q 2138 -91 1772 -91 
Q 1169 -91 856 284 
Q 544 659 544 1381 
z
M 1991 3584 
L 1991 3584 
z
" transform="scale(0.015625)"/>
       <path id="DejaVuSans-2d" d="M 313 2009 
L 1997 2009 
L 1997 1497 
L 313 1497 
L 313 2009 
z
" transform="scale(0.015625)"/>
       <path id="DejaVuSans-54" d="M -19 4666 
L 3928 4666 
L 3928 4134 
L 2272 4134 
L 2272 0 
L 1638 0 
L 1638 4134 
L -19 4134 
L -19 4666 
z
" transform="scale(0.015625)"/>
       <path id="DejaVuSans-6a" d="M 603 3500 
L 1178 3500 
L 1178 -63 
Q 1178 -731 923 -1031 
Q 669 -1331 103 -1331 
L -116 -1331 
L -116 -844 
L 38 -844 
Q 366 -844 484 -692 
Q 603 -541 603 -63 
L 603 3500 
z
M 603 4863 
L 1178 4863 
L 1178 4134 
L 603 4134 
L 603 4863 
z
" transform="scale(0.015625)"/>
      </defs>
      <use xlink:href="#DejaVuSans-53"/>
      <use xlink:href="#DejaVuSans-69" x="63.476562"/>
      <use xlink:href="#DejaVuSans-6d" x="91.259766"/>
      <use xlink:href="#DejaVuSans-75" x="188.671875"/>
      <use xlink:href="#DejaVuSans-6c" x="252.050781"/>
      <use xlink:href="#DejaVuSans-61" x="279.833984"/>
      <use xlink:href="#DejaVuSans-74" x="341.113281"/>
      <use xlink:href="#DejaVuSans-69" x="380.322266"/>
      <use xlink:href="#DejaVuSans-6f" x="408.105469"/>
      <use xlink:href="#DejaVuSans-6e" x="469.287109"/>
      <use xlink:href="#DejaVuSans-2d" x="532.666016"/>
      <use xlink:href="#DejaVuSans-54" x="559.625"/>
      <use xlink:href="#DejaVuSans-72" x="605.958984"/>
      <use xlink:href="#DejaVuSans-61" x="647.072266"/>
      <use xlink:href="#DejaVuSans-6a" x="708.351562"/>
     </g>
    </g>
   </g>
  </g>
  <g id="axes_2">
   <g id="patch_8">
    <path d="M 504.8 416.76 
L 856 416.76 
L 856 53.96 
L 504.8 53.96 
z
" style="fill: #ffffff"/>
   </g>
   <g id="PathCollection_3">
    <g clip-path="url(#pf722349a5c)">
     <use xlink:href="#m77ce478518" x="520.763636" y="380.615919" style="stroke: #000000"/>
     <use xlink:href="#m77ce478518" x="549.78843" y="400.269091" style="stroke: #000000"/>
     <use xlink:href="#m77ce478518" x="578.813223" y="338.653111" style="stroke: #000000"/>
     <use xlink:href="#m77ce478518" x="607.838017" y="210.106853" style="stroke: #000000"/>
     <use xlink:href="#m77ce478518" x="636.86281" y="112.129468" style="stroke: #000000"/>
     <use xlink:href="#m77ce478518" x="665.887603" y="70.450909" style="stroke: #000000"/>
     <use xlink:href="#m77ce478518" x="694.912397" y="72.578978" style="stroke: #000000"/>
     <use xlink:href="#m77ce478518" x="723.93719" y="112.091413" style="stroke: #000000"/>
     <use xlink:href="#m77ce478518" x="752.961983" y="224.296123" style="stroke: #000000"/>
     <use xlink:href="#m77ce478518" x="781.986777" y="256.669575" style="stroke: #000000"/>
     <use xlink:href="#m77ce478518" x="811.01157" y="274.593717" style="stroke: #000000"/>
     <use xlink:href="#m77ce478518" x="840.036364" y="254.686724" style="stroke: #000000"/>
    </g>
   </g>
   <g id="matplotlib.axis_3">
    <g id="xtick_7">
     <g id="line2d_21">
      <g>
       <use xlink:href="#ma04ec7d529" x="508.864362" y="416.76" style="stroke: #000000; stroke-width: 0.8"/>
      </g>
     </g>
     <g id="text_21">
      <!-- 14 -->
      <g transform="translate(502.501862 431.358437) scale(0.1 -0.1)">
       <use xlink:href="#DejaVuSans-31"/>
       <use xlink:href="#DejaVuSans-34" x="63.623047"/>
      </g>
     </g>
    </g>
    <g id="xtick_8">
     <g id="line2d_22">
      <g>
       <use xlink:href="#ma04ec7d529" x="567.664346" y="416.76" style="stroke: #000000; stroke-width: 0.8"/>
      </g>
     </g>
     <g id="text_22">
      <!-- 16 -->
      <g transform="translate(561.301846 431.358437) scale(0.1 -0.1)">
       <use xlink:href="#DejaVuSans-31"/>
       <use xlink:href="#DejaVuSans-36" x="63.623047"/>
      </g>
     </g>
    </g>
    <g id="xtick_9">
     <g id="line2d_23">
      <g>
       <use xlink:href="#ma04ec7d529" x="626.46433" y="416.76" style="stroke: #000000; stroke-width: 0.8"/>
      </g>
     </g>
     <g id="text_23">
      <!-- 18 -->
      <g transform="translate(620.10183 431.358437) scale(0.1 -0.1)">
       <use xlink:href="#DejaVuSans-31"/>
       <use xlink:href="#DejaVuSans-38" x="63.623047"/>
      </g>
     </g>
    </g>
    <g id="xtick_10">
     <g id="line2d_24">
      <g>
       <use xlink:href="#ma04ec7d529" x="685.264315" y="416.76" style="stroke: #000000; stroke-width: 0.8"/>
      </g>
     </g>
     <g id="text_24">
      <!-- 20 -->
      <g transform="translate(678.901815 431.358437) scale(0.1 -0.1)">
       <use xlink:href="#DejaVuSans-32"/>
       <use xlink:href="#DejaVuSans-30" x="63.623047"/>
      </g>
     </g>
    </g>
    <g id="xtick_11">
     <g id="line2d_25">
      <g>
       <use xlink:href="#ma04ec7d529" x="744.064299" y="416.76" style="stroke: #000000; stroke-width: 0.8"/>
      </g>
     </g>
     <g id="text_25">
      <!-- 22 -->
      <g transform="translate(737.701799 431.358437) scale(0.1 -0.1)">
       <use xlink:href="#DejaVuSans-32"/>
       <use xlink:href="#DejaVuSans-32" x="63.623047"/>
      </g>
     </g>
    </g>
    <g id="xtick_12">
     <g id="line2d_26">
      <g>
       <use xlink:href="#ma04ec7d529" x="802.864283" y="416.76" style="stroke: #000000; stroke-width: 0.8"/>
      </g>
     </g>
     <g id="text_26">
      <!-- 24 -->
      <g transform="translate(796.501783 431.358437) scale(0.1 -0.1)">
       <use xlink:href="#DejaVuSans-32"/>
       <use xlink:href="#DejaVuSans-34" x="63.623047"/>
      </g>
     </g>
    </g>
    <g id="text_27">
     <!-- x (A) -->
     <g transform="translate(668.529687 445.036563) scale(0.1 -0.1)">
      <use xlink:href="#DejaVuSans-78"/>
      <use xlink:href="#DejaVuSans-20" x="59.179688"/>
      <use xlink:href="#DejaVuSans-28" x="90.966797"/>
      <use xlink:href="#DejaVuSans-41" x="129.980469"/>
      <use xlink:href="#DejaVuSans-29" x="198.388672"/>
     </g>
    </g>
   </g>
   <g id="matplotlib.axis_4">
    <g id="ytick_7">
     <g id="line2d_27">
      <g>
       <use xlink:href="#m649e70db76" x="504.8" y="400.269091" style="stroke: #000000; stroke-width: 0.8"/>
      </g>
     </g>
     <g id="text_28">
      <!-- 0.0 -->
      <g transform="translate(481.896875 404.06831) scale(0.1 -0.1)">
       <use xlink:href="#DejaVuSans-30"/>
       <use xlink:href="#DejaVuSans-2e" x="63.623047"/>
       <use xlink:href="#DejaVuSans-30" x="95.410156"/>
      </g>
     </g>
    </g>
    <g id="ytick_8">
     <g id="line2d_28">
      <g>
       <use xlink:href="#m649e70db76" x="504.8" y="343.215197" style="stroke: #000000; stroke-width: 0.8"/>
      </g>
     </g>
     <g id="text_29">
      <!-- 0.5 -->
      <g transform="translate(481.896875 347.014416) scale(0.1 -0.1)">
       <defs>
        <path id="DejaVuSans-35" d="M 691 4666 
L 3169 4666 
L 3169 4134 
L 1269 4134 
L 1269 2991 
Q 1406 3038 1543 3061 
Q 1681 3084 1819 3084 
Q 2600 3084 3056 2656 
Q 3513 2228 3513 1497 
Q 3513 744 3044 326 
Q 2575 -91 1722 -91 
Q 1428 -91 1123 -41 
Q 819 9 494 109 
L 494 744 
Q 775 591 1075 516 
Q 1375 441 1709 441 
Q 2250 441 2565 725 
Q 2881 1009 2881 1497 
Q 2881 1984 2565 2268 
Q 2250 2553 1709 2553 
Q 1456 2553 1204 2497 
Q 953 2441 691 2322 
L 691 4666 
z
" transform="scale(0.015625)"/>
       </defs>
       <use xlink:href="#DejaVuSans-30"/>
       <use xlink:href="#DejaVuSans-2e" x="63.623047"/>
       <use xlink:href="#DejaVuSans-35" x="95.410156"/>
      </g>
     </g>
    </g>
    <g id="ytick_9">
     <g id="line2d_29">
      <g>
       <use xlink:href="#m649e70db76" x="504.8" y="286.161303" style="stroke: #000000; stroke-width: 0.8"/>
      </g>
     </g>
     <g id="text_30">
      <!-- 1.0 -->
      <g transform="translate(481.896875 289.960522) scale(0.1 -0.1)">
       <use xlink:href="#DejaVuSans-31"/>
       <use xlink:href="#DejaVuSans-2e" x="63.623047"/>
       <use xlink:href="#DejaVuSans-30" x="95.410156"/>
      </g>
     </g>
    </g>
    <g id="ytick_10">
     <g id="line2d_30">
      <g>
       <use xlink:href="#m649e70db76" x="504.8" y="229.107409" style="stroke: #000000; stroke-width: 0.8"/>
      </g>
     </g>
     <g id="text_31">
      <!-- 1.5 -->
      <g transform="translate(481.896875 232.906628) scale(0.1 -0.1)">
       <use xlink:href="#DejaVuSans-31"/>
       <use xlink:href="#DejaVuSans-2e" x="63.623047"/>
       <use xlink:href="#DejaVuSans-35" x="95.410156"/>
      </g>
     </g>
    </g>
    <g id="ytick_11">
     <g id="line2d_31">
      <g>
       <use xlink:href="#m649e70db76" x="504.8" y="172.053515" style="stroke: #000000; stroke-width: 0.8"/>
      </g>
     </g>
     <g id="text_32">
      <!-- 2.0 -->
      <g transform="translate(481.896875 175.852734) scale(0.1 -0.1)">
       <use xlink:href="#DejaVuSans-32"/>
       <use xlink:href="#DejaVuSans-2e" x="63.623047"/>
       <use xlink:href="#DejaVuSans-30" x="95.410156"/>
      </g>
     </g>
    </g>
    <g id="ytick_12">
     <g id="line2d_32">
      <g>
       <use xlink:href="#m649e70db76" x="504.8" y="114.999621" style="stroke: #000000; stroke-width: 0.8"/>
      </g>
     </g>
     <g id="text_33">
      <!-- 2.5 -->
      <g transform="translate(481.896875 118.79884) scale(0.1 -0.1)">
       <use xlink:href="#DejaVuSans-32"/>
       <use xlink:href="#DejaVuSans-2e" x="63.623047"/>
       <use xlink:href="#DejaVuSans-35" x="95.410156"/>
      </g>
     </g>
    </g>
    <g id="ytick_13">
     <g id="line2d_33">
      <g>
       <use xlink:href="#m649e70db76" x="504.8" y="57.945727" style="stroke: #000000; stroke-width: 0.8"/>
      </g>
     </g>
     <g id="text_34">
      <!-- 3.0 -->
      <g transform="translate(481.896875 61.744946) scale(0.1 -0.1)">
       <defs>
        <path id="DejaVuSans-33" d="M 2597 2516 
Q 3050 2419 3304 2112 
Q 3559 1806 3559 1356 
Q 3559 666 3084 287 
Q 2609 -91 1734 -91 
Q 1441 -91 1130 -33 
Q 819 25 488 141 
L 488 750 
Q 750 597 1062 519 
Q 1375 441 1716 441 
Q 2309 441 2620 675 
Q 2931 909 2931 1356 
Q 2931 1769 2642 2001 
Q 2353 2234 1838 2234 
L 1294 2234 
L 1294 2753 
L 1863 2753 
Q 2328 2753 2575 2939 
Q 2822 3125 2822 3475 
Q 2822 3834 2567 4026 
Q 2313 4219 1838 4219 
Q 1578 4219 1281 4162 
Q 984 4106 628 3988 
L 628 4550 
Q 988 4650 1302 4700 
Q 1616 4750 1894 4750 
Q 2613 4750 3031 4423 
Q 3450 4097 3450 3541 
Q 3450 3153 3228 2886 
Q 3006 2619 2597 2516 
z
" transform="scale(0.015625)"/>
       </defs>
       <use xlink:href="#DejaVuSans-33"/>
       <use xlink:href="#DejaVuSans-2e" x="63.623047"/>
       <use xlink:href="#DejaVuSans-30" x="95.410156"/>
      </g>
     </g>
    </g>
    <g id="text_35">
     <!-- PMF-Recons (kcal/mol) -->
     <g transform="translate(475.817187 291.867812) rotate(-90) scale(0.1 -0.1)">
      <defs>
       <path id="DejaVuSans-4d" d="M 628 4666 
L 1569 4666 
L 2759 1491 
L 3956 4666 
L 4897 4666 
L 4897 0 
L 4281 0 
L 4281 4097 
L 3078 897 
L 2444 897 
L 1241 4097 
L 1241 0 
L 628 0 
L 628 4666 
z
" transform="scale(0.015625)"/>
       <path id="DejaVuSans-46" d="M 628 4666 
L 3309 4666 
L 3309 4134 
L 1259 4134 
L 1259 2759 
L 3109 2759 
L 3109 2228 
L 1259 2228 
L 1259 0 
L 628 0 
L 628 4666 
z
" transform="scale(0.015625)"/>
       <path id="DejaVuSans-52" d="M 2841 2188 
Q 3044 2119 3236 1894 
Q 3428 1669 3622 1275 
L 4263 0 
L 3584 0 
L 2988 1197 
Q 2756 1666 2539 1819 
Q 2322 1972 1947 1972 
L 1259 1972 
L 1259 0 
L 628 0 
L 628 4666 
L 2053 4666 
Q 2853 4666 3247 4331 
Q 3641 3997 3641 3322 
Q 3641 2881 3436 2590 
Q 3231 2300 2841 2188 
z
M 1259 4147 
L 1259 2491 
L 2053 2491 
Q 2509 2491 2742 2702 
Q 2975 2913 2975 3322 
Q 2975 3731 2742 3939 
Q 2509 4147 2053 4147 
L 1259 4147 
z
" transform="scale(0.015625)"/>
       <path id="DejaVuSans-65" d="M 3597 1894 
L 3597 1613 
L 953 1613 
Q 991 1019 1311 708 
Q 1631 397 2203 397 
Q 2534 397 2845 478 
Q 3156 559 3463 722 
L 3463 178 
Q 3153 47 2828 -22 
Q 2503 -91 2169 -91 
Q 1331 -91 842 396 
Q 353 884 353 1716 
Q 353 2575 817 3079 
Q 1281 3584 2069 3584 
Q 2775 3584 3186 3129 
Q 3597 2675 3597 1894 
z
M 3022 2063 
Q 3016 2534 2758 2815 
Q 2500 3097 2075 3097 
Q 1594 3097 1305 2825 
Q 1016 2553 972 2059 
L 3022 2063 
z
" transform="scale(0.015625)"/>
       <path id="DejaVuSans-63" d="M 3122 3366 
L 3122 2828 
Q 2878 2963 2633 3030 
Q 2388 3097 2138 3097 
Q 1578 3097 1268 2742 
Q 959 2388 959 1747 
Q 959 1106 1268 751 
Q 1578 397 2138 397 
Q 2388 397 2633 464 
Q 2878 531 3122 666 
L 3122 134 
Q 2881 22 2623 -34 
Q 2366 -91 2075 -91 
Q 1284 -91 818 406 
Q 353 903 353 1747 
Q 353 2603 823 3093 
Q 1294 3584 2113 3584 
Q 2378 3584 2631 3529 
Q 2884 3475 3122 3366 
z
" transform="scale(0.015625)"/>
       <path id="DejaVuSans-2f" d="M 1625 4666 
L 2156 4666 
L 531 -594 
L 0 -594 
L 1625 4666 
z
" transform="scale(0.015625)"/>
      </defs>
      <use xlink:href="#DejaVuSans-50"/>
      <use xlink:href="#DejaVuSans-4d" x="60.302734"/>
      <use xlink:href="#DejaVuSans-46" x="146.582031"/>
      <use xlink:href="#DejaVuSans-2d" x="204.101562"/>
      <use xlink:href="#DejaVuSans-52" x="240.185547"/>
      <use xlink:href="#DejaVuSans-65" x="305.167969"/>
      <use xlink:href="#DejaVuSans-63" x="366.691406"/>
      <use xlink:href="#DejaVuSans-6f" x="421.671875"/>
      <use xlink:href="#DejaVuSans-6e" x="482.853516"/>
      <use xlink:href="#DejaVuSans-73" x="546.232422"/>
      <use xlink:href="#DejaVuSans-20" x="598.332031"/>
      <use xlink:href="#DejaVuSans-28" x="630.119141"/>
      <use xlink:href="#DejaVuSans-6b" x="669.132812"/>
      <use xlink:href="#DejaVuSans-63" x="727.042969"/>
      <use xlink:href="#DejaVuSans-61" x="782.023438"/>
      <use xlink:href="#DejaVuSans-6c" x="843.302734"/>
      <use xlink:href="#DejaVuSans-2f" x="871.085938"/>
      <use xlink:href="#DejaVuSans-6d" x="904.777344"/>
      <use xlink:href="#DejaVuSans-6f" x="1002.189453"/>
      <use xlink:href="#DejaVuSans-6c" x="1063.371094"/>
      <use xlink:href="#DejaVuSans-29" x="1091.154297"/>
     </g>
    </g>
   </g>
   <g id="line2d_34">
    <path d="M 531.81996 400.269091 
L 533.483824 400.103183 
L 535.147689 399.64641 
L 536.811553 398.943471 
L 538.475418 398.002446 
L 540.139282 396.831833 
L 541.803147 395.440509 
L 543.467012 393.837706 
L 545.130876 392.032965 
L 546.794741 390.036094 
L 550.12247 385.50626 
L 553.450199 380.330195 
L 556.777928 374.590961 
L 560.105657 368.371046 
L 563.433386 361.750832 
L 568.42498 351.237153 
L 575.080438 336.497342 
L 595.046813 291.552211 
L 601.702271 277.407149 
L 606.693864 267.304235 
L 611.685458 257.704923 
L 616.677052 248.659008 
L 621.668645 240.206516 
L 624.996375 234.917341 
L 628.324104 229.914206 
L 631.651833 225.203912 
L 634.979562 220.792315 
L 638.307291 216.684452 
L 641.63502 212.884648 
L 644.962749 209.396601 
L 648.290478 206.223465 
L 651.618207 203.367911 
L 654.945936 200.832181 
L 658.273666 198.618136 
L 661.601395 196.727291 
L 664.929124 195.160846 
L 668.256853 193.919709 
L 671.584582 193.004513 
L 674.912311 192.415632 
L 678.24004 192.153182 
L 681.567769 192.217025 
L 684.895498 192.606768 
L 688.223227 193.321753 
L 691.550957 194.36104 
L 694.878686 195.723393 
L 698.206415 197.407247 
L 701.534144 199.410675 
L 704.861873 201.731349 
L 708.189602 204.366483 
L 711.517331 207.312771 
L 714.84506 210.566306 
L 718.172789 214.122489 
L 721.500519 217.975915 
L 724.828248 222.120234 
L 728.155977 226.547989 
L 731.483706 231.25042 
L 736.475299 238.796066 
L 741.466893 246.893342 
L 746.458487 255.487504 
L 751.45008 264.5084 
L 758.105539 277.041079 
L 774.744184 308.829207 
L 779.735778 317.645093 
L 783.063507 323.074285 
L 786.391236 328.021551 
L 789.718965 332.371704 
L 791.38283 334.28533 
L 793.046694 336.004325 
L 794.710559 337.513508 
L 796.374423 338.797965 
L 798.038288 339.843239 
L 799.702152 340.635531 
L 801.366017 341.161899 
L 803.029882 341.357123 
L 803.029882 341.357123 
" clip-path="url(#pf722349a5c)" style="fill: none; stroke: #1f77b4; stroke-width: 1.5; stroke-linecap: square"/>
   </g>
   <g id="line2d_35">
    <path d="M 535.147689 400.269091 
L 536.811553 400.062012 
L 538.475418 399.494909 
L 540.139282 398.626437 
L 541.803147 397.466518 
L 543.467012 396.025581 
L 545.130876 394.314527 
L 546.794741 392.344681 
L 548.458605 390.127752 
L 550.12247 387.675774 
L 553.450199 382.116087 
L 556.777928 375.766157 
L 560.105657 368.727794 
L 563.433386 361.102064 
L 566.761115 352.987418 
L 571.752709 340.103439 
L 578.408167 322.045286 
L 598.374542 267.003875 
L 605.03 249.686233 
L 610.021594 237.318533 
L 615.013187 225.568232 
L 620.004781 214.496168 
L 624.996375 204.151242 
L 628.324104 197.67831 
L 631.651833 191.55579 
L 634.979562 185.79199 
L 638.307291 180.394067 
L 641.63502 175.368175 
L 644.962749 170.719594 
L 648.290478 166.452845 
L 651.618207 162.571779 
L 654.945936 159.079658 
L 658.273666 155.979223 
L 661.601395 153.272744 
L 664.929124 150.962071 
L 668.256853 149.048669 
L 671.584582 147.533644 
L 674.912311 146.41777 
L 678.24004 145.701496 
L 681.567769 145.384963 
L 684.895498 145.467998 
L 688.223227 145.950117 
L 691.550957 146.830508 
L 694.878686 148.108019 
L 698.206415 149.78113 
L 701.534144 151.84792 
L 704.861873 154.306026 
L 708.189602 157.152591 
L 711.517331 160.384199 
L 714.84506 163.996793 
L 718.172789 167.985582 
L 721.500519 172.344926 
L 724.828248 177.068196 
L 728.155977 182.147604 
L 731.483706 187.574006 
L 734.811435 193.336659 
L 738.139164 199.422932 
L 743.130758 209.125907 
L 748.122351 219.461136 
L 753.113945 230.349419 
L 759.769403 245.547939 
L 779.735778 292.053202 
L 783.063507 299.157815 
L 786.391236 305.801996 
L 789.718965 311.854452 
L 793.046694 317.173929 
L 794.710559 319.51278 
L 796.374423 321.612783 
L 798.038288 323.455329 
L 799.702152 325.022145 
L 801.366017 326.295518 
L 803.029882 327.258548 
L 804.693746 327.895392 
L 806.357611 328.13047 
L 806.357611 328.13047 
" clip-path="url(#pf722349a5c)" style="fill: none; stroke: #ff7f0e; stroke-width: 1.5; stroke-linecap: square"/>
   </g>
   <g id="line2d_36">
    <path d="M 536.811553 400.269091 
L 538.475418 400.061935 
L 540.139282 399.469898 
L 541.803147 398.527786 
L 543.467012 397.246959 
L 545.130876 395.639373 
L 546.794741 393.717531 
L 548.458605 391.494444 
L 550.12247 388.983567 
L 551.786334 386.198746 
L 553.450199 383.15415 
L 556.777928 376.343489 
L 560.105657 368.668649 
L 563.433386 360.247181 
L 566.761115 351.194843 
L 570.088844 341.623558 
L 575.080438 326.52457 
L 581.735896 305.510596 
L 598.374542 252.389893 
L 605.03 232.11477 
L 610.021594 217.577695 
L 615.013187 203.721596 
L 620.004781 190.622924 
L 624.996375 178.343178 
L 628.324104 170.636452 
L 631.651833 163.327975 
L 634.979562 156.428214 
L 638.307291 149.946186 
L 641.63502 143.889654 
L 644.962749 138.265291 
L 648.290478 133.078815 
L 651.618207 128.335114 
L 654.945936 124.038343 
L 658.273666 120.19201 
L 661.601395 116.799049 
L 664.929124 113.861874 
L 668.256853 111.382433 
L 671.584582 109.362244 
L 674.912311 107.802421 
L 678.24004 106.703704 
L 679.903905 106.32739 
L 681.567769 106.066463 
L 683.231634 105.920914 
L 684.895498 105.890711 
L 686.559363 105.9758 
L 688.223227 106.176104 
L 689.887092 106.491521 
L 691.550957 106.921927 
L 694.878686 108.127086 
L 698.206415 109.79008 
L 701.534144 111.90897 
L 704.861873 114.481335 
L 708.189602 117.504223 
L 711.517331 120.974079 
L 714.84506 124.886669 
L 718.172789 129.236978 
L 721.500519 134.019091 
L 724.828248 139.226051 
L 728.155977 144.849681 
L 731.483706 150.880382 
L 734.811435 157.306879 
L 738.139164 164.11592 
L 741.466893 171.291924 
L 746.458487 182.702976 
L 751.45008 194.821295 
L 756.441674 207.549043 
L 763.097132 225.245617 
L 779.735778 270.232353 
L 784.727371 282.751102 
L 788.055101 290.477465 
L 791.38283 297.534723 
L 794.710559 303.760581 
L 796.374423 306.508724 
L 798.038288 308.984889 
L 799.702152 311.167533 
L 801.366017 313.035447 
L 803.029882 314.56802 
L 804.693746 315.74553 
L 806.357611 316.549423 
L 808.021475 316.962601 
L 809.68534 317.069394 
L 809.68534 317.069394 
" clip-path="url(#pf722349a5c)" style="fill: none; stroke: #2ca02c; stroke-width: 1.5; stroke-linecap: square"/>
   </g>
   <g id="line2d_37">
    <path d="M 538.475418 400.269091 
L 540.139282 399.997823 
L 541.803147 399.257901 
L 543.467012 398.128914 
L 545.130876 396.623708 
L 546.794741 394.755786 
L 548.458605 392.539257 
L 550.12247 389.98878 
L 551.786334 387.119505 
L 553.450199 383.946999 
L 555.114063 380.487176 
L 558.441793 372.77048 
L 561.769522 364.100548 
L 565.097251 354.608787 
L 568.42498 344.424342 
L 573.416573 328.119854 
L 578.408167 310.928309 
L 586.72749 281.239072 
L 598.374542 239.64912 
L 605.03 216.784342 
L 610.021594 200.345436 
L 615.013187 184.64177 
L 620.004781 169.763865 
L 624.996375 155.784588 
L 628.324104 146.993716 
L 631.651833 138.642874 
L 634.979562 130.744473 
L 638.307291 123.309213 
L 641.63502 116.34631 
L 644.962749 109.863689 
L 648.290478 103.868153 
L 651.618207 98.365521 
L 654.945936 93.360754 
L 658.273666 88.858052 
L 661.601395 84.860942 
L 664.929124 81.37235 
L 668.256853 78.394656 
L 671.584582 75.929745 
L 674.912311 73.97904 
L 676.576176 73.196841 
L 678.24004 72.543533 
L 679.903905 72.019175 
L 681.567769 71.623802 
L 683.231634 71.357423 
L 684.895498 71.220023 
L 686.559363 71.21156 
L 688.223227 71.33197 
L 689.887092 71.581161 
L 691.550957 71.959015 
L 693.214821 72.465387 
L 694.878686 73.100106 
L 696.54255 73.862971 
L 698.206415 74.753753 
L 701.534144 76.91799 
L 704.861873 79.590335 
L 708.189602 82.767735 
L 711.517331 86.446498 
L 714.84506 90.622209 
L 718.172789 95.289628 
L 721.500519 100.442568 
L 724.828248 106.073743 
L 728.155977 112.174588 
L 731.483706 118.735047 
L 734.811435 125.743307 
L 738.139164 133.185494 
L 741.466893 141.045293 
L 746.458487 153.575104 
L 751.45008 166.920688 
L 756.441674 180.979748 
L 763.097132 200.603156 
L 783.063507 260.63811 
L 786.391236 269.807309 
L 789.718965 278.381036 
L 793.046694 286.189568 
L 796.374423 293.050287 
L 798.038288 296.065718 
L 799.702152 298.772304 
L 801.366017 301.145992 
L 803.029882 303.163156 
L 804.693746 304.800901 
L 806.357611 306.037388 
L 808.021475 306.852146 
L 809.68534 307.1518 
L 809.68534 307.1518 
" clip-path="url(#pf722349a5c)" style="fill: none; stroke: #d62728; stroke-width: 1.5; stroke-linecap: square"/>
   </g>
   <g id="patch_9">
    <path d="M 504.8 416.76 
L 504.8 53.96 
" style="fill: none; stroke: #000000; stroke-width: 0.8; stroke-linejoin: miter; stroke-linecap: square"/>
   </g>
   <g id="patch_10">
    <path d="M 856 416.76 
L 856 53.96 
" style="fill: none; stroke: #000000; stroke-width: 0.8; stroke-linejoin: miter; stroke-linecap: square"/>
   </g>
   <g id="patch_11">
    <path d="M 504.8 416.76 
L 856 416.76 
" style="fill: none; stroke: #000000; stroke-width: 0.8; stroke-linejoin: miter; stroke-linecap: square"/>
   </g>
   <g id="patch_12">
    <path d="M 504.8 53.96 
L 856 53.96 
" style="fill: none; stroke: #000000; stroke-width: 0.8; stroke-linejoin: miter; stroke-linecap: square"/>
   </g>
   <g id="text_36">
    <!-- PMF-RE -->
    <g transform="translate(658.029375 47.96) scale(0.12 -0.12)">
     <defs>
      <path id="DejaVuSans-45" d="M 628 4666 
L 3578 4666 
L 3578 4134 
L 1259 4134 
L 1259 2753 
L 3481 2753 
L 3481 2222 
L 1259 2222 
L 1259 531 
L 3634 531 
L 3634 0 
L 628 0 
L 628 4666 
z
" transform="scale(0.015625)"/>
     </defs>
     <use xlink:href="#DejaVuSans-50"/>
     <use xlink:href="#DejaVuSans-4d" x="60.302734"/>
     <use xlink:href="#DejaVuSans-46" x="146.582031"/>
     <use xlink:href="#DejaVuSans-2d" x="204.101562"/>
     <use xlink:href="#DejaVuSans-52" x="240.185547"/>
     <use xlink:href="#DejaVuSans-45" x="309.667969"/>
    </g>
   </g>
  </g>
 </g>
 <defs>
  <clipPath id="p1e9ecbd353">
   <rect x="72.84" y="53.96" width="351.2" height="362.8"/>
  </clipPath>
  <clipPath id="pf722349a5c">
   <rect x="504.8" y="53.96" width="351.2" height="362.8"/>
  </clipPath>
 </defs>
</svg>
