<?xml version="1.0" encoding="utf-8" standalone="no"?>
<!DOCTYPE svg PUBLIC "-//W3C//DTD SVG 1.1//EN"
  "http://www.w3.org/Graphics/SVG/1.1/DTD/svg11.dtd">
<svg xmlns:xlink="http://www.w3.org/1999/xlink" width="913.92pt" height="483.84pt" viewBox="0 0 913.92 483.84" xmlns="http://www.w3.org/2000/svg" version="1.1">
 <metadata>
  <rdf:RDF xmlns:dc="http://purl.org/dc/elements/1.1/" xmlns:cc="http://creativecommons.org/ns#" xmlns:rdf="http://www.w3.org/1999/02/22-rdf-syntax-ns#">
   <cc:Work>
    <dc:type rdf:resource="http://purl.org/dc/dcmitype/StillImage"/>
    <dc:date>2024-09-17T12:59:19.273261</dc:date>
    <dc:format>image/svg+xml</dc:format>
    <dc:creator>
     <cc:Agent>
      <dc:title>Matplotlib v3.9.0, https://matplotlib.org/</dc:title>
     </cc:Agent>
    </dc:creator>
   </cc:Work>
  </rdf:RDF>
 </metadata>
 <defs>
  <style type="text/css">*{stroke-linejoin: round; stroke-linecap: butt}</style>
 </defs>
 <g id="figure_1">
  <g id="patch_1">
   <path d="M 0 483.84 
L 913.92 483.84 
L 913.92 0 
L 0 0 
z
" style="fill: #ffffff"/>
  </g>
  <g id="axes_1">
   <g id="patch_2">
    <path d="M 72.84 416.76 
L 424.04 416.76 
L 424.04 53.96 
L 72.84 53.96 
z
" style="fill: #ffffff"/>
   </g>
   <g id="PathCollection_1">
    <defs>
     <path id="m2a83dd8fc6" d="M 0 3 
C 0.795609 3 1.55874 2.683901 2.12132 2.12132 
C 2.683901 1.55874 3 0.795609 3 0 
C 3 -0.795609 2.683901 -1.55874 2.12132 -2.12132 
C 1.55874 -2.683901 0.795609 -3 0 -3 
C -0.795609 -3 -1.55874 -2.683901 -2.12132 -2.12132 
C -2.683901 -1.55874 -3 -0.795609 -3 0 
C -3 0.795609 -2.683901 1.55874 -2.12132 2.12132 
C -1.55874 2.683901 -0.795609 3 0 3 
z
" style="stroke: #000000"/>
    </defs>
    <g clip-path="url(#p7638c8277a)">
     <use xlink:href="#m2a83dd8fc6" x="88.803636" y="70.450909" style="stroke: #000000"/>
     <use xlink:href="#m2a83dd8fc6" x="111.608831" y="73.768039" style="stroke: #000000"/>
     <use xlink:href="#m2a83dd8fc6" x="157.219221" y="86.628689" style="stroke: #000000"/>
     <use xlink:href="#m2a83dd8fc6" x="180.024416" y="92.158684" style="stroke: #000000"/>
     <use xlink:href="#m2a83dd8fc6" x="202.82961" y="143.174796" style="stroke: #000000"/>
     <use xlink:href="#m2a83dd8fc6" x="225.634805" y="229.722088" style="stroke: #000000"/>
     <use xlink:href="#m2a83dd8fc6" x="248.44" y="278.990658" style="stroke: #000000"/>
     <use xlink:href="#m2a83dd8fc6" x="271.245195" y="337.446577" style="stroke: #000000"/>
     <use xlink:href="#m2a83dd8fc6" x="294.05039" y="361.918139" style="stroke: #000000"/>
     <use xlink:href="#m2a83dd8fc6" x="316.855584" y="373.31004" style="stroke: #000000"/>
     <use xlink:href="#m2a83dd8fc6" x="385.271169" y="388.260106" style="stroke: #000000"/>
     <use xlink:href="#m2a83dd8fc6" x="408.076364" y="393.087979" style="stroke: #000000"/>
    </g>
   </g>
   <g id="matplotlib.axis_1">
    <g id="xtick_1">
     <g id="line2d_1">
      <defs>
       <path id="m70328033c6" d="M 0 0 
L 0 3.5 
" style="stroke: #000000; stroke-width: 0.8"/>
      </defs>
      <g>
       <use xlink:href="#m70328033c6" x="82.991795" y="416.76" style="stroke: #000000; stroke-width: 0.8"/>
      </g>
     </g>
     <g id="text_1">
      <!-- 26 -->
      <g transform="translate(76.629295 431.358437) scale(0.1 -0.1)">
       <defs>
        <path id="DejaVuSans-32" d="M 1228 531 
L 3431 531 
L 3431 0 
L 469 0 
L 469 531 
Q 828 903 1448 1529 
Q 2069 2156 2228 2338 
Q 2531 2678 2651 2914 
Q 2772 3150 2772 3378 
Q 2772 3750 2511 3984 
Q 2250 4219 1831 4219 
Q 1534 4219 1204 4116 
Q 875 4013 500 3803 
L 500 4441 
Q 881 4594 1212 4672 
Q 1544 4750 1819 4750 
Q 2544 4750 2975 4387 
Q 3406 4025 3406 3419 
Q 3406 3131 3298 2873 
Q 3191 2616 2906 2266 
Q 2828 2175 2409 1742 
Q 1991 1309 1228 531 
z
" transform="scale(0.015625)"/>
        <path id="DejaVuSans-36" d="M 2113 2584 
Q 1688 2584 1439 2293 
Q 1191 2003 1191 1497 
Q 1191 994 1439 701 
Q 1688 409 2113 409 
Q 2538 409 2786 701 
Q 3034 994 3034 1497 
Q 3034 2003 2786 2293 
Q 2538 2584 2113 2584 
z
M 3366 4563 
L 3366 3988 
Q 3128 4100 2886 4159 
Q 2644 4219 2406 4219 
Q 1781 4219 1451 3797 
Q 1122 3375 1075 2522 
Q 1259 2794 1537 2939 
Q 1816 3084 2150 3084 
Q 2853 3084 3261 2657 
Q 3669 2231 3669 1497 
Q 3669 778 3244 343 
Q 2819 -91 2113 -91 
Q 1303 -91 875 529 
Q 447 1150 447 2328 
Q 447 3434 972 4092 
Q 1497 4750 2381 4750 
Q 2619 4750 2861 4703 
Q 3103 4656 3366 4563 
z
" transform="scale(0.015625)"/>
       </defs>
       <use xlink:href="#DejaVuSans-32"/>
       <use xlink:href="#DejaVuSans-36" x="63.623047"/>
      </g>
     </g>
    </g>
    <g id="xtick_2">
     <g id="line2d_2">
      <g>
       <use xlink:href="#m70328033c6" x="129.191783" y="416.76" style="stroke: #000000; stroke-width: 0.8"/>
      </g>
     </g>
     <g id="text_2">
      <!-- 28 -->
      <g transform="translate(122.829283 431.358437) scale(0.1 -0.1)">
       <defs>
        <path id="DejaVuSans-38" d="M 2034 2216 
Q 1584 2216 1326 1975 
Q 1069 1734 1069 1313 
Q 1069 891 1326 650 
Q 1584 409 2034 409 
Q 2484 409 2743 651 
Q 3003 894 3003 1313 
Q 3003 1734 2745 1975 
Q 2488 2216 2034 2216 
z
M 1403 2484 
Q 997 2584 770 2862 
Q 544 3141 544 3541 
Q 544 4100 942 4425 
Q 1341 4750 2034 4750 
Q 2731 4750 3128 4425 
Q 3525 4100 3525 3541 
Q 3525 3141 3298 2862 
Q 3072 2584 2669 2484 
Q 3125 2378 3379 2068 
Q 3634 1759 3634 1313 
Q 3634 634 3220 271 
Q 2806 -91 2034 -91 
Q 1263 -91 848 271 
Q 434 634 434 1313 
Q 434 1759 690 2068 
Q 947 2378 1403 2484 
z
M 1172 3481 
Q 1172 3119 1398 2916 
Q 1625 2713 2034 2713 
Q 2441 2713 2670 2916 
Q 2900 3119 2900 3481 
Q 2900 3844 2670 4047 
Q 2441 4250 2034 4250 
Q 1625 4250 1398 4047 
Q 1172 3844 1172 3481 
z
" transform="scale(0.015625)"/>
       </defs>
       <use xlink:href="#DejaVuSans-32"/>
       <use xlink:href="#DejaVuSans-38" x="63.623047"/>
      </g>
     </g>
    </g>
    <g id="xtick_3">
     <g id="line2d_3">
      <g>
       <use xlink:href="#m70328033c6" x="175.39177" y="416.76" style="stroke: #000000; stroke-width: 0.8"/>
      </g>
     </g>
     <g id="text_3">
      <!-- 30 -->
      <g transform="translate(169.02927 431.358437) scale(0.1 -0.1)">
       <defs>
        <path id="DejaVuSans-33" d="M 2597 2516 
Q 3050 2419 3304 2112 
Q 3559 1806 3559 1356 
Q 3559 666 3084 287 
Q 2609 -91 1734 -91 
Q 1441 -91 1130 -33 
Q 819 25 488 141 
L 488 750 
Q 750 597 1062 519 
Q 1375 441 1716 441 
Q 2309 441 2620 675 
Q 2931 909 2931 1356 
Q 2931 1769 2642 2001 
Q 2353 2234 1838 2234 
L 1294 2234 
L 1294 2753 
L 1863 2753 
Q 2328 2753 2575 2939 
Q 2822 3125 2822 3475 
Q 2822 3834 2567 4026 
Q 2313 4219 1838 4219 
Q 1578 4219 1281 4162 
Q 984 4106 628 3988 
L 628 4550 
Q 988 4650 1302 4700 
Q 1616 4750 1894 4750 
Q 2613 4750 3031 4423 
Q 3450 4097 3450 3541 
Q 3450 3153 3228 2886 
Q 3006 2619 2597 2516 
z
" transform="scale(0.015625)"/>
        <path id="DejaVuSans-30" d="M 2034 4250 
Q 1547 4250 1301 3770 
Q 1056 3291 1056 2328 
Q 1056 1369 1301 889 
Q 1547 409 2034 409 
Q 2525 409 2770 889 
Q 3016 1369 3016 2328 
Q 3016 3291 2770 3770 
Q 2525 4250 2034 4250 
z
M 2034 4750 
Q 2819 4750 3233 4129 
Q 3647 3509 3647 2328 
Q 3647 1150 3233 529 
Q 2819 -91 2034 -91 
Q 1250 -91 836 529 
Q 422 1150 422 2328 
Q 422 3509 836 4129 
Q 1250 4750 2034 4750 
z
" transform="scale(0.015625)"/>
       </defs>
       <use xlink:href="#DejaVuSans-33"/>
       <use xlink:href="#DejaVuSans-30" x="63.623047"/>
      </g>
     </g>
    </g>
    <g id="xtick_4">
     <g id="line2d_4">
      <g>
       <use xlink:href="#m70328033c6" x="221.591758" y="416.76" style="stroke: #000000; stroke-width: 0.8"/>
      </g>
     </g>
     <g id="text_4">
      <!-- 32 -->
      <g transform="translate(215.229258 431.358437) scale(0.1 -0.1)">
       <use xlink:href="#DejaVuSans-33"/>
       <use xlink:href="#DejaVuSans-32" x="63.623047"/>
      </g>
     </g>
    </g>
    <g id="xtick_5">
     <g id="line2d_5">
      <g>
       <use xlink:href="#m70328033c6" x="267.791746" y="416.76" style="stroke: #000000; stroke-width: 0.8"/>
      </g>
     </g>
     <g id="text_5">
      <!-- 34 -->
      <g transform="translate(261.429246 431.358437) scale(0.1 -0.1)">
       <defs>
        <path id="DejaVuSans-34" d="M 2419 4116 
L 825 1625 
L 2419 1625 
L 2419 4116 
z
M 2253 4666 
L 3047 4666 
L 3047 1625 
L 3713 1625 
L 3713 1100 
L 3047 1100 
L 3047 0 
L 2419 0 
L 2419 1100 
L 313 1100 
L 313 1709 
L 2253 4666 
z
" transform="scale(0.015625)"/>
       </defs>
       <use xlink:href="#DejaVuSans-33"/>
       <use xlink:href="#DejaVuSans-34" x="63.623047"/>
      </g>
     </g>
    </g>
    <g id="xtick_6">
     <g id="line2d_6">
      <g>
       <use xlink:href="#m70328033c6" x="313.991733" y="416.76" style="stroke: #000000; stroke-width: 0.8"/>
      </g>
     </g>
     <g id="text_6">
      <!-- 36 -->
      <g transform="translate(307.629233 431.358437) scale(0.1 -0.1)">
       <use xlink:href="#DejaVuSans-33"/>
       <use xlink:href="#DejaVuSans-36" x="63.623047"/>
      </g>
     </g>
    </g>
    <g id="xtick_7">
     <g id="line2d_7">
      <g>
       <use xlink:href="#m70328033c6" x="360.191721" y="416.76" style="stroke: #000000; stroke-width: 0.8"/>
      </g>
     </g>
     <g id="text_7">
      <!-- 38 -->
      <g transform="translate(353.829221 431.358437) scale(0.1 -0.1)">
       <use xlink:href="#DejaVuSans-33"/>
       <use xlink:href="#DejaVuSans-38" x="63.623047"/>
      </g>
     </g>
    </g>
    <g id="xtick_8">
     <g id="line2d_8">
      <g>
       <use xlink:href="#m70328033c6" x="406.391709" y="416.76" style="stroke: #000000; stroke-width: 0.8"/>
      </g>
     </g>
     <g id="text_8">
      <!-- 40 -->
      <g transform="translate(400.029209 431.358437) scale(0.1 -0.1)">
       <use xlink:href="#DejaVuSans-34"/>
       <use xlink:href="#DejaVuSans-30" x="63.623047"/>
      </g>
     </g>
    </g>
    <g id="text_9">
     <!-- x (A) -->
     <g transform="translate(236.569688 445.036563) scale(0.1 -0.1)">
      <defs>
       <path id="DejaVuSans-78" d="M 3513 3500 
L 2247 1797 
L 3578 0 
L 2900 0 
L 1881 1375 
L 863 0 
L 184 0 
L 1544 1831 
L 300 3500 
L 978 3500 
L 1906 2253 
L 2834 3500 
L 3513 3500 
z
" transform="scale(0.015625)"/>
       <path id="DejaVuSans-20" transform="scale(0.015625)"/>
       <path id="DejaVuSans-28" d="M 1984 4856 
Q 1566 4138 1362 3434 
Q 1159 2731 1159 2009 
Q 1159 1288 1364 580 
Q 1569 -128 1984 -844 
L 1484 -844 
Q 1016 -109 783 600 
Q 550 1309 550 2009 
Q 550 2706 781 3412 
Q 1013 4119 1484 4856 
L 1984 4856 
z
" transform="scale(0.015625)"/>
       <path id="DejaVuSans-41" d="M 2188 4044 
L 1331 1722 
L 3047 1722 
L 2188 4044 
z
M 1831 4666 
L 2547 4666 
L 4325 0 
L 3669 0 
L 3244 1197 
L 1141 1197 
L 716 0 
L 50 0 
L 1831 4666 
z
" transform="scale(0.015625)"/>
       <path id="DejaVuSans-29" d="M 513 4856 
L 1013 4856 
Q 1481 4119 1714 3412 
Q 1947 2706 1947 2009 
Q 1947 1309 1714 600 
Q 1481 -109 1013 -844 
L 513 -844 
Q 928 -128 1133 580 
Q 1338 1288 1338 2009 
Q 1338 2731 1133 3434 
Q 928 4138 513 4856 
z
" transform="scale(0.015625)"/>
      </defs>
      <use xlink:href="#DejaVuSans-78"/>
      <use xlink:href="#DejaVuSans-20" x="59.179688"/>
      <use xlink:href="#DejaVuSans-28" x="90.966797"/>
      <use xlink:href="#DejaVuSans-41" x="129.980469"/>
      <use xlink:href="#DejaVuSans-29" x="198.388672"/>
     </g>
    </g>
   </g>
   <g id="matplotlib.axis_2">
    <g id="ytick_1">
     <g id="line2d_9">
      <defs>
       <path id="ma89002f19c" d="M 0 0 
L -3.5 0 
" style="stroke: #000000; stroke-width: 0.8"/>
      </defs>
      <g>
       <use xlink:href="#ma89002f19c" x="72.84" y="400.269091" style="stroke: #000000; stroke-width: 0.8"/>
      </g>
     </g>
     <g id="text_10">
      <!-- 0.0 -->
      <g transform="translate(49.936875 404.06831) scale(0.1 -0.1)">
       <defs>
        <path id="DejaVuSans-2e" d="M 684 794 
L 1344 794 
L 1344 0 
L 684 0 
L 684 794 
z
" transform="scale(0.015625)"/>
       </defs>
       <use xlink:href="#DejaVuSans-30"/>
       <use xlink:href="#DejaVuSans-2e" x="63.623047"/>
       <use xlink:href="#DejaVuSans-30" x="95.410156"/>
      </g>
     </g>
    </g>
    <g id="ytick_2">
     <g id="line2d_10">
      <g>
       <use xlink:href="#ma89002f19c" x="72.84" y="334.305455" style="stroke: #000000; stroke-width: 0.8"/>
      </g>
     </g>
     <g id="text_11">
      <!-- 0.2 -->
      <g transform="translate(49.936875 338.104673) scale(0.1 -0.1)">
       <use xlink:href="#DejaVuSans-30"/>
       <use xlink:href="#DejaVuSans-2e" x="63.623047"/>
       <use xlink:href="#DejaVuSans-32" x="95.410156"/>
      </g>
     </g>
    </g>
    <g id="ytick_3">
     <g id="line2d_11">
      <g>
       <use xlink:href="#ma89002f19c" x="72.84" y="268.341818" style="stroke: #000000; stroke-width: 0.8"/>
      </g>
     </g>
     <g id="text_12">
      <!-- 0.4 -->
      <g transform="translate(49.936875 272.141037) scale(0.1 -0.1)">
       <use xlink:href="#DejaVuSans-30"/>
       <use xlink:href="#DejaVuSans-2e" x="63.623047"/>
       <use xlink:href="#DejaVuSans-34" x="95.410156"/>
      </g>
     </g>
    </g>
    <g id="ytick_4">
     <g id="line2d_12">
      <g>
       <use xlink:href="#ma89002f19c" x="72.84" y="202.378182" style="stroke: #000000; stroke-width: 0.8"/>
      </g>
     </g>
     <g id="text_13">
      <!-- 0.6 -->
      <g transform="translate(49.936875 206.177401) scale(0.1 -0.1)">
       <use xlink:href="#DejaVuSans-30"/>
       <use xlink:href="#DejaVuSans-2e" x="63.623047"/>
       <use xlink:href="#DejaVuSans-36" x="95.410156"/>
      </g>
     </g>
    </g>
    <g id="ytick_5">
     <g id="line2d_13">
      <g>
       <use xlink:href="#ma89002f19c" x="72.84" y="136.414545" style="stroke: #000000; stroke-width: 0.8"/>
      </g>
     </g>
     <g id="text_14">
      <!-- 0.8 -->
      <g transform="translate(49.936875 140.213764) scale(0.1 -0.1)">
       <use xlink:href="#DejaVuSans-30"/>
       <use xlink:href="#DejaVuSans-2e" x="63.623047"/>
       <use xlink:href="#DejaVuSans-38" x="95.410156"/>
      </g>
     </g>
    </g>
    <g id="ytick_6">
     <g id="line2d_14">
      <g>
       <use xlink:href="#ma89002f19c" x="72.84" y="70.450909" style="stroke: #000000; stroke-width: 0.8"/>
      </g>
     </g>
     <g id="text_15">
      <!-- 1.0 -->
      <g transform="translate(49.936875 74.250128) scale(0.1 -0.1)">
       <defs>
        <path id="DejaVuSans-31" d="M 794 531 
L 1825 531 
L 1825 4091 
L 703 3866 
L 703 4441 
L 1819 4666 
L 2450 4666 
L 2450 531 
L 3481 531 
L 3481 0 
L 794 0 
L 794 531 
z
" transform="scale(0.015625)"/>
       </defs>
       <use xlink:href="#DejaVuSans-31"/>
       <use xlink:href="#DejaVuSans-2e" x="63.623047"/>
       <use xlink:href="#DejaVuSans-30" x="95.410156"/>
      </g>
     </g>
    </g>
    <g id="text_16">
     <!-- Sp -->
     <g transform="translate(43.857188 241.708437) rotate(-90) scale(0.1 -0.1)">
      <defs>
       <path id="DejaVuSans-53" d="M 3425 4513 
L 3425 3897 
Q 3066 4069 2747 4153 
Q 2428 4238 2131 4238 
Q 1616 4238 1336 4038 
Q 1056 3838 1056 3469 
Q 1056 3159 1242 3001 
Q 1428 2844 1947 2747 
L 2328 2669 
Q 3034 2534 3370 2195 
Q 3706 1856 3706 1288 
Q 3706 609 3251 259 
Q 2797 -91 1919 -91 
Q 1588 -91 1214 -16 
Q 841 59 441 206 
L 441 856 
Q 825 641 1194 531 
Q 1563 422 1919 422 
Q 2459 422 2753 634 
Q 3047 847 3047 1241 
Q 3047 1584 2836 1778 
Q 2625 1972 2144 2069 
L 1759 2144 
Q 1053 2284 737 2584 
Q 422 2884 422 3419 
Q 422 4038 858 4394 
Q 1294 4750 2059 4750 
Q 2388 4750 2728 4690 
Q 3069 4631 3425 4513 
z
" transform="scale(0.015625)"/>
       <path id="DejaVuSans-70" d="M 1159 525 
L 1159 -1331 
L 581 -1331 
L 581 3500 
L 1159 3500 
L 1159 2969 
Q 1341 3281 1617 3432 
Q 1894 3584 2278 3584 
Q 2916 3584 3314 3078 
Q 3713 2572 3713 1747 
Q 3713 922 3314 415 
Q 2916 -91 2278 -91 
Q 1894 -91 1617 61 
Q 1341 213 1159 525 
z
M 3116 1747 
Q 3116 2381 2855 2742 
Q 2594 3103 2138 3103 
Q 1681 3103 1420 2742 
Q 1159 2381 1159 1747 
Q 1159 1113 1420 752 
Q 1681 391 2138 391 
Q 2594 391 2855 752 
Q 3116 1113 3116 1747 
z
" transform="scale(0.015625)"/>
      </defs>
      <use xlink:href="#DejaVuSans-53"/>
      <use xlink:href="#DejaVuSans-70" x="63.476562"/>
     </g>
    </g>
   </g>
   <g id="line2d_15">
    <path d="M 99.260045 70.450909 
L 115.788342 76.469082 
L 124.970729 80.065373 
L 132.316639 83.203246 
L 137.826071 85.779587 
L 143.335503 88.610986 
L 148.844936 91.76671 
L 152.51789 94.08993 
L 156.190845 96.619185 
L 159.8638 99.382715 
L 163.536755 102.410237 
L 167.20971 105.732457 
L 170.882665 109.38043 
L 174.555619 113.384787 
L 178.228574 117.774819 
L 181.901529 122.577456 
L 185.574484 127.816163 
L 189.247439 133.509788 
L 192.920394 139.671433 
L 196.593348 146.307373 
L 200.266303 153.416115 
L 203.939258 160.987631 
L 207.612213 169.002838 
L 211.285168 177.433362 
L 216.7946 190.77325 
L 222.304032 204.797985 
L 229.649942 224.212115 
L 244.341761 263.39839 
L 249.851194 277.485184 
L 255.360626 290.906944 
L 259.033581 299.400898 
L 262.706536 307.484931 
L 266.37949 315.129165 
L 270.052445 322.313024 
L 273.7254 329.025044 
L 277.398355 335.262399 
L 281.07131 341.030167 
L 284.744265 346.340415 
L 288.417219 351.211135 
L 292.090174 355.66512 
L 295.763129 359.728811 
L 299.436084 363.431184 
L 303.109039 366.802707 
L 306.781994 369.874414 
L 310.454949 372.677096 
L 314.127903 375.240648 
L 317.800858 377.593554 
L 323.31029 380.785784 
L 328.819723 383.644982 
L 334.329155 386.241412 
L 341.675065 389.395515 
L 349.020974 392.29939 
L 360.039839 396.36748 
L 371.058703 400.269091 
L 371.058703 400.269091 
" clip-path="url(#p7638c8277a)" style="fill: none; stroke: #1f77b4; stroke-width: 1.5; stroke-linecap: square"/>
   </g>
   <g id="line2d_16">
    <path d="M 97.423568 70.450909 
L 115.788342 75.242866 
L 124.970729 77.876641 
L 132.316639 80.224898 
L 137.826071 82.195852 
L 143.335503 84.41156 
L 148.844936 86.945287 
L 152.51789 88.854213 
L 156.190845 90.973747 
L 159.8638 93.337238 
L 163.536755 95.98096 
L 167.20971 98.943692 
L 170.882665 102.26609 
L 174.555619 105.989803 
L 178.228574 110.156335 
L 181.901529 114.805667 
L 185.574484 119.974659 
L 189.247439 125.695295 
L 192.920394 131.992832 
L 196.593348 138.883955 
L 200.266303 146.375046 
L 203.939258 154.460678 
L 207.612213 163.122452 
L 211.285168 172.328287 
L 214.958123 182.032243 
L 220.467555 197.388846 
L 225.976987 213.478771 
L 248.014716 278.86869 
L 253.524148 293.875591 
L 257.197103 303.300371 
L 260.870058 312.198975 
L 264.543013 320.533386 
L 268.215968 328.279414 
L 271.888923 335.426204 
L 275.561878 341.975257 
L 279.234832 347.939057 
L 282.907787 353.339419 
L 286.580742 358.205676 
L 290.253697 362.572827 
L 293.926652 366.479722 
L 297.599607 369.967393 
L 301.272561 373.077574 
L 304.945516 375.851461 
L 308.618471 378.328717 
L 312.291426 380.546735 
L 315.964381 382.540133 
L 319.637336 384.340461 
L 325.146768 386.74011 
L 330.6562 388.850892 
L 336.165632 390.740396 
L 343.511542 393.007953 
L 352.693929 395.571808 
L 365.549271 398.888736 
L 371.058703 400.269091 
L 371.058703 400.269091 
" clip-path="url(#p7638c8277a)" style="fill: none; stroke: #ff7f0e; stroke-width: 1.5; stroke-linecap: square"/>
   </g>
   <g id="line2d_17">
    <path d="M 97.423568 70.450909 
L 115.788342 74.03432 
L 124.970729 76.037059 
L 132.316639 77.855549 
L 137.826071 79.410448 
L 143.335503 81.19215 
L 148.844936 83.274165 
L 152.51789 84.873584 
L 156.190845 86.679169 
L 159.8638 88.72742 
L 163.536755 91.059059 
L 167.20971 93.718778 
L 170.882665 96.754717 
L 174.555619 100.217596 
L 178.228574 104.15948 
L 181.901529 108.632167 
L 185.574484 113.685206 
L 189.247439 119.36359 
L 192.920394 125.705229 
L 196.593348 132.73831 
L 200.266303 140.478706 
L 203.939258 148.927619 
L 207.612213 158.069634 
L 211.285168 167.871381 
L 214.958123 178.280951 
L 218.631078 189.228191 
L 224.14051 206.462359 
L 231.486419 230.393383 
L 242.505284 266.347427 
L 248.014716 283.458376 
L 251.687671 294.297982 
L 255.360626 304.583487 
L 259.033581 314.248539 
L 262.706536 323.245166 
L 266.37949 331.543884 
L 270.052445 339.132938 
L 273.7254 346.016823 
L 277.398355 352.214233 
L 281.07131 357.75564 
L 284.744265 362.680676 
L 288.417219 367.035508 
L 292.090174 370.870344 
L 295.763129 374.237191 
L 299.436084 377.187952 
L 303.109039 379.772882 
L 306.781994 382.039445 
L 310.454949 384.031517 
L 314.127903 385.788922 
L 317.800858 387.347238 
L 323.31029 389.378898 
L 328.819723 391.121282 
L 334.329155 392.645357 
L 341.675065 394.432212 
L 350.857452 396.404537 
L 363.712794 398.901167 
L 371.058703 400.269091 
L 371.058703 400.269091 
" clip-path="url(#p7638c8277a)" style="fill: none; stroke: #2ca02c; stroke-width: 1.5; stroke-linecap: square"/>
   </g>
   <g id="line2d_18">
    <path d="M 97.423568 70.450909 
L 115.788342 73.201448 
L 124.970729 74.761535 
L 132.316639 76.201051 
L 137.826071 77.452198 
L 143.335503 78.910187 
L 148.844936 80.646737 
L 152.51789 82.003802 
L 156.190845 83.558346 
L 159.8638 85.348673 
L 163.536755 87.418427 
L 167.20971 89.816562 
L 170.882665 92.596985 
L 174.555619 95.817802 
L 178.228574 99.540088 
L 181.901529 103.826151 
L 185.574484 108.737263 
L 189.247439 114.330896 
L 192.920394 120.657566 
L 196.593348 127.757411 
L 200.266303 135.656716 
L 203.939258 144.364629 
L 207.612213 153.870335 
L 211.285168 164.140961 
L 214.958123 175.120464 
L 218.631078 186.729684 
L 224.14051 205.098117 
L 231.486419 230.701708 
L 240.668807 262.8574 
L 246.178239 281.349215 
L 249.851194 293.068482 
L 253.524148 304.17577 
L 257.197103 314.587581 
L 260.870058 324.243374 
L 264.543013 333.105866 
L 268.215968 341.16013 
L 271.888923 348.411671 
L 275.561878 354.883722 
L 279.234832 360.614023 
L 282.907787 365.651364 
L 286.580742 370.052138 
L 290.253697 373.877116 
L 293.926652 377.1886 
L 297.599607 380.048057 
L 301.272561 382.514273 
L 304.945516 384.642034 
L 308.618471 386.481281 
L 312.291426 388.076684 
L 315.964381 389.467554 
L 321.473813 391.243638 
L 326.983245 392.730234 
L 332.492678 394.001372 
L 339.838587 395.457132 
L 349.020974 397.024467 
L 361.876316 398.96234 
L 371.058703 400.269091 
L 371.058703 400.269091 
" clip-path="url(#p7638c8277a)" style="fill: none; stroke: #d62728; stroke-width: 1.5; stroke-linecap: square"/>
   </g>
   <g id="patch_3">
    <path d="M 72.84 416.76 
L 72.84 53.96 
" style="fill: none; stroke: #000000; stroke-width: 0.8; stroke-linejoin: miter; stroke-linecap: square"/>
   </g>
   <g id="patch_4">
    <path d="M 424.04 416.76 
L 424.04 53.96 
" style="fill: none; stroke: #000000; stroke-width: 0.8; stroke-linejoin: miter; stroke-linecap: square"/>
   </g>
   <g id="patch_5">
    <path d="M 72.84 416.76 
L 424.04 416.76 
" style="fill: none; stroke: #000000; stroke-width: 0.8; stroke-linejoin: miter; stroke-linecap: square"/>
   </g>
   <g id="patch_6">
    <path d="M 72.84 53.96 
L 424.04 53.96 
" style="fill: none; stroke: #000000; stroke-width: 0.8; stroke-linejoin: miter; stroke-linecap: square"/>
   </g>
   <g id="text_17">
    <!-- Splitting Probability -->
    <g transform="translate(189.88375 47.96) scale(0.12 -0.12)">
     <defs>
      <path id="DejaVuSans-6c" d="M 603 4863 
L 1178 4863 
L 1178 0 
L 603 0 
L 603 4863 
z
" transform="scale(0.015625)"/>
      <path id="DejaVuSans-69" d="M 603 3500 
L 1178 3500 
L 1178 0 
L 603 0 
L 603 3500 
z
M 603 4863 
L 1178 4863 
L 1178 4134 
L 603 4134 
L 603 4863 
z
" transform="scale(0.015625)"/>
      <path id="DejaVuSans-74" d="M 1172 4494 
L 1172 3500 
L 2356 3500 
L 2356 3053 
L 1172 3053 
L 1172 1153 
Q 1172 725 1289 603 
Q 1406 481 1766 481 
L 2356 481 
L 2356 0 
L 1766 0 
Q 1100 0 847 248 
Q 594 497 594 1153 
L 594 3053 
L 172 3053 
L 172 3500 
L 594 3500 
L 594 4494 
L 1172 4494 
z
" transform="scale(0.015625)"/>
      <path id="DejaVuSans-6e" d="M 3513 2113 
L 3513 0 
L 2938 0 
L 2938 2094 
Q 2938 2591 2744 2837 
Q 2550 3084 2163 3084 
Q 1697 3084 1428 2787 
Q 1159 2491 1159 1978 
L 1159 0 
L 581 0 
L 581 3500 
L 1159 3500 
L 1159 2956 
Q 1366 3272 1645 3428 
Q 1925 3584 2291 3584 
Q 2894 3584 3203 3211 
Q 3513 2838 3513 2113 
z
" transform="scale(0.015625)"/>
      <path id="DejaVuSans-67" d="M 2906 1791 
Q 2906 2416 2648 2759 
Q 2391 3103 1925 3103 
Q 1463 3103 1205 2759 
Q 947 2416 947 1791 
Q 947 1169 1205 825 
Q 1463 481 1925 481 
Q 2391 481 2648 825 
Q 2906 1169 2906 1791 
z
M 3481 434 
Q 3481 -459 3084 -895 
Q 2688 -1331 1869 -1331 
Q 1566 -1331 1297 -1286 
Q 1028 -1241 775 -1147 
L 775 -588 
Q 1028 -725 1275 -790 
Q 1522 -856 1778 -856 
Q 2344 -856 2625 -561 
Q 2906 -266 2906 331 
L 2906 616 
Q 2728 306 2450 153 
Q 2172 0 1784 0 
Q 1141 0 747 490 
Q 353 981 353 1791 
Q 353 2603 747 3093 
Q 1141 3584 1784 3584 
Q 2172 3584 2450 3431 
Q 2728 3278 2906 2969 
L 2906 3500 
L 3481 3500 
L 3481 434 
z
" transform="scale(0.015625)"/>
      <path id="DejaVuSans-50" d="M 1259 4147 
L 1259 2394 
L 2053 2394 
Q 2494 2394 2734 2622 
Q 2975 2850 2975 3272 
Q 2975 3691 2734 3919 
Q 2494 4147 2053 4147 
L 1259 4147 
z
M 628 4666 
L 2053 4666 
Q 2838 4666 3239 4311 
Q 3641 3956 3641 3272 
Q 3641 2581 3239 2228 
Q 2838 1875 2053 1875 
L 1259 1875 
L 1259 0 
L 628 0 
L 628 4666 
z
" transform="scale(0.015625)"/>
      <path id="DejaVuSans-72" d="M 2631 2963 
Q 2534 3019 2420 3045 
Q 2306 3072 2169 3072 
Q 1681 3072 1420 2755 
Q 1159 2438 1159 1844 
L 1159 0 
L 581 0 
L 581 3500 
L 1159 3500 
L 1159 2956 
Q 1341 3275 1631 3429 
Q 1922 3584 2338 3584 
Q 2397 3584 2469 3576 
Q 2541 3569 2628 3553 
L 2631 2963 
z
" transform="scale(0.015625)"/>
      <path id="DejaVuSans-6f" d="M 1959 3097 
Q 1497 3097 1228 2736 
Q 959 2375 959 1747 
Q 959 1119 1226 758 
Q 1494 397 1959 397 
Q 2419 397 2687 759 
Q 2956 1122 2956 1747 
Q 2956 2369 2687 2733 
Q 2419 3097 1959 3097 
z
M 1959 3584 
Q 2709 3584 3137 3096 
Q 3566 2609 3566 1747 
Q 3566 888 3137 398 
Q 2709 -91 1959 -91 
Q 1206 -91 779 398 
Q 353 888 353 1747 
Q 353 2609 779 3096 
Q 1206 3584 1959 3584 
z
" transform="scale(0.015625)"/>
      <path id="DejaVuSans-62" d="M 3116 1747 
Q 3116 2381 2855 2742 
Q 2594 3103 2138 3103 
Q 1681 3103 1420 2742 
Q 1159 2381 1159 1747 
Q 1159 1113 1420 752 
Q 1681 391 2138 391 
Q 2594 391 2855 752 
Q 3116 1113 3116 1747 
z
M 1159 2969 
Q 1341 3281 1617 3432 
Q 1894 3584 2278 3584 
Q 2916 3584 3314 3078 
Q 3713 2572 3713 1747 
Q 3713 922 3314 415 
Q 2916 -91 2278 -91 
Q 1894 -91 1617 61 
Q 1341 213 1159 525 
L 1159 0 
L 581 0 
L 581 4863 
L 1159 4863 
L 1159 2969 
z
" transform="scale(0.015625)"/>
      <path id="DejaVuSans-61" d="M 2194 1759 
Q 1497 1759 1228 1600 
Q 959 1441 959 1056 
Q 959 750 1161 570 
Q 1363 391 1709 391 
Q 2188 391 2477 730 
Q 2766 1069 2766 1631 
L 2766 1759 
L 2194 1759 
z
M 3341 1997 
L 3341 0 
L 2766 0 
L 2766 531 
Q 2569 213 2275 61 
Q 1981 -91 1556 -91 
Q 1019 -91 701 211 
Q 384 513 384 1019 
Q 384 1609 779 1909 
Q 1175 2209 1959 2209 
L 2766 2209 
L 2766 2266 
Q 2766 2663 2505 2880 
Q 2244 3097 1772 3097 
Q 1472 3097 1187 3025 
Q 903 2953 641 2809 
L 641 3341 
Q 956 3463 1253 3523 
Q 1550 3584 1831 3584 
Q 2591 3584 2966 3190 
Q 3341 2797 3341 1997 
z
" transform="scale(0.015625)"/>
      <path id="DejaVuSans-79" d="M 2059 -325 
Q 1816 -950 1584 -1140 
Q 1353 -1331 966 -1331 
L 506 -1331 
L 506 -850 
L 844 -850 
Q 1081 -850 1212 -737 
Q 1344 -625 1503 -206 
L 1606 56 
L 191 3500 
L 800 3500 
L 1894 763 
L 2988 3500 
L 3597 3500 
L 2059 -325 
z
" transform="scale(0.015625)"/>
     </defs>
     <use xlink:href="#DejaVuSans-53"/>
     <use xlink:href="#DejaVuSans-70" x="63.476562"/>
     <use xlink:href="#DejaVuSans-6c" x="126.953125"/>
     <use xlink:href="#DejaVuSans-69" x="154.736328"/>
     <use xlink:href="#DejaVuSans-74" x="182.519531"/>
     <use xlink:href="#DejaVuSans-74" x="221.728516"/>
     <use xlink:href="#DejaVuSans-69" x="260.9375"/>
     <use xlink:href="#DejaVuSans-6e" x="288.720703"/>
     <use xlink:href="#DejaVuSans-67" x="352.099609"/>
     <use xlink:href="#DejaVuSans-20" x="415.576172"/>
     <use xlink:href="#DejaVuSans-50" x="447.363281"/>
     <use xlink:href="#DejaVuSans-72" x="505.916016"/>
     <use xlink:href="#DejaVuSans-6f" x="544.779297"/>
     <use xlink:href="#DejaVuSans-62" x="605.960938"/>
     <use xlink:href="#DejaVuSans-61" x="669.4375"/>
     <use xlink:href="#DejaVuSans-62" x="730.716797"/>
     <use xlink:href="#DejaVuSans-69" x="794.193359"/>
     <use xlink:href="#DejaVuSans-6c" x="821.976562"/>
     <use xlink:href="#DejaVuSans-69" x="849.759766"/>
     <use xlink:href="#DejaVuSans-74" x="877.542969"/>
     <use xlink:href="#DejaVuSans-79" x="916.751953"/>
    </g>
   </g>
   <g id="legend_1">
    <g id="patch_7">
     <path d="M 311.429063 135.350625 
L 417.04 135.350625 
Q 419.04 135.350625 419.04 133.350625 
L 419.04 60.96 
Q 419.04 58.96 417.04 58.96 
L 311.429063 58.96 
Q 309.429063 58.96 309.429063 60.96 
L 309.429063 133.350625 
Q 309.429063 135.350625 311.429063 135.350625 
z
" style="fill: #ffffff; opacity: 0.8; stroke: #cccccc; stroke-linejoin: miter"/>
    </g>
    <g id="line2d_19">
     <path d="M 313.429063 67.058437 
L 323.429063 67.058437 
L 333.429063 67.058437 
" style="fill: none; stroke: #1f77b4; stroke-width: 1.5; stroke-linecap: square"/>
    </g>
    <g id="text_18">
     <!-- ks = 4 -->
     <g transform="translate(341.429063 70.558437) scale(0.1 -0.1)">
      <defs>
       <path id="DejaVuSans-6b" d="M 581 4863 
L 1159 4863 
L 1159 1991 
L 2875 3500 
L 3609 3500 
L 1753 1863 
L 3688 0 
L 2938 0 
L 1159 1709 
L 1159 0 
L 581 0 
L 581 4863 
z
" transform="scale(0.015625)"/>
       <path id="DejaVuSans-73" d="M 2834 3397 
L 2834 2853 
Q 2591 2978 2328 3040 
Q 2066 3103 1784 3103 
Q 1356 3103 1142 2972 
Q 928 2841 928 2578 
Q 928 2378 1081 2264 
Q 1234 2150 1697 2047 
L 1894 2003 
Q 2506 1872 2764 1633 
Q 3022 1394 3022 966 
Q 3022 478 2636 193 
Q 2250 -91 1575 -91 
Q 1294 -91 989 -36 
Q 684 19 347 128 
L 347 722 
Q 666 556 975 473 
Q 1284 391 1588 391 
Q 1994 391 2212 530 
Q 2431 669 2431 922 
Q 2431 1156 2273 1281 
Q 2116 1406 1581 1522 
L 1381 1569 
Q 847 1681 609 1914 
Q 372 2147 372 2553 
Q 372 3047 722 3315 
Q 1072 3584 1716 3584 
Q 2034 3584 2315 3537 
Q 2597 3491 2834 3397 
z
" transform="scale(0.015625)"/>
       <path id="DejaVuSans-3d" d="M 678 2906 
L 4684 2906 
L 4684 2381 
L 678 2381 
L 678 2906 
z
M 678 1631 
L 4684 1631 
L 4684 1100 
L 678 1100 
L 678 1631 
z
" transform="scale(0.015625)"/>
      </defs>
      <use xlink:href="#DejaVuSans-6b"/>
      <use xlink:href="#DejaVuSans-73" x="57.910156"/>
      <use xlink:href="#DejaVuSans-20" x="110.009766"/>
      <use xlink:href="#DejaVuSans-3d" x="141.796875"/>
      <use xlink:href="#DejaVuSans-20" x="225.585938"/>
      <use xlink:href="#DejaVuSans-34" x="257.373047"/>
     </g>
    </g>
    <g id="line2d_20">
     <path d="M 313.429063 81.736562 
L 323.429063 81.736562 
L 333.429063 81.736562 
" style="fill: none; stroke: #ff7f0e; stroke-width: 1.5; stroke-linecap: square"/>
    </g>
    <g id="text_19">
     <!-- ks = 6 -->
     <g transform="translate(341.429063 85.236562) scale(0.1 -0.1)">
      <use xlink:href="#DejaVuSans-6b"/>
      <use xlink:href="#DejaVuSans-73" x="57.910156"/>
      <use xlink:href="#DejaVuSans-20" x="110.009766"/>
      <use xlink:href="#DejaVuSans-3d" x="141.796875"/>
      <use xlink:href="#DejaVuSans-20" x="225.585938"/>
      <use xlink:href="#DejaVuSans-36" x="257.373047"/>
     </g>
    </g>
    <g id="line2d_21">
     <path d="M 313.429063 96.414687 
L 323.429063 96.414687 
L 333.429063 96.414687 
" style="fill: none; stroke: #2ca02c; stroke-width: 1.5; stroke-linecap: square"/>
    </g>
    <g id="text_20">
     <!-- ks = 8 -->
     <g transform="translate(341.429063 99.914687) scale(0.1 -0.1)">
      <use xlink:href="#DejaVuSans-6b"/>
      <use xlink:href="#DejaVuSans-73" x="57.910156"/>
      <use xlink:href="#DejaVuSans-20" x="110.009766"/>
      <use xlink:href="#DejaVuSans-3d" x="141.796875"/>
      <use xlink:href="#DejaVuSans-20" x="225.585938"/>
      <use xlink:href="#DejaVuSans-38" x="257.373047"/>
     </g>
    </g>
    <g id="line2d_22">
     <path d="M 313.429063 111.092812 
L 323.429063 111.092812 
L 333.429063 111.092812 
" style="fill: none; stroke: #d62728; stroke-width: 1.5; stroke-linecap: square"/>
    </g>
    <g id="text_21">
     <!-- ks = 10 -->
     <g transform="translate(341.429063 114.592812) scale(0.1 -0.1)">
      <use xlink:href="#DejaVuSans-6b"/>
      <use xlink:href="#DejaVuSans-73" x="57.910156"/>
      <use xlink:href="#DejaVuSans-20" x="110.009766"/>
      <use xlink:href="#DejaVuSans-3d" x="141.796875"/>
      <use xlink:href="#DejaVuSans-20" x="225.585938"/>
      <use xlink:href="#DejaVuSans-31" x="257.373047"/>
      <use xlink:href="#DejaVuSans-30" x="320.996094"/>
     </g>
    </g>
    <g id="PathCollection_2">
     <g>
      <use xlink:href="#m2a83dd8fc6" x="323.429063" y="126.645938" style="stroke: #000000"/>
     </g>
    </g>
    <g id="text_22">
     <!-- Simulation-Traj -->
     <g transform="translate(341.429063 129.270938) scale(0.1 -0.1)">
      <defs>
       <path id="DejaVuSans-6d" d="M 3328 2828 
Q 3544 3216 3844 3400 
Q 4144 3584 4550 3584 
Q 5097 3584 5394 3201 
Q 5691 2819 5691 2113 
L 5691 0 
L 5113 0 
L 5113 2094 
Q 5113 2597 4934 2840 
Q 4756 3084 4391 3084 
Q 3944 3084 3684 2787 
Q 3425 2491 3425 1978 
L 3425 0 
L 2847 0 
L 2847 2094 
Q 2847 2600 2669 2842 
Q 2491 3084 2119 3084 
Q 1678 3084 1418 2786 
Q 1159 2488 1159 1978 
L 1159 0 
L 581 0 
L 581 3500 
L 1159 3500 
L 1159 2956 
Q 1356 3278 1631 3431 
Q 1906 3584 2284 3584 
Q 2666 3584 2933 3390 
Q 3200 3197 3328 2828 
z
" transform="scale(0.015625)"/>
       <path id="DejaVuSans-75" d="M 544 1381 
L 544 3500 
L 1119 3500 
L 1119 1403 
Q 1119 906 1312 657 
Q 1506 409 1894 409 
Q 2359 409 2629 706 
Q 2900 1003 2900 1516 
L 2900 3500 
L 3475 3500 
L 3475 0 
L 2900 0 
L 2900 538 
Q 2691 219 2414 64 
Q 2138 -91 1772 -91 
Q 1169 -91 856 284 
Q 544 659 544 1381 
z
M 1991 3584 
L 1991 3584 
z
" transform="scale(0.015625)"/>
       <path id="DejaVuSans-2d" d="M 313 2009 
L 1997 2009 
L 1997 1497 
L 313 1497 
L 313 2009 
z
" transform="scale(0.015625)"/>
       <path id="DejaVuSans-54" d="M -19 4666 
L 3928 4666 
L 3928 4134 
L 2272 4134 
L 2272 0 
L 1638 0 
L 1638 4134 
L -19 4134 
L -19 4666 
z
" transform="scale(0.015625)"/>
       <path id="DejaVuSans-6a" d="M 603 3500 
L 1178 3500 
L 1178 -63 
Q 1178 -731 923 -1031 
Q 669 -1331 103 -1331 
L -116 -1331 
L -116 -844 
L 38 -844 
Q 366 -844 484 -692 
Q 603 -541 603 -63 
L 603 3500 
z
M 603 4863 
L 1178 4863 
L 1178 4134 
L 603 4134 
L 603 4863 
z
" transform="scale(0.015625)"/>
      </defs>
      <use xlink:href="#DejaVuSans-53"/>
      <use xlink:href="#DejaVuSans-69" x="63.476562"/>
      <use xlink:href="#DejaVuSans-6d" x="91.259766"/>
      <use xlink:href="#DejaVuSans-75" x="188.671875"/>
      <use xlink:href="#DejaVuSans-6c" x="252.050781"/>
      <use xlink:href="#DejaVuSans-61" x="279.833984"/>
      <use xlink:href="#DejaVuSans-74" x="341.113281"/>
      <use xlink:href="#DejaVuSans-69" x="380.322266"/>
      <use xlink:href="#DejaVuSans-6f" x="408.105469"/>
      <use xlink:href="#DejaVuSans-6e" x="469.287109"/>
      <use xlink:href="#DejaVuSans-2d" x="532.666016"/>
      <use xlink:href="#DejaVuSans-54" x="559.625"/>
      <use xlink:href="#DejaVuSans-72" x="605.958984"/>
      <use xlink:href="#DejaVuSans-61" x="647.072266"/>
      <use xlink:href="#DejaVuSans-6a" x="708.351562"/>
     </g>
    </g>
   </g>
  </g>
  <g id="axes_2">
   <g id="patch_8">
    <path d="M 504.8 416.76 
L 856 416.76 
L 856 53.96 
L 504.8 53.96 
z
" style="fill: #ffffff"/>
   </g>
   <g id="PathCollection_3">
    <g clip-path="url(#pfdf17380ca)">
     <use xlink:href="#m2a83dd8fc6" x="520.763636" y="381.153306" style="stroke: #000000"/>
     <use xlink:href="#m2a83dd8fc6" x="543.568831" y="400.269091" style="stroke: #000000"/>
     <use xlink:href="#m2a83dd8fc6" x="589.179221" y="289.647375" style="stroke: #000000"/>
     <use xlink:href="#m2a83dd8fc6" x="611.984416" y="161.558466" style="stroke: #000000"/>
     <use xlink:href="#m2a83dd8fc6" x="634.78961" y="70.450909" style="stroke: #000000"/>
     <use xlink:href="#m2a83dd8fc6" x="657.594805" y="71.761099" style="stroke: #000000"/>
     <use xlink:href="#m2a83dd8fc6" x="680.4" y="95.508038" style="stroke: #000000"/>
     <use xlink:href="#m2a83dd8fc6" x="703.205195" y="122.317859" style="stroke: #000000"/>
     <use xlink:href="#m2a83dd8fc6" x="726.01039" y="208.221356" style="stroke: #000000"/>
     <use xlink:href="#m2a83dd8fc6" x="748.815584" y="291.315513" style="stroke: #000000"/>
     <use xlink:href="#m2a83dd8fc6" x="817.231169" y="368.485955" style="stroke: #000000"/>
     <use xlink:href="#m2a83dd8fc6" x="840.036364" y="320.340899" style="stroke: #000000"/>
    </g>
   </g>
   <g id="matplotlib.axis_3">
    <g id="xtick_9">
     <g id="line2d_23">
      <g>
       <use xlink:href="#m70328033c6" x="514.951795" y="416.76" style="stroke: #000000; stroke-width: 0.8"/>
      </g>
     </g>
     <g id="text_23">
      <!-- 26 -->
      <g transform="translate(508.589295 431.358437) scale(0.1 -0.1)">
       <use xlink:href="#DejaVuSans-32"/>
       <use xlink:href="#DejaVuSans-36" x="63.623047"/>
      </g>
     </g>
    </g>
    <g id="xtick_10">
     <g id="line2d_24">
      <g>
       <use xlink:href="#m70328033c6" x="561.151783" y="416.76" style="stroke: #000000; stroke-width: 0.8"/>
      </g>
     </g>
     <g id="text_24">
      <!-- 28 -->
      <g transform="translate(554.789283 431.358437) scale(0.1 -0.1)">
       <use xlink:href="#DejaVuSans-32"/>
       <use xlink:href="#DejaVuSans-38" x="63.623047"/>
      </g>
     </g>
    </g>
    <g id="xtick_11">
     <g id="line2d_25">
      <g>
       <use xlink:href="#m70328033c6" x="607.35177" y="416.76" style="stroke: #000000; stroke-width: 0.8"/>
      </g>
     </g>
     <g id="text_25">
      <!-- 30 -->
      <g transform="translate(600.98927 431.358437) scale(0.1 -0.1)">
       <use xlink:href="#DejaVuSans-33"/>
       <use xlink:href="#DejaVuSans-30" x="63.623047"/>
      </g>
     </g>
    </g>
    <g id="xtick_12">
     <g id="line2d_26">
      <g>
       <use xlink:href="#m70328033c6" x="653.551758" y="416.76" style="stroke: #000000; stroke-width: 0.8"/>
      </g>
     </g>
     <g id="text_26">
      <!-- 32 -->
      <g transform="translate(647.189258 431.358437) scale(0.1 -0.1)">
       <use xlink:href="#DejaVuSans-33"/>
       <use xlink:href="#DejaVuSans-32" x="63.623047"/>
      </g>
     </g>
    </g>
    <g id="xtick_13">
     <g id="line2d_27">
      <g>
       <use xlink:href="#m70328033c6" x="699.751746" y="416.76" style="stroke: #000000; stroke-width: 0.8"/>
      </g>
     </g>
     <g id="text_27">
      <!-- 34 -->
      <g transform="translate(693.389246 431.358437) scale(0.1 -0.1)">
       <use xlink:href="#DejaVuSans-33"/>
       <use xlink:href="#DejaVuSans-34" x="63.623047"/>
      </g>
     </g>
    </g>
    <g id="xtick_14">
     <g id="line2d_28">
      <g>
       <use xlink:href="#m70328033c6" x="745.951733" y="416.76" style="stroke: #000000; stroke-width: 0.8"/>
      </g>
     </g>
     <g id="text_28">
      <!-- 36 -->
      <g transform="translate(739.589233 431.358437) scale(0.1 -0.1)">
       <use xlink:href="#DejaVuSans-33"/>
       <use xlink:href="#DejaVuSans-36" x="63.623047"/>
      </g>
     </g>
    </g>
    <g id="xtick_15">
     <g id="line2d_29">
      <g>
       <use xlink:href="#m70328033c6" x="792.151721" y="416.76" style="stroke: #000000; stroke-width: 0.8"/>
      </g>
     </g>
     <g id="text_29">
      <!-- 38 -->
      <g transform="translate(785.789221 431.358437) scale(0.1 -0.1)">
       <use xlink:href="#DejaVuSans-33"/>
       <use xlink:href="#DejaVuSans-38" x="63.623047"/>
      </g>
     </g>
    </g>
    <g id="xtick_16">
     <g id="line2d_30">
      <g>
       <use xlink:href="#m70328033c6" x="838.351709" y="416.76" style="stroke: #000000; stroke-width: 0.8"/>
      </g>
     </g>
     <g id="text_30">
      <!-- 40 -->
      <g transform="translate(831.989209 431.358437) scale(0.1 -0.1)">
       <use xlink:href="#DejaVuSans-34"/>
       <use xlink:href="#DejaVuSans-30" x="63.623047"/>
      </g>
     </g>
    </g>
    <g id="text_31">
     <!-- x (A) -->
     <g transform="translate(668.529687 445.036563) scale(0.1 -0.1)">
      <use xlink:href="#DejaVuSans-78"/>
      <use xlink:href="#DejaVuSans-20" x="59.179688"/>
      <use xlink:href="#DejaVuSans-28" x="90.966797"/>
      <use xlink:href="#DejaVuSans-41" x="129.980469"/>
      <use xlink:href="#DejaVuSans-29" x="198.388672"/>
     </g>
    </g>
   </g>
   <g id="matplotlib.axis_4">
    <g id="ytick_7">
     <g id="line2d_31">
      <g>
       <use xlink:href="#ma89002f19c" x="504.8" y="400.269091" style="stroke: #000000; stroke-width: 0.8"/>
      </g>
     </g>
     <g id="text_32">
      <!-- 0.00 -->
      <g transform="translate(475.534375 404.06831) scale(0.1 -0.1)">
       <use xlink:href="#DejaVuSans-30"/>
       <use xlink:href="#DejaVuSans-2e" x="63.623047"/>
       <use xlink:href="#DejaVuSans-30" x="95.410156"/>
       <use xlink:href="#DejaVuSans-30" x="159.033203"/>
      </g>
     </g>
    </g>
    <g id="ytick_8">
     <g id="line2d_32">
      <g>
       <use xlink:href="#ma89002f19c" x="504.8" y="357.291797" style="stroke: #000000; stroke-width: 0.8"/>
      </g>
     </g>
     <g id="text_33">
      <!-- 0.25 -->
      <g transform="translate(475.534375 361.091015) scale(0.1 -0.1)">
       <defs>
        <path id="DejaVuSans-35" d="M 691 4666 
L 3169 4666 
L 3169 4134 
L 1269 4134 
L 1269 2991 
Q 1406 3038 1543 3061 
Q 1681 3084 1819 3084 
Q 2600 3084 3056 2656 
Q 3513 2228 3513 1497 
Q 3513 744 3044 326 
Q 2575 -91 1722 -91 
Q 1428 -91 1123 -41 
Q 819 9 494 109 
L 494 744 
Q 775 591 1075 516 
Q 1375 441 1709 441 
Q 2250 441 2565 725 
Q 2881 1009 2881 1497 
Q 2881 1984 2565 2268 
Q 2250 2553 1709 2553 
Q 1456 2553 1204 2497 
Q 953 2441 691 2322 
L 691 4666 
z
" transform="scale(0.015625)"/>
       </defs>
       <use xlink:href="#DejaVuSans-30"/>
       <use xlink:href="#DejaVuSans-2e" x="63.623047"/>
       <use xlink:href="#DejaVuSans-32" x="95.410156"/>
       <use xlink:href="#DejaVuSans-35" x="159.033203"/>
      </g>
     </g>
    </g>
    <g id="ytick_9">
     <g id="line2d_33">
      <g>
       <use xlink:href="#ma89002f19c" x="504.8" y="314.314503" style="stroke: #000000; stroke-width: 0.8"/>
      </g>
     </g>
     <g id="text_34">
      <!-- 0.50 -->
      <g transform="translate(475.534375 318.113721) scale(0.1 -0.1)">
       <use xlink:href="#DejaVuSans-30"/>
       <use xlink:href="#DejaVuSans-2e" x="63.623047"/>
       <use xlink:href="#DejaVuSans-35" x="95.410156"/>
       <use xlink:href="#DejaVuSans-30" x="159.033203"/>
      </g>
     </g>
    </g>
    <g id="ytick_10">
     <g id="line2d_34">
      <g>
       <use xlink:href="#ma89002f19c" x="504.8" y="271.337208" style="stroke: #000000; stroke-width: 0.8"/>
      </g>
     </g>
     <g id="text_35">
      <!-- 0.75 -->
      <g transform="translate(475.534375 275.136427) scale(0.1 -0.1)">
       <defs>
        <path id="DejaVuSans-37" d="M 525 4666 
L 3525 4666 
L 3525 4397 
L 1831 0 
L 1172 0 
L 2766 4134 
L 525 4134 
L 525 4666 
z
" transform="scale(0.015625)"/>
       </defs>
       <use xlink:href="#DejaVuSans-30"/>
       <use xlink:href="#DejaVuSans-2e" x="63.623047"/>
       <use xlink:href="#DejaVuSans-37" x="95.410156"/>
       <use xlink:href="#DejaVuSans-35" x="159.033203"/>
      </g>
     </g>
    </g>
    <g id="ytick_11">
     <g id="line2d_35">
      <g>
       <use xlink:href="#ma89002f19c" x="504.8" y="228.359914" style="stroke: #000000; stroke-width: 0.8"/>
      </g>
     </g>
     <g id="text_36">
      <!-- 1.00 -->
      <g transform="translate(475.534375 232.159133) scale(0.1 -0.1)">
       <use xlink:href="#DejaVuSans-31"/>
       <use xlink:href="#DejaVuSans-2e" x="63.623047"/>
       <use xlink:href="#DejaVuSans-30" x="95.410156"/>
       <use xlink:href="#DejaVuSans-30" x="159.033203"/>
      </g>
     </g>
    </g>
    <g id="ytick_12">
     <g id="line2d_36">
      <g>
       <use xlink:href="#ma89002f19c" x="504.8" y="185.38262" style="stroke: #000000; stroke-width: 0.8"/>
      </g>
     </g>
     <g id="text_37">
      <!-- 1.25 -->
      <g transform="translate(475.534375 189.181839) scale(0.1 -0.1)">
       <use xlink:href="#DejaVuSans-31"/>
       <use xlink:href="#DejaVuSans-2e" x="63.623047"/>
       <use xlink:href="#DejaVuSans-32" x="95.410156"/>
       <use xlink:href="#DejaVuSans-35" x="159.033203"/>
      </g>
     </g>
    </g>
    <g id="ytick_13">
     <g id="line2d_37">
      <g>
       <use xlink:href="#ma89002f19c" x="504.8" y="142.405326" style="stroke: #000000; stroke-width: 0.8"/>
      </g>
     </g>
     <g id="text_38">
      <!-- 1.50 -->
      <g transform="translate(475.534375 146.204545) scale(0.1 -0.1)">
       <use xlink:href="#DejaVuSans-31"/>
       <use xlink:href="#DejaVuSans-2e" x="63.623047"/>
       <use xlink:href="#DejaVuSans-35" x="95.410156"/>
       <use xlink:href="#DejaVuSans-30" x="159.033203"/>
      </g>
     </g>
    </g>
    <g id="ytick_14">
     <g id="line2d_38">
      <g>
       <use xlink:href="#ma89002f19c" x="504.8" y="99.428032" style="stroke: #000000; stroke-width: 0.8"/>
      </g>
     </g>
     <g id="text_39">
      <!-- 1.75 -->
      <g transform="translate(475.534375 103.22725) scale(0.1 -0.1)">
       <use xlink:href="#DejaVuSans-31"/>
       <use xlink:href="#DejaVuSans-2e" x="63.623047"/>
       <use xlink:href="#DejaVuSans-37" x="95.410156"/>
       <use xlink:href="#DejaVuSans-35" x="159.033203"/>
      </g>
     </g>
    </g>
    <g id="ytick_15">
     <g id="line2d_39">
      <g>
       <use xlink:href="#ma89002f19c" x="504.8" y="56.450737" style="stroke: #000000; stroke-width: 0.8"/>
      </g>
     </g>
     <g id="text_40">
      <!-- 2.00 -->
      <g transform="translate(475.534375 60.249956) scale(0.1 -0.1)">
       <use xlink:href="#DejaVuSans-32"/>
       <use xlink:href="#DejaVuSans-2e" x="63.623047"/>
       <use xlink:href="#DejaVuSans-30" x="95.410156"/>
       <use xlink:href="#DejaVuSans-30" x="159.033203"/>
      </g>
     </g>
    </g>
    <g id="text_41">
     <!-- PMF-Recons (kcal/mol) -->
     <g transform="translate(469.454687 291.867812) rotate(-90) scale(0.1 -0.1)">
      <defs>
       <path id="DejaVuSans-4d" d="M 628 4666 
L 1569 4666 
L 2759 1491 
L 3956 4666 
L 4897 4666 
L 4897 0 
L 4281 0 
L 4281 4097 
L 3078 897 
L 2444 897 
L 1241 4097 
L 1241 0 
L 628 0 
L 628 4666 
z
" transform="scale(0.015625)"/>
       <path id="DejaVuSans-46" d="M 628 4666 
L 3309 4666 
L 3309 4134 
L 1259 4134 
L 1259 2759 
L 3109 2759 
L 3109 2228 
L 1259 2228 
L 1259 0 
L 628 0 
L 628 4666 
z
" transform="scale(0.015625)"/>
       <path id="DejaVuSans-52" d="M 2841 2188 
Q 3044 2119 3236 1894 
Q 3428 1669 3622 1275 
L 4263 0 
L 3584 0 
L 2988 1197 
Q 2756 1666 2539 1819 
Q 2322 1972 1947 1972 
L 1259 1972 
L 1259 0 
L 628 0 
L 628 4666 
L 2053 4666 
Q 2853 4666 3247 4331 
Q 3641 3997 3641 3322 
Q 3641 2881 3436 2590 
Q 3231 2300 2841 2188 
z
M 1259 4147 
L 1259 2491 
L 2053 2491 
Q 2509 2491 2742 2702 
Q 2975 2913 2975 3322 
Q 2975 3731 2742 3939 
Q 2509 4147 2053 4147 
L 1259 4147 
z
" transform="scale(0.015625)"/>
       <path id="DejaVuSans-65" d="M 3597 1894 
L 3597 1613 
L 953 1613 
Q 991 1019 1311 708 
Q 1631 397 2203 397 
Q 2534 397 2845 478 
Q 3156 559 3463 722 
L 3463 178 
Q 3153 47 2828 -22 
Q 2503 -91 2169 -91 
Q 1331 -91 842 396 
Q 353 884 353 1716 
Q 353 2575 817 3079 
Q 1281 3584 2069 3584 
Q 2775 3584 3186 3129 
Q 3597 2675 3597 1894 
z
M 3022 2063 
Q 3016 2534 2758 2815 
Q 2500 3097 2075 3097 
Q 1594 3097 1305 2825 
Q 1016 2553 972 2059 
L 3022 2063 
z
" transform="scale(0.015625)"/>
       <path id="DejaVuSans-63" d="M 3122 3366 
L 3122 2828 
Q 2878 2963 2633 3030 
Q 2388 3097 2138 3097 
Q 1578 3097 1268 2742 
Q 959 2388 959 1747 
Q 959 1106 1268 751 
Q 1578 397 2138 397 
Q 2388 397 2633 464 
Q 2878 531 3122 666 
L 3122 134 
Q 2881 22 2623 -34 
Q 2366 -91 2075 -91 
Q 1284 -91 818 406 
Q 353 903 353 1747 
Q 353 2603 823 3093 
Q 1294 3584 2113 3584 
Q 2378 3584 2631 3529 
Q 2884 3475 3122 3366 
z
" transform="scale(0.015625)"/>
       <path id="DejaVuSans-2f" d="M 1625 4666 
L 2156 4666 
L 531 -594 
L 0 -594 
L 1625 4666 
z
" transform="scale(0.015625)"/>
      </defs>
      <use xlink:href="#DejaVuSans-50"/>
      <use xlink:href="#DejaVuSans-4d" x="60.302734"/>
      <use xlink:href="#DejaVuSans-46" x="146.582031"/>
      <use xlink:href="#DejaVuSans-2d" x="204.101562"/>
      <use xlink:href="#DejaVuSans-52" x="240.185547"/>
      <use xlink:href="#DejaVuSans-65" x="305.167969"/>
      <use xlink:href="#DejaVuSans-63" x="366.691406"/>
      <use xlink:href="#DejaVuSans-6f" x="421.671875"/>
      <use xlink:href="#DejaVuSans-6e" x="482.853516"/>
      <use xlink:href="#DejaVuSans-73" x="546.232422"/>
      <use xlink:href="#DejaVuSans-20" x="598.332031"/>
      <use xlink:href="#DejaVuSans-28" x="630.119141"/>
      <use xlink:href="#DejaVuSans-6b" x="669.132812"/>
      <use xlink:href="#DejaVuSans-63" x="727.042969"/>
      <use xlink:href="#DejaVuSans-61" x="782.023438"/>
      <use xlink:href="#DejaVuSans-6c" x="843.302734"/>
      <use xlink:href="#DejaVuSans-2f" x="871.085938"/>
      <use xlink:href="#DejaVuSans-6d" x="904.777344"/>
      <use xlink:href="#DejaVuSans-6f" x="1002.189453"/>
      <use xlink:href="#DejaVuSans-6c" x="1063.371094"/>
      <use xlink:href="#DejaVuSans-29" x="1091.154297"/>
     </g>
    </g>
   </g>
   <g id="line2d_40">
    <path d="M 531.220045 398.601765 
L 533.056523 398.512765 
L 534.893 398.271007 
L 536.729477 397.90192 
L 538.565955 397.405359 
L 540.402432 396.780065 
L 542.23891 396.023839 
L 544.075387 395.1337 
L 545.911865 394.106051 
L 547.748342 392.936837 
L 549.584819 391.621701 
L 551.421297 390.156148 
L 553.257774 388.535697 
L 555.094252 386.75604 
L 556.930729 384.813197 
L 558.767206 382.703663 
L 562.440161 377.973713 
L 566.113116 372.552751 
L 569.786071 366.442697 
L 573.459026 359.663153 
L 577.131981 352.252332 
L 580.804936 344.266506 
L 584.47789 335.778104 
L 589.987323 322.293193 
L 597.333232 303.423108 
L 608.352097 274.860038 
L 613.861529 261.158227 
L 619.370961 248.212689 
L 623.043916 240.116693 
L 626.716871 232.516711 
L 630.389826 225.463151 
L 634.062781 218.999584 
L 637.735736 213.163307 
L 641.40869 207.985911 
L 645.081645 203.493823 
L 646.918123 201.511737 
L 648.7546 199.708792 
L 650.591078 198.087048 
L 652.427555 196.648321 
L 654.264032 195.394194 
L 656.10051 194.326027 
L 657.936987 193.444961 
L 659.773465 192.75193 
L 661.609942 192.247659 
L 663.446419 191.932674 
L 665.282897 191.807303 
L 667.119374 191.871675 
L 668.955852 192.125725 
L 670.792329 192.569191 
L 672.628807 193.201615 
L 674.465284 194.022336 
L 676.301761 195.030493 
L 678.138239 196.225012 
L 679.974716 197.604607 
L 681.811194 199.167771 
L 683.647671 200.912765 
L 685.484148 202.837613 
L 687.320626 204.940089 
L 690.993581 209.667704 
L 694.666536 215.072354 
L 698.33949 221.12595 
L 702.012445 227.795068 
L 705.6854 235.040391 
L 709.358355 242.816149 
L 713.03131 251.069554 
L 718.540742 264.211243 
L 724.050174 278.053452 
L 735.069039 306.698125 
L 742.414949 325.459392 
L 747.924381 338.778808 
L 751.597336 347.121913 
L 755.27029 354.939814 
L 758.943245 362.166109 
L 762.6162 368.751558 
L 766.289155 374.665616 
L 769.96211 379.896588 
L 773.635065 384.450325 
L 777.30802 388.347643 
L 780.980974 391.620726 
L 782.817452 393.035312 
L 784.653929 394.3089 
L 788.326884 396.454126 
L 791.999839 398.096474 
L 795.672794 399.269707 
L 799.345749 399.996956 
L 801.182226 400.196575 
L 803.018703 400.269091 
L 803.018703 400.269091 
" clip-path="url(#pfdf17380ca)" style="fill: none; stroke: #1f77b4; stroke-width: 1.5; stroke-linecap: square"/>
   </g>
   <g id="line2d_41">
    <path d="M 529.383568 398.2649 
L 531.220045 398.216461 
L 533.056523 398.040664 
L 534.893 397.707977 
L 536.729477 397.219415 
L 538.565955 396.57446 
L 540.402432 395.771283 
L 542.23891 394.806945 
L 544.075387 393.677599 
L 545.911865 392.37869 
L 547.748342 390.905142 
L 549.584819 389.251562 
L 551.421297 387.412426 
L 553.257774 385.382277 
L 555.094252 383.155915 
L 556.930729 380.728583 
L 558.767206 378.096149 
L 560.603684 375.255276 
L 564.276639 368.939765 
L 567.949594 361.7768 
L 571.622548 353.781904 
L 575.295503 344.993192 
L 578.968458 335.471377 
L 582.641413 325.298032 
L 586.314368 314.572402 
L 591.8238 297.697528 
L 601.006187 268.506071 
L 608.352097 245.303635 
L 613.861529 228.584789 
L 617.534484 217.948774 
L 621.207439 207.820028 
L 624.880394 198.272848 
L 628.553348 189.372307 
L 632.226303 181.174854 
L 635.899258 173.728991 
L 639.572213 167.07597 
L 643.245168 161.250479 
L 645.081645 158.657255 
L 646.918123 156.281258 
L 648.7546 154.125244 
L 650.591078 152.19166 
L 652.427555 150.482662 
L 654.264032 149.000123 
L 656.10051 147.745643 
L 657.936987 146.720558 
L 659.773465 145.925952 
L 661.609942 145.362653 
L 663.446419 145.03125 
L 665.282897 144.932084 
L 667.119374 145.06526 
L 668.955852 145.430642 
L 670.792329 146.027853 
L 672.628807 146.856274 
L 674.465284 147.91504 
L 676.301761 149.203037 
L 678.138239 150.71889 
L 679.974716 152.460965 
L 681.811194 154.427349 
L 683.647671 156.61585 
L 685.484148 159.023978 
L 687.320626 161.648937 
L 689.157103 164.487605 
L 692.830058 170.791884 
L 696.503013 177.904777 
L 700.175968 185.787959 
L 703.848923 194.396158 
L 707.521878 203.676469 
L 711.194832 213.567651 
L 714.867787 223.999502 
L 720.377219 240.484069 
L 727.723129 263.530692 
L 740.578471 304.294078 
L 746.087903 320.860402 
L 749.760858 331.300858 
L 753.433813 341.134268 
L 757.106768 350.271992 
L 760.779723 358.645286 
L 764.452678 366.207785 
L 768.125632 372.936363 
L 771.798587 378.830219 
L 773.635065 381.46937 
L 775.471542 383.908275 
L 777.30802 386.151727 
L 779.144497 388.205198 
L 780.980974 390.074669 
L 782.817452 391.766459 
L 784.653929 393.287046 
L 786.490407 394.642895 
L 788.326884 395.840285 
L 790.163361 396.88514 
L 791.999839 397.782859 
L 793.836316 398.538156 
L 795.672794 399.15489 
L 797.509271 399.635904 
L 799.345749 399.982849 
L 801.182226 400.19601 
L 803.018703 400.269091 
L 803.018703 400.269091 
" clip-path="url(#pfdf17380ca)" style="fill: none; stroke: #ff7f0e; stroke-width: 1.5; stroke-linecap: square"/>
   </g>
   <g id="line2d_42">
    <path d="M 529.383568 397.939192 
L 531.220045 397.870441 
L 533.056523 397.642013 
L 534.893 397.232682 
L 536.729477 396.643357 
L 538.565955 395.873215 
L 540.402432 394.919947 
L 542.23891 393.78 
L 544.075387 392.448801 
L 545.911865 390.920989 
L 547.748342 389.190637 
L 549.584819 387.25148 
L 551.421297 385.097135 
L 553.257774 382.721326 
L 555.094252 380.118104 
L 556.930729 377.282065 
L 558.767206 374.208552 
L 560.603684 370.893856 
L 562.440161 367.33539 
L 566.113116 359.483372 
L 569.786071 350.659761 
L 573.459026 340.897275 
L 577.131981 330.25499 
L 580.804936 318.817176 
L 584.47789 306.690267 
L 589.987323 287.483041 
L 597.333232 260.710319 
L 608.352097 220.388585 
L 613.861529 201.127771 
L 617.534484 188.885281 
L 621.207439 177.234995 
L 624.880394 166.261894 
L 628.553348 156.040355 
L 632.226303 146.634853 
L 635.899258 138.100747 
L 639.572213 130.485087 
L 641.40869 127.034299 
L 643.245168 123.827397 
L 645.081645 120.86826 
L 646.918123 118.160387 
L 648.7546 115.706905 
L 650.591078 113.510592 
L 652.427555 111.573888 
L 654.264032 109.89891 
L 656.10051 108.487461 
L 657.936987 107.341043 
L 659.773465 106.460862 
L 661.609942 105.847839 
L 663.446419 105.50261 
L 665.282897 105.425532 
L 667.119374 105.616687 
L 668.955852 106.075879 
L 670.792329 106.802635 
L 672.628807 107.796202 
L 674.465284 109.05554 
L 676.301761 110.579324 
L 678.138239 112.365926 
L 679.974716 114.413414 
L 681.811194 116.71954 
L 683.647671 119.281726 
L 685.484148 122.09705 
L 687.320626 125.162234 
L 689.157103 128.473624 
L 692.830058 135.818426 
L 696.503013 144.094005 
L 700.175968 153.255602 
L 703.848923 163.250389 
L 707.521878 174.016668 
L 711.194832 185.483072 
L 714.867787 197.567837 
L 720.377219 216.648469 
L 727.723129 243.293972 
L 740.578471 290.333301 
L 746.087903 309.413267 
L 749.760858 321.425002 
L 753.433813 332.728113 
L 757.106768 343.221643 
L 760.779723 352.82787 
L 764.452678 361.495054 
L 768.125632 369.198298 
L 769.96211 372.687748 
L 771.798587 375.938351 
L 773.635065 378.953694 
L 775.471542 381.738485 
L 777.30802 384.298382 
L 779.144497 386.639798 
L 780.980974 388.769709 
L 782.817452 390.69545 
L 784.653929 392.424515 
L 786.490407 393.964356 
L 788.326884 395.322178 
L 790.163361 396.504753 
L 791.999839 397.518218 
L 793.836316 398.367892 
L 795.672794 399.058082 
L 797.509271 399.591892 
L 799.345749 399.971022 
L 801.182226 400.195564 
L 803.018703 400.269091 
L 803.018703 400.269091 
" clip-path="url(#pfdf17380ca)" style="fill: none; stroke: #2ca02c; stroke-width: 1.5; stroke-linecap: square"/>
   </g>
   <g id="line2d_43">
    <path d="M 529.383568 397.651884 
L 531.220045 397.565257 
L 533.056523 397.290483 
L 534.893 396.813621 
L 536.729477 396.13549 
L 538.565955 395.254999 
L 540.402432 394.169422 
L 542.23891 392.874663 
L 544.075387 391.365514 
L 545.911865 389.635908 
L 547.748342 387.679168 
L 549.584819 385.488263 
L 551.421297 383.056055 
L 553.257774 380.37555 
L 555.094252 377.440142 
L 556.930729 374.243857 
L 558.767206 370.781581 
L 560.603684 367.049278 
L 562.440161 363.044187 
L 566.113116 354.212021 
L 569.786071 344.29454 
L 573.459026 333.32977 
L 577.131981 321.385219 
L 580.804936 308.556447 
L 584.47789 294.963591 
L 589.987323 273.451143 
L 597.333232 243.49529 
L 608.352097 198.437852 
L 613.861529 176.938357 
L 617.534484 163.281092 
L 621.207439 150.290847 
L 624.880394 138.062006 
L 628.553348 126.677139 
L 632.226303 116.207783 
L 635.899258 106.715335 
L 639.572213 98.251946 
L 641.40869 94.420136 
L 643.245168 90.8614 
L 645.081645 87.580033 
L 646.918123 84.579902 
L 648.7546 81.864464 
L 650.591078 79.436787 
L 652.427555 77.299561 
L 654.264032 75.455118 
L 656.10051 73.905441 
L 657.936987 72.652176 
L 659.773465 71.69664 
L 661.609942 71.03983 
L 663.446419 70.682428 
L 665.282897 70.624805 
L 667.119374 70.867021 
L 668.955852 71.408828 
L 670.792329 72.249668 
L 672.628807 73.388669 
L 674.465284 74.824641 
L 676.301761 76.556068 
L 678.138239 78.581103 
L 679.974716 80.897552 
L 681.811194 83.502869 
L 683.647671 86.394138 
L 685.484148 89.568057 
L 687.320626 93.020924 
L 689.157103 96.748616 
L 692.830058 105.009755 
L 696.503013 114.309258 
L 700.175968 124.596704 
L 703.848923 135.812613 
L 707.521878 147.887548 
L 711.194832 160.741227 
L 714.867787 174.281709 
L 720.377219 195.648737 
L 727.723129 225.46395 
L 740.578471 278.031269 
L 746.087903 299.325536 
L 749.760858 312.721524 
L 753.433813 325.319476 
L 757.106768 337.007584 
L 760.779723 347.700205 
L 764.452678 357.340853 
L 768.125632 365.903058 
L 769.96211 369.779371 
L 771.798587 373.388923 
L 773.635065 376.735852 
L 775.471542 379.825533 
L 777.30802 382.664381 
L 779.144497 385.259637 
L 780.980974 387.619151 
L 782.817452 389.751154 
L 784.653929 391.664031 
L 786.490407 393.3661 
L 788.326884 394.865383 
L 790.163361 396.169396 
L 791.999839 397.284925 
L 793.836316 398.21782 
L 795.672794 398.972781 
L 797.509271 399.553138 
L 799.345749 399.960634 
L 801.182226 400.195187 
L 803.018703 400.269091 
L 803.018703 400.269091 
" clip-path="url(#pfdf17380ca)" style="fill: none; stroke: #d62728; stroke-width: 1.5; stroke-linecap: square"/>
   </g>
   <g id="patch_9">
    <path d="M 504.8 416.76 
L 504.8 53.96 
" style="fill: none; stroke: #000000; stroke-width: 0.8; stroke-linejoin: miter; stroke-linecap: square"/>
   </g>
   <g id="patch_10">
    <path d="M 856 416.76 
L 856 53.96 
" style="fill: none; stroke: #000000; stroke-width: 0.8; stroke-linejoin: miter; stroke-linecap: square"/>
   </g>
   <g id="patch_11">
    <path d="M 504.8 416.76 
L 856 416.76 
" style="fill: none; stroke: #000000; stroke-width: 0.8; stroke-linejoin: miter; stroke-linecap: square"/>
   </g>
   <g id="patch_12">
    <path d="M 504.8 53.96 
L 856 53.96 
" style="fill: none; stroke: #000000; stroke-width: 0.8; stroke-linejoin: miter; stroke-linecap: square"/>
   </g>
   <g id="text_42">
    <!-- PMF-RE -->
    <g transform="translate(658.029375 47.96) scale(0.12 -0.12)">
     <defs>
      <path id="DejaVuSans-45" d="M 628 4666 
L 3578 4666 
L 3578 4134 
L 1259 4134 
L 1259 2753 
L 3481 2753 
L 3481 2222 
L 1259 2222 
L 1259 531 
L 3634 531 
L 3634 0 
L 628 0 
L 628 4666 
z
" transform="scale(0.015625)"/>
     </defs>
     <use xlink:href="#DejaVuSans-50"/>
     <use xlink:href="#DejaVuSans-4d" x="60.302734"/>
     <use xlink:href="#DejaVuSans-46" x="146.582031"/>
     <use xlink:href="#DejaVuSans-2d" x="204.101562"/>
     <use xlink:href="#DejaVuSans-52" x="240.185547"/>
     <use xlink:href="#DejaVuSans-45" x="309.667969"/>
    </g>
   </g>
  </g>
 </g>
 <defs>
  <clipPath id="p7638c8277a">
   <rect x="72.84" y="53.96" width="351.2" height="362.8"/>
  </clipPath>
  <clipPath id="pfdf17380ca">
   <rect x="504.8" y="53.96" width="351.2" height="362.8"/>
  </clipPath>
 </defs>
</svg>
