<?xml version="1.0" encoding="utf-8" standalone="no"?>
<!DOCTYPE svg PUBLIC "-//W3C//DTD SVG 1.1//EN"
  "http://www.w3.org/Graphics/SVG/1.1/DTD/svg11.dtd">
<svg xmlns:xlink="http://www.w3.org/1999/xlink" width="460.8pt" height="345.6pt" viewBox="0 0 460.8 345.6" xmlns="http://www.w3.org/2000/svg" version="1.1">
 <metadata>
  <rdf:RDF xmlns:dc="http://purl.org/dc/elements/1.1/" xmlns:cc="http://creativecommons.org/ns#" xmlns:rdf="http://www.w3.org/1999/02/22-rdf-syntax-ns#">
   <cc:Work>
    <dc:type rdf:resource="http://purl.org/dc/dcmitype/StillImage"/>
    <dc:date>2024-09-17T12:59:16.791849</dc:date>
    <dc:format>image/svg+xml</dc:format>
    <dc:creator>
     <cc:Agent>
      <dc:title>Matplotlib v3.9.0, https://matplotlib.org/</dc:title>
     </cc:Agent>
    </dc:creator>
   </cc:Work>
  </rdf:RDF>
 </metadata>
 <defs>
  <style type="text/css">*{stroke-linejoin: round; stroke-linecap: butt}</style>
 </defs>
 <g id="figure_1">
  <g id="patch_1">
   <path d="M 0 345.6 
L 460.8 345.6 
L 460.8 0 
L 0 0 
z
" style="fill: #ffffff"/>
  </g>
  <g id="axes_1">
   <g id="patch_2">
    <path d="M 57.6 307.584 
L 414.72 307.584 
L 414.72 41.472 
L 57.6 41.472 
z
" style="fill: #ffffff"/>
   </g>
   <g id="PathCollection_1">
    <defs>
     <path id="mdac3cabb1d" d="M 0 3 
C 0.795609 3 1.55874 2.683901 2.12132 2.12132 
C 2.683901 1.55874 3 0.795609 3 0 
C 3 -0.795609 2.683901 -1.55874 2.12132 -2.12132 
C 1.55874 -2.683901 0.795609 -3 0 -3 
C -0.795609 -3 -1.55874 -2.683901 -2.12132 -2.12132 
C -2.683901 -1.55874 -3 -0.795609 -3 0 
C -3 0.795609 -2.683901 1.55874 -2.12132 2.12132 
C -1.55874 2.683901 -0.795609 3 0 3 
z
" style="stroke: #000000"/>
    </defs>
    <g clip-path="url(#p443aa38ef1)">
     <use xlink:href="#mdac3cabb1d" x="106.960981" y="281.466667" style="stroke: #000000"/>
     <use xlink:href="#mdac3cabb1d" x="127.219916" y="295.488" style="stroke: #000000"/>
     <use xlink:href="#mdac3cabb1d" x="167.737785" y="214.34752" style="stroke: #000000"/>
     <use xlink:href="#mdac3cabb1d" x="187.99672" y="120.394941" style="stroke: #000000"/>
     <use xlink:href="#mdac3cabb1d" x="208.255654" y="53.568" style="stroke: #000000"/>
     <use xlink:href="#mdac3cabb1d" x="228.514589" y="54.529018" style="stroke: #000000"/>
     <use xlink:href="#mdac3cabb1d" x="248.773524" y="71.94728" style="stroke: #000000"/>
     <use xlink:href="#mdac3cabb1d" x="269.032458" y="91.61215" style="stroke: #000000"/>
     <use xlink:href="#mdac3cabb1d" x="289.291393" y="154.621939" style="stroke: #000000"/>
     <use xlink:href="#mdac3cabb1d" x="309.550328" y="215.571091" style="stroke: #000000"/>
     <use xlink:href="#mdac3cabb1d" x="370.327132" y="272.175228" style="stroke: #000000"/>
     <use xlink:href="#mdac3cabb1d" x="390.586067" y="236.861068" style="stroke: #000000"/>
    </g>
   </g>
   <g id="matplotlib.axis_1">
    <g id="xtick_1">
     <g id="line2d_1">
      <defs>
       <path id="mf80d442174" d="M 0 0 
L 0 3.5 
" style="stroke: #000000; stroke-width: 0.8"/>
      </defs>
      <g>
       <use xlink:href="#mf80d442174" x="60.756409" y="307.584" style="stroke: #000000; stroke-width: 0.8"/>
      </g>
     </g>
     <g id="text_1">
      <!-- 24 -->
      <g transform="translate(54.393909 322.182437) scale(0.1 -0.1)">
       <defs>
        <path id="DejaVuSans-32" d="M 1228 531 
L 3431 531 
L 3431 0 
L 469 0 
L 469 531 
Q 828 903 1448 1529 
Q 2069 2156 2228 2338 
Q 2531 2678 2651 2914 
Q 2772 3150 2772 3378 
Q 2772 3750 2511 3984 
Q 2250 4219 1831 4219 
Q 1534 4219 1204 4116 
Q 875 4013 500 3803 
L 500 4441 
Q 881 4594 1212 4672 
Q 1544 4750 1819 4750 
Q 2544 4750 2975 4387 
Q 3406 4025 3406 3419 
Q 3406 3131 3298 2873 
Q 3191 2616 2906 2266 
Q 2828 2175 2409 1742 
Q 1991 1309 1228 531 
z
" transform="scale(0.015625)"/>
        <path id="DejaVuSans-34" d="M 2419 4116 
L 825 1625 
L 2419 1625 
L 2419 4116 
z
M 2253 4666 
L 3047 4666 
L 3047 1625 
L 3713 1625 
L 3713 1100 
L 3047 1100 
L 3047 0 
L 2419 0 
L 2419 1100 
L 313 1100 
L 313 1709 
L 2253 4666 
z
" transform="scale(0.015625)"/>
       </defs>
       <use xlink:href="#DejaVuSans-32"/>
       <use xlink:href="#DejaVuSans-34" x="63.623047"/>
      </g>
     </g>
    </g>
    <g id="xtick_2">
     <g id="line2d_2">
      <g>
       <use xlink:href="#mf80d442174" x="101.798047" y="307.584" style="stroke: #000000; stroke-width: 0.8"/>
      </g>
     </g>
     <g id="text_2">
      <!-- 26 -->
      <g transform="translate(95.435547 322.182437) scale(0.1 -0.1)">
       <defs>
        <path id="DejaVuSans-36" d="M 2113 2584 
Q 1688 2584 1439 2293 
Q 1191 2003 1191 1497 
Q 1191 994 1439 701 
Q 1688 409 2113 409 
Q 2538 409 2786 701 
Q 3034 994 3034 1497 
Q 3034 2003 2786 2293 
Q 2538 2584 2113 2584 
z
M 3366 4563 
L 3366 3988 
Q 3128 4100 2886 4159 
Q 2644 4219 2406 4219 
Q 1781 4219 1451 3797 
Q 1122 3375 1075 2522 
Q 1259 2794 1537 2939 
Q 1816 3084 2150 3084 
Q 2853 3084 3261 2657 
Q 3669 2231 3669 1497 
Q 3669 778 3244 343 
Q 2819 -91 2113 -91 
Q 1303 -91 875 529 
Q 447 1150 447 2328 
Q 447 3434 972 4092 
Q 1497 4750 2381 4750 
Q 2619 4750 2861 4703 
Q 3103 4656 3366 4563 
z
" transform="scale(0.015625)"/>
       </defs>
       <use xlink:href="#DejaVuSans-32"/>
       <use xlink:href="#DejaVuSans-36" x="63.623047"/>
      </g>
     </g>
    </g>
    <g id="xtick_3">
     <g id="line2d_3">
      <g>
       <use xlink:href="#mf80d442174" x="142.839684" y="307.584" style="stroke: #000000; stroke-width: 0.8"/>
      </g>
     </g>
     <g id="text_3">
      <!-- 28 -->
      <g transform="translate(136.477184 322.182437) scale(0.1 -0.1)">
       <defs>
        <path id="DejaVuSans-38" d="M 2034 2216 
Q 1584 2216 1326 1975 
Q 1069 1734 1069 1313 
Q 1069 891 1326 650 
Q 1584 409 2034 409 
Q 2484 409 2743 651 
Q 3003 894 3003 1313 
Q 3003 1734 2745 1975 
Q 2488 2216 2034 2216 
z
M 1403 2484 
Q 997 2584 770 2862 
Q 544 3141 544 3541 
Q 544 4100 942 4425 
Q 1341 4750 2034 4750 
Q 2731 4750 3128 4425 
Q 3525 4100 3525 3541 
Q 3525 3141 3298 2862 
Q 3072 2584 2669 2484 
Q 3125 2378 3379 2068 
Q 3634 1759 3634 1313 
Q 3634 634 3220 271 
Q 2806 -91 2034 -91 
Q 1263 -91 848 271 
Q 434 634 434 1313 
Q 434 1759 690 2068 
Q 947 2378 1403 2484 
z
M 1172 3481 
Q 1172 3119 1398 2916 
Q 1625 2713 2034 2713 
Q 2441 2713 2670 2916 
Q 2900 3119 2900 3481 
Q 2900 3844 2670 4047 
Q 2441 4250 2034 4250 
Q 1625 4250 1398 4047 
Q 1172 3844 1172 3481 
z
" transform="scale(0.015625)"/>
       </defs>
       <use xlink:href="#DejaVuSans-32"/>
       <use xlink:href="#DejaVuSans-38" x="63.623047"/>
      </g>
     </g>
    </g>
    <g id="xtick_4">
     <g id="line2d_4">
      <g>
       <use xlink:href="#mf80d442174" x="183.881321" y="307.584" style="stroke: #000000; stroke-width: 0.8"/>
      </g>
     </g>
     <g id="text_4">
      <!-- 30 -->
      <g transform="translate(177.518821 322.182437) scale(0.1 -0.1)">
       <defs>
        <path id="DejaVuSans-33" d="M 2597 2516 
Q 3050 2419 3304 2112 
Q 3559 1806 3559 1356 
Q 3559 666 3084 287 
Q 2609 -91 1734 -91 
Q 1441 -91 1130 -33 
Q 819 25 488 141 
L 488 750 
Q 750 597 1062 519 
Q 1375 441 1716 441 
Q 2309 441 2620 675 
Q 2931 909 2931 1356 
Q 2931 1769 2642 2001 
Q 2353 2234 1838 2234 
L 1294 2234 
L 1294 2753 
L 1863 2753 
Q 2328 2753 2575 2939 
Q 2822 3125 2822 3475 
Q 2822 3834 2567 4026 
Q 2313 4219 1838 4219 
Q 1578 4219 1281 4162 
Q 984 4106 628 3988 
L 628 4550 
Q 988 4650 1302 4700 
Q 1616 4750 1894 4750 
Q 2613 4750 3031 4423 
Q 3450 4097 3450 3541 
Q 3450 3153 3228 2886 
Q 3006 2619 2597 2516 
z
" transform="scale(0.015625)"/>
        <path id="DejaVuSans-30" d="M 2034 4250 
Q 1547 4250 1301 3770 
Q 1056 3291 1056 2328 
Q 1056 1369 1301 889 
Q 1547 409 2034 409 
Q 2525 409 2770 889 
Q 3016 1369 3016 2328 
Q 3016 3291 2770 3770 
Q 2525 4250 2034 4250 
z
M 2034 4750 
Q 2819 4750 3233 4129 
Q 3647 3509 3647 2328 
Q 3647 1150 3233 529 
Q 2819 -91 2034 -91 
Q 1250 -91 836 529 
Q 422 1150 422 2328 
Q 422 3509 836 4129 
Q 1250 4750 2034 4750 
z
" transform="scale(0.015625)"/>
       </defs>
       <use xlink:href="#DejaVuSans-33"/>
       <use xlink:href="#DejaVuSans-30" x="63.623047"/>
      </g>
     </g>
    </g>
    <g id="xtick_5">
     <g id="line2d_5">
      <g>
       <use xlink:href="#mf80d442174" x="224.922959" y="307.584" style="stroke: #000000; stroke-width: 0.8"/>
      </g>
     </g>
     <g id="text_5">
      <!-- 32 -->
      <g transform="translate(218.560459 322.182437) scale(0.1 -0.1)">
       <use xlink:href="#DejaVuSans-33"/>
       <use xlink:href="#DejaVuSans-32" x="63.623047"/>
      </g>
     </g>
    </g>
    <g id="xtick_6">
     <g id="line2d_6">
      <g>
       <use xlink:href="#mf80d442174" x="265.964596" y="307.584" style="stroke: #000000; stroke-width: 0.8"/>
      </g>
     </g>
     <g id="text_6">
      <!-- 34 -->
      <g transform="translate(259.602096 322.182437) scale(0.1 -0.1)">
       <use xlink:href="#DejaVuSans-33"/>
       <use xlink:href="#DejaVuSans-34" x="63.623047"/>
      </g>
     </g>
    </g>
    <g id="xtick_7">
     <g id="line2d_7">
      <g>
       <use xlink:href="#mf80d442174" x="307.006233" y="307.584" style="stroke: #000000; stroke-width: 0.8"/>
      </g>
     </g>
     <g id="text_7">
      <!-- 36 -->
      <g transform="translate(300.643733 322.182437) scale(0.1 -0.1)">
       <use xlink:href="#DejaVuSans-33"/>
       <use xlink:href="#DejaVuSans-36" x="63.623047"/>
      </g>
     </g>
    </g>
    <g id="xtick_8">
     <g id="line2d_8">
      <g>
       <use xlink:href="#mf80d442174" x="348.047871" y="307.584" style="stroke: #000000; stroke-width: 0.8"/>
      </g>
     </g>
     <g id="text_8">
      <!-- 38 -->
      <g transform="translate(341.685371 322.182437) scale(0.1 -0.1)">
       <use xlink:href="#DejaVuSans-33"/>
       <use xlink:href="#DejaVuSans-38" x="63.623047"/>
      </g>
     </g>
    </g>
    <g id="xtick_9">
     <g id="line2d_9">
      <g>
       <use xlink:href="#mf80d442174" x="389.089508" y="307.584" style="stroke: #000000; stroke-width: 0.8"/>
      </g>
     </g>
     <g id="text_9">
      <!-- 40 -->
      <g transform="translate(382.727008 322.182437) scale(0.1 -0.1)">
       <use xlink:href="#DejaVuSans-34"/>
       <use xlink:href="#DejaVuSans-30" x="63.623047"/>
      </g>
     </g>
    </g>
    <g id="text_10">
     <!-- x (A) -->
     <g transform="translate(224.289687 335.860562) scale(0.1 -0.1)">
      <defs>
       <path id="DejaVuSans-78" d="M 3513 3500 
L 2247 1797 
L 3578 0 
L 2900 0 
L 1881 1375 
L 863 0 
L 184 0 
L 1544 1831 
L 300 3500 
L 978 3500 
L 1906 2253 
L 2834 3500 
L 3513 3500 
z
" transform="scale(0.015625)"/>
       <path id="DejaVuSans-20" transform="scale(0.015625)"/>
       <path id="DejaVuSans-28" d="M 1984 4856 
Q 1566 4138 1362 3434 
Q 1159 2731 1159 2009 
Q 1159 1288 1364 580 
Q 1569 -128 1984 -844 
L 1484 -844 
Q 1016 -109 783 600 
Q 550 1309 550 2009 
Q 550 2706 781 3412 
Q 1013 4119 1484 4856 
L 1984 4856 
z
" transform="scale(0.015625)"/>
       <path id="DejaVuSans-41" d="M 2188 4044 
L 1331 1722 
L 3047 1722 
L 2188 4044 
z
M 1831 4666 
L 2547 4666 
L 4325 0 
L 3669 0 
L 3244 1197 
L 1141 1197 
L 716 0 
L 50 0 
L 1831 4666 
z
" transform="scale(0.015625)"/>
       <path id="DejaVuSans-29" d="M 513 4856 
L 1013 4856 
Q 1481 4119 1714 3412 
Q 1947 2706 1947 2009 
Q 1947 1309 1714 600 
Q 1481 -109 1013 -844 
L 513 -844 
Q 928 -128 1133 580 
Q 1338 1288 1338 2009 
Q 1338 2731 1133 3434 
Q 928 4138 513 4856 
z
" transform="scale(0.015625)"/>
      </defs>
      <use xlink:href="#DejaVuSans-78"/>
      <use xlink:href="#DejaVuSans-20" x="59.179688"/>
      <use xlink:href="#DejaVuSans-28" x="90.966797"/>
      <use xlink:href="#DejaVuSans-41" x="129.980469"/>
      <use xlink:href="#DejaVuSans-29" x="198.388672"/>
     </g>
    </g>
   </g>
   <g id="matplotlib.axis_2">
    <g id="ytick_1">
     <g id="line2d_10">
      <defs>
       <path id="m553e842d24" d="M 0 0 
L -3.5 0 
" style="stroke: #000000; stroke-width: 0.8"/>
      </defs>
      <g>
       <use xlink:href="#m553e842d24" x="57.6" y="295.488" style="stroke: #000000; stroke-width: 0.8"/>
      </g>
     </g>
     <g id="text_11">
      <!-- 0.00 -->
      <g transform="translate(28.334375 299.287219) scale(0.1 -0.1)">
       <defs>
        <path id="DejaVuSans-2e" d="M 684 794 
L 1344 794 
L 1344 0 
L 684 0 
L 684 794 
z
" transform="scale(0.015625)"/>
       </defs>
       <use xlink:href="#DejaVuSans-30"/>
       <use xlink:href="#DejaVuSans-2e" x="63.623047"/>
       <use xlink:href="#DejaVuSans-30" x="95.410156"/>
       <use xlink:href="#DejaVuSans-30" x="159.033203"/>
      </g>
     </g>
    </g>
    <g id="ytick_2">
     <g id="line2d_11">
      <g>
       <use xlink:href="#m553e842d24" x="57.6" y="263.964368" style="stroke: #000000; stroke-width: 0.8"/>
      </g>
     </g>
     <g id="text_12">
      <!-- 0.25 -->
      <g transform="translate(28.334375 267.763587) scale(0.1 -0.1)">
       <defs>
        <path id="DejaVuSans-35" d="M 691 4666 
L 3169 4666 
L 3169 4134 
L 1269 4134 
L 1269 2991 
Q 1406 3038 1543 3061 
Q 1681 3084 1819 3084 
Q 2600 3084 3056 2656 
Q 3513 2228 3513 1497 
Q 3513 744 3044 326 
Q 2575 -91 1722 -91 
Q 1428 -91 1123 -41 
Q 819 9 494 109 
L 494 744 
Q 775 591 1075 516 
Q 1375 441 1709 441 
Q 2250 441 2565 725 
Q 2881 1009 2881 1497 
Q 2881 1984 2565 2268 
Q 2250 2553 1709 2553 
Q 1456 2553 1204 2497 
Q 953 2441 691 2322 
L 691 4666 
z
" transform="scale(0.015625)"/>
       </defs>
       <use xlink:href="#DejaVuSans-30"/>
       <use xlink:href="#DejaVuSans-2e" x="63.623047"/>
       <use xlink:href="#DejaVuSans-32" x="95.410156"/>
       <use xlink:href="#DejaVuSans-35" x="159.033203"/>
      </g>
     </g>
    </g>
    <g id="ytick_3">
     <g id="line2d_12">
      <g>
       <use xlink:href="#m553e842d24" x="57.6" y="232.440736" style="stroke: #000000; stroke-width: 0.8"/>
      </g>
     </g>
     <g id="text_13">
      <!-- 0.50 -->
      <g transform="translate(28.334375 236.239955) scale(0.1 -0.1)">
       <use xlink:href="#DejaVuSans-30"/>
       <use xlink:href="#DejaVuSans-2e" x="63.623047"/>
       <use xlink:href="#DejaVuSans-35" x="95.410156"/>
       <use xlink:href="#DejaVuSans-30" x="159.033203"/>
      </g>
     </g>
    </g>
    <g id="ytick_4">
     <g id="line2d_13">
      <g>
       <use xlink:href="#m553e842d24" x="57.6" y="200.917104" style="stroke: #000000; stroke-width: 0.8"/>
      </g>
     </g>
     <g id="text_14">
      <!-- 0.75 -->
      <g transform="translate(28.334375 204.716323) scale(0.1 -0.1)">
       <defs>
        <path id="DejaVuSans-37" d="M 525 4666 
L 3525 4666 
L 3525 4397 
L 1831 0 
L 1172 0 
L 2766 4134 
L 525 4134 
L 525 4666 
z
" transform="scale(0.015625)"/>
       </defs>
       <use xlink:href="#DejaVuSans-30"/>
       <use xlink:href="#DejaVuSans-2e" x="63.623047"/>
       <use xlink:href="#DejaVuSans-37" x="95.410156"/>
       <use xlink:href="#DejaVuSans-35" x="159.033203"/>
      </g>
     </g>
    </g>
    <g id="ytick_5">
     <g id="line2d_14">
      <g>
       <use xlink:href="#m553e842d24" x="57.6" y="169.393472" style="stroke: #000000; stroke-width: 0.8"/>
      </g>
     </g>
     <g id="text_15">
      <!-- 1.00 -->
      <g transform="translate(28.334375 173.192691) scale(0.1 -0.1)">
       <defs>
        <path id="DejaVuSans-31" d="M 794 531 
L 1825 531 
L 1825 4091 
L 703 3866 
L 703 4441 
L 1819 4666 
L 2450 4666 
L 2450 531 
L 3481 531 
L 3481 0 
L 794 0 
L 794 531 
z
" transform="scale(0.015625)"/>
       </defs>
       <use xlink:href="#DejaVuSans-31"/>
       <use xlink:href="#DejaVuSans-2e" x="63.623047"/>
       <use xlink:href="#DejaVuSans-30" x="95.410156"/>
       <use xlink:href="#DejaVuSans-30" x="159.033203"/>
      </g>
     </g>
    </g>
    <g id="ytick_6">
     <g id="line2d_15">
      <g>
       <use xlink:href="#m553e842d24" x="57.6" y="137.86984" style="stroke: #000000; stroke-width: 0.8"/>
      </g>
     </g>
     <g id="text_16">
      <!-- 1.25 -->
      <g transform="translate(28.334375 141.669058) scale(0.1 -0.1)">
       <use xlink:href="#DejaVuSans-31"/>
       <use xlink:href="#DejaVuSans-2e" x="63.623047"/>
       <use xlink:href="#DejaVuSans-32" x="95.410156"/>
       <use xlink:href="#DejaVuSans-35" x="159.033203"/>
      </g>
     </g>
    </g>
    <g id="ytick_7">
     <g id="line2d_16">
      <g>
       <use xlink:href="#m553e842d24" x="57.6" y="106.346208" style="stroke: #000000; stroke-width: 0.8"/>
      </g>
     </g>
     <g id="text_17">
      <!-- 1.50 -->
      <g transform="translate(28.334375 110.145426) scale(0.1 -0.1)">
       <use xlink:href="#DejaVuSans-31"/>
       <use xlink:href="#DejaVuSans-2e" x="63.623047"/>
       <use xlink:href="#DejaVuSans-35" x="95.410156"/>
       <use xlink:href="#DejaVuSans-30" x="159.033203"/>
      </g>
     </g>
    </g>
    <g id="ytick_8">
     <g id="line2d_17">
      <g>
       <use xlink:href="#m553e842d24" x="57.6" y="74.822576" style="stroke: #000000; stroke-width: 0.8"/>
      </g>
     </g>
     <g id="text_18">
      <!-- 1.75 -->
      <g transform="translate(28.334375 78.621794) scale(0.1 -0.1)">
       <use xlink:href="#DejaVuSans-31"/>
       <use xlink:href="#DejaVuSans-2e" x="63.623047"/>
       <use xlink:href="#DejaVuSans-37" x="95.410156"/>
       <use xlink:href="#DejaVuSans-35" x="159.033203"/>
      </g>
     </g>
    </g>
    <g id="ytick_9">
     <g id="line2d_18">
      <g>
       <use xlink:href="#m553e842d24" x="57.6" y="43.298944" style="stroke: #000000; stroke-width: 0.8"/>
      </g>
     </g>
     <g id="text_19">
      <!-- 2.00 -->
      <g transform="translate(28.334375 47.098162) scale(0.1 -0.1)">
       <use xlink:href="#DejaVuSans-32"/>
       <use xlink:href="#DejaVuSans-2e" x="63.623047"/>
       <use xlink:href="#DejaVuSans-30" x="95.410156"/>
       <use xlink:href="#DejaVuSans-30" x="159.033203"/>
      </g>
     </g>
    </g>
    <g id="text_20">
     <!-- PMF Imposed (kcal/mol) -->
     <g transform="translate(22.254687 234.347531) rotate(-90) scale(0.1 -0.1)">
      <defs>
       <path id="DejaVuSans-50" d="M 1259 4147 
L 1259 2394 
L 2053 2394 
Q 2494 2394 2734 2622 
Q 2975 2850 2975 3272 
Q 2975 3691 2734 3919 
Q 2494 4147 2053 4147 
L 1259 4147 
z
M 628 4666 
L 2053 4666 
Q 2838 4666 3239 4311 
Q 3641 3956 3641 3272 
Q 3641 2581 3239 2228 
Q 2838 1875 2053 1875 
L 1259 1875 
L 1259 0 
L 628 0 
L 628 4666 
z
" transform="scale(0.015625)"/>
       <path id="DejaVuSans-4d" d="M 628 4666 
L 1569 4666 
L 2759 1491 
L 3956 4666 
L 4897 4666 
L 4897 0 
L 4281 0 
L 4281 4097 
L 3078 897 
L 2444 897 
L 1241 4097 
L 1241 0 
L 628 0 
L 628 4666 
z
" transform="scale(0.015625)"/>
       <path id="DejaVuSans-46" d="M 628 4666 
L 3309 4666 
L 3309 4134 
L 1259 4134 
L 1259 2759 
L 3109 2759 
L 3109 2228 
L 1259 2228 
L 1259 0 
L 628 0 
L 628 4666 
z
" transform="scale(0.015625)"/>
       <path id="DejaVuSans-49" d="M 628 4666 
L 1259 4666 
L 1259 0 
L 628 0 
L 628 4666 
z
" transform="scale(0.015625)"/>
       <path id="DejaVuSans-6d" d="M 3328 2828 
Q 3544 3216 3844 3400 
Q 4144 3584 4550 3584 
Q 5097 3584 5394 3201 
Q 5691 2819 5691 2113 
L 5691 0 
L 5113 0 
L 5113 2094 
Q 5113 2597 4934 2840 
Q 4756 3084 4391 3084 
Q 3944 3084 3684 2787 
Q 3425 2491 3425 1978 
L 3425 0 
L 2847 0 
L 2847 2094 
Q 2847 2600 2669 2842 
Q 2491 3084 2119 3084 
Q 1678 3084 1418 2786 
Q 1159 2488 1159 1978 
L 1159 0 
L 581 0 
L 581 3500 
L 1159 3500 
L 1159 2956 
Q 1356 3278 1631 3431 
Q 1906 3584 2284 3584 
Q 2666 3584 2933 3390 
Q 3200 3197 3328 2828 
z
" transform="scale(0.015625)"/>
       <path id="DejaVuSans-70" d="M 1159 525 
L 1159 -1331 
L 581 -1331 
L 581 3500 
L 1159 3500 
L 1159 2969 
Q 1341 3281 1617 3432 
Q 1894 3584 2278 3584 
Q 2916 3584 3314 3078 
Q 3713 2572 3713 1747 
Q 3713 922 3314 415 
Q 2916 -91 2278 -91 
Q 1894 -91 1617 61 
Q 1341 213 1159 525 
z
M 3116 1747 
Q 3116 2381 2855 2742 
Q 2594 3103 2138 3103 
Q 1681 3103 1420 2742 
Q 1159 2381 1159 1747 
Q 1159 1113 1420 752 
Q 1681 391 2138 391 
Q 2594 391 2855 752 
Q 3116 1113 3116 1747 
z
" transform="scale(0.015625)"/>
       <path id="DejaVuSans-6f" d="M 1959 3097 
Q 1497 3097 1228 2736 
Q 959 2375 959 1747 
Q 959 1119 1226 758 
Q 1494 397 1959 397 
Q 2419 397 2687 759 
Q 2956 1122 2956 1747 
Q 2956 2369 2687 2733 
Q 2419 3097 1959 3097 
z
M 1959 3584 
Q 2709 3584 3137 3096 
Q 3566 2609 3566 1747 
Q 3566 888 3137 398 
Q 2709 -91 1959 -91 
Q 1206 -91 779 398 
Q 353 888 353 1747 
Q 353 2609 779 3096 
Q 1206 3584 1959 3584 
z
" transform="scale(0.015625)"/>
       <path id="DejaVuSans-73" d="M 2834 3397 
L 2834 2853 
Q 2591 2978 2328 3040 
Q 2066 3103 1784 3103 
Q 1356 3103 1142 2972 
Q 928 2841 928 2578 
Q 928 2378 1081 2264 
Q 1234 2150 1697 2047 
L 1894 2003 
Q 2506 1872 2764 1633 
Q 3022 1394 3022 966 
Q 3022 478 2636 193 
Q 2250 -91 1575 -91 
Q 1294 -91 989 -36 
Q 684 19 347 128 
L 347 722 
Q 666 556 975 473 
Q 1284 391 1588 391 
Q 1994 391 2212 530 
Q 2431 669 2431 922 
Q 2431 1156 2273 1281 
Q 2116 1406 1581 1522 
L 1381 1569 
Q 847 1681 609 1914 
Q 372 2147 372 2553 
Q 372 3047 722 3315 
Q 1072 3584 1716 3584 
Q 2034 3584 2315 3537 
Q 2597 3491 2834 3397 
z
" transform="scale(0.015625)"/>
       <path id="DejaVuSans-65" d="M 3597 1894 
L 3597 1613 
L 953 1613 
Q 991 1019 1311 708 
Q 1631 397 2203 397 
Q 2534 397 2845 478 
Q 3156 559 3463 722 
L 3463 178 
Q 3153 47 2828 -22 
Q 2503 -91 2169 -91 
Q 1331 -91 842 396 
Q 353 884 353 1716 
Q 353 2575 817 3079 
Q 1281 3584 2069 3584 
Q 2775 3584 3186 3129 
Q 3597 2675 3597 1894 
z
M 3022 2063 
Q 3016 2534 2758 2815 
Q 2500 3097 2075 3097 
Q 1594 3097 1305 2825 
Q 1016 2553 972 2059 
L 3022 2063 
z
" transform="scale(0.015625)"/>
       <path id="DejaVuSans-64" d="M 2906 2969 
L 2906 4863 
L 3481 4863 
L 3481 0 
L 2906 0 
L 2906 525 
Q 2725 213 2448 61 
Q 2172 -91 1784 -91 
Q 1150 -91 751 415 
Q 353 922 353 1747 
Q 353 2572 751 3078 
Q 1150 3584 1784 3584 
Q 2172 3584 2448 3432 
Q 2725 3281 2906 2969 
z
M 947 1747 
Q 947 1113 1208 752 
Q 1469 391 1925 391 
Q 2381 391 2643 752 
Q 2906 1113 2906 1747 
Q 2906 2381 2643 2742 
Q 2381 3103 1925 3103 
Q 1469 3103 1208 2742 
Q 947 2381 947 1747 
z
" transform="scale(0.015625)"/>
       <path id="DejaVuSans-6b" d="M 581 4863 
L 1159 4863 
L 1159 1991 
L 2875 3500 
L 3609 3500 
L 1753 1863 
L 3688 0 
L 2938 0 
L 1159 1709 
L 1159 0 
L 581 0 
L 581 4863 
z
" transform="scale(0.015625)"/>
       <path id="DejaVuSans-63" d="M 3122 3366 
L 3122 2828 
Q 2878 2963 2633 3030 
Q 2388 3097 2138 3097 
Q 1578 3097 1268 2742 
Q 959 2388 959 1747 
Q 959 1106 1268 751 
Q 1578 397 2138 397 
Q 2388 397 2633 464 
Q 2878 531 3122 666 
L 3122 134 
Q 2881 22 2623 -34 
Q 2366 -91 2075 -91 
Q 1284 -91 818 406 
Q 353 903 353 1747 
Q 353 2603 823 3093 
Q 1294 3584 2113 3584 
Q 2378 3584 2631 3529 
Q 2884 3475 3122 3366 
z
" transform="scale(0.015625)"/>
       <path id="DejaVuSans-61" d="M 2194 1759 
Q 1497 1759 1228 1600 
Q 959 1441 959 1056 
Q 959 750 1161 570 
Q 1363 391 1709 391 
Q 2188 391 2477 730 
Q 2766 1069 2766 1631 
L 2766 1759 
L 2194 1759 
z
M 3341 1997 
L 3341 0 
L 2766 0 
L 2766 531 
Q 2569 213 2275 61 
Q 1981 -91 1556 -91 
Q 1019 -91 701 211 
Q 384 513 384 1019 
Q 384 1609 779 1909 
Q 1175 2209 1959 2209 
L 2766 2209 
L 2766 2266 
Q 2766 2663 2505 2880 
Q 2244 3097 1772 3097 
Q 1472 3097 1187 3025 
Q 903 2953 641 2809 
L 641 3341 
Q 956 3463 1253 3523 
Q 1550 3584 1831 3584 
Q 2591 3584 2966 3190 
Q 3341 2797 3341 1997 
z
" transform="scale(0.015625)"/>
       <path id="DejaVuSans-6c" d="M 603 4863 
L 1178 4863 
L 1178 0 
L 603 0 
L 603 4863 
z
" transform="scale(0.015625)"/>
       <path id="DejaVuSans-2f" d="M 1625 4666 
L 2156 4666 
L 531 -594 
L 0 -594 
L 1625 4666 
z
" transform="scale(0.015625)"/>
      </defs>
      <use xlink:href="#DejaVuSans-50"/>
      <use xlink:href="#DejaVuSans-4d" x="60.302734"/>
      <use xlink:href="#DejaVuSans-46" x="146.582031"/>
      <use xlink:href="#DejaVuSans-20" x="204.101562"/>
      <use xlink:href="#DejaVuSans-49" x="235.888672"/>
      <use xlink:href="#DejaVuSans-6d" x="265.380859"/>
      <use xlink:href="#DejaVuSans-70" x="362.792969"/>
      <use xlink:href="#DejaVuSans-6f" x="426.269531"/>
      <use xlink:href="#DejaVuSans-73" x="487.451172"/>
      <use xlink:href="#DejaVuSans-65" x="539.550781"/>
      <use xlink:href="#DejaVuSans-64" x="601.074219"/>
      <use xlink:href="#DejaVuSans-20" x="664.550781"/>
      <use xlink:href="#DejaVuSans-28" x="696.337891"/>
      <use xlink:href="#DejaVuSans-6b" x="735.351562"/>
      <use xlink:href="#DejaVuSans-63" x="793.261719"/>
      <use xlink:href="#DejaVuSans-61" x="848.242188"/>
      <use xlink:href="#DejaVuSans-6c" x="909.521484"/>
      <use xlink:href="#DejaVuSans-2f" x="937.304688"/>
      <use xlink:href="#DejaVuSans-6d" x="970.996094"/>
      <use xlink:href="#DejaVuSans-6f" x="1068.408203"/>
      <use xlink:href="#DejaVuSans-6c" x="1129.589844"/>
      <use xlink:href="#DejaVuSans-29" x="1157.373047"/>
     </g>
    </g>
   </g>
   <g id="line2d_19">
    <path d="M 73.832727 216.047202 
L 75.464157 225.10206 
L 77.095587 233.400112 
L 78.727017 240.957746 
L 80.358447 247.799863 
L 81.989877 253.958736 
L 83.621307 259.472559 
L 85.252736 264.383837 
L 86.884166 268.737751 
L 88.515596 272.580613 
L 90.147026 275.958513 
L 91.778456 278.916193 
L 93.409886 281.496181 
L 95.041316 283.738176 
L 96.672746 285.678652 
L 98.304175 287.350656 
L 99.935605 288.783754 
L 101.567035 290.004095 
L 103.198465 291.034546 
L 104.829895 291.894892 
L 106.461325 292.602054 
L 108.092755 293.170326 
L 109.724185 293.611611 
L 112.987044 294.150236 
L 116.249904 294.273705 
L 119.512764 294.012775 
L 122.775624 293.378493 
L 126.038483 292.366764 
L 129.301343 290.962435 
L 132.564203 289.143108 
L 135.827063 286.882872 
L 139.089922 284.155994 
L 142.352782 280.940536 
L 145.615642 277.221734 
L 148.878502 272.994893 
L 152.141361 268.267567 
L 155.404221 263.060777 
L 158.667081 257.409153 
L 161.929941 251.360029 
L 166.82423 241.670783 
L 171.71852 231.449329 
L 188.032819 196.738428 
L 192.927108 187.028873 
L 196.189968 180.918034 
L 199.452828 175.150654 
L 202.715688 169.766464 
L 205.978547 164.799968 
L 209.241407 160.280847 
L 212.504267 156.23438 
L 215.767127 152.681848 
L 219.029986 149.640921 
L 222.292846 147.125995 
L 223.924276 146.069457 
L 225.555706 145.148478 
L 227.187136 144.364059 
L 228.818566 143.717038 
L 230.449995 143.208101 
L 232.081425 142.837783 
L 233.712855 142.606469 
L 235.344285 142.514401 
L 236.975715 142.561673 
L 238.607145 142.748238 
L 240.238575 143.073903 
L 241.870005 143.538332 
L 243.501434 144.141038 
L 245.132864 144.881388 
L 246.764294 145.758594 
L 248.395724 146.771709 
L 251.658584 149.201063 
L 254.921444 152.158513 
L 258.184303 155.630181 
L 261.447163 159.598966 
L 264.710023 164.044214 
L 267.972883 168.941346 
L 271.235742 174.261451 
L 274.498602 179.970869 
L 277.761462 186.030783 
L 282.655751 195.679285 
L 287.550041 205.841247 
L 307.1272 247.218975 
L 310.390059 253.510121 
L 313.652919 259.44353 
L 316.915779 264.964966 
L 320.178639 270.031925 
L 323.441498 274.61521 
L 326.704358 278.699555 
L 329.967218 282.283181 
L 333.230078 285.376346 
L 336.492937 287.999031 
L 339.755797 290.178032 
L 343.018657 291.943733 
L 346.281517 293.326768 
L 349.544376 294.354754 
L 352.807236 295.049099 
L 356.070096 295.421842 
L 359.332956 295.472323 
L 362.595815 295.183461 
L 365.858675 294.5173 
L 367.490105 294.023847 
L 369.121535 293.409561 
L 370.752965 292.6612 
L 372.384395 291.762973 
L 374.015825 290.696281 
L 375.647254 289.439443 
L 377.278684 287.967439 
L 378.910114 286.251691 
L 380.541544 284.259891 
L 382.172974 281.955928 
L 383.804404 279.299947 
L 385.435834 276.248582 
L 387.067264 272.755414 
L 388.698693 268.771693 
L 390.330123 264.247351 
L 391.961553 259.132321 
L 393.592983 253.378112 
L 395.224413 246.939596 
L 396.855843 239.77687 
L 398.487273 231.857066 
L 398.487273 231.857066 
" clip-path="url(#p443aa38ef1)" style="fill: none; stroke: #1f77b4; stroke-width: 1.5; stroke-linecap: square"/>
   </g>
   <g id="line2d_20">
    <path d="M 73.832727 200.867015 
L 75.464157 211.738837 
L 77.095587 221.687471 
L 78.727017 230.735526 
L 80.358447 238.915755 
L 81.989877 246.269549 
L 83.621307 252.845103 
L 85.252736 258.695418 
L 86.884166 263.876315 
L 88.515596 268.444592 
L 90.147026 272.456422 
L 91.778456 275.96605 
L 93.409886 279.024811 
L 95.041316 281.680434 
L 96.672746 283.976624 
L 98.304175 285.952858 
L 99.935605 287.644355 
L 101.567035 289.082183 
L 103.198465 290.293443 
L 104.829895 291.30152 
L 106.461325 292.12636 
L 108.092755 292.784757 
L 109.724185 293.290645 
L 111.355614 293.655374 
L 112.987044 293.887969 
L 114.618474 293.995377 
L 116.249904 293.982688 
L 117.881334 293.853345 
L 119.512764 293.609331 
L 121.144194 293.251349 
L 122.775624 292.778983 
L 126.038483 291.484797 
L 129.301343 289.706936 
L 132.564203 287.417231 
L 135.827063 284.583741 
L 139.089922 281.175267 
L 142.352782 277.165764 
L 145.615642 272.538422 
L 148.878502 267.28913 
L 152.141361 261.429017 
L 155.404221 254.985791 
L 158.667081 248.00377 
L 161.929941 240.542619 
L 166.82423 228.614337 
L 171.71852 216.057573 
L 188.032819 173.588297 
L 192.927108 161.753168 
L 196.189968 154.315425 
L 199.452828 147.304368 
L 202.715688 140.767886 
L 205.978547 134.747521 
L 209.241407 129.278966 
L 212.504267 124.392583 
L 215.767127 120.113897 
L 219.029986 116.464059 
L 220.661416 114.880473 
L 222.292846 113.460253 
L 223.924276 112.204986 
L 225.555706 111.116048 
L 227.187136 110.194618 
L 228.818566 109.44168 
L 230.449995 108.858029 
L 232.081425 108.444278 
L 233.712855 108.200856 
L 235.344285 108.128016 
L 236.975715 108.225836 
L 238.607145 108.494215 
L 240.238575 108.932876 
L 241.870005 109.541363 
L 243.501434 110.319041 
L 245.132864 111.265087 
L 246.764294 112.378493 
L 248.395724 113.658054 
L 250.027154 115.102365 
L 251.658584 116.70981 
L 254.921444 120.406552 
L 258.184303 124.73084 
L 261.447163 129.661244 
L 264.710023 135.17193 
L 267.972883 141.2322 
L 271.235742 147.805993 
L 274.498602 154.851368 
L 277.761462 162.320016 
L 282.655751 174.194143 
L 287.550041 186.67898 
L 305.49577 233.314988 
L 310.390059 244.945277 
L 313.652919 252.156346 
L 316.915779 258.855975 
L 320.178639 264.993935 
L 323.441498 270.536449 
L 326.704358 275.466803 
L 329.967218 279.78466 
L 333.230078 283.504137 
L 336.492937 286.650877 
L 339.755797 289.258423 
L 343.018657 291.364232 
L 346.281517 293.005597 
L 349.544376 294.21565 
L 352.807236 295.019472 
L 356.070096 295.430204 
L 359.332956 295.444935 
L 362.595815 295.040054 
L 364.227245 294.665875 
L 365.858675 294.165679 
L 367.490105 293.528004 
L 369.121535 292.738809 
L 370.752965 291.781171 
L 372.384395 290.634979 
L 374.015825 289.276598 
L 375.647254 287.678544 
L 377.278684 285.809179 
L 378.910114 283.632448 
L 380.541544 281.107693 
L 382.172974 278.189605 
L 383.804404 274.828329 
L 385.435834 270.969817 
L 387.067264 266.556456 
L 388.698693 261.528038 
L 390.330123 255.823087 
L 391.961553 249.380549 
L 393.592983 242.141797 
L 395.224413 234.052853 
L 396.855843 225.066671 
L 398.487273 215.1453 
L 398.487273 215.1453 
" clip-path="url(#p443aa38ef1)" style="fill: none; stroke: #ff7f0e; stroke-width: 1.5; stroke-linecap: square"/>
   </g>
   <g id="line2d_21">
    <path d="M 73.832727 188.044362 
L 75.464157 200.448295 
L 77.095587 211.789109 
L 78.727017 222.094632 
L 80.358447 231.404188 
L 81.989877 239.7668 
L 83.621307 247.239032 
L 85.252736 253.882676 
L 86.884166 259.762468 
L 88.515596 264.943994 
L 90.147026 269.491889 
L 91.778456 273.468383 
L 93.409886 276.932209 
L 95.041316 279.937857 
L 96.672746 282.535121 
L 98.304175 284.768895 
L 99.935605 286.679172 
L 101.567035 288.301169 
L 103.198465 289.665565 
L 104.829895 290.798788 
L 106.461325 291.723342 
L 108.092755 292.45814 
L 109.724185 293.018835 
L 111.355614 293.418141 
L 112.987044 293.666129 
L 114.618474 293.770505 
L 116.249904 293.73687 
L 117.881334 293.568949 
L 119.512764 293.268815 
L 121.144194 292.837088 
L 122.775624 292.273125 
L 124.407053 291.575196 
L 126.038483 290.740665 
L 127.669913 289.766149 
L 129.301343 288.647689 
L 130.932773 287.380912 
L 132.564203 285.961196 
L 134.195633 284.383833 
L 135.827063 282.644193 
L 139.089922 278.660909 
L 142.352782 273.981866 
L 145.615642 268.588556 
L 148.878502 262.477379 
L 152.141361 255.662488 
L 155.404221 248.177233 
L 158.667081 240.074083 
L 161.929941 231.423085 
L 166.82423 217.608163 
L 173.34995 198.145887 
L 184.769959 163.583256 
L 189.664249 149.44079 
L 194.558538 136.114234 
L 197.821398 127.799347 
L 201.084258 120.009589 
L 204.347117 112.796015 
L 207.609977 106.202673 
L 210.872837 100.267197 
L 214.135697 95.021396 
L 217.398556 90.491806 
L 219.029986 88.502563 
L 220.661416 86.700185 
L 222.292846 85.086717 
L 223.924276 83.663954 
L 225.555706 82.433456 
L 227.187136 81.396552 
L 228.818566 80.554345 
L 230.449995 79.907726 
L 232.081425 79.457372 
L 233.712855 79.20375 
L 235.344285 79.147125 
L 236.975715 79.287556 
L 238.607145 79.624899 
L 240.238575 80.158806 
L 241.870005 80.888722 
L 243.501434 81.813883 
L 245.132864 82.93331 
L 246.764294 84.245807 
L 248.395724 85.74995 
L 250.027154 87.444085 
L 251.658584 89.326312 
L 253.290014 91.39448 
L 256.552873 96.078708 
L 259.815733 101.474059 
L 263.078593 107.552953 
L 266.341453 114.282429 
L 269.604312 121.623583 
L 272.867172 129.53098 
L 276.130032 137.952068 
L 281.024322 151.412979 
L 285.918611 165.654902 
L 294.075761 190.351717 
L 302.23291 214.919337 
L 307.1272 228.915421 
L 310.390059 237.724472 
L 313.652919 246.012166 
L 316.915779 253.704676 
L 320.178639 260.745274 
L 323.441498 267.096326 
L 326.704358 272.739895 
L 329.967218 277.676841 
L 333.230078 281.924516 
L 336.492937 285.513307 
L 339.755797 288.482415 
L 343.018657 290.87523 
L 346.281517 292.734628 
L 349.544376 294.098362 
L 352.807236 294.994579 
L 354.438666 295.272434 
L 356.070096 295.437318 
L 357.701526 295.488 
L 359.332956 295.421737 
L 360.964386 295.234084 
L 362.595815 294.91868 
L 364.227245 294.467013 
L 365.858675 293.868156 
L 367.490105 293.108477 
L 369.121535 292.171318 
L 370.752965 291.036651 
L 372.384395 289.680707 
L 374.015825 288.075596 
L 375.647254 286.188936 
L 377.278684 283.983499 
L 378.910114 281.416919 
L 380.541544 278.441504 
L 382.172974 275.004185 
L 383.804404 271.04669 
L 385.435834 266.505985 
L 387.067264 261.315049 
L 388.698693 255.404054 
L 390.330123 248.701955 
L 391.961553 241.138498 
L 393.592983 232.646578 
L 395.224413 223.164824 
L 396.855843 212.640234 
L 398.487273 201.030629 
L 398.487273 201.030629 
" clip-path="url(#p443aa38ef1)" style="fill: none; stroke: #2ca02c; stroke-width: 1.5; stroke-linecap: square"/>
   </g>
   <g id="line2d_22">
    <path d="M 73.832727 176.735602 
L 75.464157 190.489516 
L 77.095587 203.057192 
L 78.727017 214.471037 
L 80.358447 224.776142 
L 81.989877 234.028229 
L 83.621307 242.291208 
L 85.252736 249.634584 
L 86.884166 256.130921 
L 88.515596 261.853527 
L 90.147026 266.874472 
L 91.778456 271.263006 
L 93.409886 275.084376 
L 95.041316 278.399017 
L 96.672746 281.262086 
L 98.304175 283.723253 
L 99.935605 285.826713 
L 101.567035 287.611346 
L 103.198465 289.110983 
L 104.829895 290.35474 
L 106.461325 291.367377 
L 108.092755 292.169678 
L 109.724185 292.778815 
L 111.355614 293.208707 
L 112.987044 293.470351 
L 114.618474 293.572124 
L 116.249904 293.520079 
L 117.881334 293.318195 
L 119.512764 292.968624 
L 121.144194 292.471917 
L 122.775624 291.827231 
L 124.407053 291.032527 
L 126.038483 290.08477 
L 127.669913 288.980108 
L 129.301343 287.714063 
L 130.932773 286.281713 
L 132.564203 284.677872 
L 134.195633 282.897277 
L 135.827063 280.934768 
L 137.458492 278.785471 
L 139.089922 276.444969 
L 142.352782 271.175986 
L 145.615642 265.107828 
L 148.878502 258.237356 
L 152.141361 250.581389 
L 155.404221 242.178247 
L 158.667081 233.087581 
L 161.929941 223.388568 
L 166.82423 207.911942 
L 173.34995 186.130345 
L 184.769959 147.502638 
L 189.664249 131.715368 
L 194.558538 116.849255 
L 197.821398 107.579453 
L 201.084258 98.899667 
L 204.347117 90.866589 
L 207.609977 83.529111 
L 210.872837 76.928985 
L 214.135697 71.101479 
L 217.398556 66.075996 
L 219.029986 63.871733 
L 220.661416 61.876621 
L 222.292846 60.092919 
L 223.924276 58.52261 
L 225.555706 57.167412 
L 227.187136 56.028785 
L 228.818566 55.107943 
L 230.449995 54.405856 
L 232.081425 53.923259 
L 233.712855 53.660655 
L 235.344285 53.618315 
L 236.975715 53.796285 
L 238.607145 54.194383 
L 240.238575 54.812196 
L 241.870005 55.649082 
L 243.501434 56.704165 
L 245.132864 57.976328 
L 246.764294 59.464209 
L 248.395724 61.166193 
L 250.027154 63.080403 
L 251.658584 65.20469 
L 253.290014 67.536621 
L 256.552873 72.812197 
L 259.815733 78.881492 
L 263.078593 85.7134 
L 266.341453 93.270766 
L 269.604312 101.509762 
L 272.867172 110.379227 
L 276.130032 119.82001 
L 281.024322 134.901791 
L 285.918611 150.847582 
L 294.075761 178.473277 
L 302.23291 205.92025 
L 307.1272 221.539378 
L 310.390059 231.362578 
L 313.652919 240.59857 
L 316.915779 249.165652 
L 320.178639 257.001376 
L 323.441498 264.064713 
L 326.704358 270.336644 
L 329.967218 275.819079 
L 333.230078 280.532206 
L 336.492937 284.510581 
L 338.124367 286.237804 
L 339.755797 287.798373 
L 341.387227 289.19846 
L 343.018657 290.444185 
L 344.650087 291.541454 
L 346.281517 292.495797 
L 347.912947 293.312214 
L 349.544376 293.99502 
L 351.175806 294.547687 
L 352.807236 294.972688 
L 354.438666 295.271337 
L 356.070096 295.443617 
L 357.701526 295.488 
L 359.332956 295.401247 
L 360.964386 295.178195 
L 362.595815 294.811515 
L 364.227245 294.291447 
L 365.858675 293.605501 
L 367.490105 292.738131 
L 369.121535 291.67037 
L 370.752965 290.379445 
L 372.384395 288.838363 
L 374.015825 287.015482 
L 375.647254 284.874098 
L 377.278684 282.372054 
L 378.910114 279.461426 
L 380.541544 276.088317 
L 382.172974 272.192831 
L 383.804404 267.709284 
L 385.435834 262.566731 
L 387.067264 256.689881 
L 388.698693 250.000449 
L 390.330123 242.418985 
L 391.961553 233.867159 
L 393.592983 224.270428 
L 395.224413 213.560942 
L 396.855843 201.680482 
L 398.487273 188.583171 
L 398.487273 188.583171 
" clip-path="url(#p443aa38ef1)" style="fill: none; stroke: #d62728; stroke-width: 1.5; stroke-linecap: square"/>
   </g>
   <g id="patch_3">
    <path d="M 57.6 307.584 
L 57.6 41.472 
" style="fill: none; stroke: #000000; stroke-width: 0.8; stroke-linejoin: miter; stroke-linecap: square"/>
   </g>
   <g id="patch_4">
    <path d="M 414.72 307.584 
L 414.72 41.472 
" style="fill: none; stroke: #000000; stroke-width: 0.8; stroke-linejoin: miter; stroke-linecap: square"/>
   </g>
   <g id="patch_5">
    <path d="M 57.6 307.584 
L 414.72 307.584 
" style="fill: none; stroke: #000000; stroke-width: 0.8; stroke-linejoin: miter; stroke-linecap: square"/>
   </g>
   <g id="patch_6">
    <path d="M 57.6 41.472 
L 414.72 41.472 
" style="fill: none; stroke: #000000; stroke-width: 0.8; stroke-linejoin: miter; stroke-linecap: square"/>
   </g>
   <g id="text_21">
    <!-- PMF -->
    <g transform="translate(223.914375 35.472) scale(0.12 -0.12)">
     <use xlink:href="#DejaVuSans-50"/>
     <use xlink:href="#DejaVuSans-4d" x="60.302734"/>
     <use xlink:href="#DejaVuSans-46" x="146.582031"/>
    </g>
   </g>
   <g id="legend_1">
    <g id="patch_7">
     <path d="M 252.45125 123.14075 
L 407.72 123.14075 
Q 409.72 123.14075 409.72 121.14075 
L 409.72 48.472 
Q 409.72 46.472 407.72 46.472 
L 252.45125 46.472 
Q 250.45125 46.472 250.45125 48.472 
L 250.45125 121.14075 
Q 250.45125 123.14075 252.45125 123.14075 
z
" style="fill: #ffffff; opacity: 0.8; stroke: #cccccc; stroke-linejoin: miter"/>
    </g>
    <g id="line2d_23">
     <path d="M 254.45125 54.570437 
L 264.45125 54.570437 
L 274.45125 54.570437 
" style="fill: none; stroke: #1f77b4; stroke-width: 1.5; stroke-linecap: square"/>
    </g>
    <g id="text_22">
     <!-- ks: 4.00 -->
     <g transform="translate(282.45125 58.070437) scale(0.1 -0.1)">
      <defs>
       <path id="DejaVuSans-3a" d="M 750 794 
L 1409 794 
L 1409 0 
L 750 0 
L 750 794 
z
M 750 3309 
L 1409 3309 
L 1409 2516 
L 750 2516 
L 750 3309 
z
" transform="scale(0.015625)"/>
      </defs>
      <use xlink:href="#DejaVuSans-6b"/>
      <use xlink:href="#DejaVuSans-73" x="57.910156"/>
      <use xlink:href="#DejaVuSans-3a" x="110.009766"/>
      <use xlink:href="#DejaVuSans-20" x="143.701172"/>
      <use xlink:href="#DejaVuSans-34" x="175.488281"/>
      <use xlink:href="#DejaVuSans-2e" x="239.111328"/>
      <use xlink:href="#DejaVuSans-30" x="270.898438"/>
      <use xlink:href="#DejaVuSans-30" x="334.521484"/>
     </g>
    </g>
    <g id="line2d_24">
     <path d="M 254.45125 69.248562 
L 264.45125 69.248562 
L 274.45125 69.248562 
" style="fill: none; stroke: #ff7f0e; stroke-width: 1.5; stroke-linecap: square"/>
    </g>
    <g id="text_23">
     <!-- ks: 6.00 -->
     <g transform="translate(282.45125 72.748562) scale(0.1 -0.1)">
      <use xlink:href="#DejaVuSans-6b"/>
      <use xlink:href="#DejaVuSans-73" x="57.910156"/>
      <use xlink:href="#DejaVuSans-3a" x="110.009766"/>
      <use xlink:href="#DejaVuSans-20" x="143.701172"/>
      <use xlink:href="#DejaVuSans-36" x="175.488281"/>
      <use xlink:href="#DejaVuSans-2e" x="239.111328"/>
      <use xlink:href="#DejaVuSans-30" x="270.898438"/>
      <use xlink:href="#DejaVuSans-30" x="334.521484"/>
     </g>
    </g>
    <g id="line2d_25">
     <path d="M 254.45125 83.926687 
L 264.45125 83.926687 
L 274.45125 83.926687 
" style="fill: none; stroke: #2ca02c; stroke-width: 1.5; stroke-linecap: square"/>
    </g>
    <g id="text_24">
     <!-- ks: 8.00 -->
     <g transform="translate(282.45125 87.426687) scale(0.1 -0.1)">
      <use xlink:href="#DejaVuSans-6b"/>
      <use xlink:href="#DejaVuSans-73" x="57.910156"/>
      <use xlink:href="#DejaVuSans-3a" x="110.009766"/>
      <use xlink:href="#DejaVuSans-20" x="143.701172"/>
      <use xlink:href="#DejaVuSans-38" x="175.488281"/>
      <use xlink:href="#DejaVuSans-2e" x="239.111328"/>
      <use xlink:href="#DejaVuSans-30" x="270.898438"/>
      <use xlink:href="#DejaVuSans-30" x="334.521484"/>
     </g>
    </g>
    <g id="line2d_26">
     <path d="M 254.45125 98.604812 
L 264.45125 98.604812 
L 274.45125 98.604812 
" style="fill: none; stroke: #d62728; stroke-width: 1.5; stroke-linecap: square"/>
    </g>
    <g id="text_25">
     <!-- ks: 10.00 -->
     <g transform="translate(282.45125 102.104812) scale(0.1 -0.1)">
      <use xlink:href="#DejaVuSans-6b"/>
      <use xlink:href="#DejaVuSans-73" x="57.910156"/>
      <use xlink:href="#DejaVuSans-3a" x="110.009766"/>
      <use xlink:href="#DejaVuSans-20" x="143.701172"/>
      <use xlink:href="#DejaVuSans-31" x="175.488281"/>
      <use xlink:href="#DejaVuSans-30" x="239.111328"/>
      <use xlink:href="#DejaVuSans-2e" x="302.734375"/>
      <use xlink:href="#DejaVuSans-30" x="334.521484"/>
      <use xlink:href="#DejaVuSans-30" x="398.144531"/>
     </g>
    </g>
    <g id="PathCollection_2">
     <g>
      <use xlink:href="#mdac3cabb1d" x="264.45125" y="114.157937" style="stroke: #000000"/>
     </g>
    </g>
    <g id="text_26">
     <!-- PMF_RE (Simulation-Traj) -->
     <g transform="translate(282.45125 116.782937) scale(0.1 -0.1)">
      <defs>
       <path id="DejaVuSans-5f" d="M 3263 -1063 
L 3263 -1509 
L -63 -1509 
L -63 -1063 
L 3263 -1063 
z
" transform="scale(0.015625)"/>
       <path id="DejaVuSans-52" d="M 2841 2188 
Q 3044 2119 3236 1894 
Q 3428 1669 3622 1275 
L 4263 0 
L 3584 0 
L 2988 1197 
Q 2756 1666 2539 1819 
Q 2322 1972 1947 1972 
L 1259 1972 
L 1259 0 
L 628 0 
L 628 4666 
L 2053 4666 
Q 2853 4666 3247 4331 
Q 3641 3997 3641 3322 
Q 3641 2881 3436 2590 
Q 3231 2300 2841 2188 
z
M 1259 4147 
L 1259 2491 
L 2053 2491 
Q 2509 2491 2742 2702 
Q 2975 2913 2975 3322 
Q 2975 3731 2742 3939 
Q 2509 4147 2053 4147 
L 1259 4147 
z
" transform="scale(0.015625)"/>
       <path id="DejaVuSans-45" d="M 628 4666 
L 3578 4666 
L 3578 4134 
L 1259 4134 
L 1259 2753 
L 3481 2753 
L 3481 2222 
L 1259 2222 
L 1259 531 
L 3634 531 
L 3634 0 
L 628 0 
L 628 4666 
z
" transform="scale(0.015625)"/>
       <path id="DejaVuSans-53" d="M 3425 4513 
L 3425 3897 
Q 3066 4069 2747 4153 
Q 2428 4238 2131 4238 
Q 1616 4238 1336 4038 
Q 1056 3838 1056 3469 
Q 1056 3159 1242 3001 
Q 1428 2844 1947 2747 
L 2328 2669 
Q 3034 2534 3370 2195 
Q 3706 1856 3706 1288 
Q 3706 609 3251 259 
Q 2797 -91 1919 -91 
Q 1588 -91 1214 -16 
Q 841 59 441 206 
L 441 856 
Q 825 641 1194 531 
Q 1563 422 1919 422 
Q 2459 422 2753 634 
Q 3047 847 3047 1241 
Q 3047 1584 2836 1778 
Q 2625 1972 2144 2069 
L 1759 2144 
Q 1053 2284 737 2584 
Q 422 2884 422 3419 
Q 422 4038 858 4394 
Q 1294 4750 2059 4750 
Q 2388 4750 2728 4690 
Q 3069 4631 3425 4513 
z
" transform="scale(0.015625)"/>
       <path id="DejaVuSans-69" d="M 603 3500 
L 1178 3500 
L 1178 0 
L 603 0 
L 603 3500 
z
M 603 4863 
L 1178 4863 
L 1178 4134 
L 603 4134 
L 603 4863 
z
" transform="scale(0.015625)"/>
       <path id="DejaVuSans-75" d="M 544 1381 
L 544 3500 
L 1119 3500 
L 1119 1403 
Q 1119 906 1312 657 
Q 1506 409 1894 409 
Q 2359 409 2629 706 
Q 2900 1003 2900 1516 
L 2900 3500 
L 3475 3500 
L 3475 0 
L 2900 0 
L 2900 538 
Q 2691 219 2414 64 
Q 2138 -91 1772 -91 
Q 1169 -91 856 284 
Q 544 659 544 1381 
z
M 1991 3584 
L 1991 3584 
z
" transform="scale(0.015625)"/>
       <path id="DejaVuSans-74" d="M 1172 4494 
L 1172 3500 
L 2356 3500 
L 2356 3053 
L 1172 3053 
L 1172 1153 
Q 1172 725 1289 603 
Q 1406 481 1766 481 
L 2356 481 
L 2356 0 
L 1766 0 
Q 1100 0 847 248 
Q 594 497 594 1153 
L 594 3053 
L 172 3053 
L 172 3500 
L 594 3500 
L 594 4494 
L 1172 4494 
z
" transform="scale(0.015625)"/>
       <path id="DejaVuSans-6e" d="M 3513 2113 
L 3513 0 
L 2938 0 
L 2938 2094 
Q 2938 2591 2744 2837 
Q 2550 3084 2163 3084 
Q 1697 3084 1428 2787 
Q 1159 2491 1159 1978 
L 1159 0 
L 581 0 
L 581 3500 
L 1159 3500 
L 1159 2956 
Q 1366 3272 1645 3428 
Q 1925 3584 2291 3584 
Q 2894 3584 3203 3211 
Q 3513 2838 3513 2113 
z
" transform="scale(0.015625)"/>
       <path id="DejaVuSans-2d" d="M 313 2009 
L 1997 2009 
L 1997 1497 
L 313 1497 
L 313 2009 
z
" transform="scale(0.015625)"/>
       <path id="DejaVuSans-54" d="M -19 4666 
L 3928 4666 
L 3928 4134 
L 2272 4134 
L 2272 0 
L 1638 0 
L 1638 4134 
L -19 4134 
L -19 4666 
z
" transform="scale(0.015625)"/>
       <path id="DejaVuSans-72" d="M 2631 2963 
Q 2534 3019 2420 3045 
Q 2306 3072 2169 3072 
Q 1681 3072 1420 2755 
Q 1159 2438 1159 1844 
L 1159 0 
L 581 0 
L 581 3500 
L 1159 3500 
L 1159 2956 
Q 1341 3275 1631 3429 
Q 1922 3584 2338 3584 
Q 2397 3584 2469 3576 
Q 2541 3569 2628 3553 
L 2631 2963 
z
" transform="scale(0.015625)"/>
       <path id="DejaVuSans-6a" d="M 603 3500 
L 1178 3500 
L 1178 -63 
Q 1178 -731 923 -1031 
Q 669 -1331 103 -1331 
L -116 -1331 
L -116 -844 
L 38 -844 
Q 366 -844 484 -692 
Q 603 -541 603 -63 
L 603 3500 
z
M 603 4863 
L 1178 4863 
L 1178 4134 
L 603 4134 
L 603 4863 
z
" transform="scale(0.015625)"/>
      </defs>
      <use xlink:href="#DejaVuSans-50"/>
      <use xlink:href="#DejaVuSans-4d" x="60.302734"/>
      <use xlink:href="#DejaVuSans-46" x="146.582031"/>
      <use xlink:href="#DejaVuSans-5f" x="204.101562"/>
      <use xlink:href="#DejaVuSans-52" x="254.101562"/>
      <use xlink:href="#DejaVuSans-45" x="323.583984"/>
      <use xlink:href="#DejaVuSans-20" x="386.767578"/>
      <use xlink:href="#DejaVuSans-28" x="418.554688"/>
      <use xlink:href="#DejaVuSans-53" x="457.568359"/>
      <use xlink:href="#DejaVuSans-69" x="521.044922"/>
      <use xlink:href="#DejaVuSans-6d" x="548.828125"/>
      <use xlink:href="#DejaVuSans-75" x="646.240234"/>
      <use xlink:href="#DejaVuSans-6c" x="709.619141"/>
      <use xlink:href="#DejaVuSans-61" x="737.402344"/>
      <use xlink:href="#DejaVuSans-74" x="798.681641"/>
      <use xlink:href="#DejaVuSans-69" x="837.890625"/>
      <use xlink:href="#DejaVuSans-6f" x="865.673828"/>
      <use xlink:href="#DejaVuSans-6e" x="926.855469"/>
      <use xlink:href="#DejaVuSans-2d" x="990.234375"/>
      <use xlink:href="#DejaVuSans-54" x="1017.193359"/>
      <use xlink:href="#DejaVuSans-72" x="1063.527344"/>
      <use xlink:href="#DejaVuSans-61" x="1104.640625"/>
      <use xlink:href="#DejaVuSans-6a" x="1165.919922"/>
      <use xlink:href="#DejaVuSans-29" x="1193.703125"/>
     </g>
    </g>
   </g>
  </g>
 </g>
 <defs>
  <clipPath id="p443aa38ef1">
   <rect x="57.6" y="41.472" width="357.12" height="266.112"/>
  </clipPath>
 </defs>
</svg>
