<?xml version="1.0" encoding="utf-8" standalone="no"?>
<!DOCTYPE svg PUBLIC "-//W3C//DTD SVG 1.1//EN"
  "http://www.w3.org/Graphics/SVG/1.1/DTD/svg11.dtd">
<svg xmlns:xlink="http://www.w3.org/1999/xlink" width="460.8pt" height="345.6pt" viewBox="0 0 460.8 345.6" xmlns="http://www.w3.org/2000/svg" version="1.1">
 <metadata>
  <rdf:RDF xmlns:dc="http://purl.org/dc/elements/1.1/" xmlns:cc="http://creativecommons.org/ns#" xmlns:rdf="http://www.w3.org/1999/02/22-rdf-syntax-ns#">
   <cc:Work>
    <dc:type rdf:resource="http://purl.org/dc/dcmitype/StillImage"/>
    <dc:date>2024-09-17T12:58:27.424583</dc:date>
    <dc:format>image/svg+xml</dc:format>
    <dc:creator>
     <cc:Agent>
      <dc:title>Matplotlib v3.9.0, https://matplotlib.org/</dc:title>
     </cc:Agent>
    </dc:creator>
   </cc:Work>
  </rdf:RDF>
 </metadata>
 <defs>
  <style type="text/css">*{stroke-linejoin: round; stroke-linecap: butt}</style>
 </defs>
 <g id="figure_1">
  <g id="patch_1">
   <path d="M 0 345.6 
L 460.8 345.6 
L 460.8 0 
L 0 0 
z
" style="fill: #ffffff"/>
  </g>
  <g id="axes_1">
   <g id="patch_2">
    <path d="M 57.6 307.584 
L 414.72 307.584 
L 414.72 41.472 
L 57.6 41.472 
z
" style="fill: #ffffff"/>
   </g>
   <g id="PathCollection_1">
    <defs>
     <path id="mf60720e771" d="M 0 3 
C 0.795609 3 1.55874 2.683901 2.12132 2.12132 
C 2.683901 1.55874 3 0.795609 3 0 
C 3 -0.795609 2.683901 -1.55874 2.12132 -2.12132 
C 1.55874 -2.683901 0.795609 -3 0 -3 
C -0.795609 -3 -1.55874 -2.683901 -2.12132 -2.12132 
C -2.683901 -1.55874 -3 -0.795609 -3 0 
C -3 0.795609 -2.683901 1.55874 -2.12132 2.12132 
C -1.55874 2.683901 -0.795609 3 0 3 
z
" style="stroke: #000000"/>
    </defs>
    <g clip-path="url(#p0308a9f278)">
     <use xlink:href="#mf60720e771" x="85.817418" y="281.072496" style="stroke: #000000"/>
     <use xlink:href="#mf60720e771" x="114.241951" y="295.488" style="stroke: #000000"/>
     <use xlink:href="#mf60720e771" x="142.666483" y="250.292984" style="stroke: #000000"/>
     <use xlink:href="#mf60720e771" x="171.091015" y="156.004942" style="stroke: #000000"/>
     <use xlink:href="#mf60720e771" x="199.515547" y="84.139016" style="stroke: #000000"/>
     <use xlink:href="#mf60720e771" x="227.940079" y="53.568" style="stroke: #000000"/>
     <use xlink:href="#mf60720e771" x="256.364612" y="55.128928" style="stroke: #000000"/>
     <use xlink:href="#mf60720e771" x="284.789144" y="84.111103" style="stroke: #000000"/>
     <use xlink:href="#mf60720e771" x="313.213676" y="166.412701" style="stroke: #000000"/>
     <use xlink:href="#mf60720e771" x="341.638208" y="190.158467" style="stroke: #000000"/>
     <use xlink:href="#mf60720e771" x="370.062741" y="203.305737" style="stroke: #000000"/>
     <use xlink:href="#mf60720e771" x="398.487273" y="188.704056" style="stroke: #000000"/>
    </g>
   </g>
   <g id="matplotlib.axis_1">
    <g id="xtick_1">
     <g id="line2d_1">
      <defs>
       <path id="m4b3bf00a7f" d="M 0 0 
L 0 3.5 
" style="stroke: #000000; stroke-width: 0.8"/>
      </defs>
      <g>
       <use xlink:href="#m4b3bf00a7f" x="74.164232" y="307.584" style="stroke: #000000; stroke-width: 0.8"/>
      </g>
     </g>
     <g id="text_1">
      <!-- 14 -->
      <g transform="translate(67.801732 322.182437) scale(0.1 -0.1)">
       <defs>
        <path id="DejaVuSans-31" d="M 794 531 
L 1825 531 
L 1825 4091 
L 703 3866 
L 703 4441 
L 1819 4666 
L 2450 4666 
L 2450 531 
L 3481 531 
L 3481 0 
L 794 0 
L 794 531 
z
" transform="scale(0.015625)"/>
        <path id="DejaVuSans-34" d="M 2419 4116 
L 825 1625 
L 2419 1625 
L 2419 4116 
z
M 2253 4666 
L 3047 4666 
L 3047 1625 
L 3713 1625 
L 3713 1100 
L 3047 1100 
L 3047 0 
L 2419 0 
L 2419 1100 
L 313 1100 
L 313 1709 
L 2253 4666 
z
" transform="scale(0.015625)"/>
       </defs>
       <use xlink:href="#DejaVuSans-31"/>
       <use xlink:href="#DejaVuSans-34" x="63.623047"/>
      </g>
     </g>
    </g>
    <g id="xtick_2">
     <g id="line2d_2">
      <g>
       <use xlink:href="#m4b3bf00a7f" x="131.748175" y="307.584" style="stroke: #000000; stroke-width: 0.8"/>
      </g>
     </g>
     <g id="text_2">
      <!-- 16 -->
      <g transform="translate(125.385675 322.182437) scale(0.1 -0.1)">
       <defs>
        <path id="DejaVuSans-36" d="M 2113 2584 
Q 1688 2584 1439 2293 
Q 1191 2003 1191 1497 
Q 1191 994 1439 701 
Q 1688 409 2113 409 
Q 2538 409 2786 701 
Q 3034 994 3034 1497 
Q 3034 2003 2786 2293 
Q 2538 2584 2113 2584 
z
M 3366 4563 
L 3366 3988 
Q 3128 4100 2886 4159 
Q 2644 4219 2406 4219 
Q 1781 4219 1451 3797 
Q 1122 3375 1075 2522 
Q 1259 2794 1537 2939 
Q 1816 3084 2150 3084 
Q 2853 3084 3261 2657 
Q 3669 2231 3669 1497 
Q 3669 778 3244 343 
Q 2819 -91 2113 -91 
Q 1303 -91 875 529 
Q 447 1150 447 2328 
Q 447 3434 972 4092 
Q 1497 4750 2381 4750 
Q 2619 4750 2861 4703 
Q 3103 4656 3366 4563 
z
" transform="scale(0.015625)"/>
       </defs>
       <use xlink:href="#DejaVuSans-31"/>
       <use xlink:href="#DejaVuSans-36" x="63.623047"/>
      </g>
     </g>
    </g>
    <g id="xtick_3">
     <g id="line2d_3">
      <g>
       <use xlink:href="#m4b3bf00a7f" x="189.332118" y="307.584" style="stroke: #000000; stroke-width: 0.8"/>
      </g>
     </g>
     <g id="text_3">
      <!-- 18 -->
      <g transform="translate(182.969618 322.182437) scale(0.1 -0.1)">
       <defs>
        <path id="DejaVuSans-38" d="M 2034 2216 
Q 1584 2216 1326 1975 
Q 1069 1734 1069 1313 
Q 1069 891 1326 650 
Q 1584 409 2034 409 
Q 2484 409 2743 651 
Q 3003 894 3003 1313 
Q 3003 1734 2745 1975 
Q 2488 2216 2034 2216 
z
M 1403 2484 
Q 997 2584 770 2862 
Q 544 3141 544 3541 
Q 544 4100 942 4425 
Q 1341 4750 2034 4750 
Q 2731 4750 3128 4425 
Q 3525 4100 3525 3541 
Q 3525 3141 3298 2862 
Q 3072 2584 2669 2484 
Q 3125 2378 3379 2068 
Q 3634 1759 3634 1313 
Q 3634 634 3220 271 
Q 2806 -91 2034 -91 
Q 1263 -91 848 271 
Q 434 634 434 1313 
Q 434 1759 690 2068 
Q 947 2378 1403 2484 
z
M 1172 3481 
Q 1172 3119 1398 2916 
Q 1625 2713 2034 2713 
Q 2441 2713 2670 2916 
Q 2900 3119 2900 3481 
Q 2900 3844 2670 4047 
Q 2441 4250 2034 4250 
Q 1625 4250 1398 4047 
Q 1172 3844 1172 3481 
z
" transform="scale(0.015625)"/>
       </defs>
       <use xlink:href="#DejaVuSans-31"/>
       <use xlink:href="#DejaVuSans-38" x="63.623047"/>
      </g>
     </g>
    </g>
    <g id="xtick_4">
     <g id="line2d_4">
      <g>
       <use xlink:href="#m4b3bf00a7f" x="246.916062" y="307.584" style="stroke: #000000; stroke-width: 0.8"/>
      </g>
     </g>
     <g id="text_4">
      <!-- 20 -->
      <g transform="translate(240.553562 322.182437) scale(0.1 -0.1)">
       <defs>
        <path id="DejaVuSans-32" d="M 1228 531 
L 3431 531 
L 3431 0 
L 469 0 
L 469 531 
Q 828 903 1448 1529 
Q 2069 2156 2228 2338 
Q 2531 2678 2651 2914 
Q 2772 3150 2772 3378 
Q 2772 3750 2511 3984 
Q 2250 4219 1831 4219 
Q 1534 4219 1204 4116 
Q 875 4013 500 3803 
L 500 4441 
Q 881 4594 1212 4672 
Q 1544 4750 1819 4750 
Q 2544 4750 2975 4387 
Q 3406 4025 3406 3419 
Q 3406 3131 3298 2873 
Q 3191 2616 2906 2266 
Q 2828 2175 2409 1742 
Q 1991 1309 1228 531 
z
" transform="scale(0.015625)"/>
        <path id="DejaVuSans-30" d="M 2034 4250 
Q 1547 4250 1301 3770 
Q 1056 3291 1056 2328 
Q 1056 1369 1301 889 
Q 1547 409 2034 409 
Q 2525 409 2770 889 
Q 3016 1369 3016 2328 
Q 3016 3291 2770 3770 
Q 2525 4250 2034 4250 
z
M 2034 4750 
Q 2819 4750 3233 4129 
Q 3647 3509 3647 2328 
Q 3647 1150 3233 529 
Q 2819 -91 2034 -91 
Q 1250 -91 836 529 
Q 422 1150 422 2328 
Q 422 3509 836 4129 
Q 1250 4750 2034 4750 
z
" transform="scale(0.015625)"/>
       </defs>
       <use xlink:href="#DejaVuSans-32"/>
       <use xlink:href="#DejaVuSans-30" x="63.623047"/>
      </g>
     </g>
    </g>
    <g id="xtick_5">
     <g id="line2d_5">
      <g>
       <use xlink:href="#m4b3bf00a7f" x="304.500005" y="307.584" style="stroke: #000000; stroke-width: 0.8"/>
      </g>
     </g>
     <g id="text_5">
      <!-- 22 -->
      <g transform="translate(298.137505 322.182437) scale(0.1 -0.1)">
       <use xlink:href="#DejaVuSans-32"/>
       <use xlink:href="#DejaVuSans-32" x="63.623047"/>
      </g>
     </g>
    </g>
    <g id="xtick_6">
     <g id="line2d_6">
      <g>
       <use xlink:href="#m4b3bf00a7f" x="362.083948" y="307.584" style="stroke: #000000; stroke-width: 0.8"/>
      </g>
     </g>
     <g id="text_6">
      <!-- 24 -->
      <g transform="translate(355.721448 322.182437) scale(0.1 -0.1)">
       <use xlink:href="#DejaVuSans-32"/>
       <use xlink:href="#DejaVuSans-34" x="63.623047"/>
      </g>
     </g>
    </g>
    <g id="text_7">
     <!-- x (A) -->
     <g transform="translate(224.289687 335.860562) scale(0.1 -0.1)">
      <defs>
       <path id="DejaVuSans-78" d="M 3513 3500 
L 2247 1797 
L 3578 0 
L 2900 0 
L 1881 1375 
L 863 0 
L 184 0 
L 1544 1831 
L 300 3500 
L 978 3500 
L 1906 2253 
L 2834 3500 
L 3513 3500 
z
" transform="scale(0.015625)"/>
       <path id="DejaVuSans-20" transform="scale(0.015625)"/>
       <path id="DejaVuSans-28" d="M 1984 4856 
Q 1566 4138 1362 3434 
Q 1159 2731 1159 2009 
Q 1159 1288 1364 580 
Q 1569 -128 1984 -844 
L 1484 -844 
Q 1016 -109 783 600 
Q 550 1309 550 2009 
Q 550 2706 781 3412 
Q 1013 4119 1484 4856 
L 1984 4856 
z
" transform="scale(0.015625)"/>
       <path id="DejaVuSans-41" d="M 2188 4044 
L 1331 1722 
L 3047 1722 
L 2188 4044 
z
M 1831 4666 
L 2547 4666 
L 4325 0 
L 3669 0 
L 3244 1197 
L 1141 1197 
L 716 0 
L 50 0 
L 1831 4666 
z
" transform="scale(0.015625)"/>
       <path id="DejaVuSans-29" d="M 513 4856 
L 1013 4856 
Q 1481 4119 1714 3412 
Q 1947 2706 1947 2009 
Q 1947 1309 1714 600 
Q 1481 -109 1013 -844 
L 513 -844 
Q 928 -128 1133 580 
Q 1338 1288 1338 2009 
Q 1338 2731 1133 3434 
Q 928 4138 513 4856 
z
" transform="scale(0.015625)"/>
      </defs>
      <use xlink:href="#DejaVuSans-78"/>
      <use xlink:href="#DejaVuSans-20" x="59.179688"/>
      <use xlink:href="#DejaVuSans-28" x="90.966797"/>
      <use xlink:href="#DejaVuSans-41" x="129.980469"/>
      <use xlink:href="#DejaVuSans-29" x="198.388672"/>
     </g>
    </g>
   </g>
   <g id="matplotlib.axis_2">
    <g id="ytick_1">
     <g id="line2d_7">
      <defs>
       <path id="m46d7cb31f0" d="M 0 0 
L -3.5 0 
" style="stroke: #000000; stroke-width: 0.8"/>
      </defs>
      <g>
       <use xlink:href="#m46d7cb31f0" x="57.6" y="295.488" style="stroke: #000000; stroke-width: 0.8"/>
      </g>
     </g>
     <g id="text_8">
      <!-- 0.0 -->
      <g transform="translate(34.696875 299.287219) scale(0.1 -0.1)">
       <defs>
        <path id="DejaVuSans-2e" d="M 684 794 
L 1344 794 
L 1344 0 
L 684 0 
L 684 794 
z
" transform="scale(0.015625)"/>
       </defs>
       <use xlink:href="#DejaVuSans-30"/>
       <use xlink:href="#DejaVuSans-2e" x="63.623047"/>
       <use xlink:href="#DejaVuSans-30" x="95.410156"/>
      </g>
     </g>
    </g>
    <g id="ytick_2">
     <g id="line2d_8">
      <g>
       <use xlink:href="#m46d7cb31f0" x="57.6" y="253.639252" style="stroke: #000000; stroke-width: 0.8"/>
      </g>
     </g>
     <g id="text_9">
      <!-- 0.5 -->
      <g transform="translate(34.696875 257.438471) scale(0.1 -0.1)">
       <defs>
        <path id="DejaVuSans-35" d="M 691 4666 
L 3169 4666 
L 3169 4134 
L 1269 4134 
L 1269 2991 
Q 1406 3038 1543 3061 
Q 1681 3084 1819 3084 
Q 2600 3084 3056 2656 
Q 3513 2228 3513 1497 
Q 3513 744 3044 326 
Q 2575 -91 1722 -91 
Q 1428 -91 1123 -41 
Q 819 9 494 109 
L 494 744 
Q 775 591 1075 516 
Q 1375 441 1709 441 
Q 2250 441 2565 725 
Q 2881 1009 2881 1497 
Q 2881 1984 2565 2268 
Q 2250 2553 1709 2553 
Q 1456 2553 1204 2497 
Q 953 2441 691 2322 
L 691 4666 
z
" transform="scale(0.015625)"/>
       </defs>
       <use xlink:href="#DejaVuSans-30"/>
       <use xlink:href="#DejaVuSans-2e" x="63.623047"/>
       <use xlink:href="#DejaVuSans-35" x="95.410156"/>
      </g>
     </g>
    </g>
    <g id="ytick_3">
     <g id="line2d_9">
      <g>
       <use xlink:href="#m46d7cb31f0" x="57.6" y="211.790504" style="stroke: #000000; stroke-width: 0.8"/>
      </g>
     </g>
     <g id="text_10">
      <!-- 1.0 -->
      <g transform="translate(34.696875 215.589722) scale(0.1 -0.1)">
       <use xlink:href="#DejaVuSans-31"/>
       <use xlink:href="#DejaVuSans-2e" x="63.623047"/>
       <use xlink:href="#DejaVuSans-30" x="95.410156"/>
      </g>
     </g>
    </g>
    <g id="ytick_4">
     <g id="line2d_10">
      <g>
       <use xlink:href="#m46d7cb31f0" x="57.6" y="169.941756" style="stroke: #000000; stroke-width: 0.8"/>
      </g>
     </g>
     <g id="text_11">
      <!-- 1.5 -->
      <g transform="translate(34.696875 173.740974) scale(0.1 -0.1)">
       <use xlink:href="#DejaVuSans-31"/>
       <use xlink:href="#DejaVuSans-2e" x="63.623047"/>
       <use xlink:href="#DejaVuSans-35" x="95.410156"/>
      </g>
     </g>
    </g>
    <g id="ytick_5">
     <g id="line2d_11">
      <g>
       <use xlink:href="#m46d7cb31f0" x="57.6" y="128.093007" style="stroke: #000000; stroke-width: 0.8"/>
      </g>
     </g>
     <g id="text_12">
      <!-- 2.0 -->
      <g transform="translate(34.696875 131.892226) scale(0.1 -0.1)">
       <use xlink:href="#DejaVuSans-32"/>
       <use xlink:href="#DejaVuSans-2e" x="63.623047"/>
       <use xlink:href="#DejaVuSans-30" x="95.410156"/>
      </g>
     </g>
    </g>
    <g id="ytick_6">
     <g id="line2d_12">
      <g>
       <use xlink:href="#m46d7cb31f0" x="57.6" y="86.244259" style="stroke: #000000; stroke-width: 0.8"/>
      </g>
     </g>
     <g id="text_13">
      <!-- 2.5 -->
      <g transform="translate(34.696875 90.043478) scale(0.1 -0.1)">
       <use xlink:href="#DejaVuSans-32"/>
       <use xlink:href="#DejaVuSans-2e" x="63.623047"/>
       <use xlink:href="#DejaVuSans-35" x="95.410156"/>
      </g>
     </g>
    </g>
    <g id="ytick_7">
     <g id="line2d_13">
      <g>
       <use xlink:href="#m46d7cb31f0" x="57.6" y="44.395511" style="stroke: #000000; stroke-width: 0.8"/>
      </g>
     </g>
     <g id="text_14">
      <!-- 3.0 -->
      <g transform="translate(34.696875 48.19473) scale(0.1 -0.1)">
       <defs>
        <path id="DejaVuSans-33" d="M 2597 2516 
Q 3050 2419 3304 2112 
Q 3559 1806 3559 1356 
Q 3559 666 3084 287 
Q 2609 -91 1734 -91 
Q 1441 -91 1130 -33 
Q 819 25 488 141 
L 488 750 
Q 750 597 1062 519 
Q 1375 441 1716 441 
Q 2309 441 2620 675 
Q 2931 909 2931 1356 
Q 2931 1769 2642 2001 
Q 2353 2234 1838 2234 
L 1294 2234 
L 1294 2753 
L 1863 2753 
Q 2328 2753 2575 2939 
Q 2822 3125 2822 3475 
Q 2822 3834 2567 4026 
Q 2313 4219 1838 4219 
Q 1578 4219 1281 4162 
Q 984 4106 628 3988 
L 628 4550 
Q 988 4650 1302 4700 
Q 1616 4750 1894 4750 
Q 2613 4750 3031 4423 
Q 3450 4097 3450 3541 
Q 3450 3153 3228 2886 
Q 3006 2619 2597 2516 
z
" transform="scale(0.015625)"/>
       </defs>
       <use xlink:href="#DejaVuSans-33"/>
       <use xlink:href="#DejaVuSans-2e" x="63.623047"/>
       <use xlink:href="#DejaVuSans-30" x="95.410156"/>
      </g>
     </g>
    </g>
    <g id="text_15">
     <!-- PMF Imposed (kcal/mol) -->
     <g transform="translate(28.617187 234.347531) rotate(-90) scale(0.1 -0.1)">
      <defs>
       <path id="DejaVuSans-50" d="M 1259 4147 
L 1259 2394 
L 2053 2394 
Q 2494 2394 2734 2622 
Q 2975 2850 2975 3272 
Q 2975 3691 2734 3919 
Q 2494 4147 2053 4147 
L 1259 4147 
z
M 628 4666 
L 2053 4666 
Q 2838 4666 3239 4311 
Q 3641 3956 3641 3272 
Q 3641 2581 3239 2228 
Q 2838 1875 2053 1875 
L 1259 1875 
L 1259 0 
L 628 0 
L 628 4666 
z
" transform="scale(0.015625)"/>
       <path id="DejaVuSans-4d" d="M 628 4666 
L 1569 4666 
L 2759 1491 
L 3956 4666 
L 4897 4666 
L 4897 0 
L 4281 0 
L 4281 4097 
L 3078 897 
L 2444 897 
L 1241 4097 
L 1241 0 
L 628 0 
L 628 4666 
z
" transform="scale(0.015625)"/>
       <path id="DejaVuSans-46" d="M 628 4666 
L 3309 4666 
L 3309 4134 
L 1259 4134 
L 1259 2759 
L 3109 2759 
L 3109 2228 
L 1259 2228 
L 1259 0 
L 628 0 
L 628 4666 
z
" transform="scale(0.015625)"/>
       <path id="DejaVuSans-49" d="M 628 4666 
L 1259 4666 
L 1259 0 
L 628 0 
L 628 4666 
z
" transform="scale(0.015625)"/>
       <path id="DejaVuSans-6d" d="M 3328 2828 
Q 3544 3216 3844 3400 
Q 4144 3584 4550 3584 
Q 5097 3584 5394 3201 
Q 5691 2819 5691 2113 
L 5691 0 
L 5113 0 
L 5113 2094 
Q 5113 2597 4934 2840 
Q 4756 3084 4391 3084 
Q 3944 3084 3684 2787 
Q 3425 2491 3425 1978 
L 3425 0 
L 2847 0 
L 2847 2094 
Q 2847 2600 2669 2842 
Q 2491 3084 2119 3084 
Q 1678 3084 1418 2786 
Q 1159 2488 1159 1978 
L 1159 0 
L 581 0 
L 581 3500 
L 1159 3500 
L 1159 2956 
Q 1356 3278 1631 3431 
Q 1906 3584 2284 3584 
Q 2666 3584 2933 3390 
Q 3200 3197 3328 2828 
z
" transform="scale(0.015625)"/>
       <path id="DejaVuSans-70" d="M 1159 525 
L 1159 -1331 
L 581 -1331 
L 581 3500 
L 1159 3500 
L 1159 2969 
Q 1341 3281 1617 3432 
Q 1894 3584 2278 3584 
Q 2916 3584 3314 3078 
Q 3713 2572 3713 1747 
Q 3713 922 3314 415 
Q 2916 -91 2278 -91 
Q 1894 -91 1617 61 
Q 1341 213 1159 525 
z
M 3116 1747 
Q 3116 2381 2855 2742 
Q 2594 3103 2138 3103 
Q 1681 3103 1420 2742 
Q 1159 2381 1159 1747 
Q 1159 1113 1420 752 
Q 1681 391 2138 391 
Q 2594 391 2855 752 
Q 3116 1113 3116 1747 
z
" transform="scale(0.015625)"/>
       <path id="DejaVuSans-6f" d="M 1959 3097 
Q 1497 3097 1228 2736 
Q 959 2375 959 1747 
Q 959 1119 1226 758 
Q 1494 397 1959 397 
Q 2419 397 2687 759 
Q 2956 1122 2956 1747 
Q 2956 2369 2687 2733 
Q 2419 3097 1959 3097 
z
M 1959 3584 
Q 2709 3584 3137 3096 
Q 3566 2609 3566 1747 
Q 3566 888 3137 398 
Q 2709 -91 1959 -91 
Q 1206 -91 779 398 
Q 353 888 353 1747 
Q 353 2609 779 3096 
Q 1206 3584 1959 3584 
z
" transform="scale(0.015625)"/>
       <path id="DejaVuSans-73" d="M 2834 3397 
L 2834 2853 
Q 2591 2978 2328 3040 
Q 2066 3103 1784 3103 
Q 1356 3103 1142 2972 
Q 928 2841 928 2578 
Q 928 2378 1081 2264 
Q 1234 2150 1697 2047 
L 1894 2003 
Q 2506 1872 2764 1633 
Q 3022 1394 3022 966 
Q 3022 478 2636 193 
Q 2250 -91 1575 -91 
Q 1294 -91 989 -36 
Q 684 19 347 128 
L 347 722 
Q 666 556 975 473 
Q 1284 391 1588 391 
Q 1994 391 2212 530 
Q 2431 669 2431 922 
Q 2431 1156 2273 1281 
Q 2116 1406 1581 1522 
L 1381 1569 
Q 847 1681 609 1914 
Q 372 2147 372 2553 
Q 372 3047 722 3315 
Q 1072 3584 1716 3584 
Q 2034 3584 2315 3537 
Q 2597 3491 2834 3397 
z
" transform="scale(0.015625)"/>
       <path id="DejaVuSans-65" d="M 3597 1894 
L 3597 1613 
L 953 1613 
Q 991 1019 1311 708 
Q 1631 397 2203 397 
Q 2534 397 2845 478 
Q 3156 559 3463 722 
L 3463 178 
Q 3153 47 2828 -22 
Q 2503 -91 2169 -91 
Q 1331 -91 842 396 
Q 353 884 353 1716 
Q 353 2575 817 3079 
Q 1281 3584 2069 3584 
Q 2775 3584 3186 3129 
Q 3597 2675 3597 1894 
z
M 3022 2063 
Q 3016 2534 2758 2815 
Q 2500 3097 2075 3097 
Q 1594 3097 1305 2825 
Q 1016 2553 972 2059 
L 3022 2063 
z
" transform="scale(0.015625)"/>
       <path id="DejaVuSans-64" d="M 2906 2969 
L 2906 4863 
L 3481 4863 
L 3481 0 
L 2906 0 
L 2906 525 
Q 2725 213 2448 61 
Q 2172 -91 1784 -91 
Q 1150 -91 751 415 
Q 353 922 353 1747 
Q 353 2572 751 3078 
Q 1150 3584 1784 3584 
Q 2172 3584 2448 3432 
Q 2725 3281 2906 2969 
z
M 947 1747 
Q 947 1113 1208 752 
Q 1469 391 1925 391 
Q 2381 391 2643 752 
Q 2906 1113 2906 1747 
Q 2906 2381 2643 2742 
Q 2381 3103 1925 3103 
Q 1469 3103 1208 2742 
Q 947 2381 947 1747 
z
" transform="scale(0.015625)"/>
       <path id="DejaVuSans-6b" d="M 581 4863 
L 1159 4863 
L 1159 1991 
L 2875 3500 
L 3609 3500 
L 1753 1863 
L 3688 0 
L 2938 0 
L 1159 1709 
L 1159 0 
L 581 0 
L 581 4863 
z
" transform="scale(0.015625)"/>
       <path id="DejaVuSans-63" d="M 3122 3366 
L 3122 2828 
Q 2878 2963 2633 3030 
Q 2388 3097 2138 3097 
Q 1578 3097 1268 2742 
Q 959 2388 959 1747 
Q 959 1106 1268 751 
Q 1578 397 2138 397 
Q 2388 397 2633 464 
Q 2878 531 3122 666 
L 3122 134 
Q 2881 22 2623 -34 
Q 2366 -91 2075 -91 
Q 1284 -91 818 406 
Q 353 903 353 1747 
Q 353 2603 823 3093 
Q 1294 3584 2113 3584 
Q 2378 3584 2631 3529 
Q 2884 3475 3122 3366 
z
" transform="scale(0.015625)"/>
       <path id="DejaVuSans-61" d="M 2194 1759 
Q 1497 1759 1228 1600 
Q 959 1441 959 1056 
Q 959 750 1161 570 
Q 1363 391 1709 391 
Q 2188 391 2477 730 
Q 2766 1069 2766 1631 
L 2766 1759 
L 2194 1759 
z
M 3341 1997 
L 3341 0 
L 2766 0 
L 2766 531 
Q 2569 213 2275 61 
Q 1981 -91 1556 -91 
Q 1019 -91 701 211 
Q 384 513 384 1019 
Q 384 1609 779 1909 
Q 1175 2209 1959 2209 
L 2766 2209 
L 2766 2266 
Q 2766 2663 2505 2880 
Q 2244 3097 1772 3097 
Q 1472 3097 1187 3025 
Q 903 2953 641 2809 
L 641 3341 
Q 956 3463 1253 3523 
Q 1550 3584 1831 3584 
Q 2591 3584 2966 3190 
Q 3341 2797 3341 1997 
z
" transform="scale(0.015625)"/>
       <path id="DejaVuSans-6c" d="M 603 4863 
L 1178 4863 
L 1178 0 
L 603 0 
L 603 4863 
z
" transform="scale(0.015625)"/>
       <path id="DejaVuSans-2f" d="M 1625 4666 
L 2156 4666 
L 531 -594 
L 0 -594 
L 1625 4666 
z
" transform="scale(0.015625)"/>
      </defs>
      <use xlink:href="#DejaVuSans-50"/>
      <use xlink:href="#DejaVuSans-4d" x="60.302734"/>
      <use xlink:href="#DejaVuSans-46" x="146.582031"/>
      <use xlink:href="#DejaVuSans-20" x="204.101562"/>
      <use xlink:href="#DejaVuSans-49" x="235.888672"/>
      <use xlink:href="#DejaVuSans-6d" x="265.380859"/>
      <use xlink:href="#DejaVuSans-70" x="362.792969"/>
      <use xlink:href="#DejaVuSans-6f" x="426.269531"/>
      <use xlink:href="#DejaVuSans-73" x="487.451172"/>
      <use xlink:href="#DejaVuSans-65" x="539.550781"/>
      <use xlink:href="#DejaVuSans-64" x="601.074219"/>
      <use xlink:href="#DejaVuSans-20" x="664.550781"/>
      <use xlink:href="#DejaVuSans-28" x="696.337891"/>
      <use xlink:href="#DejaVuSans-6b" x="735.351562"/>
      <use xlink:href="#DejaVuSans-63" x="793.261719"/>
      <use xlink:href="#DejaVuSans-61" x="848.242188"/>
      <use xlink:href="#DejaVuSans-6c" x="909.521484"/>
      <use xlink:href="#DejaVuSans-2f" x="937.304688"/>
      <use xlink:href="#DejaVuSans-6d" x="970.996094"/>
      <use xlink:href="#DejaVuSans-6f" x="1068.408203"/>
      <use xlink:href="#DejaVuSans-6c" x="1129.589844"/>
      <use xlink:href="#DejaVuSans-29" x="1157.373047"/>
     </g>
    </g>
   </g>
   <g id="line2d_14">
    <path d="M 73.832727 275.823884 
L 75.462181 278.650286 
L 77.091636 281.253975 
L 78.72109 283.634604 
L 80.350544 285.792341 
L 81.979998 287.727858 
L 83.609452 289.442317 
L 85.238907 290.937353 
L 86.868361 292.215057 
L 88.497815 293.277959 
L 90.127269 294.129016 
L 91.756723 294.771594 
L 93.386178 295.209455 
L 95.015632 295.446749 
L 96.645086 295.488 
L 98.27454 295.338095 
L 99.903994 295.002273 
L 101.533449 294.486111 
L 103.162903 293.795506 
L 104.792357 292.936662 
L 106.421811 291.916065 
L 108.051266 290.740455 
L 111.310174 287.95229 
L 114.569082 284.630111 
L 117.827991 280.833897 
L 121.086899 276.624447 
L 124.345808 272.062169 
L 129.23417 264.685395 
L 134.122533 256.834291 
L 140.64035 245.919296 
L 156.934892 218.367842 
L 163.452708 207.86342 
L 168.341071 200.335303 
L 173.229434 193.162577 
L 178.117796 186.384574 
L 183.006159 180.032932 
L 187.894521 174.133052 
L 192.782884 168.7053 
L 196.041792 165.357284 
L 199.300701 162.230407 
L 202.559609 159.328097 
L 205.818518 156.653294 
L 209.077426 154.208507 
L 212.336334 151.995872 
L 215.595243 150.017187 
L 218.854151 148.273957 
L 222.11306 146.767418 
L 225.371968 145.498564 
L 228.630876 144.468169 
L 231.889785 143.676796 
L 235.148693 143.124815 
L 238.407602 142.812405 
L 241.66651 142.739559 
L 244.925418 142.906082 
L 248.184327 143.311591 
L 251.443235 143.955499 
L 254.702144 144.83701 
L 257.961052 145.955098 
L 261.21996 147.308486 
L 264.478869 148.895615 
L 267.737777 150.714614 
L 270.996686 152.763252 
L 274.255594 155.038889 
L 277.514502 157.538412 
L 280.773411 160.258158 
L 284.032319 163.193825 
L 287.291228 166.340361 
L 292.17959 171.44228 
L 297.067953 176.980441 
L 301.956315 182.923417 
L 306.844678 189.231008 
L 311.733041 195.851696 
L 318.250857 205.049581 
L 334.5454 228.377903 
L 339.433762 234.847248 
L 342.692671 238.831326 
L 345.951579 242.461824 
L 349.210487 245.654328 
L 352.469396 248.320618 
L 354.09885 249.428563 
L 355.728304 250.37175 
L 357.357758 251.139596 
L 358.987213 251.722002 
L 360.616667 252.109496 
L 362.246121 252.293383 
L 363.875575 252.265875 
L 365.505029 252.020211 
L 367.134484 251.550757 
L 368.763938 250.853083 
L 370.393392 249.924006 
L 372.022846 248.761608 
L 373.6523 247.365226 
L 375.281755 245.735405 
L 376.911209 243.873829 
L 378.540663 241.783232 
L 380.170117 239.467283 
L 381.799571 236.930467 
L 385.05848 231.215452 
L 388.317388 224.685366 
L 391.576297 217.392211 
L 394.835205 209.389385 
L 398.094113 200.729035 
L 398.094113 200.729035 
" clip-path="url(#p0308a9f278)" style="fill: none; stroke: #1f77b4; stroke-width: 1.5; stroke-linecap: square"/>
   </g>
   <g id="line2d_15">
    <path d="M 73.832727 263.770022 
L 77.091636 271.493524 
L 78.72109 274.948527 
L 80.350544 278.130747 
L 81.979998 281.039772 
L 83.609452 283.675824 
L 85.238907 286.039741 
L 86.868361 288.13296 
L 88.497815 289.957498 
L 90.127269 291.515928 
L 91.756723 292.811363 
L 93.386178 293.847435 
L 95.015632 294.62828 
L 96.645086 295.158517 
L 98.27454 295.44324 
L 99.903994 295.488 
L 101.533449 295.298794 
L 103.162903 294.882048 
L 104.792357 294.244602 
L 106.421811 293.393689 
L 108.051266 292.336915 
L 109.68072 291.082231 
L 111.310174 289.637901 
L 112.939628 288.012472 
L 116.198537 284.253663 
L 119.457445 279.878226 
L 122.716353 274.960322 
L 125.975262 269.57435 
L 129.23417 263.793512 
L 134.122533 254.535641 
L 139.010895 244.770594 
L 147.158166 227.900104 
L 158.564346 204.256885 
L 165.082163 191.25481 
L 169.970525 181.90547 
L 174.858888 172.97335 
L 179.74725 164.510128 
L 184.635613 156.557405 
L 189.523976 149.148599 
L 194.412338 142.310517 
L 197.671247 138.079653 
L 200.930155 134.117333 
L 204.189063 130.428083 
L 207.447972 127.015783 
L 210.70688 123.883758 
L 213.965789 121.034837 
L 217.224697 118.471419 
L 220.483605 116.195518 
L 223.742514 114.208802 
L 227.001422 112.512631 
L 230.260331 111.108082 
L 233.519239 109.995969 
L 236.778147 109.176858 
L 240.037056 108.651082 
L 243.295964 108.418744 
L 246.554873 108.479717 
L 249.813781 108.833645 
L 253.072689 109.479933 
L 256.331598 110.417734 
L 259.590506 111.645931 
L 262.849415 113.163114 
L 266.108323 114.967547 
L 269.367231 117.057131 
L 272.62614 119.429355 
L 275.885048 122.08124 
L 279.143957 125.009266 
L 282.402865 128.209288 
L 285.661773 131.676434 
L 288.920682 135.404984 
L 292.17959 139.388218 
L 295.438499 143.61824 
L 300.326861 150.40526 
L 305.215224 157.687723 
L 310.103586 165.416295 
L 314.991949 173.527754 
L 321.509766 184.795368 
L 337.804308 213.363455 
L 342.692671 221.281807 
L 345.951579 226.156614 
L 349.210487 230.597159 
L 352.469396 234.499981 
L 354.09885 236.216055 
L 355.728304 237.756997 
L 357.357758 239.109198 
L 358.987213 240.25929 
L 360.616667 241.194327 
L 362.246121 241.901954 
L 363.875575 242.370593 
L 365.505029 242.58962 
L 367.134484 242.549525 
L 368.763938 242.24206 
L 370.393392 241.66036 
L 372.022846 240.799035 
L 373.6523 239.654224 
L 375.281755 238.223618 
L 376.911209 236.506439 
L 378.540663 234.503391 
L 380.170117 232.21657 
L 381.799571 229.649352 
L 383.429026 226.806258 
L 385.05848 223.692802 
L 386.687934 220.315331 
L 389.946842 212.796931 
L 393.205751 204.312443 
L 396.464659 194.926899 
L 398.094113 189.916614 
L 398.094113 189.916614 
" clip-path="url(#p0308a9f278)" style="fill: none; stroke: #ff7f0e; stroke-width: 1.5; stroke-linecap: square"/>
   </g>
   <g id="line2d_16">
    <path d="M 73.832727 253.020998 
L 77.091636 262.669993 
L 80.350544 271.074212 
L 81.979998 274.804763 
L 83.609452 278.219886 
L 85.238907 281.319709 
L 86.868361 284.105074 
L 88.497815 286.57752 
L 90.127269 288.739257 
L 91.756723 290.593146 
L 93.386178 292.142671 
L 95.015632 293.391922 
L 96.645086 294.345571 
L 98.27454 295.008854 
L 99.903994 295.387558 
L 101.533449 295.488 
L 103.162903 295.317013 
L 104.792357 294.881932 
L 106.421811 294.19057 
L 108.051266 293.251201 
L 109.68072 292.072534 
L 111.310174 290.66368 
L 112.939628 289.034121 
L 114.569082 287.193672 
L 116.198537 285.152431 
L 119.457445 280.509122 
L 122.716353 275.188855 
L 125.975262 269.277585 
L 129.23417 262.860845 
L 132.493079 256.022148 
L 137.381441 245.146988 
L 143.899258 229.878026 
L 163.452708 183.216212 
L 169.970525 168.5079 
L 174.858888 157.997004 
L 179.74725 148.005641 
L 184.635613 138.586131 
L 189.523976 129.780536 
L 194.412338 121.622614 
L 197.671247 116.557411 
L 200.930155 111.798832 
L 204.189063 107.352585 
L 207.447972 103.223578 
L 210.70688 99.416017 
L 213.965789 95.933497 
L 217.224697 92.779074 
L 220.483605 89.955328 
L 223.742514 87.464415 
L 227.001422 85.308112 
L 230.260331 83.48785 
L 233.519239 82.004746 
L 236.778147 80.859621 
L 240.037056 80.053016 
L 243.295964 79.585205 
L 246.554873 79.456199 
L 249.813781 79.665743 
L 253.072689 80.213313 
L 256.331598 81.098106 
L 259.590506 82.319019 
L 262.849415 83.874625 
L 266.108323 85.763147 
L 269.367231 87.982414 
L 272.62614 90.529814 
L 275.885048 93.402234 
L 279.143957 96.595988 
L 282.402865 100.106727 
L 285.661773 103.929338 
L 288.920682 108.057809 
L 292.17959 112.485083 
L 295.438499 117.20287 
L 298.697407 122.201428 
L 303.58577 130.2001 
L 308.474132 138.756621 
L 313.362495 147.810024 
L 318.250857 157.282161 
L 324.768674 170.385984 
L 337.804308 196.891753 
L 342.692671 206.287192 
L 345.951579 212.158823 
L 349.210487 217.595591 
L 352.469396 222.482672 
L 355.728304 226.697961 
L 357.357758 228.51439 
L 358.987213 230.115656 
L 360.616667 231.486264 
L 362.246121 232.611159 
L 363.875575 233.47594 
L 365.505029 234.067065 
L 367.134484 234.372054 
L 368.763938 234.379684 
L 370.393392 234.080162 
L 372.022846 233.465268 
L 373.6523 232.52847 
L 375.281755 231.264992 
L 376.911209 229.67185 
L 378.540663 227.747835 
L 380.170117 225.493461 
L 381.799571 222.910871 
L 383.429026 220.003713 
L 385.05848 216.776984 
L 386.687934 213.23686 
L 388.317388 209.390514 
L 391.576297 200.811696 
L 394.835205 191.110794 
L 398.094113 180.362717 
L 398.094113 180.362717 
" clip-path="url(#p0308a9f278)" style="fill: none; stroke: #2ca02c; stroke-width: 1.5; stroke-linecap: square"/>
   </g>
   <g id="line2d_17">
    <path d="M 73.832727 243.300827 
L 77.091636 254.640704 
L 80.350544 264.598801 
L 81.979998 269.052685 
L 83.609452 273.154389 
L 85.238907 276.903397 
L 86.868361 280.300012 
L 88.497815 283.345329 
L 90.127269 286.041218 
L 91.756723 288.390296 
L 93.386178 290.395899 
L 95.015632 292.062057 
L 96.645086 293.393473 
L 98.27454 294.395495 
L 99.903994 295.074101 
L 101.533449 295.435877 
L 103.162903 295.488 
L 104.792357 295.238223 
L 106.421811 294.694851 
L 108.051266 293.866725 
L 109.68072 292.763192 
L 111.310174 291.39408 
L 112.939628 289.76966 
L 114.569082 287.900611 
L 116.198537 285.79797 
L 117.827991 283.473087 
L 121.086899 278.203217 
L 124.345808 272.185883 
L 127.604716 265.517221 
L 130.863624 258.292715 
L 134.122533 250.605427 
L 139.010895 238.400377 
L 145.528712 221.294033 
L 165.082163 169.153442 
L 171.599979 152.748627 
L 176.488342 141.033036 
L 181.376705 129.902526 
L 186.265067 119.41477 
L 191.15343 109.616124 
L 194.412338 103.485223 
L 197.671247 97.686414 
L 200.930155 92.227571 
L 204.189063 87.115477 
L 207.447972 82.355962 
L 210.70688 77.954034 
L 213.965789 73.913974 
L 217.224697 70.239432 
L 220.483605 66.933498 
L 223.742514 63.998768 
L 227.001422 61.437394 
L 230.260331 59.251127 
L 233.519239 57.441352 
L 236.778147 56.009119 
L 240.037056 54.955156 
L 243.295964 54.27989 
L 246.554873 53.983449 
L 249.813781 54.065668 
L 253.072689 54.526086 
L 256.331598 55.36393 
L 259.590506 56.578104 
L 262.849415 58.167163 
L 266.108323 60.129282 
L 269.367231 62.462216 
L 272.62614 65.163252 
L 275.885048 68.229142 
L 279.143957 71.656033 
L 282.402865 75.439375 
L 285.661773 79.573809 
L 288.920682 84.053036 
L 292.17959 88.86966 
L 295.438499 94.014992 
L 298.697407 99.478824 
L 303.58577 108.244943 
L 308.474132 117.650329 
L 313.362495 127.631195 
L 318.250857 138.105797 
L 324.768674 152.654727 
L 341.063216 189.532829 
L 345.951579 199.750498 
L 349.210487 206.039241 
L 352.469396 211.766156 
L 355.728304 216.797602 
L 357.357758 219.009016 
L 358.987213 220.99401 
L 360.616667 222.735015 
L 362.246121 224.214786 
L 363.875575 225.416617 
L 365.505029 226.324577 
L 367.134484 226.923739 
L 368.763938 227.200412 
L 370.393392 227.142347 
L 372.022846 226.738928 
L 373.6523 225.981327 
L 375.281755 224.86262 
L 376.911209 223.377862 
L 378.540663 221.524108 
L 380.170117 219.300389 
L 381.799571 216.707649 
L 383.429026 213.748625 
L 385.05848 210.427705 
L 386.687934 206.750753 
L 388.317388 202.724907 
L 389.946842 198.35838 
L 393.205751 188.64024 
L 396.464659 177.675649 
L 398.094113 171.752136 
L 398.094113 171.752136 
" clip-path="url(#p0308a9f278)" style="fill: none; stroke: #d62728; stroke-width: 1.5; stroke-linecap: square"/>
   </g>
   <g id="patch_3">
    <path d="M 57.6 307.584 
L 57.6 41.472 
" style="fill: none; stroke: #000000; stroke-width: 0.8; stroke-linejoin: miter; stroke-linecap: square"/>
   </g>
   <g id="patch_4">
    <path d="M 414.72 307.584 
L 414.72 41.472 
" style="fill: none; stroke: #000000; stroke-width: 0.8; stroke-linejoin: miter; stroke-linecap: square"/>
   </g>
   <g id="patch_5">
    <path d="M 57.6 307.584 
L 414.72 307.584 
" style="fill: none; stroke: #000000; stroke-width: 0.8; stroke-linejoin: miter; stroke-linecap: square"/>
   </g>
   <g id="patch_6">
    <path d="M 57.6 41.472 
L 414.72 41.472 
" style="fill: none; stroke: #000000; stroke-width: 0.8; stroke-linejoin: miter; stroke-linecap: square"/>
   </g>
   <g id="text_16">
    <!-- PMF -->
    <g transform="translate(223.914375 35.472) scale(0.12 -0.12)">
     <use xlink:href="#DejaVuSans-50"/>
     <use xlink:href="#DejaVuSans-4d" x="60.302734"/>
     <use xlink:href="#DejaVuSans-46" x="146.582031"/>
    </g>
   </g>
   <g id="legend_1">
    <g id="patch_7">
     <path d="M 158.525625 302.584 
L 313.794375 302.584 
Q 315.794375 302.584 315.794375 300.584 
L 315.794375 227.91525 
Q 315.794375 225.91525 313.794375 225.91525 
L 158.525625 225.91525 
Q 156.525625 225.91525 156.525625 227.91525 
L 156.525625 300.584 
Q 156.525625 302.584 158.525625 302.584 
z
" style="fill: #ffffff; opacity: 0.8; stroke: #cccccc; stroke-linejoin: miter"/>
    </g>
    <g id="line2d_18">
     <path d="M 160.525625 234.013687 
L 170.525625 234.013687 
L 180.525625 234.013687 
" style="fill: none; stroke: #1f77b4; stroke-width: 1.5; stroke-linecap: square"/>
    </g>
    <g id="text_17">
     <!-- ks: 4.00 -->
     <g transform="translate(188.525625 237.513687) scale(0.1 -0.1)">
      <defs>
       <path id="DejaVuSans-3a" d="M 750 794 
L 1409 794 
L 1409 0 
L 750 0 
L 750 794 
z
M 750 3309 
L 1409 3309 
L 1409 2516 
L 750 2516 
L 750 3309 
z
" transform="scale(0.015625)"/>
      </defs>
      <use xlink:href="#DejaVuSans-6b"/>
      <use xlink:href="#DejaVuSans-73" x="57.910156"/>
      <use xlink:href="#DejaVuSans-3a" x="110.009766"/>
      <use xlink:href="#DejaVuSans-20" x="143.701172"/>
      <use xlink:href="#DejaVuSans-34" x="175.488281"/>
      <use xlink:href="#DejaVuSans-2e" x="239.111328"/>
      <use xlink:href="#DejaVuSans-30" x="270.898438"/>
      <use xlink:href="#DejaVuSans-30" x="334.521484"/>
     </g>
    </g>
    <g id="line2d_19">
     <path d="M 160.525625 248.691812 
L 170.525625 248.691812 
L 180.525625 248.691812 
" style="fill: none; stroke: #ff7f0e; stroke-width: 1.5; stroke-linecap: square"/>
    </g>
    <g id="text_18">
     <!-- ks: 6.00 -->
     <g transform="translate(188.525625 252.191812) scale(0.1 -0.1)">
      <use xlink:href="#DejaVuSans-6b"/>
      <use xlink:href="#DejaVuSans-73" x="57.910156"/>
      <use xlink:href="#DejaVuSans-3a" x="110.009766"/>
      <use xlink:href="#DejaVuSans-20" x="143.701172"/>
      <use xlink:href="#DejaVuSans-36" x="175.488281"/>
      <use xlink:href="#DejaVuSans-2e" x="239.111328"/>
      <use xlink:href="#DejaVuSans-30" x="270.898438"/>
      <use xlink:href="#DejaVuSans-30" x="334.521484"/>
     </g>
    </g>
    <g id="line2d_20">
     <path d="M 160.525625 263.369937 
L 170.525625 263.369937 
L 180.525625 263.369937 
" style="fill: none; stroke: #2ca02c; stroke-width: 1.5; stroke-linecap: square"/>
    </g>
    <g id="text_19">
     <!-- ks: 8.00 -->
     <g transform="translate(188.525625 266.869937) scale(0.1 -0.1)">
      <use xlink:href="#DejaVuSans-6b"/>
      <use xlink:href="#DejaVuSans-73" x="57.910156"/>
      <use xlink:href="#DejaVuSans-3a" x="110.009766"/>
      <use xlink:href="#DejaVuSans-20" x="143.701172"/>
      <use xlink:href="#DejaVuSans-38" x="175.488281"/>
      <use xlink:href="#DejaVuSans-2e" x="239.111328"/>
      <use xlink:href="#DejaVuSans-30" x="270.898438"/>
      <use xlink:href="#DejaVuSans-30" x="334.521484"/>
     </g>
    </g>
    <g id="line2d_21">
     <path d="M 160.525625 278.048063 
L 170.525625 278.048063 
L 180.525625 278.048063 
" style="fill: none; stroke: #d62728; stroke-width: 1.5; stroke-linecap: square"/>
    </g>
    <g id="text_20">
     <!-- ks: 10.00 -->
     <g transform="translate(188.525625 281.548063) scale(0.1 -0.1)">
      <use xlink:href="#DejaVuSans-6b"/>
      <use xlink:href="#DejaVuSans-73" x="57.910156"/>
      <use xlink:href="#DejaVuSans-3a" x="110.009766"/>
      <use xlink:href="#DejaVuSans-20" x="143.701172"/>
      <use xlink:href="#DejaVuSans-31" x="175.488281"/>
      <use xlink:href="#DejaVuSans-30" x="239.111328"/>
      <use xlink:href="#DejaVuSans-2e" x="302.734375"/>
      <use xlink:href="#DejaVuSans-30" x="334.521484"/>
      <use xlink:href="#DejaVuSans-30" x="398.144531"/>
     </g>
    </g>
    <g id="PathCollection_2">
     <g>
      <use xlink:href="#mf60720e771" x="170.525625" y="293.601187" style="stroke: #000000"/>
     </g>
    </g>
    <g id="text_21">
     <!-- PMF_RE (Simulation-Traj) -->
     <g transform="translate(188.525625 296.226187) scale(0.1 -0.1)">
      <defs>
       <path id="DejaVuSans-5f" d="M 3263 -1063 
L 3263 -1509 
L -63 -1509 
L -63 -1063 
L 3263 -1063 
z
" transform="scale(0.015625)"/>
       <path id="DejaVuSans-52" d="M 2841 2188 
Q 3044 2119 3236 1894 
Q 3428 1669 3622 1275 
L 4263 0 
L 3584 0 
L 2988 1197 
Q 2756 1666 2539 1819 
Q 2322 1972 1947 1972 
L 1259 1972 
L 1259 0 
L 628 0 
L 628 4666 
L 2053 4666 
Q 2853 4666 3247 4331 
Q 3641 3997 3641 3322 
Q 3641 2881 3436 2590 
Q 3231 2300 2841 2188 
z
M 1259 4147 
L 1259 2491 
L 2053 2491 
Q 2509 2491 2742 2702 
Q 2975 2913 2975 3322 
Q 2975 3731 2742 3939 
Q 2509 4147 2053 4147 
L 1259 4147 
z
" transform="scale(0.015625)"/>
       <path id="DejaVuSans-45" d="M 628 4666 
L 3578 4666 
L 3578 4134 
L 1259 4134 
L 1259 2753 
L 3481 2753 
L 3481 2222 
L 1259 2222 
L 1259 531 
L 3634 531 
L 3634 0 
L 628 0 
L 628 4666 
z
" transform="scale(0.015625)"/>
       <path id="DejaVuSans-53" d="M 3425 4513 
L 3425 3897 
Q 3066 4069 2747 4153 
Q 2428 4238 2131 4238 
Q 1616 4238 1336 4038 
Q 1056 3838 1056 3469 
Q 1056 3159 1242 3001 
Q 1428 2844 1947 2747 
L 2328 2669 
Q 3034 2534 3370 2195 
Q 3706 1856 3706 1288 
Q 3706 609 3251 259 
Q 2797 -91 1919 -91 
Q 1588 -91 1214 -16 
Q 841 59 441 206 
L 441 856 
Q 825 641 1194 531 
Q 1563 422 1919 422 
Q 2459 422 2753 634 
Q 3047 847 3047 1241 
Q 3047 1584 2836 1778 
Q 2625 1972 2144 2069 
L 1759 2144 
Q 1053 2284 737 2584 
Q 422 2884 422 3419 
Q 422 4038 858 4394 
Q 1294 4750 2059 4750 
Q 2388 4750 2728 4690 
Q 3069 4631 3425 4513 
z
" transform="scale(0.015625)"/>
       <path id="DejaVuSans-69" d="M 603 3500 
L 1178 3500 
L 1178 0 
L 603 0 
L 603 3500 
z
M 603 4863 
L 1178 4863 
L 1178 4134 
L 603 4134 
L 603 4863 
z
" transform="scale(0.015625)"/>
       <path id="DejaVuSans-75" d="M 544 1381 
L 544 3500 
L 1119 3500 
L 1119 1403 
Q 1119 906 1312 657 
Q 1506 409 1894 409 
Q 2359 409 2629 706 
Q 2900 1003 2900 1516 
L 2900 3500 
L 3475 3500 
L 3475 0 
L 2900 0 
L 2900 538 
Q 2691 219 2414 64 
Q 2138 -91 1772 -91 
Q 1169 -91 856 284 
Q 544 659 544 1381 
z
M 1991 3584 
L 1991 3584 
z
" transform="scale(0.015625)"/>
       <path id="DejaVuSans-74" d="M 1172 4494 
L 1172 3500 
L 2356 3500 
L 2356 3053 
L 1172 3053 
L 1172 1153 
Q 1172 725 1289 603 
Q 1406 481 1766 481 
L 2356 481 
L 2356 0 
L 1766 0 
Q 1100 0 847 248 
Q 594 497 594 1153 
L 594 3053 
L 172 3053 
L 172 3500 
L 594 3500 
L 594 4494 
L 1172 4494 
z
" transform="scale(0.015625)"/>
       <path id="DejaVuSans-6e" d="M 3513 2113 
L 3513 0 
L 2938 0 
L 2938 2094 
Q 2938 2591 2744 2837 
Q 2550 3084 2163 3084 
Q 1697 3084 1428 2787 
Q 1159 2491 1159 1978 
L 1159 0 
L 581 0 
L 581 3500 
L 1159 3500 
L 1159 2956 
Q 1366 3272 1645 3428 
Q 1925 3584 2291 3584 
Q 2894 3584 3203 3211 
Q 3513 2838 3513 2113 
z
" transform="scale(0.015625)"/>
       <path id="DejaVuSans-2d" d="M 313 2009 
L 1997 2009 
L 1997 1497 
L 313 1497 
L 313 2009 
z
" transform="scale(0.015625)"/>
       <path id="DejaVuSans-54" d="M -19 4666 
L 3928 4666 
L 3928 4134 
L 2272 4134 
L 2272 0 
L 1638 0 
L 1638 4134 
L -19 4134 
L -19 4666 
z
" transform="scale(0.015625)"/>
       <path id="DejaVuSans-72" d="M 2631 2963 
Q 2534 3019 2420 3045 
Q 2306 3072 2169 3072 
Q 1681 3072 1420 2755 
Q 1159 2438 1159 1844 
L 1159 0 
L 581 0 
L 581 3500 
L 1159 3500 
L 1159 2956 
Q 1341 3275 1631 3429 
Q 1922 3584 2338 3584 
Q 2397 3584 2469 3576 
Q 2541 3569 2628 3553 
L 2631 2963 
z
" transform="scale(0.015625)"/>
       <path id="DejaVuSans-6a" d="M 603 3500 
L 1178 3500 
L 1178 -63 
Q 1178 -731 923 -1031 
Q 669 -1331 103 -1331 
L -116 -1331 
L -116 -844 
L 38 -844 
Q 366 -844 484 -692 
Q 603 -541 603 -63 
L 603 3500 
z
M 603 4863 
L 1178 4863 
L 1178 4134 
L 603 4134 
L 603 4863 
z
" transform="scale(0.015625)"/>
      </defs>
      <use xlink:href="#DejaVuSans-50"/>
      <use xlink:href="#DejaVuSans-4d" x="60.302734"/>
      <use xlink:href="#DejaVuSans-46" x="146.582031"/>
      <use xlink:href="#DejaVuSans-5f" x="204.101562"/>
      <use xlink:href="#DejaVuSans-52" x="254.101562"/>
      <use xlink:href="#DejaVuSans-45" x="323.583984"/>
      <use xlink:href="#DejaVuSans-20" x="386.767578"/>
      <use xlink:href="#DejaVuSans-28" x="418.554688"/>
      <use xlink:href="#DejaVuSans-53" x="457.568359"/>
      <use xlink:href="#DejaVuSans-69" x="521.044922"/>
      <use xlink:href="#DejaVuSans-6d" x="548.828125"/>
      <use xlink:href="#DejaVuSans-75" x="646.240234"/>
      <use xlink:href="#DejaVuSans-6c" x="709.619141"/>
      <use xlink:href="#DejaVuSans-61" x="737.402344"/>
      <use xlink:href="#DejaVuSans-74" x="798.681641"/>
      <use xlink:href="#DejaVuSans-69" x="837.890625"/>
      <use xlink:href="#DejaVuSans-6f" x="865.673828"/>
      <use xlink:href="#DejaVuSans-6e" x="926.855469"/>
      <use xlink:href="#DejaVuSans-2d" x="990.234375"/>
      <use xlink:href="#DejaVuSans-54" x="1017.193359"/>
      <use xlink:href="#DejaVuSans-72" x="1063.527344"/>
      <use xlink:href="#DejaVuSans-61" x="1104.640625"/>
      <use xlink:href="#DejaVuSans-6a" x="1165.919922"/>
      <use xlink:href="#DejaVuSans-29" x="1193.703125"/>
     </g>
    </g>
   </g>
  </g>
 </g>
 <defs>
  <clipPath id="p0308a9f278">
   <rect x="57.6" y="41.472" width="357.12" height="266.112"/>
  </clipPath>
 </defs>
</svg>
