<?xml version="1.0" encoding="ISO-8859-1"?>
<!DOCTYPE svg PUBLIC "-//W3C//DTD SVG 1.0//EN" "http://www.w3.org/TR/2001/REC-SVG-20010904/DTD/svg10.dtd">
<!-- generated by Grace-5.1.25 -->
<svg xml:space="preserve" width="10.4167in" height="9.3750in" viewBox="0.0000 0.0000 750.0000 675.0000">
 <g transform="translate(0,675.0000) scale(1,-1)">
  <g style="fill:#FFFFFF; fill-rule:nonzero">
   <path  d="M0.0000,0.0000L0.0000,675.0000L750.0000,675.0000L750.0000,0.0000z"/>
  </g>
  <g style="fill:none; stroke:#FF0000; stroke-width:  1.5188; stroke-linecap:butt; stroke-linejoin:miter; stroke-dasharray:none">
   <path d="M99.3160,54.0000L99.3160,518.4057L112.8160,518.4057L112.8160,54.0000z"/>
   <path d="M131.1320,54.0000L131.1320,408.7301L144.6320,408.7301L144.6320,54.0000z"/>
   <path d="M162.9480,54.0000L162.9480,265.7030L176.4480,265.7030L176.4480,54.0000z"/>
   <path d="M194.7640,54.0000L194.7640,229.6455L208.2640,229.6455L208.2640,54.0000z"/>
   <path d="M226.5800,54.0000L226.5800,140.4062L240.0800,140.4062L240.0800,54.0000z"/>
   <path d="M258.3960,54.0000L258.3960,75.8169L271.8960,75.8169L271.8960,54.0000z"/>
   <path d="M290.2120,54.0000L290.2120,87.7385L303.7120,87.7385L303.7120,54.0000z"/>
   <path d="M322.0280,54.0000L322.0280,113.7772L335.5280,113.7772L335.5280,54.0000z"/>
   <path d="M353.8440,54.0000L353.8440,106.3733L367.3440,106.3733L367.3440,54.0000z"/>
   <path d="M385.6600,54.0000L385.6600,54.0000L399.1600,54.0000L399.1600,54.0000z"/>
   <path d="M417.4759,54.0000L417.4759,62.7263L430.9759,62.7263L430.9759,54.0000z"/>
   <path d="M449.2919,54.0000L449.2919,77.4493L462.7919,77.4493L462.7919,54.0000z"/>
   <path d="M481.1079,54.0000L481.1079,96.5198L494.6079,96.5198L494.6079,54.0000z"/>
   <path d="M512.9239,54.0000L512.9239,129.5406L526.4239,129.5406L526.4239,54.0000z"/>
   <path d="M544.7399,54.0000L544.7399,145.0283L558.2399,145.0283L558.2399,54.0000z"/>
   <path d="M576.5559,54.0000L576.5559,120.8768L590.0559,120.8768L590.0559,54.0000z"/>
   <path d="M608.3719,54.0000L608.3719,105.0708L621.8719,105.0708L621.8719,54.0000z"/>
   <path d="M640.1879,54.0000L640.1879,125.8338L653.6879,125.8338L653.6879,54.0000z"/>
   <path d="M672.0039,54.0000L672.0039,130.4534L685.5039,130.4534L685.5039,54.0000z"/>
   <path d="M703.8199,54.0000L703.8199,127.1045L717.3199,127.1045L717.3199,54.0000z"/>
  </g>
  <g style="fill:none; stroke:#7221BC; stroke-width:  1.5188; stroke-linecap:butt; stroke-linejoin:miter; stroke-dasharray:none">
   <path d="M87.0337,54.2372L87.0368,119.0372L87.0375,133.2223L87.0382,146.9340L87.0389,160.1895L87.0396,173.0050L87.0403,185.3964L87.0410,197.3786L87.0417,208.9660L87.0423,220.1724
            L87.0430,231.0111L87.0437,241.4949L87.0444,251.6359L87.0451,261.4459L87.0458,270.9362L87.0465,280.1176L87.0472,289.0007L87.0478,297.5954L87.0485,305.9115L87.0492,313.9583
            L87.0499,321.7447L87.0506,329.2795L87.0513,336.5710L87.0520,343.6273L87.0527,350.4560L87.0533,357.0648L87.0540,363.4608L87.0547,369.6511L87.0554,375.6423L87.0561,381.4411
            L87.0568,387.0535L87.0575,392.4858L87.0581,397.7438L87.0588,402.8332L87.0595,407.7594L87.0602,412.5277L87.0609,417.1432L87.0616,421.6109L87.0623,425.9355L87.0630,430.1217
            L87.0636,434.1739L87.0643,438.0965L87.0650,441.8936L87.0657,445.5692L87.0664,449.1274L87.0671,452.5717L87.0678,455.9059L87.0685,459.1336L87.0691,462.2581L87.0698,465.2828
            L87.0705,468.2108L87.0712,471.0453L87.0719,473.7892L87.0726,476.4455L87.0733,479.0169L87.0740,481.5062L87.0746,483.9160L87.0753,486.2488L87.0760,488.5071L87.0767,490.6933
            L87.0774,492.8097L87.0781,494.8585L87.0788,496.8418L87.0794,498.7619L87.0801,500.6206L87.0808,502.4200L87.0815,504.1619L87.0822,505.8482L87.0829,507.4806L87.0836,509.0609
            L87.0843,510.5907L87.0849,512.0717L87.0856,513.5053L87.0863,514.8932L87.0870,516.2368L87.0877,517.5374L87.0884,518.7965L87.0891,520.0153L87.0898,521.1952L87.0904,522.3374
            L87.0911,523.4432L87.0918,524.5136L87.0925,525.5498L87.0932,526.5528L87.0939,527.5238L87.0946,528.4638L87.0953,529.3737L87.0959,530.2546L87.0966,531.1073L87.0973,531.9327
            L87.0980,532.7317L87.0987,533.5052L87.0994,534.2539L87.1001,534.9786L87.1007,535.6802L87.1014,536.3594L87.1021,537.0168L87.1028,537.6531L87.1035,538.2691L87.1042,538.8654
            L87.1049,539.4426L87.1056,540.0013L87.1062,540.5421L87.1069,541.0656L87.1076,541.5724L87.1083,542.0628L87.1090,542.5376L87.1097,542.9972L87.1104,543.4420L87.1111,543.8725
            L87.1117,544.2892L87.1124,544.6926L87.1131,545.0831L87.1138,545.4610L87.1145,545.8267L87.1152,546.1808L87.1159,546.5234L87.1166,546.8551L87.1172,547.1761L87.1179,547.4868
            L87.1186,547.7875L87.1193,548.0785L87.1200,548.3602L87.1207,548.6328L87.1214,548.8966L87.1220,549.1519L87.1227,549.3990L87.1234,549.6382L87.1241,549.8696L87.1248,550.0936
            L87.1255,550.3104L87.1262,550.5201L87.1269,550.7231L87.1275,550.9196L87.1282,551.1097L87.1289,551.2936L87.1296,551.4716L87.1303,551.6438L87.1310,551.8105L87.1317,551.9718
            L87.1324,552.1279L87.1330,552.2788L87.1337,552.4249L87.1344,552.5663L87.1351,552.7031L87.1358,552.8354L87.1365,552.9634L87.1372,553.0872L87.1379,553.2071L87.1385,553.3230
            L87.1392,553.4351L87.1399,553.5436L87.1406,553.6485L87.1413,553.7501L87.1420,553.8483L87.1427,553.9432L87.1433,554.0351L87.1440,554.1240L87.1447,554.2099L87.1454,554.2930
            L87.1461,554.3734L87.1468,554.4511L87.1475,554.5263L87.1482,554.5990L87.1488,554.6693L87.1495,554.7372L87.1502,554.8030L87.1509,554.8665L87.1516,554.9279L87.1523,554.9873
            L87.1530,555.0447L87.1537,555.1002L87.1543,555.1539L87.1550,555.2057L87.1557,555.2558L87.1564,555.3043L87.1571,555.3511L87.1578,555.3963L87.1585,555.4400L87.1592,555.4823
            L87.1598,555.5230L87.1605,555.5625L87.1612,555.6005L87.1619,555.6373L87.1626,555.6728L87.1633,555.7072L87.1640,555.7403L87.1646,555.7723L87.1653,555.8031L87.1660,555.8330
            L87.1667,555.8617L87.1674,555.8895L87.1681,555.9163L87.1688,555.9422L87.1695,555.9672L87.1701,555.9913L87.1708,556.0145L87.1715,556.0369L87.1722,556.0585L87.1729,556.0794
            L87.1736,556.0995L87.1743,556.1188L87.1750,556.1375L87.1756,556.1555L87.1763,556.1728L87.1770,556.1895L87.1777,556.2056L87.1784,556.2211L87.1791,556.2360L87.1798,556.2503
            L87.1805,556.2641L87.1811,556.2774L87.1818,556.2902L87.1825,556.3025L87.1832,556.3143L87.1839,556.3256L87.1846,556.3366L87.1853,556.3470L87.1859,556.3571L87.1866,556.3668
            L87.1873,556.3760L87.1880,556.3849L87.1887,556.3934L87.1894,556.4016L87.1901,556.4094L87.1908,556.4169L87.1914,556.4240L87.1921,556.4309L87.1928,556.4374L87.1935,556.4437
            L87.1942,556.4497L87.1949,556.4554L87.1956,556.4608L87.1963,556.4660L87.1969,556.4709L87.1976,556.4756L87.1983,556.4800L87.1990,556.4843L87.1997,556.4883L87.2004,556.4921
            L87.2011,556.4957L87.2018,556.4991L87.2024,556.5023L87.2031,556.5053L87.2038,556.5082L87.2045,556.5108L87.2052,556.5133L87.2059,556.5157L87.2066,556.5178L87.2072,556.5199
            L87.2079,556.5217L87.2086,556.5235L87.2093,556.5251L87.2100,556.5265L87.2107,556.5279L87.2114,556.5291L87.2121,556.5302L87.2127,556.5311L87.2134,556.5320L87.2141,556.5327
            L87.2148,556.5333L87.2155,556.5339L87.2162,556.5343L87.2169,556.5346L87.2176,556.5349L87.2182,556.5350L87.2189,556.5351L87.2196,556.5350L87.2203,556.5349L87.2210,556.5347
            L87.2217,556.5345L87.2224,556.5341L87.2231,556.5337L87.2237,556.5332L87.2244,556.5327L87.2251,556.5321L87.2258,556.5314L87.2265,556.5306L87.2272,556.5299L87.2279,556.5290
            L87.2285,556.5281L87.2292,556.5271L87.2299,556.5261L87.2306,556.5250L87.2313,556.5239L87.2320,556.5227L87.2327,556.5215L87.2334,556.5202L87.2340,556.5189L87.2347,556.5176
            L87.2354,556.5162L87.2361,556.5148L87.2368,556.5133L87.2375,556.5118L87.2382,556.5102L87.2389,556.5087L87.2395,556.5071L87.2402,556.5054L87.2409,556.5038L87.2416,556.5021
            L87.2423,556.5003L87.2430,556.4986L87.2437,556.4968L87.2444,556.4950L87.2450,556.4932L87.2457,556.4913L87.2464,556.4894L87.2471,556.4875L87.2478,556.4856L87.2485,556.4836
            L87.2492,556.4816L87.2498,556.4797L87.2505,556.4776L87.2512,556.4756L87.2519,556.4736L87.2526,556.4715L87.2533,556.4694L87.2540,556.4673L87.2547,556.4652L87.2553,556.4630
            L87.2560,556.4609L87.2567,556.4587L87.2574,556.4565L87.2581,556.4543L87.2588,556.4521L87.2595,556.4499L87.2602,556.4477L87.2608,556.4454L87.2615,556.4432L87.2622,556.4409
            L87.2629,556.4386L87.2636,556.4363L87.2643,556.4340L87.2650,556.4317L87.2657,556.4294L87.2663,556.4271L87.2670,556.4247L87.2677,556.4224L87.2684,556.4200L87.2691,556.4177
            L87.2698,556.4153L87.2705,556.4129L87.2711,556.4105L87.2718,556.4081L87.2725,556.4057L87.2732,556.4033L87.2739,556.4009L87.2746,556.3985L87.2753,556.3960L87.2760,556.3936
            L87.2766,556.3912L87.2773,556.3887L87.2780,556.3863L87.2787,556.3838L87.2794,556.3814L87.2801,556.3789L87.2808,556.3764L87.2815,556.3739L87.2821,556.3714L87.2828,556.3690
            L87.2835,556.3665L87.2842,556.3640L87.2849,556.3615L87.2856,556.3590L87.2863,556.3565L87.2870,556.3540L87.2876,556.3515L87.2883,556.3490L87.2890,556.3464L87.2897,556.3439
            L87.2904,556.3414L87.2911,556.3389L87.2918,556.3363L87.2924,556.3338L87.2931,556.3313L87.2938,556.3287L87.2945,556.3262L87.2952,556.3236L87.2959,556.3211L87.2966,556.3186
            L87.2973,556.3160L87.2979,556.3134L87.2986,556.3109L87.2993,556.3083L87.3000,556.3058L87.3007,556.3032L87.3014,556.3007L87.3021,556.2981L87.3028,556.2955L87.3034,556.2930
            L87.3041,556.2904L87.3048,556.2878L87.3055,556.2853L87.3062,556.2827L87.3069,556.2801L87.3076,556.2775L87.3083,556.2750L87.3089,556.2724L87.3096,556.2698L87.3103,556.2672
            L87.3110,556.2646L87.3117,556.2621L87.3124,556.2595L87.3131,556.2569L87.3138,556.2543L87.3144,556.2517L87.3151,556.2491L87.3158,556.2465L87.3165,556.2440L87.3172,556.2414
            L87.3179,556.2388L87.3186,556.2362L87.3192,556.2336L87.3199,556.2310L87.3206,556.2284L87.3213,556.2258L87.3220,556.2232L87.3227,556.2206L87.3234,556.2180L87.3241,556.2154
            L87.3247,556.2129L87.3254,556.2102L87.3261,556.2076L87.3268,556.2050L87.3275,556.2024L87.3282,556.1998L87.3289,556.1973L87.3296,556.1946L87.3302,556.1920L87.3309,556.1894
            L87.3316,556.1868L87.3323,556.1842L87.3330,556.1816L87.3337,556.1790L87.3344,556.1764L87.3351,556.1738L87.3357,556.1712L87.3364,556.1686L87.3371,556.1660L87.3378,556.1634
            L87.3385,556.1608L87.3392,556.1582L87.3399,556.1556L87.3405,556.1530L87.3412,556.1504L87.3419,556.1478L87.3426,556.1452L87.3433,556.1425L87.3440,556.1399L87.3447,556.1373
            L87.3454,556.1347L87.3460,556.1321L87.3467,556.1295L87.3474,556.1269L87.3481,556.1243L87.3488,556.1217L87.3495,556.1191L87.3502,556.1165L87.3509,556.1139L87.3515,556.1112
            L87.3522,556.1086L87.3529,556.1060L87.3536,556.1034L87.3543,556.1008L87.3550,556.0982L87.3557,556.0956L87.3564,556.0930L87.3570,556.0904L87.3577,556.0877L87.3584,556.0852
            L87.3591,556.0825L87.3598,556.0799L87.3605,556.0773L87.3612,556.0747L87.3618,556.0721L87.3625,556.0695L87.3632,556.0669L87.3639,556.0642L87.3646,556.0616L87.3653,556.0590
            L87.3660,556.0564L87.3667,556.0538L87.3673,556.0512L87.3680,556.0486L87.3687,556.0460L87.3694,556.0434L87.3701,556.0407L87.3708,556.0381L87.3715,556.0355L87.3722,556.0329
            L87.3728,556.0303L87.3735,556.0277L87.3742,556.0251L87.3749,556.0224L87.3756,556.0198L87.3763,556.0172L87.3770,556.0146L87.3777,556.0120L87.3783,556.0094L87.3790,556.0068
            L87.3797,556.0042L87.3804,556.0016L87.3811,555.9989L87.3818,555.9963L87.3825,555.9937L87.3831,555.9911L87.3838,555.9885L87.3845,555.9859L87.3852,555.9833L87.3859,555.9807
            L87.3866,555.9780L87.3873,555.9754L87.3880,555.9728L87.3886,555.9702L87.3893,555.9676L87.3900,555.9650L87.3907,555.9624L87.3914,555.9597L87.3921,555.9571L87.3928,555.9545
            L87.3935,555.9519L87.3941,555.9493L87.3948,555.9467L87.3955,555.9441L87.3962,555.9414L87.3969,555.9388L87.3976,555.9362L87.3983,555.9336L87.3990,555.9310L87.3996,555.9284
            L87.4003,555.9258L87.4010,555.9232L87.4017,555.9205L87.4024,555.9179L87.4031,555.9153L87.4038,555.9127L87.4044,555.9101L87.4051,555.9075L87.4058,555.9049L87.4065,555.9022
            L87.4072,555.8996L87.4079,555.8970L87.4086,555.8944L87.4093,555.8918L87.4099,555.8892L87.4106,555.8866L87.4113,555.8839L87.4120,555.8813L87.4127,555.8787L87.4134,555.8761
            L87.4141,555.8735L87.4148,555.8709L87.4154,555.8683L87.4161,555.8657L87.4168,555.8631L87.4175,555.8604L87.4182,555.8578L87.4189,555.8552L87.4196,555.8526L87.4203,555.8500
            L87.4209,555.8474L87.4216,555.8447L87.4223,555.8422L87.4230,555.8395L87.4237,555.8369L87.4244,555.8343L87.4251,555.8317L87.4257,555.8291L87.4264,555.8265L87.4271,555.8239
            L87.4278,555.8212L87.4285,555.8186L87.4292,555.8160L87.4299,555.8134L87.4306,555.8108L87.4312,555.8082L87.4319,555.8056L87.4326,555.8029L87.4333,555.8003L87.4340,555.7977
            L87.4347,555.7951L87.4354,555.7925L87.4361,555.7899L87.4367,555.7873L87.4374,555.7847L87.4381,555.7820L87.4388,555.7794L87.4395,555.7768L87.4402,555.7742L87.4409,555.7716
            L87.4416,555.7690L87.4422,555.7664L87.4429,555.7637L87.4436,555.7612L87.4443,555.7585L87.4450,555.7559L87.4457,555.7533L87.4464,555.7507L87.4470,555.7481L87.4477,555.7455
            L87.4484,555.7429L87.4491,555.7402L87.4498,555.7376L87.4505,555.7350L87.4512,555.7324L87.4519,555.7298L87.4525,555.7272L87.4532,555.7246L87.4539,555.7219L87.4546,555.7193
            L87.4553,555.7167L87.4560,555.7141L87.4567,555.7115L87.4574,555.7089L87.4580,555.7063L87.4587,555.7037L87.4594,555.7011L87.4601,555.6984L87.4608,555.6958L87.4615,555.6932
            L87.4622,555.6906L87.4629,555.6880L87.4635,555.6854L87.4642,555.6828L87.4649,555.6802L87.4656,555.6775L87.4663,555.6749L87.4670,555.6723L87.4677,555.6697L87.4683,555.6671
            L87.4690,555.6645L87.4697,555.6619L87.4704,555.6592L87.4711,555.6567L87.4718,555.6540L87.4725,555.6514L87.4732,555.6488L87.4738,555.6462L87.4745,555.6436L87.4752,555.6410
            L87.4759,555.6384L87.4766,555.6357L87.4773,555.6331L87.4780,555.6305L87.4787,555.6279L87.4793,555.6253L87.4800,555.6227L87.4807,555.6201L87.4814,555.6175L87.4821,555.6148
            L87.4828,555.6122L87.4835,555.6096L87.4842,555.6070L87.4848,555.6044L87.4855,555.6018L87.4862,555.5992L87.4869,555.5966L87.4876,555.5939L87.4883,555.5913L87.4890,555.5887
            L87.4896,555.5861L87.4903,555.5835L87.4910,555.5809L87.4917,555.5783L87.4924,555.5757L87.4931,555.5731L87.4938,555.5704L87.4945,555.5678L87.4951,555.5652L87.4958,555.5626
            L87.4965,555.5600L87.4972,555.5574L87.4979,555.5548L87.4986,555.5522L87.4993,555.5496L87.5000,555.5469L87.5006,555.5443L87.5013,555.5417L87.5020,555.5391L87.5027,555.5365
            L87.5034,555.5339L87.5041,555.5313L87.5048,555.5287L87.5055,555.5261L87.5061,555.5234L87.5068,555.5208L87.5075,555.5182L87.5082,555.5156L87.5089,555.5130L87.5096,555.5104
            L87.5103,555.5078L87.5109,555.5051L87.5116,555.5025L87.5123,555.4999L87.5130,555.4973L87.5137,555.4947L87.5144,555.4921L87.5151,555.4895L87.5158,555.4869L87.5164,555.4843
            L87.5171,555.4816L87.5178,555.4790L87.5185,555.4764L87.5192,555.4738L87.5199,555.4712L87.5206,555.4686L87.5213,555.4660L87.5219,555.4634L87.5226,555.4608L87.5233,555.4581
            L87.5240,555.4555L87.5247,555.4529L87.5254,555.4503L87.5261,555.4477L87.5268,555.4451L87.5274,555.4425L87.5281,555.4399L87.5288,555.4373L87.5295,555.4346L87.5302,555.4320
            L87.5309,555.4294L87.5316,555.4268L87.5322,555.4242L87.5329,555.4216L87.5336,555.4190L87.5343,555.4164L87.5350,555.4138L87.5357,555.4111L87.5364,555.4086L87.5371,555.4059
            L87.5377,555.4033L87.5384,555.4007L87.5391,555.3981L87.5398,555.3955L87.5405,555.3929L87.5412,555.3903L87.5419,555.3876L87.5426,555.3851L87.5432,555.3824L87.5439,555.3798
            L87.5446,555.3772L87.5453,555.3746L87.5460,555.3720L87.5467,555.3694L87.5474,555.3668L87.5481,555.3642L87.5487,555.3616L87.5494,555.3589L87.5501,555.3563L87.5508,555.3537
            L87.5515,555.3511L87.5522,555.3485L87.5529,555.3459L87.5535,555.3433L87.5542,555.3407L87.5549,555.3381L87.5556,555.3354L87.5563,555.3328L87.5570,555.3302L87.5577,555.3276
            L87.5584,555.3250L87.5590,555.3224L87.5597,555.3198L87.5604,555.3172L87.5611,555.3146L87.5618,555.3120L87.5625,555.3093L87.5632,555.3067L87.5639,555.3041L87.5645,555.3015
            L87.5652,555.2989L87.5659,555.2963L87.5666,555.2937L87.5673,555.2911L87.5680,555.2885L87.5687,555.2858L87.5694,555.2832L87.5700,555.2806L87.5707,555.2780L87.5714,555.2754
            L87.5721,555.2728L87.5728,555.2702L87.5735,555.2676L87.5742,555.2650L87.5748,555.2624L87.5755,555.2598L87.5762,555.2571L87.5769,555.2545L87.5776,555.2519L87.5783,555.2493
            L87.5790,555.2467L87.5797,555.2441L87.5803,555.2415L87.5810,555.2389L87.5817,555.2363L87.5824,555.2336L87.5831,555.2310L87.5838,555.2284L87.5845,555.2258L87.5852,555.2232
            L87.5858,555.2206L87.5865,555.2180L87.5872,555.2154L87.5879,555.2128L87.5886,555.2102L87.5893,555.2075L87.5900,555.2050L87.5907,555.2023L87.5913,555.1997L87.5920,555.1971
            L87.5927,555.1945L87.5934,555.1919L87.5941,555.1893L87.5948,555.1867L87.5955,555.1841L87.5961,555.1815L87.5968,555.1788L87.5975,555.1762L87.5982,555.1736L87.5989,555.1710
            L87.5996,555.1684L87.6003,555.1658L87.6010,555.1632L87.6016,555.1606L87.6023,555.1580L87.6030,555.1554L87.6037,555.1527L87.6044,555.1501L87.6051,555.1475L87.6058,555.1449
            L87.6065,555.1423L87.6071,555.1397L87.6078,555.1371L87.6085,555.1345L87.6092,555.1319L87.6099,555.1293L87.6106,555.1267L87.6113,555.1240L87.6120,555.1214L87.6126,555.1188
            L87.6133,555.1162L87.6140,555.1136L87.6147,555.1110L87.6154,555.1084L87.6161,555.1058L87.6168,555.1032L87.6174,555.1006L87.6181,555.0979L87.6188,555.0954L87.6195,555.0927
            L87.6202,555.0901L87.6209,555.0875L87.6216,555.0849L87.6223,555.0823L87.6229,555.0797L87.6236,555.0771L87.6243,555.0745L87.6250,555.0719L87.6257,555.0693L87.6264,555.0666
            L87.6271,555.0640L87.6278,555.0614L87.6284,555.0588L87.6291,555.0562L87.6298,555.0536L87.6305,555.0510L87.6312,555.0484L87.6319,555.0458L87.6326,555.0432L87.6333,555.0406
            L87.6339,555.0379L87.6346,555.0353L87.6353,555.0327L87.6360,555.0301L87.6367,555.0275L87.6374,555.0249L87.6381,555.0223L87.6387,555.0197L87.6394,555.0171L87.6401,555.0145
            L87.6408,555.0118L87.6415,555.0093L87.6422,555.0066L87.6429,555.0040L87.6436,555.0014L87.6442,554.9988L87.6449,554.9962L87.6456,554.9936L87.6463,554.9910L87.6470,554.9884
            L87.6477,554.9858L87.6484,554.9832L87.6491,554.9806L87.6497,554.9780L87.6504,554.9753L87.6511,554.9727L87.6518,554.9701L87.6525,554.9675L87.6532,554.9649L87.6539,554.9623
            L87.6546,554.9597L87.6552,554.9571L87.6559,554.9545L87.6566,554.9519L87.6573,554.9493L87.6580,554.9467L87.6587,554.9440L87.6594,554.9414L87.6600,554.9388L87.6607,554.9362
            L87.6614,554.9336L87.6621,554.9310L87.6628,554.9284L87.6635,554.9258L87.6642,554.9232L87.6649,554.9206L87.6655,554.9180L87.6662,554.9154L87.6669,554.9127L87.6676,554.9101
            L87.6683,554.9075L87.6690,554.9049L87.6697,554.9023L87.6704,554.8997L87.6710,554.8971L87.6717,554.8945L87.6724,554.8919L87.6731,554.8893L87.6738,554.8867L87.6745,554.8841
            L87.6752,554.8814L87.6759,554.8788L87.6765,554.8762L87.6772,554.8736L87.6779,554.8710L87.6786,554.8684L87.6793,554.8658L87.6800,554.8632L87.6807,554.8606L87.6813,554.8580
            L87.6820,554.8554L87.6827,554.8528L87.6834,554.8502L87.6841,554.8476L87.6848,554.8449L87.6855,554.8423L87.6862,554.8397L87.6868,554.8371L87.6875,554.8345L87.6882,554.8319
            L87.6889,554.8293L87.6896,554.8267L87.6903,554.8241L87.6910,554.8215L87.6917,554.8189L87.6923,554.8163L87.6930,554.8136L87.6937,554.8111L87.6944,554.8084L87.6951,554.8058
            L87.6958,554.8032L87.6965,554.8006L87.6972,554.7980L87.6978,554.7954L87.6985,554.7928L87.6992,554.7902L87.6999,554.7876L87.7006,554.7850L87.7013,554.7824L87.7020,554.7798
            L87.7026,554.7771L87.7033,554.7746L87.7040,554.7719L87.7047,554.7693L87.7054,554.7667L87.7061,554.7641L87.7068,554.7615L87.7075,554.7589L87.7081,554.7563L87.7088,554.7537
            L87.7095,554.7511L87.7102,554.7485L87.7109,554.7459L87.7116,554.7433L87.7123,554.7406L87.7130,554.7380L87.7136,554.7354L87.7143,554.7328L87.7150,554.7302L87.7157,554.7276
            L87.7164,554.7250L87.7171,554.7224L87.7178,554.7198L87.7185,554.7172L87.7191,554.7146L87.7198,554.7120L87.7205,554.7094L87.7212,554.7068L87.7219,554.7042L87.7226,554.7015
            L87.7233,554.6990L87.7239,554.6963L87.7246,554.6937L87.7253,554.6911L87.7260,554.6885L87.7267,554.6859L87.7274,554.6833L87.7281,554.6807L87.7288,554.6781L87.7294,554.6755
            L87.7301,554.6729L87.7308,554.6703L87.7315,554.6677L87.7322,554.6650L87.7329,554.6624L87.7336,554.6598L87.7343,554.6572L87.7349,554.6546L87.7356,554.6520L87.7363,554.6494
            L87.7370,554.6468L87.7377,554.6442L87.7384,554.6416L87.7391,554.6390L87.7398,554.6364L87.7404,554.6338L87.7411,554.6312L87.7418,554.6286L87.7425,554.6259L87.7432,554.6234
            L87.7439,554.6207L87.7446,554.6181L87.7452,554.6155L87.7459,554.6129L87.7466,554.6103L87.7473,554.6077L87.7480,554.6051L87.7487,554.6025L87.7494,554.5999L87.7501,554.5973
            L87.7507,554.5947L87.7514,554.5921L87.7521,554.5895L87.7528,554.5868L87.7535,554.5843L87.7542,554.5816L87.7549,554.5790L87.7556,554.5764L87.7562,554.5738L87.7569,554.5712
            L87.7576,554.5686L87.7583,554.5660L87.7590,554.5634L87.7597,554.5608L87.7604,554.5582L87.7611,554.5556L87.7617,554.5530L87.7624,554.5504L87.7631,554.5478L87.7638,554.5452
            L87.7645,554.5426L87.7652,554.5400L87.7659,554.5373L87.7665,554.5347L87.7672,554.5321L87.7679,554.5295L87.7686,554.5269L87.7693,554.5243L87.7700,554.5217L87.7707,554.5191
            L87.7714,554.5165L87.7720,554.5139L87.7727,554.5113L87.7734,554.5087L87.7741,554.5061L87.7748,554.5035L87.7755,554.5009L87.7762,554.4982L87.7769,554.4957L87.7775,554.4931
            L87.7782,554.4904L87.7789,554.4878L87.7796,554.4852L87.7803,554.4826L87.7810,554.4800L87.7817,554.4774L87.7824,554.4748L87.7830,554.4722L87.7837,554.4696L87.7844,554.4670
            L87.7851,554.4644L87.7858,554.4618L87.7865,554.4592L87.7872,554.4566L87.7878,554.4540L87.7885,554.4514L87.7892,554.4488L87.7899,554.4461L87.7906,554.4436L87.7913,554.4409
            L87.7920,554.4383L87.7927,554.4357L87.7933,554.4331L87.7940,554.4305L87.7947,554.4279L87.7954,554.4253L87.7961,554.4227L87.7968,554.4201L87.7975,554.4175L87.7982,554.4149
            L87.7988,554.4123L87.7995,554.4097L87.8002,554.4071L87.8009,554.4045L87.8016,554.4019L87.8023,554.3993L87.8030,554.3966L87.8037,554.3940L87.8043,554.3914L87.8050,554.3888
            L87.8057,554.3862L87.8064,554.3836L87.8071,554.3810L87.8078,554.3784L87.8085,554.3758L87.8091,554.3732L87.8098,554.3706L87.8105,554.3680L87.8112,554.3654L87.8119,554.3628
            L87.8126,554.3602L87.8133,554.3576L87.8140,554.3550L87.8146,554.3524L87.8153,554.3498L87.8160,554.3472L87.8167,554.3445L87.8174,554.3419L87.8181,554.3393L87.8188,554.3367
            L87.8195,554.3341L87.8201,554.3315L87.8208,554.3289L87.8215,554.3263L87.8222,554.3237L87.8229,554.3211L87.8236,554.3185L87.8243,554.3159L87.8250,554.3133L87.8256,554.3107
            L87.8263,554.3081L87.8270,554.3055L87.8277,554.3029L87.8284,554.3003L87.8291,554.2977L87.8298,554.2951L87.8305,554.2925L87.8311,554.2898L87.8318,554.2873L87.8325,554.2846
            L87.8332,554.2820L87.8339,554.2794L87.8346,554.2768L87.8353,554.2742L87.8359,554.2716L87.8366,554.2690L87.8373,554.2664L87.8380,554.2638L87.8387,554.2612L87.8394,554.2586
            L87.8401,554.2560L87.8408,554.2534L87.8414,554.2508L87.8421,554.2482L87.8428,554.2456L87.8435,554.2430L87.8442,554.2404L87.8449,554.2378L87.8456,554.2352L87.8463,554.2326
            L87.8469,554.2300L87.8476,554.2273L87.8483,554.2247L87.8490,554.2222L87.8497,554.2195L87.8504,554.2169L87.8511,554.2143L87.8518,554.2117L87.8524,554.2091L87.8531,554.2065
            L87.8538,554.2039L87.8545,554.2013L87.8552,554.1987L87.8559,554.1961L87.8566,554.1935L87.8572,554.1909L87.8579,554.1883L87.8586,554.1857L87.8593,554.1831L87.8600,554.1805
            L87.8607,554.1779L87.8614,554.1753L87.8621,554.1727L87.8627,554.1701L87.8634,554.1675L87.8641,554.1648L87.8648,554.1623L87.8655,554.1596L87.8662,554.1571L87.8669,554.1544
            L87.8676,554.1518L87.8682,554.1492L87.8689,554.1466L87.8696,554.1440L87.8703,554.1414L87.8710,554.1388L87.8717,554.1362L87.8724,554.1336L87.8731,554.1310L87.8737,554.1284
            L87.8744,554.1258L87.8751,554.1232L87.8758,554.1206L87.8765,554.1180L87.8772,554.1154L87.8779,554.1128L87.8785,554.1102L87.8792,554.1076L87.8799,554.1050L87.8806,554.1024
            L87.8813,554.0998L87.8820,554.0972L87.8827,554.0946L87.8834,554.0919L87.8840,554.0894L87.8847,554.0867L87.8854,554.0842L87.8861,554.0815L87.8868,554.0789L87.8875,554.0763
            L87.8882,554.0737L87.8889,554.0711L87.8895,554.0685L87.8902,554.0659L87.8909,554.0633L87.8916,554.0607L87.8923,554.0581L87.8930,554.0555L87.8937,554.0529L87.8944,554.0503
            L87.8950,554.0477L87.8957,554.0451L87.8964,554.0425L87.8971,554.0399L87.8978,554.0373L87.8985,554.0347L87.8992,554.0321L87.8998,554.0295L87.9005,554.0269L87.9012,554.0243
            L87.9019,554.0217L87.9026,554.0191L87.9033,554.0165L87.9040,554.0139L87.9047,554.0113L87.9053,554.0087L87.9060,554.0060L87.9067,554.0035L87.9074,554.0008L87.9081,553.9982
            L87.9088,553.9956L87.9095,553.9930L87.9102,553.9904L87.9108,553.9878L87.9115,553.9852L87.9122,553.9826L87.9129,553.9800L87.9136,553.9774L87.9143,553.9748L87.9150,553.9722
            L87.9157,553.9696L87.9163,553.9670L87.9170,553.9644L87.9177,553.9618L87.9184,553.9592L87.9191,553.9566L87.9198,553.9540L87.9205,553.9514L87.9211,553.9488L87.9218,553.9462
            L87.9225,553.9436L87.9232,553.9410L87.9239,553.9384L87.9246,553.9358L87.9253,553.9332L87.9260,553.9306L87.9266,553.9280L87.9273,553.9254L87.9280,553.9228L87.9287,553.9202
            L87.9294,553.9175L87.9301,553.9150L87.9308,553.9124L87.9315,553.9098L87.9321,553.9071L87.9328,553.9045L87.9335,553.9020L87.9342,553.8993L87.9349,553.8967L87.9356,553.8941
            L87.9363,553.8915L87.9370,553.8889L87.9376,553.8863L87.9383,553.8837L87.9390,553.8811L87.9397,553.8785L87.9404,553.8759L87.9411,553.8733L87.9418,553.8707L87.9424,553.8681
            L87.9431,553.8655L87.9438,553.8629L87.9445,553.8603L87.9452,553.8577L87.9459,553.8551L87.9466,553.8525L87.9473,553.8499L87.9479,553.8473L87.9486,553.8447L87.9493,553.8421
            L87.9500,553.8395L87.9507,553.8369L87.9514,553.8343L87.9521,553.8317L87.9528,553.8291L87.9534,553.8265L87.9541,553.8239L87.9548,553.8213L87.9555,553.8187L87.9562,553.8161
            L87.9569,553.8135L87.9576,553.8109L87.9583,553.8083L87.9589,553.8057L87.9596,553.8031L87.9603,553.8005L87.9610,553.7979L87.9617,553.7953L87.9624,553.7927L87.9631,553.7901
            L87.9637,553.7875L87.9644,553.7849L87.9651,553.7822L87.9658,553.7797L87.9665,553.7771L87.9672,553.7744L87.9679,553.7719L87.9686,553.7692L87.9692,553.7667L87.9699,553.7641
            L87.9706,553.7614L87.9713,553.7588L87.9720,553.7562L87.9727,553.7536L87.9734,553.7510L87.9741,553.7484L87.9747,553.7458L87.9754,553.7432L87.9761,553.7406L87.9768,553.7380
            L87.9775,553.7354L87.9782,553.7328L87.9789,553.7302L87.9796,553.7276L87.9802,553.7250L87.9809,553.7224L87.9816,553.7198L87.9823,553.7172L87.9830,553.7146L87.9837,553.7120
            L87.9844,553.7094L87.9850,553.7068L87.9857,553.7042L87.9864,553.7016L87.9871,553.6990L87.9878,553.6964L87.9885,553.6938L87.9892,553.6912L87.9899,553.6886L87.9905,553.6860
            L87.9912,553.6834L87.9919,553.6808L87.9926,553.6782L87.9933,553.6756L87.9940,553.6730L87.9947,553.6704L87.9954,553.6678L87.9960,553.6652L87.9967,553.6626L87.9974,553.6600
            L87.9981,553.6574L87.9988,553.6548L87.9995,553.6522L88.0002,553.6496L88.0009,553.6470L88.0015,553.6444L88.0022,553.6418L88.0029,553.6392L88.0036,553.6366L88.0043,553.6340
            L88.0050,553.6314L88.0057,553.6288L88.0063,553.6262L88.0070,553.6236L88.0077,553.6210L88.0084,553.6184L88.0091,553.6158L88.0098,553.6132L88.0105,553.6106L88.0112,553.6080
            L88.0118,553.6054L88.0125,553.6028L88.0132,553.6002L88.0139,553.5976L88.0146,553.5950L88.0153,553.5924L88.0160,553.5898L88.0167,553.5872L88.0173,553.5846L88.0180,553.5820
            L88.0187,553.5794L88.0194,553.5768L88.0201,553.5742L88.0208,553.5716L88.0215,553.5690L88.0222,553.5664L88.0228,553.5638L88.0235,553.5612L88.0242,553.5586L88.0249,553.5560
            L88.0256,553.5534L88.0263,553.5508L88.0270,553.5482L88.0276,553.5456L88.0283,553.5430L88.0290,553.5404L88.0297,553.5378L88.0304,553.5352L88.0311,553.5326L88.0318,553.5300
            L88.0325,553.5274L88.0331,553.5248L88.0338,553.5222L88.0345,553.5196L88.0352,553.5170L88.0359,553.5144L88.0366,553.5118L88.0373,553.5092L88.0380,553.5066L88.0386,553.5040
            L88.0393,553.5014L88.0400,553.4988L88.0407,553.4962L88.0414,553.4936L88.0421,553.4910L88.0428,553.4884L88.0435,553.4858L88.0441,553.4832L88.0448,553.4806L88.0455,553.4780
            L88.0462,553.4754L88.0469,553.4728L88.0476,553.4702L88.0483,553.4676L88.0489,553.4650L88.0496,553.4624L88.0503,553.4598L88.0510,553.4572L88.0517,553.4546L88.0524,553.4520
            L88.0531,553.4494L88.0538,553.4468L88.0544,553.4442L88.0551,553.4416L88.0558,553.4390L88.0565,553.4364L88.0572,553.4338L88.0579,553.4312L88.0586,553.4286L88.0593,553.4260
            L88.0599,553.4234L88.0606,553.4208L88.0613,553.4182L88.0620,553.4156L88.0627,553.4130L88.0634,553.4104L88.0641,553.4078L88.0648,553.4052L88.0654,553.4026L88.0661,553.4000
            L88.0668,553.3974L88.0675,553.3948L88.0682,553.3922L88.0689,553.3896L88.0696,553.3870L88.0702,553.3844L88.0709,553.3818L88.0716,553.3792L88.0723,553.3766L88.0730,553.3740
            L88.0737,553.3714L88.0744,553.3688L88.0751,553.3662L88.0757,553.3636L88.0764,553.3610L88.0771,553.3584L88.0778,553.3558L88.0785,553.3532L88.0792,553.3506L88.0799,553.3480
            L88.0806,553.3454L88.0812,553.3428L88.0819,553.3402L88.0826,553.3376L88.0833,553.3350L88.0840,553.3324L88.0847,553.3298L88.0854,553.3272L88.0861,553.3246L88.0867,553.3220
            L88.0874,553.3194L88.0881,553.3168L88.0888,553.3142L88.0895,553.3116L88.0902,553.3090L88.0909,553.3064L88.0915,553.3038L88.0922,553.3012L88.0929,553.2986L88.0936,553.2960
            L88.0943,553.2934L88.0950,553.2908L88.0957,553.2882L88.0964,553.2856L88.0970,553.2830L88.0977,553.2804L88.0984,553.2778L88.0991,553.2752L88.0998,553.2726L88.1005,553.2700
            L88.1012,553.2674L88.1019,553.2648L88.1025,553.2622L88.1032,553.2596L88.1039,553.2570L88.1046,553.2544L88.1053,553.2518L88.1060,553.2492L88.1067,553.2467L88.1074,553.2440
            L88.1080,553.2414L88.1087,553.2389L88.1094,553.2362L88.1101,553.2337L88.1108,553.2311L88.1115,553.2285L88.1122,553.2259L88.1128,553.2233L88.1135,553.2206L88.1142,553.2181
            L88.1149,553.2155L88.1156,553.2129L88.1163,553.2103L88.1170,553.2077L88.1177,553.2051L88.1183,553.2025L88.1190,553.1999L88.1197,553.1973L88.1204,553.1947L88.1211,553.1921
            L88.1218,553.1895L88.1225,553.1869L88.1232,553.1843L88.1238,553.1817L88.1245,553.1791L88.1252,553.1765L88.1259,553.1739L88.1266,553.1713L88.1273,553.1687L88.1280,553.1661
            L88.1287,553.1635L88.1293,553.1609L88.1300,553.1583L88.1307,553.1557L88.1314,553.1531L88.1321,553.1505L88.1328,553.1479L88.1335,553.1453L88.1341,553.1427L88.1348,553.1401
            L88.1355,553.1375L88.1362,553.1349L88.1369,553.1323L88.1376,553.1297L88.1383,553.1271L88.1390,553.1245L88.1396,553.1219L88.1403,553.1193L88.1410,553.1168L88.1417,553.1141
            L88.1424,553.1115L88.1431,553.1089L88.1438,553.1063L88.1445,553.1037L88.1451,553.1012L88.1458,553.0986L88.1465,553.0960L88.1472,553.0934L88.1479,553.0908L88.1486,553.0882
            L88.1493,553.0856L88.1500,553.0830L88.1506,553.0804L88.1513,553.0778L88.1520,553.0752L88.1527,553.0726L88.1534,553.0700L88.1541,553.0674L88.1548,553.0648L88.1554,553.0622
            L88.1561,553.0596L88.1568,553.0570L88.1575,553.0544L88.1582,553.0518L88.1589,553.0492L88.1596,553.0466L88.1603,553.0440L88.1609,553.0414L88.1616,553.0388L88.1623,553.0362
            L88.1630,553.0336L88.1637,553.0310L88.1644,553.0284L88.1651,553.0258L88.1658,553.0232L88.1664,553.0206L88.1671,553.0180L88.1678,553.0154L88.1685,553.0128L88.1692,553.0102
            L88.1699,553.0076L88.1706,553.0050L88.1713,553.0024L88.1719,552.9999L88.1726,552.9973L88.1733,552.9947L88.1740,552.9921L88.1747,552.9895L88.1754,552.9869L88.1761,552.9843
            L88.1767,552.9817L88.1774,552.9791L88.1781,552.9765L88.1788,552.9739L88.1795,552.9713L88.1802,552.9687L88.1809,552.9661L88.1816,552.9635L88.1822,552.9609L88.1829,552.9583
            L88.1836,552.9557L88.1843,552.9531L88.1850,552.9505L88.1857,552.9479L88.1864,552.9453L88.1871,552.9427L88.1877,552.9401L88.1884,552.9375L88.1891,552.9349L88.1898,552.9323
            L88.1905,552.9297L88.1912,552.9271L88.1919,552.9246L88.1926,552.9219L88.1932,552.9193L88.1939,552.9168L88.1946,552.9141L88.1953,552.9116L88.1960,552.9090L88.1967,552.9064
            L88.1974,552.9038L88.1980,552.9012L88.1987,552.8986L88.1994,552.8960L88.2001,552.8934L88.2008,552.8908L88.2015,552.8882L88.2022,552.8856L88.2029,552.8830L88.2035,552.8804
            L88.2042,552.8778L88.2049,552.8752L88.2056,552.8726L88.2063,552.8700L88.2070,552.8674L88.2077,552.8648L88.2084,552.8622L88.2090,552.8596L88.2097,552.8570L88.2104,552.8544
            L88.2111,552.8518L88.2118,552.8492L88.2125,552.8466L88.2132,552.8441L88.2139,552.8415L88.2145,552.8388L88.2152,552.8363L88.2159,552.8337L88.2166,552.8311L88.2173,552.8285
            L88.2180,552.8259L88.2187,552.8233L88.2193,552.8207L88.2200,552.8181L88.2207,552.8155L88.2214,552.8129L88.2221,552.8103L88.2228,552.8077L88.2235,552.8051L88.2242,552.8025
            L88.2248,552.7999L88.2255,552.7973L88.2262,552.7947L88.2269,552.7921L88.2276,552.7895L88.2283,552.7869L88.2290,552.7843L88.2297,552.7817L88.2303,552.7791L88.2310,552.7766
            L88.2317,552.7740L88.2324,552.7714L88.2331,552.7688L88.2338,552.7662L88.2345,552.7636L88.2352,552.7610L88.2358,552.7584L88.2365,552.7558L88.2372,552.7532L88.2379,552.7506
            L88.2386,552.7480L88.2393,552.7454L88.2400,552.7428L88.2406,552.7402L88.2413,552.7376L88.2420,552.7350L88.2427,552.7324L88.2434,552.7298L88.2441,552.7272L88.2448,552.7246
            L88.2455,552.7220L88.2461,552.7194L88.2468,552.7168L88.2475,552.7143L88.2482,552.7117L88.2489,552.7091L88.2496,552.7065L88.2503,552.7039L88.2510,552.7013L88.2516,552.6987
            L88.2523,552.6961L88.2530,552.6935L88.2537,552.6909L88.2544,552.6883L88.2551,552.6857L88.2558,552.6831L88.2565,552.6805L88.2571,552.6779L88.2578,552.6753L88.2585,552.6727
            L88.2592,552.6701L88.2599,552.6675L88.2606,552.6649L88.2613,552.6624L88.2619,552.6598L88.2626,552.6571L88.2633,552.6546L88.2640,552.6520L88.2647,552.6494L88.2654,552.6468
            L88.2661,552.6442L88.2668,552.6416L88.2674,552.6390L88.2681,552.6364L88.2688,552.6338L88.2695,552.6312L88.2702,552.6286L88.2709,552.6260L88.2716,552.6234L88.2723,552.6208
            L88.2729,552.6182L88.2736,552.6156L88.2743,552.6130L88.2750,552.6104L88.2757,552.6079L88.2764,552.6053L88.2771,552.6027L88.2778,552.6001L88.2784,552.5975L88.2791,552.5949
            L88.2798,552.5923L88.2805,552.5897L88.2812,552.5871L88.2819,552.5845L88.2826,552.5819L88.2832,552.5793L88.2839,552.5767L88.2846,552.5741L88.2853,552.5715L88.2860,552.5689
            L88.2867,552.5663L88.2874,552.5637L88.2881,552.5612L88.2887,552.5586L88.2894,552.5560L88.2901,552.5534L88.2908,552.5508L88.2915,552.5482L88.2922,552.5456L88.2929,552.5430
            L88.2936,552.5404L88.2942,552.5378L88.2949,552.5352L88.2956,552.5326L88.2963,552.5300L88.2970,552.5274L88.2977,552.5248L88.2984,552.5222L88.2991,552.5196L88.2997,552.5170
            L88.3004,552.5145L88.3011,552.5119L88.3018,552.5093L88.3025,552.5067L88.3032,552.5041L88.3039,552.5015L88.3045,552.4989L88.3052,552.4963L88.3059,552.4937L88.3066,552.4911
            L88.3073,552.4885L88.3080,552.4859L88.3087,552.4833L88.3094,552.4807L88.3100,552.4781L88.3107,552.4755L88.3114,552.4729L88.3121,552.4703L88.3128,552.4678L88.3135,552.4652
            L88.3142,552.4626L88.3149,552.4600L88.3155,552.4574L88.3162,552.4548L88.3169,552.4522L88.3176,552.4496L88.3183,552.4470L88.3190,552.4444L88.3197,552.4418L88.3204,552.4392
            L88.3210,552.4366L88.3217,552.4340L88.3224,552.4314L88.3231,552.4288L88.3238,552.4262L88.3245,552.4237L88.3252,552.4211L88.3258,552.4185L88.3265,552.4159L88.3272,552.4133
            L88.3279,552.4107L88.3286,552.4081L88.3293,552.4055L88.3300,552.4029L88.3307,552.4003L88.3313,552.3977L88.3320,552.3951L88.3327,552.3925L88.3334,552.3899L88.3341,552.3873
            L88.3348,552.3847L88.3355,552.3822L88.3362,552.3796L88.3368,552.3770L88.3375,552.3744L88.3382,552.3718L88.3389,552.3692L88.3396,552.3666L88.3403,552.3640L88.3410,552.3614
            L88.3417,552.3588L88.3423,552.3562L88.3430,552.3536L88.3437,552.3510L88.3444,552.3484L88.3451,552.3458L88.3458,552.3433L88.3465,552.3407L88.3472,552.3381L88.3478,552.3355
            L88.3485,552.3329L88.3492,552.3303L88.3499,552.3277L88.3506,552.3251L88.3513,552.3225L88.3520,552.3199L88.3526,552.3173L88.3533,552.3147L88.3540,552.3121L88.3547,552.3095
            L88.3554,552.3069L88.3561,552.3044L88.3568,552.3018L88.3575,552.2992L88.3581,552.2966L88.3588,552.2940L88.3595,552.2914L88.3602,552.2888L88.3609,552.2862L88.3616,552.2836
            L88.3623,552.2810L88.3630,552.2784L88.3636,552.2758L88.3643,552.2732L88.3650,552.2706L88.3657,552.2680L88.3664,552.2655L88.3671,552.2629L88.3678,552.2603L88.3685,552.2577
            L88.3691,552.2551L88.3698,552.2525L88.3705,552.2499L88.3712,552.2473L88.3719,552.2447L88.3726,552.2421L88.3733,552.2395L88.3739,552.2369L88.3746,552.2343L88.3753,552.2318
            L88.3760,552.2292L88.3767,552.2266L88.3774,552.2240L88.3781,552.2214L88.3788,552.2188L88.3794,552.2162L88.3801,552.2136L88.3808,552.2110L88.3815,552.2084L88.3822,552.2058
            L88.3829,552.2032L88.3836,552.2006L88.3843,552.1980L88.3849,552.1954L88.3856,552.1929L88.3863,552.1903L88.3870,552.1877L88.3877,552.1851L88.3884,552.1825L88.3891,552.1799
            L88.3898,552.1773L88.3904,552.1747L88.3911,552.1721L88.3918,552.1695L88.3925,552.1669L88.3932,552.1643L88.3939,552.1618L88.3946,552.1592L88.3952,552.1566L88.3959,552.1540
            L88.3966,552.1514L88.3973,552.1488L88.3980,552.1462L88.3987,552.1436L88.3994,552.1410L88.4001,552.1384L88.4007,552.1358L88.4014,552.1332L88.4021,552.1306L88.4028,552.1281
            L88.4035,552.1255L88.4042,552.1229L88.4049,552.1203L88.4056,552.1177L88.4062,552.1151L88.4069,552.1125L88.4076,552.1099L88.4083,552.1073L88.4090,552.1047L88.4097,552.1021
            L88.4104,552.0995L88.4111,552.0970L88.4117,552.0944L88.4124,552.0918L88.4131,552.0892L88.4138,552.0866L88.4145,552.0840L88.4152,552.0814L88.4159,552.0788L88.4165,552.0762
            L88.4172,552.0736L88.4179,552.0710L88.4186,552.0684L88.4193,552.0658L88.4200,552.0633L88.4207,552.0607L88.4214,552.0581L88.4220,552.0555L88.4227,552.0529L88.4234,552.0503
            L88.4241,552.0477L88.4248,552.0451L88.4255,552.0425L88.4262,552.0399L88.4269,552.0373L88.4275,552.0347L88.4282,552.0322L88.4289,552.0296L88.4296,552.0270L88.4303,552.0244
            L88.4310,552.0218L88.4317,552.0192L88.4324,552.0166L88.4330,552.0140L88.4337,552.0114L88.4344,552.0088L88.4351,552.0062L88.4358,552.0036L88.4365,552.0010L88.4372,551.9985
            L88.4378,551.9959L88.4385,551.9933L88.4392,551.9907L88.4399,551.9881L88.4406,551.9855L88.4413,551.9829L88.4420,551.9803L88.4427,551.9777L88.4433,551.9751L88.4440,551.9726
            L88.4447,551.9700L88.4454,551.9674L88.4461,551.9648L88.4468,551.9622L88.4475,551.9596L88.4482,551.9570L88.4488,551.9544L88.4495,551.9518L88.4502,551.9492L88.4509,551.9466
            L88.4516,551.9440L88.4523,551.9415L88.4530,551.9389L88.4537,551.9363L88.4543,551.9337L88.4550,551.9311L88.4557,551.9285L88.4564,551.9259L88.4571,551.9233L88.4578,551.9207
            L88.4585,551.9181L88.4591,551.9155L88.4598,551.9129L88.4605,551.9103L88.4612,551.9078L88.4619,551.9052L88.4626,551.9026L88.4633,551.9000L88.4640,551.8974L88.4646,551.8948
            L88.4653,551.8922L88.4660,551.8896L88.4667,551.8870L88.4674,551.8844L88.4681,551.8819L88.4688,551.8793L88.4695,551.8767L88.4701,551.8741L88.4708,551.8715L88.4715,551.8689
            L88.4722,551.8663L88.4729,551.8637L88.4736,551.8611L88.4743,551.8586L88.4750,551.8560L88.4756,551.8534L88.4763,551.8508L88.4770,551.8482L88.4777,551.8456L88.4784,551.8430
            L88.4791,551.8404L88.4798,551.8378L88.4804,551.8352L88.4811,551.8326L88.4818,551.8300L88.4825,551.8274L88.4832,551.8249L88.4839,551.8223L88.4846,551.8197L88.4853,551.8171
            L88.4859,551.8145L88.4866,551.8119L88.4873,551.8093L88.4880,551.8067L88.4887,551.8041L88.4894,551.8015L88.4901,551.7990L88.4908,551.7964L88.4914,551.7938L88.4921,551.7912
            L88.4928,551.7886L88.4935,551.7860L88.4942,551.7834L88.4949,551.7808L88.4956,551.7782L88.4963,551.7757L88.4969,551.7731L88.4976,551.7705L88.4983,551.7679L88.4990,551.7653
            L88.4997,551.7627L88.5004,551.7601L88.5011,551.7575L88.5017,551.7549L88.5024,551.7523L88.5031,551.7498L88.5038,551.7472L88.5045,551.7446L88.5052,551.7420L88.5059,551.7394
            L88.5066,551.7368L88.5072,551.7342L88.5079,551.7316L88.5086,551.7290L88.5093,551.7264L88.5100,551.7239L88.5107,551.7213L88.5114,551.7187L88.5121,551.7161L88.5127,551.7135
            L88.5134,551.7109L88.5141,551.7083L88.5148,551.7057L88.5155,551.7031L88.5162,551.7005L88.5169,551.6980L88.5176,551.6954L88.5182,551.6928L88.5189,551.6902L88.5196,551.6876
            L88.5203,551.6850L88.5210,551.6824L88.5217,551.6798L88.5224,551.6772L88.5230,551.6746L88.5237,551.6721L88.5244,551.6695L88.5251,551.6669L88.5258,551.6643L88.5265,551.6617
            L88.5272,551.6591L88.5279,551.6565L88.5285,551.6539L88.5292,551.6513L88.5299,551.6488L88.5306,551.6462L88.5313,551.6436L88.5320,551.6410L88.5327,551.6384L88.5334,551.6358
            L88.5340,551.6332L88.5347,551.6306L88.5354,551.6280L88.5361,551.6254L88.5368,551.6229L88.5375,551.6203L88.5382,551.6177L88.5389,551.6151L88.5395,551.6125L88.5402,551.6099
            L88.5409,551.6073L88.5416,551.6047L88.5423,551.6021L88.5430,551.5996L88.5437,551.5970L88.5443,551.5944L88.5450,551.5918L88.5457,551.5892L88.5464,551.5866L88.5471,551.5840
            L88.5478,551.5814L88.5485,551.5788L88.5492,551.5762L88.5498,551.5737L88.5505,551.5711L88.5512,551.5685L88.5519,551.5659L88.5526,551.5633L88.5533,551.5607L88.5540,551.5581
            L88.5547,551.5555L88.5553,551.5530L88.5560,551.5504L88.5567,551.5478L88.5574,551.5452L88.5581,551.5426L88.5588,551.5400L88.5595,551.5374L88.5602,551.5348L88.5608,551.5322
            L88.5615,551.5296L88.5622,551.5271L88.5629,551.5245L88.5636,551.5219L88.5643,551.5193L88.5650,551.5167L88.5656,551.5141L88.5663,551.5115L88.5670,551.5089L88.5677,551.5063
            L88.5684,551.5038L88.5691,551.5012L88.5698,551.4986L88.5705,551.4960L88.5711,551.4934L88.5718,551.4908L88.5725,551.4882L88.5732,551.4856L88.5739,551.4831L88.5746,551.4805
            L88.5753,551.4779L88.5760,551.4753L88.5766,551.4727L88.5773,551.4701L88.5780,551.4675L88.5787,551.4649L88.5794,551.4624L88.5801,551.4598L88.5808,551.4572L88.5815,551.4546
            L88.5821,551.4520L88.5828,551.4494L88.5835,551.4468L88.5842,551.4442L88.5849,551.4416L88.5856,551.4391L88.5863,551.4365L88.5869,551.4339L88.5876,551.4313L88.5883,551.4287
            L88.5890,551.4261L88.5897,551.4235L88.5904,551.4209L88.5911,551.4183L88.5918,551.4158L88.5924,551.4132L88.5931,551.4106L88.5938,551.4080L88.5945,551.4054L88.5952,551.4028
            L88.5959,551.4002L88.5966,551.3977L88.5973,551.3951L88.5979,551.3925L88.5986,551.3899L88.5993,551.3873L88.6000,551.3847L88.6007,551.3821L88.6014,551.3795L88.6021,551.3769
            L88.6028,551.3744L88.6034,551.3718L88.6041,551.3692L88.6048,551.3666L88.6055,551.3640L88.6062,551.3614L88.6069,551.3588L88.6076,551.3562L88.6082,551.3537L88.6089,551.3511
            L88.6096,551.3485L88.6103,551.3459L88.6110,551.3433L88.6117,551.3407L88.6124,551.3381L88.6131,551.3355L88.6137,551.3329L88.6144,551.3304L88.6151,551.3278L88.6158,551.3252
            L88.6165,551.3226L88.6172,551.3200L88.6179,551.3174L88.6186,551.3148L88.6192,551.3122L88.6199,551.3097L88.6206,551.3071L88.6213,551.3045L88.6220,551.3019L88.6227,551.2993
            L88.6234,551.2967L88.6241,551.2941L88.6247,551.2916L88.6254,551.2890L88.6261,551.2864L88.6268,551.2838L88.6275,551.2812L88.6282,551.2786L88.6289,551.2760L88.6295,551.2735
            L88.6302,551.2709L88.6309,551.2683L88.6316,551.2657L88.6323,551.2631L88.6330,551.2605L88.6337,551.2579L88.6344,551.2553L88.6350,551.2527L88.6357,551.2502L88.6364,551.2476
            L88.6371,551.2450L88.6378,551.2424L88.6385,551.2398L88.6392,551.2372L88.6399,551.2346L88.6405,551.2320L88.6412,551.2295L88.6419,551.2269L88.6426,551.2243L88.6433,551.2217
            L88.6440,551.2191L88.6447,551.2165L88.6454,551.2139L88.6460,551.2114L88.6467,551.2088L88.6474,551.2062L88.6481,551.2036L88.6488,551.2010L88.6495,551.1984L88.6502,551.1958
            L88.6508,551.1932L88.6515,551.1907L88.6522,551.1881L88.6529,551.1855L88.6536,551.1829L88.6543,551.1803L88.6550,551.1777L88.6557,551.1751L88.6563,551.1725L88.6570,551.1700
            L88.6577,551.1674L88.6584,551.1648L88.6591,551.1622L88.6598,551.1596L88.6605,551.1570L88.6612,551.1544L88.6618,551.1518L88.6625,551.1493L88.6632,551.1467L88.6639,551.1441
            L88.6646,551.1415L88.6653,551.1389L88.6660,551.1363L88.6667,551.1337L88.6673,551.1311L88.6680,551.1286L88.6687,551.1260L88.6694,551.1234L88.6701,551.1208L88.6708,551.1182
            L88.6715,551.1156L88.6721,551.1130L88.6728,551.1105L88.6735,551.1079L88.6742,551.1053L88.6749,551.1027L88.6756,551.1001L88.6763,551.0975L88.6770,551.0949L88.6776,551.0924
            L88.6783,551.0898L88.6790,551.0872L88.6797,551.0846L88.6804,551.0820L88.6811,551.0794L88.6818,551.0768L88.6825,551.0743L88.6831,551.0717L88.6838,551.0691L88.6845,551.0665
            L88.6852,551.0639L88.6859,551.0613L88.6866,551.0587L88.6873,551.0562L88.6880,551.0536L88.6886,551.0510L88.6893,551.0484L88.6900,551.0458L88.6907,551.0432L88.6914,551.0406
            L88.6921,551.0381L88.6928,551.0355L88.6934,551.0329L88.6941,551.0303L88.6948,551.0277L88.6955,551.0251L88.6962,551.0225L88.6969,551.0200L88.6976,551.0174L88.6983,551.0148
            L88.6989,551.0122L88.6996,551.0096L88.7003,551.0070L88.7010,551.0044L88.7017,551.0019L88.7024,550.9993L88.7031,550.9967L88.7038,550.9941L88.7044,550.9915L88.7051,550.9889
            L88.7058,550.9863L88.7065,550.9838L88.7072,550.9812L88.7079,550.9786L88.7086,550.9760L88.7093,550.9734L88.7099,550.9708L88.7106,550.9682L88.7113,550.9657L88.7120,550.9631
            L88.7127,550.9605L88.7134,550.9579L88.7141,550.9553L88.7147,550.9527L88.7154,550.9501L88.7161,550.9475L88.7168,550.9450L88.7175,550.9424L88.7182,550.9398L88.7189,550.9372
            L88.7196,550.9346L88.7202,550.9320L88.7209,550.9294L88.7216,550.9269L88.7223,550.9243L88.7230,550.9217L88.7237,550.9191L88.7244,550.9165L88.7251,550.9139L88.7257,550.9113
            L88.7264,550.9088L88.7271,550.9062L88.7278,550.9036L88.7285,550.9010L88.7292,550.8984L88.7299,550.8958L88.7306,550.8933L88.7312,550.8907L88.7319,550.8881L88.7326,550.8855
            L88.7333,550.8829L88.7340,550.8803L88.7347,550.8778L88.7354,550.8752L88.7360,550.8726L88.7367,550.8700L88.7374,550.8674L88.7381,550.8648L88.7388,550.8623L88.7395,550.8597
            L88.7402,550.8571L88.7409,550.8545L88.7415,550.8519L88.7422,550.8493L88.7429,550.8467L88.7436,550.8442L88.7443,550.8416L88.7450,550.8390L88.7457,550.8364L88.7464,550.8338
            L88.7470,550.8312L88.7477,550.8286L88.7484,550.8260L88.7491,550.8235L88.7498,550.8209L88.7505,550.8183L88.7512,550.8157L88.7519,550.8131L88.7525,550.8106L88.7532,550.8080
            L88.7539,550.8054L88.7546,550.8028L88.7553,550.8002L88.7560,550.7976L88.7567,550.7951L88.7573,550.7925L88.7580,550.7899L88.7587,550.7873L88.7594,550.7847L88.7601,550.7821
            L88.7608,550.7795L88.7615,550.7770L88.7622,550.7744L88.7628,550.7718L88.7635,550.7692L88.7642,550.7666L88.7649,550.7640L88.7656,550.7614L88.7663,550.7589L88.7670,550.7563
            L88.7677,550.7537L88.7683,550.7511L88.7690,550.7485L88.7697,550.7459L88.7704,550.7433L88.7711,550.7408L88.7718,550.7382L88.7725,550.7356L88.7732,550.7330L88.7738,550.7304
            L88.7745,550.7278L88.7752,550.7253L88.7759,550.7227L88.7766,550.7201L88.7773,550.7175L88.7780,550.7149L88.7786,550.7123L88.7793,550.7098L88.7800,550.7072L88.7807,550.7046
            L88.7814,550.7020L88.7821,550.6994L88.7828,550.6968L88.7835,550.6942L88.7841,550.6917L88.7848,550.6891L88.7855,550.6865L88.7862,550.6839L88.7869,550.6813L88.7876,550.6788
            L88.7883,550.6762L88.7890,550.6736L88.7896,550.6710L88.7903,550.6684L88.7910,550.6658L88.7917,550.6633L88.7924,550.6607L88.7931,550.6581L88.7938,550.6555L88.7945,550.6529
            L88.7951,550.6503L88.7958,550.6477L88.7965,550.6451L88.7972,550.6426L88.7979,550.6400L88.7986,550.6374L88.7993,550.6348L88.7999,550.6322L88.8006,550.6297L88.8013,550.6271
            L88.8020,550.6245L88.8027,550.6219L88.8034,550.6193L88.8041,550.6167L88.8048,550.6142L88.8054,550.6116L88.8061,550.6090L88.8068,550.6064L88.8075,550.6038L88.8082,550.6012
            L88.8089,550.5987L88.8096,550.5961L88.8103,550.5935L88.8109,550.5909L88.8116,550.5883L88.8123,550.5857L88.8130,550.5832L88.8137,550.5806L88.8144,550.5780L88.8151,550.5754
            L88.8158,550.5728L88.8164,550.5702L88.8171,550.5676L88.8178,550.5651L88.8185,550.5625L88.8192,550.5599L88.8199,550.5573L88.8206,550.5547L88.8212,550.5522L88.8219,550.5496
            L88.8226,550.5470L88.8233,550.5444L88.8240,550.5418L88.8247,550.5392L88.8254,550.5367L88.8261,550.5341L88.8267,550.5315L88.8274,550.5289L88.8281,550.5263L88.8288,550.5237
            L88.8295,550.5212L88.8302,550.5186L88.8309,550.5160L88.8316,550.5134L88.8322,550.5108L88.8329,550.5082L88.8336,550.5057L88.8343,550.5031L88.8350,550.5005L88.8357,550.4979
            L88.8364,550.4953L88.8371,550.4927L88.8377,550.4902L88.8384,550.4876L88.8391,550.4850L88.8398,550.4824L88.8405,550.4798L88.8412,550.4773L88.8419,550.4747L88.8426,550.4721
            L88.8432,550.4695L88.8439,550.4669L88.8446,550.4643L88.8453,550.4618L88.8460,550.4592L88.8467,550.4566L88.8474,550.4540L88.8480,550.4514L88.8487,550.4488L88.8494,550.4463
            L88.8501,550.4437L88.8508,550.4411L88.8515,550.4385L88.8522,550.4359L88.8529,550.4333L88.8535,550.4307L88.8542,550.4282L88.8549,550.4256L88.8556,550.4230L88.8563,550.4204
            L88.8570,550.4179L88.8577,550.4153L88.8584,550.4127L88.8590,550.4101L88.8597,550.4075L88.8604,550.4049L88.8611,550.4024L88.8618,550.3998L88.8625,550.3972L88.8632,550.3946
            L88.8639,550.3920L88.8645,550.3894L88.8652,550.3869L88.8659,550.3843L88.8666,550.3817L88.8673,550.3791L88.8680,550.3765L88.8687,550.3739L88.8693,550.3714L88.8700,550.3688
            L88.8707,550.3662L88.8714,550.3636L88.8721,550.3610L88.8728,550.3585L88.8735,550.3559L88.8742,550.3533L88.8748,550.3507L88.8755,550.3481L88.8762,550.3456L88.8769,550.3430
            L88.8776,550.3404L88.8783,550.3378L88.8790,550.3352L88.8797,550.3326L88.8803,550.3300L88.8810,550.3275L88.8817,550.3249L88.8824,550.3223L88.8831,550.3197L88.8838,550.3172
            L88.8845,550.3146L88.8852,550.3120L88.8858,550.3094L88.8865,550.3068L88.8872,550.3042L88.8879,550.3017L88.8886,550.2991L88.8893,550.2965L88.8900,550.2939L88.8906,550.2913
            L88.8913,550.2887L88.8920,550.2862L88.8927,550.2836L88.8934,550.2810L88.8941,550.2784L88.8948,550.2758L88.8955,550.2733L88.8961,550.2707L88.8968,550.2681L88.8975,550.2655
            L88.8982,550.2629L88.8989,550.2603L88.8996,550.2578L88.9003,550.2552L88.9010,550.2526L88.9016,550.2500L88.9023,550.2475L88.9030,550.2449L88.9037,550.2423L88.9044,550.2397
            L88.9051,550.2371L88.9058,550.2345L88.9065,550.2319L88.9071,550.2294L88.9078,550.2268L88.9085,550.2242L88.9092,550.2216L88.9099,550.2190L88.9106,550.2165L88.9113,550.2139
            L88.9119,550.2113L88.9126,550.2087L88.9133,550.2062L88.9140,550.2036L88.9147,550.2010L88.9154,550.1984L88.9161,550.1958L88.9168,550.1932L88.9174,550.1906L88.9181,550.1881
            L88.9188,550.1855L88.9195,550.1829L88.9202,550.1803L88.9209,550.1777L88.9216,550.1752L88.9223,550.1726L88.9229,550.1700L88.9236,550.1674L88.9243,550.1649L88.9250,550.1623
            L88.9257,550.1597L88.9264,550.1571L88.9271,550.1545L88.9278,550.1519L88.9284,550.1494L88.9291,550.1468L88.9298,550.1442L88.9305,550.1416L88.9312,550.1390L88.9319,550.1364
            L88.9326,550.1339L88.9332,550.1313L88.9339,550.1287L88.9346,550.1261L88.9353,550.1236L88.9360,550.1210L88.9367,550.1184L88.9374,550.1158L88.9381,550.1132L88.9387,550.1106
            L88.9394,550.1081L88.9401,550.1055L88.9408,550.1029L88.9415,550.1003L88.9422,550.0977L88.9429,550.0952L88.9436,550.0926L88.9442,550.0900L88.9449,550.0874L88.9456,550.0848
            L88.9463,550.0823L88.9470,550.0797L88.9477,550.0771L88.9484,550.0745L88.9491,550.0719L88.9497,550.0694L88.9504,550.0668L88.9511,550.0642L88.9518,550.0616L88.9525,550.0590
            L88.9532,550.0565L88.9539,550.0539L88.9545,550.0513L88.9552,550.0487L88.9559,550.0461L88.9566,550.0435L88.9573,550.0410L88.9580,550.0384L88.9587,550.0358L88.9594,550.0332
            L88.9600,550.0307L88.9607,550.0281L88.9614,550.0255L88.9621,550.0229L88.9628,550.0203L88.9635,550.0178L88.9642,550.0152L88.9649,550.0126L88.9655,550.0100L88.9662,550.0074
            L88.9669,550.0048L88.9676,550.0023L88.9683,549.9997L88.9690,549.9971L88.9697,549.9945L88.9704,549.9919L88.9710,549.9894L88.9717,549.9868L88.9724,549.9842L88.9731,549.9816
            L88.9738,549.9790L88.9745,549.9765L88.9752,549.9739L88.9758,549.9713L88.9765,549.9687L88.9772,549.9662L88.9779,549.9636L88.9786,549.9610L88.9793,549.9584L88.9800,549.9558
            L88.9807,549.9533L88.9813,549.9507L88.9820,549.9481L88.9827,549.9455L88.9834,549.9429L88.9841,549.9403L88.9848,549.9378L88.9855,549.9352L88.9862,549.9326L88.9868,549.9300
            L88.9875,549.9275L88.9882,549.9249L88.9889,549.9223L88.9896,549.9197L88.9903,549.9171L88.9910,549.9146L88.9917,549.9120L88.9923,549.9094L88.9930,549.9068L88.9937,549.9042
            L88.9944,549.9017L88.9951,549.8991L88.9958,549.8965L88.9965,549.8939L88.9971,549.8914L88.9978,549.8888L88.9985,549.8862L88.9992,549.8836L88.9999,549.8810L89.0006,549.8784
            L89.0013,549.8759L89.0020,549.8733L89.0026,549.8707L89.0033,549.8681L89.0040,549.8656L89.0047,549.8630L89.0054,549.8604L89.0061,549.8578L89.0068,549.8552L89.0075,549.8526
            L89.0081,549.8501L89.0088,549.8475L89.0095,549.8449L89.0102,549.8423L89.0109,549.8398L89.0116,549.8372L89.0123,549.8346L89.0130,549.8320L89.0136,549.8294L89.0143,549.8269
            L89.0150,549.8243L89.0157,549.8217L89.0164,549.8191L89.0171,549.8166L89.0178,549.8140L89.0184,549.8114L89.0191,549.8088L89.0198,549.8062L89.0205,549.8037L89.0212,549.8011
            L89.0219,549.7985L89.0226,549.7959L89.0233,549.7933L89.0239,549.7908L89.0246,549.7882L89.0253,549.7856L89.0260,549.7830L89.0267,549.7804L89.0274,549.7779L89.0281,549.7753
            L89.0288,549.7727L89.0294,549.7701L89.0301,549.7675L89.0308,549.7650L89.0315,549.7624L89.0322,549.7598L89.0329,549.7572L89.0336,549.7546L89.0343,549.7521L89.0349,549.7495
            L89.0356,549.7469L89.0363,549.7443L89.0370,549.7418L89.0377,549.7392L89.0384,549.7366L89.0391,549.7340L89.0397,549.7314L89.0404,549.7289L89.0411,549.7263L89.0418,549.7237
            L89.0425,549.7211L89.0432,549.7186L89.0439,549.7160L89.0446,549.7134L89.0452,549.7108L89.0459,549.7082L89.0466,549.7057L89.0473,549.7031L89.0480,549.7005L89.0487,549.6979
            L89.0494,549.6954L89.0501,549.6928L89.0507,549.6902L89.0514,549.6876L89.0521,549.6850L89.0528,549.6825L89.0535,549.6799L89.0542,549.6773L89.0549,549.6747L89.0556,549.6722
            L89.0562,549.6696L89.0569,549.6670L89.0576,549.6644L89.0583,549.6618L89.0590,549.6593L89.0597,549.6567L89.0604,549.6541L89.0610,549.6515L89.0617,549.6489L89.0624,549.6464
            L89.0631,549.6438L89.0638,549.6412L89.0645,549.6386L89.0652,549.6360L89.0659,549.6335L89.0665,549.6309L89.0672,549.6283L89.0679,549.6257L89.0686,549.6232L89.0693,549.6206
            L89.0700,549.6180L89.0707,549.6154L89.0714,549.6128L89.0720,549.6103L89.0727,549.6077L89.0734,549.6051L89.0741,549.6025L89.0748,549.6000L89.0755,549.5974L89.0762,549.5948
            L89.0769,549.5922L89.0775,549.5896L89.0782,549.5871L89.0789,549.5845L89.0796,549.5819L89.0803,549.5793L89.0810,549.5768L89.0817,549.5742L89.0823,549.5716L89.0830,549.5690
            L89.0837,549.5664L89.0844,549.5639L89.0851,549.5613L89.0858,549.5587L89.0865,549.5561L89.0872,549.5536L89.0878,549.5510L89.0885,549.5484L89.0892,549.5458L89.0899,549.5432
            L89.0906,549.5407L89.0913,549.5381L89.0920,549.5355L89.0927,549.5329L89.0933,549.5304L89.0940,549.5278L89.0947,549.5252L89.0954,549.5226L89.0961,549.5200L89.0968,549.5175
            L89.0975,549.5149L89.5844,547.6920L90.2213,545.3189L90.8582,542.9584L91.4951,540.6102L92.1320,538.2745L92.7689,535.9510L93.4058,533.6398L94.0427,531.3408L94.6796,529.0539
            L95.3165,526.7790L95.9534,524.5161L96.5903,522.2651L97.2272,520.0260L97.8641,517.7987L98.5010,515.5831L99.1379,513.3791L99.7748,511.1868L100.4117,509.0061L101.0486,506.8368
            L101.6855,504.6789L102.3224,502.5325L102.9593,500.3973L103.5962,498.2734L104.2330,496.1606L104.8699,494.0590L105.5068,491.9685L106.1437,489.8890L106.7806,487.8204L107.4175,485.7627
            L108.0544,483.7159L108.6913,481.6798L109.3282,479.6545L109.9651,477.6398L110.6020,475.6358L111.2389,473.6423L111.8758,471.6593L112.5127,469.6868L113.1496,467.7246L113.7865,465.7728
            L114.4234,463.8313L115.0603,461.9000L115.6972,459.9788L116.3341,458.0678L116.9710,456.1669L117.6079,454.2759L118.2448,452.3950L118.8817,450.5239L119.5186,448.6627L120.1555,446.8113
            L120.7924,444.9696L121.4293,443.1377L122.0661,441.3154L122.7030,439.5027L123.3399,437.6995L123.9768,435.9059L124.6137,434.1217L125.2506,432.3469L125.8875,430.5814L126.5244,428.8253
            L127.1613,427.0783L127.7982,425.3406L128.4351,423.6121L129.0720,421.8926L129.7089,420.1823L130.3458,418.4809L130.9827,416.7885L131.6196,415.1050L132.2565,413.4303L132.8934,411.7645
            L133.5303,410.1075L134.1672,408.4592L134.8041,406.8196L135.4410,405.1886L136.0779,403.5662L136.7148,401.9523L137.3517,400.3470L137.9886,398.7501L138.6255,397.1616L139.2623,395.5815
            L139.8992,394.0097L140.5361,392.4462L141.1730,390.8909L141.8099,389.3439L142.4468,387.8049L143.0837,386.2741L143.7206,384.7514L144.3575,383.2366L144.9944,381.7299L145.6313,380.2310
            L146.2682,378.7401L146.9051,377.2570L147.5420,375.7818L148.1789,374.3143L148.8158,372.8545L149.4527,371.4025L150.0896,369.9580L150.7265,368.5212L151.3634,367.0920L152.0003,365.6703
            L152.6372,364.2560L153.2741,362.8493L153.9110,361.4499L154.5479,360.0579L155.1848,358.6733L155.8217,357.2959L156.4585,355.9258L157.0954,354.5629L157.7323,353.2072L158.3692,351.8586
            L159.0061,350.5172L159.6430,349.1827L160.2799,347.8554L160.9168,346.5350L161.5537,345.2216L162.1906,343.9150L162.8275,342.6154L163.4644,341.3227L164.1013,340.0367L164.7382,338.7575
            L165.3751,337.4851L166.0120,336.2193L166.6489,334.9602L167.2858,333.7078L167.9227,332.4619L168.5596,331.2226L169.1965,329.9899L169.8334,328.7636L170.4703,327.5438L171.1072,326.3304
            L171.7441,325.1234L172.3810,323.9228L173.0179,322.7285L173.6548,321.5404L174.2916,320.3587L174.9285,319.1831L175.5654,318.0138L176.2023,316.8506L176.8392,315.6935L177.4761,314.5426
            L178.1130,313.3977L178.7499,312.2588L179.3868,311.1259L180.0237,309.9991L180.6606,308.8781L181.2975,307.7630L181.9344,306.6538L182.5713,305.5505L183.2082,304.4530L183.8451,303.3612
            L184.4820,302.2752L185.1189,301.1950L185.7558,300.1204L186.3927,299.0514L187.0296,297.9882L187.6665,296.9305L188.3034,295.8783L188.9403,294.8317L189.5772,293.7907L190.2141,292.7551
            L190.8510,291.7250L191.4879,290.7003L192.1247,289.6810L192.7616,288.6670L193.3985,287.6585L194.0354,286.6552L194.6723,285.6572L195.3092,284.6644L195.9461,283.6769L196.5830,282.6946
            L197.2199,281.7175L197.8568,280.7455L198.4937,279.7786L199.1306,278.8169L199.7675,277.8602L200.4044,276.9085L201.0413,275.9618L201.6782,275.0202L202.3151,274.0835L202.9520,273.1517
            L203.5889,272.2248L204.2258,271.3028L204.8627,270.3857L205.4996,269.4735L206.1365,268.5660L206.7734,267.6633L207.4103,266.7653L208.0472,265.8721L208.6841,264.9836L209.3209,264.0997
            L209.9578,263.2206L210.5947,262.3460L211.2316,261.4761L211.8685,260.6107L212.5054,259.7499L213.1423,258.8936L213.7792,258.0419L214.4161,257.1946L215.0530,256.3518L215.6899,255.5134
            L216.3268,254.6795L216.9637,253.8499L217.6006,253.0247L218.2375,252.2039L218.8744,251.3874L219.5113,250.5752L220.1482,249.7672L220.7851,248.9636L221.4220,248.1641L222.0589,247.3689
            L222.6958,246.5778L223.3327,245.7910L223.9696,245.0082L224.6065,244.2296L225.2434,243.4551L225.8803,242.6847L226.5171,241.9183L227.1540,241.1560L227.7909,240.3976L228.4278,239.6433
            L229.0647,238.8930L229.7016,238.1466L230.3385,237.4041L230.9754,236.6656L231.6123,235.9309L232.2492,235.2001L232.8861,234.4732L233.5230,233.7500L234.1599,233.0307L234.7968,232.3152
            L235.4337,231.6035L236.0706,230.8955L236.7075,230.1912L237.3444,229.4906L237.9813,228.7938L238.6182,228.1006L239.2551,227.4110L239.8920,226.7251L240.5289,226.0428L241.1658,225.3641
            L241.8027,224.6890L242.4396,224.0174L243.0765,223.3494L243.7133,222.6848L244.3502,222.0238L244.9871,221.3663L245.6240,220.7122L246.2609,220.0616L246.8978,219.4144L247.5347,218.7706
            L248.1716,218.1302L248.8085,217.4932L249.4454,216.8595L250.0823,216.2292L250.7192,215.6022L251.3561,214.9785L251.9930,214.3580L252.6299,213.7409L253.2668,213.1270L253.9037,212.5163
            L254.5406,211.9089L255.1775,211.3046L255.8144,210.7035L256.4513,210.1056L257.0882,209.5109L257.7251,208.9193L258.3620,208.3307L258.9989,207.7453L259.6358,207.1630L260.2727,206.5838
            L260.9096,206.0076L261.5464,205.4344L262.1833,204.8643L262.8202,204.2971L263.4571,203.7330L264.0940,203.1718L264.7309,202.6135L265.3678,202.0583L266.0047,201.5059L266.6416,200.9564
            L267.2785,200.4099L267.9154,199.8662L268.5523,199.3254L269.1892,198.7874L269.8261,198.2523L270.4630,197.7200L271.0999,197.1905L271.7368,196.6637L272.3737,196.1398L273.0106,195.6186
            L273.6475,195.1002L274.2844,194.5845L274.9213,194.0715L275.5582,193.5612L276.1951,193.0536L276.8320,192.5486L277.4689,192.0464L278.1058,191.5467L278.7427,191.0498L279.3795,190.5554
            L280.0164,190.0636L280.6533,189.5744L281.2902,189.0878L281.9271,188.6038L282.5640,188.1223L283.2009,187.6434L283.8378,187.1669L284.4747,186.6930L285.1116,186.2216L285.7485,185.7526
            L286.3854,185.2862L287.0223,184.8222L287.6592,184.3606L288.2961,183.9015L288.9330,183.4447L289.5699,182.9904L290.2068,182.5385L290.8437,182.0890L291.4806,181.6418L292.1175,181.1970
            L292.7544,180.7545L293.3913,180.3144L294.0282,179.8765L294.6651,179.4410L295.3020,179.0078L295.9389,178.5769L296.5757,178.1482L297.2126,177.7218L297.8495,177.2976L298.4864,176.8757
            L299.1233,176.4560L299.7602,176.0385L300.3971,175.6232L301.0340,175.2101L301.6709,174.7991L302.3078,174.3904L302.9447,173.9838L303.5816,173.5793L304.2185,173.1769L304.8554,172.7767
            L305.4923,172.3786L306.1292,171.9826L306.7661,171.5886L307.4030,171.1968L308.0399,170.8070L308.6768,170.4193L309.3137,170.0336L309.9506,169.6499L310.5875,169.2682L311.2244,168.8886
            L311.8613,168.5110L312.4982,168.1353L313.1351,167.7617L313.7719,167.3900L314.4088,167.0202L315.0457,166.6524L315.6826,166.2866L316.3195,165.9226L316.9564,165.5606L317.5933,165.2005
            L318.2302,164.8423L318.8671,164.4860L319.5040,164.1316L320.1409,163.7790L320.7778,163.4283L321.4147,163.0794L322.0516,162.7324L322.6885,162.3872L323.3254,162.0438L323.9623,161.7022
            L324.5992,161.3624L325.2361,161.0244L325.8730,160.6882L326.5099,160.3538L327.1468,160.0211L327.7837,159.6902L328.4206,159.3610L329.0575,159.0335L329.6944,158.7078L330.3313,158.3838
            L330.9682,158.0615L331.6050,157.7409L332.2419,157.4220L332.8788,157.1048L333.5157,156.7892L334.1526,156.4753L334.7895,156.1631L335.4264,155.8525L336.0633,155.5435L336.7002,155.2362
            L337.3371,154.9305L337.9740,154.6263L338.6109,154.3238L339.2478,154.0229L339.8847,153.7236L340.5216,153.4259L341.1585,153.1297L341.7954,152.8351L342.4323,152.5420L343.0692,152.2505
            L343.7061,151.9605L344.3430,151.6720L344.9799,151.3851L345.6168,151.0996L346.2537,150.8157L346.8906,150.5333L347.5274,150.2523L348.1644,149.9729L348.8012,149.6949L349.4381,149.4183
            L350.0750,149.1433L350.7119,148.8696L351.3488,148.5975L351.9857,148.3267L352.6226,148.0574L353.2595,147.7895L353.8964,147.5230L354.5333,147.2579L355.1702,146.9942L355.8071,146.7319
            L356.4440,146.4710L357.0809,146.2115L357.7178,145.9533L358.3547,145.6965L358.9916,145.4410L359.6285,145.1869L360.2654,144.9341L360.9023,144.6827L361.5392,144.4325L362.1761,144.1837
            L362.8130,143.9362L363.4499,143.6900L364.0868,143.4451L364.7237,143.2015L365.3605,142.9592L365.9975,142.7182L366.6344,142.4784L367.2712,142.2399L367.9081,142.0026L368.5450,141.7666
            L369.1819,141.5318L369.8188,141.2983L370.4557,141.0660L371.0926,140.8349L371.7295,140.6051L372.3664,140.3764L373.0033,140.1490L373.6402,139.9228L374.2771,139.6977L374.9140,139.4738
            L375.5509,139.2512L376.1878,139.0296L376.8247,138.8093L377.4616,138.5901L378.0985,138.3721L378.7354,138.1552L379.3723,137.9395L380.0092,137.7249L380.6461,137.5114L381.2830,137.2990
            L381.9199,137.0878L382.5567,136.8777L383.1936,136.6687L383.8306,136.4608L384.4675,136.2539L385.1043,136.0482L385.7412,135.8436L386.3781,135.6400L387.0150,135.4375L387.6519,135.2361
            L388.2888,135.0357L388.9257,134.8364L389.5626,134.6382L390.1995,134.4410L390.8364,134.2448L391.4733,134.0496L392.1102,133.8555L392.7471,133.6624L393.3840,133.4704L394.0209,133.2793
            L394.6578,133.0893L395.2947,132.9002L395.9316,132.7121L396.5685,132.5251L397.2054,132.3390L397.8423,132.1539L398.4792,131.9698L399.1161,131.7866L399.7530,131.6044L400.3898,131.4232
            L401.0267,131.2429L401.6637,131.0636L402.3005,130.8852L402.9374,130.7077L403.5743,130.5312L404.2112,130.3557L404.8481,130.1810L405.4850,130.0073L406.1219,129.8344L406.7588,129.6625
            L407.3957,129.4915L408.0326,129.3214L408.6695,129.1522L409.3064,128.9839L409.9433,128.8165L410.5802,128.6499L411.2171,128.4843L411.8540,128.3195L412.4909,128.1555L413.1278,127.9925
            L413.7647,127.8303L414.4016,127.6689L415.0385,127.5084L415.6754,127.3488L416.3123,127.1899L416.9492,127.0320L417.5861,126.8748L418.2229,126.7185L418.8598,126.5630L419.4967,126.4083
            L420.1336,126.2545L420.7705,126.1014L421.4074,125.9492L422.0443,125.7977L422.6812,125.6471L423.3181,125.4972L423.9550,125.3482L424.5919,125.1999L425.2288,125.0524L425.8657,124.9057
            L426.5026,124.7597L427.1395,124.6146L427.7764,124.4702L428.4133,124.3265L429.0502,124.1836L429.6871,124.0415L430.3240,123.9001L430.9609,123.7594L431.5978,123.6195L432.2347,123.4803
            L432.8716,123.3419L433.5085,123.2042L434.1454,123.0672L434.7823,122.9310L435.4192,122.7954L436.0560,122.6606L436.6929,122.5265L437.3298,122.3931L437.9667,122.2603L438.6036,122.1283
            L439.2405,121.9970L439.8774,121.8664L440.5143,121.7365L441.1512,121.6072L441.7881,121.4786L442.4250,121.3507L443.0619,121.2235L443.6988,121.0970L444.3357,120.9711L444.9726,120.8459
            L445.6095,120.7213L446.2464,120.5974L446.8833,120.4742L447.5202,120.3516L448.1571,120.2296L448.7940,120.1083L449.4309,119.9876L450.0678,119.8676L450.7047,119.7482L451.3416,119.6294
            L451.9785,119.5112L452.6154,119.3937L453.2523,119.2768L453.8891,119.1605L454.5260,119.0448L455.1629,118.9298L455.7998,118.8153L456.4367,118.7014L457.0736,118.5882L457.7105,118.4755
            L458.3474,118.3634L458.9843,118.2519L459.6212,118.1410L460.2581,118.0307L460.8950,117.9210L461.5319,117.8119L462.1688,117.7033L462.8057,117.5953L463.4426,117.4878L464.0795,117.3810
            L464.7164,117.2747L465.3533,117.1689L465.9902,117.0637L466.6271,116.9591L467.2640,116.8550L467.9009,116.7515L468.5378,116.6485L469.1746,116.5460L469.8115,116.4441L470.4485,116.3427
            L471.0854,116.2419L471.7222,116.1416L472.3591,116.0418L472.9960,115.9426L473.6329,115.8438L474.2698,115.7456L474.9067,115.6479L475.5436,115.5507L476.1805,115.4541L476.8174,115.3579
            L477.4543,115.2623L478.0912,115.1671L478.7281,115.0725L479.3650,114.9783L480.0019,114.8847L480.6388,114.7915L481.2757,114.6989L481.9126,114.6067L482.5495,114.5150L483.1864,114.4238
            L483.8233,114.3330L484.4602,114.2428L485.0971,114.1530L485.7340,114.0637L486.3709,113.9749L487.0078,113.8865L487.6446,113.7986L488.2816,113.7112L488.9184,113.6242L489.5553,113.5377
            L490.1922,113.4516L490.8291,113.3660L491.4660,113.2809L492.1029,113.1961L492.7398,113.1119L493.3767,113.0281L494.0136,112.9447L494.6505,112.8617L495.2874,112.7792L495.9243,112.6972
            L496.5612,112.6155L497.1981,112.5343L497.8350,112.4536L498.4719,112.3732L499.1088,112.2933L499.7457,112.2138L500.3826,112.1347L501.0195,112.0560L501.6564,111.9778L502.2933,111.8999
            L502.9302,111.8225L503.5671,111.7455L504.2040,111.6688L504.8409,111.5926L505.4777,111.5168L506.1147,111.4414L506.7515,111.3664L507.3884,111.2917L508.0253,111.2175L508.6622,111.1437
            L509.2991,111.0702L509.9360,110.9972L510.5729,110.9245L511.2098,110.8522L511.8467,110.7803L512.4836,110.7087L513.1205,110.6376L513.7574,110.5668L514.3943,110.4964L515.0312,110.4263
            L515.6681,110.3567L516.3050,110.2873L516.9419,110.2184L517.5788,110.1498L518.2157,110.0816L518.8526,110.0138L519.4895,109.9463L520.1264,109.8791L520.7633,109.8123L521.4002,109.7459
            L522.0371,109.6798L522.6739,109.6141L523.3108,109.5487L523.9478,109.4836L524.5846,109.4189L525.2215,109.3545L525.8584,109.2905L526.4953,109.2268L527.1322,109.1635L527.7691,109.1005
            L528.4060,109.0378L529.0429,108.9754L529.6798,108.9134L530.3167,108.8517L530.9536,108.7903L531.5905,108.7292L532.2274,108.6685L532.8643,108.6081L533.5012,108.5480L534.1381,108.4882
            L534.7750,108.4288L535.4119,108.3696L536.0488,108.3108L536.6857,108.2522L537.3226,108.1940L537.9595,108.1361L538.5964,108.0785L539.2333,108.0212L539.8702,107.9642L540.5070,107.9075
            L541.1439,107.8511L541.7809,107.7950L542.4177,107.7392L543.0546,107.6837L543.6915,107.6284L544.3284,107.5735L544.9653,107.5188L545.6022,107.4645L546.2391,107.4104L546.8760,107.3566
            L547.5129,107.3031L548.1498,107.2499L548.7867,107.1970L549.4236,107.1443L550.0605,107.0919L550.6974,107.0398L551.3343,106.9880L551.9712,106.9364L552.6081,106.8851L553.2450,106.8341
            L553.8819,106.7834L554.5188,106.7329L555.1557,106.6827L555.7926,106.6327L556.4295,106.5830L557.0664,106.5336L557.7033,106.4844L558.3401,106.4355L558.9770,106.3869L559.6139,106.3385
            L560.2508,106.2903L560.8877,106.2425L561.5246,106.1948L562.1615,106.1474L562.7984,106.1003L563.4353,106.0534L564.0722,106.0068L564.7091,105.9604L565.3460,105.9143L565.9829,105.8683
            L566.6198,105.8227L567.2567,105.7773L567.8936,105.7321L568.5305,105.6871L569.1674,105.6424L569.8043,105.5980L570.4412,105.5537L571.0781,105.5097L571.7150,105.4659L572.3519,105.4224
            L572.9888,105.3791L573.6257,105.3360L574.2626,105.2931L574.8995,105.2505L575.5363,105.2081L576.1732,105.1659L576.8101,105.1240L577.4470,105.0822L578.0839,105.0407L578.7208,104.9994
            L579.3577,104.9583L579.9946,104.9174L580.6315,104.8768L581.2684,104.8363L581.9053,104.7961L582.5422,104.7561L583.1791,104.7163L583.8160,104.6767L584.4529,104.6373L585.0898,104.5981
            L585.7267,104.5592L586.3636,104.5204L587.0005,104.4818L587.6374,104.4435L588.2743,104.4053L588.9112,104.3674L589.5481,104.3296L590.1850,104.2921L590.8219,104.2547L591.4588,104.2175
            L592.0957,104.1806L592.7326,104.1438L593.3694,104.1072L594.0063,104.0708L594.6432,104.0346L595.2801,103.9986L595.9170,103.9628L596.5539,103.9272L597.1908,103.8918L597.8277,103.8565
            L598.4646,103.8215L599.1015,103.7866L599.7384,103.7519L600.3753,103.7174L601.0122,103.6830L601.6491,103.6489L602.2860,103.6149L602.9229,103.5811L603.5598,103.5475L604.1967,103.5141
            L604.8336,103.4808L605.4705,103.4477L606.1074,103.4148L606.7443,103.3821L607.3812,103.3495L608.0181,103.3171L608.6550,103.2849L609.2918,103.2528L609.9287,103.2210L610.5657,103.1892
            L611.2026,103.1577L611.8394,103.1263L612.4763,103.0951L613.1132,103.0640L613.7501,103.0331L614.3870,103.0024L615.0239,102.9719L615.6608,102.9414L616.2977,102.9112L616.9346,102.8811
            L617.5715,102.8512L618.2084,102.8214L618.8453,102.7918L619.4822,102.7624L620.1191,102.7331L620.7560,102.7039L621.3929,102.6749L622.0298,102.6461L622.6667,102.6174L623.3036,102.5888
            L623.9405,102.5605L624.5774,102.5322L625.2143,102.5041L625.8512,102.4762L626.4881,102.4484L627.1249,102.4208L627.7618,102.3933L628.3988,102.3659L629.0356,102.3387L629.6725,102.3116
            L630.3094,102.2847L630.9463,102.2579L631.5832,102.2313L632.2201,102.2048L632.8570,102.1784L633.4939,102.1522L634.1308,102.1261L634.7677,102.1001L635.4046,102.0743L636.0415,102.0486
            L636.6784,102.0231L637.3153,101.9977L637.9522,101.9724L638.5891,101.9473L639.2260,101.9223L639.8629,101.8974L640.4998,101.8727L641.1367,101.8480L641.7736,101.8236L642.4105,101.7992
            L643.0474,101.7750L643.6843,101.7509L644.3212,101.7269L644.9580,101.7031L645.5949,101.6793L646.2319,101.6557L646.8687,101.6323L647.5056,101.6089L648.1425,101.5857L648.7794,101.5626
            L649.4163,101.5396L650.0532,101.5167L650.6901,101.4940L651.3270,101.4714L651.9639,101.4489L652.6008,101.4265L653.2377,101.4042L653.8746,101.3821L654.5115,101.3601L655.1484,101.3382
            L655.7853,101.3164L656.4222,101.2947L657.0591,101.2731L657.6960,101.2516L658.3329,101.2303L658.9698,101.2091L659.6067,101.1880L660.2436,101.1669L660.8805,101.1460L661.5174,101.1253
            L662.1543,101.1046L662.7911,101.0840L663.4280,101.0636L664.0650,101.0432L664.7018,101.0230L665.3387,101.0028L665.9756,100.9828L666.6125,100.9629L667.2494,100.9430L667.8863,100.9233
            L668.5232,100.9037L669.1601,100.8842L669.7970,100.8648L670.4339,100.8455L671.0708,100.8263L671.7077,100.8072L672.3446,100.7882L672.9815,100.7693L673.6184,100.7505L674.2553,100.7318
            L674.8922,100.7132L675.5291,100.6947L676.1660,100.6763L676.8029,100.6579L677.4398,100.6397L678.0767,100.6216L678.7136,100.6036L679.3505,100.5857L679.9874,100.5678L680.6242,100.5501
            L681.2611,100.5324L681.8980,100.5149L682.5349,100.4974L683.1718,100.4800L683.8087,100.4628L684.4456,100.4456L685.0825,100.4285L685.7194,100.4115L686.3563,100.3946L686.9932,100.3777
            L687.6301,100.3610L688.2670,100.3443L688.9039,100.3278L689.5408,100.3113L690.1777,100.2949L690.8146,100.2786L691.4515,100.2624L692.0884,100.2463L692.7253,100.2302L693.3622,100.2143
            L693.9991,100.1984L694.6360,100.1826L695.2729,100.1669L695.9097,100.1512L696.5467,100.1357L697.1836,100.1202L697.8205,100.1048L698.4573,100.0895L699.0942,100.0743L699.7311,100.0592
            L700.3680,100.0441L701.0049,100.0291L701.6418,100.0142L702.2787,99.9994L702.9156,99.9847L703.5525,99.9700L704.1894,99.9554L704.8263,99.9409L705.4632,99.9265L706.1001,99.9121
            L706.7370,99.8978L707.3739,99.8836L708.0108,99.8695L708.6477,99.8554L709.2846,99.8414L709.9215,99.8275L710.5584,99.8136L711.1953,99.7999L711.8322,99.7862L712.4691,99.7726
            L713.1060,99.7590L713.7428,99.7455L714.3797,99.7321L715.0166,99.7188L715.6535,99.7055L716.2904,99.6923L716.9273,99.6792L717.5642,99.6661L718.2012,99.6531L718.8381,99.6402
            L719.4749,99.6274L720.1118,99.6146L720.7487,99.6019L721.3856,99.5892L722.0225,99.5766L722.6594,99.5641L723.2963,99.5516"/>
  </g>
  <g style="fill:none; stroke:#000000; stroke-width:  1.0125; stroke-linecap:butt; stroke-linejoin:miter; stroke-dasharray:none">
   <path d="M74.2500,54.0000L736.0227,54.0000"/>
   <path d="M74.2500,594.0000L736.0227,594.0000"/>
   <path d="M106.0660,54.0000L106.0660,60.7500"/>
   <path d="M106.0660,594.0000L106.0660,587.2500"/>
   <path d="M169.6980,54.0000L169.6980,60.7500"/>
   <path d="M169.6980,594.0000L169.6980,587.2500"/>
   <path d="M233.3300,54.0000L233.3300,60.7500"/>
   <path d="M233.3300,594.0000L233.3300,587.2500"/>
   <path d="M296.9620,54.0000L296.9620,60.7500"/>
   <path d="M296.9620,594.0000L296.9620,587.2500"/>
   <path d="M360.5940,54.0000L360.5940,60.7500"/>
   <path d="M360.5940,594.0000L360.5940,587.2500"/>
   <path d="M424.2259,54.0000L424.2259,60.7500"/>
   <path d="M424.2259,594.0000L424.2259,587.2500"/>
   <path d="M487.8579,54.0000L487.8579,60.7500"/>
   <path d="M487.8579,594.0000L487.8579,587.2500"/>
   <path d="M551.4899,54.0000L551.4899,60.7500"/>
   <path d="M551.4899,594.0000L551.4899,587.2500"/>
   <path d="M615.1219,54.0000L615.1219,60.7500"/>
   <path d="M615.1219,594.0000L615.1219,587.2500"/>
   <path d="M678.7539,54.0000L678.7539,60.7500"/>
   <path d="M678.7539,594.0000L678.7539,587.2500"/>
   <path d="M74.2500,54.0000L74.2500,67.5000"/>
   <path d="M74.2500,594.0000L74.2500,580.5000"/>
   <path d="M137.8820,54.0000L137.8820,67.5000"/>
   <path d="M137.8820,594.0000L137.8820,580.5000"/>
   <path d="M201.5140,54.0000L201.5140,67.5000"/>
   <path d="M201.5140,594.0000L201.5140,580.5000"/>
   <path d="M265.1460,54.0000L265.1460,67.5000"/>
   <path d="M265.1460,594.0000L265.1460,580.5000"/>
   <path d="M328.7780,54.0000L328.7780,67.5000"/>
   <path d="M328.7780,594.0000L328.7780,580.5000"/>
   <path d="M392.4100,54.0000L392.4100,67.5000"/>
   <path d="M392.4100,594.0000L392.4100,580.5000"/>
   <path d="M456.0419,54.0000L456.0419,67.5000"/>
   <path d="M456.0419,594.0000L456.0419,580.5000"/>
   <path d="M519.6739,54.0000L519.6739,67.5000"/>
   <path d="M519.6739,594.0000L519.6739,580.5000"/>
   <path d="M583.3059,54.0000L583.3059,67.5000"/>
   <path d="M583.3059,594.0000L583.3059,580.5000"/>
   <path d="M646.9379,54.0000L646.9379,67.5000"/>
   <path d="M646.9379,594.0000L646.9379,580.5000"/>
   <path d="M710.5699,54.0000L710.5699,67.5000"/>
   <path d="M710.5699,594.0000L710.5699,580.5000"/>
  </g>
  <g style="fill:#000000; fill-rule:nonzero">
   <text   style="font-family:'Times','Nimbus Roman'; font-style:normal; font-weight:normal; font-size:675.0000" transform="matrix(0.0280,0.0000,-0.0000,-0.0280,69.7500,34.2500)">0</text>
   <text   style="font-family:'Times','Nimbus Roman'; font-style:normal; font-weight:normal; font-size:675.0000" transform="matrix(0.0280,0.0000,-0.0000,-0.0280,134.3820,34.2500)">1</text>
   <text   style="font-family:'Times','Nimbus Roman'; font-style:normal; font-weight:normal; font-size:675.0000" transform="matrix(0.0280,0.0000,-0.0000,-0.0280,197.0140,34.2500)">2</text>
   <text   style="font-family:'Times','Nimbus Roman'; font-style:normal; font-weight:normal; font-size:675.0000" transform="matrix(0.0280,0.0000,-0.0000,-0.0280,261.1460,34.2500)">3</text>
   <text   style="font-family:'Times','Nimbus Roman'; font-style:normal; font-weight:normal; font-size:675.0000" transform="matrix(0.0280,0.0000,-0.0000,-0.0280,324.2780,34.2500)">4</text>
   <text   style="font-family:'Times','Nimbus Roman'; font-style:normal; font-weight:normal; font-size:675.0000" transform="matrix(0.0280,0.0000,-0.0000,-0.0280,388.4100,34.2500)">5</text>
   <text   style="font-family:'Times','Nimbus Roman'; font-style:normal; font-weight:normal; font-size:675.0000" transform="matrix(0.0280,0.0000,-0.0000,-0.0280,451.5419,34.2500)">6</text>
   <text   style="font-family:'Times','Nimbus Roman'; font-style:normal; font-weight:normal; font-size:675.0000" transform="matrix(0.0280,0.0000,-0.0000,-0.0280,515.6739,34.2500)">7</text>
   <text   style="font-family:'Times','Nimbus Roman'; font-style:normal; font-weight:normal; font-size:675.0000" transform="matrix(0.0280,0.0000,-0.0000,-0.0280,579.3059,34.2500)">8</text>
   <text   style="font-family:'Times','Nimbus Roman'; font-style:normal; font-weight:normal; font-size:675.0000" transform="matrix(0.0280,0.0000,-0.0000,-0.0280,642.4379,34.2500)">9</text>
   <text   style="font-family:'Times','Nimbus Roman'; font-style:normal; font-weight:normal; font-size:675.0000" transform="matrix(0.0280,0.0000,-0.0000,-0.0280,701.5699,34.2500)">10</text>
   <text   style="font-family:'Times','Nimbus Roman'; font-style:normal; font-weight:normal; font-size:675.0000" transform="matrix(0.0280,0.0000,-0.0000,-0.0280,368.1363,13.5000)">Time (ns)</text>
  </g>
  <g style="fill:none; stroke:#000000; stroke-width:  1.0125; stroke-linecap:butt; stroke-linejoin:miter; stroke-dasharray:none">
   <path d="M74.2500,54.0000L74.2500,594.0000"/>
   <path d="M736.0227,54.0000L736.0227,594.0000"/>
   <path d="M74.2500,108.0000L81.0000,108.0000"/>
   <path d="M736.0227,108.0000L729.2727,108.0000"/>
   <path d="M74.2500,216.0000L81.0000,216.0000"/>
   <path d="M736.0227,216.0000L729.2727,216.0000"/>
   <path d="M74.2500,324.0000L81.0000,324.0000"/>
   <path d="M736.0227,324.0000L729.2727,324.0000"/>
   <path d="M74.2500,432.0000L81.0000,432.0000"/>
   <path d="M736.0227,432.0000L729.2727,432.0000"/>
   <path d="M74.2500,540.0000L81.0000,540.0000"/>
   <path d="M736.0227,540.0000L729.2727,540.0000"/>
   <path d="M74.2500,54.0000L87.7500,54.0000"/>
   <path d="M736.0227,54.0000L722.5227,54.0000"/>
   <path d="M74.2500,162.0000L87.7500,162.0000"/>
   <path d="M736.0227,162.0000L722.5227,162.0000"/>
   <path d="M74.2500,270.0000L87.7500,270.0000"/>
   <path d="M736.0227,270.0000L722.5227,270.0000"/>
   <path d="M74.2500,378.0000L87.7500,378.0000"/>
   <path d="M736.0227,378.0000L722.5227,378.0000"/>
   <path d="M74.2500,486.0000L87.7500,486.0000"/>
   <path d="M736.0227,486.0000L722.5227,486.0000"/>
   <path d="M74.2500,594.0000L87.7500,594.0000"/>
   <path d="M736.0227,594.0000L722.5227,594.0000"/>
  </g>
  <g style="fill:#000000; fill-rule:nonzero">
   <text   style="font-family:'Times','Nimbus Roman'; font-style:normal; font-weight:normal; font-size:675.0000" transform="matrix(0.0280,0.0000,-0.0000,-0.0280,58.5000,47.5000)">0</text>
   <text   style="font-family:'Times','Nimbus Roman'; font-style:normal; font-weight:normal; font-size:675.0000" transform="matrix(0.0280,0.0000,-0.0000,-0.0280,35.5000,155.5000)">0.05</text>
   <text   style="font-family:'Times','Nimbus Roman'; font-style:normal; font-weight:normal; font-size:675.0000" transform="matrix(0.0280,0.0000,-0.0000,-0.0280,46.5000,263.5000)">0.1</text>
   <text   style="font-family:'Times','Nimbus Roman'; font-style:normal; font-weight:normal; font-size:675.0000" transform="matrix(0.0280,0.0000,-0.0000,-0.0280,35.5000,371.5000)">0.15</text>
   <text   style="font-family:'Times','Nimbus Roman'; font-style:normal; font-weight:normal; font-size:675.0000" transform="matrix(0.0280,0.0000,-0.0000,-0.0280,44.5000,479.5000)">0.2</text>
   <text   style="font-family:'Times','Nimbus Roman'; font-style:normal; font-weight:normal; font-size:675.0000" transform="matrix(0.0280,0.0000,-0.0000,-0.0280,35.5000,587.5000)">0.25</text>
   <text   style="font-family:'Times','Nimbus Roman'; font-style:normal; font-weight:normal; font-size:675.0000" transform="matrix(0.0000,0.0280,0.0280,-0.0000,21.1900,298.0000)">P</text>
   <text   style="font-family:'Times','Nimbus Roman'; font-style:normal; font-weight:normal; font-size:675.0000" transform="matrix(0.0000,0.0198,0.0198,-0.0000,28.7500,309.0000)">FPT</text>
   <text   style="font-family:'Times','Nimbus Roman'; font-style:normal; font-weight:normal; font-size:675.0000" transform="matrix(0.0000,0.0280,0.0280,-0.0000,21.1900,332.0000)">(t)</text>
  </g>
  <g style="fill:none; stroke:#000000; stroke-width:  1.0125; stroke-linecap:butt; stroke-linejoin:miter; stroke-dasharray:none">
   <path d="M74.2500,54.0000L74.2500,594.0000L736.0227,594.0000L736.0227,54.0000z"/>
  </g>
  <g style="fill:#FFFFFF; fill-rule:nonzero">
   <path  d="M598.4503,561.6000L598.4503,516.1906L719.2097,516.1906L719.2097,561.6000z"/>
  </g>
  <g style="fill:none; stroke:#000000; stroke-width:  1.0125; stroke-linecap:butt; stroke-linejoin:miter; stroke-dasharray:none">
   <path d="M598.4503,561.6000L598.4503,516.1906L719.2097,516.1906L719.2097,561.6000z"/>
  </g>
  <g style="fill:#000000; fill-rule:nonzero">
   <text   style="font-family:'Times','Nimbus Roman'; font-style:normal; font-weight:normal; font-size:675.0000" transform="matrix(0.0224,0.0000,-0.0000,-0.0224,646.4597,542.6906)">Simulation</text>
  </g>
  <g style="fill:none; stroke:#FF0000; stroke-width:  1.5188; stroke-linecap:butt; stroke-linejoin:miter; stroke-dasharray:none">
   <path d="M612.7097,543.2906L612.7097,554.0906L626.2097,554.0906L626.2097,543.2906z"/>
  </g>
  <g style="fill:#000000; fill-rule:nonzero">
   <text   style="font-family:'Times','Nimbus Roman'; font-style:normal; font-weight:normal; font-size:675.0000" transform="matrix(0.0224,0.0000,-0.0000,-0.0224,646.4597,525.9406)">Theory</text>
  </g>
  <g style="fill:none; stroke:#7221BC; stroke-width:  1.5188; stroke-linecap:butt; stroke-linejoin:miter; stroke-dasharray:none">
   <path d="M605.9597,529.4406L632.9597,529.4406"/>
  </g>
  <g style="fill:#000000; fill-rule:nonzero">
   <text   style="font-family:'Times','Nimbus Roman'; font-style:normal; font-weight:normal; font-size:675.0000" transform="matrix(0.0420,0.0000,-0.0000,-0.0420,157.1364,640.5000)">First Passage Time Distribution: F-I Barrier</text>
   <text   style="font-family:'Times','Nimbus Roman'; font-style:normal; font-weight:normal; font-size:675.0000" transform="matrix(0.0280,0.0000,-0.0000,-0.0280,147.6364,611.5000)">F &lt;-&gt; I transition of 1D16/T4 DNA Hairpin: Theory and Simulation</text>
  </g>
 </g>
</svg>
