<?xml version="1.0" encoding="ISO-8859-1"?>
<!DOCTYPE svg PUBLIC "-//W3C//DTD SVG 1.0//EN" "http://www.w3.org/TR/2001/REC-SVG-20010904/DTD/svg10.dtd">
<!-- generated by Grace-5.1.25 -->
<svg xml:space="preserve" width="10.4167in" height="9.3750in" viewBox="0.0000 0.0000 750.0000 675.0000">
 <g transform="translate(0,675.0000) scale(1,-1)">
  <g style="fill:#FFFFFF; fill-rule:nonzero">
   <path  d="M0.0000,0.0000L0.0000,675.0000L750.0000,675.0000L750.0000,0.0000z"/>
  </g>
  <g style="fill:none; stroke:#FF0000; stroke-width:  1.5188; stroke-linecap:butt; stroke-linejoin:miter; stroke-dasharray:none">
   <path d="M101.6772,54.0000L101.6772,372.8444L113.8272,372.8444L113.8272,54.0000z"/>
   <path d="M122.3576,54.0000L122.3576,555.7819L134.5076,555.7819L134.5076,54.0000z"/>
   <path d="M143.0380,54.0000L143.0380,516.0356L155.1880,516.0356L155.1880,54.0000z"/>
   <path d="M163.7184,54.0000L163.7184,460.0997L175.8684,460.0997L175.8684,54.0000z"/>
   <path d="M184.3988,54.0000L184.3988,379.2537L196.5488,379.2537L196.5488,54.0000z"/>
   <path d="M205.0792,54.0000L205.0792,306.6880L217.2292,306.6880L217.2292,54.0000z"/>
   <path d="M225.7596,54.0000L225.7596,279.5529L237.9096,279.5529L237.9096,54.0000z"/>
   <path d="M246.4400,54.0000L246.4400,265.9945L258.5900,265.9945L258.5900,54.0000z"/>
   <path d="M267.1204,54.0000L267.1204,247.6099L279.2704,247.6099L279.2704,54.0000z"/>
   <path d="M287.8008,54.0000L287.8008,233.6698L299.9508,233.6698L299.9508,54.0000z"/>
   <path d="M308.4812,54.0000L308.4812,237.9408L320.6312,237.9408L320.6312,54.0000z"/>
   <path d="M329.1616,54.0000L329.1616,228.3627L341.3116,228.3627L341.3116,54.0000z"/>
   <path d="M349.8420,54.0000L349.8420,201.4903L361.9920,201.4903L361.9920,54.0000z"/>
   <path d="M370.5224,54.0000L370.5224,152.3965L382.6724,152.3965L382.6724,54.0000z"/>
   <path d="M391.2028,54.0000L391.2028,111.9636L403.3528,111.9636L403.3528,54.0000z"/>
   <path d="M411.8832,54.0000L411.8832,114.4572L424.0332,114.4572L424.0332,54.0000z"/>
   <path d="M432.5636,54.0000L432.5636,109.9643L444.7136,109.9643L444.7136,54.0000z"/>
   <path d="M453.2440,54.0000L453.2440,54.0000L465.3940,54.0000L465.3940,54.0000z"/>
   <path d="M473.9244,54.0000L473.9244,61.0933L486.0744,61.0933L486.0744,54.0000z"/>
   <path d="M494.6048,54.0000L494.6048,140.6020L506.7548,140.6020L506.7548,54.0000z"/>
   <path d="M515.2852,54.0000L515.2852,153.9248L527.4352,153.9248L527.4352,54.0000z"/>
   <path d="M535.9656,54.0000L535.9656,149.3958L548.1156,149.3958L548.1156,54.0000z"/>
   <path d="M556.6460,54.0000L556.6460,123.2155L568.7960,123.2155L568.7960,54.0000z"/>
   <path d="M577.3264,54.0000L577.3264,144.0240L589.4764,144.0240L589.4764,54.0000z"/>
   <path d="M598.0068,54.0000L598.0068,140.5873L610.1568,140.5873L610.1568,54.0000z"/>
   <path d="M618.6872,54.0000L618.6872,96.0124L630.8372,96.0124L630.8372,54.0000z"/>
   <path d="M639.3676,54.0000L639.3676,94.7087L651.5176,94.7087L651.5176,54.0000z"/>
   <path d="M660.0480,54.0000L660.0480,119.5509L672.1980,119.5509L672.1980,54.0000z"/>
   <path d="M680.7284,54.0000L680.7284,133.6880L692.8784,133.6880L692.8784,54.0000z"/>
   <path d="M701.4088,54.0000L701.4088,120.2220L713.5588,120.2220L713.5588,54.0000z"/>
   <path d="M722.0891,54.0000L722.0891,130.1533L734.2391,130.1533L734.2391,54.0000z"/>
  </g>
  <g style="fill:none; stroke:#7221BC; stroke-width:  1.5188; stroke-linecap:butt; stroke-linejoin:miter; stroke-dasharray:none">
   <path d="M91.0356,54.0000L92.5833,129.7575L92.9481,140.7273L93.3128,151.4423L93.6775,161.9088L94.0423,172.1330L94.4070,182.1210L94.7717,191.8785L95.1365,201.4113L95.5012,210.7248
            L95.8659,219.8242L96.2307,228.7149L96.5954,237.4018L96.9601,245.8897L97.3249,254.1834L97.6896,262.2874L98.0543,270.2064L98.4191,277.9445L98.7838,285.5060L99.1485,292.8949
            L99.5133,300.1154L99.8780,307.1712L100.2427,314.0662L100.6075,320.8039L100.9722,327.3880L101.3369,333.8220L101.7017,340.1091L102.0664,346.2529L102.4311,352.2563L102.7959,358.1226
            L103.1606,363.8548L103.5253,369.4559L103.8901,374.9287L104.2548,380.2761L104.6195,385.5008L104.9843,390.6055L105.3490,395.5928L105.7137,400.4652L106.0785,405.2252L106.4432,409.8753
            L106.8079,414.4177L107.1727,418.8547L107.5374,423.1887L107.9021,427.4218L108.2669,431.5561L108.6316,435.5936L108.9963,439.5365L109.3611,443.3866L109.7258,447.1460L110.0906,450.8164
            L110.4553,454.3998L110.8200,457.8979L111.1848,461.3124L111.5495,464.6451L111.9142,467.8976L112.2790,471.0715L112.6437,474.1685L113.0084,477.1900L113.3732,480.1376L113.7379,483.0128
            L114.1026,485.8169L114.4674,488.5514L114.8321,491.2176L115.1968,493.8169L115.5616,496.3506L115.9263,498.8199L116.2910,501.2261L116.6558,503.5704L117.0205,505.8541L117.3852,508.0781
            L117.7500,510.2437L118.1147,512.3520L118.4794,514.4040L118.8442,516.4008L119.2089,518.3434L119.5736,520.2328L119.9384,522.0700L120.3031,523.8560L120.6678,525.5916L121.0326,527.2778
            L121.3973,528.9154L121.7620,530.5054L122.1268,532.0486L122.4915,533.5458L122.8562,534.9978L123.2210,536.4054L123.5857,537.7694L123.9504,539.0905L124.3152,540.3695L124.6799,541.6071
            L125.0446,542.8039L125.4094,543.9607L125.7741,545.0782L126.1388,546.1569L126.5036,547.1976L126.8683,548.2008L127.2330,549.1672L127.5978,550.0973L127.9625,550.9919L128.3272,551.8513
            L128.6920,552.6762L129.0567,553.4670L129.4214,554.2245L129.7862,554.9490L130.1509,555.6412L130.5156,556.3013L130.8804,556.9301L131.2451,557.5279L131.6098,558.0952L131.9746,558.6325
            L132.3393,559.1402L132.7040,559.6187L133.0688,560.0685L133.4335,560.4900L133.7982,560.8836L134.1630,561.2497L134.5277,561.5887L134.8924,561.9010L135.2572,562.1869L135.6219,562.4468
            L135.9866,562.6811L136.3514,562.8901L136.7161,563.0743L137.0808,563.2338L137.4456,563.3691L137.8103,563.4805L138.1750,563.5683L138.5398,563.6328L138.9045,563.6742L139.2692,563.6931
            L139.6340,563.6895L139.9987,563.6638L140.3634,563.6163L140.7282,563.5473L141.0929,563.4571L141.4576,563.3458L141.8224,563.2139L142.1871,563.0614L142.5518,562.8888L142.9166,562.6962
            L143.2813,562.4839L143.6460,562.2521L144.0108,562.0011L144.3755,561.7311L144.7402,561.4424L145.1050,561.1351L145.4697,560.8095L145.8344,560.4658L146.1992,560.1043L146.5639,559.7250
            L146.9286,559.3284L147.2934,558.9145L147.6581,558.4836L148.0228,558.0358L148.3876,557.5714L148.7523,557.0905L149.1170,556.5935L149.4818,556.0803L149.8465,555.5513L150.2112,555.0066
            L150.5760,554.4464L150.9407,553.8710L151.3055,553.2803L151.6702,552.6748L152.0349,552.0544L152.3997,551.4194L152.7644,550.7701L153.1291,550.1064L153.4939,549.4286L153.8586,548.7369
            L154.2233,548.0315L154.5881,547.3124L154.9528,546.5799L155.3175,545.8341L155.6823,545.0752L156.0470,544.3033L156.4117,543.5187L156.7765,542.7213L157.1412,541.9114L157.5059,541.0893
            L157.8707,540.2548L158.2354,539.4084L158.6001,538.5500L158.9649,537.6799L159.3296,536.7982L159.6943,535.9050L160.0591,535.0005L160.4238,534.0847L160.7885,533.1580L161.1533,532.2203
            L161.5180,531.2720L161.8827,530.3130L162.2475,529.3435L162.6122,528.3636L162.9769,527.3736L163.3417,526.3735L163.7064,525.3634L164.0711,524.3436L164.4359,523.3141L164.8006,522.2750
            L165.1653,521.2266L165.5301,520.1688L165.8948,519.1020L166.2595,518.0261L166.6243,516.9414L166.9890,515.8479L167.3537,514.7458L167.7185,513.6352L168.0832,512.5163L168.4479,511.3891
            L168.8127,510.2538L169.1774,509.1105L169.5421,507.9593L169.9069,506.8004L170.2716,505.6339L170.6363,504.4600L171.0011,503.2786L171.3658,502.0900L171.7305,500.8943L172.0953,499.6916
            L172.4600,498.4821L172.8247,497.2657L173.1895,496.0428L173.5542,494.8133L173.9189,493.5774L174.2837,492.3353L174.6484,491.0870L175.0131,489.8326L175.3779,488.5724L175.7426,487.3063
            L176.1073,486.0345L176.4721,484.7572L176.8368,483.4744L177.2015,482.1863L177.5663,480.8929L177.9310,479.5945L178.2957,478.2910L178.6605,476.9827L179.0252,475.6696L179.3899,474.3518
            L179.7547,473.0294L180.1194,471.7027L180.4841,470.3716L180.8489,469.0363L181.2136,467.6969L181.5783,466.3535L181.9431,465.0062L182.3078,463.6551L182.6725,462.3004L183.0373,460.9421
            L183.4020,459.5804L183.7667,458.2153L184.1315,456.8470L184.4962,455.4755L184.8609,454.1010L185.2257,452.7236L185.5904,451.3433L185.9551,449.9604L186.3199,448.5748L186.6846,447.1867
            L187.0494,445.7962L187.4141,444.4034L187.7788,443.0084L188.1436,441.6113L188.5083,440.2121L188.8730,438.8111L189.2378,437.4082L189.6025,436.0037L189.9672,434.5975L190.3320,433.1898
            L190.6967,431.7807L191.0614,430.3702L191.4262,428.9585L191.7909,427.5457L192.1556,426.1319L192.5204,424.7170L192.8851,423.3014L193.2498,421.8849L193.6146,420.4678L193.9793,419.0501
            L194.3440,417.6319L194.7088,416.2133L195.0735,414.7945L195.4382,413.3753L195.8030,411.9561L196.1677,410.5367L196.5324,409.1174L196.8972,407.6983L197.2619,406.2793L197.6266,404.8606
            L197.9914,403.4423L198.3561,402.0244L198.7208,400.6071L199.0856,399.1904L199.4503,397.7744L199.8150,396.3592L200.1798,394.9449L200.5445,393.5314L200.9092,392.1190L201.2740,390.7077
            L201.6387,389.2975L202.0034,387.8887L202.3682,386.4811L202.7329,385.0749L203.0976,383.6702L203.4624,382.2670L203.8271,380.8654L204.1918,379.4655L204.5566,378.0674L204.9213,376.6711
            L205.2860,375.2767L205.6508,373.8842L206.0155,372.4938L206.3802,371.1055L206.7450,369.7194L207.1097,368.3354L207.4744,366.9538L207.8392,365.5746L208.2039,364.1978L208.5686,362.8234
            L208.9334,361.4516L209.2981,360.0824L209.6628,358.7159L210.0276,357.3521L210.3923,355.9911L210.7570,354.6329L211.1218,353.2777L211.4865,351.9254L211.8512,350.5761L212.2160,349.2299
            L212.5807,347.8868L212.9454,346.5470L213.3102,345.2103L213.6749,343.8769L214.0396,342.5469L214.4044,341.2203L214.7691,339.8971L215.1338,338.5773L215.4986,337.2612L215.8633,335.9486
            L216.2280,334.6396L216.5928,333.3343L216.9575,332.0328L217.3222,330.7350L217.6870,329.4410L218.0517,328.1509L218.4164,326.8647L218.7812,325.5824L219.1459,324.3041L219.5106,323.0298
            L219.8754,321.7596L220.2401,320.4935L220.6048,319.2315L220.9696,317.9737L221.3343,316.7201L221.6991,315.4708L222.0638,314.2258L222.4285,312.9851L222.7933,311.7487L223.1580,310.5167
            L223.5227,309.2892L223.8875,308.0661L224.2522,306.8475L224.6169,305.6334L224.9817,304.4239L225.3464,303.2189L225.7111,302.0185L226.0759,300.8228L226.4406,299.6317L226.8053,298.4454
            L227.1701,297.2637L227.5348,296.0868L227.8995,294.9146L228.2643,293.7472L228.6290,292.5847L228.9937,291.4269L229.3585,290.2741L229.7232,289.1261L230.0879,287.9830L230.4527,286.8448
            L230.8174,285.7115L231.1821,284.5833L231.5469,283.4600L231.9116,282.3416L232.2763,281.2283L232.6411,280.1201L233.0058,279.0168L233.3705,277.9187L233.7353,276.8256L234.1000,275.7375
            L234.4647,274.6546L234.8295,273.5768L235.1942,272.5042L235.5589,271.4367L235.9237,270.3743L236.2884,269.3171L236.6531,268.2650L237.0179,267.2182L237.3826,266.1765L237.7473,265.1401
            L238.1121,264.1088L238.4768,263.0828L238.8415,262.0620L239.2063,261.0464L239.5710,260.0360L239.9357,259.0309L240.3005,258.0311L240.6652,257.0365L241.0299,256.0471L241.3947,255.0630
            L241.7594,254.0842L242.1241,253.1107L242.4889,252.1424L242.8536,251.1794L243.2183,250.2216L243.5831,249.2691L243.9478,248.3219L244.3125,247.3800L244.6773,246.4433L245.0420,245.5120
            L245.4067,244.5859L245.7715,243.6650L246.1362,242.7494L246.5009,241.8391L246.8657,240.9341L247.2304,240.0343L247.5951,239.1397L247.9599,238.2504L248.3246,237.3664L248.6893,236.4876
            L249.0541,235.6140L249.4188,234.7457L249.7835,233.8826L250.1483,233.0247L250.5130,232.1720L250.8777,231.3245L251.2425,230.4822L251.6072,229.6451L251.9719,228.8132L252.3367,227.9865
            L252.7014,227.1649L253.0661,226.3484L253.4309,225.5372L253.7956,224.7310L254.1603,223.9300L254.5251,223.1341L254.8898,222.3433L255.2545,221.5576L255.6193,220.7769L255.9840,220.0014
            L256.3488,219.2309L256.7135,218.4654L257.0782,217.7050L257.4430,216.9496L257.8077,216.1992L258.1724,215.4538L258.5372,214.7134L258.9019,213.9779L259.2666,213.2474L259.6314,212.5219
            L259.9961,211.8013L260.3608,211.0855L260.7256,210.3747L261.0903,209.6688L261.4550,208.9677L261.8198,208.2715L262.1845,207.5801L262.5492,206.8936L262.9140,206.2118L263.2787,205.5348
            L263.6434,204.8626L264.0082,204.1952L264.3729,203.5325L264.7376,202.8745L265.1024,202.2212L265.4671,201.5726L265.8318,200.9287L266.1966,200.2894L266.5613,199.6548L266.9260,199.0248
            L267.2908,198.3994L267.6555,197.7785L268.0202,197.1622L268.3850,196.5505L268.7497,195.9433L269.1144,195.3405L269.4792,194.7423L269.8439,194.1485L270.2086,193.5592L270.5734,192.9744
            L270.9381,192.3939L271.3028,191.8178L271.6676,191.2461L272.0323,190.6787L272.3970,190.1157L272.7618,189.5570L273.1265,189.0025L273.4912,188.4524L273.8559,187.9064L274.2207,187.3648
            L274.5854,186.8273L274.9501,186.2940L275.3149,185.7649L275.6796,185.2399L276.0443,184.7191L276.4091,184.2024L276.7738,183.6897L277.1385,183.1812L277.5033,182.6766L277.8680,182.1761
            L278.2327,181.6796L278.5975,181.1871L278.9622,180.6985L279.3269,180.2139L279.6917,179.7332L280.0564,179.2564L280.4211,178.7835L280.7859,178.3144L281.1506,177.8492L281.5153,177.3878
            L281.8801,176.9301L282.2448,176.4763L282.6095,176.0261L282.9743,175.5798L283.3390,175.1371L283.7037,174.6981L284.0685,174.2627L284.4332,173.8311L284.7979,173.4030L285.1627,172.9785
            L285.5274,172.5576L285.8921,172.1403L286.2569,171.7265L286.6216,171.3162L286.9863,170.9094L287.3511,170.5061L287.7158,170.1062L288.0805,169.7097L288.4453,169.3167L288.8100,168.9271
            L289.1747,168.5408L289.5395,168.1578L289.9042,167.7782L290.2689,167.4019L290.6337,167.0288L290.9984,166.6590L291.3632,166.2925L291.7279,165.9292L292.0926,165.5690L292.4574,165.2121
            L292.8221,164.8583L293.1868,164.5076L293.5516,164.1600L293.9163,163.8155L294.2810,163.4741L294.6458,163.1358L295.0105,162.8005L295.3752,162.4681L295.7400,162.1388L296.1047,161.8124
            L296.4694,161.4890L296.8342,161.1685L297.1989,160.8509L297.5636,160.5362L297.9284,160.2244L298.2931,159.9154L298.6578,159.6092L299.0226,159.3059L299.3873,159.0053L299.7520,158.7075
            L300.1168,158.4124L300.4815,158.1201L300.8462,157.8304L301.2110,157.5435L301.5757,157.2592L301.9404,156.9775L302.3052,156.6985L302.6699,156.4221L303.0346,156.1483L303.3994,155.8770
            L303.7641,155.6083L304.1288,155.3422L304.4936,155.0785L304.8583,154.8173L305.2230,154.5586L305.5878,154.3024L305.9525,154.0486L306.3172,153.7972L306.6820,153.5482L307.0467,153.3016
            L307.4114,153.0573L307.7762,152.8154L308.1409,152.5758L308.5056,152.3385L308.8704,152.1036L309.2351,151.8708L309.5998,151.6404L309.9646,151.4121L310.3293,151.1861L310.6940,150.9623
            L311.0588,150.7407L311.4235,150.5212L311.7882,150.3039L312.1530,150.0887L312.5177,149.8756L312.8824,149.6646L313.2472,149.4557L313.6119,149.2489L313.9766,149.0441L314.3414,148.8413
            L314.7061,148.6405L315.0708,148.4417L315.4356,148.2449L315.8003,148.0501L316.1650,147.8572L316.5298,147.6663L316.8945,147.4772L317.2592,147.2901L317.6240,147.1048L317.9887,146.9214
            L318.3534,146.7398L318.7182,146.5601L319.0829,146.3822L319.4476,146.2061L319.8124,146.0318L320.1771,145.8592L320.5418,145.6884L320.9066,145.5194L321.2713,145.3520L321.6360,145.1864
            L322.0008,145.0225L322.3655,144.8603L322.7302,144.6997L323.0950,144.5408L323.4597,144.3835L323.8244,144.2278L324.1892,144.0737L324.5539,143.9213L324.9187,143.7704L325.2834,143.6211
            L325.6481,143.4733L326.0129,143.3271L326.3776,143.1824L326.7423,143.0392L327.1071,142.8975L327.4718,142.7573L327.8365,142.6185L328.2013,142.4812L328.5660,142.3454L328.9307,142.2110
            L329.2955,142.0780L329.6602,141.9464L330.0249,141.8162L330.3897,141.6874L330.7544,141.5599L331.1191,141.4338L331.4839,141.3090L331.8486,141.1856L332.2133,141.0635L332.5781,140.9427
            L332.9428,140.8231L333.3075,140.7049L333.6723,140.5879L334.0370,140.4722L334.4017,140.3577L334.7665,140.2445L335.1312,140.1324L335.4959,140.0216L335.8607,139.9120L336.2254,139.8036
            L336.5901,139.6963L336.9549,139.5902L337.3196,139.4853L337.6843,139.3815L338.0491,139.2788L338.4138,139.1772L338.7785,139.0768L339.1433,138.9774L339.5080,138.8792L339.8727,138.7820
            L340.2375,138.6859L340.6022,138.5908L340.9669,138.4968L341.3317,138.4038L341.6964,138.3119L342.0611,138.2209L342.4259,138.1310L342.7906,138.0421L343.1553,137.9541L343.5201,137.8671
            L343.8848,137.7811L344.2495,137.6961L344.6143,137.6119L344.9790,137.5288L345.3437,137.4465L345.7085,137.3652L346.0732,137.2848L346.4379,137.2053L346.8027,137.1267L347.1674,137.0489
            L347.5321,136.9721L347.8969,136.8961L348.2616,136.8209L348.6263,136.7466L348.9911,136.6732L349.3558,136.6005L349.7205,136.5287L350.0853,136.4577L350.4500,136.3876L350.8147,136.3182
            L351.1795,136.2496L351.5442,136.1818L351.9089,136.1147L352.2737,136.0484L352.6384,135.9829L353.0031,135.9181L353.3679,135.8541L353.7326,135.7908L354.0973,135.7282L354.4621,135.6664
            L354.8268,135.6052L355.1915,135.5448L355.5563,135.4850L355.9210,135.4260L356.2857,135.3676L356.6505,135.3099L357.0152,135.2529L357.3799,135.1965L357.7447,135.1408L358.1094,135.0857
            L358.4741,135.0313L358.8389,134.9775L359.2036,134.9243L359.5684,134.8718L359.9331,134.8198L360.2978,134.7685L360.6626,134.7178L361.0273,134.6677L361.3920,134.6181L361.7568,134.5691
            L362.1215,134.5207L362.4862,134.4729L362.8510,134.4257L363.2157,134.3790L363.5804,134.3328L363.9452,134.2872L364.3099,134.2421L364.6746,134.1976L365.0394,134.1536L365.4041,134.1101
            L365.7688,134.0671L366.1336,134.0246L366.4983,133.9827L366.8630,133.9412L367.2278,133.9002L367.5925,133.8598L367.9572,133.8198L368.3220,133.7803L368.6867,133.7412L369.0514,133.7026
            L369.4162,133.6645L369.7809,133.6269L370.1456,133.5896L370.5104,133.5529L370.8751,133.5166L371.2398,133.4807L371.6046,133.4452L371.9693,133.4102L372.3340,133.3756L372.6988,133.3414
            L373.0635,133.3076L373.4282,133.2743L373.7930,133.2413L374.1577,133.2088L374.5224,133.1766L374.8872,133.1448L375.2519,133.1134L375.6166,133.0824L375.9814,133.0518L376.3461,133.0216
            L376.7108,132.9917L377.0756,132.9621L377.4403,132.9330L377.8050,132.9042L378.1698,132.8757L378.5345,132.8476L378.8992,132.8199L379.2640,132.7925L379.6287,132.7654L379.9934,132.7386
            L380.3582,132.7122L380.7229,132.6861L381.0876,132.6603L381.4524,132.6349L381.8171,132.6097L382.1818,132.5849L382.5466,132.5604L382.9113,132.5362L383.2760,132.5123L383.6408,132.4886
            L384.0055,132.4653L384.3702,132.4423L384.7350,132.4195L385.0997,132.3970L385.4644,132.3749L385.8292,132.3529L386.1939,132.3313L386.5586,132.3099L386.9234,132.2888L387.2881,132.2680
            L387.6528,132.2474L388.0176,132.2271L388.3823,132.2070L388.7470,132.1872L389.1118,132.1676L389.4765,132.1483L389.8412,132.1292L390.2060,132.1104L390.5707,132.0918L390.9354,132.0734
            L391.3002,132.0553L391.6649,132.0374L392.0296,132.0197L392.3944,132.0023L392.7591,131.9850L393.1238,131.9680L393.4886,131.9512L393.8533,131.9346L394.2181,131.9183L394.5828,131.9021
            L394.9475,131.8861L395.3123,131.8704L395.6770,131.8548L396.0417,131.8394L396.4065,131.8243L396.7712,131.8093L397.1359,131.7945L397.5007,131.7799L397.8654,131.7655L398.2301,131.7513
            L398.5949,131.7373L398.9596,131.7234L399.3243,131.7097L399.6891,131.6962L400.0538,131.6829L400.4185,131.6697L400.7833,131.6567L401.1480,131.6439L401.5127,131.6312L401.8775,131.6187
            L402.2422,131.6064L402.6069,131.5942L402.9717,131.5822L403.3364,131.5704L403.7011,131.5586L404.0659,131.5471L404.4306,131.5357L404.7953,131.5244L405.1601,131.5133L405.5248,131.5023
            L405.8895,131.4915L406.2543,131.4808L406.6190,131.4703L406.9837,131.4599L407.3485,131.4496L407.7132,131.4395L408.0779,131.4294L408.4427,131.4196L408.8074,131.4098L409.1721,131.4002
            L409.5369,131.3907L409.9016,131.3813L410.2663,131.3721L410.6311,131.3630L410.9958,131.3540L411.3605,131.3451L411.7253,131.3363L412.0900,131.3276L412.4547,131.3191L412.8195,131.3107
            L413.1842,131.3023L413.5489,131.2941L413.9137,131.2860L414.2784,131.2780L414.6431,131.2702L415.0079,131.2624L415.3726,131.2547L415.7373,131.2471L416.1021,131.2396L416.4668,131.2323
            L416.8315,131.2250L417.1963,131.2178L417.5610,131.2107L417.9257,131.2037L418.2905,131.1968L418.6552,131.1900L419.0199,131.1833L419.3847,131.1766L419.7494,131.1701L420.1141,131.1636
            L420.4789,131.1573L420.8436,131.1510L421.2083,131.1448L421.5731,131.1387L421.9378,131.1326L422.3025,131.1267L422.6673,131.1208L423.0320,131.1150L423.3967,131.1093L423.7615,131.1036
            L424.1262,131.0981L424.4909,131.0926L424.8557,131.0872L425.2204,131.0818L425.5851,131.0766L425.9499,131.0714L426.3146,131.0662L426.6793,131.0612L427.0441,131.0562L427.4088,131.0512
            L427.7735,131.0464L428.1383,131.0416L428.5030,131.0369L428.8678,131.0322L429.2325,131.0276L429.5972,131.0231L429.9620,131.0186L430.3267,131.0142L430.6914,131.0098L431.0562,131.0055
            L431.4209,131.0013L431.7856,130.9971L432.1504,130.9930L432.5151,130.9889L432.8798,130.9849L433.2446,130.9809L433.6093,130.9770L433.9740,130.9732L434.3388,130.9694L434.7035,130.9656
            L435.0682,130.9619L435.4330,130.9583L435.7977,130.9547L436.1624,130.9511L436.5272,130.9476L436.8919,130.9442L437.2566,130.9408L437.6214,130.9374L437.9861,130.9341L438.3508,130.9309
            L438.7156,130.9276L439.0803,130.9245L439.4450,130.9213L439.8098,130.9183L440.1745,130.9152L440.5392,130.9122L440.9040,130.9092L441.2687,130.9063L441.6334,130.9034L441.9982,130.9006
            L442.3629,130.8978L442.7276,130.8950L443.0924,130.8923L443.4571,130.8896L443.8218,130.8870L444.1866,130.8844L444.5513,130.8818L444.9160,130.8793L445.2808,130.8767L445.6455,130.8743
            L446.0102,130.8718L446.3750,130.8694L446.7397,130.8671L447.1044,130.8647L447.4692,130.8624L447.8339,130.8602L448.1986,130.8579L448.5634,130.8557L448.9281,130.8535L449.2928,130.8514
            L449.6576,130.8493L450.0223,130.8472L450.3870,130.8451L450.7518,130.8431L451.1165,130.8411L451.4812,130.8391L451.8460,130.8372L452.2107,130.8353L452.5754,130.8334L452.9402,130.8315
            L453.3049,130.8297L453.6696,130.8278L454.0344,130.8261L454.3991,130.8243L454.7638,130.8226L455.1286,130.8209L455.4933,130.8192L455.8580,130.8175L456.2228,130.8159L456.5875,130.8142
            L534.5558,126.4251L588.1335,127.7445L663.8617,125.9036L730.9854,124.0626L736.0902,123.9380"/>
  </g>
  <g style="fill:none; stroke:#000000; stroke-width:  1.0125; stroke-linecap:butt; stroke-linejoin:miter; stroke-dasharray:none">
   <path d="M74.2500,54.0000L736.0227,54.0000"/>
   <path d="M74.2500,594.0000L736.0227,594.0000"/>
   <path d="M74.2500,54.0000L74.2500,60.7500"/>
   <path d="M74.2500,594.0000L74.2500,587.2500"/>
   <path d="M94.9304,54.0000L94.9304,60.7500"/>
   <path d="M94.9304,594.0000L94.9304,587.2500"/>
   <path d="M136.2912,54.0000L136.2912,60.7500"/>
   <path d="M136.2912,594.0000L136.2912,587.2500"/>
   <path d="M156.9716,54.0000L156.9716,60.7500"/>
   <path d="M156.9716,594.0000L156.9716,587.2500"/>
   <path d="M177.6520,54.0000L177.6520,60.7500"/>
   <path d="M177.6520,594.0000L177.6520,587.2500"/>
   <path d="M219.0128,54.0000L219.0128,60.7500"/>
   <path d="M219.0128,594.0000L219.0128,587.2500"/>
   <path d="M239.6932,54.0000L239.6932,60.7500"/>
   <path d="M239.6932,594.0000L239.6932,587.2500"/>
   <path d="M260.3736,54.0000L260.3736,60.7500"/>
   <path d="M260.3736,594.0000L260.3736,587.2500"/>
   <path d="M301.7344,54.0000L301.7344,60.7500"/>
   <path d="M301.7344,594.0000L301.7344,587.2500"/>
   <path d="M322.4148,54.0000L322.4148,60.7500"/>
   <path d="M322.4148,594.0000L322.4148,587.2500"/>
   <path d="M343.0952,54.0000L343.0952,60.7500"/>
   <path d="M343.0952,594.0000L343.0952,587.2500"/>
   <path d="M384.4560,54.0000L384.4560,60.7500"/>
   <path d="M384.4560,594.0000L384.4560,587.2500"/>
   <path d="M405.1363,54.0000L405.1363,60.7500"/>
   <path d="M405.1363,594.0000L405.1363,587.2500"/>
   <path d="M425.8167,54.0000L425.8167,60.7500"/>
   <path d="M425.8167,594.0000L425.8167,587.2500"/>
   <path d="M467.1775,54.0000L467.1775,60.7500"/>
   <path d="M467.1775,594.0000L467.1775,587.2500"/>
   <path d="M487.8579,54.0000L487.8579,60.7500"/>
   <path d="M487.8579,594.0000L487.8579,587.2500"/>
   <path d="M508.5383,54.0000L508.5383,60.7500"/>
   <path d="M508.5383,594.0000L508.5383,587.2500"/>
   <path d="M549.8991,54.0000L549.8991,60.7500"/>
   <path d="M549.8991,594.0000L549.8991,587.2500"/>
   <path d="M570.5795,54.0000L570.5795,60.7500"/>
   <path d="M570.5795,594.0000L570.5795,587.2500"/>
   <path d="M591.2599,54.0000L591.2599,60.7500"/>
   <path d="M591.2599,594.0000L591.2599,587.2500"/>
   <path d="M632.6207,54.0000L632.6207,60.7500"/>
   <path d="M632.6207,594.0000L632.6207,587.2500"/>
   <path d="M653.3011,54.0000L653.3011,60.7500"/>
   <path d="M653.3011,594.0000L653.3011,587.2500"/>
   <path d="M673.9815,54.0000L673.9815,60.7500"/>
   <path d="M673.9815,594.0000L673.9815,587.2500"/>
   <path d="M715.3423,54.0000L715.3423,60.7500"/>
   <path d="M715.3423,594.0000L715.3423,587.2500"/>
   <path d="M736.0227,54.0000L736.0227,60.7500"/>
   <path d="M736.0227,594.0000L736.0227,587.2500"/>
   <path d="M115.6108,54.0000L115.6108,67.5000"/>
   <path d="M115.6108,594.0000L115.6108,580.5000"/>
   <path d="M198.3324,54.0000L198.3324,67.5000"/>
   <path d="M198.3324,594.0000L198.3324,580.5000"/>
   <path d="M281.0540,54.0000L281.0540,67.5000"/>
   <path d="M281.0540,594.0000L281.0540,580.5000"/>
   <path d="M363.7756,54.0000L363.7756,67.5000"/>
   <path d="M363.7756,594.0000L363.7756,580.5000"/>
   <path d="M446.4971,54.0000L446.4971,67.5000"/>
   <path d="M446.4971,594.0000L446.4971,580.5000"/>
   <path d="M529.2187,54.0000L529.2187,67.5000"/>
   <path d="M529.2187,594.0000L529.2187,580.5000"/>
   <path d="M611.9403,54.0000L611.9403,67.5000"/>
   <path d="M611.9403,594.0000L611.9403,580.5000"/>
   <path d="M694.6619,54.0000L694.6619,67.5000"/>
   <path d="M694.6619,594.0000L694.6619,580.5000"/>
  </g>
  <g style="fill:#000000; fill-rule:nonzero">
   <text   style="font-family:'Times','Nimbus Roman'; font-style:normal; font-weight:normal; font-size:675.0000" transform="matrix(0.0280,0.0000,-0.0000,-0.0280,111.6108,34.2500)">8</text>
   <text   style="font-family:'Times','Nimbus Roman'; font-style:normal; font-weight:normal; font-size:675.0000" transform="matrix(0.0280,0.0000,-0.0000,-0.0280,189.3324,34.2500)">10</text>
   <text   style="font-family:'Times','Nimbus Roman'; font-style:normal; font-weight:normal; font-size:675.0000" transform="matrix(0.0280,0.0000,-0.0000,-0.0280,272.0540,34.2500)">12</text>
   <text   style="font-family:'Times','Nimbus Roman'; font-style:normal; font-weight:normal; font-size:675.0000" transform="matrix(0.0280,0.0000,-0.0000,-0.0280,354.7756,34.2500)">14</text>
   <text   style="font-family:'Times','Nimbus Roman'; font-style:normal; font-weight:normal; font-size:675.0000" transform="matrix(0.0280,0.0000,-0.0000,-0.0280,437.4971,34.2500)">16</text>
   <text   style="font-family:'Times','Nimbus Roman'; font-style:normal; font-weight:normal; font-size:675.0000" transform="matrix(0.0280,0.0000,-0.0000,-0.0280,520.7187,34.2500)">18</text>
   <text   style="font-family:'Times','Nimbus Roman'; font-style:normal; font-weight:normal; font-size:675.0000" transform="matrix(0.0280,0.0000,-0.0000,-0.0280,602.9403,34.2500)">20</text>
   <text   style="font-family:'Times','Nimbus Roman'; font-style:normal; font-weight:normal; font-size:675.0000" transform="matrix(0.0280,0.0000,-0.0000,-0.0280,685.6619,34.2500)">22</text>
   <text   style="font-family:'Times','Nimbus Roman'; font-style:normal; font-weight:normal; font-size:675.0000" transform="matrix(0.0280,0.0000,-0.0000,-0.0280,368.1364,13.5000)">Time (ns)</text>
  </g>
  <g style="fill:none; stroke:#000000; stroke-width:  1.0125; stroke-linecap:butt; stroke-linejoin:miter; stroke-dasharray:none">
   <path d="M74.2500,54.0000L74.2500,594.0000"/>
   <path d="M736.0227,54.0000L736.0227,594.0000"/>
   <path d="M74.2500,121.5000L81.0000,121.5000"/>
   <path d="M736.0227,121.5000L729.2727,121.5000"/>
   <path d="M74.2500,256.5000L81.0000,256.5000"/>
   <path d="M736.0227,256.5000L729.2727,256.5000"/>
   <path d="M74.2500,391.5000L81.0000,391.5000"/>
   <path d="M736.0227,391.5000L729.2727,391.5000"/>
   <path d="M74.2500,526.5000L81.0000,526.5000"/>
   <path d="M736.0227,526.5000L729.2727,526.5000"/>
   <path d="M74.2500,54.0000L87.7500,54.0000"/>
   <path d="M736.0227,54.0000L722.5227,54.0000"/>
   <path d="M74.2500,189.0000L87.7500,189.0000"/>
   <path d="M736.0227,189.0000L722.5227,189.0000"/>
   <path d="M74.2500,324.0000L87.7500,324.0000"/>
   <path d="M736.0227,324.0000L722.5227,324.0000"/>
   <path d="M74.2500,459.0000L87.7500,459.0000"/>
   <path d="M736.0227,459.0000L722.5227,459.0000"/>
   <path d="M74.2500,594.0000L87.7500,594.0000"/>
   <path d="M736.0227,594.0000L722.5227,594.0000"/>
  </g>
  <g style="fill:#000000; fill-rule:nonzero">
   <text   style="font-family:'Times','Nimbus Roman'; font-style:normal; font-weight:normal; font-size:675.0000" transform="matrix(0.0280,0.0000,-0.0000,-0.0280,58.5000,47.5000)">0</text>
   <text   style="font-family:'Times','Nimbus Roman'; font-style:normal; font-weight:normal; font-size:675.0000" transform="matrix(0.0280,0.0000,-0.0000,-0.0280,34.5000,182.5000)">0.02</text>
   <text   style="font-family:'Times','Nimbus Roman'; font-style:normal; font-weight:normal; font-size:675.0000" transform="matrix(0.0280,0.0000,-0.0000,-0.0280,34.5000,317.5000)">0.04</text>
   <text   style="font-family:'Times','Nimbus Roman'; font-style:normal; font-weight:normal; font-size:675.0000" transform="matrix(0.0280,0.0000,-0.0000,-0.0280,34.5000,452.5000)">0.06</text>
   <text   style="font-family:'Times','Nimbus Roman'; font-style:normal; font-weight:normal; font-size:675.0000" transform="matrix(0.0280,0.0000,-0.0000,-0.0280,35.5000,587.5000)">0.08</text>
   <text   style="font-family:'Times','Nimbus Roman'; font-style:normal; font-weight:normal; font-size:675.0000" transform="matrix(0.0000,0.0280,0.0280,-0.0000,20.1900,298.0000)">P</text>
   <text   style="font-family:'Times','Nimbus Roman'; font-style:normal; font-weight:normal; font-size:675.0000" transform="matrix(0.0000,0.0198,0.0198,-0.0000,27.7500,309.0000)">FPT</text>
   <text   style="font-family:'Times','Nimbus Roman'; font-style:normal; font-weight:normal; font-size:675.0000" transform="matrix(0.0000,0.0280,0.0280,-0.0000,20.1900,332.0000)">(t)</text>
  </g>
  <g style="fill:none; stroke:#000000; stroke-width:  1.0125; stroke-linecap:butt; stroke-linejoin:miter; stroke-dasharray:none">
   <path d="M74.2500,54.0000L74.2500,594.0000L736.0227,594.0000L736.0227,54.0000z"/>
  </g>
  <g style="fill:#FFFFFF; fill-rule:nonzero">
   <path  d="M595.3960,560.2500L595.3960,514.8406L716.1554,514.8406L716.1554,560.2500z"/>
  </g>
  <g style="fill:none; stroke:#000000; stroke-width:  1.0125; stroke-linecap:butt; stroke-linejoin:miter; stroke-dasharray:none">
   <path d="M595.3960,560.2500L595.3960,514.8406L716.1554,514.8406L716.1554,560.2500z"/>
  </g>
  <g style="fill:#000000; fill-rule:nonzero">
   <text   style="font-family:'Times','Nimbus Roman'; font-style:normal; font-weight:normal; font-size:675.0000" transform="matrix(0.0224,0.0000,-0.0000,-0.0224,643.4054,541.3406)">Simulation</text>
  </g>
  <g style="fill:none; stroke:#FF0000; stroke-width:  1.5188; stroke-linecap:butt; stroke-linejoin:miter; stroke-dasharray:none">
   <path d="M610.3304,541.9406L610.3304,552.7406L622.4804,552.7406L622.4804,541.9406z"/>
  </g>
  <g style="fill:#000000; fill-rule:nonzero">
   <text   style="font-family:'Times','Nimbus Roman'; font-style:normal; font-weight:normal; font-size:675.0000" transform="matrix(0.0224,0.0000,-0.0000,-0.0224,643.4054,524.5906)">Theory</text>
  </g>
  <g style="fill:none; stroke:#7221BC; stroke-width:  1.5188; stroke-linecap:butt; stroke-linejoin:miter; stroke-dasharray:none">
   <path d="M602.9054,528.0906L629.9054,528.0906"/>
  </g>
  <g style="fill:#000000; fill-rule:nonzero">
   <text   style="font-family:'Times','Nimbus Roman'; font-style:normal; font-weight:normal; font-size:675.0000" transform="matrix(0.0420,0.0000,-0.0000,-0.0420,154.6364,640.5000)">First Passage Time Distribution: I-U Barrier</text>
   <text   style="font-family:'Times','Nimbus Roman'; font-style:normal; font-weight:normal; font-size:675.0000" transform="matrix(0.0280,0.0000,-0.0000,-0.0280,145.6363,611.5000)">I &lt;-&gt; U transition of 1D16/T4 DNA Hairpin: Theory and Simulation</text>
  </g>
 </g>
</svg>
