<?xml version="1.0" encoding="utf-8" standalone="no"?>
<!DOCTYPE svg PUBLIC "-//W3C//DTD SVG 1.1//EN"
  "http://www.w3.org/Graphics/SVG/1.1/DTD/svg11.dtd">
<svg xmlns:xlink="http://www.w3.org/1999/xlink" width="913.92pt" height="483.84pt" viewBox="0 0 913.92 483.84" xmlns="http://www.w3.org/2000/svg" version="1.1">
 <metadata>
  <rdf:RDF xmlns:dc="http://purl.org/dc/elements/1.1/" xmlns:cc="http://creativecommons.org/ns#" xmlns:rdf="http://www.w3.org/1999/02/22-rdf-syntax-ns#">
   <cc:Work>
    <dc:type rdf:resource="http://purl.org/dc/dcmitype/StillImage"/>
    <dc:date>2024-09-14T18:06:57.675753</dc:date>
    <dc:format>image/svg+xml</dc:format>
    <dc:creator>
     <cc:Agent>
      <dc:title>Matplotlib v3.9.0, https://matplotlib.org/</dc:title>
     </cc:Agent>
    </dc:creator>
   </cc:Work>
  </rdf:RDF>
 </metadata>
 <defs>
  <style type="text/css">*{stroke-linejoin: round; stroke-linecap: butt}</style>
 </defs>
 <g id="figure_1">
  <g id="patch_1">
   <path d="M 0 483.84 
L 913.92 483.84 
L 913.92 0 
L 0 0 
z
" style="fill: #ffffff"/>
  </g>
  <g id="axes_1">
   <g id="patch_2">
    <path d="M 72.84 416.76 
L 424.04 416.76 
L 424.04 53.96 
L 72.84 53.96 
z
" style="fill: #ffffff"/>
   </g>
   <g id="matplotlib.axis_1">
    <g id="xtick_1">
     <g id="line2d_1">
      <defs>
       <path id="m1e6aa85148" d="M 0 0 
L 0 3.5 
" style="stroke: #000000; stroke-width: 0.8"/>
      </defs>
      <g>
       <use xlink:href="#m1e6aa85148" x="81.078342" y="416.76" style="stroke: #000000; stroke-width: 0.8"/>
      </g>
     </g>
     <g id="text_1">
      <!-- −15 -->
      <g transform="translate(70.525998 431.358437) scale(0.1 -0.1)">
       <defs>
        <path id="DejaVuSans-2212" d="M 678 2272 
L 4684 2272 
L 4684 1741 
L 678 1741 
L 678 2272 
z
" transform="scale(0.015625)"/>
        <path id="DejaVuSans-31" d="M 794 531 
L 1825 531 
L 1825 4091 
L 703 3866 
L 703 4441 
L 1819 4666 
L 2450 4666 
L 2450 531 
L 3481 531 
L 3481 0 
L 794 0 
L 794 531 
z
" transform="scale(0.015625)"/>
        <path id="DejaVuSans-35" d="M 691 4666 
L 3169 4666 
L 3169 4134 
L 1269 4134 
L 1269 2991 
Q 1406 3038 1543 3061 
Q 1681 3084 1819 3084 
Q 2600 3084 3056 2656 
Q 3513 2228 3513 1497 
Q 3513 744 3044 326 
Q 2575 -91 1722 -91 
Q 1428 -91 1123 -41 
Q 819 9 494 109 
L 494 744 
Q 775 591 1075 516 
Q 1375 441 1709 441 
Q 2250 441 2565 725 
Q 2881 1009 2881 1497 
Q 2881 1984 2565 2268 
Q 2250 2553 1709 2553 
Q 1456 2553 1204 2497 
Q 953 2441 691 2322 
L 691 4666 
z
" transform="scale(0.015625)"/>
       </defs>
       <use xlink:href="#DejaVuSans-2212"/>
       <use xlink:href="#DejaVuSans-31" x="83.789062"/>
       <use xlink:href="#DejaVuSans-35" x="147.412109"/>
      </g>
     </g>
    </g>
    <g id="xtick_2">
     <g id="line2d_2">
      <g>
       <use xlink:href="#m1e6aa85148" x="143.891841" y="416.76" style="stroke: #000000; stroke-width: 0.8"/>
      </g>
     </g>
     <g id="text_2">
      <!-- −10 -->
      <g transform="translate(133.339498 431.358437) scale(0.1 -0.1)">
       <defs>
        <path id="DejaVuSans-30" d="M 2034 4250 
Q 1547 4250 1301 3770 
Q 1056 3291 1056 2328 
Q 1056 1369 1301 889 
Q 1547 409 2034 409 
Q 2525 409 2770 889 
Q 3016 1369 3016 2328 
Q 3016 3291 2770 3770 
Q 2525 4250 2034 4250 
z
M 2034 4750 
Q 2819 4750 3233 4129 
Q 3647 3509 3647 2328 
Q 3647 1150 3233 529 
Q 2819 -91 2034 -91 
Q 1250 -91 836 529 
Q 422 1150 422 2328 
Q 422 3509 836 4129 
Q 1250 4750 2034 4750 
z
" transform="scale(0.015625)"/>
       </defs>
       <use xlink:href="#DejaVuSans-2212"/>
       <use xlink:href="#DejaVuSans-31" x="83.789062"/>
       <use xlink:href="#DejaVuSans-30" x="147.412109"/>
      </g>
     </g>
    </g>
    <g id="xtick_3">
     <g id="line2d_3">
      <g>
       <use xlink:href="#m1e6aa85148" x="206.705341" y="416.76" style="stroke: #000000; stroke-width: 0.8"/>
      </g>
     </g>
     <g id="text_3">
      <!-- −5 -->
      <g transform="translate(199.334247 431.358437) scale(0.1 -0.1)">
       <use xlink:href="#DejaVuSans-2212"/>
       <use xlink:href="#DejaVuSans-35" x="83.789062"/>
      </g>
     </g>
    </g>
    <g id="xtick_4">
     <g id="line2d_4">
      <g>
       <use xlink:href="#m1e6aa85148" x="269.51884" y="416.76" style="stroke: #000000; stroke-width: 0.8"/>
      </g>
     </g>
     <g id="text_4">
      <!-- 0 -->
      <g transform="translate(266.33759 431.358437) scale(0.1 -0.1)">
       <use xlink:href="#DejaVuSans-30"/>
      </g>
     </g>
    </g>
    <g id="xtick_5">
     <g id="line2d_5">
      <g>
       <use xlink:href="#m1e6aa85148" x="332.33234" y="416.76" style="stroke: #000000; stroke-width: 0.8"/>
      </g>
     </g>
     <g id="text_5">
      <!-- 5 -->
      <g transform="translate(329.15109 431.358437) scale(0.1 -0.1)">
       <use xlink:href="#DejaVuSans-35"/>
      </g>
     </g>
    </g>
    <g id="xtick_6">
     <g id="line2d_6">
      <g>
       <use xlink:href="#m1e6aa85148" x="395.145839" y="416.76" style="stroke: #000000; stroke-width: 0.8"/>
      </g>
     </g>
     <g id="text_6">
      <!-- 10 -->
      <g transform="translate(388.783339 431.358437) scale(0.1 -0.1)">
       <use xlink:href="#DejaVuSans-31"/>
       <use xlink:href="#DejaVuSans-30" x="63.623047"/>
      </g>
     </g>
    </g>
    <g id="text_7">
     <!-- x (Å) -->
     <g transform="translate(236.569688 445.96) scale(0.1 -0.1)">
      <defs>
       <path id="DejaVuSans-78" d="M 3513 3500 
L 2247 1797 
L 3578 0 
L 2900 0 
L 1881 1375 
L 863 0 
L 184 0 
L 1544 1831 
L 300 3500 
L 978 3500 
L 1906 2253 
L 2834 3500 
L 3513 3500 
z
" transform="scale(0.015625)"/>
       <path id="DejaVuSans-20" transform="scale(0.015625)"/>
       <path id="DejaVuSans-28" d="M 1984 4856 
Q 1566 4138 1362 3434 
Q 1159 2731 1159 2009 
Q 1159 1288 1364 580 
Q 1569 -128 1984 -844 
L 1484 -844 
Q 1016 -109 783 600 
Q 550 1309 550 2009 
Q 550 2706 781 3412 
Q 1013 4119 1484 4856 
L 1984 4856 
z
" transform="scale(0.015625)"/>
       <path id="DejaVuSans-c5" d="M 2663 5081 
Q 2663 5278 2523 5417 
Q 2384 5556 2188 5556 
Q 1988 5556 1852 5420 
Q 1716 5284 1716 5081 
Q 1716 4884 1853 4746 
Q 1991 4609 2188 4609 
Q 2384 4609 2523 4746 
Q 2663 4884 2663 5081 
z
M 2188 4044 
L 1338 1722 
L 3041 1722 
L 2188 4044 
z
M 1716 4366 
Q 1525 4494 1428 4673 
Q 1331 4853 1331 5081 
Q 1331 5441 1579 5691 
Q 1828 5941 2188 5941 
Q 2544 5941 2795 5689 
Q 3047 5438 3047 5081 
Q 3047 4863 2948 4678 
Q 2850 4494 2663 4366 
L 4325 0 
L 3669 0 
L 3244 1197 
L 1141 1197 
L 716 0 
L 50 0 
L 1716 4366 
z
" transform="scale(0.015625)"/>
       <path id="DejaVuSans-29" d="M 513 4856 
L 1013 4856 
Q 1481 4119 1714 3412 
Q 1947 2706 1947 2009 
Q 1947 1309 1714 600 
Q 1481 -109 1013 -844 
L 513 -844 
Q 928 -128 1133 580 
Q 1338 1288 1338 2009 
Q 1338 2731 1133 3434 
Q 928 4138 513 4856 
z
" transform="scale(0.015625)"/>
      </defs>
      <use xlink:href="#DejaVuSans-78"/>
      <use xlink:href="#DejaVuSans-20" x="59.179688"/>
      <use xlink:href="#DejaVuSans-28" x="90.966797"/>
      <use xlink:href="#DejaVuSans-c5" x="129.980469"/>
      <use xlink:href="#DejaVuSans-29" x="198.388672"/>
     </g>
    </g>
   </g>
   <g id="matplotlib.axis_2">
    <g id="ytick_1">
     <g id="line2d_7">
      <defs>
       <path id="mdf9485ce14" d="M 0 0 
L -3.5 0 
" style="stroke: #000000; stroke-width: 0.8"/>
      </defs>
      <g>
       <use xlink:href="#mdf9485ce14" x="72.84" y="400.269091" style="stroke: #000000; stroke-width: 0.8"/>
      </g>
     </g>
     <g id="text_8">
      <!-- 0.0 -->
      <g transform="translate(49.936875 404.06831) scale(0.1 -0.1)">
       <defs>
        <path id="DejaVuSans-2e" d="M 684 794 
L 1344 794 
L 1344 0 
L 684 0 
L 684 794 
z
" transform="scale(0.015625)"/>
       </defs>
       <use xlink:href="#DejaVuSans-30"/>
       <use xlink:href="#DejaVuSans-2e" x="63.623047"/>
       <use xlink:href="#DejaVuSans-30" x="95.410156"/>
      </g>
     </g>
    </g>
    <g id="ytick_2">
     <g id="line2d_8">
      <g>
       <use xlink:href="#mdf9485ce14" x="72.84" y="334.305455" style="stroke: #000000; stroke-width: 0.8"/>
      </g>
     </g>
     <g id="text_9">
      <!-- 0.2 -->
      <g transform="translate(49.936875 338.104673) scale(0.1 -0.1)">
       <defs>
        <path id="DejaVuSans-32" d="M 1228 531 
L 3431 531 
L 3431 0 
L 469 0 
L 469 531 
Q 828 903 1448 1529 
Q 2069 2156 2228 2338 
Q 2531 2678 2651 2914 
Q 2772 3150 2772 3378 
Q 2772 3750 2511 3984 
Q 2250 4219 1831 4219 
Q 1534 4219 1204 4116 
Q 875 4013 500 3803 
L 500 4441 
Q 881 4594 1212 4672 
Q 1544 4750 1819 4750 
Q 2544 4750 2975 4387 
Q 3406 4025 3406 3419 
Q 3406 3131 3298 2873 
Q 3191 2616 2906 2266 
Q 2828 2175 2409 1742 
Q 1991 1309 1228 531 
z
" transform="scale(0.015625)"/>
       </defs>
       <use xlink:href="#DejaVuSans-30"/>
       <use xlink:href="#DejaVuSans-2e" x="63.623047"/>
       <use xlink:href="#DejaVuSans-32" x="95.410156"/>
      </g>
     </g>
    </g>
    <g id="ytick_3">
     <g id="line2d_9">
      <g>
       <use xlink:href="#mdf9485ce14" x="72.84" y="268.341818" style="stroke: #000000; stroke-width: 0.8"/>
      </g>
     </g>
     <g id="text_10">
      <!-- 0.4 -->
      <g transform="translate(49.936875 272.141037) scale(0.1 -0.1)">
       <defs>
        <path id="DejaVuSans-34" d="M 2419 4116 
L 825 1625 
L 2419 1625 
L 2419 4116 
z
M 2253 4666 
L 3047 4666 
L 3047 1625 
L 3713 1625 
L 3713 1100 
L 3047 1100 
L 3047 0 
L 2419 0 
L 2419 1100 
L 313 1100 
L 313 1709 
L 2253 4666 
z
" transform="scale(0.015625)"/>
       </defs>
       <use xlink:href="#DejaVuSans-30"/>
       <use xlink:href="#DejaVuSans-2e" x="63.623047"/>
       <use xlink:href="#DejaVuSans-34" x="95.410156"/>
      </g>
     </g>
    </g>
    <g id="ytick_4">
     <g id="line2d_10">
      <g>
       <use xlink:href="#mdf9485ce14" x="72.84" y="202.378182" style="stroke: #000000; stroke-width: 0.8"/>
      </g>
     </g>
     <g id="text_11">
      <!-- 0.6 -->
      <g transform="translate(49.936875 206.177401) scale(0.1 -0.1)">
       <defs>
        <path id="DejaVuSans-36" d="M 2113 2584 
Q 1688 2584 1439 2293 
Q 1191 2003 1191 1497 
Q 1191 994 1439 701 
Q 1688 409 2113 409 
Q 2538 409 2786 701 
Q 3034 994 3034 1497 
Q 3034 2003 2786 2293 
Q 2538 2584 2113 2584 
z
M 3366 4563 
L 3366 3988 
Q 3128 4100 2886 4159 
Q 2644 4219 2406 4219 
Q 1781 4219 1451 3797 
Q 1122 3375 1075 2522 
Q 1259 2794 1537 2939 
Q 1816 3084 2150 3084 
Q 2853 3084 3261 2657 
Q 3669 2231 3669 1497 
Q 3669 778 3244 343 
Q 2819 -91 2113 -91 
Q 1303 -91 875 529 
Q 447 1150 447 2328 
Q 447 3434 972 4092 
Q 1497 4750 2381 4750 
Q 2619 4750 2861 4703 
Q 3103 4656 3366 4563 
z
" transform="scale(0.015625)"/>
       </defs>
       <use xlink:href="#DejaVuSans-30"/>
       <use xlink:href="#DejaVuSans-2e" x="63.623047"/>
       <use xlink:href="#DejaVuSans-36" x="95.410156"/>
      </g>
     </g>
    </g>
    <g id="ytick_5">
     <g id="line2d_11">
      <g>
       <use xlink:href="#mdf9485ce14" x="72.84" y="136.414545" style="stroke: #000000; stroke-width: 0.8"/>
      </g>
     </g>
     <g id="text_12">
      <!-- 0.8 -->
      <g transform="translate(49.936875 140.213764) scale(0.1 -0.1)">
       <defs>
        <path id="DejaVuSans-38" d="M 2034 2216 
Q 1584 2216 1326 1975 
Q 1069 1734 1069 1313 
Q 1069 891 1326 650 
Q 1584 409 2034 409 
Q 2484 409 2743 651 
Q 3003 894 3003 1313 
Q 3003 1734 2745 1975 
Q 2488 2216 2034 2216 
z
M 1403 2484 
Q 997 2584 770 2862 
Q 544 3141 544 3541 
Q 544 4100 942 4425 
Q 1341 4750 2034 4750 
Q 2731 4750 3128 4425 
Q 3525 4100 3525 3541 
Q 3525 3141 3298 2862 
Q 3072 2584 2669 2484 
Q 3125 2378 3379 2068 
Q 3634 1759 3634 1313 
Q 3634 634 3220 271 
Q 2806 -91 2034 -91 
Q 1263 -91 848 271 
Q 434 634 434 1313 
Q 434 1759 690 2068 
Q 947 2378 1403 2484 
z
M 1172 3481 
Q 1172 3119 1398 2916 
Q 1625 2713 2034 2713 
Q 2441 2713 2670 2916 
Q 2900 3119 2900 3481 
Q 2900 3844 2670 4047 
Q 2441 4250 2034 4250 
Q 1625 4250 1398 4047 
Q 1172 3844 1172 3481 
z
" transform="scale(0.015625)"/>
       </defs>
       <use xlink:href="#DejaVuSans-30"/>
       <use xlink:href="#DejaVuSans-2e" x="63.623047"/>
       <use xlink:href="#DejaVuSans-38" x="95.410156"/>
      </g>
     </g>
    </g>
    <g id="ytick_6">
     <g id="line2d_12">
      <g>
       <use xlink:href="#mdf9485ce14" x="72.84" y="70.450909" style="stroke: #000000; stroke-width: 0.8"/>
      </g>
     </g>
     <g id="text_13">
      <!-- 1.0 -->
      <g transform="translate(49.936875 74.250128) scale(0.1 -0.1)">
       <use xlink:href="#DejaVuSans-31"/>
       <use xlink:href="#DejaVuSans-2e" x="63.623047"/>
       <use xlink:href="#DejaVuSans-30" x="95.410156"/>
      </g>
     </g>
    </g>
    <g id="text_14">
     <!-- Sp(x) -->
     <g transform="translate(43.857188 248.569375) rotate(-90) scale(0.1 -0.1)">
      <defs>
       <path id="DejaVuSans-53" d="M 3425 4513 
L 3425 3897 
Q 3066 4069 2747 4153 
Q 2428 4238 2131 4238 
Q 1616 4238 1336 4038 
Q 1056 3838 1056 3469 
Q 1056 3159 1242 3001 
Q 1428 2844 1947 2747 
L 2328 2669 
Q 3034 2534 3370 2195 
Q 3706 1856 3706 1288 
Q 3706 609 3251 259 
Q 2797 -91 1919 -91 
Q 1588 -91 1214 -16 
Q 841 59 441 206 
L 441 856 
Q 825 641 1194 531 
Q 1563 422 1919 422 
Q 2459 422 2753 634 
Q 3047 847 3047 1241 
Q 3047 1584 2836 1778 
Q 2625 1972 2144 2069 
L 1759 2144 
Q 1053 2284 737 2584 
Q 422 2884 422 3419 
Q 422 4038 858 4394 
Q 1294 4750 2059 4750 
Q 2388 4750 2728 4690 
Q 3069 4631 3425 4513 
z
" transform="scale(0.015625)"/>
       <path id="DejaVuSans-70" d="M 1159 525 
L 1159 -1331 
L 581 -1331 
L 581 3500 
L 1159 3500 
L 1159 2969 
Q 1341 3281 1617 3432 
Q 1894 3584 2278 3584 
Q 2916 3584 3314 3078 
Q 3713 2572 3713 1747 
Q 3713 922 3314 415 
Q 2916 -91 2278 -91 
Q 1894 -91 1617 61 
Q 1341 213 1159 525 
z
M 3116 1747 
Q 3116 2381 2855 2742 
Q 2594 3103 2138 3103 
Q 1681 3103 1420 2742 
Q 1159 2381 1159 1747 
Q 1159 1113 1420 752 
Q 1681 391 2138 391 
Q 2594 391 2855 752 
Q 3116 1113 3116 1747 
z
" transform="scale(0.015625)"/>
      </defs>
      <use xlink:href="#DejaVuSans-53"/>
      <use xlink:href="#DejaVuSans-70" x="63.476562"/>
      <use xlink:href="#DejaVuSans-28" x="126.953125"/>
      <use xlink:href="#DejaVuSans-78" x="165.966797"/>
      <use xlink:href="#DejaVuSans-29" x="225.146484"/>
     </g>
    </g>
   </g>
   <g id="line2d_13">
    <path d="M 88.803636 70.450909 
L 103.396434 75.886278 
L 111.356142 79.083869 
L 118.431438 82.166055 
L 124.622322 85.104026 
L 130.371 88.075775 
L 135.677472 91.060096 
L 140.983944 94.305918 
L 145.84821 97.535599 
L 150.712475 101.030859 
L 155.576741 104.812407 
L 160.441007 108.899635 
L 164.863067 112.895427 
L 169.285127 117.170087 
L 173.707187 121.733425 
L 178.129247 126.593109 
L 182.993513 132.287207 
L 187.857779 138.349316 
L 192.722045 144.778237 
L 197.586311 151.568094 
L 202.892783 159.374048 
L 208.199255 167.57578 
L 213.947933 176.875001 
L 220.138816 187.320661 
L 227.214112 199.720815 
L 235.616026 214.92943 
L 248.882206 239.489713 
L 261.70618 263.089883 
L 269.665888 277.294754 
L 276.298978 288.712638 
L 282.489861 298.939655 
L 288.238539 308.009281 
L 293.545011 315.980911 
L 298.851483 323.543628 
L 303.715749 330.102573 
L 308.580015 336.296257 
L 313.444281 342.12184 
L 318.308547 347.580964 
L 323.172813 352.679382 
L 327.594873 357.009182 
L 332.459139 361.447922 
L 337.323405 365.561958 
L 342.187671 369.368742 
L 347.051937 372.887532 
L 351.916202 376.138944 
L 357.222674 379.406346 
L 362.529146 382.409985 
L 368.277824 385.400094 
L 374.468708 388.354861 
L 381.101798 391.266414 
L 388.6193 394.317564 
L 398.347832 398.002603 
L 404.538716 400.269091 
L 404.538716 400.269091 
" clip-path="url(#pfd5593b8f3)" style="fill: none; stroke: #1f77b4; stroke-width: 1.5; stroke-linecap: square"/>
   </g>
   <g id="line2d_14">
    <path d="M 90.57246 70.450909 
L 107.376288 73.500992 
L 116.662614 75.413741 
L 124.180116 77.174865 
L 130.813206 78.940208 
L 137.00409 80.809349 
L 142.752768 82.772737 
L 148.059239 84.81033 
L 153.365711 87.093303 
L 158.229977 89.426562 
L 163.094243 92.013453 
L 167.516303 94.604483 
L 171.938363 97.440848 
L 176.360423 100.538805 
L 180.782483 103.913715 
L 185.204543 107.579703 
L 189.626603 111.549324 
L 194.048663 115.833207 
L 198.470723 120.439723 
L 202.892783 125.374651 
L 207.314843 130.640882 
L 211.736903 136.238159 
L 216.601168 142.773091 
L 221.465434 149.694369 
L 226.3297 156.98693 
L 231.636172 165.341797 
L 237.38485 174.824968 
L 243.575734 185.481773 
L 250.65103 198.129128 
L 259.052944 213.624493 
L 274.97236 243.5849 
L 286.027509 264.125181 
L 293.987217 278.435915 
L 300.620307 289.916538 
L 306.811191 300.190447 
L 312.559869 309.301964 
L 317.866341 317.318146 
L 323.172813 324.937966 
L 328.479285 332.151537 
L 333.343551 338.404405 
L 338.207817 344.315737 
L 343.072083 349.892136 
L 347.936349 355.143967 
L 352.800614 360.084913 
L 357.66488 364.731535 
L 362.971352 369.487289 
L 368.277824 373.942848 
L 374.026502 378.465535 
L 379.77518 382.711308 
L 386.40827 387.32202 
L 393.925772 392.25793 
L 403.654304 398.358756 
L 406.749746 400.269091 
L 406.749746 400.269091 
" clip-path="url(#pfd5593b8f3)" style="fill: none; stroke: #ff7f0e; stroke-width: 1.5; stroke-linecap: square"/>
   </g>
   <g id="line2d_15">
    <path d="M 91.899078 70.450909 
L 115.335996 71.499658 
L 127.275558 72.254317 
L 136.561884 73.048128 
L 144.521592 73.938576 
L 151.596887 74.946529 
L 157.787771 76.038774 
L 163.536449 77.265877 
L 168.842921 78.612605 
L 174.149393 80.196567 
L 179.013659 81.885076 
L 183.435719 83.639454 
L 187.857779 85.623939 
L 192.279839 87.859263 
L 196.701899 90.366049 
L 200.681753 92.870927 
L 204.661607 95.626118 
L 208.641461 98.644893 
L 212.621315 101.939435 
L 216.601168 105.520569 
L 220.581022 109.397507 
L 224.560876 113.577583 
L 228.54073 118.066016 
L 232.520584 122.865691 
L 236.942644 128.564049 
L 241.364704 134.643637 
L 245.786764 141.096781 
L 250.65103 148.61218 
L 255.515296 156.542733 
L 260.821768 165.634152 
L 266.570446 175.950097 
L 272.76133 187.527111 
L 279.836626 201.231586 
L 289.122951 219.731595 
L 312.559869 266.646547 
L 320.077371 281.081893 
L 326.710461 293.357795 
L 332.901345 304.353849 
L 338.650023 314.123874 
L 344.398701 323.444379 
L 349.705173 331.637899 
L 355.011644 339.436354 
L 360.318116 346.846321 
L 365.624588 353.881608 
L 370.93106 360.562625 
L 376.679738 367.431345 
L 382.428416 373.956035 
L 388.6193 380.652488 
L 395.694596 387.971757 
L 404.980922 397.226451 
L 408.076364 400.269091 
L 408.076364 400.269091 
" clip-path="url(#pfd5593b8f3)" style="fill: none; stroke: #2ca02c; stroke-width: 1.5; stroke-linecap: square"/>
   </g>
   <g id="patch_3">
    <path d="M 72.84 416.76 
L 72.84 53.96 
" style="fill: none; stroke: #000000; stroke-width: 0.8; stroke-linejoin: miter; stroke-linecap: square"/>
   </g>
   <g id="patch_4">
    <path d="M 424.04 416.76 
L 424.04 53.96 
" style="fill: none; stroke: #000000; stroke-width: 0.8; stroke-linejoin: miter; stroke-linecap: square"/>
   </g>
   <g id="patch_5">
    <path d="M 72.84 416.76 
L 424.04 416.76 
" style="fill: none; stroke: #000000; stroke-width: 0.8; stroke-linejoin: miter; stroke-linecap: square"/>
   </g>
   <g id="patch_6">
    <path d="M 72.84 53.96 
L 424.04 53.96 
" style="fill: none; stroke: #000000; stroke-width: 0.8; stroke-linejoin: miter; stroke-linecap: square"/>
   </g>
   <g id="text_15">
    <!-- Splitting Probability -->
    <g transform="translate(189.88375 47.96) scale(0.12 -0.12)">
     <defs>
      <path id="DejaVuSans-6c" d="M 603 4863 
L 1178 4863 
L 1178 0 
L 603 0 
L 603 4863 
z
" transform="scale(0.015625)"/>
      <path id="DejaVuSans-69" d="M 603 3500 
L 1178 3500 
L 1178 0 
L 603 0 
L 603 3500 
z
M 603 4863 
L 1178 4863 
L 1178 4134 
L 603 4134 
L 603 4863 
z
" transform="scale(0.015625)"/>
      <path id="DejaVuSans-74" d="M 1172 4494 
L 1172 3500 
L 2356 3500 
L 2356 3053 
L 1172 3053 
L 1172 1153 
Q 1172 725 1289 603 
Q 1406 481 1766 481 
L 2356 481 
L 2356 0 
L 1766 0 
Q 1100 0 847 248 
Q 594 497 594 1153 
L 594 3053 
L 172 3053 
L 172 3500 
L 594 3500 
L 594 4494 
L 1172 4494 
z
" transform="scale(0.015625)"/>
      <path id="DejaVuSans-6e" d="M 3513 2113 
L 3513 0 
L 2938 0 
L 2938 2094 
Q 2938 2591 2744 2837 
Q 2550 3084 2163 3084 
Q 1697 3084 1428 2787 
Q 1159 2491 1159 1978 
L 1159 0 
L 581 0 
L 581 3500 
L 1159 3500 
L 1159 2956 
Q 1366 3272 1645 3428 
Q 1925 3584 2291 3584 
Q 2894 3584 3203 3211 
Q 3513 2838 3513 2113 
z
" transform="scale(0.015625)"/>
      <path id="DejaVuSans-67" d="M 2906 1791 
Q 2906 2416 2648 2759 
Q 2391 3103 1925 3103 
Q 1463 3103 1205 2759 
Q 947 2416 947 1791 
Q 947 1169 1205 825 
Q 1463 481 1925 481 
Q 2391 481 2648 825 
Q 2906 1169 2906 1791 
z
M 3481 434 
Q 3481 -459 3084 -895 
Q 2688 -1331 1869 -1331 
Q 1566 -1331 1297 -1286 
Q 1028 -1241 775 -1147 
L 775 -588 
Q 1028 -725 1275 -790 
Q 1522 -856 1778 -856 
Q 2344 -856 2625 -561 
Q 2906 -266 2906 331 
L 2906 616 
Q 2728 306 2450 153 
Q 2172 0 1784 0 
Q 1141 0 747 490 
Q 353 981 353 1791 
Q 353 2603 747 3093 
Q 1141 3584 1784 3584 
Q 2172 3584 2450 3431 
Q 2728 3278 2906 2969 
L 2906 3500 
L 3481 3500 
L 3481 434 
z
" transform="scale(0.015625)"/>
      <path id="DejaVuSans-50" d="M 1259 4147 
L 1259 2394 
L 2053 2394 
Q 2494 2394 2734 2622 
Q 2975 2850 2975 3272 
Q 2975 3691 2734 3919 
Q 2494 4147 2053 4147 
L 1259 4147 
z
M 628 4666 
L 2053 4666 
Q 2838 4666 3239 4311 
Q 3641 3956 3641 3272 
Q 3641 2581 3239 2228 
Q 2838 1875 2053 1875 
L 1259 1875 
L 1259 0 
L 628 0 
L 628 4666 
z
" transform="scale(0.015625)"/>
      <path id="DejaVuSans-72" d="M 2631 2963 
Q 2534 3019 2420 3045 
Q 2306 3072 2169 3072 
Q 1681 3072 1420 2755 
Q 1159 2438 1159 1844 
L 1159 0 
L 581 0 
L 581 3500 
L 1159 3500 
L 1159 2956 
Q 1341 3275 1631 3429 
Q 1922 3584 2338 3584 
Q 2397 3584 2469 3576 
Q 2541 3569 2628 3553 
L 2631 2963 
z
" transform="scale(0.015625)"/>
      <path id="DejaVuSans-6f" d="M 1959 3097 
Q 1497 3097 1228 2736 
Q 959 2375 959 1747 
Q 959 1119 1226 758 
Q 1494 397 1959 397 
Q 2419 397 2687 759 
Q 2956 1122 2956 1747 
Q 2956 2369 2687 2733 
Q 2419 3097 1959 3097 
z
M 1959 3584 
Q 2709 3584 3137 3096 
Q 3566 2609 3566 1747 
Q 3566 888 3137 398 
Q 2709 -91 1959 -91 
Q 1206 -91 779 398 
Q 353 888 353 1747 
Q 353 2609 779 3096 
Q 1206 3584 1959 3584 
z
" transform="scale(0.015625)"/>
      <path id="DejaVuSans-62" d="M 3116 1747 
Q 3116 2381 2855 2742 
Q 2594 3103 2138 3103 
Q 1681 3103 1420 2742 
Q 1159 2381 1159 1747 
Q 1159 1113 1420 752 
Q 1681 391 2138 391 
Q 2594 391 2855 752 
Q 3116 1113 3116 1747 
z
M 1159 2969 
Q 1341 3281 1617 3432 
Q 1894 3584 2278 3584 
Q 2916 3584 3314 3078 
Q 3713 2572 3713 1747 
Q 3713 922 3314 415 
Q 2916 -91 2278 -91 
Q 1894 -91 1617 61 
Q 1341 213 1159 525 
L 1159 0 
L 581 0 
L 581 4863 
L 1159 4863 
L 1159 2969 
z
" transform="scale(0.015625)"/>
      <path id="DejaVuSans-61" d="M 2194 1759 
Q 1497 1759 1228 1600 
Q 959 1441 959 1056 
Q 959 750 1161 570 
Q 1363 391 1709 391 
Q 2188 391 2477 730 
Q 2766 1069 2766 1631 
L 2766 1759 
L 2194 1759 
z
M 3341 1997 
L 3341 0 
L 2766 0 
L 2766 531 
Q 2569 213 2275 61 
Q 1981 -91 1556 -91 
Q 1019 -91 701 211 
Q 384 513 384 1019 
Q 384 1609 779 1909 
Q 1175 2209 1959 2209 
L 2766 2209 
L 2766 2266 
Q 2766 2663 2505 2880 
Q 2244 3097 1772 3097 
Q 1472 3097 1187 3025 
Q 903 2953 641 2809 
L 641 3341 
Q 956 3463 1253 3523 
Q 1550 3584 1831 3584 
Q 2591 3584 2966 3190 
Q 3341 2797 3341 1997 
z
" transform="scale(0.015625)"/>
      <path id="DejaVuSans-79" d="M 2059 -325 
Q 1816 -950 1584 -1140 
Q 1353 -1331 966 -1331 
L 506 -1331 
L 506 -850 
L 844 -850 
Q 1081 -850 1212 -737 
Q 1344 -625 1503 -206 
L 1606 56 
L 191 3500 
L 800 3500 
L 1894 763 
L 2988 3500 
L 3597 3500 
L 2059 -325 
z
" transform="scale(0.015625)"/>
     </defs>
     <use xlink:href="#DejaVuSans-53"/>
     <use xlink:href="#DejaVuSans-70" x="63.476562"/>
     <use xlink:href="#DejaVuSans-6c" x="126.953125"/>
     <use xlink:href="#DejaVuSans-69" x="154.736328"/>
     <use xlink:href="#DejaVuSans-74" x="182.519531"/>
     <use xlink:href="#DejaVuSans-74" x="221.728516"/>
     <use xlink:href="#DejaVuSans-69" x="260.9375"/>
     <use xlink:href="#DejaVuSans-6e" x="288.720703"/>
     <use xlink:href="#DejaVuSans-67" x="352.099609"/>
     <use xlink:href="#DejaVuSans-20" x="415.576172"/>
     <use xlink:href="#DejaVuSans-50" x="447.363281"/>
     <use xlink:href="#DejaVuSans-72" x="505.916016"/>
     <use xlink:href="#DejaVuSans-6f" x="544.779297"/>
     <use xlink:href="#DejaVuSans-62" x="605.960938"/>
     <use xlink:href="#DejaVuSans-61" x="669.4375"/>
     <use xlink:href="#DejaVuSans-62" x="730.716797"/>
     <use xlink:href="#DejaVuSans-69" x="794.193359"/>
     <use xlink:href="#DejaVuSans-6c" x="821.976562"/>
     <use xlink:href="#DejaVuSans-69" x="849.759766"/>
     <use xlink:href="#DejaVuSans-74" x="877.542969"/>
     <use xlink:href="#DejaVuSans-79" x="916.751953"/>
    </g>
   </g>
  </g>
  <g id="axes_2">
   <g id="patch_7">
    <path d="M 504.8 416.76 
L 856 416.76 
L 856 53.96 
L 504.8 53.96 
z
" style="fill: #ffffff"/>
   </g>
   <g id="matplotlib.axis_3">
    <g id="xtick_7">
     <g id="line2d_16">
      <g>
       <use xlink:href="#m1e6aa85148" x="513.038342" y="416.76" style="stroke: #000000; stroke-width: 0.8"/>
      </g>
     </g>
     <g id="text_16">
      <!-- −15 -->
      <g transform="translate(502.485998 431.358437) scale(0.1 -0.1)">
       <use xlink:href="#DejaVuSans-2212"/>
       <use xlink:href="#DejaVuSans-31" x="83.789062"/>
       <use xlink:href="#DejaVuSans-35" x="147.412109"/>
      </g>
     </g>
    </g>
    <g id="xtick_8">
     <g id="line2d_17">
      <g>
       <use xlink:href="#m1e6aa85148" x="575.851841" y="416.76" style="stroke: #000000; stroke-width: 0.8"/>
      </g>
     </g>
     <g id="text_17">
      <!-- −10 -->
      <g transform="translate(565.299498 431.358437) scale(0.1 -0.1)">
       <use xlink:href="#DejaVuSans-2212"/>
       <use xlink:href="#DejaVuSans-31" x="83.789062"/>
       <use xlink:href="#DejaVuSans-30" x="147.412109"/>
      </g>
     </g>
    </g>
    <g id="xtick_9">
     <g id="line2d_18">
      <g>
       <use xlink:href="#m1e6aa85148" x="638.665341" y="416.76" style="stroke: #000000; stroke-width: 0.8"/>
      </g>
     </g>
     <g id="text_18">
      <!-- −5 -->
      <g transform="translate(631.294247 431.358437) scale(0.1 -0.1)">
       <use xlink:href="#DejaVuSans-2212"/>
       <use xlink:href="#DejaVuSans-35" x="83.789062"/>
      </g>
     </g>
    </g>
    <g id="xtick_10">
     <g id="line2d_19">
      <g>
       <use xlink:href="#m1e6aa85148" x="701.47884" y="416.76" style="stroke: #000000; stroke-width: 0.8"/>
      </g>
     </g>
     <g id="text_19">
      <!-- 0 -->
      <g transform="translate(698.29759 431.358437) scale(0.1 -0.1)">
       <use xlink:href="#DejaVuSans-30"/>
      </g>
     </g>
    </g>
    <g id="xtick_11">
     <g id="line2d_20">
      <g>
       <use xlink:href="#m1e6aa85148" x="764.29234" y="416.76" style="stroke: #000000; stroke-width: 0.8"/>
      </g>
     </g>
     <g id="text_20">
      <!-- 5 -->
      <g transform="translate(761.11109 431.358437) scale(0.1 -0.1)">
       <use xlink:href="#DejaVuSans-35"/>
      </g>
     </g>
    </g>
    <g id="xtick_12">
     <g id="line2d_21">
      <g>
       <use xlink:href="#m1e6aa85148" x="827.105839" y="416.76" style="stroke: #000000; stroke-width: 0.8"/>
      </g>
     </g>
     <g id="text_21">
      <!-- 10 -->
      <g transform="translate(820.743339 431.358437) scale(0.1 -0.1)">
       <use xlink:href="#DejaVuSans-31"/>
       <use xlink:href="#DejaVuSans-30" x="63.623047"/>
      </g>
     </g>
    </g>
    <g id="text_22">
     <!-- x (Å) -->
     <g transform="translate(668.529687 445.96) scale(0.1 -0.1)">
      <use xlink:href="#DejaVuSans-78"/>
      <use xlink:href="#DejaVuSans-20" x="59.179688"/>
      <use xlink:href="#DejaVuSans-28" x="90.966797"/>
      <use xlink:href="#DejaVuSans-c5" x="129.980469"/>
      <use xlink:href="#DejaVuSans-29" x="198.388672"/>
     </g>
    </g>
   </g>
   <g id="matplotlib.axis_4">
    <g id="ytick_7">
     <g id="line2d_22">
      <g>
       <use xlink:href="#mdf9485ce14" x="504.8" y="348.866709" style="stroke: #000000; stroke-width: 0.8"/>
      </g>
     </g>
     <g id="text_23">
      <!-- −3.5 -->
      <g transform="translate(473.517187 352.665928) scale(0.1 -0.1)">
       <defs>
        <path id="DejaVuSans-33" d="M 2597 2516 
Q 3050 2419 3304 2112 
Q 3559 1806 3559 1356 
Q 3559 666 3084 287 
Q 2609 -91 1734 -91 
Q 1441 -91 1130 -33 
Q 819 25 488 141 
L 488 750 
Q 750 597 1062 519 
Q 1375 441 1716 441 
Q 2309 441 2620 675 
Q 2931 909 2931 1356 
Q 2931 1769 2642 2001 
Q 2353 2234 1838 2234 
L 1294 2234 
L 1294 2753 
L 1863 2753 
Q 2328 2753 2575 2939 
Q 2822 3125 2822 3475 
Q 2822 3834 2567 4026 
Q 2313 4219 1838 4219 
Q 1578 4219 1281 4162 
Q 984 4106 628 3988 
L 628 4550 
Q 988 4650 1302 4700 
Q 1616 4750 1894 4750 
Q 2613 4750 3031 4423 
Q 3450 4097 3450 3541 
Q 3450 3153 3228 2886 
Q 3006 2619 2597 2516 
z
" transform="scale(0.015625)"/>
       </defs>
       <use xlink:href="#DejaVuSans-2212"/>
       <use xlink:href="#DejaVuSans-33" x="83.789062"/>
       <use xlink:href="#DejaVuSans-2e" x="147.412109"/>
       <use xlink:href="#DejaVuSans-35" x="179.199219"/>
      </g>
     </g>
    </g>
    <g id="ytick_8">
     <g id="line2d_23">
      <g>
       <use xlink:href="#mdf9485ce14" x="504.8" y="278.236784" style="stroke: #000000; stroke-width: 0.8"/>
      </g>
     </g>
     <g id="text_24">
      <!-- −3.0 -->
      <g transform="translate(473.517187 282.036003) scale(0.1 -0.1)">
       <use xlink:href="#DejaVuSans-2212"/>
       <use xlink:href="#DejaVuSans-33" x="83.789062"/>
       <use xlink:href="#DejaVuSans-2e" x="147.412109"/>
       <use xlink:href="#DejaVuSans-30" x="179.199219"/>
      </g>
     </g>
    </g>
    <g id="ytick_9">
     <g id="line2d_24">
      <g>
       <use xlink:href="#mdf9485ce14" x="504.8" y="207.606859" style="stroke: #000000; stroke-width: 0.8"/>
      </g>
     </g>
     <g id="text_25">
      <!-- −2.5 -->
      <g transform="translate(473.517187 211.406077) scale(0.1 -0.1)">
       <use xlink:href="#DejaVuSans-2212"/>
       <use xlink:href="#DejaVuSans-32" x="83.789062"/>
       <use xlink:href="#DejaVuSans-2e" x="147.412109"/>
       <use xlink:href="#DejaVuSans-35" x="179.199219"/>
      </g>
     </g>
    </g>
    <g id="ytick_10">
     <g id="line2d_25">
      <g>
       <use xlink:href="#mdf9485ce14" x="504.8" y="136.976933" style="stroke: #000000; stroke-width: 0.8"/>
      </g>
     </g>
     <g id="text_26">
      <!-- −2.0 -->
      <g transform="translate(473.517187 140.776152) scale(0.1 -0.1)">
       <use xlink:href="#DejaVuSans-2212"/>
       <use xlink:href="#DejaVuSans-32" x="83.789062"/>
       <use xlink:href="#DejaVuSans-2e" x="147.412109"/>
       <use xlink:href="#DejaVuSans-30" x="179.199219"/>
      </g>
     </g>
    </g>
    <g id="ytick_11">
     <g id="line2d_26">
      <g>
       <use xlink:href="#mdf9485ce14" x="504.8" y="66.347008" style="stroke: #000000; stroke-width: 0.8"/>
      </g>
     </g>
     <g id="text_27">
      <!-- −1.5 -->
      <g transform="translate(473.517187 70.146227) scale(0.1 -0.1)">
       <use xlink:href="#DejaVuSans-2212"/>
       <use xlink:href="#DejaVuSans-31" x="83.789062"/>
       <use xlink:href="#DejaVuSans-2e" x="147.412109"/>
       <use xlink:href="#DejaVuSans-35" x="179.199219"/>
      </g>
     </g>
    </g>
    <g id="text_28">
     <!-- PMF (kcal/mol) -->
     <g transform="translate(467.4375 272.156094) rotate(-90) scale(0.1 -0.1)">
      <defs>
       <path id="DejaVuSans-4d" d="M 628 4666 
L 1569 4666 
L 2759 1491 
L 3956 4666 
L 4897 4666 
L 4897 0 
L 4281 0 
L 4281 4097 
L 3078 897 
L 2444 897 
L 1241 4097 
L 1241 0 
L 628 0 
L 628 4666 
z
" transform="scale(0.015625)"/>
       <path id="DejaVuSans-46" d="M 628 4666 
L 3309 4666 
L 3309 4134 
L 1259 4134 
L 1259 2759 
L 3109 2759 
L 3109 2228 
L 1259 2228 
L 1259 0 
L 628 0 
L 628 4666 
z
" transform="scale(0.015625)"/>
       <path id="DejaVuSans-6b" d="M 581 4863 
L 1159 4863 
L 1159 1991 
L 2875 3500 
L 3609 3500 
L 1753 1863 
L 3688 0 
L 2938 0 
L 1159 1709 
L 1159 0 
L 581 0 
L 581 4863 
z
" transform="scale(0.015625)"/>
       <path id="DejaVuSans-63" d="M 3122 3366 
L 3122 2828 
Q 2878 2963 2633 3030 
Q 2388 3097 2138 3097 
Q 1578 3097 1268 2742 
Q 959 2388 959 1747 
Q 959 1106 1268 751 
Q 1578 397 2138 397 
Q 2388 397 2633 464 
Q 2878 531 3122 666 
L 3122 134 
Q 2881 22 2623 -34 
Q 2366 -91 2075 -91 
Q 1284 -91 818 406 
Q 353 903 353 1747 
Q 353 2603 823 3093 
Q 1294 3584 2113 3584 
Q 2378 3584 2631 3529 
Q 2884 3475 3122 3366 
z
" transform="scale(0.015625)"/>
       <path id="DejaVuSans-2f" d="M 1625 4666 
L 2156 4666 
L 531 -594 
L 0 -594 
L 1625 4666 
z
" transform="scale(0.015625)"/>
       <path id="DejaVuSans-6d" d="M 3328 2828 
Q 3544 3216 3844 3400 
Q 4144 3584 4550 3584 
Q 5097 3584 5394 3201 
Q 5691 2819 5691 2113 
L 5691 0 
L 5113 0 
L 5113 2094 
Q 5113 2597 4934 2840 
Q 4756 3084 4391 3084 
Q 3944 3084 3684 2787 
Q 3425 2491 3425 1978 
L 3425 0 
L 2847 0 
L 2847 2094 
Q 2847 2600 2669 2842 
Q 2491 3084 2119 3084 
Q 1678 3084 1418 2786 
Q 1159 2488 1159 1978 
L 1159 0 
L 581 0 
L 581 3500 
L 1159 3500 
L 1159 2956 
Q 1356 3278 1631 3431 
Q 1906 3584 2284 3584 
Q 2666 3584 2933 3390 
Q 3200 3197 3328 2828 
z
" transform="scale(0.015625)"/>
      </defs>
      <use xlink:href="#DejaVuSans-50"/>
      <use xlink:href="#DejaVuSans-4d" x="60.302734"/>
      <use xlink:href="#DejaVuSans-46" x="146.582031"/>
      <use xlink:href="#DejaVuSans-20" x="204.101562"/>
      <use xlink:href="#DejaVuSans-28" x="235.888672"/>
      <use xlink:href="#DejaVuSans-6b" x="274.902344"/>
      <use xlink:href="#DejaVuSans-63" x="332.8125"/>
      <use xlink:href="#DejaVuSans-61" x="387.792969"/>
      <use xlink:href="#DejaVuSans-6c" x="449.072266"/>
      <use xlink:href="#DejaVuSans-2f" x="476.855469"/>
      <use xlink:href="#DejaVuSans-6d" x="510.546875"/>
      <use xlink:href="#DejaVuSans-6f" x="607.958984"/>
      <use xlink:href="#DejaVuSans-6c" x="669.140625"/>
      <use xlink:href="#DejaVuSans-29" x="696.923828"/>
     </g>
    </g>
   </g>
   <g id="line2d_27">
    <path d="M 520.763636 214.619467 
L 522.974666 214.472983 
L 525.185696 214.081879 
L 527.396726 213.458979 
L 529.607756 212.615019 
L 531.818786 211.561024 
L 534.472022 210.034819 
L 537.125258 208.242028 
L 539.778494 206.202446 
L 542.873936 203.53736 
L 545.969378 200.594276 
L 549.507026 196.929345 
L 553.48688 192.474556 
L 557.90894 187.18304 
L 563.215412 180.463619 
L 569.848502 171.674089 
L 581.788063 155.388763 
L 591.958801 141.68038 
L 599.034097 132.514005 
L 605.224981 124.862354 
L 610.531453 118.635721 
L 615.837925 112.756279 
L 620.702191 107.700007 
L 625.124251 103.399044 
L 629.546311 99.394426 
L 633.968371 95.698583 
L 637.948225 92.645283 
L 641.928079 89.857707 
L 645.907933 87.341829 
L 649.887786 85.102821 
L 653.425434 83.348627 
L 656.963082 81.819367 
L 660.50073 80.517301 
L 664.038378 79.444309 
L 667.576026 78.601913 
L 671.113674 77.99129 
L 674.651322 77.613283 
L 678.18897 77.46841 
L 681.726618 77.556869 
L 685.264266 77.878538 
L 688.801914 78.432978 
L 692.339562 79.219425 
L 695.87721 80.236783 
L 699.414858 81.483617 
L 702.952506 82.958133 
L 706.490154 84.658165 
L 710.470008 86.837059 
L 714.449861 89.293837 
L 718.429715 92.023491 
L 722.409569 95.020224 
L 726.389423 98.27738 
L 730.811483 102.192602 
L 735.233543 106.407996 
L 740.097809 111.375228 
L 744.962075 116.668061 
L 750.268547 122.78481 
L 756.017225 129.773404 
L 762.208109 137.659546 
L 769.725611 147.622988 
L 781.665173 163.89966 
L 791.393704 177.027326 
L 797.584588 185.018911 
L 802.448854 190.955797 
L 806.870914 195.999573 
L 810.850768 200.182013 
L 814.388416 203.563657 
L 817.483858 206.225994 
L 820.5793 208.579005 
L 823.232536 210.325896 
L 825.885772 211.802695 
L 828.539008 212.989766 
L 830.750038 213.743725 
L 832.961068 214.272149 
L 835.172098 214.564445 
L 836.498716 214.620097 
L 836.498716 214.620097 
" clip-path="url(#pa8511565c6)" style="fill: none; stroke: #1f77b4; stroke-width: 1.5; stroke-linecap: square"/>
   </g>
   <g id="line2d_28">
    <path d="M 522.53246 276.330042 
L 524.301284 276.220312 
L 526.070108 275.907913 
L 527.838932 275.399935 
L 530.049962 274.499727 
L 532.260992 273.317087 
L 534.472022 271.865689 
L 536.683052 270.159631 
L 539.336288 267.796507 
L 541.989524 265.112653 
L 544.64276 262.133418 
L 547.738202 258.317951 
L 551.27585 253.557689 
L 554.813498 248.425802 
L 558.793352 242.276378 
L 563.657618 234.322993 
L 569.406296 224.462157 
L 577.366004 210.304629 
L 597.265273 174.689658 
L 604.340569 162.584631 
L 610.531453 152.423106 
L 616.280131 143.413658 
L 621.586603 135.50395 
L 626.450869 128.623859 
L 631.315135 122.118977 
L 636.179401 116.006338 
L 640.601461 110.801874 
L 645.023521 105.942506 
L 649.44558 101.435861 
L 653.425434 97.686729 
L 657.405288 94.232284 
L 661.385142 91.07566 
L 665.364996 88.219357 
L 668.902644 85.934093 
L 672.440292 83.888597 
L 675.97794 82.083505 
L 679.515588 80.519128 
L 683.053236 79.195468 
L 686.590884 78.112217 
L 690.128532 77.268765 
L 693.66618 76.664193 
L 697.203828 76.297271 
L 700.741476 76.166453 
L 704.279124 76.269864 
L 707.816772 76.605286 
L 711.35442 77.170144 
L 714.892067 77.961485 
L 718.429715 78.975952 
L 721.967363 80.20976 
L 725.505011 81.658664 
L 729.484865 83.539863 
L 733.464719 85.679712 
L 737.444573 88.069706 
L 741.866633 91.007004 
L 746.288693 94.226608 
L 750.710753 97.711883 
L 755.575019 101.83008 
L 760.881491 106.630009 
L 766.630169 112.144188 
L 773.263259 118.833646 
L 782.107378 128.110666 
L 797.584588 144.392546 
L 803.333266 150.09468 
L 808.197532 154.616639 
L 812.177386 158.042197 
L 815.715034 160.833784 
L 819.252682 163.346369 
L 822.348124 165.284454 
L 825.443566 166.950724 
L 828.096802 168.141588 
L 830.750038 169.094869 
L 833.403274 169.793172 
L 835.614304 170.167931 
L 837.825334 170.343979 
L 838.709746 170.357675 
L 838.709746 170.357675 
" clip-path="url(#pa8511565c6)" style="fill: none; stroke: #ff7f0e; stroke-width: 1.5; stroke-linecap: square"/>
   </g>
   <g id="line2d_29">
    <path d="M 523.859078 400.269091 
L 525.185696 400.191972 
L 526.512314 399.93342 
L 527.838932 399.493821 
L 529.607756 398.632983 
L 531.37658 397.467661 
L 533.145404 396.008971 
L 534.914228 394.268759 
L 536.683052 392.259468 
L 538.894082 389.389186 
L 541.105112 386.144667 
L 543.758348 381.794552 
L 546.411584 376.989701 
L 549.507026 370.870141 
L 552.602468 364.264371 
L 556.140116 356.20628 
L 560.11997 346.605559 
L 564.984236 334.275132 
L 571.17512 317.928881 
L 581.345857 290.320332 
L 593.727625 256.860314 
L 601.245127 237.187692 
L 607.878217 220.446451 
L 614.069101 205.441363 
L 619.817779 192.10302 
L 625.124251 180.335445 
L 630.430723 169.116699 
L 635.294989 159.332003 
L 640.159255 150.037327 
L 645.023521 141.242313 
L 649.44558 133.686832 
L 653.86764 126.554961 
L 658.2897 119.850055 
L 662.71176 113.574544 
L 666.691614 108.295067 
L 670.671468 103.365375 
L 674.651322 98.785679 
L 678.631176 94.555766 
L 682.61103 90.675016 
L 686.148678 87.517775 
L 689.686326 84.634656 
L 693.223974 82.024446 
L 696.761622 79.68569 
L 700.29927 77.616681 
L 703.836918 75.815449 
L 707.374566 74.279755 
L 710.912214 73.007071 
L 714.449861 71.994566 
L 717.987509 71.239082 
L 721.525157 70.737115 
L 725.062805 70.484784 
L 728.600453 70.477802 
L 732.138101 70.711441 
L 735.675749 71.180493 
L 739.213397 71.879228 
L 742.751045 72.801343 
L 746.288693 73.939913 
L 750.268547 75.470035 
L 754.248401 77.252493 
L 758.228255 79.274 
L 762.650315 81.782499 
L 767.072375 84.54531 
L 771.936641 87.847854 
L 777.243113 91.72192 
L 783.433996 96.526177 
L 791.83591 103.357607 
L 805.10209 114.161579 
L 810.850768 118.531005 
L 815.272828 121.633349 
L 819.252682 124.167869 
L 822.79033 126.169564 
L 825.885772 127.694018 
L 828.981214 128.977503 
L 831.63445 129.864458 
L 834.287686 130.535742 
L 836.940922 130.973463 
L 839.594158 131.159876 
L 840.036364 131.164455 
L 840.036364 131.164455 
" clip-path="url(#pa8511565c6)" style="fill: none; stroke: #2ca02c; stroke-width: 1.5; stroke-linecap: square"/>
   </g>
   <g id="patch_8">
    <path d="M 504.8 416.76 
L 504.8 53.96 
" style="fill: none; stroke: #000000; stroke-width: 0.8; stroke-linejoin: miter; stroke-linecap: square"/>
   </g>
   <g id="patch_9">
    <path d="M 856 416.76 
L 856 53.96 
" style="fill: none; stroke: #000000; stroke-width: 0.8; stroke-linejoin: miter; stroke-linecap: square"/>
   </g>
   <g id="patch_10">
    <path d="M 504.8 416.76 
L 856 416.76 
" style="fill: none; stroke: #000000; stroke-width: 0.8; stroke-linejoin: miter; stroke-linecap: square"/>
   </g>
   <g id="patch_11">
    <path d="M 504.8 53.96 
L 856 53.96 
" style="fill: none; stroke: #000000; stroke-width: 0.8; stroke-linejoin: miter; stroke-linecap: square"/>
   </g>
   <g id="text_29">
    <!-- PMF-RE -->
    <g transform="translate(658.029375 47.96) scale(0.12 -0.12)">
     <defs>
      <path id="DejaVuSans-2d" d="M 313 2009 
L 1997 2009 
L 1997 1497 
L 313 1497 
L 313 2009 
z
" transform="scale(0.015625)"/>
      <path id="DejaVuSans-52" d="M 2841 2188 
Q 3044 2119 3236 1894 
Q 3428 1669 3622 1275 
L 4263 0 
L 3584 0 
L 2988 1197 
Q 2756 1666 2539 1819 
Q 2322 1972 1947 1972 
L 1259 1972 
L 1259 0 
L 628 0 
L 628 4666 
L 2053 4666 
Q 2853 4666 3247 4331 
Q 3641 3997 3641 3322 
Q 3641 2881 3436 2590 
Q 3231 2300 2841 2188 
z
M 1259 4147 
L 1259 2491 
L 2053 2491 
Q 2509 2491 2742 2702 
Q 2975 2913 2975 3322 
Q 2975 3731 2742 3939 
Q 2509 4147 2053 4147 
L 1259 4147 
z
" transform="scale(0.015625)"/>
      <path id="DejaVuSans-45" d="M 628 4666 
L 3578 4666 
L 3578 4134 
L 1259 4134 
L 1259 2753 
L 3481 2753 
L 3481 2222 
L 1259 2222 
L 1259 531 
L 3634 531 
L 3634 0 
L 628 0 
L 628 4666 
z
" transform="scale(0.015625)"/>
     </defs>
     <use xlink:href="#DejaVuSans-50"/>
     <use xlink:href="#DejaVuSans-4d" x="60.302734"/>
     <use xlink:href="#DejaVuSans-46" x="146.582031"/>
     <use xlink:href="#DejaVuSans-2d" x="204.101562"/>
     <use xlink:href="#DejaVuSans-52" x="240.185547"/>
     <use xlink:href="#DejaVuSans-45" x="309.667969"/>
    </g>
   </g>
   <g id="legend_1">
    <g id="patch_12">
     <path d="M 511.8 105.994375 
L 601.265625 105.994375 
Q 603.265625 105.994375 603.265625 103.994375 
L 603.265625 60.96 
Q 603.265625 58.96 601.265625 58.96 
L 511.8 58.96 
Q 509.8 58.96 509.8 60.96 
L 509.8 103.994375 
Q 509.8 105.994375 511.8 105.994375 
z
" style="fill: #ffffff; opacity: 0.8; stroke: #cccccc; stroke-linejoin: miter"/>
    </g>
    <g id="line2d_30">
     <path d="M 513.8 67.058437 
L 523.8 67.058437 
L 533.8 67.058437 
" style="fill: none; stroke: #1f77b4; stroke-width: 1.5; stroke-linecap: square"/>
    </g>
    <g id="text_30">
     <!-- bias = 0.0 -->
     <g transform="translate(541.8 70.558437) scale(0.1 -0.1)">
      <defs>
       <path id="DejaVuSans-73" d="M 2834 3397 
L 2834 2853 
Q 2591 2978 2328 3040 
Q 2066 3103 1784 3103 
Q 1356 3103 1142 2972 
Q 928 2841 928 2578 
Q 928 2378 1081 2264 
Q 1234 2150 1697 2047 
L 1894 2003 
Q 2506 1872 2764 1633 
Q 3022 1394 3022 966 
Q 3022 478 2636 193 
Q 2250 -91 1575 -91 
Q 1294 -91 989 -36 
Q 684 19 347 128 
L 347 722 
Q 666 556 975 473 
Q 1284 391 1588 391 
Q 1994 391 2212 530 
Q 2431 669 2431 922 
Q 2431 1156 2273 1281 
Q 2116 1406 1581 1522 
L 1381 1569 
Q 847 1681 609 1914 
Q 372 2147 372 2553 
Q 372 3047 722 3315 
Q 1072 3584 1716 3584 
Q 2034 3584 2315 3537 
Q 2597 3491 2834 3397 
z
" transform="scale(0.015625)"/>
       <path id="DejaVuSans-3d" d="M 678 2906 
L 4684 2906 
L 4684 2381 
L 678 2381 
L 678 2906 
z
M 678 1631 
L 4684 1631 
L 4684 1100 
L 678 1100 
L 678 1631 
z
" transform="scale(0.015625)"/>
      </defs>
      <use xlink:href="#DejaVuSans-62"/>
      <use xlink:href="#DejaVuSans-69" x="63.476562"/>
      <use xlink:href="#DejaVuSans-61" x="91.259766"/>
      <use xlink:href="#DejaVuSans-73" x="152.539062"/>
      <use xlink:href="#DejaVuSans-20" x="204.638672"/>
      <use xlink:href="#DejaVuSans-3d" x="236.425781"/>
      <use xlink:href="#DejaVuSans-20" x="320.214844"/>
      <use xlink:href="#DejaVuSans-30" x="352.001953"/>
      <use xlink:href="#DejaVuSans-2e" x="415.625"/>
      <use xlink:href="#DejaVuSans-30" x="447.412109"/>
     </g>
    </g>
    <g id="line2d_31">
     <path d="M 513.8 81.736562 
L 523.8 81.736562 
L 533.8 81.736562 
" style="fill: none; stroke: #ff7f0e; stroke-width: 1.5; stroke-linecap: square"/>
    </g>
    <g id="text_31">
     <!-- bias = 0.05 -->
     <g transform="translate(541.8 85.236562) scale(0.1 -0.1)">
      <use xlink:href="#DejaVuSans-62"/>
      <use xlink:href="#DejaVuSans-69" x="63.476562"/>
      <use xlink:href="#DejaVuSans-61" x="91.259766"/>
      <use xlink:href="#DejaVuSans-73" x="152.539062"/>
      <use xlink:href="#DejaVuSans-20" x="204.638672"/>
      <use xlink:href="#DejaVuSans-3d" x="236.425781"/>
      <use xlink:href="#DejaVuSans-20" x="320.214844"/>
      <use xlink:href="#DejaVuSans-30" x="352.001953"/>
      <use xlink:href="#DejaVuSans-2e" x="415.625"/>
      <use xlink:href="#DejaVuSans-30" x="447.412109"/>
      <use xlink:href="#DejaVuSans-35" x="511.035156"/>
     </g>
    </g>
    <g id="line2d_32">
     <path d="M 513.8 96.414687 
L 523.8 96.414687 
L 533.8 96.414687 
" style="fill: none; stroke: #2ca02c; stroke-width: 1.5; stroke-linecap: square"/>
    </g>
    <g id="text_32">
     <!-- bias = 0.1 -->
     <g transform="translate(541.8 99.914687) scale(0.1 -0.1)">
      <use xlink:href="#DejaVuSans-62"/>
      <use xlink:href="#DejaVuSans-69" x="63.476562"/>
      <use xlink:href="#DejaVuSans-61" x="91.259766"/>
      <use xlink:href="#DejaVuSans-73" x="152.539062"/>
      <use xlink:href="#DejaVuSans-20" x="204.638672"/>
      <use xlink:href="#DejaVuSans-3d" x="236.425781"/>
      <use xlink:href="#DejaVuSans-20" x="320.214844"/>
      <use xlink:href="#DejaVuSans-30" x="352.001953"/>
      <use xlink:href="#DejaVuSans-2e" x="415.625"/>
      <use xlink:href="#DejaVuSans-31" x="447.412109"/>
     </g>
    </g>
   </g>
  </g>
 </g>
 <defs>
  <clipPath id="pfd5593b8f3">
   <rect x="72.84" y="53.96" width="351.2" height="362.8"/>
  </clipPath>
  <clipPath id="pa8511565c6">
   <rect x="504.8" y="53.96" width="351.2" height="362.8"/>
  </clipPath>
 </defs>
</svg>
