<?xml version="1.0" encoding="ISO-8859-1"?>
<!DOCTYPE svg PUBLIC "-//W3C//DTD SVG 1.0//EN" "http://www.w3.org/TR/2001/REC-SVG-20010904/DTD/svg10.dtd">
<!-- generated by Grace-5.1.25 -->
<svg xml:space="preserve" width="11.0000in" height="8.5000in" viewBox="0.0000 0.0000 792.0000 612.0000">
 <g transform="translate(0,612.0000) scale(1,-1)">
  <g style="fill:#FFFFFF; fill-rule:nonzero">
   <path  d="M0.0000,0.0000L0.0000,612.0000L792.0000,612.0000L792.0000,0.0000z"/>
  </g>
  <g style="fill:none; stroke:#000000; stroke-width:  0.9180; stroke-linecap:butt; stroke-linejoin:miter; stroke-dasharray:none">
   <path d="M91.8000,91.8000L91.8000,91.8000L92.1060,91.8000L92.1060,91.8000L92.4120,91.8000L92.4120,91.8000L92.7180,91.8000L92.7180,91.8000L93.0240,91.8000L93.0240,91.8000
            L93.3300,91.8000L93.3300,91.8000L93.6360,91.8000L93.6360,91.8000L93.9420,91.8000L93.9420,91.8000L94.2480,91.8000L94.2480,91.8000L94.5540,91.8000L94.5540,91.8000
            L94.8600,91.8000L94.8600,91.8000L95.1660,91.8000L95.1660,91.8000L95.4720,91.8000L95.4720,91.8000L95.7780,91.8000L95.7780,91.8000L96.0840,91.8000L96.0840,91.8000
            L96.3900,91.8000L96.3900,91.8000L96.6960,91.8000L96.6960,91.8000L97.0020,91.8000L97.0020,91.8000L97.3080,91.8000L97.3080,91.8000L97.6140,91.8000L97.6140,91.8000
            L97.9200,91.8000L97.9200,91.8000L98.2260,91.8000L98.2260,91.8000L98.5320,91.8000L98.5320,91.8000L98.8380,91.8000L98.8380,91.8000L99.1440,91.8000L99.1440,91.8000
            L99.4500,91.8000L99.4500,91.8000L99.7560,91.8000L99.7560,91.8000L100.0620,91.8000L100.0620,91.8000L100.3680,91.8000L100.3680,91.8000L100.6740,91.8000L100.6740,91.8000
            L100.9800,91.8000L100.9800,91.8000L101.2860,91.8000L101.2860,91.8000L101.5920,91.8000L101.5920,91.8000L101.8980,91.8000L101.8980,91.8000L102.2040,91.8000L102.2040,91.8000
            L102.5100,91.8000L102.5100,91.8000L102.8160,91.8000L102.8160,91.8000L103.1220,91.8000L103.1220,91.8000L103.4280,91.8000L103.4280,91.8000L103.7340,91.8000L103.7340,91.8000
            L104.0400,91.8000L104.0400,91.8000L104.3460,91.8000L104.3460,91.8000L104.6520,91.8000L104.6520,91.8000L104.9580,91.8000L104.9580,91.8000L105.2640,91.8000L105.2640,91.8000
            L105.5700,91.8000L105.5700,91.8000L105.8760,91.8000L105.8760,91.8000L106.1820,91.8000L106.1820,91.8000L106.4880,91.8000L106.4880,91.8000L106.7940,91.8000L106.7940,91.8000
            L107.1000,91.8000L107.1000,91.8000L107.4060,91.8000L107.4060,91.8000L107.7120,91.8000L107.7120,91.8000L108.0180,91.8000L108.0180,91.8000L108.3240,91.8000L108.3240,91.8000
            L108.6300,91.8000L108.6300,91.8000L108.9360,91.8000L108.9360,91.8000L109.2420,91.8000L109.2420,91.8000L109.5480,91.8000L109.5480,91.8000L109.8540,91.8000L109.8540,91.8000
            L110.1600,91.8000L110.1600,91.8000L110.4660,91.8000L110.4660,91.8000L110.7720,91.8000L110.7720,91.8000L111.0780,91.8000L111.0780,91.8000L111.3840,91.8000L111.3840,91.8000
            L111.6900,91.8000L111.6900,91.8000L111.9960,91.8000L111.9960,91.8000L112.3020,91.8000L112.3020,91.8000L112.6080,91.8000L112.6080,91.8000L112.9140,91.8000L112.9140,91.8000
            L113.2200,91.8000L113.2200,91.8000L113.5260,91.8000L113.5260,91.8000L113.8320,91.8000L113.8320,91.8000L114.1380,91.8000L114.1380,91.8000L114.4440,91.8000L114.4440,91.8000
            L114.7500,91.8000L114.7500,91.8000L115.0560,91.8000L115.0560,91.8000L115.3620,91.8000L115.3620,91.8000L115.6680,91.8000L115.6680,91.8000L115.9740,91.8000L115.9740,91.8000
            L116.2800,91.8000L116.2800,91.8000L116.5860,91.8000L116.5860,91.8000L116.8920,91.8000L116.8920,91.8000L117.1980,91.8000L117.1980,91.8000L117.5040,91.8000L117.5040,91.8000
            L117.8100,91.8000L117.8100,91.8000L118.1160,91.8000L118.1160,91.8000L118.4220,91.8000L118.4220,91.8000L118.7280,91.8000L118.7280,91.8000L119.0340,91.8000L119.0340,91.8000
            L119.3400,91.8000L119.3400,91.8000L119.6460,91.8000L119.6460,91.8000L119.9520,91.8000L119.9520,91.8000L120.2580,91.8000L120.2580,91.8000L120.5640,91.8000L120.5640,91.8000
            L120.8700,91.8000L120.8700,91.8000L121.1760,91.8000L121.1760,91.8000L121.4820,91.8000L121.4820,91.8000L121.7880,91.8000L121.7880,91.8000L122.0940,91.8000L122.0940,91.8000
            L122.4000,91.8000L122.4000,91.8000L122.7060,91.8000L122.7060,91.8000L123.0120,91.8000L123.0120,91.8000L123.3180,91.8000L123.3180,91.8000L123.6240,91.8000L123.6240,91.8000
            L123.9300,91.8000L123.9300,91.8000L124.2360,91.8000L124.2360,91.8000L124.5420,91.8000L124.5420,91.8000L124.8480,91.8000L124.8480,91.8000L125.1540,91.8000L125.1540,91.8000
            L125.4600,91.8000L125.4600,91.8000L125.7660,91.8000L125.7660,91.8000L126.0720,91.8000L126.0720,91.8000L126.3780,91.8000L126.3780,91.8000L126.6840,91.8000L126.6840,92.0142
            L126.9900,92.0142L126.9900,92.0142L127.2960,92.0142L127.2960,91.8000L127.6020,91.8000L127.6020,91.8000L127.9080,91.8000L127.9080,92.0142L128.2140,92.0142L128.2140,92.0142
            L128.5200,92.0142L128.5200,91.8000L128.8260,91.8000L128.8260,92.0142L129.1320,92.0142L129.1320,92.2284L129.4380,92.2284L129.4380,91.8000L129.7440,91.8000L129.7440,92.2284
            L130.0500,92.2284L130.0500,91.8000L130.3560,91.8000L130.3560,91.8000L130.6620,91.8000L130.6620,91.8000L130.9680,91.8000L130.9680,92.0142L131.2740,92.0142L131.2740,92.0142
            L131.5800,92.0142L131.5800,92.2284L131.8860,92.2284L131.8860,92.0142L132.1920,92.0142L132.1920,92.0142L132.4980,92.0142L132.4980,92.0142L132.8040,92.0142L132.8040,91.8000
            L133.1100,91.8000L133.1100,92.0142L133.4160,92.0142L133.4160,91.8000L133.7220,91.8000L133.7220,91.8000L134.0280,91.8000L134.0280,92.2284L134.3340,92.2284L134.3340,92.4426
            L134.6400,92.4426L134.6400,92.0142L134.9460,92.0142L134.9460,92.4426L135.2520,92.4426L135.2520,92.2284L135.5580,92.2284L135.5580,91.8000L135.8640,91.8000L135.8640,92.2284
            L136.1700,92.2284L136.1700,92.2284L136.4760,92.2284L136.4760,92.4426L136.7820,92.4426L136.7820,92.4426L137.0880,92.4426L137.0880,92.2284L137.3940,92.2284L137.3940,92.2284
            L137.7000,92.2284L137.7000,92.6568L138.0060,92.6568L138.0060,92.2284L138.3120,92.2284L138.3120,92.0142L138.6180,92.0142L138.6180,92.4426L138.9240,92.4426L138.9240,91.8000
            L139.2300,91.8000L139.2300,92.6568L139.5360,92.6568L139.5360,92.2284L139.8420,92.2284L139.8420,92.2284L140.1480,92.2284L140.1480,92.6568L140.4540,92.6568L140.4540,92.8710
            L140.7600,92.8710L140.7600,92.4426L141.0660,92.4426L141.0660,92.4426L141.3720,92.4426L141.3720,92.6568L141.6780,92.6568L141.6780,93.0852L141.9840,93.0852L141.9840,92.6568
            L142.2900,92.6568L142.2900,92.8710L142.5960,92.8710L142.5960,92.6568L142.9020,92.6568L142.9020,92.4426L143.2080,92.4426L143.2080,92.8710L143.5140,92.8710L143.5140,93.2994
            L143.8200,93.2994L143.8200,92.2284L144.1260,92.2284L144.1260,92.8710L144.4320,92.8710L144.4320,93.5136L144.7380,93.5136L144.7380,93.5136L145.0440,93.5136L145.0440,92.8710
            L145.3500,92.8710L145.3500,93.5136L145.6560,93.5136L145.6560,94.1562L145.9620,94.1562L145.9620,93.5136L146.2680,93.5136L146.2680,92.4426L146.5740,92.4426L146.5740,92.8710
            L146.8800,92.8710L146.8800,94.3704L147.1860,94.3704L147.1860,93.7278L147.4920,93.7278L147.4920,94.7988L147.7980,94.7988L147.7980,93.0852L148.1040,93.0852L148.1040,93.7278
            L148.4100,93.7278L148.4100,92.8710L148.7160,92.8710L148.7160,93.0852L149.0220,93.0852L149.0220,94.3704L149.3280,94.3704L149.3280,93.7278L149.6340,93.7278L149.6340,93.5136
            L149.9400,93.5136L149.9400,93.2994L150.2460,93.2994L150.2460,93.0852L150.5520,93.0852L150.5520,93.2994L150.8580,93.2994L150.8580,94.1562L151.1640,94.1562L151.1640,93.2994
            L151.4700,93.2994L151.4700,93.2994L151.7760,93.2994L151.7760,93.0852L152.0820,93.0852L152.0820,94.5846L152.3880,94.5846L152.3880,93.5136L152.6940,93.5136L152.6940,95.6556
            L153.0000,95.6556L153.0000,95.6556L153.3060,95.6556L153.3060,94.1562L153.6120,94.1562L153.6120,93.9420L153.9180,93.9420L153.9180,95.0130L154.2240,95.0130L154.2240,95.0130
            L154.5300,95.0130L154.5300,94.5846L154.8360,94.5846L154.8360,95.4414L155.1420,95.4414L155.1420,96.2982L155.4480,96.2982L155.4480,95.6556L155.7540,95.6556L155.7540,96.7266
            L156.0600,96.7266L156.0600,95.8698L156.3660,95.8698L156.3660,97.5834L156.6720,97.5834L156.6720,96.7266L156.9780,96.7266L156.9780,97.5834L157.2840,97.5834L157.2840,96.5124
            L157.5900,96.5124L157.5900,99.5112L157.8960,99.5112L157.8960,97.7976L158.2020,97.7976L158.2020,96.0840L158.5080,96.0840L158.5080,99.7254L158.8140,99.7254L158.8140,95.4414
            L159.1200,95.4414L159.1200,98.6544L159.4260,98.6544L159.4260,98.8686L159.7320,98.8686L159.7320,99.5112L160.0380,99.5112L160.0380,98.6544L160.3440,98.6544L160.3440,98.8686
            L160.6500,98.8686L160.6500,100.1538L160.9560,100.1538L160.9560,101.4390L161.2620,101.4390L161.2620,101.6532L161.5680,101.6532L161.5680,102.9384L161.8740,102.9384L161.8740,101.6532
            L162.1800,101.6532L162.1800,98.8686L162.4860,98.8686L162.4860,99.9396L162.7920,99.9396L162.7920,99.9396L163.0980,99.9396L163.0980,102.7242L163.4040,102.7242L163.4040,104.0094
            L163.7100,104.0094L163.7100,103.5810L164.0160,103.5810L164.0160,103.3668L164.3220,103.3668L164.3220,105.2946L164.6280,105.2946L164.6280,103.5810L164.9340,103.5810L164.9340,102.7242
            L165.2400,102.7242L165.2400,101.0106L165.5460,101.0106L165.5460,104.4378L165.8520,104.4378L165.8520,103.3668L166.1580,103.3668L166.1580,103.5810L166.4640,103.5810L166.4640,101.6532
            L166.7700,101.6532L166.7700,101.8674L167.0760,101.8674L167.0760,105.0804L167.3820,105.0804L167.3820,103.3668L167.6880,103.3668L167.6880,106.3656L167.9940,106.3656L167.9940,103.5810
            L168.3000,103.5810L168.3000,107.6508L168.6060,107.6508L168.6060,106.7940L168.9120,106.7940L168.9120,104.6520L169.2180,104.6520L169.2180,107.2224L169.5240,107.2224L169.5240,106.3656
            L169.8300,106.3656L169.8300,104.8662L170.1360,104.8662L170.1360,106.3656L170.4420,106.3656L170.4420,107.8650L170.7480,107.8650L170.7480,107.4366L171.0540,107.4366L171.0540,106.5798
            L171.3600,106.5798L171.3600,108.5076L171.6660,108.5076L171.6660,112.1490L171.9720,112.1490L171.9720,108.9360L172.2780,108.9360L172.2780,110.8638L172.5840,110.8638L172.5840,110.6496
            L172.8900,110.6496L172.8900,112.5774L173.1960,112.5774L173.1960,110.6496L173.5020,110.6496L173.5020,116.2188L173.8080,116.2188L173.8080,117.7182L174.1140,117.7182L174.1140,112.5774
            L174.4200,112.5774L174.4200,116.6472L174.7260,116.6472L174.7260,114.9336L175.0320,114.9336L175.0320,121.1454L175.3380,121.1454L175.3380,120.5028L175.6440,120.5028L175.6440,117.5040
            L175.9500,117.5040L175.9500,122.0022L176.2560,122.0022L176.2560,118.7892L176.5620,118.7892L176.5620,120.2886L176.8680,120.2886L176.8680,124.3584L177.1740,124.3584L177.1740,122.4306
            L177.4800,122.4306L177.4800,120.5028L177.7860,120.5028L177.7860,126.0720L178.0920,126.0720L178.0920,129.2850L178.3980,129.2850L178.3980,128.4282L178.7040,128.4282L178.7040,130.7844
            L179.0100,130.7844L179.0100,133.9974L179.3160,133.9974L179.3160,130.7844L179.6220,130.7844L179.6220,129.0708L179.9280,129.0708L179.9280,135.0684L180.2340,135.0684L180.2340,141.2802
            L180.5400,141.2802L180.5400,136.9962L180.8460,136.9962L180.8460,141.7086L181.1520,141.7086L181.1520,138.2814L181.4580,138.2814L181.4580,144.2790L181.7640,144.2790L181.7640,148.7772
            L182.0700,148.7772L182.0700,144.2790L182.3760,144.2790L182.3760,149.2056L182.6820,149.2056L182.6820,143.4222L182.9880,143.4222L182.9880,149.4198L183.2940,149.4198L183.2940,144.0648
            L183.6000,144.0648L183.6000,160.1298L183.9060,160.1298L183.9060,151.7760L184.2120,151.7760L184.2120,164.4138L184.5180,164.4138L184.5180,158.4162L184.8240,158.4162L184.8240,158.2020
            L185.1300,158.2020L185.1300,152.2044L185.4360,152.2044L185.4360,164.6280L185.7420,164.6280L185.7420,170.8398L186.0480,170.8398L186.0480,168.0552L186.3540,168.0552L186.3540,163.3428
            L186.6600,163.3428L186.6600,175.7664L186.9660,175.7664L186.9660,168.6978L187.2720,168.6978L187.2720,171.6966L187.5780,171.6966L187.5780,182.6208L187.8840,182.6208L187.8840,186.4764
            L188.1900,186.4764L188.1900,185.4054L188.4960,185.4054L188.4960,191.4030L188.8020,191.4030L188.8020,183.2634L189.1080,183.2634L189.1080,191.6172L189.4140,191.6172L189.4140,201.8988
            L189.7200,201.8988L189.7200,198.6858L190.0260,198.6858L190.0260,202.9698L190.3320,202.9698L190.3320,206.3970L190.6380,206.3970L190.6380,191.6172L190.9440,191.6172L190.9440,203.3982
            L191.2500,203.3982L191.2500,199.1142L191.5560,199.1142L191.5560,212.1804L191.8620,212.1804L191.8620,219.2490L192.1680,219.2490L192.1680,213.2514L192.4740,213.2514L192.4740,222.6762
            L192.7800,222.6762L192.7800,227.1744L193.0860,227.1744L193.0860,226.9602L193.3920,226.9602L193.3920,228.4596L193.6980,228.4596L193.6980,229.9590L194.0040,229.9590L194.0040,230.1732
            L194.3100,230.1732L194.3100,228.8880L194.6160,228.8880L194.6160,243.2394L194.9220,243.2394L194.9220,233.3862L195.2280,233.3862L195.2280,253.9494L195.5340,253.9494L195.5340,252.0216
            L195.8400,252.0216L195.8400,236.1708L196.1460,236.1708L196.1460,237.2418L196.4520,237.2418L196.4520,240.4548L196.7580,240.4548L196.7580,238.7412L197.0640,238.7412L197.0640,249.0228
            L197.3700,249.0228L197.3700,243.0252L197.6760,243.0252L197.6760,249.6654L197.9820,249.6654L197.9820,243.6678L198.2880,243.6678L198.2880,255.2346L198.5940,255.2346L198.5940,247.0950
            L198.9000,247.0950L198.9000,250.9506L199.2060,250.9506L199.2060,262.9458L199.5120,262.9458L199.5120,268.0866L199.8180,268.0866L199.8180,262.9458L200.1240,262.9458L200.1240,253.5210
            L200.4300,253.5210L200.4300,267.0156L200.7360,267.0156L200.7360,266.8014L201.0420,266.8014L201.0420,263.1600L201.3480,263.1600L201.3480,267.0156L201.6540,267.0156L201.6540,264.0168
            L201.9600,264.0168L201.9600,265.0878L202.2660,265.0878L202.2660,277.5114L202.5720,277.5114L202.5720,277.9398L202.8780,277.9398L202.8780,276.0120L203.1840,276.0120L203.1840,281.1528
            L203.4900,281.1528L203.4900,285.4368L203.7960,285.4368L203.7960,276.4404L204.1020,276.4404L204.1020,285.4368L204.4080,285.4368L204.4080,284.7942L204.7140,284.7942L204.7140,289.2924
            L205.0200,289.2924L205.0200,297.6462L205.3260,297.6462L205.3260,295.2900L205.6320,295.2900L205.6320,294.8616L205.9380,294.8616L205.9380,293.3622L206.2440,293.3622L206.2440,296.1468
            L206.5500,296.1468L206.5500,296.5752L206.8560,296.5752L206.8560,295.2900L207.1620,295.2900L207.1620,308.7846L207.4680,308.7846L207.4680,301.2876L207.7740,301.2876L207.7740,310.0698
            L208.0800,310.0698L208.0800,309.8556L208.3860,309.8556L208.3860,314.3538L208.6920,314.3538L208.6920,310.9266L208.9980,310.9266L208.9980,298.9314L209.3040,298.9314L209.3040,316.4958
            L209.6100,316.4958L209.6100,308.9988L209.9160,308.9988L209.9160,317.5668L210.2220,317.5668L210.2220,319.0662L210.5280,319.0662L210.5280,325.7064L210.8340,325.7064L210.8340,318.8520
            L211.1400,318.8520L211.1400,326.3490L211.4460,326.3490L211.4460,326.9916L211.7520,326.9916L211.7520,312.6402L212.0580,312.6402L212.0580,314.7822L212.3640,314.7822L212.3640,307.0710
            L212.6700,307.0710L212.6700,306.4284L212.9760,306.4284L212.9760,312.8544L213.2820,312.8544L213.2820,302.5728L213.5880,302.5728L213.5880,295.2900L213.8940,295.2900L213.8940,303.8580
            L214.2000,303.8580L214.2000,316.7100L214.5060,316.7100L214.5060,305.5716L214.8120,305.5716L214.8120,315.6390L215.1180,315.6390L215.1180,316.7100L215.4240,316.7100L215.4240,322.2792
            L215.7300,322.2792L215.7300,306.4284L216.0360,306.4284L216.0360,296.7894L216.3420,296.7894L216.3420,317.1384L216.6480,317.1384L216.6480,303.8580L216.9540,303.8580L216.9540,306.2142
            L217.2600,306.2142L217.2600,330.6330L217.5660,330.6330L217.5660,323.5644L217.8720,323.5644L217.8720,314.9964L218.1780,314.9964L218.1780,311.7834L218.4840,311.7834L218.4840,310.0698
            L218.7900,310.0698L218.7900,319.2804L219.0960,319.2804L219.0960,317.9952L219.4020,317.9952L219.4020,320.7798L219.7080,320.7798L219.7080,314.3538L220.0140,314.3538L220.0140,316.7100
            L220.3200,316.7100L220.3200,311.1408L220.6260,311.1408L220.6260,329.3478L220.9320,329.3478L220.9320,320.7798L221.2380,320.7798L221.2380,332.7750L221.5440,332.7750L221.5440,325.9206
            L221.8500,325.9206L221.8500,330.6330L222.1560,330.6330L222.1560,331.0614L222.4620,331.0614L222.4620,331.4898L222.7680,331.4898L222.7680,335.5596L223.0740,335.5596L223.0740,330.8472
            L223.3800,330.8472L223.3800,326.1348L223.6860,326.1348L223.6860,330.6330L223.9920,330.6330L223.9920,334.0602L224.2980,334.0602L224.2980,327.8484L224.6040,327.8484L224.6040,333.8460
            L224.9100,333.8460L224.9100,333.8460L225.2160,333.8460L225.2160,327.6342L225.5220,327.6342L225.5220,319.2804L225.8280,319.2804L225.8280,328.4910L226.1340,328.4910L226.1340,308.5704
            L226.4400,308.5704L226.4400,311.3550L226.7460,311.3550L226.7460,330.4188L227.0520,330.4188L227.0520,323.7786L227.3580,323.7786L227.3580,315.4248L227.6640,315.4248L227.6640,320.5656
            L227.9700,320.5656L227.9700,319.4946L228.2760,319.4946L228.2760,323.3502L228.5820,323.3502L228.5820,325.4922L228.8880,325.4922L228.8880,310.2840L229.1940,310.2840L229.1940,301.0734
            L229.5000,301.0734L229.5000,305.7858L229.8060,305.7858L229.8060,301.5018L230.1120,301.5018L230.1120,311.5692L230.4180,311.5692L230.4180,300.8592L230.7240,300.8592L230.7240,303.2154
            L231.0300,303.2154L231.0300,300.6450L231.3360,300.6450L231.3360,304.0722L231.6420,304.0722L231.6420,306.8568L231.9480,306.8568L231.9480,288.0072L232.2540,288.0072L232.2540,281.5812
            L232.5600,281.5812L232.5600,286.0794L232.8660,286.0794L232.8660,275.5836L233.1720,275.5836L233.1720,280.2960L233.4780,280.2960L233.4780,288.2214L233.7840,288.2214L233.7840,280.9386
            L234.0900,280.9386L234.0900,263.3742L234.3960,263.3742L234.3960,270.8712L234.7020,270.8712L234.7020,270.4428L235.0080,270.4428L235.0080,268.5150L235.3140,268.5150L235.3140,263.3742
            L235.6200,263.3742L235.6200,255.8772L235.9260,255.8772L235.9260,260.1612L236.2320,260.1612L236.2320,258.8760L236.5380,258.8760L236.5380,246.6666L236.8440,246.6666L236.8440,259.9470
            L237.1500,259.9470L237.1500,242.3826L237.4560,242.3826L237.4560,241.5258L237.7620,241.5258L237.7620,242.5968L238.0680,242.5968L238.0680,235.0998L238.3740,235.0998L238.3740,229.5306
            L238.6800,229.5306L238.6800,222.2478L238.9860,222.2478L238.9860,227.3886L239.2920,227.3886L239.2920,227.8170L239.5980,227.8170L239.5980,227.1744L239.9040,227.1744L239.9040,220.1058
            L240.2100,220.1058L240.2100,211.3236L240.5160,211.3236L240.5160,204.6834L240.8220,204.6834L240.8220,201.2562L241.1280,201.2562L241.1280,210.6810L241.4340,210.6810L241.4340,203.8266
            L241.7400,203.8266L241.7400,202.3272L242.0460,202.3272L242.0460,204.0408L242.3520,204.0408L242.3520,193.5450L242.6580,193.5450L242.6580,197.6148L242.9640,197.6148L242.9640,197.6148
            L243.2700,197.6148L243.2700,187.9758L243.5760,187.9758L243.5760,191.4030L243.8820,191.4030L243.8820,190.3320L244.1880,190.3320L244.1880,186.0480L244.4940,186.0480L244.4940,185.6196
            L244.8000,185.6196L244.8000,193.5450L245.1060,193.5450L245.1060,181.1214L245.4120,181.1214L245.4120,184.5486L245.7180,184.5486L245.7180,180.4788L246.0240,180.4788L246.0240,184.1202
            L246.3300,184.1202L246.3300,176.1948L246.6360,176.1948L246.6360,182.6208L246.9420,182.6208L246.9420,181.5498L247.2480,181.5498L247.2480,174.9096L247.5540,174.9096L247.5540,174.2670
            L247.8600,174.2670L247.8600,177.6942L248.1660,177.6942L248.1660,167.8410L248.4720,167.8410L248.4720,175.1238L248.7780,175.1238L248.7780,167.4126L249.0840,167.4126L249.0840,157.7736
            L249.3900,157.7736L249.3900,165.0564L249.6960,165.0564L249.6960,168.4836L250.0020,168.4836L250.0020,164.6280L250.3080,164.6280L250.3080,161.2008L250.6140,161.2008L250.6140,154.5606
            L250.9200,154.5606L250.9200,157.9878L251.2260,157.9878L251.2260,150.0624L251.5320,150.0624L251.5320,148.5630L251.8380,148.5630L251.8380,154.5606L252.1440,154.5606L252.1440,157.5594
            L252.4500,157.5594L252.4500,160.7724L252.7560,160.7724L252.7560,149.8482L253.0620,149.8482L253.0620,145.9926L253.3680,145.9926L253.3680,145.1358L253.6740,145.1358L253.6740,145.9926
            L253.9800,145.9926L253.9800,145.9926L254.2860,145.9926L254.2860,148.1346L254.5920,148.1346L254.5920,144.0648L254.8980,144.0648L254.8980,137.8530L255.2040,137.8530L255.2040,143.6364
            L255.5100,143.6364L255.5100,141.4944L255.8160,141.4944L255.8160,141.7086L256.1220,141.7086L256.1220,137.6388L256.4280,137.6388L256.4280,141.2802L256.7340,141.2802L256.7340,138.9240
            L257.0400,138.9240L257.0400,133.5690L257.3460,133.5690L257.3460,135.2826L257.6520,135.2826L257.6520,139.9950L257.9580,139.9950L257.9580,135.7110L258.2640,135.7110L258.2640,138.9240
            L258.5700,138.9240L258.5700,133.3548L258.8760,133.3548L258.8760,134.2116L259.1820,134.2116L259.1820,131.2128L259.4880,131.2128L259.4880,128.8566L259.7940,128.8566L259.7940,129.0708
            L260.1000,129.0708L260.1000,127.7856L260.4060,127.7856L260.4060,126.5004L260.7120,126.5004L260.7120,125.6436L261.0180,125.6436L261.0180,125.2152L261.3240,125.2152L261.3240,127.3572
            L261.6300,127.3572L261.6300,131.4270L261.9360,131.4270L261.9360,123.0732L262.2420,123.0732L262.2420,121.3596L262.5480,121.3596L262.5480,127.7856L262.8540,127.7856L262.8540,127.9998
            L263.1600,127.9998L263.1600,127.1430L263.4660,127.1430L263.4660,127.9998L263.7720,127.9998L263.7720,124.5726L264.0780,124.5726L264.0780,123.9300L264.3840,123.9300L264.3840,120.7170
            L264.6900,120.7170L264.6900,124.5726L264.9960,124.5726L264.9960,124.7868L265.3020,124.7868L265.3020,124.5726L265.6080,124.5726L265.6080,127.9998L265.9140,127.9998L265.9140,121.5738
            L266.2200,121.5738L266.2200,124.1442L266.5260,124.1442L266.5260,121.5738L266.8320,121.5738L266.8320,123.0732L267.1380,123.0732L267.1380,122.8590L267.4440,122.8590L267.4440,122.0022
            L267.7500,122.0022L267.7500,121.3596L268.0560,121.3596L268.0560,124.3584L268.3620,124.3584L268.3620,124.3584L268.6680,124.3584L268.6680,117.2898L268.9740,117.2898L268.9740,118.1466
            L269.2800,118.1466L269.2800,118.5750L269.5860,118.5750L269.5860,118.1466L269.8920,118.1466L269.8920,115.1478L270.1980,115.1478L270.1980,118.5750L270.5040,118.5750L270.5040,121.7880
            L270.8100,121.7880L270.8100,118.7892L271.1160,118.7892L271.1160,118.3608L271.4220,118.3608L271.4220,118.7892L271.7280,118.7892L271.7280,121.3596L272.0340,121.3596L272.0340,122.4306
            L272.3400,122.4306L272.3400,119.6460L272.6460,119.6460L272.6460,125.0010L272.9520,125.0010L272.9520,121.3596L273.2580,121.3596L273.2580,124.3584L273.5640,124.3584L273.5640,117.0756
            L273.8700,117.0756L273.8700,118.7892L274.1760,118.7892L274.1760,116.4330L274.4820,116.4330L274.4820,115.3620L274.7880,115.3620L274.7880,114.7194L275.0940,114.7194L275.0940,119.4318
            L275.4000,119.4318L275.4000,112.7916L275.7060,112.7916L275.7060,118.3608L276.0120,118.3608L276.0120,115.5762L276.3180,115.5762L276.3180,112.3632L276.6240,112.3632L276.6240,110.8638
            L276.9300,110.8638L276.9300,115.3620L277.2360,115.3620L277.2360,108.9360L277.5420,108.9360L277.5420,115.1478L277.8480,115.1478L277.8480,111.0780L278.1540,111.0780L278.1540,113.4342
            L278.4600,113.4342L278.4600,112.7916L278.7660,112.7916L278.7660,112.3632L279.0720,112.3632L279.0720,110.8638L279.3780,110.8638L279.3780,107.8650L279.6840,107.8650L279.6840,108.7218
            L279.9900,108.7218L279.9900,107.6508L280.2960,107.6508L280.2960,108.7218L280.6020,108.7218L280.6020,109.3644L280.9080,109.3644L280.9080,104.8662L281.2140,104.8662L281.2140,107.8650
            L281.5200,107.8650L281.5200,105.9372L281.8260,105.9372L281.8260,107.2224L282.1320,107.2224L282.1320,107.2224L282.4380,107.2224L282.4380,103.3668L282.7440,103.3668L282.7440,104.6520
            L283.0500,104.6520L283.0500,105.2946L283.3560,105.2946L283.3560,105.5088L283.6620,105.5088L283.6620,104.2236L283.9680,104.2236L283.9680,104.8662L284.2740,104.8662L284.2740,102.7242
            L284.5800,102.7242L284.5800,103.7952L284.8860,103.7952L284.8860,101.8674L285.1920,101.8674L285.1920,102.9384L285.4980,102.9384L285.4980,104.0094L285.8040,104.0094L285.8040,104.0094
            L286.1100,104.0094L286.1100,98.8686L286.4160,98.8686L286.4160,101.6532L286.7220,101.6532L286.7220,102.5100L287.0280,102.5100L287.0280,98.6544L287.3340,98.6544L287.3340,101.0106
            L287.6400,101.0106L287.6400,102.2958L287.9460,102.2958L287.9460,101.4390L288.2520,101.4390L288.2520,99.9396L288.5580,99.9396L288.5580,103.7952L288.8640,103.7952L288.8640,98.0118
            L289.1700,98.0118L289.1700,100.5822L289.4760,100.5822L289.4760,102.2958L289.7820,102.2958L289.7820,97.5834L290.0880,97.5834L290.0880,100.5822L290.3940,100.5822L290.3940,102.9384
            L290.7000,102.9384L290.7000,101.0106L291.0060,101.0106L291.0060,99.9396L291.3120,99.9396L291.3120,103.5810L291.6180,103.5810L291.6180,100.5822L291.9240,100.5822L291.9240,102.2958
            L292.2300,102.2958L292.2300,99.5112L292.5360,99.5112L292.5360,102.0816L292.8420,102.0816L292.8420,102.2958L293.1480,102.2958L293.1480,103.5810L293.4540,103.5810L293.4540,101.6532
            L293.7600,101.6532L293.7600,102.7242L294.0660,102.7242L294.0660,102.5100L294.3720,102.5100L294.3720,101.8674L294.6780,101.8674L294.6780,98.2260L294.9840,98.2260L294.9840,101.6532
            L295.2900,101.6532L295.2900,102.5100L295.5960,102.5100L295.5960,102.0816L295.9020,102.0816L295.9020,99.0828L296.2080,99.0828L296.2080,102.5100L296.5140,102.5100L296.5140,99.2970
            L296.8200,99.2970L296.8200,102.5100L297.1260,102.5100L297.1260,101.0106L297.4320,101.0106L297.4320,102.9384L297.7380,102.9384L297.7380,105.0804L298.0440,105.0804L298.0440,100.3680
            L298.3500,100.3680L298.3500,105.5088L298.6560,105.5088L298.6560,101.2248L298.9620,101.2248L298.9620,102.5100L299.2680,102.5100L299.2680,101.2248L299.5740,101.2248L299.5740,99.0828
            L299.8800,99.0828L299.8800,100.5822L300.1860,100.5822L300.1860,99.9396L300.4920,99.9396L300.4920,101.2248L300.7980,101.2248L300.7980,101.8674L301.1040,101.8674L301.1040,99.9396
            L301.4100,99.9396L301.4100,101.4390L301.7160,101.4390L301.7160,100.1538L302.0220,100.1538L302.0220,101.0106L302.3280,101.0106L302.3280,99.7254L302.6340,99.7254L302.6340,100.3680
            L302.9400,100.3680L302.9400,95.2272L303.2460,95.2272L303.2460,97.7976L303.5520,97.7976L303.5520,97.5834L303.8580,97.5834L303.8580,96.7266L304.1640,96.7266L304.1640,96.0840
            L304.4700,96.0840L304.4700,96.7266L304.7760,96.7266L304.7760,96.0840L305.0820,96.0840L305.0820,95.2272L305.3880,95.2272L305.3880,96.2982L305.6940,96.2982L305.6940,95.0130
            L306.0000,95.0130L306.0000,96.7266L306.3060,96.7266L306.3060,95.8698L306.6120,95.8698L306.6120,93.9420L306.9180,93.9420L306.9180,94.5846L307.2240,94.5846L307.2240,93.2994
            L307.5300,93.2994L307.5300,93.9420L307.8360,93.9420L307.8360,93.2994L308.1420,93.2994L308.1420,94.3704L308.4480,94.3704L308.4480,93.2994L308.7540,93.2994L308.7540,93.2994
            L309.0600,93.2994L309.0600,93.5136L309.3660,93.5136L309.3660,93.0852L309.6720,93.0852L309.6720,93.5136L309.9780,93.5136L309.9780,92.6568L310.2840,92.6568L310.2840,93.7278
            L310.5900,93.7278L310.5900,93.2994L310.8960,93.2994L310.8960,92.6568L311.2020,92.6568L311.2020,92.8710L311.5080,92.8710L311.5080,92.8710L311.8140,92.8710L311.8140,92.6568
            L312.1200,92.6568L312.1200,92.2284L312.4260,92.2284L312.4260,92.0142L312.7320,92.0142L312.7320,92.2284L313.0380,92.2284L313.0380,92.6568L313.3440,92.6568L313.3440,92.8710
            L313.6500,92.8710L313.6500,91.8000L313.9560,91.8000L313.9560,91.8000L314.2620,91.8000L314.2620,92.2284L314.5680,92.2284L314.5680,92.0142L314.8740,92.0142L314.8740,91.8000
            L315.1800,91.8000L315.1800,91.8000L315.4860,91.8000L315.4860,91.8000L315.7920,91.8000L315.7920,91.8000L316.0980,91.8000L316.0980,91.8000L316.4040,91.8000L316.4040,91.8000
            L316.7100,91.8000L316.7100,91.8000L317.0160,91.8000L317.0160,91.8000L317.3220,91.8000L317.3220,91.8000L317.6280,91.8000L317.6280,91.8000L317.9340,91.8000L317.9340,91.8000
            L318.2400,91.8000L318.2400,91.8000L318.5460,91.8000L318.5460,91.8000L318.8520,91.8000L318.8520,91.8000L319.1580,91.8000L319.1580,91.8000L319.4640,91.8000L319.4640,91.8000
            L319.7700,91.8000L319.7700,91.8000L320.0760,91.8000L320.0760,91.8000L320.3820,91.8000L320.3820,91.8000L320.6880,91.8000L320.6880,91.8000L320.9940,91.8000L320.9940,91.8000
            L321.3000,91.8000L321.3000,91.8000L321.6060,91.8000L321.6060,91.8000L321.9120,91.8000L321.9120,91.8000L322.2180,91.8000L322.2180,91.8000L322.5240,91.8000L322.5240,91.8000
            L322.8300,91.8000L322.8300,91.8000L323.1360,91.8000L323.1360,91.8000L323.4420,91.8000L323.4420,91.8000L323.7480,91.8000L323.7480,91.8000L324.0540,91.8000L324.0540,91.8000
            L324.3600,91.8000L324.3600,91.8000L324.6660,91.8000L324.6660,91.8000L324.9720,91.8000L324.9720,91.8000L325.2780,91.8000L325.2780,91.8000L325.5840,91.8000L325.5840,91.8000
            L325.8900,91.8000L325.8900,91.8000L326.1960,91.8000L326.1960,91.8000L326.5020,91.8000L326.5020,91.8000L326.8080,91.8000L326.8080,91.8000L327.1140,91.8000L327.1140,91.8000
            L327.4200,91.8000L327.4200,91.8000L327.7260,91.8000L327.7260,91.8000L328.0320,91.8000L328.0320,91.8000L328.3380,91.8000L328.3380,91.8000L328.6440,91.8000L328.6440,91.8000
            L328.9500,91.8000L328.9500,91.8000L329.2560,91.8000L329.2560,91.8000L329.5620,91.8000L329.5620,91.8000L329.8680,91.8000L329.8680,91.8000L330.1740,91.8000L330.1740,91.8000
            L330.4800,91.8000L330.4800,91.8000L330.7860,91.8000L330.7860,91.8000L331.0920,91.8000L331.0920,91.8000L331.3980,91.8000L331.3980,91.8000L331.7040,91.8000L331.7040,91.8000
            L332.0100,91.8000L332.0100,91.8000L332.3160,91.8000L332.3160,91.8000L332.6220,91.8000L332.6220,91.8000L332.9280,91.8000L332.9280,91.8000L333.2340,91.8000L333.2340,91.8000
            L333.5400,91.8000L333.5400,91.8000L333.8460,91.8000L333.8460,91.8000L334.1520,91.8000L334.1520,91.8000L334.4580,91.8000L334.4580,91.8000L334.7640,91.8000L334.7640,91.8000
            L335.0700,91.8000L335.0700,91.8000L335.3760,91.8000L335.3760,91.8000L335.6820,91.8000L335.6820,91.8000L335.9880,91.8000L335.9880,91.8000L336.2940,91.8000L336.2940,91.8000
            L336.6000,91.8000L336.6000,91.8000L336.9060,91.8000L336.9060,91.8000L337.2120,91.8000L337.2120,91.8000L337.5180,91.8000L337.5180,91.8000L337.8240,91.8000L337.8240,91.8000
            L338.1300,91.8000L338.1300,91.8000L338.4360,91.8000L338.4360,91.8000L338.7420,91.8000L338.7420,91.8000L339.0480,91.8000L339.0480,91.8000L339.3540,91.8000L339.3540,91.8000
            L339.6600,91.8000L339.6600,91.8000L339.9660,91.8000L339.9660,91.8000L340.2720,91.8000L340.2720,91.8000L340.5780,91.8000L340.5780,91.8000L340.8840,91.8000L340.8840,91.8000
            L341.1900,91.8000L341.1900,91.8000L341.4960,91.8000L341.4960,91.8000L341.8020,91.8000L341.8020,91.8000L342.1080,91.8000L342.1080,91.8000L342.4140,91.8000L342.4140,91.8000
            L342.7200,91.8000L342.7200,91.8000L343.0260,91.8000L343.0260,91.8000L343.3320,91.8000L343.3320,91.8000L343.6380,91.8000L343.6380,91.8000L343.9440,91.8000L343.9440,91.8000
            L344.2500,91.8000L344.2500,91.8000L344.5560,91.8000L344.5560,91.8000L344.8620,91.8000L344.8620,91.8000L345.1680,91.8000L345.1680,91.8000L345.4740,91.8000L345.4740,91.8000
            L345.7800,91.8000L345.7800,91.8000L346.0860,91.8000L346.0860,91.8000L346.3920,91.8000L346.3920,91.8000L346.6980,91.8000L346.6980,91.8000L347.0040,91.8000L347.0040,91.8000
            L347.3100,91.8000L347.3100,91.8000L347.6160,91.8000L347.6160,91.8000L347.9220,91.8000L347.9220,91.8000L348.2280,91.8000L348.2280,91.8000L348.5340,91.8000L348.5340,91.8000
            L348.8400,91.8000L348.8400,91.8000L349.1460,91.8000L349.1460,91.8000L349.4520,91.8000L349.4520,91.8000L349.7580,91.8000L349.7580,91.8000L350.0640,91.8000L350.0640,91.8000
            L350.3700,91.8000L350.3700,91.8000L350.6760,91.8000L350.6760,91.8000L350.9820,91.8000L350.9820,91.8000L351.2880,91.8000L351.2880,91.8000L351.5940,91.8000L351.5940,91.8000
            L351.9000,91.8000L351.9000,91.8000L352.2060,91.8000L352.2060,91.8000L352.5120,91.8000L352.5120,91.8000L352.8180,91.8000L352.8180,91.8000L353.1240,91.8000L353.1240,91.8000
            L353.4300,91.8000L353.4300,91.8000L353.7360,91.8000L353.7360,91.8000L354.0420,91.8000L354.0420,91.8000L354.3480,91.8000L354.3480,91.8000L354.6540,91.8000L354.6540,91.8000
            L354.9600,91.8000L354.9600,91.8000L355.2660,91.8000L355.2660,91.8000L355.5720,91.8000L355.5720,91.8000L355.8780,91.8000L355.8780,91.8000L356.1840,91.8000L356.1840,91.8000
            L356.4900,91.8000L356.4900,91.8000L356.7960,91.8000L356.7960,91.8000L357.1020,91.8000L357.1020,91.8000L357.4080,91.8000L357.4080,91.8000L357.7140,91.8000L357.7140,91.8000
            L358.0200,91.8000L358.0200,91.8000L358.3260,91.8000L358.3260,91.8000L358.6320,91.8000L358.6320,91.8000L358.9380,91.8000L358.9380,91.8000L359.2440,91.8000L359.2440,91.8000
            L359.5500,91.8000L359.5500,91.8000L359.8560,91.8000L359.8560,91.8000L360.1620,91.8000L360.1620,91.8000L360.4680,91.8000L360.4680,91.8000L360.7740,91.8000L360.7740,91.8000
            L361.0800,91.8000L361.0800,91.8000L361.3860,91.8000L361.3860,91.8000L361.6920,91.8000L361.6920,91.8000L361.9980,91.8000L361.9980,91.8000L362.3040,91.8000L362.3040,91.8000
            L362.6100,91.8000L362.6100,91.8000L362.9160,91.8000L362.9160,91.8000L363.2220,91.8000L363.2220,91.8000L363.5280,91.8000L363.5280,91.8000L363.8340,91.8000L363.8340,91.8000
            L364.1400,91.8000L364.1400,91.8000L364.4460,91.8000L364.4460,91.8000L364.7520,91.8000L364.7520,91.8000L365.0580,91.8000L365.0580,91.8000L365.3640,91.8000L365.3640,91.8000
            L365.6700,91.8000L365.6700,91.8000L365.9760,91.8000L365.9760,91.8000L366.2820,91.8000L366.2820,91.8000L366.5880,91.8000L366.5880,91.8000L366.8940,91.8000L366.8940,91.8000
            L367.2000,91.8000L367.2000,91.8000L367.5060,91.8000L367.5060,91.8000L367.8120,91.8000L367.8120,91.8000L368.1180,91.8000L368.1180,91.8000L368.4240,91.8000L368.4240,91.8000
            L368.7300,91.8000L368.7300,91.8000L369.0360,91.8000L369.0360,91.8000L369.3420,91.8000L369.3420,91.8000L369.6480,91.8000L369.6480,91.8000L369.9540,91.8000L369.9540,91.8000
            L370.2600,91.8000L370.2600,91.8000L370.5660,91.8000L370.5660,91.8000L370.8720,91.8000L370.8720,91.8000L371.1780,91.8000L371.1780,91.8000L371.4840,91.8000L371.4840,91.8000
            L371.7900,91.8000L371.7900,91.8000L372.0960,91.8000L372.0960,91.8000L372.4020,91.8000L372.4020,91.8000L372.7080,91.8000L372.7080,91.8000L373.0140,91.8000L373.0140,91.8000
            L373.3200,91.8000L373.3200,91.8000L373.6260,91.8000L373.6260,91.8000L373.9320,91.8000L373.9320,91.8000L374.2380,91.8000L374.2380,91.8000L374.5440,91.8000L374.5440,91.8000
            L374.8500,91.8000L374.8500,91.8000L375.1560,91.8000L375.1560,91.8000L375.4620,91.8000L375.4620,91.8000L375.7680,91.8000L375.7680,91.8000L376.0740,91.8000L376.0740,91.8000
            L376.3800,91.8000L376.3800,91.8000L376.6860,91.8000L376.6860,91.8000L376.9920,91.8000L376.9920,91.8000L377.2980,91.8000L377.2980,91.8000L377.6040,91.8000L377.6040,91.8000
            L377.9100,91.8000L377.9100,91.8000L378.2160,91.8000L378.2160,91.8000L378.5220,91.8000L378.5220,91.8000L378.8280,91.8000L378.8280,91.8000L379.1340,91.8000L379.1340,91.8000
            L379.4400,91.8000L379.4400,91.8000L379.7460,91.8000L379.7460,91.8000L380.0520,91.8000L380.0520,91.8000L380.3580,91.8000L380.3580,91.8000L380.6640,91.8000L380.6640,91.8000
            L380.9700,91.8000L380.9700,91.8000L381.2760,91.8000L381.2760,91.8000L381.5820,91.8000L381.5820,91.8000L381.8880,91.8000L381.8880,91.8000L382.1940,91.8000L382.1940,91.8000
            L382.5000,91.8000L382.5000,91.8000L382.8060,91.8000L382.8060,91.8000L383.1120,91.8000L383.1120,91.8000L383.4180,91.8000L383.4180,91.8000L383.7240,91.8000L383.7240,91.8000
            L384.0300,91.8000L384.0300,91.8000L384.3360,91.8000L384.3360,91.8000L384.6420,91.8000L384.6420,91.8000L384.9480,91.8000L384.9480,91.8000L385.2540,91.8000L385.2540,91.8000
            L385.5600,91.8000L385.5600,91.8000L385.8660,91.8000L385.8660,91.8000L386.1720,91.8000L386.1720,91.8000L386.4780,91.8000L386.4780,91.8000L386.7840,91.8000L386.7840,91.8000
            L387.0900,91.8000L387.0900,91.8000L387.3960,91.8000L387.3960,91.8000L387.7020,91.8000L387.7020,91.8000L388.0080,91.8000L388.0080,91.8000L388.3140,91.8000L388.3140,91.8000
            L388.6200,91.8000L388.6200,91.8000L388.9260,91.8000L388.9260,91.8000L389.2320,91.8000L389.2320,91.8000L389.5380,91.8000L389.5380,91.8000L389.8440,91.8000L389.8440,91.8000
            L390.1500,91.8000L390.1500,91.8000L390.4560,91.8000L390.4560,91.8000L390.7620,91.8000L390.7620,91.8000L391.0680,91.8000L391.0680,91.8000L391.3740,91.8000L391.3740,91.8000
            L391.6800,91.8000L391.6800,91.8000L391.9860,91.8000L391.9860,91.8000L392.2920,91.8000L392.2920,91.8000L392.5980,91.8000L392.5980,91.8000L392.9040,91.8000L392.9040,91.8000
            L393.2100,91.8000L393.2100,91.8000L393.5160,91.8000L393.5160,91.8000L393.8220,91.8000L393.8220,91.8000L394.1280,91.8000L394.1280,91.8000L394.4340,91.8000L394.4340,91.8000
            L394.7400,91.8000L394.7400,91.8000L395.0460,91.8000L395.0460,91.8000L395.3520,91.8000L395.3520,91.8000L395.6580,91.8000L395.6580,91.8000L395.9640,91.8000L395.9640,91.8000
            L396.2700,91.8000L396.2700,91.8000L396.5760,91.8000L396.5760,91.8000L396.8820,91.8000L396.8820,91.8000L397.1880,91.8000L397.1880,91.8000L397.4940,91.8000L397.4940,91.8000
            L397.8000,91.8000L397.8000,91.8000L398.1060,91.8000L398.1060,91.8000L398.4120,91.8000L398.4120,91.8000L398.7180,91.8000L398.7180,91.8000L399.0240,91.8000L399.0240,91.8000
            L399.3300,91.8000L399.3300,91.8000L399.6360,91.8000L399.6360,91.8000L399.9420,91.8000L399.9420,91.8000L400.2480,91.8000L400.2480,91.8000L400.5540,91.8000L400.5540,91.8000
            L400.8600,91.8000L400.8600,91.8000L401.1660,91.8000L401.1660,91.8000L401.4720,91.8000L401.4720,91.8000L401.7780,91.8000L401.7780,91.8000L402.0840,91.8000L402.0840,91.8000
            L402.3900,91.8000L402.3900,91.8000L402.6960,91.8000L402.6960,91.8000L403.0020,91.8000L403.0020,91.8000L403.3080,91.8000L403.3080,91.8000L403.6140,91.8000L403.6140,91.8000
            L403.9200,91.8000L403.9200,91.8000L404.2260,91.8000L404.2260,91.8000L404.5320,91.8000L404.5320,91.8000L404.8380,91.8000L404.8380,91.8000L405.1440,91.8000L405.1440,91.8000
            L405.4500,91.8000L405.4500,91.8000L405.7560,91.8000L405.7560,91.8000L406.0620,91.8000L406.0620,91.8000L406.3680,91.8000L406.3680,91.8000L406.6740,91.8000L406.6740,91.8000
            L406.9800,91.8000L406.9800,91.8000L407.2860,91.8000L407.2860,91.8000L407.5920,91.8000L407.5920,91.8000L407.8980,91.8000L407.8980,91.8000L408.2040,91.8000L408.2040,91.8000
            L408.5100,91.8000L408.5100,91.8000L408.8160,91.8000L408.8160,91.8000L409.1220,91.8000L409.1220,91.8000L409.4280,91.8000L409.4280,91.8000L409.7340,91.8000L409.7340,91.8000
            L410.0400,91.8000L410.0400,91.8000L410.3460,91.8000L410.3460,91.8000L410.6520,91.8000L410.6520,91.8000L410.9580,91.8000L410.9580,91.8000L411.2640,91.8000L411.2640,91.8000
            L411.5700,91.8000L411.5700,91.8000L411.8760,91.8000L411.8760,91.8000L412.1820,91.8000L412.1820,91.8000L412.4880,91.8000L412.4880,91.8000L412.7940,91.8000L412.7940,91.8000
            L413.1000,91.8000L413.1000,91.8000L413.4060,91.8000L413.4060,91.8000L413.7120,91.8000L413.7120,91.8000L414.0180,91.8000L414.0180,91.8000L414.3240,91.8000L414.3240,91.8000
            L414.6300,91.8000L414.6300,91.8000L414.9360,91.8000L414.9360,91.8000L415.2420,91.8000L415.2420,91.8000L415.5480,91.8000L415.5480,91.8000L415.8540,91.8000L415.8540,91.8000
            L416.1600,91.8000L416.1600,91.8000L416.4660,91.8000L416.4660,91.8000L416.7720,91.8000L416.7720,91.8000L417.0780,91.8000L417.0780,91.8000L417.3840,91.8000L417.3840,91.8000
            L417.6900,91.8000L417.6900,91.8000L417.9960,91.8000L417.9960,91.8000L418.3020,91.8000L418.3020,91.8000L418.6080,91.8000L418.6080,91.8000L418.9140,91.8000L418.9140,91.8000
            L419.2200,91.8000L419.2200,91.8000L419.5260,91.8000L419.5260,91.8000L419.8320,91.8000L419.8320,91.8000L420.1380,91.8000L420.1380,91.8000L420.4440,91.8000L420.4440,91.8000
            L420.7500,91.8000L420.7500,91.8000L421.0560,91.8000L421.0560,91.8000L421.3620,91.8000L421.3620,91.8000L421.6680,91.8000L421.6680,91.8000L421.9740,91.8000L421.9740,91.8000
            L422.2800,91.8000L422.2800,91.8000L422.5860,91.8000L422.5860,91.8000L422.8920,91.8000L422.8920,91.8000L423.1980,91.8000L423.1980,91.8000L423.5040,91.8000L423.5040,91.8000
            L423.8100,91.8000L423.8100,91.8000L424.1160,91.8000L424.1160,91.8000L424.4220,91.8000L424.4220,91.8000L424.7280,91.8000L424.7280,91.8000L425.0340,91.8000L425.0340,91.8000
            L425.3400,91.8000L425.3400,91.8000L425.6460,91.8000L425.6460,91.8000L425.9520,91.8000L425.9520,91.8000L426.2580,91.8000L426.2580,91.8000L426.5640,91.8000L426.5640,91.8000
            L426.8700,91.8000L426.8700,91.8000L427.1760,91.8000L427.1760,91.8000L427.4820,91.8000L427.4820,91.8000L427.7880,91.8000L427.7880,91.8000L428.0940,91.8000L428.0940,91.8000
            L428.4000,91.8000L428.4000,91.8000L428.7060,91.8000L428.7060,91.8000L429.0120,91.8000L429.0120,91.8000L429.3180,91.8000L429.3180,91.8000L429.6240,91.8000L429.6240,91.8000
            L429.9300,91.8000L429.9300,91.8000L430.2360,91.8000L430.2360,91.8000L430.5420,91.8000L430.5420,91.8000L430.8480,91.8000L430.8480,91.8000L431.1540,91.8000L431.1540,91.8000
            L431.4600,91.8000L431.4600,91.8000L431.7660,91.8000L431.7660,91.8000L432.0720,91.8000L432.0720,91.8000L432.3780,91.8000L432.3780,91.8000L432.6840,91.8000L432.6840,91.8000
            L432.9900,91.8000L432.9900,91.8000L433.2960,91.8000L433.2960,91.8000L433.6020,91.8000L433.6020,91.8000L433.9080,91.8000L433.9080,91.8000L434.2140,91.8000L434.2140,91.8000
            L434.5200,91.8000L434.5200,91.8000L434.8260,91.8000L434.8260,91.8000L435.1320,91.8000L435.1320,91.8000L435.4380,91.8000L435.4380,91.8000L435.7440,91.8000L435.7440,91.8000
            L436.0500,91.8000L436.0500,91.8000L436.3560,91.8000L436.3560,91.8000L436.6620,91.8000L436.6620,91.8000L436.9680,91.8000L436.9680,91.8000L437.2740,91.8000L437.2740,91.8000
            L437.5800,91.8000L437.5800,91.8000L437.8860,91.8000L437.8860,91.8000L438.1920,91.8000L438.1920,91.8000L438.4980,91.8000L438.4980,91.8000L438.8040,91.8000L438.8040,91.8000
            L439.1100,91.8000L439.1100,91.8000L439.4160,91.8000L439.4160,91.8000L439.7220,91.8000L439.7220,91.8000L440.0280,91.8000L440.0280,91.8000L440.3340,91.8000L440.3340,91.8000
            L440.6400,91.8000L440.6400,91.8000L440.9460,91.8000L440.9460,91.8000L441.2520,91.8000L441.2520,91.8000L441.5580,91.8000L441.5580,91.8000L441.8640,91.8000L441.8640,91.8000
            L442.1700,91.8000L442.1700,91.8000L442.4760,91.8000L442.4760,91.8000L442.7820,91.8000L442.7820,91.8000L443.0880,91.8000L443.0880,91.8000L443.3940,91.8000L443.3940,91.8000
            L443.7000,91.8000L443.7000,91.8000L444.0060,91.8000L444.0060,91.8000L444.3120,91.8000L444.3120,91.8000L444.6180,91.8000L444.6180,91.8000L444.9240,91.8000L444.9240,91.8000
            L445.2300,91.8000L445.2300,91.8000L445.5360,91.8000L445.5360,91.8000L445.8420,91.8000L445.8420,91.8000L446.1480,91.8000L446.1480,91.8000L446.4540,91.8000L446.4540,91.8000
            L446.7600,91.8000L446.7600,91.8000L447.0660,91.8000L447.0660,91.8000L447.3720,91.8000L447.3720,91.8000L447.6780,91.8000L447.6780,91.8000L447.9840,91.8000L447.9840,91.8000
            L448.2900,91.8000L448.2900,91.8000L448.5960,91.8000L448.5960,91.8000L448.9020,91.8000L448.9020,91.8000L449.2080,91.8000L449.2080,91.8000L449.5140,91.8000L449.5140,91.8000
            L449.8200,91.8000L449.8200,91.8000L450.1260,91.8000L450.1260,91.8000L450.4320,91.8000L450.4320,91.8000L450.7380,91.8000L450.7380,91.8000L451.0440,91.8000L451.0440,91.8000
            L451.3500,91.8000L451.3500,91.8000L451.6560,91.8000L451.6560,91.8000L451.9620,91.8000L451.9620,91.8000L452.2680,91.8000L452.2680,91.8000L452.5740,91.8000L452.5740,91.8000
            L452.8800,91.8000L452.8800,91.8000L453.1860,91.8000L453.1860,91.8000L453.4920,91.8000L453.4920,91.8000L453.7980,91.8000L453.7980,91.8000L454.1040,91.8000L454.1040,91.8000
            L454.4100,91.8000L454.4100,91.8000L454.7160,91.8000L454.7160,91.8000L455.0220,91.8000L455.0220,91.8000L455.3280,91.8000L455.3280,91.8000L455.6340,91.8000L455.6340,91.8000
            L455.9400,91.8000L455.9400,91.8000L456.2460,91.8000L456.2460,91.8000L456.5520,91.8000L456.5520,91.8000L456.8580,91.8000L456.8580,91.8000L457.1640,91.8000L457.1640,91.8000
            L457.4700,91.8000L457.4700,91.8000L457.7760,91.8000L457.7760,91.8000L458.0820,91.8000L458.0820,91.8000L458.3880,91.8000L458.3880,91.8000L458.6940,91.8000L458.6940,91.8000
            L459.0000,91.8000L459.0000,91.8000L459.3060,91.8000L459.3060,91.8000L459.6120,91.8000L459.6120,91.8000L459.9180,91.8000L459.9180,91.8000L460.2240,91.8000L460.2240,91.8000
            L460.5300,91.8000L460.5300,91.8000L460.8360,91.8000L460.8360,91.8000L461.1420,91.8000L461.1420,91.8000L461.4480,91.8000L461.4480,91.8000L461.7540,91.8000L461.7540,91.8000
            L462.0600,91.8000L462.0600,91.8000L462.3660,91.8000L462.3660,91.8000L462.6720,91.8000L462.6720,91.8000L462.9780,91.8000L462.9780,91.8000L463.2840,91.8000L463.2840,91.8000
            L463.5900,91.8000L463.5900,91.8000L463.8960,91.8000L463.8960,91.8000L464.2020,91.8000L464.2020,91.8000L464.5080,91.8000L464.5080,91.8000L464.8140,91.8000L464.8140,91.8000
            L465.1200,91.8000L465.1200,91.8000L465.4260,91.8000L465.4260,91.8000L465.7320,91.8000L465.7320,91.8000L466.0380,91.8000L466.0380,91.8000L466.3440,91.8000L466.3440,91.8000
            L466.6500,91.8000L466.6500,91.8000L466.9560,91.8000L466.9560,91.8000L467.2620,91.8000L467.2620,91.8000L467.5680,91.8000L467.5680,91.8000L467.8740,91.8000L467.8740,91.8000
            L468.1800,91.8000L468.1800,91.8000L468.4860,91.8000L468.4860,91.8000L468.7920,91.8000L468.7920,91.8000L469.0980,91.8000L469.0980,91.8000L469.4040,91.8000L469.4040,91.8000
            L469.7100,91.8000L469.7100,91.8000L470.0160,91.8000L470.0160,91.8000L470.3220,91.8000L470.3220,91.8000L470.6280,91.8000L470.6280,91.8000L470.9340,91.8000L470.9340,91.8000
            L471.2400,91.8000L471.2400,91.8000L471.5460,91.8000L471.5460,91.8000L471.8520,91.8000L471.8520,91.8000L472.1580,91.8000L472.1580,91.8000L472.4640,91.8000L472.4640,91.8000
            L472.7700,91.8000L472.7700,91.8000L473.0760,91.8000L473.0760,91.8000L473.3820,91.8000L473.3820,91.8000L473.6880,91.8000L473.6880,91.8000L473.9940,91.8000L473.9940,91.8000
            L474.3000,91.8000L474.3000,91.8000L474.6060,91.8000L474.6060,91.8000L474.9120,91.8000L474.9120,91.8000L475.2180,91.8000L475.2180,91.8000L475.5240,91.8000L475.5240,91.8000
            L475.8300,91.8000L475.8300,91.8000L476.1360,91.8000L476.1360,91.8000L476.4420,91.8000L476.4420,91.8000L476.7480,91.8000L476.7480,91.8000L477.0540,91.8000L477.0540,91.8000
            L477.3600,91.8000L477.3600,91.8000L477.6660,91.8000L477.6660,91.8000L477.9720,91.8000L477.9720,91.8000L478.2780,91.8000L478.2780,91.8000L478.5840,91.8000L478.5840,91.8000
            L478.8900,91.8000L478.8900,91.8000L479.1960,91.8000L479.1960,91.8000L479.5020,91.8000L479.5020,91.8000L479.8080,91.8000L479.8080,91.8000L480.1140,91.8000L480.1140,91.8000
            L480.4200,91.8000L480.4200,91.8000L480.7260,91.8000L480.7260,91.8000L481.0320,91.8000L481.0320,91.8000L481.3380,91.8000L481.3380,91.8000L481.6440,91.8000L481.6440,91.8000
            L481.9500,91.8000L481.9500,91.8000L482.2560,91.8000L482.2560,91.8000L482.5620,91.8000L482.5620,91.8000L482.8680,91.8000L482.8680,91.8000L483.1740,91.8000L483.1740,91.8000
            L483.4800,91.8000L483.4800,91.8000L483.7860,91.8000L483.7860,91.8000L484.0920,91.8000L484.0920,91.8000L484.3980,91.8000L484.3980,91.8000L484.7040,91.8000L484.7040,91.8000
            L485.0100,91.8000L485.0100,91.8000L485.3160,91.8000L485.3160,91.8000L485.6220,91.8000L485.6220,91.8000L485.9280,91.8000L485.9280,91.8000L486.2340,91.8000L486.2340,91.8000
            L486.5400,91.8000L486.5400,91.8000L486.8460,91.8000L486.8460,91.8000L487.1520,91.8000L487.1520,91.8000L487.4580,91.8000L487.4580,91.8000L487.7640,91.8000L487.7640,91.8000
            L488.0700,91.8000L488.0700,91.8000L488.3760,91.8000L488.3760,91.8000L488.6820,91.8000L488.6820,91.8000L488.9880,91.8000L488.9880,91.8000L489.2940,91.8000L489.2940,91.8000
            L489.6000,91.8000L489.6000,91.8000L489.9060,91.8000L489.9060,91.8000L490.2120,91.8000L490.2120,91.8000L490.5180,91.8000L490.5180,91.8000L490.8240,91.8000L490.8240,91.8000
            L491.1300,91.8000L491.1300,91.8000L491.4360,91.8000L491.4360,91.8000L491.7420,91.8000L491.7420,91.8000L492.0480,91.8000L492.0480,91.8000L492.3540,91.8000L492.3540,91.8000
            L492.6600,91.8000L492.6600,91.8000L492.9660,91.8000L492.9660,91.8000L493.2720,91.8000L493.2720,91.8000L493.5780,91.8000L493.5780,91.8000L493.8840,91.8000L493.8840,91.8000
            L494.1900,91.8000L494.1900,91.8000L494.4960,91.8000L494.4960,91.8000L494.8020,91.8000L494.8020,91.8000L495.1080,91.8000L495.1080,91.8000L495.4140,91.8000L495.4140,91.8000
            L495.7200,91.8000L495.7200,91.8000L496.0260,91.8000L496.0260,91.8000L496.3320,91.8000L496.3320,91.8000L496.6380,91.8000L496.6380,91.8000L496.9440,91.8000L496.9440,91.8000
            L497.2500,91.8000L497.2500,91.8000L497.5560,91.8000L497.5560,91.8000L497.8620,91.8000L497.8620,91.8000L498.1680,91.8000L498.1680,91.8000L498.4740,91.8000L498.4740,91.8000
            L498.7800,91.8000L498.7800,91.8000L499.0860,91.8000L499.0860,91.8000L499.3920,91.8000L499.3920,91.8000L499.6980,91.8000L499.6980,91.8000L500.0040,91.8000L500.0040,91.8000
            L500.3100,91.8000L500.3100,91.8000L500.6160,91.8000L500.6160,91.8000L500.9220,91.8000L500.9220,91.8000L501.2280,91.8000L501.2280,91.8000L501.5340,91.8000L501.5340,91.8000
            L501.8400,91.8000L501.8400,91.8000L502.1460,91.8000L502.1460,91.8000L502.4520,91.8000L502.4520,91.8000L502.7580,91.8000L502.7580,91.8000L503.0640,91.8000L503.0640,91.8000
            L503.3700,91.8000L503.3700,91.8000L503.6760,91.8000L503.6760,91.8000L503.9820,91.8000L503.9820,91.8000L504.2880,91.8000L504.2880,91.8000L504.5940,91.8000L504.5940,91.8000
            L504.9000,91.8000L504.9000,91.8000L505.2060,91.8000L505.2060,91.8000L505.5120,91.8000L505.5120,91.8000L505.8180,91.8000L505.8180,91.8000L506.1240,91.8000L506.1240,91.8000
            L506.4300,91.8000L506.4300,91.8000L506.7360,91.8000L506.7360,91.8000L507.0420,91.8000L507.0420,91.8000L507.3480,91.8000L507.3480,91.8000L507.6540,91.8000L507.6540,91.8000
            L507.9600,91.8000L507.9600,91.8000L508.2660,91.8000L508.2660,91.8000L508.5720,91.8000L508.5720,91.8000L508.8780,91.8000L508.8780,91.8000L509.1840,91.8000L509.1840,91.8000
            L509.4900,91.8000L509.4900,91.8000L509.7960,91.8000L509.7960,91.8000L510.1020,91.8000L510.1020,91.8000L510.4080,91.8000L510.4080,91.8000L510.7140,91.8000L510.7140,91.8000
            L511.0200,91.8000L511.0200,91.8000L511.3260,91.8000L511.3260,91.8000L511.6320,91.8000L511.6320,91.8000L511.9380,91.8000L511.9380,91.8000L512.2440,91.8000L512.2440,91.8000
            L512.5500,91.8000L512.5500,91.8000L512.8560,91.8000L512.8560,91.8000L513.1620,91.8000L513.1620,91.8000L513.4680,91.8000L513.4680,91.8000L513.7740,91.8000L513.7740,91.8000
            L514.0800,91.8000L514.0800,91.8000L514.3860,91.8000L514.3860,91.8000L514.6920,91.8000L514.6920,91.8000L514.9980,91.8000L514.9980,91.8000L515.3040,91.8000L515.3040,91.8000
            L515.6100,91.8000L515.6100,91.8000L515.9160,91.8000L515.9160,91.8000L516.2220,91.8000L516.2220,91.8000L516.5280,91.8000L516.5280,91.8000L516.8340,91.8000L516.8340,91.8000
            L517.1400,91.8000L517.1400,91.8000L517.4460,91.8000L517.4460,91.8000L517.7520,91.8000L517.7520,91.8000L518.0580,91.8000L518.0580,91.8000L518.3640,91.8000L518.3640,91.8000
            L518.6700,91.8000L518.6700,91.8000L518.9760,91.8000L518.9760,91.8000L519.2820,91.8000L519.2820,91.8000L519.5880,91.8000L519.5880,91.8000L519.8940,91.8000L519.8940,91.8000
            L520.2000,91.8000L520.2000,91.8000L520.5060,91.8000L520.5060,91.8000L520.8120,91.8000L520.8120,91.8000L521.1180,91.8000L521.1180,91.8000L521.4240,91.8000L521.4240,91.8000
            L521.7300,91.8000L521.7300,91.8000L522.0360,91.8000L522.0360,91.8000L522.3420,91.8000L522.3420,91.8000L522.6480,91.8000L522.6480,91.8000L522.9540,91.8000L522.9540,91.8000
            L523.2600,91.8000L523.2600,91.8000L523.5660,91.8000L523.5660,91.8000L523.8720,91.8000L523.8720,91.8000L524.1780,91.8000L524.1780,91.8000L524.4840,91.8000L524.4840,91.8000
            L524.7900,91.8000L524.7900,91.8000L525.0960,91.8000L525.0960,91.8000L525.4020,91.8000L525.4020,91.8000L525.7080,91.8000L525.7080,91.8000L526.0140,91.8000L526.0140,91.8000
            L526.3200,91.8000L526.3200,91.8000L526.6260,91.8000L526.6260,91.8000L526.9320,91.8000L526.9320,91.8000L527.2380,91.8000L527.2380,91.8000L527.5440,91.8000L527.5440,91.8000
            L527.8500,91.8000L527.8500,91.8000L528.1560,91.8000L528.1560,91.8000L528.4620,91.8000L528.4620,91.8000L528.7680,91.8000L528.7680,91.8000L529.0740,91.8000L529.0740,91.8000
            L529.3800,91.8000L529.3800,91.8000L529.6860,91.8000L529.6860,91.8000L529.9920,91.8000L529.9920,91.8000L530.2980,91.8000L530.2980,91.8000L530.6040,91.8000L530.6040,91.8000
            L530.9100,91.8000L530.9100,91.8000L531.2160,91.8000L531.2160,91.8000L531.5220,91.8000L531.5220,91.8000L531.8280,91.8000L531.8280,91.8000L532.1340,91.8000L532.1340,91.8000
            L532.4400,91.8000L532.4400,91.8000L532.7460,91.8000L532.7460,91.8000L533.0520,91.8000L533.0520,91.8000L533.3580,91.8000L533.3580,91.8000L533.6640,91.8000L533.6640,91.8000
            L533.9700,91.8000L533.9700,91.8000L534.2760,91.8000L534.2760,91.8000L534.5820,91.8000L534.5820,91.8000L534.8880,91.8000L534.8880,91.8000L535.1940,91.8000L535.1940,91.8000
            L535.5000,91.8000L535.5000,91.8000L535.8060,91.8000L535.8060,91.8000L536.1120,91.8000L536.1120,91.8000L536.4180,91.8000L536.4180,91.8000L536.7240,91.8000L536.7240,91.8000
            L537.0300,91.8000L537.0300,91.8000L537.3360,91.8000L537.3360,91.8000L537.6420,91.8000L537.6420,91.8000L537.9480,91.8000L537.9480,91.8000L538.2540,91.8000L538.2540,91.8000
            L538.5600,91.8000L538.5600,91.8000L538.8660,91.8000L538.8660,91.8000L539.1720,91.8000L539.1720,91.8000L539.4780,91.8000L539.4780,91.8000L539.7840,91.8000L539.7840,91.8000
            L540.0900,91.8000L540.0900,91.8000L540.3960,91.8000L540.3960,91.8000L540.7020,91.8000L540.7020,91.8000L541.0080,91.8000L541.0080,91.8000L541.3140,91.8000L541.3140,91.8000
            L541.6200,91.8000L541.6200,91.8000L541.9260,91.8000L541.9260,91.8000L542.2320,91.8000L542.2320,91.8000L542.5380,91.8000L542.5380,91.8000L542.8440,91.8000L542.8440,91.8000
            L543.1500,91.8000L543.1500,91.8000L543.4560,91.8000L543.4560,91.8000L543.7620,91.8000L543.7620,91.8000L544.0680,91.8000L544.0680,91.8000L544.3740,91.8000L544.3740,91.8000
            L544.6800,91.8000L544.6800,91.8000L544.9860,91.8000L544.9860,91.8000L545.2920,91.8000L545.2920,91.8000L545.5980,91.8000L545.5980,91.8000L545.9040,91.8000L545.9040,91.8000
            L546.2100,91.8000L546.2100,91.8000L546.5160,91.8000L546.5160,91.8000L546.8220,91.8000L546.8220,91.8000L547.1280,91.8000L547.1280,91.8000L547.4340,91.8000L547.4340,91.8000
            L547.7400,91.8000L547.7400,91.8000L548.0460,91.8000L548.0460,91.8000L548.3520,91.8000L548.3520,91.8000L548.6580,91.8000L548.6580,91.8000L548.9640,91.8000L548.9640,91.8000
            L549.2700,91.8000L549.2700,91.8000L549.5760,91.8000L549.5760,91.8000L549.8820,91.8000L549.8820,91.8000L550.1880,91.8000L550.1880,91.8000L550.4940,91.8000L550.4940,91.8000
            L550.8000,91.8000L550.8000,91.8000L551.1060,91.8000L551.1060,91.8000L551.4120,91.8000L551.4120,91.8000L551.7180,91.8000L551.7180,91.8000L552.0240,91.8000L552.0240,91.8000
            L552.3300,91.8000L552.3300,91.8000L552.6360,91.8000L552.6360,91.8000L552.9420,91.8000L552.9420,91.8000L553.2480,91.8000L553.2480,91.8000L553.5540,91.8000L553.5540,91.8000
            L553.8600,91.8000L553.8600,91.8000L554.1660,91.8000L554.1660,91.8000L554.4720,91.8000L554.4720,91.8000L554.7780,91.8000L554.7780,91.8000L555.0840,91.8000L555.0840,91.8000
            L555.3900,91.8000L555.3900,91.8000L555.6960,91.8000L555.6960,91.8000L556.0020,91.8000L556.0020,91.8000L556.3080,91.8000L556.3080,91.8000L556.6140,91.8000L556.6140,91.8000
            L556.9200,91.8000L556.9200,91.8000L557.2260,91.8000L557.2260,91.8000L557.5320,91.8000L557.5320,91.8000L557.8380,91.8000L557.8380,91.8000L558.1440,91.8000L558.1440,91.8000
            L558.4500,91.8000L558.4500,91.8000L558.7560,91.8000L558.7560,91.8000L559.0620,91.8000L559.0620,91.8000L559.3680,91.8000L559.3680,91.8000L559.6740,91.8000L559.6740,91.8000
            L559.9800,91.8000L559.9800,91.8000L560.2860,91.8000L560.2860,91.8000L560.5920,91.8000L560.5920,91.8000L560.8980,91.8000L560.8980,91.8000L561.2040,91.8000L561.2040,91.8000
            L561.5100,91.8000L561.5100,91.8000L561.8160,91.8000L561.8160,91.8000L562.1220,91.8000L562.1220,91.8000L562.4280,91.8000L562.4280,91.8000L562.7340,91.8000L562.7340,91.8000
            L563.0400,91.8000L563.0400,91.8000L563.3460,91.8000L563.3460,91.8000L563.6520,91.8000L563.6520,91.8000L563.9580,91.8000L563.9580,91.8000L564.2640,91.8000L564.2640,91.8000
            L564.5700,91.8000L564.5700,91.8000L564.8760,91.8000L564.8760,91.8000L565.1820,91.8000L565.1820,91.8000L565.4880,91.8000L565.4880,91.8000L565.7940,91.8000L565.7940,91.8000
            L566.1000,91.8000L566.1000,91.8000L566.4060,91.8000L566.4060,91.8000L566.7120,91.8000L566.7120,91.8000L567.0180,91.8000L567.0180,91.8000L567.3240,91.8000L567.3240,91.8000
            L567.6300,91.8000L567.6300,91.8000L567.9360,91.8000L567.9360,91.8000L568.2420,91.8000L568.2420,91.8000L568.5480,91.8000L568.5480,91.8000L568.8540,91.8000L568.8540,91.8000
            L569.1600,91.8000L569.1600,91.8000L569.4660,91.8000L569.4660,91.8000L569.7720,91.8000L569.7720,91.8000L570.0780,91.8000L570.0780,91.8000L570.3840,91.8000L570.3840,91.8000
            L570.6900,91.8000L570.6900,91.8000L570.9960,91.8000L570.9960,91.8000L571.3020,91.8000L571.3020,91.8000L571.6080,91.8000L571.6080,91.8000L571.9140,91.8000L571.9140,91.8000
            L572.2200,91.8000L572.2200,91.8000L572.5260,91.8000L572.5260,91.8000L572.8320,91.8000L572.8320,91.8000L573.1380,91.8000L573.1380,91.8000L573.4440,91.8000L573.4440,91.8000
            L573.7500,91.8000L573.7500,91.8000L574.0560,91.8000L574.0560,91.8000L574.3620,91.8000L574.3620,91.8000L574.6680,91.8000L574.6680,91.8000L574.9740,91.8000L574.9740,91.8000
            L575.2800,91.8000L575.2800,91.8000L575.5860,91.8000L575.5860,91.8000L575.8920,91.8000L575.8920,91.8000L576.1980,91.8000L576.1980,91.8000L576.5040,91.8000L576.5040,91.8000
            L576.8100,91.8000L576.8100,91.8000L577.1160,91.8000L577.1160,91.8000L577.4220,91.8000L577.4220,91.8000L577.7280,91.8000L577.7280,91.8000L578.0340,91.8000L578.0340,91.8000
            L578.3400,91.8000L578.3400,91.8000L578.6460,91.8000L578.6460,91.8000L578.9520,91.8000L578.9520,91.8000L579.2580,91.8000L579.2580,91.8000L579.5640,91.8000L579.5640,91.8000
            L579.8700,91.8000L579.8700,91.8000L580.1760,91.8000L580.1760,91.8000L580.4820,91.8000L580.4820,91.8000L580.7880,91.8000L580.7880,91.8000L581.0940,91.8000L581.0940,91.8000
            L581.4000,91.8000L581.4000,91.8000L581.7060,91.8000L581.7060,91.8000L582.0120,91.8000L582.0120,91.8000L582.3180,91.8000L582.3180,91.8000L582.6240,91.8000L582.6240,91.8000
            L582.9300,91.8000L582.9300,91.8000L583.2360,91.8000L583.2360,91.8000L583.5420,91.8000L583.5420,91.8000L583.8480,91.8000L583.8480,91.8000L584.1540,91.8000L584.1540,91.8000
            L584.4600,91.8000L584.4600,91.8000L584.7660,91.8000L584.7660,91.8000L585.0720,91.8000L585.0720,91.8000L585.3780,91.8000L585.3780,91.8000L585.6840,91.8000L585.6840,91.8000
            L585.9900,91.8000L585.9900,91.8000L586.2960,91.8000L586.2960,91.8000L586.6020,91.8000L586.6020,91.8000L586.9080,91.8000L586.9080,91.8000L587.2140,91.8000L587.2140,91.8000
            L587.5200,91.8000L587.5200,91.8000L587.8260,91.8000L587.8260,91.8000L588.1320,91.8000L588.1320,91.8000L588.4380,91.8000L588.4380,91.8000L588.7440,91.8000L588.7440,91.8000
            L589.0500,91.8000L589.0500,91.8000L589.3560,91.8000L589.3560,91.8000L589.6620,91.8000L589.6620,91.8000L589.9680,91.8000L589.9680,91.8000L590.2740,91.8000L590.2740,91.8000
            L590.5800,91.8000L590.5800,91.8000L590.8860,91.8000L590.8860,91.8000L591.1920,91.8000L591.1920,91.8000L591.4980,91.8000L591.4980,91.8000L591.8040,91.8000L591.8040,91.8000
            L592.1100,91.8000L592.1100,91.8000L592.4160,91.8000L592.4160,91.8000L592.7220,91.8000L592.7220,91.8000L593.0280,91.8000L593.0280,91.8000L593.3340,91.8000L593.3340,91.8000
            L593.6400,91.8000L593.6400,91.8000L593.9460,91.8000L593.9460,91.8000L594.2520,91.8000L594.2520,91.8000L594.5580,91.8000L594.5580,91.8000L594.8640,91.8000L594.8640,91.8000
            L595.1700,91.8000L595.1700,91.8000L595.4760,91.8000L595.4760,91.8000L595.7820,91.8000L595.7820,91.8000L596.0880,91.8000L596.0880,91.8000L596.3940,91.8000L596.3940,91.8000
            L596.7000,91.8000L596.7000,91.8000L597.0060,91.8000L597.0060,91.8000L597.3120,91.8000L597.3120,91.8000L597.6180,91.8000L597.6180,91.8000L597.9240,91.8000L597.9240,91.8000
            L598.2300,91.8000L598.2300,91.8000L598.5360,91.8000L598.5360,91.8000L598.8420,91.8000L598.8420,91.8000L599.1480,91.8000L599.1480,91.8000L599.4540,91.8000L599.4540,91.8000
            L599.7600,91.8000L599.7600,91.8000L600.0660,91.8000L600.0660,91.8000L600.3720,91.8000L600.3720,91.8000L600.6780,91.8000L600.6780,91.8000L600.9840,91.8000L600.9840,91.8000
            L601.2900,91.8000L601.2900,91.8000L601.5960,91.8000L601.5960,91.8000L601.9020,91.8000L601.9020,91.8000L602.2080,91.8000L602.2080,91.8000L602.5140,91.8000L602.5140,91.8000
            L602.8200,91.8000L602.8200,91.8000L603.1260,91.8000L603.1260,91.8000L603.4320,91.8000L603.4320,91.8000L603.7380,91.8000L603.7380,91.8000L604.0440,91.8000L604.0440,91.8000
            L604.3500,91.8000L604.3500,91.8000L604.6560,91.8000L604.6560,91.8000L604.9620,91.8000L604.9620,91.8000L605.2680,91.8000L605.2680,91.8000L605.5740,91.8000L605.5740,91.8000
            L605.8800,91.8000L605.8800,91.8000L606.1860,91.8000L606.1860,91.8000L606.4920,91.8000L606.4920,91.8000L606.7980,91.8000L606.7980,91.8000L607.1040,91.8000L607.1040,91.8000
            L607.4100,91.8000L607.4100,91.8000L607.7160,91.8000L607.7160,91.8000L608.0220,91.8000L608.0220,91.8000L608.3280,91.8000L608.3280,91.8000L608.6340,91.8000L608.6340,91.8000
            L608.9400,91.8000L608.9400,91.8000L609.2460,91.8000L609.2460,91.8000L609.5520,91.8000L609.5520,91.8000L609.8580,91.8000L609.8580,91.8000L610.1640,91.8000L610.1640,91.8000
            L610.4700,91.8000L610.4700,91.8000L610.7760,91.8000L610.7760,91.8000L611.0820,91.8000L611.0820,91.8000L611.3880,91.8000L611.3880,91.8000L611.6940,91.8000L611.6940,91.8000
            L612.0000,91.8000L612.0000,91.8000L612.3060,91.8000L612.3060,91.8000L612.6120,91.8000L612.6120,91.8000L612.9180,91.8000L612.9180,91.8000L613.2240,91.8000L613.2240,91.8000
            L613.5300,91.8000L613.5300,91.8000L613.8360,91.8000L613.8360,91.8000L614.1420,91.8000L614.1420,91.8000L614.4480,91.8000L614.4480,91.8000L614.7540,91.8000L614.7540,91.8000
            L615.0600,91.8000L615.0600,91.8000L615.3660,91.8000L615.3660,91.8000L615.6720,91.8000L615.6720,91.8000L615.9780,91.8000L615.9780,91.8000L616.2840,91.8000L616.2840,91.8000
            L616.5900,91.8000L616.5900,91.8000L616.8960,91.8000L616.8960,91.8000L617.2020,91.8000L617.2020,91.8000L617.5080,91.8000L617.5080,91.8000L617.8140,91.8000L617.8140,91.8000
            L618.1200,91.8000L618.1200,91.8000L618.4260,91.8000L618.4260,91.8000L618.7320,91.8000L618.7320,91.8000L619.0380,91.8000L619.0380,91.8000L619.3440,91.8000L619.3440,91.8000
            L619.6500,91.8000L619.6500,91.8000L619.9560,91.8000L619.9560,91.8000L620.2620,91.8000L620.2620,91.8000L620.5680,91.8000L620.5680,91.8000L620.8740,91.8000L620.8740,91.8000
            L621.1800,91.8000L621.1800,91.8000L621.4860,91.8000L621.4860,91.8000L621.7920,91.8000L621.7920,91.8000L622.0980,91.8000L622.0980,91.8000L622.4040,91.8000L622.4040,91.8000
            L622.7100,91.8000L622.7100,91.8000L623.0160,91.8000L623.0160,91.8000L623.3220,91.8000L623.3220,91.8000L623.6280,91.8000L623.6280,91.8000L623.9340,91.8000L623.9340,91.8000
            L624.2400,91.8000L624.2400,91.8000L624.5460,91.8000L624.5460,91.8000L624.8520,91.8000L624.8520,91.8000L625.1580,91.8000L625.1580,91.8000L625.4640,91.8000L625.4640,91.8000
            L625.7700,91.8000L625.7700,91.8000L626.0760,91.8000L626.0760,91.8000L626.3820,91.8000L626.3820,91.8000L626.6880,91.8000L626.6880,91.8000L626.9940,91.8000L626.9940,91.8000
            L627.3000,91.8000L627.3000,91.8000L627.6060,91.8000L627.6060,91.8000L627.9120,91.8000L627.9120,91.8000L628.2180,91.8000L628.2180,91.8000L628.5240,91.8000L628.5240,91.8000
            L628.8300,91.8000L628.8300,91.8000L629.1360,91.8000L629.1360,91.8000L629.4420,91.8000L629.4420,91.8000L629.7480,91.8000L629.7480,91.8000L630.0540,91.8000L630.0540,91.8000
            L630.3600,91.8000L630.3600,91.8000L630.6660,91.8000L630.6660,91.8000L630.9720,91.8000L630.9720,91.8000L631.2780,91.8000L631.2780,91.8000L631.5840,91.8000L631.5840,91.8000
            L631.8900,91.8000L631.8900,91.8000L632.1960,91.8000L632.1960,91.8000L632.5020,91.8000L632.5020,91.8000L632.8080,91.8000L632.8080,91.8000L633.1140,91.8000L633.1140,91.8000
            L633.4200,91.8000L633.4200,91.8000L633.7260,91.8000L633.7260,91.8000L634.0320,91.8000L634.0320,91.8000L634.3380,91.8000L634.3380,91.8000L634.6440,91.8000L634.6440,91.8000
            L634.9500,91.8000L634.9500,91.8000L635.2560,91.8000L635.2560,91.8000L635.5620,91.8000L635.5620,91.8000L635.8680,91.8000L635.8680,91.8000L636.1740,91.8000L636.1740,91.8000
            L636.4800,91.8000L636.4800,91.8000L636.7860,91.8000L636.7860,91.8000L637.0920,91.8000L637.0920,91.8000L637.3980,91.8000L637.3980,91.8000L637.7040,91.8000L637.7040,91.8000
            L638.0100,91.8000L638.0100,91.8000L638.3160,91.8000L638.3160,91.8000L638.6220,91.8000L638.6220,91.8000L638.9280,91.8000L638.9280,91.8000L639.2340,91.8000L639.2340,91.8000
            L639.5400,91.8000L639.5400,91.8000L639.8460,91.8000L639.8460,91.8000L640.1520,91.8000L640.1520,91.8000L640.4580,91.8000L640.4580,91.8000L640.7640,91.8000L640.7640,91.8000
            L641.0700,91.8000L641.0700,91.8000L641.3760,91.8000L641.3760,91.8000L641.6820,91.8000L641.6820,91.8000L641.9880,91.8000L641.9880,91.8000L642.2940,91.8000L642.2940,91.8000
            L642.6000,91.8000L642.6000,91.8000L642.9060,91.8000L642.9060,91.8000L643.2120,91.8000L643.2120,91.8000L643.5180,91.8000L643.5180,91.8000L643.8240,91.8000L643.8240,91.8000
            L644.1300,91.8000L644.1300,91.8000L644.4360,91.8000L644.4360,91.8000L644.7420,91.8000L644.7420,91.8000L645.0480,91.8000L645.0480,91.8000L645.3540,91.8000L645.3540,91.8000
            L645.6600,91.8000L645.6600,91.8000L645.9660,91.8000L645.9660,91.8000L646.2720,91.8000L646.2720,91.8000L646.5780,91.8000L646.5780,91.8000L646.8840,91.8000L646.8840,91.8000
            L647.1900,91.8000L647.1900,91.8000L647.4960,91.8000L647.4960,91.8000L647.8020,91.8000L647.8020,91.8000L648.1080,91.8000L648.1080,91.8000L648.4140,91.8000L648.4140,91.8000
            L648.7200,91.8000L648.7200,91.8000L649.0260,91.8000L649.0260,91.8000L649.3320,91.8000L649.3320,91.8000L649.6380,91.8000L649.6380,91.8000L649.9440,91.8000L649.9440,91.8000
            L650.2500,91.8000L650.2500,91.8000L650.5560,91.8000L650.5560,91.8000L650.8620,91.8000L650.8620,91.8000L651.1680,91.8000L651.1680,91.8000L651.4740,91.8000L651.4740,91.8000
            L651.7800,91.8000L651.7800,91.8000L652.0860,91.8000L652.0860,91.8000L652.3920,91.8000L652.3920,91.8000L652.6980,91.8000L652.6980,91.8000L653.0040,91.8000L653.0040,91.8000
            L653.3100,91.8000L653.3100,91.8000L653.6160,91.8000L653.6160,91.8000L653.9220,91.8000L653.9220,91.8000L654.2280,91.8000L654.2280,91.8000L654.5340,91.8000L654.5340,91.8000
            L654.8400,91.8000L654.8400,91.8000L655.1460,91.8000L655.1460,91.8000L655.4520,91.8000L655.4520,91.8000L655.7580,91.8000L655.7580,91.8000L656.0640,91.8000L656.0640,91.8000
            L656.3700,91.8000L656.3700,91.8000L656.6760,91.8000L656.6760,91.8000L656.9820,91.8000L656.9820,91.8000L657.2880,91.8000L657.2880,91.8000L657.5940,91.8000L657.5940,91.8000
            L657.9000,91.8000L657.9000,91.8000L658.2060,91.8000L658.2060,91.8000L658.5120,91.8000L658.5120,91.8000L658.8180,91.8000L658.8180,91.8000L659.1240,91.8000L659.1240,91.8000
            L659.4300,91.8000L659.4300,91.8000L659.7360,91.8000L659.7360,91.8000L660.0420,91.8000L660.0420,91.8000L660.3480,91.8000L660.3480,91.8000L660.6540,91.8000L660.6540,91.8000
            L660.9600,91.8000L660.9600,91.8000L661.2660,91.8000L661.2660,91.8000L661.5720,91.8000L661.5720,91.8000L661.8780,91.8000L661.8780,91.8000L662.1840,91.8000L662.1840,91.8000
            L662.4900,91.8000L662.4900,91.8000L662.7960,91.8000L662.7960,91.8000L663.1020,91.8000L663.1020,91.8000L663.4080,91.8000L663.4080,91.8000L663.7140,91.8000L663.7140,91.8000
            L664.0200,91.8000L664.0200,91.8000L664.3260,91.8000L664.3260,91.8000L664.6320,91.8000L664.6320,91.8000L664.9380,91.8000L664.9380,91.8000L665.2440,91.8000L665.2440,91.8000
            L665.5500,91.8000L665.5500,91.8000L665.8560,91.8000L665.8560,91.8000L666.1620,91.8000L666.1620,91.8000L666.4680,91.8000L666.4680,91.8000L666.7740,91.8000L666.7740,91.8000
            L667.0800,91.8000L667.0800,91.8000L667.3860,91.8000L667.3860,91.8000L667.6920,91.8000L667.6920,91.8000L667.9980,91.8000L667.9980,91.8000L668.3040,91.8000L668.3040,91.8000
            L668.6100,91.8000L668.6100,91.8000L668.9160,91.8000L668.9160,91.8000L669.2220,91.8000L669.2220,91.8000L669.5280,91.8000L669.5280,91.8000L669.8340,91.8000L669.8340,91.8000
            L670.1400,91.8000L670.1400,91.8000L670.4460,91.8000L670.4460,91.8000L670.7520,91.8000L670.7520,91.8000L671.0580,91.8000L671.0580,91.8000L671.3640,91.8000L671.3640,91.8000
            L671.6700,91.8000L671.6700,91.8000L671.9760,91.8000L671.9760,91.8000L672.2820,91.8000L672.2820,91.8000L672.5880,91.8000L672.5880,91.8000L672.8940,91.8000L672.8940,91.8000
            L673.2000,91.8000L673.2000,91.8000L673.5060,91.8000L673.5060,91.8000L673.8120,91.8000L673.8120,91.8000L674.1180,91.8000L674.1180,91.8000L674.4240,91.8000L674.4240,91.8000
            L674.7300,91.8000L674.7300,91.8000L675.0360,91.8000L675.0360,91.8000L675.3420,91.8000L675.3420,91.8000L675.6480,91.8000L675.6480,91.8000L675.9540,91.8000L675.9540,91.8000
            L676.2600,91.8000L676.2600,91.8000L676.5660,91.8000L676.5660,91.8000L676.8720,91.8000L676.8720,91.8000L677.1780,91.8000L677.1780,91.8000L677.4840,91.8000L677.4840,91.8000
            L677.7900,91.8000L677.7900,91.8000L678.0960,91.8000L678.0960,91.8000L678.4020,91.8000L678.4020,91.8000L678.7080,91.8000L678.7080,91.8000L679.0140,91.8000L679.0140,91.8000
            L679.3200,91.8000L679.3200,91.8000L679.6260,91.8000L679.6260,91.8000L679.9320,91.8000L679.9320,91.8000L680.2380,91.8000L680.2380,91.8000L680.5440,91.8000L680.5440,91.8000
            L680.8500,91.8000L680.8500,91.8000L681.1560,91.8000L681.1560,91.8000L681.4620,91.8000L681.4620,91.8000L681.7680,91.8000L681.7680,91.8000L682.0740,91.8000L682.0740,91.8000
            L682.3800,91.8000L682.3800,91.8000L682.6860,91.8000L682.6860,91.8000L682.9920,91.8000L682.9920,91.8000L683.2980,91.8000L683.2980,91.8000L683.6040,91.8000L683.6040,91.8000
            L683.9100,91.8000L683.9100,91.8000L684.2160,91.8000L684.2160,91.8000L684.5220,91.8000L684.5220,91.8000L684.8280,91.8000L684.8280,91.8000L685.1340,91.8000L685.1340,91.8000
            L685.4400,91.8000L685.4400,91.8000L685.7460,91.8000L685.7460,91.8000L686.0520,91.8000L686.0520,91.8000L686.3580,91.8000L686.3580,91.8000L686.6640,91.8000L686.6640,91.8000
            L686.9700,91.8000L686.9700,91.8000L687.2760,91.8000L687.2760,91.8000L687.5820,91.8000L687.5820,91.8000L687.8880,91.8000L687.8880,91.8000L688.1940,91.8000L688.1940,91.8000
            L688.5000,91.8000L688.5000,91.8000L688.8060,91.8000L688.8060,91.8000L689.1120,91.8000L689.1120,91.8000L689.4180,91.8000L689.4180,91.8000L689.7240,91.8000L689.7240,91.8000
            L690.0300,91.8000L690.0300,91.8000L690.3360,91.8000L690.3360,91.8000L690.6420,91.8000L690.6420,91.8000L690.9480,91.8000L690.9480,91.8000L691.2540,91.8000L691.2540,91.8000
            L691.5600,91.8000L691.5600,91.8000L691.8660,91.8000L691.8660,91.8000L692.1720,91.8000L692.1720,91.8000L692.4780,91.8000L692.4780,91.8000L692.7840,91.8000L692.7840,91.8000
            L693.0900,91.8000L693.0900,91.8000L693.3960,91.8000L693.3960,91.8000L693.7020,91.8000L693.7020,91.8000L694.0080,91.8000L694.0080,91.8000L694.3140,91.8000L694.3140,91.8000
            L694.6200,91.8000L694.6200,91.8000L694.9260,91.8000L694.9260,91.8000L695.2320,91.8000L695.2320,91.8000L695.5380,91.8000L695.5380,91.8000L695.8440,91.8000L695.8440,91.8000
            L696.1500,91.8000L696.1500,91.8000L696.4560,91.8000L696.4560,91.8000L696.7620,91.8000L696.7620,91.8000L697.0680,91.8000L697.0680,91.8000L697.3740,91.8000L697.3740,91.8000
            L697.6800,91.8000L697.6800,91.8000L697.9860,91.8000L697.9860,91.8000L698.2920,91.8000L698.2920,91.8000L698.5980,91.8000L698.5980,91.8000L698.9040,91.8000L698.9040,91.8000
            L699.2100,91.8000L699.2100,91.8000L699.5160,91.8000L699.5160,91.8000L699.8220,91.8000L699.8220,91.8000L700.1280,91.8000L700.1280,91.8000L700.4340,91.8000L700.4340,91.8000
            L700.7400,91.8000L700.7400,91.8000L701.0460,91.8000L701.0460,91.8000L701.3520,91.8000L701.3520,91.8000L701.6580,91.8000L701.6580,91.8000L701.9640,91.8000L701.9640,91.8000
            L702.2700,91.8000L702.2700,91.8000L702.5760,91.8000L702.5760,91.8000L702.8820,91.8000L702.8820,91.8000L703.1880,91.8000L703.1880,91.8000L703.4940,91.8000L703.4940,91.8000
            L703.8000,91.8000"/>
   <path d="M91.8000,91.8000L703.8000,91.8000"/>
   <path d="M91.8000,520.2000L703.8000,520.2000"/>
   <path d="M104.0400,91.8000L104.0400,97.9200"/>
   <path d="M104.0400,520.2000L104.0400,514.0800"/>
   <path d="M116.2800,91.8000L116.2800,97.9200"/>
   <path d="M116.2800,520.2000L116.2800,514.0800"/>
   <path d="M128.5200,91.8000L128.5200,97.9200"/>
   <path d="M128.5200,520.2000L128.5200,514.0800"/>
   <path d="M140.7600,91.8000L140.7600,97.9200"/>
   <path d="M140.7600,520.2000L140.7600,514.0800"/>
   <path d="M165.2400,91.8000L165.2400,97.9200"/>
   <path d="M165.2400,520.2000L165.2400,514.0800"/>
   <path d="M177.4800,91.8000L177.4800,97.9200"/>
   <path d="M177.4800,520.2000L177.4800,514.0800"/>
   <path d="M189.7200,91.8000L189.7200,97.9200"/>
   <path d="M189.7200,520.2000L189.7200,514.0800"/>
   <path d="M201.9600,91.8000L201.9600,97.9200"/>
   <path d="M201.9600,520.2000L201.9600,514.0800"/>
   <path d="M226.4400,91.8000L226.4400,97.9200"/>
   <path d="M226.4400,520.2000L226.4400,514.0800"/>
   <path d="M238.6800,91.8000L238.6800,97.9200"/>
   <path d="M238.6800,520.2000L238.6800,514.0800"/>
   <path d="M250.9200,91.8000L250.9200,97.9200"/>
   <path d="M250.9200,520.2000L250.9200,514.0800"/>
   <path d="M263.1600,91.8000L263.1600,97.9200"/>
   <path d="M263.1600,520.2000L263.1600,514.0800"/>
   <path d="M287.6400,91.8000L287.6400,97.9200"/>
   <path d="M287.6400,520.2000L287.6400,514.0800"/>
   <path d="M299.8800,91.8000L299.8800,97.9200"/>
   <path d="M299.8800,520.2000L299.8800,514.0800"/>
   <path d="M312.1200,91.8000L312.1200,97.9200"/>
   <path d="M312.1200,520.2000L312.1200,514.0800"/>
   <path d="M324.3600,91.8000L324.3600,97.9200"/>
   <path d="M324.3600,520.2000L324.3600,514.0800"/>
   <path d="M348.8400,91.8000L348.8400,97.9200"/>
   <path d="M348.8400,520.2000L348.8400,514.0800"/>
   <path d="M361.0800,91.8000L361.0800,97.9200"/>
   <path d="M361.0800,520.2000L361.0800,514.0800"/>
   <path d="M373.3200,91.8000L373.3200,97.9200"/>
   <path d="M373.3200,520.2000L373.3200,514.0800"/>
   <path d="M385.5600,91.8000L385.5600,97.9200"/>
   <path d="M385.5600,520.2000L385.5600,514.0800"/>
   <path d="M410.0400,91.8000L410.0400,97.9200"/>
   <path d="M410.0400,520.2000L410.0400,514.0800"/>
   <path d="M422.2800,91.8000L422.2800,97.9200"/>
   <path d="M422.2800,520.2000L422.2800,514.0800"/>
   <path d="M434.5200,91.8000L434.5200,97.9200"/>
   <path d="M434.5200,520.2000L434.5200,514.0800"/>
   <path d="M446.7600,91.8000L446.7600,97.9200"/>
   <path d="M446.7600,520.2000L446.7600,514.0800"/>
   <path d="M471.2400,91.8000L471.2400,97.9200"/>
   <path d="M471.2400,520.2000L471.2400,514.0800"/>
   <path d="M483.4800,91.8000L483.4800,97.9200"/>
   <path d="M483.4800,520.2000L483.4800,514.0800"/>
   <path d="M495.7200,91.8000L495.7200,97.9200"/>
   <path d="M495.7200,520.2000L495.7200,514.0800"/>
   <path d="M507.9600,91.8000L507.9600,97.9200"/>
   <path d="M507.9600,520.2000L507.9600,514.0800"/>
   <path d="M532.4400,91.8000L532.4400,97.9200"/>
   <path d="M532.4400,520.2000L532.4400,514.0800"/>
   <path d="M544.6800,91.8000L544.6800,97.9200"/>
   <path d="M544.6800,520.2000L544.6800,514.0800"/>
   <path d="M556.9200,91.8000L556.9200,97.9200"/>
   <path d="M556.9200,520.2000L556.9200,514.0800"/>
   <path d="M569.1600,91.8000L569.1600,97.9200"/>
   <path d="M569.1600,520.2000L569.1600,514.0800"/>
   <path d="M593.6400,91.8000L593.6400,97.9200"/>
   <path d="M593.6400,520.2000L593.6400,514.0800"/>
   <path d="M605.8800,91.8000L605.8800,97.9200"/>
   <path d="M605.8800,520.2000L605.8800,514.0800"/>
   <path d="M618.1200,91.8000L618.1200,97.9200"/>
   <path d="M618.1200,520.2000L618.1200,514.0800"/>
   <path d="M630.3600,91.8000L630.3600,97.9200"/>
   <path d="M630.3600,520.2000L630.3600,514.0800"/>
   <path d="M654.8400,91.8000L654.8400,97.9200"/>
   <path d="M654.8400,520.2000L654.8400,514.0800"/>
   <path d="M667.0800,91.8000L667.0800,97.9200"/>
   <path d="M667.0800,520.2000L667.0800,514.0800"/>
   <path d="M679.3200,91.8000L679.3200,97.9200"/>
   <path d="M679.3200,520.2000L679.3200,514.0800"/>
   <path d="M691.5600,91.8000L691.5600,97.9200"/>
   <path d="M691.5600,520.2000L691.5600,514.0800"/>
   <path d="M91.8000,91.8000L91.8000,104.0400"/>
   <path d="M91.8000,520.2000L91.8000,507.9600"/>
   <path d="M153.0000,91.8000L153.0000,104.0400"/>
   <path d="M153.0000,520.2000L153.0000,507.9600"/>
   <path d="M214.2000,91.8000L214.2000,104.0400"/>
   <path d="M214.2000,520.2000L214.2000,507.9600"/>
   <path d="M275.4000,91.8000L275.4000,104.0400"/>
   <path d="M275.4000,520.2000L275.4000,507.9600"/>
   <path d="M336.6000,91.8000L336.6000,104.0400"/>
   <path d="M336.6000,520.2000L336.6000,507.9600"/>
   <path d="M397.8000,91.8000L397.8000,104.0400"/>
   <path d="M397.8000,520.2000L397.8000,507.9600"/>
   <path d="M459.0000,91.8000L459.0000,104.0400"/>
   <path d="M459.0000,520.2000L459.0000,507.9600"/>
   <path d="M520.2000,91.8000L520.2000,104.0400"/>
   <path d="M520.2000,520.2000L520.2000,507.9600"/>
   <path d="M581.4000,91.8000L581.4000,104.0400"/>
   <path d="M581.4000,520.2000L581.4000,507.9600"/>
   <path d="M642.6000,91.8000L642.6000,104.0400"/>
   <path d="M642.6000,520.2000L642.6000,507.9600"/>
   <path d="M703.8000,91.8000L703.8000,104.0400"/>
   <path d="M703.8000,520.2000L703.8000,507.9600"/>
  </g>
  <g style="fill:#000000; fill-rule:nonzero">
   <text   style="font-family:'Times','Nimbus Roman'; font-style:normal; font-weight:normal; font-size:612.0000" transform="matrix(0.0280,0.0000,-0.0000,-0.0280,87.8000,74.6800)">0</text>
   <text   style="font-family:'Times','Nimbus Roman'; font-style:normal; font-weight:normal; font-size:612.0000" transform="matrix(0.0280,0.0000,-0.0000,-0.0280,144.5000,73.6800)">10</text>
   <text   style="font-family:'Times','Nimbus Roman'; font-style:normal; font-weight:normal; font-size:612.0000" transform="matrix(0.0280,0.0000,-0.0000,-0.0280,205.7000,74.6800)">20</text>
   <text   style="font-family:'Times','Nimbus Roman'; font-style:normal; font-weight:normal; font-size:612.0000" transform="matrix(0.0280,0.0000,-0.0000,-0.0280,266.9000,74.6800)">30</text>
   <text   style="font-family:'Times','Nimbus Roman'; font-style:normal; font-weight:normal; font-size:612.0000" transform="matrix(0.0280,0.0000,-0.0000,-0.0280,328.1000,74.6800)">40</text>
   <text   style="font-family:'Times','Nimbus Roman'; font-style:normal; font-weight:normal; font-size:612.0000" transform="matrix(0.0280,0.0000,-0.0000,-0.0280,389.3000,73.6800)">50</text>
   <text   style="font-family:'Times','Nimbus Roman'; font-style:normal; font-weight:normal; font-size:612.0000" transform="matrix(0.0280,0.0000,-0.0000,-0.0280,450.5000,73.6800)">60</text>
   <text   style="font-family:'Times','Nimbus Roman'; font-style:normal; font-weight:normal; font-size:612.0000" transform="matrix(0.0280,0.0000,-0.0000,-0.0280,511.7000,74.6800)">70</text>
   <text   style="font-family:'Times','Nimbus Roman'; font-style:normal; font-weight:normal; font-size:612.0000" transform="matrix(0.0280,0.0000,-0.0000,-0.0280,572.9000,74.6800)">80</text>
   <text   style="font-family:'Times','Nimbus Roman'; font-style:normal; font-weight:normal; font-size:612.0000" transform="matrix(0.0280,0.0000,-0.0000,-0.0280,634.1000,74.6800)">90</text>
   <text   style="font-family:'Times','Nimbus Roman'; font-style:normal; font-weight:normal; font-size:612.0000" transform="matrix(0.0280,0.0000,-0.0000,-0.0280,691.3000,73.6800)">100</text>
   <text   style="font-family:'Times','Nimbus Roman'; font-style:normal; font-weight:normal; font-size:612.0000" transform="matrix(0.0280,0.0000,-0.0000,-0.0280,293.8000,50.5600)">C1:C5'-G16:C3' Distance ()</text>
  </g>
  <g style="fill:none; stroke:#000000; stroke-width:  0.9180; stroke-linecap:butt; stroke-linejoin:miter; stroke-dasharray:none">
   <path d="M91.8000,91.8000L91.8000,520.2000"/>
   <path d="M703.8000,91.8000L703.8000,520.2000"/>
   <path d="M91.8000,145.3500L97.9200,145.3500"/>
   <path d="M703.8000,145.3500L697.6800,145.3500"/>
   <path d="M91.8000,252.4500L97.9200,252.4500"/>
   <path d="M703.8000,252.4500L697.6800,252.4500"/>
   <path d="M91.8000,359.5500L97.9200,359.5500"/>
   <path d="M703.8000,359.5500L697.6800,359.5500"/>
   <path d="M91.8000,466.6500L97.9200,466.6500"/>
   <path d="M703.8000,466.6500L697.6800,466.6500"/>
   <path d="M91.8000,91.8000L104.0400,91.8000"/>
   <path d="M703.8000,91.8000L691.5600,91.8000"/>
   <path d="M91.8000,198.9000L104.0400,198.9000"/>
   <path d="M703.8000,198.9000L691.5600,198.9000"/>
   <path d="M91.8000,306.0000L104.0400,306.0000"/>
   <path d="M703.8000,306.0000L691.5600,306.0000"/>
   <path d="M91.8000,413.1000L104.0400,413.1000"/>
   <path d="M703.8000,413.1000L691.5600,413.1000"/>
   <path d="M91.8000,520.2000L104.0400,520.2000"/>
   <path d="M703.8000,520.2000L691.5600,520.2000"/>
  </g>
  <g style="fill:#000000; fill-rule:nonzero">
   <text   style="font-family:'Times','Nimbus Roman'; font-style:normal; font-weight:normal; font-size:612.0000" transform="matrix(0.0280,0.0000,-0.0000,-0.0280,77.6800,86.3000)">0</text>
   <text   style="font-family:'Times','Nimbus Roman'; font-style:normal; font-weight:normal; font-size:612.0000" transform="matrix(0.0280,0.0000,-0.0000,-0.0280,56.6800,192.9000)">0.05</text>
   <text   style="font-family:'Times','Nimbus Roman'; font-style:normal; font-weight:normal; font-size:612.0000" transform="matrix(0.0280,0.0000,-0.0000,-0.0280,65.6800,300.0000)">0.1</text>
   <text   style="font-family:'Times','Nimbus Roman'; font-style:normal; font-weight:normal; font-size:612.0000" transform="matrix(0.0280,0.0000,-0.0000,-0.0280,56.6800,407.1000)">0.15</text>
   <text   style="font-family:'Times','Nimbus Roman'; font-style:normal; font-weight:normal; font-size:612.0000" transform="matrix(0.0280,0.0000,-0.0000,-0.0280,64.6800,514.7000)">0.2</text>
   <text   style="font-family:'Times','Nimbus Roman'; font-style:normal; font-weight:normal; font-size:612.0000" transform="matrix(0.0000,0.0280,0.0280,-0.0000,46.5600,239.5000)">Relative Frequency</text>
  </g>
  <g style="fill:none; stroke:#000000; stroke-width:  0.9180; stroke-linecap:butt; stroke-linejoin:miter; stroke-dasharray:none">
   <path d="M91.8000,91.8000L91.8000,520.2000L703.8000,520.2000L703.8000,91.8000z"/>
  </g>
  <g style="fill:#000000; fill-rule:nonzero">
   <text   style="font-family:'Times','Nimbus Roman'; font-style:normal; font-weight:normal; font-size:612.0000" transform="matrix(0.0420,0.0000,-0.0000,-0.0420,113.8000,562.9200)">Constant Force SMD Unfolding of 1D16 DNA Hairpin</text>
   <text   style="font-family:'Times','Nimbus Roman'; font-style:normal; font-weight:normal; font-size:612.0000" transform="matrix(0.0280,0.0000,-0.0000,-0.0280,105.8000,536.4400)">Extension Probability Density (GBIS, 13pN, LANGEVIN 300K, T Rescale Freq 2fs)</text>
  </g>
 </g>
</svg>
