<?xml version="1.0" encoding="utf-8" standalone="no"?>
<!DOCTYPE svg PUBLIC "-//W3C//DTD SVG 1.1//EN"
  "http://www.w3.org/Graphics/SVG/1.1/DTD/svg11.dtd">
<svg xmlns:xlink="http://www.w3.org/1999/xlink" width="1382.4pt" height="715.68pt" viewBox="0 0 1382.4 715.68" xmlns="http://www.w3.org/2000/svg" version="1.1">
 <metadata>
  <rdf:RDF xmlns:dc="http://purl.org/dc/elements/1.1/" xmlns:cc="http://creativecommons.org/ns#" xmlns:rdf="http://www.w3.org/1999/02/22-rdf-syntax-ns#">
   <cc:Work>
    <dc:type rdf:resource="http://purl.org/dc/dcmitype/StillImage"/>
    <dc:date>2024-06-18T12:22:44.381210</dc:date>
    <dc:format>image/svg+xml</dc:format>
    <dc:creator>
     <cc:Agent>
      <dc:title>Matplotlib v3.9.0, https://matplotlib.org/</dc:title>
     </cc:Agent>
    </dc:creator>
   </cc:Work>
  </rdf:RDF>
 </metadata>
 <defs>
  <style type="text/css">*{stroke-linejoin: round; stroke-linecap: butt}</style>
 </defs>
 <g id="figure_1">
  <g id="patch_1">
   <path d="M 0 715.68 
L 1382.4 715.68 
L 1382.4 0 
L 0 0 
z
" style="fill: #ffffff"/>
  </g>
  <g id="axes_1">
   <g id="patch_2">
    <path d="M 172.8 636.9552 
L 659.781818 636.9552 
L 659.781818 85.8816 
L 172.8 85.8816 
z
" style="fill: #ffffff"/>
   </g>
   <g id="matplotlib.axis_1">
    <g id="xtick_1">
     <g id="line2d_1">
      <defs>
       <path id="m8bf85ad0d0" d="M 0 0 
L 0 3.5 
" style="stroke: #000000; stroke-width: 0.8"/>
      </defs>
      <g>
       <use xlink:href="#m8bf85ad0d0" x="243.744529" y="636.9552" style="stroke: #000000; stroke-width: 0.8"/>
      </g>
     </g>
     <g id="text_1">
      <!-- 20 -->
      <g transform="translate(237.382029 651.553637) scale(0.1 -0.1)">
       <defs>
        <path id="DejaVuSans-32" d="M 1228 531 
L 3431 531 
L 3431 0 
L 469 0 
L 469 531 
Q 828 903 1448 1529 
Q 2069 2156 2228 2338 
Q 2531 2678 2651 2914 
Q 2772 3150 2772 3378 
Q 2772 3750 2511 3984 
Q 2250 4219 1831 4219 
Q 1534 4219 1204 4116 
Q 875 4013 500 3803 
L 500 4441 
Q 881 4594 1212 4672 
Q 1544 4750 1819 4750 
Q 2544 4750 2975 4387 
Q 3406 4025 3406 3419 
Q 3406 3131 3298 2873 
Q 3191 2616 2906 2266 
Q 2828 2175 2409 1742 
Q 1991 1309 1228 531 
z
" transform="scale(0.015625)"/>
        <path id="DejaVuSans-30" d="M 2034 4250 
Q 1547 4250 1301 3770 
Q 1056 3291 1056 2328 
Q 1056 1369 1301 889 
Q 1547 409 2034 409 
Q 2525 409 2770 889 
Q 3016 1369 3016 2328 
Q 3016 3291 2770 3770 
Q 2525 4250 2034 4250 
z
M 2034 4750 
Q 2819 4750 3233 4129 
Q 3647 3509 3647 2328 
Q 3647 1150 3233 529 
Q 2819 -91 2034 -91 
Q 1250 -91 836 529 
Q 422 1150 422 2328 
Q 422 3509 836 4129 
Q 1250 4750 2034 4750 
z
" transform="scale(0.015625)"/>
       </defs>
       <use xlink:href="#DejaVuSans-32"/>
       <use xlink:href="#DejaVuSans-30" x="63.623047"/>
      </g>
     </g>
    </g>
    <g id="xtick_2">
     <g id="line2d_2">
      <g>
       <use xlink:href="#m8bf85ad0d0" x="349.277483" y="636.9552" style="stroke: #000000; stroke-width: 0.8"/>
      </g>
     </g>
     <g id="text_2">
      <!-- 40 -->
      <g transform="translate(342.914983 651.553637) scale(0.1 -0.1)">
       <defs>
        <path id="DejaVuSans-34" d="M 2419 4116 
L 825 1625 
L 2419 1625 
L 2419 4116 
z
M 2253 4666 
L 3047 4666 
L 3047 1625 
L 3713 1625 
L 3713 1100 
L 3047 1100 
L 3047 0 
L 2419 0 
L 2419 1100 
L 313 1100 
L 313 1709 
L 2253 4666 
z
" transform="scale(0.015625)"/>
       </defs>
       <use xlink:href="#DejaVuSans-34"/>
       <use xlink:href="#DejaVuSans-30" x="63.623047"/>
      </g>
     </g>
    </g>
    <g id="xtick_3">
     <g id="line2d_3">
      <g>
       <use xlink:href="#m8bf85ad0d0" x="454.810437" y="636.9552" style="stroke: #000000; stroke-width: 0.8"/>
      </g>
     </g>
     <g id="text_3">
      <!-- 60 -->
      <g transform="translate(448.447937 651.553637) scale(0.1 -0.1)">
       <defs>
        <path id="DejaVuSans-36" d="M 2113 2584 
Q 1688 2584 1439 2293 
Q 1191 2003 1191 1497 
Q 1191 994 1439 701 
Q 1688 409 2113 409 
Q 2538 409 2786 701 
Q 3034 994 3034 1497 
Q 3034 2003 2786 2293 
Q 2538 2584 2113 2584 
z
M 3366 4563 
L 3366 3988 
Q 3128 4100 2886 4159 
Q 2644 4219 2406 4219 
Q 1781 4219 1451 3797 
Q 1122 3375 1075 2522 
Q 1259 2794 1537 2939 
Q 1816 3084 2150 3084 
Q 2853 3084 3261 2657 
Q 3669 2231 3669 1497 
Q 3669 778 3244 343 
Q 2819 -91 2113 -91 
Q 1303 -91 875 529 
Q 447 1150 447 2328 
Q 447 3434 972 4092 
Q 1497 4750 2381 4750 
Q 2619 4750 2861 4703 
Q 3103 4656 3366 4563 
z
" transform="scale(0.015625)"/>
       </defs>
       <use xlink:href="#DejaVuSans-36"/>
       <use xlink:href="#DejaVuSans-30" x="63.623047"/>
      </g>
     </g>
    </g>
    <g id="xtick_4">
     <g id="line2d_4">
      <g>
       <use xlink:href="#m8bf85ad0d0" x="560.343392" y="636.9552" style="stroke: #000000; stroke-width: 0.8"/>
      </g>
     </g>
     <g id="text_4">
      <!-- 80 -->
      <g transform="translate(553.980892 651.553637) scale(0.1 -0.1)">
       <defs>
        <path id="DejaVuSans-38" d="M 2034 2216 
Q 1584 2216 1326 1975 
Q 1069 1734 1069 1313 
Q 1069 891 1326 650 
Q 1584 409 2034 409 
Q 2484 409 2743 651 
Q 3003 894 3003 1313 
Q 3003 1734 2745 1975 
Q 2488 2216 2034 2216 
z
M 1403 2484 
Q 997 2584 770 2862 
Q 544 3141 544 3541 
Q 544 4100 942 4425 
Q 1341 4750 2034 4750 
Q 2731 4750 3128 4425 
Q 3525 4100 3525 3541 
Q 3525 3141 3298 2862 
Q 3072 2584 2669 2484 
Q 3125 2378 3379 2068 
Q 3634 1759 3634 1313 
Q 3634 634 3220 271 
Q 2806 -91 2034 -91 
Q 1263 -91 848 271 
Q 434 634 434 1313 
Q 434 1759 690 2068 
Q 947 2378 1403 2484 
z
M 1172 3481 
Q 1172 3119 1398 2916 
Q 1625 2713 2034 2713 
Q 2441 2713 2670 2916 
Q 2900 3119 2900 3481 
Q 2900 3844 2670 4047 
Q 2441 4250 2034 4250 
Q 1625 4250 1398 4047 
Q 1172 3844 1172 3481 
z
" transform="scale(0.015625)"/>
       </defs>
       <use xlink:href="#DejaVuSans-38"/>
       <use xlink:href="#DejaVuSans-30" x="63.623047"/>
      </g>
     </g>
    </g>
   </g>
   <g id="matplotlib.axis_2">
    <g id="ytick_1">
     <g id="line2d_5">
      <defs>
       <path id="me082ee7a48" d="M 0 0 
L -3.5 0 
" style="stroke: #000000; stroke-width: 0.8"/>
      </defs>
      <g>
       <use xlink:href="#me082ee7a48" x="172.8" y="611.9064" style="stroke: #000000; stroke-width: 0.8"/>
      </g>
     </g>
     <g id="text_5">
      <!-- 0.0 -->
      <g transform="translate(149.896875 615.705619) scale(0.1 -0.1)">
       <defs>
        <path id="DejaVuSans-2e" d="M 684 794 
L 1344 794 
L 1344 0 
L 684 0 
L 684 794 
z
" transform="scale(0.015625)"/>
       </defs>
       <use xlink:href="#DejaVuSans-30"/>
       <use xlink:href="#DejaVuSans-2e" x="63.623047"/>
       <use xlink:href="#DejaVuSans-30" x="95.410156"/>
      </g>
     </g>
    </g>
    <g id="ytick_2">
     <g id="line2d_6">
      <g>
       <use xlink:href="#me082ee7a48" x="172.8" y="511.7112" style="stroke: #000000; stroke-width: 0.8"/>
      </g>
     </g>
     <g id="text_6">
      <!-- 0.2 -->
      <g transform="translate(149.896875 515.510419) scale(0.1 -0.1)">
       <use xlink:href="#DejaVuSans-30"/>
       <use xlink:href="#DejaVuSans-2e" x="63.623047"/>
       <use xlink:href="#DejaVuSans-32" x="95.410156"/>
      </g>
     </g>
    </g>
    <g id="ytick_3">
     <g id="line2d_7">
      <g>
       <use xlink:href="#me082ee7a48" x="172.8" y="411.516" style="stroke: #000000; stroke-width: 0.8"/>
      </g>
     </g>
     <g id="text_7">
      <!-- 0.4 -->
      <g transform="translate(149.896875 415.315219) scale(0.1 -0.1)">
       <use xlink:href="#DejaVuSans-30"/>
       <use xlink:href="#DejaVuSans-2e" x="63.623047"/>
       <use xlink:href="#DejaVuSans-34" x="95.410156"/>
      </g>
     </g>
    </g>
    <g id="ytick_4">
     <g id="line2d_8">
      <g>
       <use xlink:href="#me082ee7a48" x="172.8" y="311.3208" style="stroke: #000000; stroke-width: 0.8"/>
      </g>
     </g>
     <g id="text_8">
      <!-- 0.6 -->
      <g transform="translate(149.896875 315.120019) scale(0.1 -0.1)">
       <use xlink:href="#DejaVuSans-30"/>
       <use xlink:href="#DejaVuSans-2e" x="63.623047"/>
       <use xlink:href="#DejaVuSans-36" x="95.410156"/>
      </g>
     </g>
    </g>
    <g id="ytick_5">
     <g id="line2d_9">
      <g>
       <use xlink:href="#me082ee7a48" x="172.8" y="211.1256" style="stroke: #000000; stroke-width: 0.8"/>
      </g>
     </g>
     <g id="text_9">
      <!-- 0.8 -->
      <g transform="translate(149.896875 214.924819) scale(0.1 -0.1)">
       <use xlink:href="#DejaVuSans-30"/>
       <use xlink:href="#DejaVuSans-2e" x="63.623047"/>
       <use xlink:href="#DejaVuSans-38" x="95.410156"/>
      </g>
     </g>
    </g>
    <g id="ytick_6">
     <g id="line2d_10">
      <g>
       <use xlink:href="#me082ee7a48" x="172.8" y="110.9304" style="stroke: #000000; stroke-width: 0.8"/>
      </g>
     </g>
     <g id="text_10">
      <!-- 1.0 -->
      <g transform="translate(149.896875 114.729619) scale(0.1 -0.1)">
       <defs>
        <path id="DejaVuSans-31" d="M 794 531 
L 1825 531 
L 1825 4091 
L 703 3866 
L 703 4441 
L 1819 4666 
L 2450 4666 
L 2450 531 
L 3481 531 
L 3481 0 
L 794 0 
L 794 531 
z
" transform="scale(0.015625)"/>
       </defs>
       <use xlink:href="#DejaVuSans-31"/>
       <use xlink:href="#DejaVuSans-2e" x="63.623047"/>
       <use xlink:href="#DejaVuSans-30" x="95.410156"/>
      </g>
     </g>
    </g>
   </g>
   <g id="line2d_11">
    <path d="M 194.935537 110.9304 
L 195.463202 115.355097 
L 197.310029 132.77734 
L 198.629191 140.244016 
L 198.893023 142.235129 
L 199.68452 144.613404 
L 200.476017 146.092373 
L 201.531347 147.725297 
L 202.850509 148.694204 
L 203.642006 149.170693 
L 204.433503 149.670533 
L 206.016497 150.312786 
L 213.139972 152.655618 
L 214.986799 153.061925 
L 217.097458 153.356862 
L 222.374105 153.810793 
L 228.178418 154.033784 
L 242.161534 154.293506 
L 266.697946 154.783841 
L 277.778906 155.271641 
L 289.387531 155.948759 
L 297.566335 156.729861 
L 302.842983 157.538955 
L 306.008972 158.194166 
L 309.438793 159.33823 
L 311.021787 160.040532 
L 313.660111 161.554372 
L 314.71544 162.52975 
L 315.77077 163.703265 
L 318.145261 167.892899 
L 318.409094 168.40648 
L 318.936759 170.579322 
L 319.200591 171.148212 
L 319.728256 172.770601 
L 320.519753 174.540479 
L 321.047418 176.338012 
L 321.575082 177.060976 
L 322.36658 178.811102 
L 323.158077 179.782296 
L 323.685742 180.929952 
L 324.213406 181.524521 
L 325.004904 183.017856 
L 326.587898 185.15604 
L 327.115563 186.555776 
L 327.643227 187.196992 
L 330.281551 193.055765 
L 331.073048 194.963915 
L 332.39221 197.34219 
L 332.919875 199.451822 
L 333.44754 200.399971 
L 334.239037 201.517459 
L 335.030534 202.794168 
L 335.822031 204.660837 
L 336.349696 205.386764 
L 336.613529 205.64131 
L 337.93269 208.329229 
L 338.98802 209.91684 
L 340.04335 211.962604 
L 340.834847 213.08372 
L 341.362511 214.0187 
L 341.626344 214.571787 
L 342.154009 216.191542 
L 343.473171 218.488171 
L 344.000835 220.147432 
L 345.319997 222.326859 
L 345.58383 222.672538 
L 347.430656 226.644888 
L 347.694489 227.391556 
L 347.958321 229.38267 
L 350.06898 255.101219 
L 350.860477 259.525916 
L 351.12431 260.355547 
L 352.443472 269.758027 
L 354.290298 278.883964 
L 355.60946 291.328424 
L 355.873293 292.57287 
L 356.66479 295.393614 
L 356.928622 295.932874 
L 357.720119 299.389668 
L 359.303114 307.243505 
L 360.358443 310.799065 
L 360.886108 311.924992 
L 362.20527 315.492404 
L 362.732935 316.404997 
L 363.260599 317.455863 
L 365.107426 319.756561 
L 365.635091 320.673106 
L 366.162756 321.417259 
L 366.954253 322.84936 
L 367.481918 323.625657 
L 368.537247 325.812326 
L 370.120242 328.166478 
L 370.647906 329.369442 
L 372.230901 332.171092 
L 373.022398 334.125333 
L 374.869224 337.12589 
L 375.660722 338.129408 
L 376.979884 339.856608 
L 378.299045 340.996811 
L 379.090543 342.006476 
L 380.145872 343.106515 
L 381.201202 344.81055 
L 383.311861 346.961435 
L 385.686352 348.723632 
L 386.741682 349.22932 
L 387.797011 349.882515 
L 388.588509 350.407875 
L 390.171503 351.388588 
L 391.490665 352.213032 
L 393.865156 353.711993 
L 397.031145 356.713912 
L 397.822642 357.53169 
L 398.877972 358.672103 
L 401.516295 360.214928 
L 403.890787 361.294665 
L 415.23558 364.741495 
L 418.137736 365.454621 
L 421.831389 366.319016 
L 427.371869 367.621016 
L 429.482528 368.242126 
L 435.814506 369.60495 
L 446.103969 372.416076 
L 461.933912 378.323828 
L 462.461577 378.623724 
L 463.516906 379.358799 
L 464.572236 380.016653 
L 467.21056 381.95205 
L 472.223375 384.867737 
L 474.070202 386.485827 
L 474.861699 387.514204 
L 475.389364 388.15542 
L 477.763855 391.53859 
L 478.555352 392.582332 
L 480.138347 396.068756 
L 480.666011 397.190733 
L 481.193676 398.589253 
L 481.985173 403.804074 
L 482.249006 404.870742 
L 483.304335 407.029218 
L 484.095832 409.178357 
L 484.623497 410.339839 
L 485.151162 414.211449 
L 485.678827 415.179351 
L 486.997989 417.944787 
L 487.789486 420.461333 
L 488.31715 422.009977 
L 489.108648 425.107265 
L 489.900145 427.074674 
L 490.955474 429.591221 
L 492.010804 438.717158 
L 492.538469 440.652963 
L 494.121463 453.373966 
L 494.91296 456.471253 
L 495.440625 458.047552 
L 495.96829 460.45348 
L 496.495954 462.16805 
L 497.287452 464.933486 
L 497.815116 465.815791 
L 498.870446 469.758512 
L 499.398111 471.307156 
L 499.925775 472.320491 
L 502.036435 475.479971 
L 503.355596 477.112296 
L 506.521585 479.502987 
L 507.313082 479.986103 
L 508.104579 480.603852 
L 508.896077 481.692573 
L 509.951406 482.521959 
L 512.062065 483.534619 
L 516.547216 484.9425 
L 520.504702 485.591915 
L 527.628176 486.440839 
L 540.555963 487.761791 
L 549.790096 488.513049 
L 567.466866 489.925068 
L 581.977648 491.404846 
L 593.586273 492.949119 
L 597.543758 493.731773 
L 599.91825 494.316736 
L 602.820406 495.428479 
L 607.041724 497.290329 
L 609.416216 498.308985 
L 612.846037 500.089983 
L 613.373701 500.472334 
L 614.165199 500.959772 
L 614.956696 501.541327 
L 616.275858 502.281998 
L 619.969511 504.347213 
L 622.607835 506.711713 
L 623.399332 507.252948 
L 623.926997 507.79859 
L 624.718494 508.545916 
L 625.773824 509.776894 
L 626.301488 510.93245 
L 626.565321 511.327513 
L 627.62065 513.567515 
L 628.412147 516.637149 
L 628.67598 517.605051 
L 629.467477 521.753204 
L 630.258974 528.943336 
L 631.050471 538.069273 
L 631.841968 543.047057 
L 633.424963 558.810039 
L 637.646281 611.9064 
L 637.646281 611.9064 
" clip-path="url(#p9b26a12f3c)" style="fill: none; stroke: #1f77b4; stroke-width: 1.5; stroke-linecap: square"/>
   </g>
   <g id="patch_3">
    <path d="M 172.8 636.9552 
L 172.8 85.8816 
" style="fill: none; stroke: #000000; stroke-width: 0.8; stroke-linejoin: miter; stroke-linecap: square"/>
   </g>
   <g id="patch_4">
    <path d="M 659.781818 636.9552 
L 659.781818 85.8816 
" style="fill: none; stroke: #000000; stroke-width: 0.8; stroke-linejoin: miter; stroke-linecap: square"/>
   </g>
   <g id="patch_5">
    <path d="M 172.8 636.9552 
L 659.781818 636.9552 
" style="fill: none; stroke: #000000; stroke-width: 0.8; stroke-linejoin: miter; stroke-linecap: square"/>
   </g>
   <g id="patch_6">
    <path d="M 172.8 85.8816 
L 659.781818 85.8816 
" style="fill: none; stroke: #000000; stroke-width: 0.8; stroke-linejoin: miter; stroke-linecap: square"/>
   </g>
   <g id="text_11">
    <!-- Splitting Probability -->
    <g transform="translate(357.734659 79.8816) scale(0.12 -0.12)">
     <defs>
      <path id="DejaVuSans-53" d="M 3425 4513 
L 3425 3897 
Q 3066 4069 2747 4153 
Q 2428 4238 2131 4238 
Q 1616 4238 1336 4038 
Q 1056 3838 1056 3469 
Q 1056 3159 1242 3001 
Q 1428 2844 1947 2747 
L 2328 2669 
Q 3034 2534 3370 2195 
Q 3706 1856 3706 1288 
Q 3706 609 3251 259 
Q 2797 -91 1919 -91 
Q 1588 -91 1214 -16 
Q 841 59 441 206 
L 441 856 
Q 825 641 1194 531 
Q 1563 422 1919 422 
Q 2459 422 2753 634 
Q 3047 847 3047 1241 
Q 3047 1584 2836 1778 
Q 2625 1972 2144 2069 
L 1759 2144 
Q 1053 2284 737 2584 
Q 422 2884 422 3419 
Q 422 4038 858 4394 
Q 1294 4750 2059 4750 
Q 2388 4750 2728 4690 
Q 3069 4631 3425 4513 
z
" transform="scale(0.015625)"/>
      <path id="DejaVuSans-70" d="M 1159 525 
L 1159 -1331 
L 581 -1331 
L 581 3500 
L 1159 3500 
L 1159 2969 
Q 1341 3281 1617 3432 
Q 1894 3584 2278 3584 
Q 2916 3584 3314 3078 
Q 3713 2572 3713 1747 
Q 3713 922 3314 415 
Q 2916 -91 2278 -91 
Q 1894 -91 1617 61 
Q 1341 213 1159 525 
z
M 3116 1747 
Q 3116 2381 2855 2742 
Q 2594 3103 2138 3103 
Q 1681 3103 1420 2742 
Q 1159 2381 1159 1747 
Q 1159 1113 1420 752 
Q 1681 391 2138 391 
Q 2594 391 2855 752 
Q 3116 1113 3116 1747 
z
" transform="scale(0.015625)"/>
      <path id="DejaVuSans-6c" d="M 603 4863 
L 1178 4863 
L 1178 0 
L 603 0 
L 603 4863 
z
" transform="scale(0.015625)"/>
      <path id="DejaVuSans-69" d="M 603 3500 
L 1178 3500 
L 1178 0 
L 603 0 
L 603 3500 
z
M 603 4863 
L 1178 4863 
L 1178 4134 
L 603 4134 
L 603 4863 
z
" transform="scale(0.015625)"/>
      <path id="DejaVuSans-74" d="M 1172 4494 
L 1172 3500 
L 2356 3500 
L 2356 3053 
L 1172 3053 
L 1172 1153 
Q 1172 725 1289 603 
Q 1406 481 1766 481 
L 2356 481 
L 2356 0 
L 1766 0 
Q 1100 0 847 248 
Q 594 497 594 1153 
L 594 3053 
L 172 3053 
L 172 3500 
L 594 3500 
L 594 4494 
L 1172 4494 
z
" transform="scale(0.015625)"/>
      <path id="DejaVuSans-6e" d="M 3513 2113 
L 3513 0 
L 2938 0 
L 2938 2094 
Q 2938 2591 2744 2837 
Q 2550 3084 2163 3084 
Q 1697 3084 1428 2787 
Q 1159 2491 1159 1978 
L 1159 0 
L 581 0 
L 581 3500 
L 1159 3500 
L 1159 2956 
Q 1366 3272 1645 3428 
Q 1925 3584 2291 3584 
Q 2894 3584 3203 3211 
Q 3513 2838 3513 2113 
z
" transform="scale(0.015625)"/>
      <path id="DejaVuSans-67" d="M 2906 1791 
Q 2906 2416 2648 2759 
Q 2391 3103 1925 3103 
Q 1463 3103 1205 2759 
Q 947 2416 947 1791 
Q 947 1169 1205 825 
Q 1463 481 1925 481 
Q 2391 481 2648 825 
Q 2906 1169 2906 1791 
z
M 3481 434 
Q 3481 -459 3084 -895 
Q 2688 -1331 1869 -1331 
Q 1566 -1331 1297 -1286 
Q 1028 -1241 775 -1147 
L 775 -588 
Q 1028 -725 1275 -790 
Q 1522 -856 1778 -856 
Q 2344 -856 2625 -561 
Q 2906 -266 2906 331 
L 2906 616 
Q 2728 306 2450 153 
Q 2172 0 1784 0 
Q 1141 0 747 490 
Q 353 981 353 1791 
Q 353 2603 747 3093 
Q 1141 3584 1784 3584 
Q 2172 3584 2450 3431 
Q 2728 3278 2906 2969 
L 2906 3500 
L 3481 3500 
L 3481 434 
z
" transform="scale(0.015625)"/>
      <path id="DejaVuSans-20" transform="scale(0.015625)"/>
      <path id="DejaVuSans-50" d="M 1259 4147 
L 1259 2394 
L 2053 2394 
Q 2494 2394 2734 2622 
Q 2975 2850 2975 3272 
Q 2975 3691 2734 3919 
Q 2494 4147 2053 4147 
L 1259 4147 
z
M 628 4666 
L 2053 4666 
Q 2838 4666 3239 4311 
Q 3641 3956 3641 3272 
Q 3641 2581 3239 2228 
Q 2838 1875 2053 1875 
L 1259 1875 
L 1259 0 
L 628 0 
L 628 4666 
z
" transform="scale(0.015625)"/>
      <path id="DejaVuSans-72" d="M 2631 2963 
Q 2534 3019 2420 3045 
Q 2306 3072 2169 3072 
Q 1681 3072 1420 2755 
Q 1159 2438 1159 1844 
L 1159 0 
L 581 0 
L 581 3500 
L 1159 3500 
L 1159 2956 
Q 1341 3275 1631 3429 
Q 1922 3584 2338 3584 
Q 2397 3584 2469 3576 
Q 2541 3569 2628 3553 
L 2631 2963 
z
" transform="scale(0.015625)"/>
      <path id="DejaVuSans-6f" d="M 1959 3097 
Q 1497 3097 1228 2736 
Q 959 2375 959 1747 
Q 959 1119 1226 758 
Q 1494 397 1959 397 
Q 2419 397 2687 759 
Q 2956 1122 2956 1747 
Q 2956 2369 2687 2733 
Q 2419 3097 1959 3097 
z
M 1959 3584 
Q 2709 3584 3137 3096 
Q 3566 2609 3566 1747 
Q 3566 888 3137 398 
Q 2709 -91 1959 -91 
Q 1206 -91 779 398 
Q 353 888 353 1747 
Q 353 2609 779 3096 
Q 1206 3584 1959 3584 
z
" transform="scale(0.015625)"/>
      <path id="DejaVuSans-62" d="M 3116 1747 
Q 3116 2381 2855 2742 
Q 2594 3103 2138 3103 
Q 1681 3103 1420 2742 
Q 1159 2381 1159 1747 
Q 1159 1113 1420 752 
Q 1681 391 2138 391 
Q 2594 391 2855 752 
Q 3116 1113 3116 1747 
z
M 1159 2969 
Q 1341 3281 1617 3432 
Q 1894 3584 2278 3584 
Q 2916 3584 3314 3078 
Q 3713 2572 3713 1747 
Q 3713 922 3314 415 
Q 2916 -91 2278 -91 
Q 1894 -91 1617 61 
Q 1341 213 1159 525 
L 1159 0 
L 581 0 
L 581 4863 
L 1159 4863 
L 1159 2969 
z
" transform="scale(0.015625)"/>
      <path id="DejaVuSans-61" d="M 2194 1759 
Q 1497 1759 1228 1600 
Q 959 1441 959 1056 
Q 959 750 1161 570 
Q 1363 391 1709 391 
Q 2188 391 2477 730 
Q 2766 1069 2766 1631 
L 2766 1759 
L 2194 1759 
z
M 3341 1997 
L 3341 0 
L 2766 0 
L 2766 531 
Q 2569 213 2275 61 
Q 1981 -91 1556 -91 
Q 1019 -91 701 211 
Q 384 513 384 1019 
Q 384 1609 779 1909 
Q 1175 2209 1959 2209 
L 2766 2209 
L 2766 2266 
Q 2766 2663 2505 2880 
Q 2244 3097 1772 3097 
Q 1472 3097 1187 3025 
Q 903 2953 641 2809 
L 641 3341 
Q 956 3463 1253 3523 
Q 1550 3584 1831 3584 
Q 2591 3584 2966 3190 
Q 3341 2797 3341 1997 
z
" transform="scale(0.015625)"/>
      <path id="DejaVuSans-79" d="M 2059 -325 
Q 1816 -950 1584 -1140 
Q 1353 -1331 966 -1331 
L 506 -1331 
L 506 -850 
L 844 -850 
Q 1081 -850 1212 -737 
Q 1344 -625 1503 -206 
L 1606 56 
L 191 3500 
L 800 3500 
L 1894 763 
L 2988 3500 
L 3597 3500 
L 2059 -325 
z
" transform="scale(0.015625)"/>
     </defs>
     <use xlink:href="#DejaVuSans-53"/>
     <use xlink:href="#DejaVuSans-70" x="63.476562"/>
     <use xlink:href="#DejaVuSans-6c" x="126.953125"/>
     <use xlink:href="#DejaVuSans-69" x="154.736328"/>
     <use xlink:href="#DejaVuSans-74" x="182.519531"/>
     <use xlink:href="#DejaVuSans-74" x="221.728516"/>
     <use xlink:href="#DejaVuSans-69" x="260.9375"/>
     <use xlink:href="#DejaVuSans-6e" x="288.720703"/>
     <use xlink:href="#DejaVuSans-67" x="352.099609"/>
     <use xlink:href="#DejaVuSans-20" x="415.576172"/>
     <use xlink:href="#DejaVuSans-50" x="447.363281"/>
     <use xlink:href="#DejaVuSans-72" x="505.916016"/>
     <use xlink:href="#DejaVuSans-6f" x="544.779297"/>
     <use xlink:href="#DejaVuSans-62" x="605.960938"/>
     <use xlink:href="#DejaVuSans-61" x="669.4375"/>
     <use xlink:href="#DejaVuSans-62" x="730.716797"/>
     <use xlink:href="#DejaVuSans-69" x="794.193359"/>
     <use xlink:href="#DejaVuSans-6c" x="821.976562"/>
     <use xlink:href="#DejaVuSans-69" x="849.759766"/>
     <use xlink:href="#DejaVuSans-74" x="877.542969"/>
     <use xlink:href="#DejaVuSans-79" x="916.751953"/>
    </g>
   </g>
  </g>
  <g id="axes_2">
   <g id="patch_7">
    <path d="M 757.178182 636.9552 
L 1244.16 636.9552 
L 1244.16 85.8816 
L 757.178182 85.8816 
z
" style="fill: #ffffff"/>
   </g>
   <g id="matplotlib.axis_3">
    <g id="xtick_5">
     <g id="line2d_12">
      <g>
       <use xlink:href="#m8bf85ad0d0" x="828.12271" y="636.9552" style="stroke: #000000; stroke-width: 0.8"/>
      </g>
     </g>
     <g id="text_12">
      <!-- 20 -->
      <g transform="translate(821.76021 651.553637) scale(0.1 -0.1)">
       <use xlink:href="#DejaVuSans-32"/>
       <use xlink:href="#DejaVuSans-30" x="63.623047"/>
      </g>
     </g>
    </g>
    <g id="xtick_6">
     <g id="line2d_13">
      <g>
       <use xlink:href="#m8bf85ad0d0" x="933.655665" y="636.9552" style="stroke: #000000; stroke-width: 0.8"/>
      </g>
     </g>
     <g id="text_13">
      <!-- 40 -->
      <g transform="translate(927.293165 651.553637) scale(0.1 -0.1)">
       <use xlink:href="#DejaVuSans-34"/>
       <use xlink:href="#DejaVuSans-30" x="63.623047"/>
      </g>
     </g>
    </g>
    <g id="xtick_7">
     <g id="line2d_14">
      <g>
       <use xlink:href="#m8bf85ad0d0" x="1039.188619" y="636.9552" style="stroke: #000000; stroke-width: 0.8"/>
      </g>
     </g>
     <g id="text_14">
      <!-- 60 -->
      <g transform="translate(1032.826119 651.553637) scale(0.1 -0.1)">
       <use xlink:href="#DejaVuSans-36"/>
       <use xlink:href="#DejaVuSans-30" x="63.623047"/>
      </g>
     </g>
    </g>
    <g id="xtick_8">
     <g id="line2d_15">
      <g>
       <use xlink:href="#m8bf85ad0d0" x="1144.721574" y="636.9552" style="stroke: #000000; stroke-width: 0.8"/>
      </g>
     </g>
     <g id="text_15">
      <!-- 80 -->
      <g transform="translate(1138.359074 651.553637) scale(0.1 -0.1)">
       <use xlink:href="#DejaVuSans-38"/>
       <use xlink:href="#DejaVuSans-30" x="63.623047"/>
      </g>
     </g>
    </g>
   </g>
   <g id="matplotlib.axis_4">
    <g id="ytick_7">
     <g id="line2d_16">
      <g>
       <use xlink:href="#me082ee7a48" x="757.178182" y="611.9064" style="stroke: #000000; stroke-width: 0.8"/>
      </g>
     </g>
     <g id="text_16">
      <!-- 0.00 -->
      <g transform="translate(727.912557 615.705619) scale(0.1 -0.1)">
       <use xlink:href="#DejaVuSans-30"/>
       <use xlink:href="#DejaVuSans-2e" x="63.623047"/>
       <use xlink:href="#DejaVuSans-30" x="95.410156"/>
       <use xlink:href="#DejaVuSans-30" x="159.033203"/>
      </g>
     </g>
    </g>
    <g id="ytick_8">
     <g id="line2d_17">
      <g>
       <use xlink:href="#me082ee7a48" x="757.178182" y="511.711197" style="stroke: #000000; stroke-width: 0.8"/>
      </g>
     </g>
     <g id="text_17">
      <!-- 0.05 -->
      <g transform="translate(727.912557 515.510416) scale(0.1 -0.1)">
       <defs>
        <path id="DejaVuSans-35" d="M 691 4666 
L 3169 4666 
L 3169 4134 
L 1269 4134 
L 1269 2991 
Q 1406 3038 1543 3061 
Q 1681 3084 1819 3084 
Q 2600 3084 3056 2656 
Q 3513 2228 3513 1497 
Q 3513 744 3044 326 
Q 2575 -91 1722 -91 
Q 1428 -91 1123 -41 
Q 819 9 494 109 
L 494 744 
Q 775 591 1075 516 
Q 1375 441 1709 441 
Q 2250 441 2565 725 
Q 2881 1009 2881 1497 
Q 2881 1984 2565 2268 
Q 2250 2553 1709 2553 
Q 1456 2553 1204 2497 
Q 953 2441 691 2322 
L 691 4666 
z
" transform="scale(0.015625)"/>
       </defs>
       <use xlink:href="#DejaVuSans-30"/>
       <use xlink:href="#DejaVuSans-2e" x="63.623047"/>
       <use xlink:href="#DejaVuSans-30" x="95.410156"/>
       <use xlink:href="#DejaVuSans-35" x="159.033203"/>
      </g>
     </g>
    </g>
    <g id="ytick_9">
     <g id="line2d_18">
      <g>
       <use xlink:href="#me082ee7a48" x="757.178182" y="411.515995" style="stroke: #000000; stroke-width: 0.8"/>
      </g>
     </g>
     <g id="text_18">
      <!-- 0.10 -->
      <g transform="translate(727.912557 415.315213) scale(0.1 -0.1)">
       <use xlink:href="#DejaVuSans-30"/>
       <use xlink:href="#DejaVuSans-2e" x="63.623047"/>
       <use xlink:href="#DejaVuSans-31" x="95.410156"/>
       <use xlink:href="#DejaVuSans-30" x="159.033203"/>
      </g>
     </g>
    </g>
    <g id="ytick_10">
     <g id="line2d_19">
      <g>
       <use xlink:href="#me082ee7a48" x="757.178182" y="311.320792" style="stroke: #000000; stroke-width: 0.8"/>
      </g>
     </g>
     <g id="text_19">
      <!-- 0.15 -->
      <g transform="translate(727.912557 315.120011) scale(0.1 -0.1)">
       <use xlink:href="#DejaVuSans-30"/>
       <use xlink:href="#DejaVuSans-2e" x="63.623047"/>
       <use xlink:href="#DejaVuSans-31" x="95.410156"/>
       <use xlink:href="#DejaVuSans-35" x="159.033203"/>
      </g>
     </g>
    </g>
    <g id="ytick_11">
     <g id="line2d_20">
      <g>
       <use xlink:href="#me082ee7a48" x="757.178182" y="211.125589" style="stroke: #000000; stroke-width: 0.8"/>
      </g>
     </g>
     <g id="text_20">
      <!-- 0.20 -->
      <g transform="translate(727.912557 214.924808) scale(0.1 -0.1)">
       <use xlink:href="#DejaVuSans-30"/>
       <use xlink:href="#DejaVuSans-2e" x="63.623047"/>
       <use xlink:href="#DejaVuSans-32" x="95.410156"/>
       <use xlink:href="#DejaVuSans-30" x="159.033203"/>
      </g>
     </g>
    </g>
    <g id="ytick_12">
     <g id="line2d_21">
      <g>
       <use xlink:href="#me082ee7a48" x="757.178182" y="110.930386" style="stroke: #000000; stroke-width: 0.8"/>
      </g>
     </g>
     <g id="text_21">
      <!-- 0.25 -->
      <g transform="translate(727.912557 114.729605) scale(0.1 -0.1)">
       <use xlink:href="#DejaVuSans-30"/>
       <use xlink:href="#DejaVuSans-2e" x="63.623047"/>
       <use xlink:href="#DejaVuSans-32" x="95.410156"/>
       <use xlink:href="#DejaVuSans-35" x="159.033203"/>
      </g>
     </g>
    </g>
   </g>
   <g id="line2d_22">
    <path d="M 779.313719 611.9064 
L 780.896713 556.036454 
L 781.68821 528.329509 
L 782.479708 515.30665 
L 782.74354 510.352813 
L 783.271205 494.512095 
L 784.062702 486.233057 
L 784.590367 483.088863 
L 785.118032 479.603501 
L 785.909529 475.536624 
L 787.228691 472.237792 
L 787.756355 471.304208 
L 788.547853 469.440148 
L 789.33935 468.143054 
L 790.394679 466.760457 
L 794.088333 462.590262 
L 795.143662 461.508265 
L 796.198992 460.280446 
L 797.781986 458.665768 
L 799.101148 457.717367 
L 800.42031 456.999345 
L 801.739472 456.480629 
L 805.169293 455.400381 
L 808.335281 454.804308 
L 812.292767 454.350961 
L 818.09708 453.93646 
L 836.565347 452.949755 
L 846.85481 452.271944 
L 852.922955 451.63547 
L 859.782597 450.645954 
L 869.544395 448.972954 
L 872.974216 448.221303 
L 876.667869 447.185936 
L 881.15302 445.783435 
L 885.110506 443.940273 
L 888.276494 442.168434 
L 889.595656 441.259437 
L 890.387154 440.687424 
L 891.442483 439.518719 
L 892.497813 438.358178 
L 894.080807 436.669936 
L 895.663801 434.258903 
L 898.302125 429.189198 
L 898.82979 427.774304 
L 900.676617 420.323606 
L 901.995779 413.441018 
L 902.787276 408.378585 
L 903.31494 401.719203 
L 903.578773 399.98811 
L 904.106438 395.079672 
L 904.897935 389.772951 
L 905.4256 384.434513 
L 905.953264 382.301954 
L 906.744761 377.174089 
L 907.536259 374.349592 
L 908.063923 371.031315 
L 908.591588 369.320478 
L 909.383085 365.048388 
L 910.96608 358.99353 
L 911.493744 355.069332 
L 912.021409 353.282113 
L 914.923565 335.253414 
L 915.715063 330.980767 
L 916.770392 325.878835 
L 917.298057 320.386912 
L 917.825722 317.941781 
L 918.353386 315.994174 
L 919.144884 313.14113 
L 919.672548 310.153734 
L 920.200213 307.130877 
L 920.727878 305.317919 
L 920.99171 304.684199 
L 922.310872 298.055477 
L 923.366202 294.194441 
L 924.421531 289.278535 
L 925.213028 286.612878 
L 925.740693 284.40514 
L 926.004526 283.105726 
L 926.53219 279.328399 
L 927.059855 277.258105 
L 927.323688 276.515327 
L 927.851352 274.044396 
L 928.379017 270.279233 
L 929.698179 265.40052 
L 929.962011 264.633676 
L 931.808838 255.958491 
L 932.072671 254.355983 
L 932.336503 250.126153 
L 934.18333 205.455967 
L 934.710994 198.385916 
L 935.766324 189.386616 
L 936.293989 182.957715 
L 937.085486 176.203294 
L 938.66848 165.319685 
L 939.987642 150.15466 
L 940.251475 148.774173 
L 941.042972 145.736625 
L 941.306804 145.170384 
L 942.098301 141.650929 
L 943.417463 135.330731 
L 944.20896 132.834734 
L 944.736625 131.388989 
L 945.26429 130.488988 
L 946.583452 127.771091 
L 947.111117 127.108459 
L 947.638781 126.361902 
L 949.74944 124.44943 
L 952.123932 121.993713 
L 952.651597 121.2902 
L 953.970759 120.180089 
L 954.498423 119.758676 
L 955.026088 119.131463 
L 956.872915 117.420215 
L 957.40058 116.878069 
L 959.247406 115.642197 
L 960.566568 114.998585 
L 961.358065 114.642427 
L 962.94106 114.139322 
L 963.732557 113.860707 
L 966.634713 112.847025 
L 968.48154 112.45924 
L 971.911361 112.023118 
L 978.771003 111.346577 
L 983.256153 110.990606 
L 989.588131 110.931067 
L 1002.515918 111.060461 
L 1020.720352 111.483223 
L 1031.801312 111.982182 
L 1045.520597 113.102295 
L 1048.422753 113.583055 
L 1051.061077 114.189186 
L 1054.490898 114.826641 
L 1056.337724 115.234917 
L 1058.712216 116.110202 
L 1061.086707 117.451935 
L 1063.197366 118.997517 
L 1065.571858 121.962231 
L 1066.363355 125.274749 
L 1066.627187 126.005808 
L 1067.682517 127.540737 
L 1068.474014 129.142943 
L 1069.001679 130.039544 
L 1069.529344 133.183796 
L 1070.057008 134.00726 
L 1071.37617 136.442447 
L 1072.167668 138.764598 
L 1072.695332 140.243881 
L 1073.486829 143.31734 
L 1074.014494 144.570778 
L 1074.805991 146.636744 
L 1075.333656 148.038221 
L 1075.861321 153.171892 
L 1076.388986 158.638046 
L 1076.91665 161.057467 
L 1078.763477 180.079309 
L 1079.291142 183.069931 
L 1079.818807 185.482406 
L 1080.346471 189.241103 
L 1080.874136 191.976124 
L 1081.665633 196.486367 
L 1082.193298 197.951047 
L 1083.51246 206.185346 
L 1084.040125 208.347363 
L 1085.623119 212.756485 
L 1086.942281 216.057871 
L 1087.206114 216.492656 
L 1087.997611 218.192017 
L 1089.05294 219.847835 
L 1089.580605 220.785986 
L 1091.427432 222.807104 
L 1092.482761 224.35037 
L 1093.010426 226.048563 
L 1094.857253 228.591237 
L 1096.176415 229.79748 
L 1098.287074 231.281973 
L 1100.925398 232.758209 
L 1103.827554 233.760433 
L 1109.368034 235.171574 
L 1127.044804 238.761038 
L 1138.917261 240.60037 
L 1144.457741 241.430941 
L 1149.998221 242.434012 
L 1163.717505 245.191946 
L 1168.466488 246.399053 
L 1171.104812 247.084895 
L 1175.853795 248.333088 
L 1181.658108 250.570147 
L 1184.824096 252.351751 
L 1187.198588 254.320104 
L 1190.892241 257.881799 
L 1193.530565 260.288615 
L 1196.696554 263.563191 
L 1196.960386 263.908843 
L 1197.488051 264.996782 
L 1198.54338 266.401268 
L 1199.071045 267.32698 
L 1200.390207 269.09927 
L 1201.181704 270.029301 
L 1204.083861 273.497826 
L 1205.403022 276.358477 
L 1205.930687 277.510258 
L 1206.722184 279.136251 
L 1207.513682 280.271756 
L 1208.041346 281.231442 
L 1208.569011 282.714727 
L 1209.360508 284.398494 
L 1210.152005 286.66929 
L 1210.67967 289.417594 
L 1210.943503 290.362077 
L 1211.998832 295.764422 
L 1212.790329 303.29777 
L 1213.054162 305.704353 
L 1213.845659 316.187725 
L 1214.637156 335.009824 
L 1215.428653 360.088286 
L 1216.22015 374.327995 
L 1217.011647 398.940134 
L 1217.803145 422.030801 
L 1219.122307 476.530825 
L 1221.76063 598.720239 
L 1222.024463 611.9064 
L 1222.024463 611.9064 
" clip-path="url(#p52d5735714)" style="fill: none; stroke: #1f77b4; stroke-width: 1.5; stroke-linecap: square"/>
   </g>
   <g id="patch_8">
    <path d="M 757.178182 636.9552 
L 757.178182 85.8816 
" style="fill: none; stroke: #000000; stroke-width: 0.8; stroke-linejoin: miter; stroke-linecap: square"/>
   </g>
   <g id="patch_9">
    <path d="M 1244.16 636.9552 
L 1244.16 85.8816 
" style="fill: none; stroke: #000000; stroke-width: 0.8; stroke-linejoin: miter; stroke-linecap: square"/>
   </g>
   <g id="patch_10">
    <path d="M 757.178182 636.9552 
L 1244.16 636.9552 
" style="fill: none; stroke: #000000; stroke-width: 0.8; stroke-linejoin: miter; stroke-linecap: square"/>
   </g>
   <g id="patch_11">
    <path d="M 757.178182 85.8816 
L 1244.16 85.8816 
" style="fill: none; stroke: #000000; stroke-width: 0.8; stroke-linejoin: miter; stroke-linecap: square"/>
   </g>
   <g id="text_22">
    <!-- Splitting Probability a * b -->
    <g transform="translate(925.906278 79.8816) scale(0.12 -0.12)">
     <defs>
      <path id="DejaVuSans-2a" d="M 3009 3897 
L 1888 3291 
L 3009 2681 
L 2828 2375 
L 1778 3009 
L 1778 1831 
L 1422 1831 
L 1422 3009 
L 372 2375 
L 191 2681 
L 1313 3291 
L 191 3897 
L 372 4206 
L 1422 3572 
L 1422 4750 
L 1778 4750 
L 1778 3572 
L 2828 4206 
L 3009 3897 
z
" transform="scale(0.015625)"/>
     </defs>
     <use xlink:href="#DejaVuSans-53"/>
     <use xlink:href="#DejaVuSans-70" x="63.476562"/>
     <use xlink:href="#DejaVuSans-6c" x="126.953125"/>
     <use xlink:href="#DejaVuSans-69" x="154.736328"/>
     <use xlink:href="#DejaVuSans-74" x="182.519531"/>
     <use xlink:href="#DejaVuSans-74" x="221.728516"/>
     <use xlink:href="#DejaVuSans-69" x="260.9375"/>
     <use xlink:href="#DejaVuSans-6e" x="288.720703"/>
     <use xlink:href="#DejaVuSans-67" x="352.099609"/>
     <use xlink:href="#DejaVuSans-20" x="415.576172"/>
     <use xlink:href="#DejaVuSans-50" x="447.363281"/>
     <use xlink:href="#DejaVuSans-72" x="505.916016"/>
     <use xlink:href="#DejaVuSans-6f" x="544.779297"/>
     <use xlink:href="#DejaVuSans-62" x="605.960938"/>
     <use xlink:href="#DejaVuSans-61" x="669.4375"/>
     <use xlink:href="#DejaVuSans-62" x="730.716797"/>
     <use xlink:href="#DejaVuSans-69" x="794.193359"/>
     <use xlink:href="#DejaVuSans-6c" x="821.976562"/>
     <use xlink:href="#DejaVuSans-69" x="849.759766"/>
     <use xlink:href="#DejaVuSans-74" x="877.542969"/>
     <use xlink:href="#DejaVuSans-79" x="916.751953"/>
     <use xlink:href="#DejaVuSans-20" x="975.931641"/>
     <use xlink:href="#DejaVuSans-61" x="1007.71875"/>
     <use xlink:href="#DejaVuSans-20" x="1068.998047"/>
     <use xlink:href="#DejaVuSans-2a" x="1100.785156"/>
     <use xlink:href="#DejaVuSans-20" x="1150.785156"/>
     <use xlink:href="#DejaVuSans-62" x="1182.572266"/>
    </g>
   </g>
  </g>
 </g>
 <defs>
  <clipPath id="p9b26a12f3c">
   <rect x="172.8" y="85.8816" width="486.981818" height="551.0736"/>
  </clipPath>
  <clipPath id="p52d5735714">
   <rect x="757.178182" y="85.8816" width="486.981818" height="551.0736"/>
  </clipPath>
 </defs>
</svg>
