<?xml version="1.0" encoding="utf-8" standalone="no"?>
<!DOCTYPE svg PUBLIC "-//W3C//DTD SVG 1.1//EN"
  "http://www.w3.org/Graphics/SVG/1.1/DTD/svg11.dtd">
<svg xmlns:xlink="http://www.w3.org/1999/xlink" width="460.8pt" height="345.6pt" viewBox="0 0 460.8 345.6" xmlns="http://www.w3.org/2000/svg" version="1.1">
 <metadata>
  <rdf:RDF xmlns:dc="http://purl.org/dc/elements/1.1/" xmlns:cc="http://creativecommons.org/ns#" xmlns:rdf="http://www.w3.org/1999/02/22-rdf-syntax-ns#">
   <cc:Work>
    <dc:type rdf:resource="http://purl.org/dc/dcmitype/StillImage"/>
    <dc:date>2024-09-14T18:06:55.536484</dc:date>
    <dc:format>image/svg+xml</dc:format>
    <dc:creator>
     <cc:Agent>
      <dc:title>Matplotlib v3.9.0, https://matplotlib.org/</dc:title>
     </cc:Agent>
    </dc:creator>
   </cc:Work>
  </rdf:RDF>
 </metadata>
 <defs>
  <style type="text/css">*{stroke-linejoin: round; stroke-linecap: butt}</style>
 </defs>
 <g id="figure_1">
  <g id="patch_1">
   <path d="M 0 345.6 
L 460.8 345.6 
L 460.8 0 
L 0 0 
z
" style="fill: #ffffff"/>
  </g>
  <g id="axes_1">
   <g id="patch_2">
    <path d="M 57.6 307.584 
L 414.72 307.584 
L 414.72 41.472 
L 57.6 41.472 
z
" style="fill: #ffffff"/>
   </g>
   <g id="matplotlib.axis_1">
    <g id="xtick_1">
     <g id="line2d_1">
      <defs>
       <path id="m37f8f01578" d="M 0 0 
L 0 3.5 
" style="stroke: #000000; stroke-width: 0.8"/>
      </defs>
      <g>
       <use xlink:href="#m37f8f01578" x="66.19061" y="307.584" style="stroke: #000000; stroke-width: 0.8"/>
      </g>
     </g>
     <g id="text_1">
      <!-- −20 -->
      <g transform="translate(55.638266 322.182437) scale(0.1 -0.1)">
       <defs>
        <path id="DejaVuSans-2212" d="M 678 2272 
L 4684 2272 
L 4684 1741 
L 678 1741 
L 678 2272 
z
" transform="scale(0.015625)"/>
        <path id="DejaVuSans-32" d="M 1228 531 
L 3431 531 
L 3431 0 
L 469 0 
L 469 531 
Q 828 903 1448 1529 
Q 2069 2156 2228 2338 
Q 2531 2678 2651 2914 
Q 2772 3150 2772 3378 
Q 2772 3750 2511 3984 
Q 2250 4219 1831 4219 
Q 1534 4219 1204 4116 
Q 875 4013 500 3803 
L 500 4441 
Q 881 4594 1212 4672 
Q 1544 4750 1819 4750 
Q 2544 4750 2975 4387 
Q 3406 4025 3406 3419 
Q 3406 3131 3298 2873 
Q 3191 2616 2906 2266 
Q 2828 2175 2409 1742 
Q 1991 1309 1228 531 
z
" transform="scale(0.015625)"/>
        <path id="DejaVuSans-30" d="M 2034 4250 
Q 1547 4250 1301 3770 
Q 1056 3291 1056 2328 
Q 1056 1369 1301 889 
Q 1547 409 2034 409 
Q 2525 409 2770 889 
Q 3016 1369 3016 2328 
Q 3016 3291 2770 3770 
Q 2525 4250 2034 4250 
z
M 2034 4750 
Q 2819 4750 3233 4129 
Q 3647 3509 3647 2328 
Q 3647 1150 3233 529 
Q 2819 -91 2034 -91 
Q 1250 -91 836 529 
Q 422 1150 422 2328 
Q 422 3509 836 4129 
Q 1250 4750 2034 4750 
z
" transform="scale(0.015625)"/>
       </defs>
       <use xlink:href="#DejaVuSans-2212"/>
       <use xlink:href="#DejaVuSans-32" x="83.789062"/>
       <use xlink:href="#DejaVuSans-30" x="147.412109"/>
      </g>
     </g>
    </g>
    <g id="xtick_2">
     <g id="line2d_2">
      <g>
       <use xlink:href="#m37f8f01578" x="112.352583" y="307.584" style="stroke: #000000; stroke-width: 0.8"/>
      </g>
     </g>
     <g id="text_2">
      <!-- −15 -->
      <g transform="translate(101.800239 322.182437) scale(0.1 -0.1)">
       <defs>
        <path id="DejaVuSans-31" d="M 794 531 
L 1825 531 
L 1825 4091 
L 703 3866 
L 703 4441 
L 1819 4666 
L 2450 4666 
L 2450 531 
L 3481 531 
L 3481 0 
L 794 0 
L 794 531 
z
" transform="scale(0.015625)"/>
        <path id="DejaVuSans-35" d="M 691 4666 
L 3169 4666 
L 3169 4134 
L 1269 4134 
L 1269 2991 
Q 1406 3038 1543 3061 
Q 1681 3084 1819 3084 
Q 2600 3084 3056 2656 
Q 3513 2228 3513 1497 
Q 3513 744 3044 326 
Q 2575 -91 1722 -91 
Q 1428 -91 1123 -41 
Q 819 9 494 109 
L 494 744 
Q 775 591 1075 516 
Q 1375 441 1709 441 
Q 2250 441 2565 725 
Q 2881 1009 2881 1497 
Q 2881 1984 2565 2268 
Q 2250 2553 1709 2553 
Q 1456 2553 1204 2497 
Q 953 2441 691 2322 
L 691 4666 
z
" transform="scale(0.015625)"/>
       </defs>
       <use xlink:href="#DejaVuSans-2212"/>
       <use xlink:href="#DejaVuSans-31" x="83.789062"/>
       <use xlink:href="#DejaVuSans-35" x="147.412109"/>
      </g>
     </g>
    </g>
    <g id="xtick_3">
     <g id="line2d_3">
      <g>
       <use xlink:href="#m37f8f01578" x="158.514556" y="307.584" style="stroke: #000000; stroke-width: 0.8"/>
      </g>
     </g>
     <g id="text_3">
      <!-- −10 -->
      <g transform="translate(147.962212 322.182437) scale(0.1 -0.1)">
       <use xlink:href="#DejaVuSans-2212"/>
       <use xlink:href="#DejaVuSans-31" x="83.789062"/>
       <use xlink:href="#DejaVuSans-30" x="147.412109"/>
      </g>
     </g>
    </g>
    <g id="xtick_4">
     <g id="line2d_4">
      <g>
       <use xlink:href="#m37f8f01578" x="204.676529" y="307.584" style="stroke: #000000; stroke-width: 0.8"/>
      </g>
     </g>
     <g id="text_4">
      <!-- −5 -->
      <g transform="translate(197.305435 322.182437) scale(0.1 -0.1)">
       <use xlink:href="#DejaVuSans-2212"/>
       <use xlink:href="#DejaVuSans-35" x="83.789062"/>
      </g>
     </g>
    </g>
    <g id="xtick_5">
     <g id="line2d_5">
      <g>
       <use xlink:href="#m37f8f01578" x="250.838502" y="307.584" style="stroke: #000000; stroke-width: 0.8"/>
      </g>
     </g>
     <g id="text_5">
      <!-- 0 -->
      <g transform="translate(247.657252 322.182437) scale(0.1 -0.1)">
       <use xlink:href="#DejaVuSans-30"/>
      </g>
     </g>
    </g>
    <g id="xtick_6">
     <g id="line2d_6">
      <g>
       <use xlink:href="#m37f8f01578" x="297.000476" y="307.584" style="stroke: #000000; stroke-width: 0.8"/>
      </g>
     </g>
     <g id="text_6">
      <!-- 5 -->
      <g transform="translate(293.819226 322.182437) scale(0.1 -0.1)">
       <use xlink:href="#DejaVuSans-35"/>
      </g>
     </g>
    </g>
    <g id="xtick_7">
     <g id="line2d_7">
      <g>
       <use xlink:href="#m37f8f01578" x="343.162449" y="307.584" style="stroke: #000000; stroke-width: 0.8"/>
      </g>
     </g>
     <g id="text_7">
      <!-- 10 -->
      <g transform="translate(336.799949 322.182437) scale(0.1 -0.1)">
       <use xlink:href="#DejaVuSans-31"/>
       <use xlink:href="#DejaVuSans-30" x="63.623047"/>
      </g>
     </g>
    </g>
    <g id="xtick_8">
     <g id="line2d_8">
      <g>
       <use xlink:href="#m37f8f01578" x="389.324422" y="307.584" style="stroke: #000000; stroke-width: 0.8"/>
      </g>
     </g>
     <g id="text_8">
      <!-- 15 -->
      <g transform="translate(382.961922 322.182437) scale(0.1 -0.1)">
       <use xlink:href="#DejaVuSans-31"/>
       <use xlink:href="#DejaVuSans-35" x="63.623047"/>
      </g>
     </g>
    </g>
   </g>
   <g id="matplotlib.axis_2">
    <g id="ytick_1">
     <g id="line2d_9">
      <defs>
       <path id="m4caf08712a" d="M 0 0 
L -3.5 0 
" style="stroke: #000000; stroke-width: 0.8"/>
      </defs>
      <g>
       <use xlink:href="#m4caf08712a" x="57.6" y="295.488" style="stroke: #000000; stroke-width: 0.8"/>
      </g>
     </g>
     <g id="text_9">
      <!-- 0.0 -->
      <g transform="translate(34.696875 299.287219) scale(0.1 -0.1)">
       <defs>
        <path id="DejaVuSans-2e" d="M 684 794 
L 1344 794 
L 1344 0 
L 684 0 
L 684 794 
z
" transform="scale(0.015625)"/>
       </defs>
       <use xlink:href="#DejaVuSans-30"/>
       <use xlink:href="#DejaVuSans-2e" x="63.623047"/>
       <use xlink:href="#DejaVuSans-30" x="95.410156"/>
      </g>
     </g>
    </g>
    <g id="ytick_2">
     <g id="line2d_10">
      <g>
       <use xlink:href="#m4caf08712a" x="57.6" y="248.99924" style="stroke: #000000; stroke-width: 0.8"/>
      </g>
     </g>
     <g id="text_10">
      <!-- 0.5 -->
      <g transform="translate(34.696875 252.798459) scale(0.1 -0.1)">
       <use xlink:href="#DejaVuSans-30"/>
       <use xlink:href="#DejaVuSans-2e" x="63.623047"/>
       <use xlink:href="#DejaVuSans-35" x="95.410156"/>
      </g>
     </g>
    </g>
    <g id="ytick_3">
     <g id="line2d_11">
      <g>
       <use xlink:href="#m4caf08712a" x="57.6" y="202.510481" style="stroke: #000000; stroke-width: 0.8"/>
      </g>
     </g>
     <g id="text_11">
      <!-- 1.0 -->
      <g transform="translate(34.696875 206.3097) scale(0.1 -0.1)">
       <use xlink:href="#DejaVuSans-31"/>
       <use xlink:href="#DejaVuSans-2e" x="63.623047"/>
       <use xlink:href="#DejaVuSans-30" x="95.410156"/>
      </g>
     </g>
    </g>
    <g id="ytick_4">
     <g id="line2d_12">
      <g>
       <use xlink:href="#m4caf08712a" x="57.6" y="156.021721" style="stroke: #000000; stroke-width: 0.8"/>
      </g>
     </g>
     <g id="text_12">
      <!-- 1.5 -->
      <g transform="translate(34.696875 159.82094) scale(0.1 -0.1)">
       <use xlink:href="#DejaVuSans-31"/>
       <use xlink:href="#DejaVuSans-2e" x="63.623047"/>
       <use xlink:href="#DejaVuSans-35" x="95.410156"/>
      </g>
     </g>
    </g>
    <g id="ytick_5">
     <g id="line2d_13">
      <g>
       <use xlink:href="#m4caf08712a" x="57.6" y="109.532962" style="stroke: #000000; stroke-width: 0.8"/>
      </g>
     </g>
     <g id="text_13">
      <!-- 2.0 -->
      <g transform="translate(34.696875 113.332181) scale(0.1 -0.1)">
       <use xlink:href="#DejaVuSans-32"/>
       <use xlink:href="#DejaVuSans-2e" x="63.623047"/>
       <use xlink:href="#DejaVuSans-30" x="95.410156"/>
      </g>
     </g>
    </g>
    <g id="ytick_6">
     <g id="line2d_14">
      <g>
       <use xlink:href="#m4caf08712a" x="57.6" y="63.044202" style="stroke: #000000; stroke-width: 0.8"/>
      </g>
     </g>
     <g id="text_14">
      <!-- 2.5 -->
      <g transform="translate(34.696875 66.843421) scale(0.1 -0.1)">
       <use xlink:href="#DejaVuSans-32"/>
       <use xlink:href="#DejaVuSans-2e" x="63.623047"/>
       <use xlink:href="#DejaVuSans-35" x="95.410156"/>
      </g>
     </g>
    </g>
   </g>
   <g id="line2d_15">
    <path d="M 73.832727 224.581399 
L 77.407502 235.558691 
L 80.657297 244.825944 
L 83.582113 252.557547 
L 86.506929 259.687925 
L 89.431744 266.195769 
L 92.031581 271.443036 
L 94.631417 276.173658 
L 96.906274 279.883287 
L 99.18113 283.18884 
L 101.455987 286.089598 
L 103.405864 288.254882 
L 105.355741 290.126185 
L 107.305618 291.707107 
L 109.255495 293.002504 
L 111.205373 294.018453 
L 113.15525 294.762199 
L 115.105127 295.242078 
L 117.055004 295.467419 
L 119.004881 295.448447 
L 120.954758 295.196155 
L 122.904636 294.72219 
L 124.854513 294.038717 
L 127.129369 292.993315 
L 129.404226 291.700258 
L 132.004062 289.945718 
L 134.603898 287.9255 
L 137.528714 285.373072 
L 140.778509 282.239166 
L 144.678264 278.140037 
L 149.227977 273.004049 
L 155.077609 266.038883 
L 174.2514 242.926228 
L 179.776052 236.757506 
L 184.650745 231.646443 
L 189.200459 227.202617 
L 193.425192 223.388349 
L 197.324947 220.154124 
L 201.224701 217.21028 
L 204.799476 214.777535 
L 208.374251 212.60741 
L 211.949025 210.706758 
L 215.198821 209.217567 
L 218.448616 207.959374 
L 221.698411 206.935087 
L 224.948206 206.147008 
L 228.198002 205.596871 
L 231.447797 205.285867 
L 234.697592 205.214661 
L 237.947387 205.383406 
L 241.197183 205.791741 
L 244.446978 206.438788 
L 247.696773 207.323139 
L 250.946568 208.442833 
L 254.196364 209.795326 
L 257.446159 211.377453 
L 261.020934 213.378426 
L 264.595708 215.646477 
L 268.170483 218.174302 
L 272.070238 221.21803 
L 275.969992 224.547415 
L 280.194726 228.458457 
L 284.744439 232.997777 
L 289.619132 238.199113 
L 294.818804 244.075 
L 301.318395 251.780194 
L 321.792105 276.367036 
L 326.016839 280.931915 
L 329.591613 284.483613 
L 332.841409 287.400542 
L 335.766224 289.72286 
L 338.366061 291.510019 
L 340.640917 292.834576 
L 342.915774 293.914226 
L 345.190631 294.728523 
L 347.140508 295.200131 
L 349.090385 295.449936 
L 351.040262 295.466297 
L 352.990139 295.238228 
L 354.940016 294.755515 
L 356.889894 294.008837 
L 358.839771 292.989872 
L 360.789648 291.691387 
L 362.739525 290.107316 
L 364.689402 288.232817 
L 366.639279 286.064307 
L 368.914136 283.159761 
L 371.188993 279.850417 
L 373.463849 276.137014 
L 375.738706 272.022416 
L 378.338542 266.835018 
L 380.938378 261.139908 
L 383.863194 254.141629 
L 386.78801 246.537334 
L 390.037805 237.405455 
L 393.2876 227.587576 
L 396.862375 216.036819 
L 398.487273 210.538279 
L 398.487273 210.538279 
" clip-path="url(#p56e603d247)" style="fill: none; stroke: #1f77b4; stroke-width: 1.5; stroke-linecap: square"/>
   </g>
   <g id="line2d_16">
    <path d="M 73.832727 205.684612 
L 77.732482 219.769821 
L 81.307256 231.829125 
L 84.557052 242.029989 
L 87.481867 250.5484 
L 90.406683 258.402643 
L 93.006519 264.799237 
L 95.606355 270.62245 
L 97.881212 275.232206 
L 100.156069 279.377428 
L 102.430925 283.049771 
L 104.380803 285.816812 
L 106.33068 288.23056 
L 108.280557 290.291047 
L 110.230434 292.000139 
L 111.855332 293.158587 
L 113.480229 294.078702 
L 115.105127 294.764495 
L 116.730025 295.220816 
L 118.354922 295.453312 
L 119.97982 295.468367 
L 121.604717 295.273042 
L 123.229615 294.875003 
L 125.179492 294.141335 
L 127.129369 293.142557 
L 129.079247 291.894371 
L 131.354103 290.144584 
L 133.62896 288.103689 
L 136.228796 285.448743 
L 139.153612 282.097625 
L 142.403407 277.985647 
L 145.978182 273.072649 
L 150.202916 266.857763 
L 155.402588 258.787497 
L 164.177035 244.671041 
L 173.926421 229.093874 
L 180.101032 219.645432 
L 185.300704 212.074889 
L 190.175397 205.363101 
L 194.725111 199.476014 
L 198.949844 194.362011 
L 203.174578 189.607209 
L 207.074333 185.550509 
L 210.974087 181.82316 
L 214.548862 178.70268 
L 218.123636 175.870752 
L 221.698411 173.331325 
L 224.948206 171.279125 
L 228.198002 169.47279 
L 231.447797 167.913401 
L 234.697592 166.601516 
L 237.947387 165.537186 
L 241.197183 164.719967 
L 244.446978 164.148925 
L 247.696773 163.822632 
L 250.946568 163.739147 
L 254.196364 163.896006 
L 257.446159 164.290188 
L 260.695954 164.918077 
L 263.945749 165.775424 
L 267.195545 166.857288 
L 270.44534 168.157974 
L 274.020115 169.833655 
L 277.594889 171.756232 
L 281.494644 174.121659 
L 285.394398 176.750064 
L 289.619132 179.871151 
L 294.168845 183.517593 
L 299.368518 187.992925 
L 305.543129 193.631705 
L 317.892351 205.333259 
L 324.066962 210.979629 
L 328.616675 214.849358 
L 332.516429 217.867632 
L 335.766224 220.109391 
L 338.69104 221.86994 
L 341.290876 223.198569 
L 343.890713 224.2765 
L 346.165569 224.992581 
L 348.440426 225.477665 
L 350.715283 225.71392 
L 352.66516 225.705245 
L 354.615037 225.490572 
L 356.564914 225.059941 
L 358.514791 224.403995 
L 360.464668 223.514074 
L 362.414545 222.382301 
L 364.364423 221.001662 
L 366.3143 219.366072 
L 368.264177 217.470422 
L 370.539034 214.924746 
L 372.81389 212.014865 
L 375.088747 208.737991 
L 377.363604 205.093216 
L 379.96344 200.478495 
L 382.563276 195.38849 
L 385.163112 189.829795 
L 388.087928 183.027105 
L 391.012744 175.657813 
L 394.262539 166.826678 
L 397.512334 157.344262 
L 398.487273 154.376669 
L 398.487273 154.376669 
" clip-path="url(#p56e603d247)" style="fill: none; stroke: #ff7f0e; stroke-width: 1.5; stroke-linecap: square"/>
   </g>
   <g id="line2d_17">
    <path d="M 73.832727 165.234673 
L 78.382441 186.604634 
L 82.282195 203.93324 
L 85.85697 218.912145 
L 89.431744 232.915954 
L 92.68154 244.699593 
L 95.606355 254.449833 
L 98.206192 262.374139 
L 100.806028 269.545125 
L 103.080885 275.162461 
L 105.030762 279.464561 
L 106.980639 283.275402 
L 108.930516 286.580886 
L 110.555414 288.941557 
L 112.180311 290.939559 
L 113.805209 292.572703 
L 115.430106 293.840919 
L 116.730025 294.594088 
L 118.029943 295.117102 
L 119.329861 295.412937 
L 120.629779 295.485424 
L 121.929697 295.339215 
L 123.229615 294.979726 
L 124.529533 294.41308 
L 126.154431 293.423805 
L 127.779328 292.135848 
L 129.404226 290.564729 
L 131.354103 288.328733 
L 133.30398 285.738056 
L 135.578837 282.307534 
L 137.853694 278.483301 
L 140.45353 273.691266 
L 143.378346 267.843942 
L 146.95312 260.168512 
L 151.177854 250.540251 
L 157.027486 236.587887 
L 175.876298 191.155059 
L 181.72593 177.850099 
L 186.925602 166.56315 
L 191.800295 156.503308 
L 196.350008 147.605555 
L 200.899722 139.207292 
L 205.124455 131.872357 
L 209.349189 124.995252 
L 213.248943 119.060834 
L 217.148698 113.528605 
L 221.048452 108.402059 
L 224.623227 104.061084 
L 228.198002 100.06392 
L 231.772776 96.410879 
L 235.022572 93.388302 
L 238.272367 90.649216 
L 241.522162 88.192573 
L 244.771957 86.016932 
L 248.021753 84.120462 
L 251.271548 82.500926 
L 254.196364 81.277931 
L 257.121179 80.274852 
L 260.045995 79.489127 
L 262.970811 78.917855 
L 265.895627 78.557771 
L 268.820442 78.405215 
L 271.745258 78.456092 
L 274.995053 78.745642 
L 278.244848 79.273664 
L 281.494644 80.032241 
L 284.744439 81.012464 
L 288.319214 82.334718 
L 291.893989 83.89794 
L 295.793743 85.857911 
L 300.018477 88.252236 
L 304.56819 91.104071 
L 309.767862 94.641934 
L 316.592432 99.579666 
L 328.291695 108.077123 
L 332.841409 111.089711 
L 336.741163 113.402178 
L 339.990958 115.074672 
L 342.915774 116.336517 
L 345.51561 117.231933 
L 348.115446 117.885468 
L 350.390303 118.236939 
L 352.66516 118.363282 
L 354.940016 118.246298 
L 356.889894 117.938979 
L 358.839771 117.429292 
L 360.789648 116.707137 
L 362.739525 115.763054 
L 364.689402 114.588319 
L 366.639279 113.175032 
L 368.589156 111.516192 
L 370.864013 109.262535 
L 373.13887 106.658652 
L 375.413726 103.698651 
L 377.688583 100.3786 
L 379.96344 96.696503 
L 382.563276 92.044979 
L 385.163112 86.923046 
L 387.762948 81.335989 
L 390.687764 74.504171 
L 393.61258 67.107215 
L 396.862375 58.245375 
L 398.487273 53.568 
L 398.487273 53.568 
" clip-path="url(#p56e603d247)" style="fill: none; stroke: #2ca02c; stroke-width: 1.5; stroke-linecap: square"/>
   </g>
   <g id="patch_3">
    <path d="M 57.6 307.584 
L 57.6 41.472 
" style="fill: none; stroke: #000000; stroke-width: 0.8; stroke-linejoin: miter; stroke-linecap: square"/>
   </g>
   <g id="patch_4">
    <path d="M 414.72 307.584 
L 414.72 41.472 
" style="fill: none; stroke: #000000; stroke-width: 0.8; stroke-linejoin: miter; stroke-linecap: square"/>
   </g>
   <g id="patch_5">
    <path d="M 57.6 307.584 
L 414.72 307.584 
" style="fill: none; stroke: #000000; stroke-width: 0.8; stroke-linejoin: miter; stroke-linecap: square"/>
   </g>
   <g id="patch_6">
    <path d="M 57.6 41.472 
L 414.72 41.472 
" style="fill: none; stroke: #000000; stroke-width: 0.8; stroke-linejoin: miter; stroke-linecap: square"/>
   </g>
   <g id="text_15">
    <!-- PMF -->
    <g transform="translate(223.914375 35.472) scale(0.12 -0.12)">
     <defs>
      <path id="DejaVuSans-50" d="M 1259 4147 
L 1259 2394 
L 2053 2394 
Q 2494 2394 2734 2622 
Q 2975 2850 2975 3272 
Q 2975 3691 2734 3919 
Q 2494 4147 2053 4147 
L 1259 4147 
z
M 628 4666 
L 2053 4666 
Q 2838 4666 3239 4311 
Q 3641 3956 3641 3272 
Q 3641 2581 3239 2228 
Q 2838 1875 2053 1875 
L 1259 1875 
L 1259 0 
L 628 0 
L 628 4666 
z
" transform="scale(0.015625)"/>
      <path id="DejaVuSans-4d" d="M 628 4666 
L 1569 4666 
L 2759 1491 
L 3956 4666 
L 4897 4666 
L 4897 0 
L 4281 0 
L 4281 4097 
L 3078 897 
L 2444 897 
L 1241 4097 
L 1241 0 
L 628 0 
L 628 4666 
z
" transform="scale(0.015625)"/>
      <path id="DejaVuSans-46" d="M 628 4666 
L 3309 4666 
L 3309 4134 
L 1259 4134 
L 1259 2759 
L 3109 2759 
L 3109 2228 
L 1259 2228 
L 1259 0 
L 628 0 
L 628 4666 
z
" transform="scale(0.015625)"/>
     </defs>
     <use xlink:href="#DejaVuSans-50"/>
     <use xlink:href="#DejaVuSans-4d" x="60.302734"/>
     <use xlink:href="#DejaVuSans-46" x="146.582031"/>
    </g>
   </g>
  </g>
 </g>
 <defs>
  <clipPath id="p56e603d247">
   <rect x="57.6" y="41.472" width="357.12" height="266.112"/>
  </clipPath>
 </defs>
</svg>
