<?xml version="1.0" encoding="ISO-8859-1"?>
<!DOCTYPE svg PUBLIC "-//W3C//DTD SVG 1.0//EN" "http://www.w3.org/TR/2001/REC-SVG-20010904/DTD/svg10.dtd">
<!-- generated by Grace-5.1.25 -->
<svg xml:space="preserve" width="11.0000in" height="8.5000in" viewBox="0.0000 0.0000 792.0000 612.0000">
 <g transform="translate(0,612.0000) scale(1,-1)">
  <g style="fill:#FFFFFF; fill-rule:nonzero">
   <path  d="M0.0000,0.0000L0.0000,612.0000L792.0000,612.0000L792.0000,0.0000z"/>
  </g>
  <g style="fill:#000000; fill-rule:nonzero">
   <ellipse  rx="1.7136" ry="1.7136" cx="159.1925" cy="148.3631"/>
  </g>
  <g style="fill:none; stroke:#000000; stroke-width:  0.9180; stroke-linecap:butt; stroke-linejoin:miter; stroke-dasharray:none">
   <ellipse  rx="1.7136" ry="1.7136" cx="159.1925" cy="148.3631"/>
  </g>
  <g style="fill:#000000; fill-rule:nonzero">
   <ellipse  rx="1.7136" ry="1.7136" cx="174.2972" cy="129.9169"/>
  </g>
  <g style="fill:none; stroke:#000000; stroke-width:  0.9180; stroke-linecap:butt; stroke-linejoin:miter; stroke-dasharray:none">
   <ellipse  rx="1.7136" ry="1.7136" cx="174.2972" cy="129.9169"/>
  </g>
  <g style="fill:#000000; fill-rule:nonzero">
   <ellipse  rx="1.7136" ry="1.7136" cx="189.4020" cy="187.7488"/>
  </g>
  <g style="fill:none; stroke:#000000; stroke-width:  0.9180; stroke-linecap:butt; stroke-linejoin:miter; stroke-dasharray:none">
   <ellipse  rx="1.7136" ry="1.7136" cx="189.4020" cy="187.7488"/>
  </g>
  <g style="fill:#000000; fill-rule:nonzero">
   <ellipse  rx="1.7136" ry="1.7136" cx="204.5067" cy="308.4006"/>
  </g>
  <g style="fill:none; stroke:#000000; stroke-width:  0.9180; stroke-linecap:butt; stroke-linejoin:miter; stroke-dasharray:none">
   <ellipse  rx="1.7136" ry="1.7136" cx="204.5067" cy="308.4006"/>
  </g>
  <g style="fill:#000000; fill-rule:nonzero">
   <ellipse  rx="1.7136" ry="1.7136" cx="219.6115" cy="400.3608"/>
  </g>
  <g style="fill:none; stroke:#000000; stroke-width:  0.9180; stroke-linecap:butt; stroke-linejoin:miter; stroke-dasharray:none">
   <ellipse  rx="1.7136" ry="1.7136" cx="219.6115" cy="400.3608"/>
  </g>
  <g style="fill:#000000; fill-rule:nonzero">
   <ellipse  rx="1.7136" ry="1.7136" cx="234.7162" cy="439.4797"/>
  </g>
  <g style="fill:none; stroke:#000000; stroke-width:  0.9180; stroke-linecap:butt; stroke-linejoin:miter; stroke-dasharray:none">
   <ellipse  rx="1.7136" ry="1.7136" cx="234.7162" cy="439.4797"/>
  </g>
  <g style="fill:#000000; fill-rule:nonzero">
   <ellipse  rx="1.7136" ry="1.7136" cx="249.8209" cy="437.4823"/>
  </g>
  <g style="fill:none; stroke:#000000; stroke-width:  0.9180; stroke-linecap:butt; stroke-linejoin:miter; stroke-dasharray:none">
   <ellipse  rx="1.7136" ry="1.7136" cx="249.8209" cy="437.4823"/>
  </g>
  <g style="fill:#000000; fill-rule:nonzero">
   <ellipse  rx="1.7136" ry="1.7136" cx="264.9257" cy="400.3965"/>
  </g>
  <g style="fill:none; stroke:#000000; stroke-width:  0.9180; stroke-linecap:butt; stroke-linejoin:miter; stroke-dasharray:none">
   <ellipse  rx="1.7136" ry="1.7136" cx="264.9257" cy="400.3965"/>
  </g>
  <g style="fill:#000000; fill-rule:nonzero">
   <ellipse  rx="1.7136" ry="1.7136" cx="280.0304" cy="295.0827"/>
  </g>
  <g style="fill:none; stroke:#000000; stroke-width:  0.9180; stroke-linecap:butt; stroke-linejoin:miter; stroke-dasharray:none">
   <ellipse  rx="1.7136" ry="1.7136" cx="280.0304" cy="295.0827"/>
  </g>
  <g style="fill:#000000; fill-rule:nonzero">
   <ellipse  rx="1.7136" ry="1.7136" cx="310.2399" cy="245.1371"/>
  </g>
  <g style="fill:none; stroke:#000000; stroke-width:  0.9180; stroke-linecap:butt; stroke-linejoin:miter; stroke-dasharray:none">
   <ellipse  rx="1.7136" ry="1.7136" cx="310.2399" cy="245.1371"/>
  </g>
  <g style="fill:#000000; fill-rule:nonzero">
   <ellipse  rx="1.7136" ry="1.7136" cx="340.4494" cy="247.8741"/>
  </g>
  <g style="fill:none; stroke:#000000; stroke-width:  0.9180; stroke-linecap:butt; stroke-linejoin:miter; stroke-dasharray:none">
   <ellipse  rx="1.7136" ry="1.7136" cx="340.4494" cy="247.8741"/>
  </g>
  <g style="fill:#000000; fill-rule:nonzero">
   <ellipse  rx="1.7136" ry="1.7136" cx="355.5541" cy="266.5585"/>
  </g>
  <g style="fill:none; stroke:#000000; stroke-width:  0.9180; stroke-linecap:butt; stroke-linejoin:miter; stroke-dasharray:none">
   <ellipse  rx="1.7136" ry="1.7136" cx="355.5541" cy="266.5585"/>
  </g>
  <g style="fill:#000000; fill-rule:nonzero">
   <ellipse  rx="1.7136" ry="1.7136" cx="370.6589" cy="266.0701"/>
  </g>
  <g style="fill:none; stroke:#000000; stroke-width:  0.9180; stroke-linecap:butt; stroke-linejoin:miter; stroke-dasharray:none">
   <ellipse  rx="1.7136" ry="1.7136" cx="370.6589" cy="266.0701"/>
  </g>
  <g style="fill:#FF0000; fill-rule:nonzero">
   <path  d="M340.4494,229.0564L337.9402,226.5472L340.4494,224.0380L342.9586,226.5472z"/>
  </g>
  <g style="fill:none; stroke:#FF0000; stroke-width:  0.9180; stroke-linecap:butt; stroke-linejoin:miter; stroke-dasharray:none">
   <path d="M340.4494,229.0564L337.9402,226.5472L340.4494,224.0380L342.9586,226.5472z"/>
  </g>
  <g style="fill:#FF0000; fill-rule:nonzero">
   <path  d="M355.5541,217.1472L353.0449,214.6380L355.5541,212.1288L358.0633,214.6380z"/>
  </g>
  <g style="fill:none; stroke:#FF0000; stroke-width:  0.9180; stroke-linecap:butt; stroke-linejoin:miter; stroke-dasharray:none">
   <path d="M355.5541,217.1472L353.0449,214.6380L355.5541,212.1288L358.0633,214.6380z"/>
  </g>
  <g style="fill:#FF0000; fill-rule:nonzero">
   <path  d="M370.6589,271.3172L368.1497,268.8080L370.6589,266.2988L373.1681,268.8080z"/>
  </g>
  <g style="fill:none; stroke:#FF0000; stroke-width:  0.9180; stroke-linecap:butt; stroke-linejoin:miter; stroke-dasharray:none">
   <path d="M370.6589,271.3172L368.1497,268.8080L370.6589,266.2988L373.1681,268.8080z"/>
  </g>
  <g style="fill:#FF0000; fill-rule:nonzero">
   <path  d="M385.7636,286.0649L383.2544,283.5557L385.7636,281.0465L388.2728,283.5557z"/>
  </g>
  <g style="fill:none; stroke:#FF0000; stroke-width:  0.9180; stroke-linecap:butt; stroke-linejoin:miter; stroke-dasharray:none">
   <path d="M385.7636,286.0649L383.2544,283.5557L385.7636,281.0465L388.2728,283.5557z"/>
  </g>
  <g style="fill:#FF0000; fill-rule:nonzero">
   <path  d="M400.8684,365.8647L398.3592,363.3555L400.8684,360.8463L403.3776,363.3555z"/>
  </g>
  <g style="fill:none; stroke:#FF0000; stroke-width:  0.9180; stroke-linecap:butt; stroke-linejoin:miter; stroke-dasharray:none">
   <path d="M400.8684,365.8647L398.3592,363.3555L400.8684,360.8463L403.3776,363.3555z"/>
  </g>
  <g style="fill:#FF0000; fill-rule:nonzero">
   <path  d="M415.9731,422.6250L413.4639,420.1158L415.9731,417.6066L418.4823,420.1158z"/>
  </g>
  <g style="fill:none; stroke:#FF0000; stroke-width:  0.9180; stroke-linecap:butt; stroke-linejoin:miter; stroke-dasharray:none">
   <path d="M415.9731,422.6250L413.4639,420.1158L415.9731,417.6066L418.4823,420.1158z"/>
  </g>
  <g style="fill:#FF0000; fill-rule:nonzero">
   <path  d="M431.0779,421.8088L428.5687,419.2996L431.0779,416.7904L433.5871,419.2996z"/>
  </g>
  <g style="fill:none; stroke:#FF0000; stroke-width:  0.9180; stroke-linecap:butt; stroke-linejoin:miter; stroke-dasharray:none">
   <path d="M431.0779,421.8088L428.5687,419.2996L431.0779,416.7904L433.5871,419.2996z"/>
  </g>
  <g style="fill:#FF0000; fill-rule:nonzero">
   <path  d="M446.1826,407.0144L443.6734,404.5052L446.1826,401.9960L448.6918,404.5052z"/>
  </g>
  <g style="fill:none; stroke:#FF0000; stroke-width:  0.9180; stroke-linecap:butt; stroke-linejoin:miter; stroke-dasharray:none">
   <path d="M446.1826,407.0144L443.6734,404.5052L446.1826,401.9960L448.6918,404.5052z"/>
  </g>
  <g style="fill:#FF0000; fill-rule:nonzero">
   <path  d="M461.2873,390.3118L458.7781,387.8026L461.2873,385.2934L463.7965,387.8026z"/>
  </g>
  <g style="fill:none; stroke:#FF0000; stroke-width:  0.9180; stroke-linecap:butt; stroke-linejoin:miter; stroke-dasharray:none">
   <path d="M461.2873,390.3118L458.7781,387.8026L461.2873,385.2934L463.7965,387.8026z"/>
  </g>
  <g style="fill:#FF0000; fill-rule:nonzero">
   <path  d="M476.3921,336.7936L473.8829,334.2844L476.3921,331.7752L478.9013,334.2844z"/>
  </g>
  <g style="fill:none; stroke:#FF0000; stroke-width:  0.9180; stroke-linecap:butt; stroke-linejoin:miter; stroke-dasharray:none">
   <path d="M476.3921,336.7936L473.8829,334.2844L476.3921,331.7752L478.9013,334.2844z"/>
  </g>
  <g style="fill:#FF0000; fill-rule:nonzero">
   <path  d="M491.4968,285.0256L488.9876,282.5164L491.4968,280.0072L494.0060,282.5164z"/>
  </g>
  <g style="fill:none; stroke:#FF0000; stroke-width:  0.9180; stroke-linecap:butt; stroke-linejoin:miter; stroke-dasharray:none">
   <path d="M491.4968,285.0256L488.9876,282.5164L491.4968,280.0072L494.0060,282.5164z"/>
  </g>
  <g style="fill:#FF0000; fill-rule:nonzero">
   <path  d="M506.6016,268.3197L504.0924,265.8105L506.6016,263.3013L509.1108,265.8105z"/>
  </g>
  <g style="fill:none; stroke:#FF0000; stroke-width:  0.9180; stroke-linecap:butt; stroke-linejoin:miter; stroke-dasharray:none">
   <path d="M506.6016,268.3197L504.0924,265.8105L506.6016,263.3013L509.1108,265.8105z"/>
  </g>
  <g style="fill:#FF0000; fill-rule:nonzero">
   <path  d="M521.7063,257.7654L519.1971,255.2562L521.7063,252.7470L524.2155,255.2562z"/>
  </g>
  <g style="fill:none; stroke:#FF0000; stroke-width:  0.9180; stroke-linecap:butt; stroke-linejoin:miter; stroke-dasharray:none">
   <path d="M521.7063,257.7654L519.1971,255.2562L521.7063,252.7470L524.2155,255.2562z"/>
  </g>
  <g style="fill:#FF0000; fill-rule:nonzero">
   <path  d="M536.8111,236.9482L534.3019,234.4390L536.8111,231.9298L539.3203,234.4390z"/>
  </g>
  <g style="fill:none; stroke:#FF0000; stroke-width:  0.9180; stroke-linecap:butt; stroke-linejoin:miter; stroke-dasharray:none">
   <path d="M536.8111,236.9482L534.3019,234.4390L536.8111,231.9298L539.3203,234.4390z"/>
  </g>
  <g style="fill:#FF0000; fill-rule:nonzero">
   <path  d="M551.9158,266.9427L549.4066,264.4335L551.9158,261.9243L554.4250,264.4335z"/>
  </g>
  <g style="fill:none; stroke:#FF0000; stroke-width:  0.9180; stroke-linecap:butt; stroke-linejoin:miter; stroke-dasharray:none">
   <path d="M551.9158,266.9427L549.4066,264.4335L551.9158,261.9243L554.4250,264.4335z"/>
  </g>
  <g style="fill:#FF0000; fill-rule:nonzero">
   <path  d="M567.0206,278.3676L564.5114,275.8584L567.0206,273.3492L569.5298,275.8584z"/>
  </g>
  <g style="fill:none; stroke:#FF0000; stroke-width:  0.9180; stroke-linecap:butt; stroke-linejoin:miter; stroke-dasharray:none">
   <path d="M567.0206,278.3676L564.5114,275.8584L567.0206,273.3492L569.5298,275.8584z"/>
  </g>
  <g style="fill:none; stroke:#FF0000; stroke-width:  0.9180; stroke-linecap:butt; stroke-linejoin:miter; stroke-dasharray: 5 3">
   <path d="M367.2000,258.1094L369.3636,265.4208L371.5273,270.5268L373.6909,272.9540L375.8546,273.5891L378.0182,273.5011L380.1818,273.7589L382.3455,275.4314L384.5091,279.5874L386.6727,287.1246
            L388.8364,297.0948L391.0000,308.6290L393.1636,321.0883L395.3273,333.8342L397.4909,346.2279L399.6545,357.6309L401.8182,367.6548L403.9818,377.6691L406.1455,387.6313L408.3091,397.1002
            L410.4727,405.6346L412.6364,412.7934L414.8000,418.1353L416.9636,421.3615L419.1273,423.2541L421.2909,424.1285L423.4546,424.1297L425.6182,423.4024L427.7818,422.0915L429.9455,420.3418
            L432.1091,418.3184L434.2727,416.2478L436.4364,414.1600L438.6000,412.0536L440.7636,409.9273L442.9273,407.7796L445.0909,405.6093L447.2545,403.4944L449.4182,401.8026L451.5818,400.3154
            L453.7455,398.7186L455.9091,396.6978L458.0727,393.9389L460.2364,390.1276L462.4000,384.9691L464.5636,378.5040L466.7273,371.0508L468.8909,362.9359L471.0545,354.4857L473.2182,346.0267
            L475.3818,337.8852L477.5455,330.2341L479.7091,322.5097L481.8727,314.7236L484.0364,306.9976L486.2000,299.4537L488.3636,292.2137L490.5273,285.3996L492.6909,279.3382L494.8545,274.9500
            L497.0182,271.9899L499.1818,270.0606L501.3455,268.7647L503.5091,267.7047L505.6727,266.4832L507.8364,264.8585L510.0000,263.2911L512.1636,261.8143L514.3273,260.3839L516.4909,258.9557
            L518.6545,257.4858L520.8182,255.9300L522.9818,254.0283L525.1454,251.0356L527.3091,247.3129L529.4727,243.3406L531.6364,239.5991L533.8000,236.5688L535.9636,234.7301L538.1273,234.7706
            L540.2909,237.4390L542.4545,242.0376L544.6182,247.7492L546.7818,253.7571L548.9455,259.2444L551.1091,263.3940L553.2727,265.8979L555.4364,268.1646L557.6000,270.2805L559.7636,272.1696
            L561.9273,273.7559L564.0909,274.9632L566.2545,275.7155L568.4182,276.0564L570.5818,276.3629L572.7454,276.6695L574.9091,276.9760L577.0727,277.2826L579.2364,277.5891L581.4000,277.8957"/>
  </g>
  <g style="fill:none; stroke:#000000; stroke-width:  0.9180; stroke-linecap:butt; stroke-linejoin:miter; stroke-dasharray: 5 3">
   <path d="M153.0000,177.0970L155.2409,165.4581L157.4818,155.2081L159.7227,146.4193L161.9636,139.1641L164.2045,133.5148L166.4455,129.5436L168.6864,127.3228L170.9273,126.9248L173.1682,128.4219
            L175.4091,131.7686L177.6500,136.3751L179.8909,142.3334L182.1318,149.8629L184.3727,159.1829L186.6136,170.5130L188.8545,184.0726L191.0955,199.9321L193.3364,217.5113L195.5773,236.1616
            L197.8182,255.2411L200.0591,274.1082L202.3000,292.1211L204.5409,308.6384L206.7818,324.0947L209.0227,339.1817L211.2636,353.7307L213.5045,367.5731L215.7455,380.5402L217.9864,392.4632
            L220.2273,403.1626L222.4682,412.3462L224.7091,420.0376L226.9500,426.3625L229.1909,431.4466L231.4318,435.4154L233.6727,438.3948L235.9136,440.5004L238.1546,441.7811L240.3955,442.2948
            L242.6364,442.1043L244.8773,441.2726L247.1182,439.8626L249.3591,437.9374L251.6000,435.3752L253.8409,431.8285L256.0818,427.3077L258.3227,421.8356L260.5636,415.4346L262.8046,408.1275
            L265.0454,399.9284L267.2864,388.0260L269.5273,371.5676L271.7682,352.6192L274.0091,333.2470L276.2500,315.5168L278.4909,301.4948L280.7318,292.9088L282.9727,286.2957L285.2136,280.1862
            L287.4545,274.5768L289.6954,269.4640L291.9364,264.8444L294.1773,260.7145L296.4182,257.0709L298.6591,253.9100L300.9000,251.2284L303.1409,249.0227L305.3818,247.2893L307.6227,246.0248
            L309.8636,245.2258L312.1045,244.7268L314.3455,244.2413L316.5864,243.7888L318.8273,243.3956L321.0682,243.0879L323.3091,242.8918L325.5500,242.8336L327.7909,242.9395L330.0318,243.2357
            L332.2727,243.7484L334.5136,244.5039L336.7545,245.5282L338.9955,246.8477L341.2364,248.5295L343.4773,250.9771L345.7182,254.0335L347.9591,257.3774L350.2000,260.6878L352.4409,263.6434
            L354.6818,265.9230L356.9227,267.3407L359.1636,268.2527L361.4045,268.7151L363.6455,268.7376L365.8864,268.3296L368.1273,267.5008L370.3682,266.2606L372.6091,264.7693L374.8500,263.2746"/>
  </g>
  <g style="fill:none; stroke:#9400D3; stroke-width:  1.3770; stroke-linecap:butt; stroke-linejoin:miter; stroke-dasharray:none">
   <path d="M137.7000,377.5282L138.7203,360.7442L139.7405,344.4183L140.7608,328.5741L141.7810,313.2350L142.8013,298.4248L143.8215,284.1666L144.8418,270.4827L145.8621,257.3940L146.8823,244.9194
            L147.9026,233.0756L148.9228,221.8764L149.9431,211.3325L150.9633,201.4513L151.9836,192.2368L153.0038,183.6892L154.0241,175.8055L155.0444,168.5795L156.0646,162.0021L157.0849,156.0618
            L158.1051,150.7448L159.1254,146.0362L160.1456,141.9196L161.1659,138.3782L162.1862,135.3950L163.2064,132.9529L164.2267,131.0353L165.2469,129.6259L166.2672,128.7093L167.2874,128.2706
            L168.3077,128.2955L169.3279,128.7702L170.3482,129.6812L171.3685,131.0155L172.3887,132.7600L173.4090,134.9013L174.4292,137.4259L175.4495,140.3198L176.4697,143.5685L177.4900,147.1567
            L178.5103,151.0686L179.5305,155.2875L180.5508,159.7961L181.5710,164.5763L182.5913,169.6098L183.6115,174.8774L184.6318,180.3599L185.6520,186.0377L186.6723,191.8913L187.6926,197.9010
            L188.7128,204.0477L189.7331,210.3122L190.7533,216.6761L191.7736,223.1213L192.7938,229.6304L193.8141,236.1866L194.8344,242.7740L195.8546,249.3773L196.8749,255.9820L197.8951,262.5744
            L198.9154,269.1416L199.9356,275.6716L200.9559,282.1530L201.9761,288.5752L202.9964,294.9283L204.0167,301.2033L205.0369,307.3914L206.0572,313.4849L207.0774,319.4764L208.0977,325.3591
            L209.1179,331.1269L210.1382,336.7739L211.1585,342.2948L212.1787,347.6848L213.1990,352.9393L214.2192,358.0543L215.2395,363.0258L216.2597,367.8504L217.2800,372.5249L218.3002,377.0463
            L219.3205,381.4120L220.3408,385.6194L221.3610,389.6663L222.3813,393.5506L223.4015,397.2704L224.4218,400.8240L225.4420,404.2097L226.4623,407.4262L227.4826,410.4721L228.5028,413.3462
            L229.5231,416.0474L230.5433,418.5747L231.5636,420.9273L232.5838,423.1043L233.6041,425.1051L234.6243,426.9289L235.6446,428.5754L236.6649,430.0438L237.6851,431.3340L238.7054,432.4454
            L239.7256,433.3778L240.7459,434.1311L241.7661,434.7049L242.7864,435.0993L243.8067,435.3141L244.8269,435.3494L245.8472,435.2053L246.8674,434.8818L247.8877,434.3792L248.9079,433.6976
            L249.9282,432.8375L250.9484,431.7992L251.9687,430.5831L252.9890,429.1898L254.0092,427.6198L255.0295,425.8737L256.0497,423.9525L257.0700,421.8568L258.0902,419.5877L259.1105,417.1461
            L260.1308,414.5333L261.1510,411.7505L262.1713,408.7992L263.1915,405.6808L264.2118,402.3972L265.2320,398.9501L266.2523,395.3417L267.2725,391.5742L268.2928,387.6501L269.3131,383.5723
            L270.3333,379.3436L271.3536,374.9674L272.3738,370.4473L273.3941,365.7874L274.4143,360.9919L275.4346,356.0658L276.4549,351.0142L277.4751,345.8430L278.4954,340.5586L279.5156,335.1680
            L280.5359,329.6788L281.5561,324.0995L282.5764,318.4394L283.5966,312.7085L284.6169,306.9182L285.6372,301.0804L286.6574,295.2087L287.6777,289.3176L288.6979,283.4229L289.7182,277.5421
            L290.7384,271.6939L291.7587,265.8989L292.7790,260.1790L293.7992,254.5580L294.8195,249.0616L295.8397,243.7169L296.8600,238.5529L297.8802,233.6004L298.9005,228.8913L299.9207,224.4594
            L300.9410,220.3390L301.9613,216.5659L302.9815,213.1757L304.0018,210.2045L305.0220,207.6877L306.0423,205.6599L307.0625,204.1538L308.0828,203.2004L309.1031,202.8278L310.1233,203.0611
            L311.1436,203.9217L312.1638,205.4270L313.1841,207.5904L314.2043,210.4209L315.2246,213.9232L316.2448,218.0981L317.2651,222.9421L318.2854,228.4485L319.3056,234.6071L320.3259,241.4052
            L321.3461,248.8277L322.3664,256.8576L323.3866,265.4767L324.4069,274.6658L325.4272,284.4050L326.4474,294.6743L327.4677,305.4535L328.4879,316.7229L329.5082,328.4630L330.5284,340.6550
            L331.5487,353.2808L332.5689,366.3231L333.5892,379.7653L334.6095,393.5916L335.6297,407.7874L336.6500,422.3387L337.6702,437.2325L338.6905,452.4564L339.7107,467.9993L340.7310,483.8505"/>
  </g>
  <g style="fill:none; stroke:#FF0000; stroke-width:  1.3770; stroke-linecap:butt; stroke-linejoin:miter; stroke-dasharray:none">
   <path d="M321.3000,275.9868L322.4917,268.7501L323.6834,262.2895L324.8751,256.5479L326.0668,251.4667L327.2585,246.9878L328.4503,243.0545L329.6420,239.6129L330.8337,236.6123L332.0254,234.0063
            L333.2171,231.7525L334.4088,229.8128L335.6005,228.1535L336.7922,226.7448L337.9839,225.5609L339.1756,224.5797L340.3673,223.7822L341.5590,223.1525L342.7508,222.6776L343.9425,222.3469
            L345.1342,222.1519L346.3259,222.0864L347.5176,222.1458L348.7093,222.3270L349.9010,222.6285L351.0927,223.0500L352.2844,223.5922L353.4761,224.2568L354.6678,225.0462L355.8595,225.9635
            L357.0513,227.0123L358.2430,228.1964L359.4347,229.5201L360.6264,230.9876L361.8181,232.6029L363.0098,234.3700L364.2015,236.2924L365.3932,238.3734L366.5849,240.6154L367.7766,243.0203
            L368.9683,245.5889L370.1601,248.3215L371.3518,251.2171L372.5435,254.2738L373.7352,257.4888L374.9269,260.8578L376.1186,264.3760L377.3103,268.0371L378.5020,271.8340L379.6937,275.7588
            L380.8854,279.8025L382.0771,283.9556L383.2688,288.2077L384.4606,292.5480L385.6523,296.9652L386.8440,301.4479L388.0357,305.9840L389.2274,310.5618L390.4191,315.1691L391.6108,319.7942
            L392.8025,324.4252L393.9942,329.0505L395.1859,333.6588L396.3776,338.2392L397.5693,342.7811L398.7611,347.2742L399.9528,351.7087L401.1445,356.0752L402.3362,360.3649L403.5279,364.5693
            L404.7196,368.6804L405.9113,372.6905L407.1030,376.5927L408.2947,380.3803L409.4864,384.0470L410.6781,387.5870L411.8698,390.9948L413.0616,394.2654L414.2533,397.3942L415.4450,400.3768
            L416.6367,403.2091L417.8284,405.8875L419.0201,408.4087L420.2118,410.7694L421.4035,412.9670L422.5952,414.9987L423.7869,416.8624L424.9786,418.5560L426.1704,420.0775L427.3621,421.4254
            L428.5538,422.5982L429.7455,423.5948L430.9372,424.4140L432.1289,425.0552L433.3206,425.5175L434.5123,425.8006L435.7040,425.9042L436.8957,425.8282L438.0874,425.5727L439.2791,425.1378
            L440.4709,424.5241L441.6626,423.7321L442.8543,422.7627L444.0460,421.6168L445.2377,420.2957L446.4294,418.8007L447.6211,417.1334L448.8128,415.2956L450.0045,413.2894L451.1962,411.1170
            L452.3879,408.7809L453.5796,406.2840L454.7714,403.6292L455.9631,400.8200L457.1548,397.8599L458.3465,394.7530L459.5382,391.5034L460.7299,388.1158L461.9216,384.5952L463.1133,380.9469
            L464.3050,377.1768L465.4967,373.2910L466.6884,369.2960L467.8802,365.1990L469.0719,361.0073L470.2636,356.7289L471.4553,352.3722L472.6470,347.9460L473.8387,343.4595L475.0304,338.9226
            L476.2221,334.3453L477.4138,329.7382L478.6055,325.1122L479.7972,320.4786L480.9889,315.8487L482.1807,311.2344L483.3724,306.6475L484.5641,302.1000L485.7558,297.6038L486.9475,293.1706
            L488.1392,288.8121L489.3309,284.5396L490.5226,280.3638L491.7143,276.2951L492.9060,272.3432L494.0977,268.5169L495.2894,264.8244L496.4812,261.2727L497.6729,257.8681L498.8646,254.6156
            L500.0563,251.5193L501.2480,248.5822L502.4397,245.8061L503.6314,243.1918L504.8231,240.7393L506.0148,238.4472L507.2065,236.3137L508.3982,234.3359L509.5899,232.5105L510.7817,230.8335
            L511.9734,229.3004L513.1651,227.9065L514.3568,226.6470L515.5485,225.5170L516.7402,224.5115L517.9319,223.6260L519.1236,222.8560L520.3153,222.1978L521.5070,221.6479L522.6987,221.2038
            L523.8905,220.8635L525.0822,220.6262L526.2739,220.4919L527.4656,220.4621L528.6573,220.5393L529.8490,220.7279L531.0407,221.0336L532.2324,221.4644L533.4241,222.0301L534.6158,222.7431
            L535.8075,223.6183L536.9992,224.6737L538.1910,225.9305L539.3827,227.4136L540.5744,229.1516L541.7661,231.1777L542.9578,233.5291L544.1495,236.2480L545.3412,239.3812L546.5329,242.9801
            L547.7246,247.1004L548.9163,251.8013L550.1080,257.1447L551.2997,263.1941L552.4915,270.0125L553.6832,277.6608L554.8749,286.1956L556.0666,295.6667L557.2583,306.1151L558.4500,317.5712"/>
  </g>
  <g style="fill:none; stroke:#000000; stroke-width:  0.9180; stroke-linecap:butt; stroke-linejoin:miter; stroke-dasharray:none">
   <path d="M91.8000,91.8000L703.8000,91.8000"/>
   <path d="M91.8000,520.2000L703.8000,520.2000"/>
   <path d="M168.3000,91.8000L168.3000,97.9200"/>
   <path d="M168.3000,520.2000L168.3000,514.0800"/>
   <path d="M321.3000,91.8000L321.3000,97.9200"/>
   <path d="M321.3000,520.2000L321.3000,514.0800"/>
   <path d="M474.3000,91.8000L474.3000,97.9200"/>
   <path d="M474.3000,520.2000L474.3000,514.0800"/>
   <path d="M627.3000,91.8000L627.3000,97.9200"/>
   <path d="M627.3000,520.2000L627.3000,514.0800"/>
   <path d="M91.8000,91.8000L91.8000,104.0400"/>
   <path d="M91.8000,520.2000L91.8000,507.9600"/>
   <path d="M244.8000,91.8000L244.8000,104.0400"/>
   <path d="M244.8000,520.2000L244.8000,507.9600"/>
   <path d="M397.8000,91.8000L397.8000,104.0400"/>
   <path d="M397.8000,520.2000L397.8000,507.9600"/>
   <path d="M550.8000,91.8000L550.8000,104.0400"/>
   <path d="M550.8000,520.2000L550.8000,507.9600"/>
   <path d="M703.8000,91.8000L703.8000,104.0400"/>
   <path d="M703.8000,520.2000L703.8000,507.9600"/>
  </g>
  <g style="fill:#000000; fill-rule:nonzero">
   <text   style="font-family:'Times','Nimbus Roman'; font-style:normal; font-weight:normal; font-size:612.0000" transform="matrix(0.0280,0.0000,-0.0000,-0.0280,83.3000,73.6800)">10</text>
   <text   style="font-family:'Times','Nimbus Roman'; font-style:normal; font-weight:normal; font-size:612.0000" transform="matrix(0.0280,0.0000,-0.0000,-0.0280,236.3000,74.6800)">20</text>
   <text   style="font-family:'Times','Nimbus Roman'; font-style:normal; font-weight:normal; font-size:612.0000" transform="matrix(0.0280,0.0000,-0.0000,-0.0280,389.3000,74.6800)">30</text>
   <text   style="font-family:'Times','Nimbus Roman'; font-style:normal; font-weight:normal; font-size:612.0000" transform="matrix(0.0280,0.0000,-0.0000,-0.0280,542.3000,74.6800)">40</text>
   <text   style="font-family:'Times','Nimbus Roman'; font-style:normal; font-weight:normal; font-size:612.0000" transform="matrix(0.0280,0.0000,-0.0000,-0.0280,695.3000,73.6800)">50</text>
   <text   style="font-family:'Times','Nimbus Roman'; font-style:normal; font-weight:normal; font-size:612.0000" transform="matrix(0.0280,0.0000,-0.0000,-0.0280,349.8000,50.5600)">Extension (Å)</text>
  </g>
  <g style="fill:none; stroke:#000000; stroke-width:  0.9180; stroke-linecap:butt; stroke-linejoin:miter; stroke-dasharray:none">
   <path d="M91.8000,91.8000L91.8000,520.2000"/>
   <path d="M703.8000,91.8000L703.8000,520.2000"/>
   <path d="M91.8000,145.3500L97.9200,145.3500"/>
   <path d="M703.8000,145.3500L697.6800,145.3500"/>
   <path d="M91.8000,252.4500L97.9200,252.4500"/>
   <path d="M703.8000,252.4500L697.6800,252.4500"/>
   <path d="M91.8000,359.5500L97.9200,359.5500"/>
   <path d="M703.8000,359.5500L697.6800,359.5500"/>
   <path d="M91.8000,466.6500L97.9200,466.6500"/>
   <path d="M703.8000,466.6500L697.6800,466.6500"/>
   <path d="M91.8000,91.8000L104.0400,91.8000"/>
   <path d="M703.8000,91.8000L691.5600,91.8000"/>
   <path d="M91.8000,198.9000L104.0400,198.9000"/>
   <path d="M703.8000,198.9000L691.5600,198.9000"/>
   <path d="M91.8000,306.0000L104.0400,306.0000"/>
   <path d="M703.8000,306.0000L691.5600,306.0000"/>
   <path d="M91.8000,413.1000L104.0400,413.1000"/>
   <path d="M703.8000,413.1000L691.5600,413.1000"/>
   <path d="M91.8000,520.2000L104.0400,520.2000"/>
   <path d="M703.8000,520.2000L691.5600,520.2000"/>
  </g>
  <g style="fill:#000000; fill-rule:nonzero">
   <text   style="font-family:'Times','Nimbus Roman'; font-style:normal; font-weight:normal; font-size:612.0000" transform="matrix(0.0280,0.0000,-0.0000,-0.0280,71.6800,86.3000)">-4</text>
   <text   style="font-family:'Times','Nimbus Roman'; font-style:normal; font-weight:normal; font-size:612.0000" transform="matrix(0.0280,0.0000,-0.0000,-0.0280,72.6800,193.4000)">-3</text>
   <text   style="font-family:'Times','Nimbus Roman'; font-style:normal; font-weight:normal; font-size:612.0000" transform="matrix(0.0280,0.0000,-0.0000,-0.0280,71.6800,300.5000)">-2</text>
   <text   style="font-family:'Times','Nimbus Roman'; font-style:normal; font-weight:normal; font-size:612.0000" transform="matrix(0.0280,0.0000,-0.0000,-0.0280,72.6800,407.1000)">-1</text>
   <text   style="font-family:'Times','Nimbus Roman'; font-style:normal; font-weight:normal; font-size:612.0000" transform="matrix(0.0280,0.0000,-0.0000,-0.0280,77.6800,514.7000)">0</text>
   <text   style="font-family:'Times','Nimbus Roman'; font-style:normal; font-weight:normal; font-size:612.0000" transform="matrix(0.0000,0.0280,0.0280,-0.0000,62.5600,251.5000)">PMF (kcal/mol)</text>
  </g>
  <g style="fill:none; stroke:#000000; stroke-width:  0.9180; stroke-linecap:butt; stroke-linejoin:miter; stroke-dasharray:none">
   <path d="M91.8000,91.8000L91.8000,520.2000L703.8000,520.2000L703.8000,91.8000z"/>
  </g>
 </g>
</svg>
