<?xml version="1.0" encoding="utf-8" standalone="no"?>
<!DOCTYPE svg PUBLIC "-//W3C//DTD SVG 1.1//EN"
  "http://www.w3.org/Graphics/SVG/1.1/DTD/svg11.dtd">
<svg xmlns:xlink="http://www.w3.org/1999/xlink" width="913.92pt" height="483.84pt" viewBox="0 0 913.92 483.84" xmlns="http://www.w3.org/2000/svg" version="1.1">
 <metadata>
  <rdf:RDF xmlns:dc="http://purl.org/dc/elements/1.1/" xmlns:cc="http://creativecommons.org/ns#" xmlns:rdf="http://www.w3.org/1999/02/22-rdf-syntax-ns#">
   <cc:Work>
    <dc:type rdf:resource="http://purl.org/dc/dcmitype/StillImage"/>
    <dc:date>2024-09-12T17:07:49.770669</dc:date>
    <dc:format>image/svg+xml</dc:format>
    <dc:creator>
     <cc:Agent>
      <dc:title>Matplotlib v3.9.0, https://matplotlib.org/</dc:title>
     </cc:Agent>
    </dc:creator>
   </cc:Work>
  </rdf:RDF>
 </metadata>
 <defs>
  <style type="text/css">*{stroke-linejoin: round; stroke-linecap: butt}</style>
 </defs>
 <g id="figure_1">
  <g id="patch_1">
   <path d="M 0 483.84 
L 913.92 483.84 
L 913.92 0 
L 0 0 
z
" style="fill: #ffffff"/>
  </g>
  <g id="axes_1">
   <g id="patch_2">
    <path d="M 72.84 416.76 
L 424.04 416.76 
L 424.04 53.96 
L 72.84 53.96 
z
" style="fill: #ffffff"/>
   </g>
   <g id="matplotlib.axis_1">
    <g id="xtick_1">
     <g id="line2d_1">
      <defs>
       <path id="m23d29ac6e5" d="M 0 0 
L 0 3.5 
" style="stroke: #000000; stroke-width: 0.8"/>
      </defs>
      <g>
       <use xlink:href="#m23d29ac6e5" x="116.706442" y="416.76" style="stroke: #000000; stroke-width: 0.8"/>
      </g>
     </g>
     <g id="text_1">
      <!-- −10 -->
      <g transform="translate(106.154099 431.358437) scale(0.1 -0.1)">
       <defs>
        <path id="DejaVuSans-2212" d="M 678 2272 
L 4684 2272 
L 4684 1741 
L 678 1741 
L 678 2272 
z
" transform="scale(0.015625)"/>
        <path id="DejaVuSans-31" d="M 794 531 
L 1825 531 
L 1825 4091 
L 703 3866 
L 703 4441 
L 1819 4666 
L 2450 4666 
L 2450 531 
L 3481 531 
L 3481 0 
L 794 0 
L 794 531 
z
" transform="scale(0.015625)"/>
        <path id="DejaVuSans-30" d="M 2034 4250 
Q 1547 4250 1301 3770 
Q 1056 3291 1056 2328 
Q 1056 1369 1301 889 
Q 1547 409 2034 409 
Q 2525 409 2770 889 
Q 3016 1369 3016 2328 
Q 3016 3291 2770 3770 
Q 2525 4250 2034 4250 
z
M 2034 4750 
Q 2819 4750 3233 4129 
Q 3647 3509 3647 2328 
Q 3647 1150 3233 529 
Q 2819 -91 2034 -91 
Q 1250 -91 836 529 
Q 422 1150 422 2328 
Q 422 3509 836 4129 
Q 1250 4750 2034 4750 
z
" transform="scale(0.015625)"/>
       </defs>
       <use xlink:href="#DejaVuSans-2212"/>
       <use xlink:href="#DejaVuSans-31" x="83.789062"/>
       <use xlink:href="#DejaVuSans-30" x="147.412109"/>
      </g>
     </g>
    </g>
    <g id="xtick_2">
     <g id="line2d_2">
      <g>
       <use xlink:href="#m23d29ac6e5" x="182.573221" y="416.76" style="stroke: #000000; stroke-width: 0.8"/>
      </g>
     </g>
     <g id="text_2">
      <!-- −5 -->
      <g transform="translate(175.202127 431.358437) scale(0.1 -0.1)">
       <defs>
        <path id="DejaVuSans-35" d="M 691 4666 
L 3169 4666 
L 3169 4134 
L 1269 4134 
L 1269 2991 
Q 1406 3038 1543 3061 
Q 1681 3084 1819 3084 
Q 2600 3084 3056 2656 
Q 3513 2228 3513 1497 
Q 3513 744 3044 326 
Q 2575 -91 1722 -91 
Q 1428 -91 1123 -41 
Q 819 9 494 109 
L 494 744 
Q 775 591 1075 516 
Q 1375 441 1709 441 
Q 2250 441 2565 725 
Q 2881 1009 2881 1497 
Q 2881 1984 2565 2268 
Q 2250 2553 1709 2553 
Q 1456 2553 1204 2497 
Q 953 2441 691 2322 
L 691 4666 
z
" transform="scale(0.015625)"/>
       </defs>
       <use xlink:href="#DejaVuSans-2212"/>
       <use xlink:href="#DejaVuSans-35" x="83.789062"/>
      </g>
     </g>
    </g>
    <g id="xtick_3">
     <g id="line2d_3">
      <g>
       <use xlink:href="#m23d29ac6e5" x="248.44" y="416.76" style="stroke: #000000; stroke-width: 0.8"/>
      </g>
     </g>
     <g id="text_3">
      <!-- 0 -->
      <g transform="translate(245.25875 431.358437) scale(0.1 -0.1)">
       <use xlink:href="#DejaVuSans-30"/>
      </g>
     </g>
    </g>
    <g id="xtick_4">
     <g id="line2d_4">
      <g>
       <use xlink:href="#m23d29ac6e5" x="314.306779" y="416.76" style="stroke: #000000; stroke-width: 0.8"/>
      </g>
     </g>
     <g id="text_4">
      <!-- 5 -->
      <g transform="translate(311.125529 431.358437) scale(0.1 -0.1)">
       <use xlink:href="#DejaVuSans-35"/>
      </g>
     </g>
    </g>
    <g id="xtick_5">
     <g id="line2d_5">
      <g>
       <use xlink:href="#m23d29ac6e5" x="380.173558" y="416.76" style="stroke: #000000; stroke-width: 0.8"/>
      </g>
     </g>
     <g id="text_5">
      <!-- 10 -->
      <g transform="translate(373.811058 431.358437) scale(0.1 -0.1)">
       <use xlink:href="#DejaVuSans-31"/>
       <use xlink:href="#DejaVuSans-30" x="63.623047"/>
      </g>
     </g>
    </g>
    <g id="text_6">
     <!-- x (Å) -->
     <g transform="translate(236.569688 445.96) scale(0.1 -0.1)">
      <defs>
       <path id="DejaVuSans-78" d="M 3513 3500 
L 2247 1797 
L 3578 0 
L 2900 0 
L 1881 1375 
L 863 0 
L 184 0 
L 1544 1831 
L 300 3500 
L 978 3500 
L 1906 2253 
L 2834 3500 
L 3513 3500 
z
" transform="scale(0.015625)"/>
       <path id="DejaVuSans-20" transform="scale(0.015625)"/>
       <path id="DejaVuSans-28" d="M 1984 4856 
Q 1566 4138 1362 3434 
Q 1159 2731 1159 2009 
Q 1159 1288 1364 580 
Q 1569 -128 1984 -844 
L 1484 -844 
Q 1016 -109 783 600 
Q 550 1309 550 2009 
Q 550 2706 781 3412 
Q 1013 4119 1484 4856 
L 1984 4856 
z
" transform="scale(0.015625)"/>
       <path id="DejaVuSans-c5" d="M 2663 5081 
Q 2663 5278 2523 5417 
Q 2384 5556 2188 5556 
Q 1988 5556 1852 5420 
Q 1716 5284 1716 5081 
Q 1716 4884 1853 4746 
Q 1991 4609 2188 4609 
Q 2384 4609 2523 4746 
Q 2663 4884 2663 5081 
z
M 2188 4044 
L 1338 1722 
L 3041 1722 
L 2188 4044 
z
M 1716 4366 
Q 1525 4494 1428 4673 
Q 1331 4853 1331 5081 
Q 1331 5441 1579 5691 
Q 1828 5941 2188 5941 
Q 2544 5941 2795 5689 
Q 3047 5438 3047 5081 
Q 3047 4863 2948 4678 
Q 2850 4494 2663 4366 
L 4325 0 
L 3669 0 
L 3244 1197 
L 1141 1197 
L 716 0 
L 50 0 
L 1716 4366 
z
" transform="scale(0.015625)"/>
       <path id="DejaVuSans-29" d="M 513 4856 
L 1013 4856 
Q 1481 4119 1714 3412 
Q 1947 2706 1947 2009 
Q 1947 1309 1714 600 
Q 1481 -109 1013 -844 
L 513 -844 
Q 928 -128 1133 580 
Q 1338 1288 1338 2009 
Q 1338 2731 1133 3434 
Q 928 4138 513 4856 
z
" transform="scale(0.015625)"/>
      </defs>
      <use xlink:href="#DejaVuSans-78"/>
      <use xlink:href="#DejaVuSans-20" x="59.179688"/>
      <use xlink:href="#DejaVuSans-28" x="90.966797"/>
      <use xlink:href="#DejaVuSans-c5" x="129.980469"/>
      <use xlink:href="#DejaVuSans-29" x="198.388672"/>
     </g>
    </g>
   </g>
   <g id="matplotlib.axis_2">
    <g id="ytick_1">
     <g id="line2d_6">
      <defs>
       <path id="mfb659e7fcf" d="M 0 0 
L -3.5 0 
" style="stroke: #000000; stroke-width: 0.8"/>
      </defs>
      <g>
       <use xlink:href="#mfb659e7fcf" x="72.84" y="400.269091" style="stroke: #000000; stroke-width: 0.8"/>
      </g>
     </g>
     <g id="text_7">
      <!-- 0.0 -->
      <g transform="translate(49.936875 404.06831) scale(0.1 -0.1)">
       <defs>
        <path id="DejaVuSans-2e" d="M 684 794 
L 1344 794 
L 1344 0 
L 684 0 
L 684 794 
z
" transform="scale(0.015625)"/>
       </defs>
       <use xlink:href="#DejaVuSans-30"/>
       <use xlink:href="#DejaVuSans-2e" x="63.623047"/>
       <use xlink:href="#DejaVuSans-30" x="95.410156"/>
      </g>
     </g>
    </g>
    <g id="ytick_2">
     <g id="line2d_7">
      <g>
       <use xlink:href="#mfb659e7fcf" x="72.84" y="334.305455" style="stroke: #000000; stroke-width: 0.8"/>
      </g>
     </g>
     <g id="text_8">
      <!-- 0.2 -->
      <g transform="translate(49.936875 338.104673) scale(0.1 -0.1)">
       <defs>
        <path id="DejaVuSans-32" d="M 1228 531 
L 3431 531 
L 3431 0 
L 469 0 
L 469 531 
Q 828 903 1448 1529 
Q 2069 2156 2228 2338 
Q 2531 2678 2651 2914 
Q 2772 3150 2772 3378 
Q 2772 3750 2511 3984 
Q 2250 4219 1831 4219 
Q 1534 4219 1204 4116 
Q 875 4013 500 3803 
L 500 4441 
Q 881 4594 1212 4672 
Q 1544 4750 1819 4750 
Q 2544 4750 2975 4387 
Q 3406 4025 3406 3419 
Q 3406 3131 3298 2873 
Q 3191 2616 2906 2266 
Q 2828 2175 2409 1742 
Q 1991 1309 1228 531 
z
" transform="scale(0.015625)"/>
       </defs>
       <use xlink:href="#DejaVuSans-30"/>
       <use xlink:href="#DejaVuSans-2e" x="63.623047"/>
       <use xlink:href="#DejaVuSans-32" x="95.410156"/>
      </g>
     </g>
    </g>
    <g id="ytick_3">
     <g id="line2d_8">
      <g>
       <use xlink:href="#mfb659e7fcf" x="72.84" y="268.341818" style="stroke: #000000; stroke-width: 0.8"/>
      </g>
     </g>
     <g id="text_9">
      <!-- 0.4 -->
      <g transform="translate(49.936875 272.141037) scale(0.1 -0.1)">
       <defs>
        <path id="DejaVuSans-34" d="M 2419 4116 
L 825 1625 
L 2419 1625 
L 2419 4116 
z
M 2253 4666 
L 3047 4666 
L 3047 1625 
L 3713 1625 
L 3713 1100 
L 3047 1100 
L 3047 0 
L 2419 0 
L 2419 1100 
L 313 1100 
L 313 1709 
L 2253 4666 
z
" transform="scale(0.015625)"/>
       </defs>
       <use xlink:href="#DejaVuSans-30"/>
       <use xlink:href="#DejaVuSans-2e" x="63.623047"/>
       <use xlink:href="#DejaVuSans-34" x="95.410156"/>
      </g>
     </g>
    </g>
    <g id="ytick_4">
     <g id="line2d_9">
      <g>
       <use xlink:href="#mfb659e7fcf" x="72.84" y="202.378182" style="stroke: #000000; stroke-width: 0.8"/>
      </g>
     </g>
     <g id="text_10">
      <!-- 0.6 -->
      <g transform="translate(49.936875 206.177401) scale(0.1 -0.1)">
       <defs>
        <path id="DejaVuSans-36" d="M 2113 2584 
Q 1688 2584 1439 2293 
Q 1191 2003 1191 1497 
Q 1191 994 1439 701 
Q 1688 409 2113 409 
Q 2538 409 2786 701 
Q 3034 994 3034 1497 
Q 3034 2003 2786 2293 
Q 2538 2584 2113 2584 
z
M 3366 4563 
L 3366 3988 
Q 3128 4100 2886 4159 
Q 2644 4219 2406 4219 
Q 1781 4219 1451 3797 
Q 1122 3375 1075 2522 
Q 1259 2794 1537 2939 
Q 1816 3084 2150 3084 
Q 2853 3084 3261 2657 
Q 3669 2231 3669 1497 
Q 3669 778 3244 343 
Q 2819 -91 2113 -91 
Q 1303 -91 875 529 
Q 447 1150 447 2328 
Q 447 3434 972 4092 
Q 1497 4750 2381 4750 
Q 2619 4750 2861 4703 
Q 3103 4656 3366 4563 
z
" transform="scale(0.015625)"/>
       </defs>
       <use xlink:href="#DejaVuSans-30"/>
       <use xlink:href="#DejaVuSans-2e" x="63.623047"/>
       <use xlink:href="#DejaVuSans-36" x="95.410156"/>
      </g>
     </g>
    </g>
    <g id="ytick_5">
     <g id="line2d_10">
      <g>
       <use xlink:href="#mfb659e7fcf" x="72.84" y="136.414545" style="stroke: #000000; stroke-width: 0.8"/>
      </g>
     </g>
     <g id="text_11">
      <!-- 0.8 -->
      <g transform="translate(49.936875 140.213764) scale(0.1 -0.1)">
       <defs>
        <path id="DejaVuSans-38" d="M 2034 2216 
Q 1584 2216 1326 1975 
Q 1069 1734 1069 1313 
Q 1069 891 1326 650 
Q 1584 409 2034 409 
Q 2484 409 2743 651 
Q 3003 894 3003 1313 
Q 3003 1734 2745 1975 
Q 2488 2216 2034 2216 
z
M 1403 2484 
Q 997 2584 770 2862 
Q 544 3141 544 3541 
Q 544 4100 942 4425 
Q 1341 4750 2034 4750 
Q 2731 4750 3128 4425 
Q 3525 4100 3525 3541 
Q 3525 3141 3298 2862 
Q 3072 2584 2669 2484 
Q 3125 2378 3379 2068 
Q 3634 1759 3634 1313 
Q 3634 634 3220 271 
Q 2806 -91 2034 -91 
Q 1263 -91 848 271 
Q 434 634 434 1313 
Q 434 1759 690 2068 
Q 947 2378 1403 2484 
z
M 1172 3481 
Q 1172 3119 1398 2916 
Q 1625 2713 2034 2713 
Q 2441 2713 2670 2916 
Q 2900 3119 2900 3481 
Q 2900 3844 2670 4047 
Q 2441 4250 2034 4250 
Q 1625 4250 1398 4047 
Q 1172 3844 1172 3481 
z
" transform="scale(0.015625)"/>
       </defs>
       <use xlink:href="#DejaVuSans-30"/>
       <use xlink:href="#DejaVuSans-2e" x="63.623047"/>
       <use xlink:href="#DejaVuSans-38" x="95.410156"/>
      </g>
     </g>
    </g>
    <g id="ytick_6">
     <g id="line2d_11">
      <g>
       <use xlink:href="#mfb659e7fcf" x="72.84" y="70.450909" style="stroke: #000000; stroke-width: 0.8"/>
      </g>
     </g>
     <g id="text_12">
      <!-- 1.0 -->
      <g transform="translate(49.936875 74.250128) scale(0.1 -0.1)">
       <use xlink:href="#DejaVuSans-31"/>
       <use xlink:href="#DejaVuSans-2e" x="63.623047"/>
       <use xlink:href="#DejaVuSans-30" x="95.410156"/>
      </g>
     </g>
    </g>
    <g id="text_13">
     <!-- Sp(x) -->
     <g transform="translate(43.857188 248.569375) rotate(-90) scale(0.1 -0.1)">
      <defs>
       <path id="DejaVuSans-53" d="M 3425 4513 
L 3425 3897 
Q 3066 4069 2747 4153 
Q 2428 4238 2131 4238 
Q 1616 4238 1336 4038 
Q 1056 3838 1056 3469 
Q 1056 3159 1242 3001 
Q 1428 2844 1947 2747 
L 2328 2669 
Q 3034 2534 3370 2195 
Q 3706 1856 3706 1288 
Q 3706 609 3251 259 
Q 2797 -91 1919 -91 
Q 1588 -91 1214 -16 
Q 841 59 441 206 
L 441 856 
Q 825 641 1194 531 
Q 1563 422 1919 422 
Q 2459 422 2753 634 
Q 3047 847 3047 1241 
Q 3047 1584 2836 1778 
Q 2625 1972 2144 2069 
L 1759 2144 
Q 1053 2284 737 2584 
Q 422 2884 422 3419 
Q 422 4038 858 4394 
Q 1294 4750 2059 4750 
Q 2388 4750 2728 4690 
Q 3069 4631 3425 4513 
z
" transform="scale(0.015625)"/>
       <path id="DejaVuSans-70" d="M 1159 525 
L 1159 -1331 
L 581 -1331 
L 581 3500 
L 1159 3500 
L 1159 2969 
Q 1341 3281 1617 3432 
Q 1894 3584 2278 3584 
Q 2916 3584 3314 3078 
Q 3713 2572 3713 1747 
Q 3713 922 3314 415 
Q 2916 -91 2278 -91 
Q 1894 -91 1617 61 
Q 1341 213 1159 525 
z
M 3116 1747 
Q 3116 2381 2855 2742 
Q 2594 3103 2138 3103 
Q 1681 3103 1420 2742 
Q 1159 2381 1159 1747 
Q 1159 1113 1420 752 
Q 1681 391 2138 391 
Q 2594 391 2855 752 
Q 3116 1113 3116 1747 
z
" transform="scale(0.015625)"/>
      </defs>
      <use xlink:href="#DejaVuSans-53"/>
      <use xlink:href="#DejaVuSans-70" x="63.476562"/>
      <use xlink:href="#DejaVuSans-28" x="126.953125"/>
      <use xlink:href="#DejaVuSans-78" x="165.966797"/>
      <use xlink:href="#DejaVuSans-29" x="225.146484"/>
     </g>
    </g>
   </g>
   <g id="line2d_12">
    <path d="M 88.803636 70.450909 
L 103.706041 74.528868 
L 111.834625 76.990934 
L 118.608445 79.268936 
L 124.47909 81.461734 
L 129.898146 83.705017 
L 135.317202 86.19476 
L 140.28467 88.724402 
L 145.252138 91.519869 
L 149.768019 94.315824 
L 154.283899 97.376122 
L 158.799779 100.721306 
L 163.315659 104.370942 
L 167.379951 107.930966 
L 171.444243 111.764294 
L 175.508535 115.881397 
L 179.572828 120.290972 
L 183.63712 124.999666 
L 188.153 130.587566 
L 192.66888 136.552304 
L 197.18476 142.891902 
L 201.70064 149.59987 
L 206.668109 157.390584 
L 211.635577 165.591716 
L 217.054633 174.972587 
L 222.925277 185.593544 
L 229.699097 198.349463 
L 237.376094 213.30019 
L 249.117382 236.717561 
L 262.665023 263.6276 
L 270.342019 278.383056 
L 276.664251 290.083615 
L 282.534895 300.491933 
L 287.953951 309.650944 
L 292.92142 317.631322 
L 297.888888 325.188595 
L 302.404768 331.676581 
L 306.920648 337.791747 
L 311.436528 343.530341 
L 315.952408 348.892963 
L 320.468289 353.884241 
L 324.984169 358.512439 
L 329.048461 362.376811 
L 333.564341 366.349058 
L 338.080221 369.998694 
L 342.596101 373.343878 
L 347.111981 376.404176 
L 351.627862 379.200131 
L 356.143742 381.752877 
L 361.11121 384.30551 
L 366.078678 386.618107 
L 371.497734 388.899995 
L 377.368379 391.128114 
L 383.690611 393.292234 
L 390.916019 395.531423 
L 399.947779 398.088025 
L 408.076364 400.269091 
L 408.076364 400.269091 
" clip-path="url(#pcb0c626d68)" style="fill: none; stroke: #1f77b4; stroke-width: 1.5; stroke-linecap: square"/>
   </g>
   <g id="patch_3">
    <path d="M 72.84 416.76 
L 72.84 53.96 
" style="fill: none; stroke: #000000; stroke-width: 0.8; stroke-linejoin: miter; stroke-linecap: square"/>
   </g>
   <g id="patch_4">
    <path d="M 424.04 416.76 
L 424.04 53.96 
" style="fill: none; stroke: #000000; stroke-width: 0.8; stroke-linejoin: miter; stroke-linecap: square"/>
   </g>
   <g id="patch_5">
    <path d="M 72.84 416.76 
L 424.04 416.76 
" style="fill: none; stroke: #000000; stroke-width: 0.8; stroke-linejoin: miter; stroke-linecap: square"/>
   </g>
   <g id="patch_6">
    <path d="M 72.84 53.96 
L 424.04 53.96 
" style="fill: none; stroke: #000000; stroke-width: 0.8; stroke-linejoin: miter; stroke-linecap: square"/>
   </g>
   <g id="text_14">
    <!-- Splitting Probability -->
    <g transform="translate(189.88375 47.96) scale(0.12 -0.12)">
     <defs>
      <path id="DejaVuSans-6c" d="M 603 4863 
L 1178 4863 
L 1178 0 
L 603 0 
L 603 4863 
z
" transform="scale(0.015625)"/>
      <path id="DejaVuSans-69" d="M 603 3500 
L 1178 3500 
L 1178 0 
L 603 0 
L 603 3500 
z
M 603 4863 
L 1178 4863 
L 1178 4134 
L 603 4134 
L 603 4863 
z
" transform="scale(0.015625)"/>
      <path id="DejaVuSans-74" d="M 1172 4494 
L 1172 3500 
L 2356 3500 
L 2356 3053 
L 1172 3053 
L 1172 1153 
Q 1172 725 1289 603 
Q 1406 481 1766 481 
L 2356 481 
L 2356 0 
L 1766 0 
Q 1100 0 847 248 
Q 594 497 594 1153 
L 594 3053 
L 172 3053 
L 172 3500 
L 594 3500 
L 594 4494 
L 1172 4494 
z
" transform="scale(0.015625)"/>
      <path id="DejaVuSans-6e" d="M 3513 2113 
L 3513 0 
L 2938 0 
L 2938 2094 
Q 2938 2591 2744 2837 
Q 2550 3084 2163 3084 
Q 1697 3084 1428 2787 
Q 1159 2491 1159 1978 
L 1159 0 
L 581 0 
L 581 3500 
L 1159 3500 
L 1159 2956 
Q 1366 3272 1645 3428 
Q 1925 3584 2291 3584 
Q 2894 3584 3203 3211 
Q 3513 2838 3513 2113 
z
" transform="scale(0.015625)"/>
      <path id="DejaVuSans-67" d="M 2906 1791 
Q 2906 2416 2648 2759 
Q 2391 3103 1925 3103 
Q 1463 3103 1205 2759 
Q 947 2416 947 1791 
Q 947 1169 1205 825 
Q 1463 481 1925 481 
Q 2391 481 2648 825 
Q 2906 1169 2906 1791 
z
M 3481 434 
Q 3481 -459 3084 -895 
Q 2688 -1331 1869 -1331 
Q 1566 -1331 1297 -1286 
Q 1028 -1241 775 -1147 
L 775 -588 
Q 1028 -725 1275 -790 
Q 1522 -856 1778 -856 
Q 2344 -856 2625 -561 
Q 2906 -266 2906 331 
L 2906 616 
Q 2728 306 2450 153 
Q 2172 0 1784 0 
Q 1141 0 747 490 
Q 353 981 353 1791 
Q 353 2603 747 3093 
Q 1141 3584 1784 3584 
Q 2172 3584 2450 3431 
Q 2728 3278 2906 2969 
L 2906 3500 
L 3481 3500 
L 3481 434 
z
" transform="scale(0.015625)"/>
      <path id="DejaVuSans-50" d="M 1259 4147 
L 1259 2394 
L 2053 2394 
Q 2494 2394 2734 2622 
Q 2975 2850 2975 3272 
Q 2975 3691 2734 3919 
Q 2494 4147 2053 4147 
L 1259 4147 
z
M 628 4666 
L 2053 4666 
Q 2838 4666 3239 4311 
Q 3641 3956 3641 3272 
Q 3641 2581 3239 2228 
Q 2838 1875 2053 1875 
L 1259 1875 
L 1259 0 
L 628 0 
L 628 4666 
z
" transform="scale(0.015625)"/>
      <path id="DejaVuSans-72" d="M 2631 2963 
Q 2534 3019 2420 3045 
Q 2306 3072 2169 3072 
Q 1681 3072 1420 2755 
Q 1159 2438 1159 1844 
L 1159 0 
L 581 0 
L 581 3500 
L 1159 3500 
L 1159 2956 
Q 1341 3275 1631 3429 
Q 1922 3584 2338 3584 
Q 2397 3584 2469 3576 
Q 2541 3569 2628 3553 
L 2631 2963 
z
" transform="scale(0.015625)"/>
      <path id="DejaVuSans-6f" d="M 1959 3097 
Q 1497 3097 1228 2736 
Q 959 2375 959 1747 
Q 959 1119 1226 758 
Q 1494 397 1959 397 
Q 2419 397 2687 759 
Q 2956 1122 2956 1747 
Q 2956 2369 2687 2733 
Q 2419 3097 1959 3097 
z
M 1959 3584 
Q 2709 3584 3137 3096 
Q 3566 2609 3566 1747 
Q 3566 888 3137 398 
Q 2709 -91 1959 -91 
Q 1206 -91 779 398 
Q 353 888 353 1747 
Q 353 2609 779 3096 
Q 1206 3584 1959 3584 
z
" transform="scale(0.015625)"/>
      <path id="DejaVuSans-62" d="M 3116 1747 
Q 3116 2381 2855 2742 
Q 2594 3103 2138 3103 
Q 1681 3103 1420 2742 
Q 1159 2381 1159 1747 
Q 1159 1113 1420 752 
Q 1681 391 2138 391 
Q 2594 391 2855 752 
Q 3116 1113 3116 1747 
z
M 1159 2969 
Q 1341 3281 1617 3432 
Q 1894 3584 2278 3584 
Q 2916 3584 3314 3078 
Q 3713 2572 3713 1747 
Q 3713 922 3314 415 
Q 2916 -91 2278 -91 
Q 1894 -91 1617 61 
Q 1341 213 1159 525 
L 1159 0 
L 581 0 
L 581 4863 
L 1159 4863 
L 1159 2969 
z
" transform="scale(0.015625)"/>
      <path id="DejaVuSans-61" d="M 2194 1759 
Q 1497 1759 1228 1600 
Q 959 1441 959 1056 
Q 959 750 1161 570 
Q 1363 391 1709 391 
Q 2188 391 2477 730 
Q 2766 1069 2766 1631 
L 2766 1759 
L 2194 1759 
z
M 3341 1997 
L 3341 0 
L 2766 0 
L 2766 531 
Q 2569 213 2275 61 
Q 1981 -91 1556 -91 
Q 1019 -91 701 211 
Q 384 513 384 1019 
Q 384 1609 779 1909 
Q 1175 2209 1959 2209 
L 2766 2209 
L 2766 2266 
Q 2766 2663 2505 2880 
Q 2244 3097 1772 3097 
Q 1472 3097 1187 3025 
Q 903 2953 641 2809 
L 641 3341 
Q 956 3463 1253 3523 
Q 1550 3584 1831 3584 
Q 2591 3584 2966 3190 
Q 3341 2797 3341 1997 
z
" transform="scale(0.015625)"/>
      <path id="DejaVuSans-79" d="M 2059 -325 
Q 1816 -950 1584 -1140 
Q 1353 -1331 966 -1331 
L 506 -1331 
L 506 -850 
L 844 -850 
Q 1081 -850 1212 -737 
Q 1344 -625 1503 -206 
L 1606 56 
L 191 3500 
L 800 3500 
L 1894 763 
L 2988 3500 
L 3597 3500 
L 2059 -325 
z
" transform="scale(0.015625)"/>
     </defs>
     <use xlink:href="#DejaVuSans-53"/>
     <use xlink:href="#DejaVuSans-70" x="63.476562"/>
     <use xlink:href="#DejaVuSans-6c" x="126.953125"/>
     <use xlink:href="#DejaVuSans-69" x="154.736328"/>
     <use xlink:href="#DejaVuSans-74" x="182.519531"/>
     <use xlink:href="#DejaVuSans-74" x="221.728516"/>
     <use xlink:href="#DejaVuSans-69" x="260.9375"/>
     <use xlink:href="#DejaVuSans-6e" x="288.720703"/>
     <use xlink:href="#DejaVuSans-67" x="352.099609"/>
     <use xlink:href="#DejaVuSans-20" x="415.576172"/>
     <use xlink:href="#DejaVuSans-50" x="447.363281"/>
     <use xlink:href="#DejaVuSans-72" x="505.916016"/>
     <use xlink:href="#DejaVuSans-6f" x="544.779297"/>
     <use xlink:href="#DejaVuSans-62" x="605.960938"/>
     <use xlink:href="#DejaVuSans-61" x="669.4375"/>
     <use xlink:href="#DejaVuSans-62" x="730.716797"/>
     <use xlink:href="#DejaVuSans-69" x="794.193359"/>
     <use xlink:href="#DejaVuSans-6c" x="821.976562"/>
     <use xlink:href="#DejaVuSans-69" x="849.759766"/>
     <use xlink:href="#DejaVuSans-74" x="877.542969"/>
     <use xlink:href="#DejaVuSans-79" x="916.751953"/>
    </g>
   </g>
  </g>
  <g id="axes_2">
   <g id="patch_7">
    <path d="M 504.8 416.76 
L 856 416.76 
L 856 53.96 
L 504.8 53.96 
z
" style="fill: #ffffff"/>
   </g>
   <g id="matplotlib.axis_3">
    <g id="xtick_6">
     <g id="line2d_13">
      <g>
       <use xlink:href="#m23d29ac6e5" x="548.666442" y="416.76" style="stroke: #000000; stroke-width: 0.8"/>
      </g>
     </g>
     <g id="text_15">
      <!-- −10 -->
      <g transform="translate(538.114099 431.358437) scale(0.1 -0.1)">
       <use xlink:href="#DejaVuSans-2212"/>
       <use xlink:href="#DejaVuSans-31" x="83.789062"/>
       <use xlink:href="#DejaVuSans-30" x="147.412109"/>
      </g>
     </g>
    </g>
    <g id="xtick_7">
     <g id="line2d_14">
      <g>
       <use xlink:href="#m23d29ac6e5" x="614.533221" y="416.76" style="stroke: #000000; stroke-width: 0.8"/>
      </g>
     </g>
     <g id="text_16">
      <!-- −5 -->
      <g transform="translate(607.162127 431.358437) scale(0.1 -0.1)">
       <use xlink:href="#DejaVuSans-2212"/>
       <use xlink:href="#DejaVuSans-35" x="83.789062"/>
      </g>
     </g>
    </g>
    <g id="xtick_8">
     <g id="line2d_15">
      <g>
       <use xlink:href="#m23d29ac6e5" x="680.4" y="416.76" style="stroke: #000000; stroke-width: 0.8"/>
      </g>
     </g>
     <g id="text_17">
      <!-- 0 -->
      <g transform="translate(677.21875 431.358437) scale(0.1 -0.1)">
       <use xlink:href="#DejaVuSans-30"/>
      </g>
     </g>
    </g>
    <g id="xtick_9">
     <g id="line2d_16">
      <g>
       <use xlink:href="#m23d29ac6e5" x="746.266779" y="416.76" style="stroke: #000000; stroke-width: 0.8"/>
      </g>
     </g>
     <g id="text_18">
      <!-- 5 -->
      <g transform="translate(743.085529 431.358437) scale(0.1 -0.1)">
       <use xlink:href="#DejaVuSans-35"/>
      </g>
     </g>
    </g>
    <g id="xtick_10">
     <g id="line2d_17">
      <g>
       <use xlink:href="#m23d29ac6e5" x="812.133558" y="416.76" style="stroke: #000000; stroke-width: 0.8"/>
      </g>
     </g>
     <g id="text_19">
      <!-- 10 -->
      <g transform="translate(805.771058 431.358437) scale(0.1 -0.1)">
       <use xlink:href="#DejaVuSans-31"/>
       <use xlink:href="#DejaVuSans-30" x="63.623047"/>
      </g>
     </g>
    </g>
    <g id="text_20">
     <!-- x (Å) -->
     <g transform="translate(668.529687 445.96) scale(0.1 -0.1)">
      <use xlink:href="#DejaVuSans-78"/>
      <use xlink:href="#DejaVuSans-20" x="59.179688"/>
      <use xlink:href="#DejaVuSans-28" x="90.966797"/>
      <use xlink:href="#DejaVuSans-c5" x="129.980469"/>
      <use xlink:href="#DejaVuSans-29" x="198.388672"/>
     </g>
    </g>
   </g>
   <g id="matplotlib.axis_4">
    <g id="ytick_7">
     <g id="line2d_18">
      <g>
       <use xlink:href="#mfb659e7fcf" x="504.8" y="370.313441" style="stroke: #000000; stroke-width: 0.8"/>
      </g>
     </g>
     <g id="text_21">
      <!-- −2.6 -->
      <g transform="translate(473.517187 374.11266) scale(0.1 -0.1)">
       <use xlink:href="#DejaVuSans-2212"/>
       <use xlink:href="#DejaVuSans-32" x="83.789062"/>
       <use xlink:href="#DejaVuSans-2e" x="147.412109"/>
       <use xlink:href="#DejaVuSans-36" x="179.199219"/>
      </g>
     </g>
    </g>
    <g id="ytick_8">
     <g id="line2d_19">
      <g>
       <use xlink:href="#mfb659e7fcf" x="504.8" y="315.524764" style="stroke: #000000; stroke-width: 0.8"/>
      </g>
     </g>
     <g id="text_22">
      <!-- −2.4 -->
      <g transform="translate(473.517187 319.323983) scale(0.1 -0.1)">
       <use xlink:href="#DejaVuSans-2212"/>
       <use xlink:href="#DejaVuSans-32" x="83.789062"/>
       <use xlink:href="#DejaVuSans-2e" x="147.412109"/>
       <use xlink:href="#DejaVuSans-34" x="179.199219"/>
      </g>
     </g>
    </g>
    <g id="ytick_9">
     <g id="line2d_20">
      <g>
       <use xlink:href="#mfb659e7fcf" x="504.8" y="260.736088" style="stroke: #000000; stroke-width: 0.8"/>
      </g>
     </g>
     <g id="text_23">
      <!-- −2.2 -->
      <g transform="translate(473.517187 264.535307) scale(0.1 -0.1)">
       <use xlink:href="#DejaVuSans-2212"/>
       <use xlink:href="#DejaVuSans-32" x="83.789062"/>
       <use xlink:href="#DejaVuSans-2e" x="147.412109"/>
       <use xlink:href="#DejaVuSans-32" x="179.199219"/>
      </g>
     </g>
    </g>
    <g id="ytick_10">
     <g id="line2d_21">
      <g>
       <use xlink:href="#mfb659e7fcf" x="504.8" y="205.947411" style="stroke: #000000; stroke-width: 0.8"/>
      </g>
     </g>
     <g id="text_24">
      <!-- −2.0 -->
      <g transform="translate(473.517187 209.74663) scale(0.1 -0.1)">
       <use xlink:href="#DejaVuSans-2212"/>
       <use xlink:href="#DejaVuSans-32" x="83.789062"/>
       <use xlink:href="#DejaVuSans-2e" x="147.412109"/>
       <use xlink:href="#DejaVuSans-30" x="179.199219"/>
      </g>
     </g>
    </g>
    <g id="ytick_11">
     <g id="line2d_22">
      <g>
       <use xlink:href="#mfb659e7fcf" x="504.8" y="151.158735" style="stroke: #000000; stroke-width: 0.8"/>
      </g>
     </g>
     <g id="text_25">
      <!-- −1.8 -->
      <g transform="translate(473.517187 154.957953) scale(0.1 -0.1)">
       <use xlink:href="#DejaVuSans-2212"/>
       <use xlink:href="#DejaVuSans-31" x="83.789062"/>
       <use xlink:href="#DejaVuSans-2e" x="147.412109"/>
       <use xlink:href="#DejaVuSans-38" x="179.199219"/>
      </g>
     </g>
    </g>
    <g id="ytick_12">
     <g id="line2d_23">
      <g>
       <use xlink:href="#mfb659e7fcf" x="504.8" y="96.370058" style="stroke: #000000; stroke-width: 0.8"/>
      </g>
     </g>
     <g id="text_26">
      <!-- −1.6 -->
      <g transform="translate(473.517187 100.169277) scale(0.1 -0.1)">
       <use xlink:href="#DejaVuSans-2212"/>
       <use xlink:href="#DejaVuSans-31" x="83.789062"/>
       <use xlink:href="#DejaVuSans-2e" x="147.412109"/>
       <use xlink:href="#DejaVuSans-36" x="179.199219"/>
      </g>
     </g>
    </g>
    <g id="text_27">
     <!-- PMF (kcal/mol) -->
     <g transform="translate(467.4375 272.156094) rotate(-90) scale(0.1 -0.1)">
      <defs>
       <path id="DejaVuSans-4d" d="M 628 4666 
L 1569 4666 
L 2759 1491 
L 3956 4666 
L 4897 4666 
L 4897 0 
L 4281 0 
L 4281 4097 
L 3078 897 
L 2444 897 
L 1241 4097 
L 1241 0 
L 628 0 
L 628 4666 
z
" transform="scale(0.015625)"/>
       <path id="DejaVuSans-46" d="M 628 4666 
L 3309 4666 
L 3309 4134 
L 1259 4134 
L 1259 2759 
L 3109 2759 
L 3109 2228 
L 1259 2228 
L 1259 0 
L 628 0 
L 628 4666 
z
" transform="scale(0.015625)"/>
       <path id="DejaVuSans-6b" d="M 581 4863 
L 1159 4863 
L 1159 1991 
L 2875 3500 
L 3609 3500 
L 1753 1863 
L 3688 0 
L 2938 0 
L 1159 1709 
L 1159 0 
L 581 0 
L 581 4863 
z
" transform="scale(0.015625)"/>
       <path id="DejaVuSans-63" d="M 3122 3366 
L 3122 2828 
Q 2878 2963 2633 3030 
Q 2388 3097 2138 3097 
Q 1578 3097 1268 2742 
Q 959 2388 959 1747 
Q 959 1106 1268 751 
Q 1578 397 2138 397 
Q 2388 397 2633 464 
Q 2878 531 3122 666 
L 3122 134 
Q 2881 22 2623 -34 
Q 2366 -91 2075 -91 
Q 1284 -91 818 406 
Q 353 903 353 1747 
Q 353 2603 823 3093 
Q 1294 3584 2113 3584 
Q 2378 3584 2631 3529 
Q 2884 3475 3122 3366 
z
" transform="scale(0.015625)"/>
       <path id="DejaVuSans-2f" d="M 1625 4666 
L 2156 4666 
L 531 -594 
L 0 -594 
L 1625 4666 
z
" transform="scale(0.015625)"/>
       <path id="DejaVuSans-6d" d="M 3328 2828 
Q 3544 3216 3844 3400 
Q 4144 3584 4550 3584 
Q 5097 3584 5394 3201 
Q 5691 2819 5691 2113 
L 5691 0 
L 5113 0 
L 5113 2094 
Q 5113 2597 4934 2840 
Q 4756 3084 4391 3084 
Q 3944 3084 3684 2787 
Q 3425 2491 3425 1978 
L 3425 0 
L 2847 0 
L 2847 2094 
Q 2847 2600 2669 2842 
Q 2491 3084 2119 3084 
Q 1678 3084 1418 2786 
Q 1159 2488 1159 1978 
L 1159 0 
L 581 0 
L 581 3500 
L 1159 3500 
L 1159 2956 
Q 1356 3278 1631 3431 
Q 1906 3584 2284 3584 
Q 2666 3584 2933 3390 
Q 3200 3197 3328 2828 
z
" transform="scale(0.015625)"/>
      </defs>
      <use xlink:href="#DejaVuSans-50"/>
      <use xlink:href="#DejaVuSans-4d" x="60.302734"/>
      <use xlink:href="#DejaVuSans-46" x="146.582031"/>
      <use xlink:href="#DejaVuSans-20" x="204.101562"/>
      <use xlink:href="#DejaVuSans-28" x="235.888672"/>
      <use xlink:href="#DejaVuSans-6b" x="274.902344"/>
      <use xlink:href="#DejaVuSans-63" x="332.8125"/>
      <use xlink:href="#DejaVuSans-61" x="387.792969"/>
      <use xlink:href="#DejaVuSans-6c" x="449.072266"/>
      <use xlink:href="#DejaVuSans-2f" x="476.855469"/>
      <use xlink:href="#DejaVuSans-6d" x="510.546875"/>
      <use xlink:href="#DejaVuSans-6f" x="607.958984"/>
      <use xlink:href="#DejaVuSans-6c" x="669.140625"/>
      <use xlink:href="#DejaVuSans-29" x="696.923828"/>
     </g>
    </g>
   </g>
   <g id="line2d_24">
    <path d="M 520.763636 400.269091 
L 522.1184 400.139949 
L 523.473164 399.773398 
L 524.827929 399.177184 
L 526.182693 398.3574 
L 527.537457 397.320372 
L 529.343809 395.61105 
L 531.150161 393.543122 
L 532.956513 391.133012 
L 534.762865 388.397491 
L 537.020805 384.546407 
L 539.278745 380.246948 
L 541.988273 374.542948 
L 544.697801 368.299057 
L 547.858917 360.407406 
L 551.471621 350.694056 
L 555.535914 339.029047 
L 560.051794 325.345407 
L 565.47085 308.203129 
L 573.599434 281.666913 
L 587.598663 235.921122 
L 594.372483 214.607126 
L 600.243127 196.878612 
L 605.210595 182.531201 
L 610.178064 168.860788 
L 614.693944 157.072631 
L 619.209824 145.934368 
L 623.274116 136.493593 
L 627.338408 127.62786 
L 630.951112 120.24492 
L 634.563816 113.342249 
L 638.176521 106.929795 
L 641.337637 101.727921 
L 644.498753 96.913227 
L 647.659869 92.490284 
L 650.820985 88.463128 
L 653.982101 84.835301 
L 656.691629 82.045918 
L 659.401157 79.55389 
L 662.110685 77.360696 
L 664.820213 75.467612 
L 667.529742 73.87572 
L 669.787682 72.779874 
L 672.045622 71.894237 
L 674.303562 71.219151 
L 676.561502 70.754871 
L 678.819442 70.501573 
L 681.077382 70.459353 
L 683.335322 70.628227 
L 685.593262 71.008131 
L 687.851202 71.598921 
L 690.109142 72.400373 
L 692.367082 73.412181 
L 694.625023 74.633956 
L 697.334551 76.376568 
L 700.044079 78.419854 
L 702.753607 80.762638 
L 705.463135 83.403541 
L 708.172663 86.340979 
L 710.882191 89.573143 
L 714.043307 93.713763 
L 717.204423 98.249068 
L 720.365539 103.174876 
L 723.526656 108.486453 
L 727.13936 115.022325 
L 730.752064 122.046048 
L 734.364768 129.547343 
L 738.42906 138.542549 
L 742.493352 148.108335 
L 746.557644 158.222805 
L 751.073524 170.073885 
L 755.589405 182.531201 
L 760.556873 196.878612 
L 765.975929 213.216562 
L 772.298161 233.034739 
L 779.975158 257.891699 
L 798.941854 319.704261 
L 803.909322 334.994723 
L 807.973615 346.884771 
L 811.586319 356.845507 
L 814.747435 364.992352 
L 817.908551 372.518825 
L 820.618079 378.409136 
L 823.327607 383.721311 
L 825.585547 387.664755 
L 827.843487 391.133012 
L 829.649839 393.543122 
L 831.456191 395.61105 
L 833.262543 397.320372 
L 835.068895 398.655116 
L 836.42366 399.401069 
L 837.778424 399.921394 
L 839.133188 400.210081 
L 840.036364 400.269091 
L 840.036364 400.269091 
" clip-path="url(#p4033f0ffd7)" style="fill: none; stroke: #000000; stroke-width: 1.5; stroke-linecap: square"/>
   </g>
   <g id="line2d_25">
    <path d="M 520.763636 400.269091 
L 522.1184 400.139949 
L 523.473164 399.773398 
L 524.827929 399.177184 
L 526.182693 398.3574 
L 527.537457 397.320372 
L 529.343809 395.61105 
L 531.150161 393.543122 
L 532.956513 391.133012 
L 534.762865 388.397491 
L 537.020805 384.546407 
L 539.278745 380.246948 
L 541.988273 374.542948 
L 544.697801 368.299057 
L 547.858917 360.407406 
L 551.471621 350.694056 
L 555.535914 339.029047 
L 560.051794 325.345407 
L 565.47085 308.203129 
L 573.599434 281.666913 
L 587.598663 235.921122 
L 594.372483 214.607126 
L 600.243127 196.878612 
L 605.210595 182.531201 
L 610.178064 168.860788 
L 614.693944 157.072631 
L 619.209824 145.934368 
L 623.274116 136.493593 
L 627.338408 127.62786 
L 630.951112 120.24492 
L 634.563816 113.342249 
L 638.176521 106.929795 
L 641.337637 101.727921 
L 644.498753 96.913227 
L 647.659869 92.490284 
L 650.820985 88.463128 
L 653.982101 84.835301 
L 656.691629 82.045918 
L 659.401157 79.55389 
L 662.110685 77.360696 
L 664.820213 75.467612 
L 667.529742 73.87572 
L 669.787682 72.779874 
L 672.045622 71.894237 
L 674.303562 71.219151 
L 676.561502 70.754871 
L 678.819442 70.501573 
L 681.077382 70.459353 
L 683.335322 70.628227 
L 685.593262 71.008131 
L 687.851202 71.598921 
L 690.109142 72.400373 
L 692.367082 73.412181 
L 694.625023 74.633956 
L 697.334551 76.376568 
L 700.044079 78.419854 
L 702.753607 80.762638 
L 705.463135 83.403541 
L 708.172663 86.340979 
L 710.882191 89.573143 
L 714.043307 93.713763 
L 717.204423 98.249068 
L 720.365539 103.174876 
L 723.526656 108.486453 
L 727.13936 115.022325 
L 730.752064 122.046048 
L 734.364768 129.547343 
L 738.42906 138.542549 
L 742.493352 148.108335 
L 746.557644 158.222805 
L 751.073524 170.073885 
L 755.589405 182.531201 
L 760.556873 196.878612 
L 765.975929 213.216562 
L 772.298161 233.034739 
L 779.975158 257.891699 
L 798.941854 319.704261 
L 803.909322 334.994723 
L 807.973615 346.884771 
L 811.586319 356.845507 
L 814.747435 364.992352 
L 817.908551 372.518825 
L 820.618079 378.409136 
L 823.327607 383.721311 
L 825.585547 387.664755 
L 827.843487 391.133012 
L 829.649839 393.543122 
L 831.456191 395.61105 
L 833.262543 397.320372 
L 835.068895 398.655116 
L 836.42366 399.401069 
L 837.778424 399.921394 
L 839.133188 400.210081 
L 840.036364 400.269091 
L 840.036364 400.269091 
" clip-path="url(#p4033f0ffd7)" style="fill: none; stroke: #1f77b4; stroke-width: 1.5; stroke-linecap: square"/>
   </g>
   <g id="patch_8">
    <path d="M 504.8 416.76 
L 504.8 53.96 
" style="fill: none; stroke: #000000; stroke-width: 0.8; stroke-linejoin: miter; stroke-linecap: square"/>
   </g>
   <g id="patch_9">
    <path d="M 856 416.76 
L 856 53.96 
" style="fill: none; stroke: #000000; stroke-width: 0.8; stroke-linejoin: miter; stroke-linecap: square"/>
   </g>
   <g id="patch_10">
    <path d="M 504.8 416.76 
L 856 416.76 
" style="fill: none; stroke: #000000; stroke-width: 0.8; stroke-linejoin: miter; stroke-linecap: square"/>
   </g>
   <g id="patch_11">
    <path d="M 504.8 53.96 
L 856 53.96 
" style="fill: none; stroke: #000000; stroke-width: 0.8; stroke-linejoin: miter; stroke-linecap: square"/>
   </g>
   <g id="text_28">
    <!-- PMF-RE -->
    <g transform="translate(658.029375 47.96) scale(0.12 -0.12)">
     <defs>
      <path id="DejaVuSans-2d" d="M 313 2009 
L 1997 2009 
L 1997 1497 
L 313 1497 
L 313 2009 
z
" transform="scale(0.015625)"/>
      <path id="DejaVuSans-52" d="M 2841 2188 
Q 3044 2119 3236 1894 
Q 3428 1669 3622 1275 
L 4263 0 
L 3584 0 
L 2988 1197 
Q 2756 1666 2539 1819 
Q 2322 1972 1947 1972 
L 1259 1972 
L 1259 0 
L 628 0 
L 628 4666 
L 2053 4666 
Q 2853 4666 3247 4331 
Q 3641 3997 3641 3322 
Q 3641 2881 3436 2590 
Q 3231 2300 2841 2188 
z
M 1259 4147 
L 1259 2491 
L 2053 2491 
Q 2509 2491 2742 2702 
Q 2975 2913 2975 3322 
Q 2975 3731 2742 3939 
Q 2509 4147 2053 4147 
L 1259 4147 
z
" transform="scale(0.015625)"/>
      <path id="DejaVuSans-45" d="M 628 4666 
L 3578 4666 
L 3578 4134 
L 1259 4134 
L 1259 2753 
L 3481 2753 
L 3481 2222 
L 1259 2222 
L 1259 531 
L 3634 531 
L 3634 0 
L 628 0 
L 628 4666 
z
" transform="scale(0.015625)"/>
     </defs>
     <use xlink:href="#DejaVuSans-50"/>
     <use xlink:href="#DejaVuSans-4d" x="60.302734"/>
     <use xlink:href="#DejaVuSans-46" x="146.582031"/>
     <use xlink:href="#DejaVuSans-2d" x="204.101562"/>
     <use xlink:href="#DejaVuSans-52" x="240.185547"/>
     <use xlink:href="#DejaVuSans-45" x="309.667969"/>
    </g>
   </g>
   <g id="legend_1">
    <g id="patch_12">
     <path d="M 598.507812 411.76 
L 762.292187 411.76 
Q 764.292187 411.76 764.292187 409.76 
L 764.292187 381.40375 
Q 764.292187 379.40375 762.292187 379.40375 
L 598.507812 379.40375 
Q 596.507812 379.40375 596.507812 381.40375 
L 596.507812 409.76 
Q 596.507812 411.76 598.507812 411.76 
z
" style="fill: #ffffff; opacity: 0.8; stroke: #cccccc; stroke-linejoin: miter"/>
    </g>
    <g id="line2d_26">
     <path d="M 600.507812 387.502187 
L 610.507812 387.502187 
L 620.507812 387.502187 
" style="fill: none; stroke: #000000; stroke-width: 1.5; stroke-linecap: square"/>
    </g>
    <g id="text_29">
     <!-- Imposed (ks: 5 KbT/[x]^2) -->
     <g transform="translate(628.507812 391.002187) scale(0.1 -0.1)">
      <defs>
       <path id="DejaVuSans-49" d="M 628 4666 
L 1259 4666 
L 1259 0 
L 628 0 
L 628 4666 
z
" transform="scale(0.015625)"/>
       <path id="DejaVuSans-73" d="M 2834 3397 
L 2834 2853 
Q 2591 2978 2328 3040 
Q 2066 3103 1784 3103 
Q 1356 3103 1142 2972 
Q 928 2841 928 2578 
Q 928 2378 1081 2264 
Q 1234 2150 1697 2047 
L 1894 2003 
Q 2506 1872 2764 1633 
Q 3022 1394 3022 966 
Q 3022 478 2636 193 
Q 2250 -91 1575 -91 
Q 1294 -91 989 -36 
Q 684 19 347 128 
L 347 722 
Q 666 556 975 473 
Q 1284 391 1588 391 
Q 1994 391 2212 530 
Q 2431 669 2431 922 
Q 2431 1156 2273 1281 
Q 2116 1406 1581 1522 
L 1381 1569 
Q 847 1681 609 1914 
Q 372 2147 372 2553 
Q 372 3047 722 3315 
Q 1072 3584 1716 3584 
Q 2034 3584 2315 3537 
Q 2597 3491 2834 3397 
z
" transform="scale(0.015625)"/>
       <path id="DejaVuSans-65" d="M 3597 1894 
L 3597 1613 
L 953 1613 
Q 991 1019 1311 708 
Q 1631 397 2203 397 
Q 2534 397 2845 478 
Q 3156 559 3463 722 
L 3463 178 
Q 3153 47 2828 -22 
Q 2503 -91 2169 -91 
Q 1331 -91 842 396 
Q 353 884 353 1716 
Q 353 2575 817 3079 
Q 1281 3584 2069 3584 
Q 2775 3584 3186 3129 
Q 3597 2675 3597 1894 
z
M 3022 2063 
Q 3016 2534 2758 2815 
Q 2500 3097 2075 3097 
Q 1594 3097 1305 2825 
Q 1016 2553 972 2059 
L 3022 2063 
z
" transform="scale(0.015625)"/>
       <path id="DejaVuSans-64" d="M 2906 2969 
L 2906 4863 
L 3481 4863 
L 3481 0 
L 2906 0 
L 2906 525 
Q 2725 213 2448 61 
Q 2172 -91 1784 -91 
Q 1150 -91 751 415 
Q 353 922 353 1747 
Q 353 2572 751 3078 
Q 1150 3584 1784 3584 
Q 2172 3584 2448 3432 
Q 2725 3281 2906 2969 
z
M 947 1747 
Q 947 1113 1208 752 
Q 1469 391 1925 391 
Q 2381 391 2643 752 
Q 2906 1113 2906 1747 
Q 2906 2381 2643 2742 
Q 2381 3103 1925 3103 
Q 1469 3103 1208 2742 
Q 947 2381 947 1747 
z
" transform="scale(0.015625)"/>
       <path id="DejaVuSans-3a" d="M 750 794 
L 1409 794 
L 1409 0 
L 750 0 
L 750 794 
z
M 750 3309 
L 1409 3309 
L 1409 2516 
L 750 2516 
L 750 3309 
z
" transform="scale(0.015625)"/>
       <path id="DejaVuSans-4b" d="M 628 4666 
L 1259 4666 
L 1259 2694 
L 3353 4666 
L 4166 4666 
L 1850 2491 
L 4331 0 
L 3500 0 
L 1259 2247 
L 1259 0 
L 628 0 
L 628 4666 
z
" transform="scale(0.015625)"/>
       <path id="DejaVuSans-54" d="M -19 4666 
L 3928 4666 
L 3928 4134 
L 2272 4134 
L 2272 0 
L 1638 0 
L 1638 4134 
L -19 4134 
L -19 4666 
z
" transform="scale(0.015625)"/>
       <path id="DejaVuSans-5b" d="M 550 4863 
L 1875 4863 
L 1875 4416 
L 1125 4416 
L 1125 -397 
L 1875 -397 
L 1875 -844 
L 550 -844 
L 550 4863 
z
" transform="scale(0.015625)"/>
       <path id="DejaVuSans-5d" d="M 1947 4863 
L 1947 -844 
L 622 -844 
L 622 -397 
L 1369 -397 
L 1369 4416 
L 622 4416 
L 622 4863 
L 1947 4863 
z
" transform="scale(0.015625)"/>
       <path id="DejaVuSans-5e" d="M 2988 4666 
L 4684 2925 
L 4056 2925 
L 2681 4159 
L 1306 2925 
L 678 2925 
L 2375 4666 
L 2988 4666 
z
" transform="scale(0.015625)"/>
      </defs>
      <use xlink:href="#DejaVuSans-49"/>
      <use xlink:href="#DejaVuSans-6d" x="29.492188"/>
      <use xlink:href="#DejaVuSans-70" x="126.904297"/>
      <use xlink:href="#DejaVuSans-6f" x="190.380859"/>
      <use xlink:href="#DejaVuSans-73" x="251.5625"/>
      <use xlink:href="#DejaVuSans-65" x="303.662109"/>
      <use xlink:href="#DejaVuSans-64" x="365.185547"/>
      <use xlink:href="#DejaVuSans-20" x="428.662109"/>
      <use xlink:href="#DejaVuSans-28" x="460.449219"/>
      <use xlink:href="#DejaVuSans-6b" x="499.462891"/>
      <use xlink:href="#DejaVuSans-73" x="557.373047"/>
      <use xlink:href="#DejaVuSans-3a" x="609.472656"/>
      <use xlink:href="#DejaVuSans-20" x="643.164062"/>
      <use xlink:href="#DejaVuSans-35" x="674.951172"/>
      <use xlink:href="#DejaVuSans-20" x="738.574219"/>
      <use xlink:href="#DejaVuSans-4b" x="770.361328"/>
      <use xlink:href="#DejaVuSans-62" x="835.9375"/>
      <use xlink:href="#DejaVuSans-54" x="899.414062"/>
      <use xlink:href="#DejaVuSans-2f" x="960.498047"/>
      <use xlink:href="#DejaVuSans-5b" x="994.189453"/>
      <use xlink:href="#DejaVuSans-78" x="1033.203125"/>
      <use xlink:href="#DejaVuSans-5d" x="1092.382812"/>
      <use xlink:href="#DejaVuSans-5e" x="1131.396484"/>
      <use xlink:href="#DejaVuSans-32" x="1215.185547"/>
      <use xlink:href="#DejaVuSans-29" x="1278.808594"/>
     </g>
    </g>
    <g id="line2d_27">
     <path d="M 600.507812 402.180313 
L 610.507812 402.180313 
L 620.507812 402.180313 
" style="fill: none; stroke: #1f77b4; stroke-width: 1.5; stroke-linecap: square"/>
    </g>
    <g id="text_30">
     <!-- ks: 5 KbT/[x]^2 -->
     <g transform="translate(628.507812 405.680313) scale(0.1 -0.1)">
      <use xlink:href="#DejaVuSans-6b"/>
      <use xlink:href="#DejaVuSans-73" x="57.910156"/>
      <use xlink:href="#DejaVuSans-3a" x="110.009766"/>
      <use xlink:href="#DejaVuSans-20" x="143.701172"/>
      <use xlink:href="#DejaVuSans-35" x="175.488281"/>
      <use xlink:href="#DejaVuSans-20" x="239.111328"/>
      <use xlink:href="#DejaVuSans-4b" x="270.898438"/>
      <use xlink:href="#DejaVuSans-62" x="336.474609"/>
      <use xlink:href="#DejaVuSans-54" x="399.951172"/>
      <use xlink:href="#DejaVuSans-2f" x="461.035156"/>
      <use xlink:href="#DejaVuSans-5b" x="494.726562"/>
      <use xlink:href="#DejaVuSans-78" x="533.740234"/>
      <use xlink:href="#DejaVuSans-5d" x="592.919922"/>
      <use xlink:href="#DejaVuSans-5e" x="631.933594"/>
      <use xlink:href="#DejaVuSans-32" x="715.722656"/>
     </g>
    </g>
   </g>
  </g>
 </g>
 <defs>
  <clipPath id="pcb0c626d68">
   <rect x="72.84" y="53.96" width="351.2" height="362.8"/>
  </clipPath>
  <clipPath id="p4033f0ffd7">
   <rect x="504.8" y="53.96" width="351.2" height="362.8"/>
  </clipPath>
 </defs>
</svg>
