<?xml version="1.0" encoding="utf-8" standalone="no"?>
<!DOCTYPE svg PUBLIC "-//W3C//DTD SVG 1.1//EN"
  "http://www.w3.org/Graphics/SVG/1.1/DTD/svg11.dtd">
<svg xmlns:xlink="http://www.w3.org/1999/xlink" width="460.8pt" height="345.6pt" viewBox="0 0 460.8 345.6" xmlns="http://www.w3.org/2000/svg" version="1.1">
 <metadata>
  <rdf:RDF xmlns:dc="http://purl.org/dc/elements/1.1/" xmlns:cc="http://creativecommons.org/ns#" xmlns:rdf="http://www.w3.org/1999/02/22-rdf-syntax-ns#">
   <cc:Work>
    <dc:type rdf:resource="http://purl.org/dc/dcmitype/StillImage"/>
    <dc:date>2024-09-12T17:07:29.758843</dc:date>
    <dc:format>image/svg+xml</dc:format>
    <dc:creator>
     <cc:Agent>
      <dc:title>Matplotlib v3.9.0, https://matplotlib.org/</dc:title>
     </cc:Agent>
    </dc:creator>
   </cc:Work>
  </rdf:RDF>
 </metadata>
 <defs>
  <style type="text/css">*{stroke-linejoin: round; stroke-linecap: butt}</style>
 </defs>
 <g id="figure_1">
  <g id="patch_1">
   <path d="M 0 345.6 
L 460.8 345.6 
L 460.8 0 
L 0 0 
z
" style="fill: #ffffff"/>
  </g>
  <g id="axes_1">
   <g id="patch_2">
    <path d="M 57.6 307.584 
L 414.72 307.584 
L 414.72 41.472 
L 57.6 41.472 
z
" style="fill: #ffffff"/>
   </g>
   <g id="matplotlib.axis_1">
    <g id="xtick_1">
     <g id="line2d_1">
      <defs>
       <path id="m021f937f3c" d="M 0 0 
L 0 3.5 
" style="stroke: #000000; stroke-width: 0.8"/>
      </defs>
      <g>
       <use xlink:href="#m021f937f3c" x="93.312" y="307.584" style="stroke: #000000; stroke-width: 0.8"/>
      </g>
     </g>
     <g id="text_1">
      <!-- −20 -->
      <g transform="translate(82.759656 322.182437) scale(0.1 -0.1)">
       <defs>
        <path id="DejaVuSans-2212" d="M 678 2272 
L 4684 2272 
L 4684 1741 
L 678 1741 
L 678 2272 
z
" transform="scale(0.015625)"/>
        <path id="DejaVuSans-32" d="M 1228 531 
L 3431 531 
L 3431 0 
L 469 0 
L 469 531 
Q 828 903 1448 1529 
Q 2069 2156 2228 2338 
Q 2531 2678 2651 2914 
Q 2772 3150 2772 3378 
Q 2772 3750 2511 3984 
Q 2250 4219 1831 4219 
Q 1534 4219 1204 4116 
Q 875 4013 500 3803 
L 500 4441 
Q 881 4594 1212 4672 
Q 1544 4750 1819 4750 
Q 2544 4750 2975 4387 
Q 3406 4025 3406 3419 
Q 3406 3131 3298 2873 
Q 3191 2616 2906 2266 
Q 2828 2175 2409 1742 
Q 1991 1309 1228 531 
z
" transform="scale(0.015625)"/>
        <path id="DejaVuSans-30" d="M 2034 4250 
Q 1547 4250 1301 3770 
Q 1056 3291 1056 2328 
Q 1056 1369 1301 889 
Q 1547 409 2034 409 
Q 2525 409 2770 889 
Q 3016 1369 3016 2328 
Q 3016 3291 2770 3770 
Q 2525 4250 2034 4250 
z
M 2034 4750 
Q 2819 4750 3233 4129 
Q 3647 3509 3647 2328 
Q 3647 1150 3233 529 
Q 2819 -91 2034 -91 
Q 1250 -91 836 529 
Q 422 1150 422 2328 
Q 422 3509 836 4129 
Q 1250 4750 2034 4750 
z
" transform="scale(0.015625)"/>
       </defs>
       <use xlink:href="#DejaVuSans-2212"/>
       <use xlink:href="#DejaVuSans-32" x="83.789062"/>
       <use xlink:href="#DejaVuSans-30" x="147.412109"/>
      </g>
     </g>
    </g>
    <g id="xtick_2">
     <g id="line2d_2">
      <g>
       <use xlink:href="#m021f937f3c" x="164.736" y="307.584" style="stroke: #000000; stroke-width: 0.8"/>
      </g>
     </g>
     <g id="text_2">
      <!-- −10 -->
      <g transform="translate(154.183656 322.182437) scale(0.1 -0.1)">
       <defs>
        <path id="DejaVuSans-31" d="M 794 531 
L 1825 531 
L 1825 4091 
L 703 3866 
L 703 4441 
L 1819 4666 
L 2450 4666 
L 2450 531 
L 3481 531 
L 3481 0 
L 794 0 
L 794 531 
z
" transform="scale(0.015625)"/>
       </defs>
       <use xlink:href="#DejaVuSans-2212"/>
       <use xlink:href="#DejaVuSans-31" x="83.789062"/>
       <use xlink:href="#DejaVuSans-30" x="147.412109"/>
      </g>
     </g>
    </g>
    <g id="xtick_3">
     <g id="line2d_3">
      <g>
       <use xlink:href="#m021f937f3c" x="236.16" y="307.584" style="stroke: #000000; stroke-width: 0.8"/>
      </g>
     </g>
     <g id="text_3">
      <!-- 0 -->
      <g transform="translate(232.97875 322.182437) scale(0.1 -0.1)">
       <use xlink:href="#DejaVuSans-30"/>
      </g>
     </g>
    </g>
    <g id="xtick_4">
     <g id="line2d_4">
      <g>
       <use xlink:href="#m021f937f3c" x="307.584" y="307.584" style="stroke: #000000; stroke-width: 0.8"/>
      </g>
     </g>
     <g id="text_4">
      <!-- 10 -->
      <g transform="translate(301.2215 322.182437) scale(0.1 -0.1)">
       <use xlink:href="#DejaVuSans-31"/>
       <use xlink:href="#DejaVuSans-30" x="63.623047"/>
      </g>
     </g>
    </g>
    <g id="xtick_5">
     <g id="line2d_5">
      <g>
       <use xlink:href="#m021f937f3c" x="379.008" y="307.584" style="stroke: #000000; stroke-width: 0.8"/>
      </g>
     </g>
     <g id="text_5">
      <!-- 20 -->
      <g transform="translate(372.6455 322.182437) scale(0.1 -0.1)">
       <use xlink:href="#DejaVuSans-32"/>
       <use xlink:href="#DejaVuSans-30" x="63.623047"/>
      </g>
     </g>
    </g>
   </g>
   <g id="matplotlib.axis_2">
    <g id="ytick_1">
     <g id="line2d_6">
      <defs>
       <path id="m97a6175189" d="M 0 0 
L -3.5 0 
" style="stroke: #000000; stroke-width: 0.8"/>
      </defs>
      <g>
       <use xlink:href="#m97a6175189" x="57.6" y="307.584" style="stroke: #000000; stroke-width: 0.8"/>
      </g>
     </g>
     <g id="text_6">
      <!-- −3.0 -->
      <g transform="translate(26.317187 311.383219) scale(0.1 -0.1)">
       <defs>
        <path id="DejaVuSans-33" d="M 2597 2516 
Q 3050 2419 3304 2112 
Q 3559 1806 3559 1356 
Q 3559 666 3084 287 
Q 2609 -91 1734 -91 
Q 1441 -91 1130 -33 
Q 819 25 488 141 
L 488 750 
Q 750 597 1062 519 
Q 1375 441 1716 441 
Q 2309 441 2620 675 
Q 2931 909 2931 1356 
Q 2931 1769 2642 2001 
Q 2353 2234 1838 2234 
L 1294 2234 
L 1294 2753 
L 1863 2753 
Q 2328 2753 2575 2939 
Q 2822 3125 2822 3475 
Q 2822 3834 2567 4026 
Q 2313 4219 1838 4219 
Q 1578 4219 1281 4162 
Q 984 4106 628 3988 
L 628 4550 
Q 988 4650 1302 4700 
Q 1616 4750 1894 4750 
Q 2613 4750 3031 4423 
Q 3450 4097 3450 3541 
Q 3450 3153 3228 2886 
Q 3006 2619 2597 2516 
z
" transform="scale(0.015625)"/>
        <path id="DejaVuSans-2e" d="M 684 794 
L 1344 794 
L 1344 0 
L 684 0 
L 684 794 
z
" transform="scale(0.015625)"/>
       </defs>
       <use xlink:href="#DejaVuSans-2212"/>
       <use xlink:href="#DejaVuSans-33" x="83.789062"/>
       <use xlink:href="#DejaVuSans-2e" x="147.412109"/>
       <use xlink:href="#DejaVuSans-30" x="179.199219"/>
      </g>
     </g>
    </g>
    <g id="ytick_2">
     <g id="line2d_7">
      <g>
       <use xlink:href="#m97a6175189" x="57.6" y="268.449882" style="stroke: #000000; stroke-width: 0.8"/>
      </g>
     </g>
     <g id="text_7">
      <!-- −2.5 -->
      <g transform="translate(26.317187 272.249101) scale(0.1 -0.1)">
       <defs>
        <path id="DejaVuSans-35" d="M 691 4666 
L 3169 4666 
L 3169 4134 
L 1269 4134 
L 1269 2991 
Q 1406 3038 1543 3061 
Q 1681 3084 1819 3084 
Q 2600 3084 3056 2656 
Q 3513 2228 3513 1497 
Q 3513 744 3044 326 
Q 2575 -91 1722 -91 
Q 1428 -91 1123 -41 
Q 819 9 494 109 
L 494 744 
Q 775 591 1075 516 
Q 1375 441 1709 441 
Q 2250 441 2565 725 
Q 2881 1009 2881 1497 
Q 2881 1984 2565 2268 
Q 2250 2553 1709 2553 
Q 1456 2553 1204 2497 
Q 953 2441 691 2322 
L 691 4666 
z
" transform="scale(0.015625)"/>
       </defs>
       <use xlink:href="#DejaVuSans-2212"/>
       <use xlink:href="#DejaVuSans-32" x="83.789062"/>
       <use xlink:href="#DejaVuSans-2e" x="147.412109"/>
       <use xlink:href="#DejaVuSans-35" x="179.199219"/>
      </g>
     </g>
    </g>
    <g id="ytick_3">
     <g id="line2d_8">
      <g>
       <use xlink:href="#m97a6175189" x="57.6" y="229.315765" style="stroke: #000000; stroke-width: 0.8"/>
      </g>
     </g>
     <g id="text_8">
      <!-- −2.0 -->
      <g transform="translate(26.317187 233.114983) scale(0.1 -0.1)">
       <use xlink:href="#DejaVuSans-2212"/>
       <use xlink:href="#DejaVuSans-32" x="83.789062"/>
       <use xlink:href="#DejaVuSans-2e" x="147.412109"/>
       <use xlink:href="#DejaVuSans-30" x="179.199219"/>
      </g>
     </g>
    </g>
    <g id="ytick_4">
     <g id="line2d_9">
      <g>
       <use xlink:href="#m97a6175189" x="57.6" y="190.181647" style="stroke: #000000; stroke-width: 0.8"/>
      </g>
     </g>
     <g id="text_9">
      <!-- −1.5 -->
      <g transform="translate(26.317187 193.980866) scale(0.1 -0.1)">
       <use xlink:href="#DejaVuSans-2212"/>
       <use xlink:href="#DejaVuSans-31" x="83.789062"/>
       <use xlink:href="#DejaVuSans-2e" x="147.412109"/>
       <use xlink:href="#DejaVuSans-35" x="179.199219"/>
      </g>
     </g>
    </g>
    <g id="ytick_5">
     <g id="line2d_10">
      <g>
       <use xlink:href="#m97a6175189" x="57.6" y="151.047529" style="stroke: #000000; stroke-width: 0.8"/>
      </g>
     </g>
     <g id="text_10">
      <!-- −1.0 -->
      <g transform="translate(26.317187 154.846748) scale(0.1 -0.1)">
       <use xlink:href="#DejaVuSans-2212"/>
       <use xlink:href="#DejaVuSans-31" x="83.789062"/>
       <use xlink:href="#DejaVuSans-2e" x="147.412109"/>
       <use xlink:href="#DejaVuSans-30" x="179.199219"/>
      </g>
     </g>
    </g>
    <g id="ytick_6">
     <g id="line2d_11">
      <g>
       <use xlink:href="#m97a6175189" x="57.6" y="111.913412" style="stroke: #000000; stroke-width: 0.8"/>
      </g>
     </g>
     <g id="text_11">
      <!-- −0.5 -->
      <g transform="translate(26.317187 115.712631) scale(0.1 -0.1)">
       <use xlink:href="#DejaVuSans-2212"/>
       <use xlink:href="#DejaVuSans-30" x="83.789062"/>
       <use xlink:href="#DejaVuSans-2e" x="147.412109"/>
       <use xlink:href="#DejaVuSans-35" x="179.199219"/>
      </g>
     </g>
    </g>
    <g id="ytick_7">
     <g id="line2d_12">
      <g>
       <use xlink:href="#m97a6175189" x="57.6" y="72.779294" style="stroke: #000000; stroke-width: 0.8"/>
      </g>
     </g>
     <g id="text_12">
      <!-- 0.0 -->
      <g transform="translate(34.696875 76.578513) scale(0.1 -0.1)">
       <use xlink:href="#DejaVuSans-30"/>
       <use xlink:href="#DejaVuSans-2e" x="63.623047"/>
       <use xlink:href="#DejaVuSans-30" x="95.410156"/>
      </g>
     </g>
    </g>
   </g>
   <g id="line2d_13">
    <path d="M 89.045476 162.70726 
L 93.224068 186.749116 
L 96.880336 206.602395 
L 100.275441 223.865349 
L 103.148223 237.430153 
L 105.759843 248.792509 
L 108.110301 258.113715 
L 110.199597 265.590204 
L 112.288893 272.225818 
L 114.117027 277.284389 
L 115.683999 281.029244 
L 117.250971 284.203106 
L 118.556781 286.39808 
L 119.862591 288.175735 
L 121.168401 289.531762 
L 122.213049 290.312399 
L 123.257697 290.823989 
L 124.302344 291.069388 
L 125.346992 291.05294 
L 126.39164 290.780416 
L 127.436288 290.258914 
L 128.480936 289.496739 
L 129.786746 288.219938 
L 131.092556 286.602038 
L 132.659528 284.241303 
L 134.2265 281.461159 
L 136.054634 277.742764 
L 138.14393 272.947459 
L 140.494388 266.970694 
L 143.36717 259.006613 
L 147.023438 248.125601 
L 152.246677 231.772041 
L 164.260129 193.937986 
L 169.483369 178.350631 
L 173.923123 165.761395 
L 178.101714 154.541495 
L 182.019144 144.61734 
L 185.936574 135.295102 
L 189.592842 127.153806 
L 193.24911 119.563781 
L 196.644216 113.016294 
L 200.039322 106.955163 
L 203.173265 101.794534 
L 206.307209 97.052331 
L 209.441153 92.729334 
L 212.313935 89.135008 
L 215.186717 85.892815 
L 218.059499 83.002121 
L 220.671119 80.678413 
L 223.282739 78.643393 
L 225.894359 76.895818 
L 228.505978 75.434186 
L 230.856436 74.361734 
L 233.206894 73.517953 
L 235.557352 72.901124 
L 237.90781 72.509289 
L 240.258268 72.340234 
L 242.608726 72.391449 
L 244.959184 72.6601 
L 247.309642 73.142988 
L 249.6601 73.836501 
L 252.27172 74.849122 
L 254.883339 76.110356 
L 257.494959 77.61291 
L 260.367741 79.53442 
L 263.240523 81.724899 
L 266.374467 84.403583 
L 269.769573 87.619904 
L 273.425841 91.410331 
L 277.604433 96.090963 
L 282.56651 102.002942 
L 295.62461 117.765595 
L 299.019716 121.411293 
L 301.892498 124.165989 
L 304.242956 126.12903 
L 306.332251 127.609905 
L 308.421547 128.804049 
L 310.249681 129.584743 
L 311.816653 130.038254 
L 313.383625 130.276943 
L 314.950597 130.286515 
L 316.517569 130.05349 
L 318.084541 129.565411 
L 319.651513 128.811032 
L 321.218485 127.780495 
L 322.785457 126.465477 
L 324.352429 124.859302 
L 325.919401 122.957019 
L 327.747535 120.359275 
L 329.575669 117.35214 
L 331.403803 113.936645 
L 333.493098 109.538339 
L 335.582394 104.62182 
L 337.932852 98.488419 
L 340.28331 91.740259 
L 342.89493 83.554138 
L 345.767712 73.758446 
L 348.640494 63.185936 
L 349.946304 58.137576 
L 349.946304 58.137576 
" clip-path="url(#pb229ddced9)" style="fill: none; stroke: #000000; stroke-width: 1.5; stroke-linecap: square"/>
   </g>
   <g id="line2d_14">
    <path d="M 89.045476 162.70726 
L 93.224068 186.749116 
L 96.880336 206.602395 
L 100.275441 223.865349 
L 103.148223 237.430153 
L 105.759843 248.792509 
L 108.110301 258.113715 
L 110.199597 265.590204 
L 112.288893 272.225818 
L 114.117027 277.284389 
L 115.683999 281.029244 
L 117.250971 284.203106 
L 118.556781 286.39808 
L 119.862591 288.175735 
L 121.168401 289.531762 
L 122.213049 290.312399 
L 123.257697 290.823989 
L 124.302344 291.069388 
L 125.346992 291.05294 
L 126.39164 290.780416 
L 127.436288 290.258914 
L 128.480936 289.496739 
L 129.786746 288.219938 
L 131.092556 286.602038 
L 132.659528 284.241303 
L 134.2265 281.461159 
L 136.054634 277.742764 
L 138.14393 272.947459 
L 140.494388 266.970694 
L 143.36717 259.006613 
L 147.023438 248.125601 
L 152.246677 231.772041 
L 164.260129 193.937986 
L 169.483369 178.350631 
L 173.923123 165.761395 
L 178.101714 154.541495 
L 182.019144 144.61734 
L 185.936574 135.295102 
L 189.592842 127.153806 
L 193.24911 119.563781 
L 196.644216 113.016294 
L 200.039322 106.955163 
L 203.173265 101.794534 
L 206.307209 97.052331 
L 209.441153 92.729334 
L 212.313935 89.135008 
L 215.186717 85.892815 
L 218.059499 83.002121 
L 220.671119 80.678413 
L 223.282739 78.643393 
L 225.894359 76.895818 
L 228.505978 75.434186 
L 230.856436 74.361734 
L 233.206894 73.517953 
L 235.557352 72.901124 
L 237.90781 72.509289 
L 240.258268 72.340234 
L 242.608726 72.391449 
L 244.959184 72.6601 
L 247.309642 73.142988 
L 249.6601 73.836501 
L 252.27172 74.849122 
L 254.883339 76.110356 
L 257.494959 77.61291 
L 260.367741 79.53442 
L 263.240523 81.724899 
L 266.374467 84.403583 
L 269.769573 87.619904 
L 273.425841 91.410331 
L 277.604433 96.090963 
L 282.56651 102.002942 
L 295.62461 117.765595 
L 299.019716 121.411293 
L 301.892498 124.165989 
L 304.242956 126.12903 
L 306.332251 127.609905 
L 308.421547 128.804049 
L 310.249681 129.584743 
L 311.816653 130.038254 
L 313.383625 130.276943 
L 314.950597 130.286515 
L 316.517569 130.05349 
L 318.084541 129.565411 
L 319.651513 128.811032 
L 321.218485 127.780495 
L 322.785457 126.465477 
L 324.352429 124.859302 
L 325.919401 122.957019 
L 327.747535 120.359275 
L 329.575669 117.35214 
L 331.403803 113.936645 
L 333.493098 109.538339 
L 335.582394 104.62182 
L 337.932852 98.488419 
L 340.28331 91.740259 
L 342.89493 83.554138 
L 345.767712 73.758446 
L 348.640494 63.185936 
L 349.946304 58.137576 
L 349.946304 58.137576 
" clip-path="url(#pb229ddced9)" style="fill: none; stroke: #1f77b4; stroke-width: 1.5; stroke-linecap: square"/>
   </g>
   <g id="patch_3">
    <path d="M 57.6 307.584 
L 57.6 41.472 
" style="fill: none; stroke: #000000; stroke-width: 0.8; stroke-linejoin: miter; stroke-linecap: square"/>
   </g>
   <g id="patch_4">
    <path d="M 414.72 307.584 
L 414.72 41.472 
" style="fill: none; stroke: #000000; stroke-width: 0.8; stroke-linejoin: miter; stroke-linecap: square"/>
   </g>
   <g id="patch_5">
    <path d="M 57.6 307.584 
L 414.72 307.584 
" style="fill: none; stroke: #000000; stroke-width: 0.8; stroke-linejoin: miter; stroke-linecap: square"/>
   </g>
   <g id="patch_6">
    <path d="M 57.6 41.472 
L 414.72 41.472 
" style="fill: none; stroke: #000000; stroke-width: 0.8; stroke-linejoin: miter; stroke-linecap: square"/>
   </g>
   <g id="text_13">
    <!-- PMF -->
    <g transform="translate(223.914375 35.472) scale(0.12 -0.12)">
     <defs>
      <path id="DejaVuSans-50" d="M 1259 4147 
L 1259 2394 
L 2053 2394 
Q 2494 2394 2734 2622 
Q 2975 2850 2975 3272 
Q 2975 3691 2734 3919 
Q 2494 4147 2053 4147 
L 1259 4147 
z
M 628 4666 
L 2053 4666 
Q 2838 4666 3239 4311 
Q 3641 3956 3641 3272 
Q 3641 2581 3239 2228 
Q 2838 1875 2053 1875 
L 1259 1875 
L 1259 0 
L 628 0 
L 628 4666 
z
" transform="scale(0.015625)"/>
      <path id="DejaVuSans-4d" d="M 628 4666 
L 1569 4666 
L 2759 1491 
L 3956 4666 
L 4897 4666 
L 4897 0 
L 4281 0 
L 4281 4097 
L 3078 897 
L 2444 897 
L 1241 4097 
L 1241 0 
L 628 0 
L 628 4666 
z
" transform="scale(0.015625)"/>
      <path id="DejaVuSans-46" d="M 628 4666 
L 3309 4666 
L 3309 4134 
L 1259 4134 
L 1259 2759 
L 3109 2759 
L 3109 2228 
L 1259 2228 
L 1259 0 
L 628 0 
L 628 4666 
z
" transform="scale(0.015625)"/>
     </defs>
     <use xlink:href="#DejaVuSans-50"/>
     <use xlink:href="#DejaVuSans-4d" x="60.302734"/>
     <use xlink:href="#DejaVuSans-46" x="146.582031"/>
    </g>
   </g>
  </g>
 </g>
 <defs>
  <clipPath id="pb229ddced9">
   <rect x="57.6" y="41.472" width="357.12" height="266.112"/>
  </clipPath>
 </defs>
</svg>
