<?xml version="1.0" encoding="ISO-8859-1"?>
<!DOCTYPE svg PUBLIC "-//W3C//DTD SVG 1.0//EN" "http://www.w3.org/TR/2001/REC-SVG-20010904/DTD/svg10.dtd">
<!-- generated by Grace-5.1.25 -->
<svg xml:space="preserve" width="11.0000in" height="8.5000in" viewBox="0.0000 0.0000 792.0000 612.0000">
 <g transform="translate(0,612.0000) scale(1,-1)">
 <desc></desc>
  <g style="fill:#FFFFFF; fill-rule:nonzero">
   <path  d="M0.0000,0.0000L0.0000,612.0000L792.0000,612.0000L792.0000,0.0000z"/>
  </g>
  <g style="fill:none; stroke:#FF0000; stroke-width:  0.9180; stroke-linecap:butt; stroke-linejoin:miter; stroke-dasharray:none">
   <path d="M91.8000,91.8000L91.8000,91.8000L92.4120,91.8000L92.4120,91.8000L93.0240,91.8000L93.0240,91.8000L93.6360,91.8000L93.6360,91.8000L94.2480,91.8000L94.2480,91.8000
            L94.8600,91.8000L94.8600,91.8000L95.4720,91.8000L95.4720,91.8000L96.0840,91.8000L96.0840,91.8000L96.6960,91.8000L96.6960,91.8000L97.3080,91.8000L97.3080,91.8000
            L97.9200,91.8000L97.9200,91.8000L98.5320,91.8000L98.5320,91.8000L99.1440,91.8000L99.1440,91.8000L99.7560,91.8000L99.7560,91.8000L100.3680,91.8000L100.3680,91.8000
            L100.9800,91.8000L100.9800,91.8000L101.5920,91.8000L101.5920,91.8000L102.2040,91.8000L102.2040,91.8000L102.8160,91.8000L102.8160,91.8000L103.4280,91.8000L103.4280,91.8000
            L104.0400,91.8000L104.0400,91.8000L104.6520,91.8000L104.6520,91.8000L105.2640,91.8000L105.2640,91.8000L105.8760,91.8000L105.8760,91.8000L106.4880,91.8000L106.4880,91.8000
            L107.1000,91.8000L107.1000,91.8000L107.7120,91.8000L107.7120,91.8000L108.3240,91.8000L108.3240,91.8000L108.9360,91.8000L108.9360,91.8000L109.5480,91.8000L109.5480,91.8000
            L110.1600,91.8000L110.1600,91.8000L110.7720,91.8000L110.7720,91.8000L111.3840,91.8000L111.3840,91.8000L111.9960,91.8000L111.9960,91.8000L112.6080,91.8000L112.6080,91.8000
            L113.2200,91.8000L113.2200,91.8000L113.8320,91.8000L113.8320,91.8000L114.4440,91.8000L114.4440,91.8000L115.0560,91.8000L115.0560,91.8000L115.6680,91.8000L115.6680,91.8000
            L116.2800,91.8000L116.2800,92.0530L116.8920,92.0530L116.8920,93.3181L117.5040,93.3181L117.5040,93.3181L118.1160,93.3181L118.1160,93.0651L118.7280,93.0651L118.7280,95.5953
            L119.3400,95.5953L119.3400,94.5832L119.9520,94.5832L119.9520,96.6073L120.5640,96.6073L120.5640,96.1013L121.1760,96.1013L121.1760,98.6315L121.7880,98.6315L121.7880,98.3785
            L122.4000,98.3785L122.4000,99.6436L123.0120,99.6436L123.0120,98.6315L123.6240,98.6315L123.6240,98.3785L124.2360,98.3785L124.2360,99.8966L124.8480,99.8966L124.8480,99.6436
            L125.4600,99.6436L125.4600,101.9207L126.0720,101.9207L126.0720,99.1375L126.6840,99.1375L126.6840,102.6798L127.2960,102.6798L127.2960,100.1496L127.9080,100.1496L127.9080,106.2220
            L128.5200,106.2220L128.5200,107.2341L129.1320,107.2341L129.1320,110.7764L129.7440,110.7764L129.7440,108.4992L130.3560,108.4992L130.3560,114.3186L130.9680,114.3186L130.9680,108.2462
            L131.5800,108.2462L131.5800,111.7884L132.1920,111.7884L132.1920,113.3065L132.8040,113.3065L132.8040,116.0897L133.4160,116.0897L133.4160,115.8367L134.0280,115.8367L134.0280,120.6441
            L134.6400,120.6441L134.6400,126.9695L135.2520,126.9695L135.2520,126.4635L135.8640,126.4635L135.8640,131.0178L136.4760,131.0178L136.4760,133.2950L137.0880,133.2950L137.0880,140.6325
            L137.7000,140.6325L137.7000,140.6325L138.3120,140.6325L138.3120,145.1868L138.9240,145.1868L138.9240,151.7653L139.5360,151.7653L139.5360,158.5968L140.1480,158.5968L140.1480,165.4282
            L140.7600,165.4282L140.7600,165.9343L141.3720,165.9343L141.3720,186.1757L141.9840,186.1757L141.9840,192.2482L142.5960,192.2482L142.5960,188.4529L143.2080,188.4529L143.2080,200.8508
            L143.8200,200.8508L143.8200,214.2607L144.4320,214.2607L144.4320,222.8633L145.0440,222.8633L145.0440,226.4056L145.6560,226.4056L145.6560,229.4418L146.2680,229.4418L146.2680,233.7431
            L146.8800,233.7431L146.8800,246.6470L147.4920,246.6470L147.4920,250.9483L148.1040,250.9483L148.1040,262.3341L148.7160,262.3341L148.7160,248.4182L149.3280,248.4182L149.3280,263.0932
            L149.9400,263.0932L149.9400,269.9247L150.5520,269.9247L150.5520,285.6118L151.1640,285.6118L151.1640,274.7320L151.7760,274.7320L151.7760,286.3709L152.3880,286.3709L152.3880,272.2019
            L153.0000,272.2019L153.0000,273.7200L153.6120,273.7200L153.6120,276.7562L154.2240,276.7562L154.2240,284.3467L154.8360,284.3467L154.8360,309.3955L155.4480,309.3955L155.4480,309.1425
            L156.0600,309.1425L156.0600,316.9860L156.6720,316.9860L156.6720,331.1551L157.2840,331.1551L157.2840,359.7461L157.8960,359.7461L157.8960,367.5896L158.5080,367.5896L158.5080,385.0479
            L159.1200,385.0479L159.1200,397.1928L159.7320,397.1928L159.7320,404.2773L160.3440,404.2773L160.3440,404.7833L160.9560,404.7833L160.9560,424.0127L161.5680,424.0127L161.5680,418.4463
            L162.1800,418.4463L162.1800,417.4342L162.7920,417.4342L162.7920,400.9880L163.4040,400.9880L163.4040,404.7833L164.0160,404.7833L164.0160,392.1324L164.6280,392.1324L164.6280,379.2285
            L165.2400,379.2285L165.2400,361.5172L165.8520,361.5172L165.8520,366.8306L166.4640,366.8306L166.4640,343.2999L167.0760,343.2999L167.0760,349.6254L167.6880,349.6254L167.6880,344.0590
            L168.3000,344.0590L168.3000,328.8779L168.9120,328.8779L168.9120,331.9141L169.5240,331.9141L169.5240,314.2028L170.1360,314.2028L170.1360,345.3241L170.7480,345.3241L170.7480,325.5887
            L171.3600,325.5887L171.3600,347.3482L171.9720,347.3482L171.9720,361.5172L172.5840,361.5172L172.5840,368.3487L173.1960,368.3487L173.1960,354.1797L173.8080,354.1797L173.8080,348.1073
            L174.4200,348.1073L174.4200,345.3241L175.0320,345.3241L175.0320,348.1073L175.6440,348.1073L175.6440,371.8910L176.2560,371.8910L176.2560,359.2401L176.8680,359.2401L176.8680,388.5901
            L177.4800,388.5901L177.4800,370.8789L178.0920,370.8789L178.0920,379.9875L178.7040,379.9875L178.7040,383.2768L179.3160,383.2768L179.3160,385.8069L179.9280,385.8069L179.9280,376.6983
            L180.5400,376.6983L180.5400,393.9035L181.1520,393.9035L181.1520,398.7109L181.7640,398.7109L181.7640,385.8069L182.3760,385.8069L182.3760,382.7707L182.9880,382.7707L182.9880,409.3376
            L183.6000,409.3376L183.6000,407.0605L184.2120,407.0605L184.2120,413.3859L184.8240,413.3859L184.8240,401.4941L185.4360,401.4941L185.4360,423.0006L186.0480,423.0006L186.0480,399.9760
            L186.6600,399.9760L186.6600,414.3980L187.2720,414.3980L187.2720,376.9513L187.8840,376.9513L187.8840,380.9996L188.4960,380.9996L188.4960,367.0836L189.1080,367.0836L189.1080,374.6742
            L189.7200,374.6742L189.7200,378.9755L190.3320,378.9755L190.3320,365.3125L190.9440,365.3125L190.9440,374.4211L191.5560,374.4211L191.5560,382.0117L192.1680,382.0117L192.1680,394.4096
            L192.7800,394.4096L192.7800,395.9277L193.3920,395.9277L193.3920,399.4699L194.0040,399.4699L194.0040,396.9397L194.6160,396.9397L194.6160,414.6510L195.2280,414.6510L195.2280,413.8919
            L195.8400,413.8919L195.8400,435.1455L196.4520,435.1455L196.4520,425.2778L197.0640,425.2778L197.0640,435.1455L197.6760,435.1455L197.6760,422.4946L198.2880,422.4946L198.2880,442.7360
            L198.9000,442.7360L198.9000,422.7476L199.5120,422.7476L199.5120,433.8804L200.1240,433.8804L200.1240,432.6153L200.7360,432.6153L200.7360,427.8079L201.3480,427.8079L201.3480,406.5544
            L201.9600,406.5544L201.9600,414.1450L202.5720,414.1450L202.5720,428.8200L203.1840,428.8200L203.1840,413.6389L203.7960,413.6389L203.7960,413.6389L204.4080,413.6389L204.4080,415.1570
            L205.0200,415.1570L205.0200,412.8799L205.6320,412.8799L205.6320,410.6027L206.2440,410.6027L206.2440,394.9156L206.8560,394.9156L206.8560,408.8316L207.4680,408.8316L207.4680,404.2773
            L208.0800,404.2773L208.0800,412.3738L208.6920,412.3738L208.6920,423.0006L209.3040,423.0006L209.3040,430.3381L209.9160,430.3381L209.9160,429.5791L210.5280,429.5791L210.5280,431.0972
            L211.1400,431.0972L211.1400,419.4583L211.7520,419.4583L211.7520,432.3623L212.3640,432.3623L212.3640,415.6631L212.9760,415.6631L212.9760,429.3260L213.5880,429.3260L213.5880,418.9523
            L214.2000,418.9523L214.2000,436.9166L214.8120,436.9166L214.8120,436.9166L215.4240,436.9166L215.4240,437.4226L216.0360,437.4226L216.0360,434.6394L216.6480,434.6394L216.6480,438.6877
            L217.2600,438.6877L217.2600,445.0132L217.8720,445.0132L217.8720,441.4709L218.4840,441.4709L218.4840,449.3145L219.0960,449.3145L219.0960,433.1213L219.7080,433.1213L219.7080,434.1334
            L220.3200,434.1334L220.3200,423.2536L220.9320,423.2536L220.9320,441.7239L221.5440,441.7239L221.5440,439.4468L222.1560,439.4468L222.1560,439.4468L222.7680,439.4468L222.7680,445.5192
            L223.3800,445.5192L223.3800,440.4588L223.9920,440.4588L223.9920,449.5675L224.6040,449.5675L224.6040,445.7722L225.2160,445.7722L225.2160,447.2903L225.8280,447.2903L225.8280,446.7843
            L226.4400,446.7843L226.4400,443.7481L227.0520,443.7481L227.0520,436.6636L227.6640,436.6636L227.6640,438.6877L228.2760,438.6877L228.2760,439.6998L228.8880,439.6998L228.8880,436.6636
            L229.5000,436.6636L229.5000,448.3024L230.1120,448.3024L230.1120,438.4347L230.7240,438.4347L230.7240,440.7119L231.3360,440.7119L231.3360,452.6037L231.9480,452.6037L231.9480,454.3748
            L232.5600,454.3748L232.5600,446.0252L233.1720,446.0252L233.1720,440.9649L233.7840,440.9649L233.7840,461.4593L234.3960,461.4593L234.3960,440.9649L235.0080,440.9649L235.0080,438.1817
            L235.6200,438.1817L235.6200,434.1334L236.2320,434.1334L236.2320,444.2541L236.8440,444.2541L236.8440,425.5308L237.4560,425.5308L237.4560,438.1817L238.0680,438.1817L238.0680,417.4342
            L238.6800,417.4342L238.6800,423.0006L239.2920,423.0006L239.2920,420.4704L239.9040,420.4704L239.9040,410.8557L240.5160,410.8557L240.5160,410.0967L241.1280,410.0967L241.1280,398.4578
            L241.7400,398.4578L241.7400,409.0846L242.3520,409.0846L242.3520,407.5665L242.9640,407.5665L242.9640,412.6269L243.5760,412.6269L243.5760,423.0006L244.1880,423.0006L244.1880,408.8316
            L244.8000,408.8316L244.8000,410.0967L245.4120,410.0967L245.4120,405.7954L246.0240,405.7954L246.0240,436.6636L246.6360,436.6636L246.6360,416.1691L247.2480,416.1691L247.2480,414.9040
            L247.8600,414.9040L247.8600,417.9402L248.4720,417.9402L248.4720,413.6389L249.0840,413.6389L249.0840,415.4101L249.6960,415.4101L249.6960,409.5906L250.3080,409.5906L250.3080,416.4221
            L250.9200,416.4221L250.9200,416.9282L251.5320,416.9282L251.5320,415.1570L252.1440,415.1570L252.1440,420.9765L252.7560,420.9765L252.7560,395.4216L253.3680,395.4216L253.3680,410.0967
            L253.9800,410.0967L253.9800,396.9397L254.5920,396.9397L254.5920,392.1324L255.2040,392.1324L255.2040,400.2290L255.8160,400.2290L255.8160,395.4216L256.4280,395.4216L256.4280,383.0237
            L257.0400,383.0237L257.0400,395.4216L257.6520,395.4216L257.6520,385.3009L258.2640,385.3009L258.2640,368.8547L258.8760,368.8547L258.8760,361.7702L259.4880,361.7702L259.4880,378.4694
            L260.1000,378.4694L260.1000,382.7707L260.7120,382.7707L260.7120,369.1078L261.3240,369.1078L261.3240,357.7219L261.9360,357.7219L261.9360,358.7340L262.5480,358.7340L262.5480,358.4810
            L263.1600,358.4810L263.1600,370.8789L263.7720,370.8789L263.7720,360.5051L264.3840,360.5051L264.3840,359.9991L264.9960,359.9991L264.9960,350.1314L265.6080,350.1314L265.6080,356.2038
            L266.2200,356.2038L266.2200,363.2883L266.8320,363.2883L266.8320,356.7099L267.4440,356.7099L267.4440,355.1918L268.0560,355.1918L268.0560,348.1073L268.6680,348.1073L268.6680,345.8301
            L269.2800,345.8301L269.2800,356.7099L269.8920,356.7099L269.8920,335.9624L270.5040,335.9624L270.5040,360.7582L271.1160,360.7582L271.1160,332.9262L271.7280,332.9262L271.7280,353.1676
            L272.3400,353.1676L272.3400,342.2878L272.9520,342.2878L272.9520,334.4443L273.5640,334.4443L273.5640,352.4086L274.1760,352.4086L274.1760,341.2758L274.7880,341.2758L274.7880,341.0228
            L275.4000,341.0228L275.4000,330.6490L276.0120,330.6490L276.0120,348.8663L276.6240,348.8663L276.6240,327.3598L277.2360,327.3598L277.2360,333.1792L277.8480,333.1792L277.8480,328.1188
            L278.4600,328.1188L278.4600,344.5650L279.0720,344.5650L279.0720,324.8296L279.6840,324.8296L279.6840,322.5524L280.2960,322.5524L280.2960,320.2753L280.9080,320.2753L280.9080,329.6369
            L281.5200,329.6369L281.5200,314.2028L282.1320,314.2028L282.1320,319.5162L282.7440,319.5162L282.7440,328.1188L283.3560,328.1188L283.3560,331.4081L283.9680,331.4081L283.9680,315.9740
            L284.5800,315.9740L284.5800,322.8055L285.1920,322.8055L285.1920,326.3477L285.8040,326.3477L285.8040,317.2391L286.4160,317.2391L286.4160,326.3477L287.0280,326.3477L287.0280,319.2632
            L287.6400,319.2632L287.6400,314.4559L288.2520,314.4559L288.2520,315.9740L288.8640,315.9740L288.8640,311.6727L289.4760,311.6727L289.4760,315.9740L290.0880,315.9740L290.0880,317.9981
            L290.7000,317.9981L290.7000,314.9619L291.3120,314.9619L291.3120,316.7330L291.9240,316.7330L291.9240,312.9378L292.5360,312.9378L292.5360,313.4438L293.1480,313.4438L293.1480,304.0821
            L293.7600,304.0821L293.7600,312.6847L294.3720,312.6847L294.3720,294.2144L294.9840,294.2144L294.9840,317.2391L295.5960,317.2391L295.5960,305.8532L296.2080,305.8532L296.2080,294.7205
            L296.8200,294.7205L296.8200,306.6123L297.4320,306.6123L297.4320,294.4674L298.0440,294.4674L298.0440,303.3231L298.6560,303.3231L298.6560,293.4554L299.2680,293.4554L299.2680,291.4312
            L299.8800,291.4312L299.8800,298.2627L300.4920,298.2627L300.4920,280.5514L301.1040,280.5514L301.1040,286.3709L301.7160,286.3709L301.7160,284.8528L302.3280,284.8528L302.3280,288.6480
            L302.9400,288.6480L302.9400,289.4071L303.5520,289.4071L303.5520,275.7441L304.1640,275.7441L304.1640,275.9971L304.7760,275.9971L304.7760,273.9730L305.3880,273.9730L305.3880,268.4066
            L306.0000,268.4066L306.0000,277.0092L306.6120,277.0092L306.6120,286.6239L307.2240,286.6239L307.2240,283.5877L307.8360,283.5877L307.8360,284.8528L308.4480,284.8528L308.4480,271.6958
            L309.0600,271.6958L309.0600,276.2501L309.6720,276.2501L309.6720,252.2134L310.2840,252.2134L310.2840,282.5756L310.8960,282.5756L310.8960,258.2859L311.5080,258.2859L311.5080,259.5510
            L312.1200,259.5510L312.1200,269.4187L312.7320,269.4187L312.7320,277.2622L313.3440,277.2622L313.3440,266.1294L313.9560,266.1294L313.9560,279.2864L314.5680,279.2864L314.5680,266.1294
            L315.1800,266.1294L315.1800,260.8160L315.7920,260.8160L315.7920,260.8160L316.4040,260.8160L316.4040,267.9005L317.0160,267.9005L317.0160,267.3945L317.6280,267.3945L317.6280,256.0087
            L318.2400,256.0087L318.2400,262.3341L318.8520,262.3341L318.8520,266.3824L319.4640,266.3824L319.4640,253.2255L320.0760,253.2255L320.0760,249.9363L320.6880,249.9363L320.6880,264.1053
            L321.3000,264.1053L321.3000,252.7195L321.9120,252.7195L321.9120,254.7436L322.5240,254.7436L322.5240,252.7195L323.1360,252.7195L323.1360,252.4664L323.7480,252.4664L323.7480,246.3940
            L324.3600,246.3940L324.3600,246.9000L324.9720,246.9000L324.9720,247.1531L325.5840,247.1531L325.5840,247.9121L326.1960,247.9121L326.1960,238.5505L326.8080,238.5505L326.8080,253.4785
            L327.4200,253.4785L327.4200,242.5987L328.0320,242.5987L328.0320,239.3095L328.6440,239.3095L328.6440,243.3578L329.2560,243.3578L329.2560,241.8397L329.8680,241.8397L329.8680,237.0323
            L330.4800,237.0323L330.4800,236.7793L331.0920,236.7793L331.0920,237.5384L331.7040,237.5384L331.7040,235.5142L332.3160,235.5142L332.3160,229.4418L332.9280,229.4418L332.9280,234.5022
            L333.5400,234.5022L333.5400,232.9841L334.1520,232.9841L334.1520,246.6470L334.7640,246.6470L334.7640,226.4056L335.3760,226.4056L335.3760,236.0203L335.9880,236.0203L335.9880,223.6224
            L336.6000,223.6224L336.6000,239.0565L337.2120,239.0565L337.2120,231.4660L337.8240,231.4660L337.8240,222.3573L338.4360,222.3573L338.4360,224.8875L339.0480,224.8875L339.0480,224.8875
            L339.6600,224.8875L339.6600,235.7673L340.2720,235.7673L340.2720,222.1043L340.8840,222.1043L340.8840,227.9237L341.4960,227.9237L341.4960,229.6948L342.1080,229.6948L342.1080,224.6345
            L342.7200,224.6345L342.7200,221.8513L343.3320,221.8513L343.3320,227.1646L343.9440,227.1646L343.9440,221.5982L344.5560,221.5982L344.5560,231.9720L345.1680,231.9720L345.1680,230.2009
            L345.7800,230.2009L345.7800,224.6345L346.3920,224.6345L346.3920,233.7431L347.0040,233.7431L347.0040,234.2491L347.6160,234.2491L347.6160,227.6707L348.2280,227.6707L348.2280,223.8754
            L348.8400,223.8754L348.8400,229.4418L349.4520,229.4418L349.4520,220.0801L350.0640,220.0801L350.0640,220.3332L350.6760,220.3332L350.6760,226.6586L351.2880,226.6586L351.2880,220.0801
            L351.9000,220.0801L351.9000,231.7190L352.5120,231.7190L352.5120,218.0560L353.1240,218.0560L353.1240,210.9715L353.7360,210.9715L353.7360,216.0319L354.3480,216.0319L354.3480,218.0560
            L354.9600,218.0560L354.9600,213.7547L355.5720,213.7547L355.5720,214.7668L356.1840,214.7668L356.1840,208.6943L356.7960,208.6943L356.7960,206.1641L357.4080,206.1641L357.4080,190.4770
            L358.0200,190.4770L358.0200,214.5137L358.6320,214.5137L358.6320,219.3211L359.2440,219.3211L359.2440,211.9836L359.8560,211.9836L359.8560,223.8754L360.4680,223.8754L360.4680,223.1164
            L361.0800,223.1164L361.0800,218.3090L361.6920,218.3090L361.6920,227.1646L362.3040,227.1646L362.3040,224.1284L362.9160,224.1284L362.9160,213.2487L363.5280,213.2487L363.5280,213.7547
            L364.1400,213.7547L364.1400,222.6103L364.7520,222.6103L364.7520,222.3573L365.3640,222.3573L365.3640,220.3332L365.9760,220.3332L365.9760,219.3211L366.5880,219.3211L366.5880,213.5017
            L367.2000,213.5017L367.2000,211.9836L367.8120,211.9836L367.8120,226.6586L368.4240,226.6586L368.4240,218.5620L369.0360,218.5620L369.0360,215.7788L369.6480,215.7788L369.6480,209.2004
            L370.2600,209.2004L370.2600,205.1521L370.8720,205.1521L370.8720,197.3085L371.4840,197.3085L371.4840,193.7663L372.0960,193.7663L372.0960,196.8025L372.7080,196.8025L372.7080,194.2723
            L373.3200,194.2723L373.3200,196.8025L373.9320,196.8025L373.9320,192.7542L374.5440,192.7542L374.5440,188.4529L375.1560,188.4529L375.1560,192.7542L375.7680,192.7542L375.7680,188.7059
            L376.3800,188.7059L376.3800,191.4891L376.9920,191.4891L376.9920,186.4287L377.6040,186.4287L377.6040,192.2482L378.2160,192.2482L378.2160,191.9951L378.8280,191.9951L378.8280,185.6697
            L379.4400,185.6697L379.4400,181.1154L380.0520,181.1154L380.0520,188.1999L380.6640,188.1999L380.6640,190.4770L381.2760,190.4770L381.2760,188.7059L381.8880,188.7059L381.8880,188.1999
            L382.5000,188.1999L382.5000,186.4287L383.1120,186.4287L383.1120,178.0791L383.7240,178.0791L383.7240,178.3322L384.3360,178.3322L384.3360,195.2844L384.9480,195.2844L384.9480,180.1033
            L385.5600,180.1033L385.5600,173.5248L386.1720,173.5248L386.1720,182.1274L386.7840,182.1274L386.7840,178.3322L387.3960,178.3322L387.3960,182.1274L388.0080,182.1274L388.0080,189.4650
            L388.6200,189.4650L388.6200,179.8503L389.2320,179.8503L389.2320,179.0912L389.8440,179.0912L389.8440,178.5852L390.4560,178.5852L390.4560,176.5610L391.0680,176.5610L391.0680,178.3322
            L391.6800,178.3322L391.6800,179.5973L392.2920,179.5973L392.2920,173.7778L392.9040,173.7778L392.9040,177.0671L393.5160,177.0671L393.5160,168.9705L394.1280,168.9705L394.1280,174.7899
            L394.7400,174.7899L394.7400,174.2839L395.3520,174.2839L395.3520,166.4403L395.9640,166.4403L395.9640,173.0188L396.5760,173.0188L396.5760,173.7778L397.1880,173.7778L397.1880,187.6938
            L397.8000,187.6938L397.8000,173.7778L398.4120,173.7778L398.4120,179.0912L399.0240,179.0912L399.0240,178.3322L399.6360,178.3322L399.6360,181.6214L400.2480,181.6214L400.2480,188.1999
            L400.8600,188.1999L400.8600,183.1395L401.4720,183.1395L401.4720,179.3442L402.0840,179.3442L402.0840,185.9227L402.6960,185.9227L402.6960,180.3563L403.3080,180.3563L403.3080,180.6093
            L403.9200,180.6093L403.9200,180.3563L404.5320,180.3563L404.5320,165.9343L405.1440,165.9343L405.1440,175.2959L405.7560,175.2959L405.7560,178.0791L406.3680,178.0791L406.3680,168.9705
            L406.9800,168.9705L406.9800,183.6455L407.5920,183.6455L407.5920,177.0671L408.2040,177.0671L408.2040,169.2235L408.8160,169.2235L408.8160,183.3925L409.4280,183.3925L409.4280,171.5007
            L410.0400,171.5007L410.0400,177.0671L410.6520,177.0671L410.6520,176.8141L411.2640,176.8141L411.2640,179.3442L411.8760,179.3442L411.8760,178.3322L412.4880,178.3322L412.4880,185.4167
            L413.1000,185.4167L413.1000,176.3080L413.7120,176.3080L413.7120,180.1033L414.3240,180.1033L414.3240,169.2235L414.9360,169.2235L414.9360,180.3563L415.5480,180.3563L415.5480,172.2597
            L416.1600,172.2597L416.1600,174.7899L416.7720,174.7899L416.7720,175.5490L417.3840,175.5490L417.3840,175.5490L417.9960,175.5490L417.9960,174.7899L418.6080,174.7899L418.6080,171.7537
            L419.2200,171.7537L419.2200,184.4046L419.8320,184.4046L419.8320,157.8377L420.4440,157.8377L420.4440,163.4041L421.0560,163.4041L421.0560,171.2477L421.6680,171.2477L421.6680,161.1269
            L422.2800,161.1269L422.2800,168.9705L422.8920,168.9705L422.8920,167.7054L423.5040,167.7054L423.5040,165.4282L424.1160,165.4282L424.1160,166.1873L424.7280,166.1873L424.7280,154.2955
            L425.3400,154.2955L425.3400,156.8256L425.9520,156.8256L425.9520,154.2955L426.5640,154.2955L426.5640,157.3317L427.1760,157.3317L427.1760,152.7773L427.7880,152.7773L427.7880,150.5002
            L428.4000,150.5002L428.4000,150.7532L429.0120,150.7532L429.0120,152.7773L429.6240,152.7773L429.6240,153.2834L430.2360,153.2834L430.2360,148.4760L430.8480,148.4760L430.8480,150.2472
            L431.4600,150.2472L431.4600,154.0424L432.0720,154.0424L432.0720,152.7773L432.6840,152.7773L432.6840,151.7653L433.2960,151.7653L433.2960,156.0666L433.9080,156.0666L433.9080,153.7894
            L434.5200,153.7894L434.5200,158.3437L435.1320,158.3437L435.1320,153.0304L435.7440,153.0304L435.7440,150.2472L436.3560,150.2472L436.3560,153.5364L436.9680,153.5364L436.9680,159.8618
            L437.5800,159.8618L437.5800,150.7532L438.1920,150.7532L438.1920,145.6928L438.8040,145.6928L438.8040,155.0545L439.4160,155.0545L439.4160,161.3800L440.0280,161.3800L440.0280,152.5243
            L440.6400,152.5243L440.6400,152.0183L441.2520,152.0183L441.2520,154.5485L441.8640,154.5485L441.8640,151.0062L442.4760,151.0062L442.4760,156.5726L443.0880,156.5726L443.0880,151.2592
            L443.7000,151.2592L443.7000,154.0424L444.3120,154.0424L444.3120,150.5002L444.9240,150.5002L444.9240,149.7411L445.5360,149.7411L445.5360,145.9459L446.1480,145.9459L446.1480,146.7049
            L446.7600,146.7049L446.7600,137.3432L447.3720,137.3432L447.3720,139.1144L447.9840,139.1144L447.9840,145.6928L448.5960,145.6928L448.5960,145.4398L449.2080,145.4398L449.2080,138.3553
            L449.8200,138.3553L449.8200,137.5963L450.4320,137.5963L450.4320,142.4036L451.0440,142.4036L451.0440,141.1385L451.6560,141.1385L451.6560,138.3553L452.2680,138.3553L452.2680,138.6083
            L452.8800,138.6083L452.8800,142.9096L453.4920,142.9096L453.4920,144.6808L454.1040,144.6808L454.1040,145.1868L454.7160,145.1868L454.7160,146.4519L455.3280,146.4519L455.3280,147.7170
            L455.9400,147.7170L455.9400,142.6566L456.5520,142.6566L456.5520,144.1747L457.1640,144.1747L457.1640,142.6566L457.7760,142.6566L457.7760,141.6446L458.3880,141.6446L458.3880,145.9459
            L459.0000,145.9459L459.0000,155.8136L459.6120,155.8136L459.6120,145.1868L460.2240,145.1868L460.2240,144.6808L460.8360,144.6808L460.8360,149.7411L461.4480,149.7411L461.4480,148.7291
            L462.0600,148.7291L462.0600,138.6083L462.6720,138.6083L462.6720,142.4036L463.2840,142.4036L463.2840,138.8614L463.8960,138.8614L463.8960,144.1747L464.5080,144.1747L464.5080,138.6083
            L465.1200,138.6083L465.1200,140.3795L465.7320,140.3795L465.7320,139.6204L466.3440,139.6204L466.3440,139.3674L466.9560,139.3674L466.9560,140.3795L467.5680,140.3795L467.5680,141.8976
            L468.1800,141.8976L468.1800,138.3553L468.7920,138.3553L468.7920,139.6204L469.4040,139.6204L469.4040,136.0782L470.0160,136.0782L470.0160,139.1144L470.6280,139.1144L470.6280,141.1385
            L471.2400,141.1385L471.2400,149.4881L471.8520,149.4881L471.8520,141.8976L472.4640,141.8976L472.4640,134.3070L473.0760,134.3070L473.0760,138.1023L473.6880,138.1023L473.6880,136.8372
            L474.3000,136.8372L474.3000,144.9338L474.9120,144.9338L474.9120,132.2829L475.5240,132.2829L475.5240,130.0057L476.1360,130.0057L476.1360,130.0057L476.7480,130.0057L476.7480,138.8614
            L477.3600,138.8614L477.3600,133.8010L477.9720,133.8010L477.9720,135.0661L478.5840,135.0661L478.5840,134.5600L479.1960,134.5600L479.1960,136.5842L479.8080,136.5842L479.8080,135.8251
            L480.4200,135.8251L480.4200,133.5480L481.0320,133.5480L481.0320,137.8493L481.6440,137.8493L481.6440,137.0902L482.2560,137.0902L482.2560,134.8131L482.8680,134.8131L482.8680,128.7406
            L483.4800,128.7406L483.4800,132.2829L484.0920,132.2829L484.0920,140.1264L484.7040,140.1264L484.7040,130.5118L485.3160,130.5118L485.3160,140.3795L485.9280,140.3795L485.9280,129.2467
            L486.5400,129.2467L486.5400,136.5842L487.1520,136.5842L487.1520,132.7889L487.7640,132.7889L487.7640,132.7889L488.3760,132.7889L488.3760,131.0178L488.9880,131.0178L488.9880,135.5721
            L489.6000,135.5721L489.6000,132.2829L490.2120,132.2829L490.2120,130.7648L490.8240,130.7648L490.8240,127.4755L491.4360,127.4755L491.4360,133.0419L492.0480,133.0419L492.0480,133.5480
            L492.6600,133.5480L492.6600,130.2587L493.2720,130.2587L493.2720,128.9936L493.8840,128.9936L493.8840,133.0419L494.4960,133.0419L494.4960,128.4876L495.1080,128.4876L495.1080,130.0057
            L495.7200,130.0057L495.7200,125.4514L496.3320,125.4514L496.3320,127.7286L496.9440,127.7286L496.9440,126.9695L497.5560,126.9695L497.5560,123.1742L498.1680,123.1742L498.1680,126.4635
            L498.7800,126.4635L498.7800,132.7889L499.3920,132.7889L499.3920,128.7406L500.0040,128.7406L500.0040,133.0419L500.6160,133.0419L500.6160,127.7286L501.2280,127.7286L501.2280,132.2829
            L501.8400,132.2829L501.8400,128.9936L502.4520,128.9936L502.4520,127.2225L503.0640,127.2225L503.0640,130.5118L503.6760,130.5118L503.6760,134.5600L504.2880,134.5600L504.2880,130.7648
            L504.9000,130.7648L504.9000,127.9816L505.5120,127.9816L505.5120,123.9333L506.1240,123.9333L506.1240,127.9816L506.7360,127.9816L506.7360,124.1863L507.3480,124.1863L507.3480,130.0057
            L507.9600,130.0057L507.9600,124.6923L508.5720,124.6923L508.5720,130.5118L509.1840,130.5118L509.1840,126.7165L509.7960,126.7165L509.7960,123.9333L510.4080,123.9333L510.4080,124.9454
            L511.0200,124.9454L511.0200,131.5238L511.6320,131.5238L511.6320,127.2225L512.2440,127.2225L512.2440,123.4273L512.8560,123.4273L512.8560,126.2105L513.4680,126.2105L513.4680,118.8729
            L514.0800,118.8729L514.0800,127.4755L514.6920,127.4755L514.6920,124.6923L515.3040,124.6923L515.3040,126.2105L515.9160,126.2105L515.9160,124.9454L516.5280,124.9454L516.5280,122.9212
            L517.1400,122.9212L517.1400,121.6561L517.7520,121.6561L517.7520,124.9454L518.3640,124.9454L518.3640,119.6320L518.9760,119.6320L518.9760,120.3910L519.5880,120.3910L519.5880,123.1742
            L520.2000,123.1742L520.2000,119.8850L520.8120,119.8850L520.8120,121.9091L521.4240,121.9091L521.4240,122.9212L522.0360,122.9212L522.0360,116.3427L522.6480,116.3427L522.6480,119.1259
            L523.2600,119.1259L523.2600,121.9091L523.8720,121.9091L523.8720,118.8729L524.4840,118.8729L524.4840,113.0535L525.0960,113.0535L525.0960,111.5354L525.7080,111.5354L525.7080,116.3427
            L526.3200,116.3427L526.3200,114.5716L526.9320,114.5716L526.9320,111.5354L527.5440,111.5354L527.5440,111.5354L528.1560,111.5354L528.1560,110.5233L528.7680,110.5233L528.7680,113.3065
            L529.3800,113.3065L529.3800,105.2100L529.9920,105.2100L529.9920,110.2703L530.6040,110.2703L530.6040,109.0052L531.2160,109.0052L531.2160,105.4630L531.8280,105.4630L531.8280,109.0052
            L532.4400,109.0052L532.4400,108.2462L533.0520,108.2462L533.0520,108.4992L533.6640,108.4992L533.6640,106.2220L534.2760,106.2220L534.2760,105.4630L534.8880,105.4630L534.8880,106.9811
            L535.5000,106.9811L535.5000,108.2462L536.1120,108.2462L536.1120,107.2341L536.7240,107.2341L536.7240,107.7401L537.3360,107.7401L537.3360,107.7401L537.9480,107.7401L537.9480,106.7281
            L538.5600,106.7281L538.5600,106.7281L539.1720,106.7281L539.1720,104.4509L539.7840,104.4509L539.7840,104.1979L540.3960,104.1979L540.3960,105.7160L541.0080,105.7160L541.0080,101.4147
            L541.6200,101.4147L541.6200,104.4509L542.2320,104.4509L542.2320,103.6918L542.8440,103.6918L542.8440,105.7160L543.4560,105.7160L543.4560,102.1737L544.0680,102.1737L544.0680,99.8966
            L544.6800,99.8966L544.6800,103.9449L545.2920,103.9449L545.2920,103.4388L545.9040,103.4388L545.9040,101.6677L546.5160,101.6677L546.5160,102.9328L547.1280,102.9328L547.1280,102.1737
            L547.7400,102.1737L547.7400,100.9086L548.3520,100.9086L548.3520,100.1496L548.9640,100.1496L548.9640,98.6315L549.5760,98.6315L549.5760,97.3664L550.1880,97.3664L550.1880,100.1496
            L550.8000,100.1496L550.8000,96.1013L551.4120,96.1013L551.4120,97.3664L552.0240,97.3664L552.0240,98.6315L552.6360,98.6315L552.6360,96.1013L553.2480,96.1013L553.2480,97.1134
            L553.8600,97.1134L553.8600,96.3543L554.4720,96.3543L554.4720,98.1255L555.0840,98.1255L555.0840,96.3543L555.6960,96.3543L555.6960,99.3905L556.3080,99.3905L556.3080,97.8724
            L556.9200,97.8724L556.9200,97.8724L557.5320,97.8724L557.5320,98.6315L558.1440,98.6315L558.1440,97.1134L558.7560,97.1134L558.7560,97.1134L559.3680,97.1134L559.3680,100.1496
            L559.9800,100.1496L559.9800,100.4026L560.5920,100.4026L560.5920,100.1496L561.2040,100.1496L561.2040,97.6194L561.8160,97.6194L561.8160,98.6315L562.4280,98.6315L562.4280,99.3905
            L563.0400,99.3905L563.0400,97.6194L563.6520,97.6194L563.6520,97.6194L564.2640,97.6194L564.2640,96.6073L564.8760,96.6073L564.8760,97.6194L565.4880,97.6194L565.4880,97.3664
            L566.1000,97.3664L566.1000,97.1134L566.7120,97.1134L566.7120,97.3664L567.3240,97.3664L567.3240,96.3543L567.9360,96.3543L567.9360,95.3423L568.5480,95.3423L568.5480,93.8241
            L569.1600,93.8241L569.1600,95.5953L569.7720,95.5953L569.7720,94.0772L570.3840,94.0772L570.3840,96.1013L570.9960,96.1013L570.9960,94.5832L571.6080,94.5832L571.6080,95.3423
            L572.2200,95.3423L572.2200,95.3423L572.8320,95.3423L572.8320,94.8362L573.4440,94.8362L573.4440,94.3302L574.0560,94.3302L574.0560,95.3423L574.6680,95.3423L574.6680,94.5832
            L575.2800,94.5832L575.2800,95.0892L575.8920,95.0892L575.8920,94.8362L576.5040,94.8362L576.5040,95.3423L577.1160,95.3423L577.1160,93.8241L577.7280,93.8241L577.7280,94.3302
            L578.3400,94.3302L578.3400,94.3302L578.9520,94.3302L578.9520,93.5711L579.5640,93.5711L579.5640,94.0772L580.1760,94.0772L580.1760,93.0651L580.7880,93.0651L580.7880,93.3181
            L581.4000,93.3181L581.4000,95.5953L582.0120,95.5953L582.0120,95.5953L582.6240,95.5953L582.6240,95.3423L583.2360,95.3423L583.2360,93.8241L583.8480,93.8241L583.8480,94.8362
            L584.4600,94.8362L584.4600,93.0651L585.0720,93.0651L585.0720,93.8241L585.6840,93.8241L585.6840,94.3302L586.2960,94.3302L586.2960,92.3060L586.9080,92.3060L586.9080,93.3181
            L587.5200,93.3181L587.5200,93.3181L588.1320,93.3181L588.1320,93.3181L588.7440,93.3181L588.7440,93.3181L589.3560,93.3181L589.3560,93.0651L589.9680,93.0651L589.9680,94.3302
            L590.5800,94.3302L590.5800,94.3302L591.1920,94.3302L591.1920,92.5591L591.8040,92.5591L591.8040,91.8000L592.4160,91.8000L592.4160,94.5832L593.0280,94.5832L593.0280,92.8121
            L593.6400,92.8121L593.6400,92.8121L594.2520,92.8121L594.2520,92.0530L594.8640,92.0530L594.8640,92.3060L595.4760,92.3060L595.4760,92.5591L596.0880,92.5591L596.0880,92.3060
            L596.7000,92.3060L596.7000,91.8000L597.3120,91.8000L597.3120,91.8000L597.9240,91.8000L597.9240,91.8000L598.5360,91.8000L598.5360,91.8000L599.1480,91.8000L599.1480,91.8000
            L599.7600,91.8000L599.7600,91.8000L600.3720,91.8000L600.3720,91.8000L600.9840,91.8000L600.9840,91.8000L601.5960,91.8000L601.5960,91.8000L602.2080,91.8000L602.2080,91.8000
            L602.8200,91.8000L602.8200,91.8000L603.4320,91.8000L603.4320,91.8000L604.0440,91.8000L604.0440,91.8000L604.6560,91.8000L604.6560,91.8000L605.2680,91.8000L605.2680,91.8000
            L605.8800,91.8000L605.8800,91.8000L606.4920,91.8000L606.4920,91.8000L607.1040,91.8000L607.1040,91.8000L607.7160,91.8000L607.7160,91.8000L608.3280,91.8000L608.3280,91.8000
            L608.9400,91.8000L608.9400,91.8000L609.5520,91.8000L609.5520,91.8000L610.1640,91.8000L610.1640,91.8000L610.7760,91.8000L610.7760,91.8000L611.3880,91.8000L611.3880,91.8000
            L612.0000,91.8000L612.0000,91.8000L612.6120,91.8000L612.6120,91.8000L613.2240,91.8000L613.2240,91.8000L613.8360,91.8000L613.8360,91.8000L614.4480,91.8000L614.4480,91.8000
            L615.0600,91.8000L615.0600,91.8000L615.6720,91.8000L615.6720,91.8000L616.2840,91.8000L616.2840,91.8000L616.8960,91.8000L616.8960,91.8000L617.5080,91.8000L617.5080,91.8000
            L618.1200,91.8000L618.1200,91.8000L618.7320,91.8000L618.7320,91.8000L619.3440,91.8000L619.3440,91.8000L619.9560,91.8000L619.9560,91.8000L620.5680,91.8000L620.5680,91.8000
            L621.1800,91.8000L621.1800,91.8000L621.7920,91.8000L621.7920,91.8000L622.4040,91.8000L622.4040,91.8000L623.0160,91.8000L623.0160,91.8000L623.6280,91.8000L623.6280,91.8000
            L624.2400,91.8000L624.2400,91.8000L624.8520,91.8000L624.8520,91.8000L625.4640,91.8000L625.4640,91.8000L626.0760,91.8000L626.0760,91.8000L626.6880,91.8000L626.6880,91.8000
            L627.3000,91.8000L627.3000,91.8000L627.9120,91.8000L627.9120,91.8000L628.5240,91.8000L628.5240,91.8000L629.1360,91.8000L629.1360,91.8000L629.7480,91.8000L629.7480,91.8000
            L630.3600,91.8000L630.3600,91.8000L630.9720,91.8000L630.9720,91.8000L631.5840,91.8000L631.5840,91.8000L632.1960,91.8000L632.1960,91.8000L632.8080,91.8000L632.8080,91.8000
            L633.4200,91.8000L633.4200,91.8000L634.0320,91.8000L634.0320,91.8000L634.6440,91.8000L634.6440,91.8000L635.2560,91.8000L635.2560,91.8000L635.8680,91.8000L635.8680,91.8000
            L636.4800,91.8000L636.4800,91.8000L637.0920,91.8000L637.0920,91.8000L637.7040,91.8000L637.7040,91.8000L638.3160,91.8000L638.3160,91.8000L638.9280,91.8000L638.9280,91.8000
            L639.5400,91.8000L639.5400,91.8000L640.1520,91.8000L640.1520,91.8000L640.7640,91.8000L640.7640,91.8000L641.3760,91.8000L641.3760,91.8000L641.9880,91.8000L641.9880,91.8000
            L642.6000,91.8000L642.6000,91.8000L643.2120,91.8000L643.2120,91.8000L643.8240,91.8000L643.8240,91.8000L644.4360,91.8000L644.4360,91.8000L645.0480,91.8000L645.0480,91.8000
            L645.6600,91.8000L645.6600,91.8000L646.2720,91.8000L646.2720,91.8000L646.8840,91.8000L646.8840,91.8000L647.4960,91.8000L647.4960,91.8000L648.1080,91.8000L648.1080,91.8000
            L648.7200,91.8000L648.7200,91.8000L649.3320,91.8000L649.3320,91.8000L649.9440,91.8000L649.9440,91.8000L650.5560,91.8000L650.5560,91.8000L651.1680,91.8000L651.1680,91.8000
            L651.7800,91.8000L651.7800,91.8000L652.3920,91.8000L652.3920,91.8000L653.0040,91.8000L653.0040,91.8000L653.6160,91.8000L653.6160,91.8000L654.2280,91.8000L654.2280,91.8000
            L654.8400,91.8000L654.8400,91.8000L655.4520,91.8000L655.4520,91.8000L656.0640,91.8000L656.0640,91.8000L656.6760,91.8000L656.6760,91.8000L657.2880,91.8000L657.2880,91.8000
            L657.9000,91.8000L657.9000,91.8000L658.5120,91.8000L658.5120,91.8000L659.1240,91.8000L659.1240,91.8000L659.7360,91.8000L659.7360,91.8000L660.3480,91.8000L660.3480,91.8000
            L660.9600,91.8000L660.9600,91.8000L661.5720,91.8000L661.5720,91.8000L662.1840,91.8000L662.1840,91.8000L662.7960,91.8000L662.7960,91.8000L663.4080,91.8000L663.4080,91.8000
            L664.0200,91.8000L664.0200,91.8000L664.6320,91.8000L664.6320,91.8000L665.2440,91.8000L665.2440,91.8000L665.8560,91.8000L665.8560,91.8000L666.4680,91.8000L666.4680,91.8000
            L667.0800,91.8000L667.0800,91.8000L667.6920,91.8000L667.6920,91.8000L668.3040,91.8000L668.3040,91.8000L668.9160,91.8000L668.9160,91.8000L669.5280,91.8000L669.5280,91.8000
            L670.1400,91.8000L670.1400,91.8000L670.7520,91.8000L670.7520,91.8000L671.3640,91.8000L671.3640,91.8000L671.9760,91.8000L671.9760,91.8000L672.5880,91.8000L672.5880,91.8000
            L673.2000,91.8000L673.2000,91.8000L673.8120,91.8000L673.8120,91.8000L674.4240,91.8000L674.4240,91.8000L675.0360,91.8000L675.0360,91.8000L675.6480,91.8000L675.6480,91.8000
            L676.2600,91.8000L676.2600,91.8000L676.8720,91.8000L676.8720,91.8000L677.4840,91.8000L677.4840,91.8000L678.0960,91.8000L678.0960,91.8000L678.7080,91.8000L678.7080,91.8000
            L679.3200,91.8000L679.3200,91.8000L679.9320,91.8000L679.9320,91.8000L680.5440,91.8000L680.5440,91.8000L681.1560,91.8000L681.1560,91.8000L681.7680,91.8000L681.7680,91.8000
            L682.3800,91.8000L682.3800,91.8000L682.9920,91.8000L682.9920,91.8000L683.6040,91.8000L683.6040,91.8000L684.2160,91.8000L684.2160,91.8000L684.8280,91.8000L684.8280,91.8000
            L685.4400,91.8000L685.4400,91.8000L686.0520,91.8000L686.0520,91.8000L686.6640,91.8000L686.6640,91.8000L687.2760,91.8000L687.2760,91.8000L687.8880,91.8000L687.8880,91.8000
            L688.5000,91.8000L688.5000,91.8000L689.1120,91.8000L689.1120,91.8000L689.7240,91.8000L689.7240,91.8000L690.3360,91.8000L690.3360,91.8000L690.9480,91.8000L690.9480,91.8000
            L691.5600,91.8000L691.5600,91.8000L692.1720,91.8000L692.1720,91.8000L692.7840,91.8000L692.7840,91.8000L693.3960,91.8000L693.3960,91.8000L694.0080,91.8000L694.0080,91.8000
            L694.6200,91.8000L694.6200,91.8000L695.2320,91.8000L695.2320,91.8000L695.8440,91.8000L695.8440,91.8000L696.4560,91.8000L696.4560,91.8000L697.0680,91.8000L697.0680,91.8000
            L697.6800,91.8000L697.6800,91.8000L698.2920,91.8000L698.2920,91.8000L698.9040,91.8000L698.9040,91.8000L699.5160,91.8000L699.5160,91.8000L700.1280,91.8000L700.1280,91.8000
            L700.7400,91.8000L700.7400,91.8000L701.3520,91.8000L701.3520,91.8000L701.9640,91.8000L701.9640,91.8000L702.5760,91.8000L702.5760,91.8000L703.1880,91.8000L703.1880,91.8000
            L703.8000,91.8000"/>
   <path d="M91.8000,91.8000L91.8000,91.8000"/>
   <path d="M92.4120,91.8000L92.4120,91.8000"/>
   <path d="M93.0240,91.8000L93.0240,91.8000"/>
   <path d="M93.6360,91.8000L93.6360,91.8000"/>
   <path d="M94.2480,91.8000L94.2480,91.8000"/>
   <path d="M94.8600,91.8000L94.8600,91.8000"/>
   <path d="M95.4720,91.8000L95.4720,91.8000"/>
   <path d="M96.0840,91.8000L96.0840,91.8000"/>
   <path d="M96.6960,91.8000L96.6960,91.8000"/>
   <path d="M97.3080,91.8000L97.3080,91.8000"/>
   <path d="M97.9200,91.8000L97.9200,91.8000"/>
   <path d="M98.5320,91.8000L98.5320,91.8000"/>
   <path d="M99.1440,91.8000L99.1440,91.8000"/>
   <path d="M99.7560,91.8000L99.7560,91.8000"/>
   <path d="M100.3680,91.8000L100.3680,91.8000"/>
   <path d="M100.9800,91.8000L100.9800,91.8000"/>
   <path d="M101.5920,91.8000L101.5920,91.8000"/>
   <path d="M102.2040,91.8000L102.2040,91.8000"/>
   <path d="M102.8160,91.8000L102.8160,91.8000"/>
   <path d="M103.4280,91.8000L103.4280,91.8000"/>
   <path d="M104.0400,91.8000L104.0400,91.8000"/>
   <path d="M104.6520,91.8000L104.6520,91.8000"/>
   <path d="M105.2640,91.8000L105.2640,91.8000"/>
   <path d="M105.8760,91.8000L105.8760,91.8000"/>
   <path d="M106.4880,91.8000L106.4880,91.8000"/>
   <path d="M107.1000,91.8000L107.1000,91.8000"/>
   <path d="M107.7120,91.8000L107.7120,91.8000"/>
   <path d="M108.3240,91.8000L108.3240,91.8000"/>
   <path d="M108.9360,91.8000L108.9360,91.8000"/>
   <path d="M109.5480,91.8000L109.5480,91.8000"/>
   <path d="M110.1600,91.8000L110.1600,91.8000"/>
   <path d="M110.7720,91.8000L110.7720,91.8000"/>
   <path d="M111.3840,91.8000L111.3840,91.8000"/>
   <path d="M111.9960,91.8000L111.9960,91.8000"/>
   <path d="M112.6080,91.8000L112.6080,91.8000"/>
   <path d="M113.2200,91.8000L113.2200,91.8000"/>
   <path d="M113.8320,91.8000L113.8320,91.8000"/>
   <path d="M114.4440,91.8000L114.4440,91.8000"/>
   <path d="M115.0560,91.8000L115.0560,91.8000"/>
   <path d="M115.6680,91.8000L115.6680,91.8000"/>
   <path d="M116.2800,91.8000L116.2800,91.8000"/>
   <path d="M116.8920,91.8000L116.8920,92.0530"/>
   <path d="M117.5040,91.8000L117.5040,93.3181"/>
   <path d="M118.1160,91.8000L118.1160,93.3181"/>
   <path d="M118.7280,91.8000L118.7280,93.0651"/>
   <path d="M119.3400,91.8000L119.3400,95.5953"/>
   <path d="M119.9520,91.8000L119.9520,94.5832"/>
   <path d="M120.5640,91.8000L120.5640,96.6073"/>
   <path d="M121.1760,91.8000L121.1760,96.1013"/>
   <path d="M121.7880,91.8000L121.7880,98.6315"/>
   <path d="M122.4000,91.8000L122.4000,98.3785"/>
   <path d="M123.0120,91.8000L123.0120,99.6436"/>
   <path d="M123.6240,91.8000L123.6240,98.6315"/>
   <path d="M124.2360,91.8000L124.2360,98.3785"/>
   <path d="M124.8480,91.8000L124.8480,99.8966"/>
   <path d="M125.4600,91.8000L125.4600,99.6436"/>
   <path d="M126.0720,91.8000L126.0720,101.9207"/>
   <path d="M126.6840,91.8000L126.6840,99.1375"/>
   <path d="M127.2960,91.8000L127.2960,102.6798"/>
   <path d="M127.9080,91.8000L127.9080,100.1496"/>
   <path d="M128.5200,91.8000L128.5200,106.2220"/>
   <path d="M129.1320,91.8000L129.1320,107.2341"/>
   <path d="M129.7440,91.8000L129.7440,110.7764"/>
   <path d="M130.3560,91.8000L130.3560,108.4992"/>
   <path d="M130.9680,91.8000L130.9680,114.3186"/>
   <path d="M131.5800,91.8000L131.5800,108.2462"/>
   <path d="M132.1920,91.8000L132.1920,111.7884"/>
   <path d="M132.8040,91.8000L132.8040,113.3065"/>
   <path d="M133.4160,91.8000L133.4160,116.0897"/>
   <path d="M134.0280,91.8000L134.0280,115.8367"/>
   <path d="M134.6400,91.8000L134.6400,120.6441"/>
   <path d="M135.2520,91.8000L135.2520,126.9695"/>
   <path d="M135.8640,91.8000L135.8640,126.4635"/>
   <path d="M136.4760,91.8000L136.4760,131.0178"/>
   <path d="M137.0880,91.8000L137.0880,133.2950"/>
   <path d="M137.7000,91.8000L137.7000,140.6325"/>
   <path d="M138.3120,91.8000L138.3120,140.6325"/>
   <path d="M138.9240,91.8000L138.9240,145.1868"/>
   <path d="M139.5360,91.8000L139.5360,151.7653"/>
   <path d="M140.1480,91.8000L140.1480,158.5968"/>
   <path d="M140.7600,91.8000L140.7600,165.4282"/>
   <path d="M141.3720,91.8000L141.3720,165.9343"/>
   <path d="M141.9840,91.8000L141.9840,186.1757"/>
   <path d="M142.5960,91.8000L142.5960,192.2482"/>
   <path d="M143.2080,91.8000L143.2080,188.4529"/>
   <path d="M143.8200,91.8000L143.8200,200.8508"/>
   <path d="M144.4320,91.8000L144.4320,214.2607"/>
   <path d="M145.0440,91.8000L145.0440,222.8633"/>
   <path d="M145.6560,91.8000L145.6560,226.4056"/>
   <path d="M146.2680,91.8000L146.2680,229.4418"/>
   <path d="M146.8800,91.8000L146.8800,233.7431"/>
   <path d="M147.4920,91.8000L147.4920,246.6470"/>
   <path d="M148.1040,91.8000L148.1040,250.9483"/>
   <path d="M148.7160,91.8000L148.7160,262.3341"/>
   <path d="M149.3280,91.8000L149.3280,248.4182"/>
   <path d="M149.9400,91.8000L149.9400,263.0932"/>
   <path d="M150.5520,91.8000L150.5520,269.9247"/>
   <path d="M151.1640,91.8000L151.1640,285.6118"/>
   <path d="M151.7760,91.8000L151.7760,274.7320"/>
   <path d="M152.3880,91.8000L152.3880,286.3709"/>
   <path d="M153.0000,91.8000L153.0000,272.2019"/>
   <path d="M153.6120,91.8000L153.6120,273.7200"/>
   <path d="M154.2240,91.8000L154.2240,276.7562"/>
   <path d="M154.8360,91.8000L154.8360,284.3467"/>
   <path d="M155.4480,91.8000L155.4480,309.3955"/>
   <path d="M156.0600,91.8000L156.0600,309.1425"/>
   <path d="M156.6720,91.8000L156.6720,316.9860"/>
   <path d="M157.2840,91.8000L157.2840,331.1551"/>
   <path d="M157.8960,91.8000L157.8960,359.7461"/>
   <path d="M158.5080,91.8000L158.5080,367.5896"/>
   <path d="M159.1200,91.8000L159.1200,385.0479"/>
   <path d="M159.7320,91.8000L159.7320,397.1928"/>
   <path d="M160.3440,91.8000L160.3440,404.2773"/>
   <path d="M160.9560,91.8000L160.9560,404.7833"/>
   <path d="M161.5680,91.8000L161.5680,424.0127"/>
   <path d="M162.1800,91.8000L162.1800,418.4463"/>
   <path d="M162.7920,91.8000L162.7920,417.4342"/>
   <path d="M163.4040,91.8000L163.4040,400.9880"/>
   <path d="M164.0160,91.8000L164.0160,404.7833"/>
   <path d="M164.6280,91.8000L164.6280,392.1324"/>
   <path d="M165.2400,91.8000L165.2400,379.2285"/>
   <path d="M165.8520,91.8000L165.8520,361.5172"/>
   <path d="M166.4640,91.8000L166.4640,366.8306"/>
   <path d="M167.0760,91.8000L167.0760,343.2999"/>
   <path d="M167.6880,91.8000L167.6880,349.6254"/>
   <path d="M168.3000,91.8000L168.3000,344.0590"/>
   <path d="M168.9120,91.8000L168.9120,328.8779"/>
   <path d="M169.5240,91.8000L169.5240,331.9141"/>
   <path d="M170.1360,91.8000L170.1360,314.2028"/>
   <path d="M170.7480,91.8000L170.7480,345.3241"/>
   <path d="M171.3600,91.8000L171.3600,325.5887"/>
   <path d="M171.9720,91.8000L171.9720,347.3482"/>
   <path d="M172.5840,91.8000L172.5840,361.5172"/>
   <path d="M173.1960,91.8000L173.1960,368.3487"/>
   <path d="M173.8080,91.8000L173.8080,354.1797"/>
   <path d="M174.4200,91.8000L174.4200,348.1073"/>
   <path d="M175.0320,91.8000L175.0320,345.3241"/>
   <path d="M175.6440,91.8000L175.6440,348.1073"/>
   <path d="M176.2560,91.8000L176.2560,371.8910"/>
   <path d="M176.8680,91.8000L176.8680,359.2401"/>
   <path d="M177.4800,91.8000L177.4800,388.5901"/>
   <path d="M178.0920,91.8000L178.0920,370.8789"/>
   <path d="M178.7040,91.8000L178.7040,379.9875"/>
   <path d="M179.3160,91.8000L179.3160,383.2768"/>
   <path d="M179.9280,91.8000L179.9280,385.8069"/>
   <path d="M180.5400,91.8000L180.5400,376.6983"/>
   <path d="M181.1520,91.8000L181.1520,393.9035"/>
   <path d="M181.7640,91.8000L181.7640,398.7109"/>
   <path d="M182.3760,91.8000L182.3760,385.8069"/>
   <path d="M182.9880,91.8000L182.9880,382.7707"/>
   <path d="M183.6000,91.8000L183.6000,409.3376"/>
   <path d="M184.2120,91.8000L184.2120,407.0605"/>
   <path d="M184.8240,91.8000L184.8240,413.3859"/>
   <path d="M185.4360,91.8000L185.4360,401.4941"/>
   <path d="M186.0480,91.8000L186.0480,423.0006"/>
   <path d="M186.6600,91.8000L186.6600,399.9760"/>
   <path d="M187.2720,91.8000L187.2720,414.3980"/>
   <path d="M187.8840,91.8000L187.8840,376.9513"/>
   <path d="M188.4960,91.8000L188.4960,380.9996"/>
   <path d="M189.1080,91.8000L189.1080,367.0836"/>
   <path d="M189.7200,91.8000L189.7200,374.6742"/>
   <path d="M190.3320,91.8000L190.3320,378.9755"/>
   <path d="M190.9440,91.8000L190.9440,365.3125"/>
   <path d="M191.5560,91.8000L191.5560,374.4211"/>
   <path d="M192.1680,91.8000L192.1680,382.0117"/>
   <path d="M192.7800,91.8000L192.7800,394.4096"/>
   <path d="M193.3920,91.8000L193.3920,395.9277"/>
   <path d="M194.0040,91.8000L194.0040,399.4699"/>
   <path d="M194.6160,91.8000L194.6160,396.9397"/>
   <path d="M195.2280,91.8000L195.2280,414.6510"/>
   <path d="M195.8400,91.8000L195.8400,413.8919"/>
   <path d="M196.4520,91.8000L196.4520,435.1455"/>
   <path d="M197.0640,91.8000L197.0640,425.2778"/>
   <path d="M197.6760,91.8000L197.6760,435.1455"/>
   <path d="M198.2880,91.8000L198.2880,422.4946"/>
   <path d="M198.9000,91.8000L198.9000,442.7360"/>
   <path d="M199.5120,91.8000L199.5120,422.7476"/>
   <path d="M200.1240,91.8000L200.1240,433.8804"/>
   <path d="M200.7360,91.8000L200.7360,432.6153"/>
   <path d="M201.3480,91.8000L201.3480,427.8079"/>
   <path d="M201.9600,91.8000L201.9600,406.5544"/>
   <path d="M202.5720,91.8000L202.5720,414.1450"/>
   <path d="M203.1840,91.8000L203.1840,428.8200"/>
   <path d="M203.7960,91.8000L203.7960,413.6389"/>
   <path d="M204.4080,91.8000L204.4080,413.6389"/>
   <path d="M205.0200,91.8000L205.0200,415.1570"/>
   <path d="M205.6320,91.8000L205.6320,412.8799"/>
   <path d="M206.2440,91.8000L206.2440,410.6027"/>
   <path d="M206.8560,91.8000L206.8560,394.9156"/>
   <path d="M207.4680,91.8000L207.4680,408.8316"/>
   <path d="M208.0800,91.8000L208.0800,404.2773"/>
   <path d="M208.6920,91.8000L208.6920,412.3738"/>
   <path d="M209.3040,91.8000L209.3040,423.0006"/>
   <path d="M209.9160,91.8000L209.9160,430.3381"/>
   <path d="M210.5280,91.8000L210.5280,429.5791"/>
   <path d="M211.1400,91.8000L211.1400,431.0972"/>
   <path d="M211.7520,91.8000L211.7520,419.4583"/>
   <path d="M212.3640,91.8000L212.3640,432.3623"/>
   <path d="M212.9760,91.8000L212.9760,415.6631"/>
   <path d="M213.5880,91.8000L213.5880,429.3260"/>
   <path d="M214.2000,91.8000L214.2000,418.9523"/>
   <path d="M214.8120,91.8000L214.8120,436.9166"/>
   <path d="M215.4240,91.8000L215.4240,436.9166"/>
   <path d="M216.0360,91.8000L216.0360,437.4226"/>
   <path d="M216.6480,91.8000L216.6480,434.6394"/>
   <path d="M217.2600,91.8000L217.2600,438.6877"/>
   <path d="M217.8720,91.8000L217.8720,445.0132"/>
   <path d="M218.4840,91.8000L218.4840,441.4709"/>
   <path d="M219.0960,91.8000L219.0960,449.3145"/>
   <path d="M219.7080,91.8000L219.7080,433.1213"/>
   <path d="M220.3200,91.8000L220.3200,434.1334"/>
   <path d="M220.9320,91.8000L220.9320,423.2536"/>
   <path d="M221.5440,91.8000L221.5440,441.7239"/>
   <path d="M222.1560,91.8000L222.1560,439.4468"/>
   <path d="M222.7680,91.8000L222.7680,439.4468"/>
   <path d="M223.3800,91.8000L223.3800,445.5192"/>
   <path d="M223.9920,91.8000L223.9920,440.4588"/>
   <path d="M224.6040,91.8000L224.6040,449.5675"/>
   <path d="M225.2160,91.8000L225.2160,445.7722"/>
   <path d="M225.8280,91.8000L225.8280,447.2903"/>
   <path d="M226.4400,91.8000L226.4400,446.7843"/>
   <path d="M227.0520,91.8000L227.0520,443.7481"/>
   <path d="M227.6640,91.8000L227.6640,436.6636"/>
   <path d="M228.2760,91.8000L228.2760,438.6877"/>
   <path d="M228.8880,91.8000L228.8880,439.6998"/>
   <path d="M229.5000,91.8000L229.5000,436.6636"/>
   <path d="M230.1120,91.8000L230.1120,448.3024"/>
   <path d="M230.7240,91.8000L230.7240,438.4347"/>
   <path d="M231.3360,91.8000L231.3360,440.7119"/>
   <path d="M231.9480,91.8000L231.9480,452.6037"/>
   <path d="M232.5600,91.8000L232.5600,454.3748"/>
   <path d="M233.1720,91.8000L233.1720,446.0252"/>
   <path d="M233.7840,91.8000L233.7840,440.9649"/>
   <path d="M234.3960,91.8000L234.3960,461.4593"/>
   <path d="M235.0080,91.8000L235.0080,440.9649"/>
   <path d="M235.6200,91.8000L235.6200,438.1817"/>
   <path d="M236.2320,91.8000L236.2320,434.1334"/>
   <path d="M236.8440,91.8000L236.8440,444.2541"/>
   <path d="M237.4560,91.8000L237.4560,425.5308"/>
   <path d="M238.0680,91.8000L238.0680,438.1817"/>
   <path d="M238.6800,91.8000L238.6800,417.4342"/>
   <path d="M239.2920,91.8000L239.2920,423.0006"/>
   <path d="M239.9040,91.8000L239.9040,420.4704"/>
   <path d="M240.5160,91.8000L240.5160,410.8557"/>
   <path d="M241.1280,91.8000L241.1280,410.0967"/>
   <path d="M241.7400,91.8000L241.7400,398.4578"/>
   <path d="M242.3520,91.8000L242.3520,409.0846"/>
   <path d="M242.9640,91.8000L242.9640,407.5665"/>
   <path d="M243.5760,91.8000L243.5760,412.6269"/>
   <path d="M244.1880,91.8000L244.1880,423.0006"/>
   <path d="M244.8000,91.8000L244.8000,408.8316"/>
   <path d="M245.4120,91.8000L245.4120,410.0967"/>
   <path d="M246.0240,91.8000L246.0240,405.7954"/>
   <path d="M246.6360,91.8000L246.6360,436.6636"/>
   <path d="M247.2480,91.8000L247.2480,416.1691"/>
   <path d="M247.8600,91.8000L247.8600,414.9040"/>
   <path d="M248.4720,91.8000L248.4720,417.9402"/>
   <path d="M249.0840,91.8000L249.0840,413.6389"/>
   <path d="M249.6960,91.8000L249.6960,415.4101"/>
   <path d="M250.3080,91.8000L250.3080,409.5906"/>
   <path d="M250.9200,91.8000L250.9200,416.4221"/>
   <path d="M251.5320,91.8000L251.5320,416.9282"/>
   <path d="M252.1440,91.8000L252.1440,415.1570"/>
   <path d="M252.7560,91.8000L252.7560,420.9765"/>
   <path d="M253.3680,91.8000L253.3680,395.4216"/>
   <path d="M253.9800,91.8000L253.9800,410.0967"/>
   <path d="M254.5920,91.8000L254.5920,396.9397"/>
   <path d="M255.2040,91.8000L255.2040,392.1324"/>
   <path d="M255.8160,91.8000L255.8160,400.2290"/>
   <path d="M256.4280,91.8000L256.4280,395.4216"/>
   <path d="M257.0400,91.8000L257.0400,383.0237"/>
   <path d="M257.6520,91.8000L257.6520,395.4216"/>
   <path d="M258.2640,91.8000L258.2640,385.3009"/>
   <path d="M258.8760,91.8000L258.8760,368.8547"/>
   <path d="M259.4880,91.8000L259.4880,361.7702"/>
   <path d="M260.1000,91.8000L260.1000,378.4694"/>
   <path d="M260.7120,91.8000L260.7120,382.7707"/>
   <path d="M261.3240,91.8000L261.3240,369.1078"/>
   <path d="M261.9360,91.8000L261.9360,357.7219"/>
   <path d="M262.5480,91.8000L262.5480,358.7340"/>
   <path d="M263.1600,91.8000L263.1600,358.4810"/>
   <path d="M263.7720,91.8000L263.7720,370.8789"/>
   <path d="M264.3840,91.8000L264.3840,360.5051"/>
   <path d="M264.9960,91.8000L264.9960,359.9991"/>
   <path d="M265.6080,91.8000L265.6080,350.1314"/>
   <path d="M266.2200,91.8000L266.2200,356.2038"/>
   <path d="M266.8320,91.8000L266.8320,363.2883"/>
   <path d="M267.4440,91.8000L267.4440,356.7099"/>
   <path d="M268.0560,91.8000L268.0560,355.1918"/>
   <path d="M268.6680,91.8000L268.6680,348.1073"/>
   <path d="M269.2800,91.8000L269.2800,345.8301"/>
   <path d="M269.8920,91.8000L269.8920,356.7099"/>
   <path d="M270.5040,91.8000L270.5040,335.9624"/>
   <path d="M271.1160,91.8000L271.1160,360.7582"/>
   <path d="M271.7280,91.8000L271.7280,332.9262"/>
   <path d="M272.3400,91.8000L272.3400,353.1676"/>
   <path d="M272.9520,91.8000L272.9520,342.2878"/>
   <path d="M273.5640,91.8000L273.5640,334.4443"/>
   <path d="M274.1760,91.8000L274.1760,352.4086"/>
   <path d="M274.7880,91.8000L274.7880,341.2758"/>
   <path d="M275.4000,91.8000L275.4000,341.0228"/>
   <path d="M276.0120,91.8000L276.0120,330.6490"/>
   <path d="M276.6240,91.8000L276.6240,348.8663"/>
   <path d="M277.2360,91.8000L277.2360,327.3598"/>
   <path d="M277.8480,91.8000L277.8480,333.1792"/>
   <path d="M278.4600,91.8000L278.4600,328.1188"/>
   <path d="M279.0720,91.8000L279.0720,344.5650"/>
   <path d="M279.6840,91.8000L279.6840,324.8296"/>
   <path d="M280.2960,91.8000L280.2960,322.5524"/>
   <path d="M280.9080,91.8000L280.9080,320.2753"/>
   <path d="M281.5200,91.8000L281.5200,329.6369"/>
   <path d="M282.1320,91.8000L282.1320,314.2028"/>
   <path d="M282.7440,91.8000L282.7440,319.5162"/>
   <path d="M283.3560,91.8000L283.3560,328.1188"/>
   <path d="M283.9680,91.8000L283.9680,331.4081"/>
   <path d="M284.5800,91.8000L284.5800,315.9740"/>
   <path d="M285.1920,91.8000L285.1920,322.8055"/>
   <path d="M285.8040,91.8000L285.8040,326.3477"/>
   <path d="M286.4160,91.8000L286.4160,317.2391"/>
   <path d="M287.0280,91.8000L287.0280,326.3477"/>
   <path d="M287.6400,91.8000L287.6400,319.2632"/>
   <path d="M288.2520,91.8000L288.2520,314.4559"/>
   <path d="M288.8640,91.8000L288.8640,315.9740"/>
   <path d="M289.4760,91.8000L289.4760,311.6727"/>
   <path d="M290.0880,91.8000L290.0880,315.9740"/>
   <path d="M290.7000,91.8000L290.7000,317.9981"/>
   <path d="M291.3120,91.8000L291.3120,314.9619"/>
   <path d="M291.9240,91.8000L291.9240,316.7330"/>
   <path d="M292.5360,91.8000L292.5360,312.9378"/>
   <path d="M293.1480,91.8000L293.1480,313.4438"/>
   <path d="M293.7600,91.8000L293.7600,304.0821"/>
   <path d="M294.3720,91.8000L294.3720,312.6847"/>
   <path d="M294.9840,91.8000L294.9840,294.2144"/>
   <path d="M295.5960,91.8000L295.5960,317.2391"/>
   <path d="M296.2080,91.8000L296.2080,305.8532"/>
   <path d="M296.8200,91.8000L296.8200,294.7205"/>
   <path d="M297.4320,91.8000L297.4320,306.6123"/>
   <path d="M298.0440,91.8000L298.0440,294.4674"/>
   <path d="M298.6560,91.8000L298.6560,303.3231"/>
   <path d="M299.2680,91.8000L299.2680,293.4554"/>
   <path d="M299.8800,91.8000L299.8800,291.4312"/>
   <path d="M300.4920,91.8000L300.4920,298.2627"/>
   <path d="M301.1040,91.8000L301.1040,280.5514"/>
   <path d="M301.7160,91.8000L301.7160,286.3709"/>
   <path d="M302.3280,91.8000L302.3280,284.8528"/>
   <path d="M302.9400,91.8000L302.9400,288.6480"/>
   <path d="M303.5520,91.8000L303.5520,289.4071"/>
   <path d="M304.1640,91.8000L304.1640,275.7441"/>
   <path d="M304.7760,91.8000L304.7760,275.9971"/>
   <path d="M305.3880,91.8000L305.3880,273.9730"/>
   <path d="M306.0000,91.8000L306.0000,268.4066"/>
   <path d="M306.6120,91.8000L306.6120,277.0092"/>
   <path d="M307.2240,91.8000L307.2240,286.6239"/>
   <path d="M307.8360,91.8000L307.8360,283.5877"/>
   <path d="M308.4480,91.8000L308.4480,284.8528"/>
   <path d="M309.0600,91.8000L309.0600,271.6958"/>
   <path d="M309.6720,91.8000L309.6720,276.2501"/>
   <path d="M310.2840,91.8000L310.2840,252.2134"/>
   <path d="M310.8960,91.8000L310.8960,282.5756"/>
   <path d="M311.5080,91.8000L311.5080,258.2859"/>
   <path d="M312.1200,91.8000L312.1200,259.5510"/>
   <path d="M312.7320,91.8000L312.7320,269.4187"/>
   <path d="M313.3440,91.8000L313.3440,277.2622"/>
   <path d="M313.9560,91.8000L313.9560,266.1294"/>
   <path d="M314.5680,91.8000L314.5680,279.2864"/>
   <path d="M315.1800,91.8000L315.1800,266.1294"/>
   <path d="M315.7920,91.8000L315.7920,260.8160"/>
   <path d="M316.4040,91.8000L316.4040,260.8160"/>
   <path d="M317.0160,91.8000L317.0160,267.9005"/>
   <path d="M317.6280,91.8000L317.6280,267.3945"/>
   <path d="M318.2400,91.8000L318.2400,256.0087"/>
   <path d="M318.8520,91.8000L318.8520,262.3341"/>
   <path d="M319.4640,91.8000L319.4640,266.3824"/>
   <path d="M320.0760,91.8000L320.0760,253.2255"/>
   <path d="M320.6880,91.8000L320.6880,249.9363"/>
   <path d="M321.3000,91.8000L321.3000,264.1053"/>
   <path d="M321.9120,91.8000L321.9120,252.7195"/>
   <path d="M322.5240,91.8000L322.5240,254.7436"/>
   <path d="M323.1360,91.8000L323.1360,252.7195"/>
   <path d="M323.7480,91.8000L323.7480,252.4664"/>
   <path d="M324.3600,91.8000L324.3600,246.3940"/>
   <path d="M324.9720,91.8000L324.9720,246.9000"/>
   <path d="M325.5840,91.8000L325.5840,247.1531"/>
   <path d="M326.1960,91.8000L326.1960,247.9121"/>
   <path d="M326.8080,91.8000L326.8080,238.5505"/>
   <path d="M327.4200,91.8000L327.4200,253.4785"/>
   <path d="M328.0320,91.8000L328.0320,242.5987"/>
   <path d="M328.6440,91.8000L328.6440,239.3095"/>
   <path d="M329.2560,91.8000L329.2560,243.3578"/>
   <path d="M329.8680,91.8000L329.8680,241.8397"/>
   <path d="M330.4800,91.8000L330.4800,237.0323"/>
   <path d="M331.0920,91.8000L331.0920,236.7793"/>
   <path d="M331.7040,91.8000L331.7040,237.5384"/>
   <path d="M332.3160,91.8000L332.3160,235.5142"/>
   <path d="M332.9280,91.8000L332.9280,229.4418"/>
   <path d="M333.5400,91.8000L333.5400,234.5022"/>
   <path d="M334.1520,91.8000L334.1520,232.9841"/>
   <path d="M334.7640,91.8000L334.7640,246.6470"/>
   <path d="M335.3760,91.8000L335.3760,226.4056"/>
   <path d="M335.9880,91.8000L335.9880,236.0203"/>
   <path d="M336.6000,91.8000L336.6000,223.6224"/>
   <path d="M337.2120,91.8000L337.2120,239.0565"/>
   <path d="M337.8240,91.8000L337.8240,231.4660"/>
   <path d="M338.4360,91.8000L338.4360,222.3573"/>
   <path d="M339.0480,91.8000L339.0480,224.8875"/>
   <path d="M339.6600,91.8000L339.6600,224.8875"/>
   <path d="M340.2720,91.8000L340.2720,235.7673"/>
   <path d="M340.8840,91.8000L340.8840,222.1043"/>
   <path d="M341.4960,91.8000L341.4960,227.9237"/>
   <path d="M342.1080,91.8000L342.1080,229.6948"/>
   <path d="M342.7200,91.8000L342.7200,224.6345"/>
   <path d="M343.3320,91.8000L343.3320,221.8513"/>
   <path d="M343.9440,91.8000L343.9440,227.1646"/>
   <path d="M344.5560,91.8000L344.5560,221.5982"/>
   <path d="M345.1680,91.8000L345.1680,231.9720"/>
   <path d="M345.7800,91.8000L345.7800,230.2009"/>
   <path d="M346.3920,91.8000L346.3920,224.6345"/>
   <path d="M347.0040,91.8000L347.0040,233.7431"/>
   <path d="M347.6160,91.8000L347.6160,234.2491"/>
   <path d="M348.2280,91.8000L348.2280,227.6707"/>
   <path d="M348.8400,91.8000L348.8400,223.8754"/>
   <path d="M349.4520,91.8000L349.4520,229.4418"/>
   <path d="M350.0640,91.8000L350.0640,220.0801"/>
   <path d="M350.6760,91.8000L350.6760,220.3332"/>
   <path d="M351.2880,91.8000L351.2880,226.6586"/>
   <path d="M351.9000,91.8000L351.9000,220.0801"/>
   <path d="M352.5120,91.8000L352.5120,231.7190"/>
   <path d="M353.1240,91.8000L353.1240,218.0560"/>
   <path d="M353.7360,91.8000L353.7360,210.9715"/>
   <path d="M354.3480,91.8000L354.3480,216.0319"/>
   <path d="M354.9600,91.8000L354.9600,218.0560"/>
   <path d="M355.5720,91.8000L355.5720,213.7547"/>
   <path d="M356.1840,91.8000L356.1840,214.7668"/>
   <path d="M356.7960,91.8000L356.7960,208.6943"/>
   <path d="M357.4080,91.8000L357.4080,206.1641"/>
   <path d="M358.0200,91.8000L358.0200,190.4770"/>
   <path d="M358.6320,91.8000L358.6320,214.5137"/>
   <path d="M359.2440,91.8000L359.2440,219.3211"/>
   <path d="M359.8560,91.8000L359.8560,211.9836"/>
   <path d="M360.4680,91.8000L360.4680,223.8754"/>
   <path d="M361.0800,91.8000L361.0800,223.1164"/>
   <path d="M361.6920,91.8000L361.6920,218.3090"/>
   <path d="M362.3040,91.8000L362.3040,227.1646"/>
   <path d="M362.9160,91.8000L362.9160,224.1284"/>
   <path d="M363.5280,91.8000L363.5280,213.2487"/>
   <path d="M364.1400,91.8000L364.1400,213.7547"/>
   <path d="M364.7520,91.8000L364.7520,222.6103"/>
   <path d="M365.3640,91.8000L365.3640,222.3573"/>
   <path d="M365.9760,91.8000L365.9760,220.3332"/>
   <path d="M366.5880,91.8000L366.5880,219.3211"/>
   <path d="M367.2000,91.8000L367.2000,213.5017"/>
   <path d="M367.8120,91.8000L367.8120,211.9836"/>
   <path d="M368.4240,91.8000L368.4240,226.6586"/>
   <path d="M369.0360,91.8000L369.0360,218.5620"/>
   <path d="M369.6480,91.8000L369.6480,215.7788"/>
   <path d="M370.2600,91.8000L370.2600,209.2004"/>
   <path d="M370.8720,91.8000L370.8720,205.1521"/>
   <path d="M371.4840,91.8000L371.4840,197.3085"/>
   <path d="M372.0960,91.8000L372.0960,193.7663"/>
   <path d="M372.7080,91.8000L372.7080,196.8025"/>
   <path d="M373.3200,91.8000L373.3200,194.2723"/>
   <path d="M373.9320,91.8000L373.9320,196.8025"/>
   <path d="M374.5440,91.8000L374.5440,192.7542"/>
   <path d="M375.1560,91.8000L375.1560,188.4529"/>
   <path d="M375.7680,91.8000L375.7680,192.7542"/>
   <path d="M376.3800,91.8000L376.3800,188.7059"/>
   <path d="M376.9920,91.8000L376.9920,191.4891"/>
   <path d="M377.6040,91.8000L377.6040,186.4287"/>
   <path d="M378.2160,91.8000L378.2160,192.2482"/>
   <path d="M378.8280,91.8000L378.8280,191.9951"/>
   <path d="M379.4400,91.8000L379.4400,185.6697"/>
   <path d="M380.0520,91.8000L380.0520,181.1154"/>
   <path d="M380.6640,91.8000L380.6640,188.1999"/>
   <path d="M381.2760,91.8000L381.2760,190.4770"/>
   <path d="M381.8880,91.8000L381.8880,188.7059"/>
   <path d="M382.5000,91.8000L382.5000,188.1999"/>
   <path d="M383.1120,91.8000L383.1120,186.4287"/>
   <path d="M383.7240,91.8000L383.7240,178.0791"/>
   <path d="M384.3360,91.8000L384.3360,178.3322"/>
   <path d="M384.9480,91.8000L384.9480,195.2844"/>
   <path d="M385.5600,91.8000L385.5600,180.1033"/>
   <path d="M386.1720,91.8000L386.1720,173.5248"/>
   <path d="M386.7840,91.8000L386.7840,182.1274"/>
   <path d="M387.3960,91.8000L387.3960,178.3322"/>
   <path d="M388.0080,91.8000L388.0080,182.1274"/>
   <path d="M388.6200,91.8000L388.6200,189.4650"/>
   <path d="M389.2320,91.8000L389.2320,179.8503"/>
   <path d="M389.8440,91.8000L389.8440,179.0912"/>
   <path d="M390.4560,91.8000L390.4560,178.5852"/>
   <path d="M391.0680,91.8000L391.0680,176.5610"/>
   <path d="M391.6800,91.8000L391.6800,178.3322"/>
   <path d="M392.2920,91.8000L392.2920,179.5973"/>
   <path d="M392.9040,91.8000L392.9040,173.7778"/>
   <path d="M393.5160,91.8000L393.5160,177.0671"/>
   <path d="M394.1280,91.8000L394.1280,168.9705"/>
   <path d="M394.7400,91.8000L394.7400,174.7899"/>
   <path d="M395.3520,91.8000L395.3520,174.2839"/>
   <path d="M395.9640,91.8000L395.9640,166.4403"/>
   <path d="M396.5760,91.8000L396.5760,173.0188"/>
   <path d="M397.1880,91.8000L397.1880,173.7778"/>
   <path d="M397.8000,91.8000L397.8000,187.6938"/>
   <path d="M398.4120,91.8000L398.4120,173.7778"/>
   <path d="M399.0240,91.8000L399.0240,179.0912"/>
   <path d="M399.6360,91.8000L399.6360,178.3322"/>
   <path d="M400.2480,91.8000L400.2480,181.6214"/>
   <path d="M400.8600,91.8000L400.8600,188.1999"/>
   <path d="M401.4720,91.8000L401.4720,183.1395"/>
   <path d="M402.0840,91.8000L402.0840,179.3442"/>
   <path d="M402.6960,91.8000L402.6960,185.9227"/>
   <path d="M403.3080,91.8000L403.3080,180.3563"/>
   <path d="M403.9200,91.8000L403.9200,180.6093"/>
   <path d="M404.5320,91.8000L404.5320,180.3563"/>
   <path d="M405.1440,91.8000L405.1440,165.9343"/>
   <path d="M405.7560,91.8000L405.7560,175.2959"/>
   <path d="M406.3680,91.8000L406.3680,178.0791"/>
   <path d="M406.9800,91.8000L406.9800,168.9705"/>
   <path d="M407.5920,91.8000L407.5920,183.6455"/>
   <path d="M408.2040,91.8000L408.2040,177.0671"/>
   <path d="M408.8160,91.8000L408.8160,169.2235"/>
   <path d="M409.4280,91.8000L409.4280,183.3925"/>
   <path d="M410.0400,91.8000L410.0400,171.5007"/>
   <path d="M410.6520,91.8000L410.6520,177.0671"/>
   <path d="M411.2640,91.8000L411.2640,176.8141"/>
   <path d="M411.8760,91.8000L411.8760,179.3442"/>
   <path d="M412.4880,91.8000L412.4880,178.3322"/>
   <path d="M413.1000,91.8000L413.1000,185.4167"/>
   <path d="M413.7120,91.8000L413.7120,176.3080"/>
   <path d="M414.3240,91.8000L414.3240,180.1033"/>
   <path d="M414.9360,91.8000L414.9360,169.2235"/>
   <path d="M415.5480,91.8000L415.5480,180.3563"/>
   <path d="M416.1600,91.8000L416.1600,172.2597"/>
   <path d="M416.7720,91.8000L416.7720,174.7899"/>
   <path d="M417.3840,91.8000L417.3840,175.5490"/>
   <path d="M417.9960,91.8000L417.9960,175.5490"/>
   <path d="M418.6080,91.8000L418.6080,174.7899"/>
   <path d="M419.2200,91.8000L419.2200,171.7537"/>
   <path d="M419.8320,91.8000L419.8320,184.4046"/>
   <path d="M420.4440,91.8000L420.4440,157.8377"/>
   <path d="M421.0560,91.8000L421.0560,163.4041"/>
   <path d="M421.6680,91.8000L421.6680,171.2477"/>
   <path d="M422.2800,91.8000L422.2800,161.1269"/>
   <path d="M422.8920,91.8000L422.8920,168.9705"/>
   <path d="M423.5040,91.8000L423.5040,167.7054"/>
   <path d="M424.1160,91.8000L424.1160,165.4282"/>
   <path d="M424.7280,91.8000L424.7280,166.1873"/>
   <path d="M425.3400,91.8000L425.3400,154.2955"/>
   <path d="M425.9520,91.8000L425.9520,156.8256"/>
   <path d="M426.5640,91.8000L426.5640,154.2955"/>
   <path d="M427.1760,91.8000L427.1760,157.3317"/>
   <path d="M427.7880,91.8000L427.7880,152.7773"/>
   <path d="M428.4000,91.8000L428.4000,150.5002"/>
   <path d="M429.0120,91.8000L429.0120,150.7532"/>
   <path d="M429.6240,91.8000L429.6240,152.7773"/>
   <path d="M430.2360,91.8000L430.2360,153.2834"/>
   <path d="M430.8480,91.8000L430.8480,148.4760"/>
   <path d="M431.4600,91.8000L431.4600,150.2472"/>
   <path d="M432.0720,91.8000L432.0720,154.0424"/>
   <path d="M432.6840,91.8000L432.6840,152.7773"/>
   <path d="M433.2960,91.8000L433.2960,151.7653"/>
   <path d="M433.9080,91.8000L433.9080,156.0666"/>
   <path d="M434.5200,91.8000L434.5200,153.7894"/>
   <path d="M435.1320,91.8000L435.1320,158.3437"/>
   <path d="M435.7440,91.8000L435.7440,153.0304"/>
   <path d="M436.3560,91.8000L436.3560,150.2472"/>
   <path d="M436.9680,91.8000L436.9680,153.5364"/>
   <path d="M437.5800,91.8000L437.5800,159.8618"/>
   <path d="M438.1920,91.8000L438.1920,150.7532"/>
   <path d="M438.8040,91.8000L438.8040,145.6928"/>
   <path d="M439.4160,91.8000L439.4160,155.0545"/>
   <path d="M440.0280,91.8000L440.0280,161.3800"/>
   <path d="M440.6400,91.8000L440.6400,152.5243"/>
   <path d="M441.2520,91.8000L441.2520,152.0183"/>
   <path d="M441.8640,91.8000L441.8640,154.5485"/>
   <path d="M442.4760,91.8000L442.4760,151.0062"/>
   <path d="M443.0880,91.8000L443.0880,156.5726"/>
   <path d="M443.7000,91.8000L443.7000,151.2592"/>
   <path d="M444.3120,91.8000L444.3120,154.0424"/>
   <path d="M444.9240,91.8000L444.9240,150.5002"/>
   <path d="M445.5360,91.8000L445.5360,149.7411"/>
   <path d="M446.1480,91.8000L446.1480,145.9459"/>
   <path d="M446.7600,91.8000L446.7600,146.7049"/>
   <path d="M447.3720,91.8000L447.3720,137.3432"/>
   <path d="M447.9840,91.8000L447.9840,139.1144"/>
   <path d="M448.5960,91.8000L448.5960,145.6928"/>
   <path d="M449.2080,91.8000L449.2080,145.4398"/>
   <path d="M449.8200,91.8000L449.8200,138.3553"/>
   <path d="M450.4320,91.8000L450.4320,137.5963"/>
   <path d="M451.0440,91.8000L451.0440,142.4036"/>
   <path d="M451.6560,91.8000L451.6560,141.1385"/>
   <path d="M452.2680,91.8000L452.2680,138.3553"/>
   <path d="M452.8800,91.8000L452.8800,138.6083"/>
   <path d="M453.4920,91.8000L453.4920,142.9096"/>
   <path d="M454.1040,91.8000L454.1040,144.6808"/>
   <path d="M454.7160,91.8000L454.7160,145.1868"/>
   <path d="M455.3280,91.8000L455.3280,146.4519"/>
   <path d="M455.9400,91.8000L455.9400,147.7170"/>
   <path d="M456.5520,91.8000L456.5520,142.6566"/>
   <path d="M457.1640,91.8000L457.1640,144.1747"/>
   <path d="M457.7760,91.8000L457.7760,142.6566"/>
   <path d="M458.3880,91.8000L458.3880,141.6446"/>
   <path d="M459.0000,91.8000L459.0000,145.9459"/>
   <path d="M459.6120,91.8000L459.6120,155.8136"/>
   <path d="M460.2240,91.8000L460.2240,145.1868"/>
   <path d="M460.8360,91.8000L460.8360,144.6808"/>
   <path d="M461.4480,91.8000L461.4480,149.7411"/>
   <path d="M462.0600,91.8000L462.0600,148.7291"/>
   <path d="M462.6720,91.8000L462.6720,138.6083"/>
   <path d="M463.2840,91.8000L463.2840,142.4036"/>
   <path d="M463.8960,91.8000L463.8960,138.8614"/>
   <path d="M464.5080,91.8000L464.5080,144.1747"/>
   <path d="M465.1200,91.8000L465.1200,138.6083"/>
   <path d="M465.7320,91.8000L465.7320,140.3795"/>
   <path d="M466.3440,91.8000L466.3440,139.6204"/>
   <path d="M466.9560,91.8000L466.9560,139.3674"/>
   <path d="M467.5680,91.8000L467.5680,140.3795"/>
   <path d="M468.1800,91.8000L468.1800,141.8976"/>
   <path d="M468.7920,91.8000L468.7920,138.3553"/>
   <path d="M469.4040,91.8000L469.4040,139.6204"/>
   <path d="M470.0160,91.8000L470.0160,136.0782"/>
   <path d="M470.6280,91.8000L470.6280,139.1144"/>
   <path d="M471.2400,91.8000L471.2400,141.1385"/>
   <path d="M471.8520,91.8000L471.8520,149.4881"/>
   <path d="M472.4640,91.8000L472.4640,141.8976"/>
   <path d="M473.0760,91.8000L473.0760,134.3070"/>
   <path d="M473.6880,91.8000L473.6880,138.1023"/>
   <path d="M474.3000,91.8000L474.3000,136.8372"/>
   <path d="M474.9120,91.8000L474.9120,144.9338"/>
   <path d="M475.5240,91.8000L475.5240,132.2829"/>
   <path d="M476.1360,91.8000L476.1360,130.0057"/>
   <path d="M476.7480,91.8000L476.7480,130.0057"/>
   <path d="M477.3600,91.8000L477.3600,138.8614"/>
   <path d="M477.9720,91.8000L477.9720,133.8010"/>
   <path d="M478.5840,91.8000L478.5840,135.0661"/>
   <path d="M479.1960,91.8000L479.1960,134.5600"/>
   <path d="M479.8080,91.8000L479.8080,136.5842"/>
   <path d="M480.4200,91.8000L480.4200,135.8251"/>
   <path d="M481.0320,91.8000L481.0320,133.5480"/>
   <path d="M481.6440,91.8000L481.6440,137.8493"/>
   <path d="M482.2560,91.8000L482.2560,137.0902"/>
   <path d="M482.8680,91.8000L482.8680,134.8131"/>
   <path d="M483.4800,91.8000L483.4800,128.7406"/>
   <path d="M484.0920,91.8000L484.0920,132.2829"/>
   <path d="M484.7040,91.8000L484.7040,140.1264"/>
   <path d="M485.3160,91.8000L485.3160,130.5118"/>
   <path d="M485.9280,91.8000L485.9280,140.3795"/>
   <path d="M486.5400,91.8000L486.5400,129.2467"/>
   <path d="M487.1520,91.8000L487.1520,136.5842"/>
   <path d="M487.7640,91.8000L487.7640,132.7889"/>
   <path d="M488.3760,91.8000L488.3760,132.7889"/>
   <path d="M488.9880,91.8000L488.9880,131.0178"/>
   <path d="M489.6000,91.8000L489.6000,135.5721"/>
   <path d="M490.2120,91.8000L490.2120,132.2829"/>
   <path d="M490.8240,91.8000L490.8240,130.7648"/>
   <path d="M491.4360,91.8000L491.4360,127.4755"/>
   <path d="M492.0480,91.8000L492.0480,133.0419"/>
   <path d="M492.6600,91.8000L492.6600,133.5480"/>
   <path d="M493.2720,91.8000L493.2720,130.2587"/>
   <path d="M493.8840,91.8000L493.8840,128.9936"/>
   <path d="M494.4960,91.8000L494.4960,133.0419"/>
   <path d="M495.1080,91.8000L495.1080,128.4876"/>
   <path d="M495.7200,91.8000L495.7200,130.0057"/>
   <path d="M496.3320,91.8000L496.3320,125.4514"/>
   <path d="M496.9440,91.8000L496.9440,127.7286"/>
   <path d="M497.5560,91.8000L497.5560,126.9695"/>
   <path d="M498.1680,91.8000L498.1680,123.1742"/>
   <path d="M498.7800,91.8000L498.7800,126.4635"/>
   <path d="M499.3920,91.8000L499.3920,132.7889"/>
   <path d="M500.0040,91.8000L500.0040,128.7406"/>
   <path d="M500.6160,91.8000L500.6160,133.0419"/>
   <path d="M501.2280,91.8000L501.2280,127.7286"/>
   <path d="M501.8400,91.8000L501.8400,132.2829"/>
   <path d="M502.4520,91.8000L502.4520,128.9936"/>
   <path d="M503.0640,91.8000L503.0640,127.2225"/>
   <path d="M503.6760,91.8000L503.6760,130.5118"/>
   <path d="M504.2880,91.8000L504.2880,134.5600"/>
   <path d="M504.9000,91.8000L504.9000,130.7648"/>
   <path d="M505.5120,91.8000L505.5120,127.9816"/>
   <path d="M506.1240,91.8000L506.1240,123.9333"/>
   <path d="M506.7360,91.8000L506.7360,127.9816"/>
   <path d="M507.3480,91.8000L507.3480,124.1863"/>
   <path d="M507.9600,91.8000L507.9600,130.0057"/>
   <path d="M508.5720,91.8000L508.5720,124.6923"/>
   <path d="M509.1840,91.8000L509.1840,130.5118"/>
   <path d="M509.7960,91.8000L509.7960,126.7165"/>
   <path d="M510.4080,91.8000L510.4080,123.9333"/>
   <path d="M511.0200,91.8000L511.0200,124.9454"/>
   <path d="M511.6320,91.8000L511.6320,131.5238"/>
   <path d="M512.2440,91.8000L512.2440,127.2225"/>
   <path d="M512.8560,91.8000L512.8560,123.4273"/>
   <path d="M513.4680,91.8000L513.4680,126.2105"/>
   <path d="M514.0800,91.8000L514.0800,118.8729"/>
   <path d="M514.6920,91.8000L514.6920,127.4755"/>
   <path d="M515.3040,91.8000L515.3040,124.6923"/>
   <path d="M515.9160,91.8000L515.9160,126.2105"/>
   <path d="M516.5280,91.8000L516.5280,124.9454"/>
   <path d="M517.1400,91.8000L517.1400,122.9212"/>
   <path d="M517.7520,91.8000L517.7520,121.6561"/>
   <path d="M518.3640,91.8000L518.3640,124.9454"/>
   <path d="M518.9760,91.8000L518.9760,119.6320"/>
   <path d="M519.5880,91.8000L519.5880,120.3910"/>
   <path d="M520.2000,91.8000L520.2000,123.1742"/>
   <path d="M520.8120,91.8000L520.8120,119.8850"/>
   <path d="M521.4240,91.8000L521.4240,121.9091"/>
   <path d="M522.0360,91.8000L522.0360,122.9212"/>
   <path d="M522.6480,91.8000L522.6480,116.3427"/>
   <path d="M523.2600,91.8000L523.2600,119.1259"/>
   <path d="M523.8720,91.8000L523.8720,121.9091"/>
   <path d="M524.4840,91.8000L524.4840,118.8729"/>
   <path d="M525.0960,91.8000L525.0960,113.0535"/>
   <path d="M525.7080,91.8000L525.7080,111.5354"/>
   <path d="M526.3200,91.8000L526.3200,116.3427"/>
   <path d="M526.9320,91.8000L526.9320,114.5716"/>
   <path d="M527.5440,91.8000L527.5440,111.5354"/>
   <path d="M528.1560,91.8000L528.1560,111.5354"/>
   <path d="M528.7680,91.8000L528.7680,110.5233"/>
   <path d="M529.3800,91.8000L529.3800,113.3065"/>
   <path d="M529.9920,91.8000L529.9920,105.2100"/>
   <path d="M530.6040,91.8000L530.6040,110.2703"/>
   <path d="M531.2160,91.8000L531.2160,109.0052"/>
   <path d="M531.8280,91.8000L531.8280,105.4630"/>
   <path d="M532.4400,91.8000L532.4400,109.0052"/>
   <path d="M533.0520,91.8000L533.0520,108.2462"/>
   <path d="M533.6640,91.8000L533.6640,108.4992"/>
   <path d="M534.2760,91.8000L534.2760,106.2220"/>
   <path d="M534.8880,91.8000L534.8880,105.4630"/>
   <path d="M535.5000,91.8000L535.5000,106.9811"/>
   <path d="M536.1120,91.8000L536.1120,108.2462"/>
   <path d="M536.7240,91.8000L536.7240,107.2341"/>
   <path d="M537.3360,91.8000L537.3360,107.7401"/>
   <path d="M537.9480,91.8000L537.9480,107.7401"/>
   <path d="M538.5600,91.8000L538.5600,106.7281"/>
   <path d="M539.1720,91.8000L539.1720,106.7281"/>
   <path d="M539.7840,91.8000L539.7840,104.4509"/>
   <path d="M540.3960,91.8000L540.3960,104.1979"/>
   <path d="M541.0080,91.8000L541.0080,105.7160"/>
   <path d="M541.6200,91.8000L541.6200,101.4147"/>
   <path d="M542.2320,91.8000L542.2320,104.4509"/>
   <path d="M542.8440,91.8000L542.8440,103.6918"/>
   <path d="M543.4560,91.8000L543.4560,105.7160"/>
   <path d="M544.0680,91.8000L544.0680,102.1737"/>
   <path d="M544.6800,91.8000L544.6800,99.8966"/>
   <path d="M545.2920,91.8000L545.2920,103.9449"/>
   <path d="M545.9040,91.8000L545.9040,103.4388"/>
   <path d="M546.5160,91.8000L546.5160,101.6677"/>
   <path d="M547.1280,91.8000L547.1280,102.9328"/>
   <path d="M547.7400,91.8000L547.7400,102.1737"/>
   <path d="M548.3520,91.8000L548.3520,100.9086"/>
   <path d="M548.9640,91.8000L548.9640,100.1496"/>
   <path d="M549.5760,91.8000L549.5760,98.6315"/>
   <path d="M550.1880,91.8000L550.1880,97.3664"/>
   <path d="M550.8000,91.8000L550.8000,100.1496"/>
   <path d="M551.4120,91.8000L551.4120,96.1013"/>
   <path d="M552.0240,91.8000L552.0240,97.3664"/>
   <path d="M552.6360,91.8000L552.6360,98.6315"/>
   <path d="M553.2480,91.8000L553.2480,96.1013"/>
   <path d="M553.8600,91.8000L553.8600,97.1134"/>
   <path d="M554.4720,91.8000L554.4720,96.3543"/>
   <path d="M555.0840,91.8000L555.0840,98.1255"/>
   <path d="M555.6960,91.8000L555.6960,96.3543"/>
   <path d="M556.3080,91.8000L556.3080,99.3905"/>
   <path d="M556.9200,91.8000L556.9200,97.8724"/>
   <path d="M557.5320,91.8000L557.5320,97.8724"/>
   <path d="M558.1440,91.8000L558.1440,98.6315"/>
   <path d="M558.7560,91.8000L558.7560,97.1134"/>
   <path d="M559.3680,91.8000L559.3680,97.1134"/>
   <path d="M559.9800,91.8000L559.9800,100.1496"/>
   <path d="M560.5920,91.8000L560.5920,100.4026"/>
   <path d="M561.2040,91.8000L561.2040,100.1496"/>
   <path d="M561.8160,91.8000L561.8160,97.6194"/>
   <path d="M562.4280,91.8000L562.4280,98.6315"/>
   <path d="M563.0400,91.8000L563.0400,99.3905"/>
   <path d="M563.6520,91.8000L563.6520,97.6194"/>
   <path d="M564.2640,91.8000L564.2640,97.6194"/>
   <path d="M564.8760,91.8000L564.8760,96.6073"/>
   <path d="M565.4880,91.8000L565.4880,97.6194"/>
   <path d="M566.1000,91.8000L566.1000,97.3664"/>
   <path d="M566.7120,91.8000L566.7120,97.1134"/>
   <path d="M567.3240,91.8000L567.3240,97.3664"/>
   <path d="M567.9360,91.8000L567.9360,96.3543"/>
   <path d="M568.5480,91.8000L568.5480,95.3423"/>
   <path d="M569.1600,91.8000L569.1600,93.8241"/>
   <path d="M569.7720,91.8000L569.7720,95.5953"/>
   <path d="M570.3840,91.8000L570.3840,94.0772"/>
   <path d="M570.9960,91.8000L570.9960,96.1013"/>
   <path d="M571.6080,91.8000L571.6080,94.5832"/>
   <path d="M572.2200,91.8000L572.2200,95.3423"/>
   <path d="M572.8320,91.8000L572.8320,95.3423"/>
   <path d="M573.4440,91.8000L573.4440,94.8362"/>
   <path d="M574.0560,91.8000L574.0560,94.3302"/>
   <path d="M574.6680,91.8000L574.6680,95.3423"/>
   <path d="M575.2800,91.8000L575.2800,94.5832"/>
   <path d="M575.8920,91.8000L575.8920,95.0892"/>
   <path d="M576.5040,91.8000L576.5040,94.8362"/>
   <path d="M577.1160,91.8000L577.1160,95.3423"/>
   <path d="M577.7280,91.8000L577.7280,93.8241"/>
   <path d="M578.3400,91.8000L578.3400,94.3302"/>
   <path d="M578.9520,91.8000L578.9520,94.3302"/>
   <path d="M579.5640,91.8000L579.5640,93.5711"/>
   <path d="M580.1760,91.8000L580.1760,94.0772"/>
   <path d="M580.7880,91.8000L580.7880,93.0651"/>
   <path d="M581.4000,91.8000L581.4000,93.3181"/>
   <path d="M582.0120,91.8000L582.0120,95.5953"/>
   <path d="M582.6240,91.8000L582.6240,95.5953"/>
   <path d="M583.2360,91.8000L583.2360,95.3423"/>
   <path d="M583.8480,91.8000L583.8480,93.8241"/>
   <path d="M584.4600,91.8000L584.4600,94.8362"/>
   <path d="M585.0720,91.8000L585.0720,93.0651"/>
   <path d="M585.6840,91.8000L585.6840,93.8241"/>
   <path d="M586.2960,91.8000L586.2960,94.3302"/>
   <path d="M586.9080,91.8000L586.9080,92.3060"/>
   <path d="M587.5200,91.8000L587.5200,93.3181"/>
   <path d="M588.1320,91.8000L588.1320,93.3181"/>
   <path d="M588.7440,91.8000L588.7440,93.3181"/>
   <path d="M589.3560,91.8000L589.3560,93.3181"/>
   <path d="M589.9680,91.8000L589.9680,93.0651"/>
   <path d="M590.5800,91.8000L590.5800,94.3302"/>
   <path d="M591.1920,91.8000L591.1920,94.3302"/>
   <path d="M591.8040,91.8000L591.8040,92.5591"/>
   <path d="M592.4160,91.8000L592.4160,91.8000"/>
   <path d="M593.0280,91.8000L593.0280,94.5832"/>
   <path d="M593.6400,91.8000L593.6400,92.8121"/>
   <path d="M594.2520,91.8000L594.2520,92.8121"/>
   <path d="M594.8640,91.8000L594.8640,92.0530"/>
   <path d="M595.4760,91.8000L595.4760,92.3060"/>
   <path d="M596.0880,91.8000L596.0880,92.5591"/>
   <path d="M596.7000,91.8000L596.7000,92.3060"/>
   <path d="M597.3120,91.8000L597.3120,91.8000"/>
   <path d="M597.9240,91.8000L597.9240,91.8000"/>
   <path d="M598.5360,91.8000L598.5360,91.8000"/>
   <path d="M599.1480,91.8000L599.1480,91.8000"/>
   <path d="M599.7600,91.8000L599.7600,91.8000"/>
   <path d="M600.3720,91.8000L600.3720,91.8000"/>
   <path d="M600.9840,91.8000L600.9840,91.8000"/>
   <path d="M601.5960,91.8000L601.5960,91.8000"/>
   <path d="M602.2080,91.8000L602.2080,91.8000"/>
   <path d="M602.8200,91.8000L602.8200,91.8000"/>
   <path d="M603.4320,91.8000L603.4320,91.8000"/>
   <path d="M604.0440,91.8000L604.0440,91.8000"/>
   <path d="M604.6560,91.8000L604.6560,91.8000"/>
   <path d="M605.2680,91.8000L605.2680,91.8000"/>
   <path d="M605.8800,91.8000L605.8800,91.8000"/>
   <path d="M606.4920,91.8000L606.4920,91.8000"/>
   <path d="M607.1040,91.8000L607.1040,91.8000"/>
   <path d="M607.7160,91.8000L607.7160,91.8000"/>
   <path d="M608.3280,91.8000L608.3280,91.8000"/>
   <path d="M608.9400,91.8000L608.9400,91.8000"/>
   <path d="M609.5520,91.8000L609.5520,91.8000"/>
   <path d="M610.1640,91.8000L610.1640,91.8000"/>
   <path d="M610.7760,91.8000L610.7760,91.8000"/>
   <path d="M611.3880,91.8000L611.3880,91.8000"/>
   <path d="M612.0000,91.8000L612.0000,91.8000"/>
   <path d="M612.6120,91.8000L612.6120,91.8000"/>
   <path d="M613.2240,91.8000L613.2240,91.8000"/>
   <path d="M613.8360,91.8000L613.8360,91.8000"/>
   <path d="M614.4480,91.8000L614.4480,91.8000"/>
   <path d="M615.0600,91.8000L615.0600,91.8000"/>
   <path d="M615.6720,91.8000L615.6720,91.8000"/>
   <path d="M616.2840,91.8000L616.2840,91.8000"/>
   <path d="M616.8960,91.8000L616.8960,91.8000"/>
   <path d="M617.5080,91.8000L617.5080,91.8000"/>
   <path d="M618.1200,91.8000L618.1200,91.8000"/>
   <path d="M618.7320,91.8000L618.7320,91.8000"/>
   <path d="M619.3440,91.8000L619.3440,91.8000"/>
   <path d="M619.9560,91.8000L619.9560,91.8000"/>
   <path d="M620.5680,91.8000L620.5680,91.8000"/>
   <path d="M621.1800,91.8000L621.1800,91.8000"/>
   <path d="M621.7920,91.8000L621.7920,91.8000"/>
   <path d="M622.4040,91.8000L622.4040,91.8000"/>
   <path d="M623.0160,91.8000L623.0160,91.8000"/>
   <path d="M623.6280,91.8000L623.6280,91.8000"/>
   <path d="M624.2400,91.8000L624.2400,91.8000"/>
   <path d="M624.8520,91.8000L624.8520,91.8000"/>
   <path d="M625.4640,91.8000L625.4640,91.8000"/>
   <path d="M626.0760,91.8000L626.0760,91.8000"/>
   <path d="M626.6880,91.8000L626.6880,91.8000"/>
   <path d="M627.3000,91.8000L627.3000,91.8000"/>
   <path d="M627.9120,91.8000L627.9120,91.8000"/>
   <path d="M628.5240,91.8000L628.5240,91.8000"/>
   <path d="M629.1360,91.8000L629.1360,91.8000"/>
   <path d="M629.7480,91.8000L629.7480,91.8000"/>
   <path d="M630.3600,91.8000L630.3600,91.8000"/>
   <path d="M630.9720,91.8000L630.9720,91.8000"/>
   <path d="M631.5840,91.8000L631.5840,91.8000"/>
   <path d="M632.1960,91.8000L632.1960,91.8000"/>
   <path d="M632.8080,91.8000L632.8080,91.8000"/>
   <path d="M633.4200,91.8000L633.4200,91.8000"/>
   <path d="M634.0320,91.8000L634.0320,91.8000"/>
   <path d="M634.6440,91.8000L634.6440,91.8000"/>
   <path d="M635.2560,91.8000L635.2560,91.8000"/>
   <path d="M635.8680,91.8000L635.8680,91.8000"/>
   <path d="M636.4800,91.8000L636.4800,91.8000"/>
   <path d="M637.0920,91.8000L637.0920,91.8000"/>
   <path d="M637.7040,91.8000L637.7040,91.8000"/>
   <path d="M638.3160,91.8000L638.3160,91.8000"/>
   <path d="M638.9280,91.8000L638.9280,91.8000"/>
   <path d="M639.5400,91.8000L639.5400,91.8000"/>
   <path d="M640.1520,91.8000L640.1520,91.8000"/>
   <path d="M640.7640,91.8000L640.7640,91.8000"/>
   <path d="M641.3760,91.8000L641.3760,91.8000"/>
   <path d="M641.9880,91.8000L641.9880,91.8000"/>
   <path d="M642.6000,91.8000L642.6000,91.8000"/>
   <path d="M643.2120,91.8000L643.2120,91.8000"/>
   <path d="M643.8240,91.8000L643.8240,91.8000"/>
   <path d="M644.4360,91.8000L644.4360,91.8000"/>
   <path d="M645.0480,91.8000L645.0480,91.8000"/>
   <path d="M645.6600,91.8000L645.6600,91.8000"/>
   <path d="M646.2720,91.8000L646.2720,91.8000"/>
   <path d="M646.8840,91.8000L646.8840,91.8000"/>
   <path d="M647.4960,91.8000L647.4960,91.8000"/>
   <path d="M648.1080,91.8000L648.1080,91.8000"/>
   <path d="M648.7200,91.8000L648.7200,91.8000"/>
   <path d="M649.3320,91.8000L649.3320,91.8000"/>
   <path d="M649.9440,91.8000L649.9440,91.8000"/>
   <path d="M650.5560,91.8000L650.5560,91.8000"/>
   <path d="M651.1680,91.8000L651.1680,91.8000"/>
   <path d="M651.7800,91.8000L651.7800,91.8000"/>
   <path d="M652.3920,91.8000L652.3920,91.8000"/>
   <path d="M653.0040,91.8000L653.0040,91.8000"/>
   <path d="M653.6160,91.8000L653.6160,91.8000"/>
   <path d="M654.2280,91.8000L654.2280,91.8000"/>
   <path d="M654.8400,91.8000L654.8400,91.8000"/>
   <path d="M655.4520,91.8000L655.4520,91.8000"/>
   <path d="M656.0640,91.8000L656.0640,91.8000"/>
   <path d="M656.6760,91.8000L656.6760,91.8000"/>
   <path d="M657.2880,91.8000L657.2880,91.8000"/>
   <path d="M657.9000,91.8000L657.9000,91.8000"/>
   <path d="M658.5120,91.8000L658.5120,91.8000"/>
   <path d="M659.1240,91.8000L659.1240,91.8000"/>
   <path d="M659.7360,91.8000L659.7360,91.8000"/>
   <path d="M660.3480,91.8000L660.3480,91.8000"/>
   <path d="M660.9600,91.8000L660.9600,91.8000"/>
   <path d="M661.5720,91.8000L661.5720,91.8000"/>
   <path d="M662.1840,91.8000L662.1840,91.8000"/>
   <path d="M662.7960,91.8000L662.7960,91.8000"/>
   <path d="M663.4080,91.8000L663.4080,91.8000"/>
   <path d="M664.0200,91.8000L664.0200,91.8000"/>
   <path d="M664.6320,91.8000L664.6320,91.8000"/>
   <path d="M665.2440,91.8000L665.2440,91.8000"/>
   <path d="M665.8560,91.8000L665.8560,91.8000"/>
   <path d="M666.4680,91.8000L666.4680,91.8000"/>
   <path d="M667.0800,91.8000L667.0800,91.8000"/>
   <path d="M667.6920,91.8000L667.6920,91.8000"/>
   <path d="M668.3040,91.8000L668.3040,91.8000"/>
   <path d="M668.9160,91.8000L668.9160,91.8000"/>
   <path d="M669.5280,91.8000L669.5280,91.8000"/>
   <path d="M670.1400,91.8000L670.1400,91.8000"/>
   <path d="M670.7520,91.8000L670.7520,91.8000"/>
   <path d="M671.3640,91.8000L671.3640,91.8000"/>
   <path d="M671.9760,91.8000L671.9760,91.8000"/>
   <path d="M672.5880,91.8000L672.5880,91.8000"/>
   <path d="M673.2000,91.8000L673.2000,91.8000"/>
   <path d="M673.8120,91.8000L673.8120,91.8000"/>
   <path d="M674.4240,91.8000L674.4240,91.8000"/>
   <path d="M675.0360,91.8000L675.0360,91.8000"/>
   <path d="M675.6480,91.8000L675.6480,91.8000"/>
   <path d="M676.2600,91.8000L676.2600,91.8000"/>
   <path d="M676.8720,91.8000L676.8720,91.8000"/>
   <path d="M677.4840,91.8000L677.4840,91.8000"/>
   <path d="M678.0960,91.8000L678.0960,91.8000"/>
   <path d="M678.7080,91.8000L678.7080,91.8000"/>
   <path d="M679.3200,91.8000L679.3200,91.8000"/>
   <path d="M679.9320,91.8000L679.9320,91.8000"/>
   <path d="M680.5440,91.8000L680.5440,91.8000"/>
   <path d="M681.1560,91.8000L681.1560,91.8000"/>
   <path d="M681.7680,91.8000L681.7680,91.8000"/>
   <path d="M682.3800,91.8000L682.3800,91.8000"/>
   <path d="M682.9920,91.8000L682.9920,91.8000"/>
   <path d="M683.6040,91.8000L683.6040,91.8000"/>
   <path d="M684.2160,91.8000L684.2160,91.8000"/>
   <path d="M684.8280,91.8000L684.8280,91.8000"/>
   <path d="M685.4400,91.8000L685.4400,91.8000"/>
   <path d="M686.0520,91.8000L686.0520,91.8000"/>
   <path d="M686.6640,91.8000L686.6640,91.8000"/>
   <path d="M687.2760,91.8000L687.2760,91.8000"/>
   <path d="M687.8880,91.8000L687.8880,91.8000"/>
   <path d="M688.5000,91.8000L688.5000,91.8000"/>
   <path d="M689.1120,91.8000L689.1120,91.8000"/>
   <path d="M689.7240,91.8000L689.7240,91.8000"/>
   <path d="M690.3360,91.8000L690.3360,91.8000"/>
   <path d="M690.9480,91.8000L690.9480,91.8000"/>
   <path d="M691.5600,91.8000L691.5600,91.8000"/>
   <path d="M692.1720,91.8000L692.1720,91.8000"/>
   <path d="M692.7840,91.8000L692.7840,91.8000"/>
   <path d="M693.3960,91.8000L693.3960,91.8000"/>
   <path d="M694.0080,91.8000L694.0080,91.8000"/>
   <path d="M694.6200,91.8000L694.6200,91.8000"/>
   <path d="M695.2320,91.8000L695.2320,91.8000"/>
   <path d="M695.8440,91.8000L695.8440,91.8000"/>
   <path d="M696.4560,91.8000L696.4560,91.8000"/>
   <path d="M697.0680,91.8000L697.0680,91.8000"/>
   <path d="M697.6800,91.8000L697.6800,91.8000"/>
   <path d="M698.2920,91.8000L698.2920,91.8000"/>
   <path d="M698.9040,91.8000L698.9040,91.8000"/>
   <path d="M699.5160,91.8000L699.5160,91.8000"/>
   <path d="M700.1280,91.8000L700.1280,91.8000"/>
   <path d="M700.7400,91.8000L700.7400,91.8000"/>
   <path d="M701.3520,91.8000L701.3520,91.8000"/>
   <path d="M701.9640,91.8000L701.9640,91.8000"/>
   <path d="M702.5760,91.8000L702.5760,91.8000"/>
   <path d="M703.1880,91.8000L703.1880,91.8000"/>
   <path d="M703.8000,91.8000L703.8000,91.8000"/>
  </g>
  <g style="fill:none; stroke:#000000; stroke-width:  0.9180; stroke-linecap:butt; stroke-linejoin:miter; stroke-dasharray:none">
   <path d="M91.8000,91.8000L703.8000,91.8000"/>
   <path d="M91.8000,520.2000L703.8000,520.2000"/>
   <path d="M153.0000,91.8000L153.0000,97.9200"/>
   <path d="M153.0000,520.2000L153.0000,514.0800"/>
   <path d="M275.4000,91.8000L275.4000,97.9200"/>
   <path d="M275.4000,520.2000L275.4000,514.0800"/>
   <path d="M397.8000,91.8000L397.8000,97.9200"/>
   <path d="M397.8000,520.2000L397.8000,514.0800"/>
   <path d="M520.2000,91.8000L520.2000,97.9200"/>
   <path d="M520.2000,520.2000L520.2000,514.0800"/>
   <path d="M642.6000,91.8000L642.6000,97.9200"/>
   <path d="M642.6000,520.2000L642.6000,514.0800"/>
   <path d="M91.8000,91.8000L91.8000,104.0400"/>
   <path d="M91.8000,520.2000L91.8000,507.9600"/>
   <path d="M214.2000,91.8000L214.2000,104.0400"/>
   <path d="M214.2000,520.2000L214.2000,507.9600"/>
   <path d="M336.6000,91.8000L336.6000,104.0400"/>
   <path d="M336.6000,520.2000L336.6000,507.9600"/>
   <path d="M459.0000,91.8000L459.0000,104.0400"/>
   <path d="M459.0000,520.2000L459.0000,507.9600"/>
   <path d="M581.4000,91.8000L581.4000,104.0400"/>
   <path d="M581.4000,520.2000L581.4000,507.9600"/>
   <path d="M703.8000,91.8000L703.8000,104.0400"/>
   <path d="M703.8000,520.2000L703.8000,507.9600"/>
  </g>
  <g style="fill:#000000; fill-rule:nonzero">
   <text   style="font-family:'Times','Nimbus Roman'; font-style:normal; font-weight:normal; font-size:612.0000" transform="matrix(0.0280,0.0000,-0.0000,-0.0280,87.8000,74.6800)">0</text>
   <text   style="font-family:'Times','Nimbus Roman'; font-style:normal; font-weight:normal; font-size:612.0000" transform="matrix(0.0280,0.0000,-0.0000,-0.0280,205.7000,74.6800)">20</text>
   <text   style="font-family:'Times','Nimbus Roman'; font-style:normal; font-weight:normal; font-size:612.0000" transform="matrix(0.0280,0.0000,-0.0000,-0.0280,328.1000,74.6800)">40</text>
   <text   style="font-family:'Times','Nimbus Roman'; font-style:normal; font-weight:normal; font-size:612.0000" transform="matrix(0.0280,0.0000,-0.0000,-0.0280,450.5000,73.6800)">60</text>
   <text   style="font-family:'Times','Nimbus Roman'; font-style:normal; font-weight:normal; font-size:612.0000" transform="matrix(0.0280,0.0000,-0.0000,-0.0280,572.9000,74.6800)">80</text>
   <text   style="font-family:'Times','Nimbus Roman'; font-style:normal; font-weight:normal; font-size:612.0000" transform="matrix(0.0280,0.0000,-0.0000,-0.0280,691.3000,73.6800)">100</text>
  </g>
  <g style="fill:none; stroke:#000000; stroke-width:  0.9180; stroke-linecap:butt; stroke-linejoin:miter; stroke-dasharray:none">
   <path d="M91.8000,91.8000L91.8000,520.2000"/>
   <path d="M703.8000,91.8000L703.8000,520.2000"/>
   <path d="M91.8000,145.3500L97.9200,145.3500"/>
   <path d="M703.8000,145.3500L697.6800,145.3500"/>
   <path d="M91.8000,252.4500L97.9200,252.4500"/>
   <path d="M703.8000,252.4500L697.6800,252.4500"/>
   <path d="M91.8000,359.5500L97.9200,359.5500"/>
   <path d="M703.8000,359.5500L697.6800,359.5500"/>
   <path d="M91.8000,466.6500L97.9200,466.6500"/>
   <path d="M703.8000,466.6500L697.6800,466.6500"/>
   <path d="M91.8000,91.8000L104.0400,91.8000"/>
   <path d="M703.8000,91.8000L691.5600,91.8000"/>
   <path d="M91.8000,198.9000L104.0400,198.9000"/>
   <path d="M703.8000,198.9000L691.5600,198.9000"/>
   <path d="M91.8000,306.0000L104.0400,306.0000"/>
   <path d="M703.8000,306.0000L691.5600,306.0000"/>
   <path d="M91.8000,413.1000L104.0400,413.1000"/>
   <path d="M703.8000,413.1000L691.5600,413.1000"/>
   <path d="M91.8000,520.2000L104.0400,520.2000"/>
   <path d="M703.8000,520.2000L691.5600,520.2000"/>
  </g>
  <g style="fill:#000000; fill-rule:nonzero">
   <text   style="font-family:'Times','Nimbus Roman'; font-style:normal; font-weight:normal; font-size:612.0000" transform="matrix(0.0280,0.0000,-0.0000,-0.0280,77.6800,86.3000)">0</text>
   <text   style="font-family:'Times','Nimbus Roman'; font-style:normal; font-weight:normal; font-size:612.0000" transform="matrix(0.0280,0.0000,-0.0000,-0.0280,57.6800,192.9000)">0.01</text>
   <text   style="font-family:'Times','Nimbus Roman'; font-style:normal; font-weight:normal; font-size:612.0000" transform="matrix(0.0280,0.0000,-0.0000,-0.0280,56.6800,300.5000)">0.02</text>
   <text   style="font-family:'Times','Nimbus Roman'; font-style:normal; font-weight:normal; font-size:612.0000" transform="matrix(0.0280,0.0000,-0.0000,-0.0280,57.6800,407.6000)">0.03</text>
   <text   style="font-family:'Times','Nimbus Roman'; font-style:normal; font-weight:normal; font-size:612.0000" transform="matrix(0.0280,0.0000,-0.0000,-0.0280,56.6800,514.7000)">0.04</text>
  </g>
  <g style="fill:none; stroke:#000000; stroke-width:  0.9180; stroke-linecap:butt; stroke-linejoin:miter; stroke-dasharray:none">
   <path d="M91.8000,91.8000L91.8000,520.2000L703.8000,520.2000L703.8000,91.8000z"/>
  </g>
 </g>
</svg>
